<svg width="720" height="571" viewBox="0 0 720 571" fill="none" xmlns="http://www.w3.org/2000/svg">
<rect width="720" height="571" fill="white"/>
<path d="M100.161 95.375L106.036 113.219H106.286L112.193 95.375H116.661L108.661 118H103.661L95.6925 95.375H100.161ZM117.959 113.188C117.959 109.297 121.396 108.406 124.334 108.188C125.428 108.109 128.162 107.953 128.928 107.938V106.562C128.928 104.406 127.646 103.156 125.084 103.156C122.943 103.156 121.646 104.141 121.271 105.438H118.459C118.803 102.703 121.459 100.812 125.209 100.812C127.428 100.812 131.599 101.469 131.584 106.812V118H128.928V115.688H128.803C128.24 116.828 126.693 118.391 123.74 118.406C120.521 118.391 117.959 116.5 117.959 113.188ZM120.646 113.312C120.662 115.109 122.146 116.016 124.209 116C127.24 116.016 128.928 113.984 128.928 111.844V110.141C128.131 110.188 125.459 110.391 124.646 110.438C122.209 110.594 120.662 111.453 120.646 113.312ZM135.256 124.375V101.031H137.85V103.719H138.163C138.741 102.812 139.772 100.812 143.069 100.812C147.334 100.812 150.288 104.188 150.288 109.562C150.288 114.953 147.334 118.359 143.1 118.344C139.866 118.359 138.741 116.344 138.163 115.406H137.944V124.375H135.256ZM137.881 109.5C137.897 113.312 139.6 115.938 142.725 115.938C145.944 115.938 147.6 113.109 147.6 109.5C147.6 105.953 145.991 103.219 142.725 103.219C139.553 103.219 137.897 105.734 137.881 109.5ZM160.085 118.344C155.46 118.359 152.335 114.859 152.335 109.594C152.335 104.297 155.46 100.812 160.085 100.812C164.694 100.812 167.788 104.297 167.773 109.594C167.788 114.859 164.694 118.359 160.085 118.344ZM155.023 109.594C155.038 112.984 156.632 115.969 160.085 115.969C163.507 115.969 165.085 112.984 165.085 109.594C165.085 106.219 163.507 103.188 160.085 103.188C156.632 103.188 155.038 106.219 155.023 109.594ZM170.664 118V101.031H173.258V103.625H173.445C174.054 101.906 175.82 100.766 177.82 100.75C178.226 100.766 178.914 100.781 179.226 100.812V103.531C179.023 103.484 178.304 103.344 177.601 103.344C175.164 103.344 173.351 105.031 173.351 107.312V118H170.664ZM181.211 118V101.031H183.899V118H181.211ZM180.68 96.4375C180.664 95.4375 181.524 94.6406 182.555 94.6562C183.586 94.6406 184.446 95.4375 184.461 96.4375C184.446 97.4219 183.586 98.2188 182.555 98.2188C181.524 98.2188 180.664 97.4219 180.68 96.4375ZM187.04 118V115.969L196.603 103.688V103.5H187.353V101.031H200.071V103.156L190.79 115.344V115.531H200.384V118H187.04ZM209.931 118.344C205.025 118.359 201.994 114.859 201.994 109.656C201.994 104.438 205.072 100.812 209.681 100.812C213.244 100.812 217.009 103 216.994 109.281V110.406H204.681C204.822 114 206.916 115.969 209.931 115.969C211.963 115.969 213.244 115.078 213.869 114.031H216.744C215.947 116.609 213.431 118.359 209.931 118.344ZM204.697 108.125H214.275C214.259 105.297 212.478 103.188 209.681 103.188C206.744 103.188 204.884 105.5 204.697 108.125ZM226.26 118.344C222.026 118.359 219.041 114.953 219.041 109.562C219.041 104.188 222.026 100.812 226.291 100.812C229.588 100.812 230.619 102.812 231.198 103.719H231.385V95.375H234.104V118H231.479V115.406H231.198C230.604 116.344 229.494 118.359 226.26 118.344ZM221.76 109.5C221.76 113.109 223.416 115.938 226.635 115.938C229.744 115.938 231.463 113.312 231.479 109.5C231.463 105.734 229.791 103.219 226.635 103.219C223.369 103.219 221.76 105.953 221.76 109.5ZM245.449 118V95.375H249.511V104.969H260.043V95.375H264.136V118H260.043V108.375H249.511V118H245.449ZM269.465 124.375C268.887 124.359 268.309 124.344 267.965 124.312V121.906C268.246 121.938 268.856 121.953 269.278 121.969C270.371 121.953 271.293 121.891 272.184 119.406L272.684 118.125L266.403 101.031H269.34L273.965 114.5H274.153L278.778 101.031H281.715L274.528 120.438C273.528 123.109 271.871 124.359 269.465 124.375ZM289.825 118.344C285.591 118.359 282.606 114.953 282.606 109.562C282.606 104.188 285.591 100.812 289.856 100.812C293.153 100.812 294.184 102.812 294.763 103.719H294.95V95.375H297.669V118H295.044V115.406H294.763C294.169 116.344 293.059 118.359 289.825 118.344ZM285.325 109.5C285.325 113.109 286.981 115.938 290.2 115.938C293.309 115.938 295.028 113.312 295.044 109.5C295.028 105.734 293.356 103.219 290.2 103.219C286.934 103.219 285.325 105.953 285.325 109.5ZM301.685 118V101.031H304.279V103.625H304.466C305.076 101.906 306.841 100.766 308.841 100.75C309.247 100.766 309.935 100.781 310.247 100.812V103.531C310.044 103.484 309.326 103.344 308.622 103.344C306.185 103.344 304.372 105.031 304.372 107.312V118H301.685ZM318.607 118.344C313.982 118.359 310.857 114.859 310.857 109.594C310.857 104.297 313.982 100.812 318.607 100.812C323.217 100.812 326.311 104.297 326.295 109.594C326.311 114.859 323.217 118.359 318.607 118.344ZM313.545 109.594C313.561 112.984 315.154 115.969 318.607 115.969C322.029 115.969 323.607 112.984 323.607 109.594C323.607 106.219 322.029 103.188 318.607 103.188C315.154 103.188 313.561 106.219 313.545 109.594ZM336.061 124.719C331.952 124.719 329.171 122.922 328.874 119.781H331.686C332.046 121.516 333.655 122.375 336.061 122.375C338.967 122.375 340.749 121.109 340.749 118.312V114.875H340.53C339.952 115.812 338.874 117.734 335.592 117.75C331.467 117.734 328.374 114.625 328.374 109.281C328.374 104.062 331.358 100.812 335.624 100.812C338.921 100.812 339.983 102.812 340.592 103.719H340.811V101.031H343.436V118.469C343.421 122.844 340.202 124.719 336.061 124.719ZM331.092 109.375C331.092 112.891 332.749 115.344 335.967 115.344C339.077 115.344 340.796 113.109 340.811 109.375C340.796 105.734 339.124 103.219 335.967 103.219C332.702 103.219 331.092 105.953 331.092 109.375ZM354.202 118.344C349.296 118.359 346.265 114.859 346.265 109.656C346.265 104.438 349.343 100.812 353.952 100.812C357.515 100.812 361.281 103 361.265 109.281V110.406H348.952C349.093 114 351.187 115.969 354.202 115.969C356.234 115.969 357.515 115.078 358.14 114.031H361.015C360.218 116.609 357.702 118.359 354.202 118.344ZM348.968 108.125H358.546C358.531 105.297 356.749 103.188 353.952 103.188C351.015 103.188 349.156 105.5 348.968 108.125ZM366.812 107.812V118H364.125V101.031H366.719V103.688H366.938C367.734 101.953 369.328 100.812 371.906 100.812C375.344 100.812 377.641 102.906 377.625 107.219V118H374.938V107.406C374.938 104.781 373.5 103.219 371.094 103.219C368.625 103.219 366.812 104.875 366.812 107.812ZM388.626 118V95.375H397.126C402.314 95.375 405.079 98.5312 405.095 102.875C405.079 107.203 402.283 110.344 397.064 110.344H392.689V118H388.626ZM392.689 107H396.501C399.564 106.984 400.939 105.266 400.939 102.875C400.939 100.453 399.564 98.7812 396.501 98.7812H392.689V107ZM414.924 118.344C410.018 118.359 406.986 114.859 406.986 109.656C406.986 104.438 410.064 100.812 414.674 100.812C418.236 100.812 422.002 103 421.986 109.281V110.406H409.674C409.814 114 411.908 115.969 414.924 115.969C416.955 115.969 418.236 115.078 418.861 114.031H421.736C420.939 116.609 418.424 118.359 414.924 118.344ZM409.689 108.125H419.268C419.252 105.297 417.471 103.188 414.674 103.188C411.736 103.188 409.877 105.5 409.689 108.125ZM424.846 118V101.031H427.44V103.625H427.628C428.237 101.906 430.003 100.766 432.003 100.75C432.409 100.766 433.096 100.781 433.409 100.812V103.531C433.206 103.484 432.487 103.344 431.784 103.344C429.346 103.344 427.534 105.031 427.534 107.312V118H424.846ZM441.769 118.344C437.144 118.359 434.019 114.859 434.019 109.594C434.019 104.297 437.144 100.812 441.769 100.812C446.378 100.812 449.472 104.297 449.456 109.594C449.472 114.859 446.378 118.359 441.769 118.344ZM436.706 109.594C436.722 112.984 438.316 115.969 441.769 115.969C445.191 115.969 446.769 112.984 446.769 109.594C446.769 106.219 445.191 103.188 441.769 103.188C438.316 103.188 436.722 106.219 436.706 109.594ZM453.66 101.031L457.66 107.938L461.691 101.031H464.785L459.316 109.5L464.785 118H461.723L457.66 111.438L453.66 118H450.566L455.91 109.5L450.566 101.031H453.66ZM467.395 118V101.031H470.083V118H467.395ZM466.864 96.4375C466.848 95.4375 467.708 94.6406 468.739 94.6562C469.77 94.6406 470.629 95.4375 470.645 96.4375C470.629 97.4219 469.77 98.2188 468.739 98.2188C467.708 98.2188 466.848 97.4219 466.864 96.4375ZM480.13 118.344C475.896 118.359 472.911 114.953 472.911 109.562C472.911 104.188 475.896 100.812 480.161 100.812C483.458 100.812 484.489 102.812 485.068 103.719H485.255V95.375H487.974V118H485.349V115.406H485.068C484.474 116.344 483.364 118.359 480.13 118.344ZM475.63 109.5C475.63 113.109 477.286 115.938 480.505 115.938C483.614 115.938 485.333 113.312 485.349 109.5C485.333 105.734 483.661 103.219 480.505 103.219C477.239 103.219 475.63 105.953 475.63 109.5ZM499.115 118.344C494.209 118.359 491.177 114.859 491.177 109.656C491.177 104.438 494.256 100.812 498.865 100.812C502.427 100.812 506.193 103 506.177 109.281V110.406H493.865C494.006 114 496.099 115.969 499.115 115.969C501.146 115.969 502.427 115.078 503.052 114.031H505.927C505.131 116.609 502.615 118.359 499.115 118.344ZM493.881 108.125H503.459C503.443 105.297 501.662 103.188 498.865 103.188C495.927 103.188 494.068 105.5 493.881 108.125ZM516.772 118V95.375H524.46C529.757 95.375 532.179 98.5312 532.179 102.562C532.179 106.578 529.757 109.781 524.491 109.781H519.585V118H516.772ZM519.585 107.281H524.366C527.976 107.281 529.382 105.25 529.397 102.562C529.382 99.8594 527.976 97.875 524.335 97.875H519.585V107.281ZM535.133 118V101.031H537.726V103.625H537.914C538.523 101.906 540.289 100.766 542.289 100.75C542.695 100.766 543.383 100.781 543.695 100.812V103.531C543.492 103.484 542.773 103.344 542.07 103.344C539.633 103.344 537.82 105.031 537.82 107.312V118H535.133ZM552.055 118.344C547.43 118.359 544.305 114.859 544.305 109.594C544.305 104.297 547.43 100.812 552.055 100.812C556.664 100.812 559.758 104.297 559.742 109.594C559.758 114.859 556.664 118.359 552.055 118.344ZM546.992 109.594C547.008 112.984 548.602 115.969 552.055 115.969C555.477 115.969 557.055 112.984 557.055 109.594C557.055 106.219 555.477 103.188 552.055 103.188C548.602 103.188 547.008 106.219 546.992 109.594ZM569.571 118.344C564.759 118.359 561.821 114.688 561.821 109.594C561.821 104.438 564.899 100.812 569.509 100.812C573.118 100.812 575.837 102.953 576.259 106.156H573.571C573.181 104.609 571.837 103.188 569.571 103.188C566.54 103.188 564.524 105.688 564.509 109.5C564.524 113.422 566.493 115.938 569.571 115.938C571.571 115.938 573.103 114.859 573.571 113H576.259C575.837 116.031 573.337 118.359 569.571 118.344ZM586.056 118.344C581.15 118.359 578.119 114.859 578.119 109.656C578.119 104.438 581.197 100.812 585.806 100.812C589.369 100.812 593.134 103 593.119 109.281V110.406H580.806C580.947 114 583.041 115.969 586.056 115.969C588.087 115.969 589.369 115.078 589.994 114.031H592.869C592.072 116.609 589.556 118.359 586.056 118.344ZM580.822 108.125H590.4C590.384 105.297 588.603 103.188 585.806 103.188C582.869 103.188 581.009 105.5 580.822 108.125ZM605.416 105.438C605.041 104.031 603.963 103.109 601.979 103.094C599.885 103.109 598.401 104.234 598.385 105.656C598.401 106.781 599.307 107.547 601.291 108.031L603.823 108.656C606.854 109.375 608.338 110.891 608.354 113.25C608.338 116.188 605.948 118.359 601.698 118.344C597.885 118.359 595.619 116.656 595.166 113.562H597.979C598.291 115.219 599.494 116.016 601.635 116C604.057 116.016 605.573 115 605.573 113.406C605.573 112.203 604.713 111.422 602.791 110.969L600.229 110.375C597.276 109.688 595.698 108.078 595.698 105.812C595.698 102.906 598.244 100.812 601.979 100.812C605.494 100.812 607.698 102.688 608.041 105.438H605.416ZM620.651 105.438C620.276 104.031 619.198 103.109 617.214 103.094C615.12 103.109 613.636 104.234 613.62 105.656C613.636 106.781 614.542 107.547 616.526 108.031L619.057 108.656C622.089 109.375 623.573 110.891 623.589 113.25C623.573 116.188 621.182 118.359 616.932 118.344C613.12 118.359 610.854 116.656 610.401 113.562H613.214C613.526 115.219 614.729 116.016 616.87 116C619.292 116.016 620.807 115 620.807 113.406C620.807 112.203 619.948 111.422 618.026 110.969L615.464 110.375C612.511 109.688 610.932 108.078 610.932 105.812C610.932 102.906 613.479 100.812 617.214 100.812C620.729 100.812 622.932 102.688 623.276 105.438H620.651Z" fill="#1E1E1E"/>
<circle cx="360" cy="191" r="12.8571" stroke="#7737FF" stroke-width="10.2857"/>
<path d="M51.3652 259.768V260.756C51.3545 262.271 51.3545 264.795 50.8066 268.34L49.1094 268.189C49.6357 264.988 49.6787 262.668 49.668 261.143H41.6543V259.768H51.3652ZM40.5801 271.133C41.8369 271.122 43.2334 271.111 44.7051 271.079V265.225H46.3594V271.025C48.4756 270.95 50.6455 270.811 52.6328 270.574L52.7188 271.842C48.7012 272.465 44.2109 272.551 40.7949 272.529L40.5801 271.133ZM53.8359 276.74V257.641H55.5117V265.633H58.6055V267.094H55.5117V276.74H53.8359ZM65.7709 261.25C65.7602 263.882 67.7475 266.31 70.562 267.287L69.7026 268.641C67.5327 267.846 65.8461 266.234 64.9975 264.215C64.1918 266.492 62.4623 268.243 60.2065 269.113L59.2827 267.76C62.1938 266.739 64.1059 264.15 64.1166 261.186V258.822H65.7709V261.25ZM62.3549 276.332V270.402H64.0737V274.914H75.1596V276.332H62.3549ZM72.603 271.756V257.641H74.2787V263.506H77.1577V264.945H74.2787V271.756H72.603ZM92.745 257.641V265.783H95.7958V267.201H92.745V276.74H91.0477V257.641H92.745ZM77.6845 271.648C79.2421 271.648 81.0575 271.638 82.9481 271.584V269.479C80.7245 269.221 79.2743 267.91 79.2958 266.02C79.2743 263.86 81.1005 262.464 83.8075 262.475C86.4716 262.464 88.33 263.86 88.3407 266.02C88.33 267.921 86.8583 269.221 84.6454 269.479V271.52C86.4179 271.434 88.2225 271.283 89.8876 271.047L89.995 272.336C85.827 273.045 81.3153 273.088 77.9637 273.088L77.6845 271.648ZM78.0282 261.357V259.982H82.9481V257.684H84.6454V259.982H89.5438V261.357H78.0282ZM80.8641 266.02C80.8749 267.341 82.035 268.211 83.8075 268.189C85.5477 268.211 86.7186 267.341 86.7294 266.02C86.7186 264.688 85.5477 263.785 83.8075 263.785C82.035 263.785 80.8749 264.688 80.8641 266.02ZM106.076 259.424C106.087 262.12 109.589 264.44 113.037 264.924L112.35 266.299C109.385 265.805 106.442 264.161 105.217 261.819C103.993 264.183 101.06 265.805 98.0843 266.299L97.3968 264.924C100.845 264.44 104.336 262.163 104.336 259.424V258.328H106.076V259.424ZM96.4945 269.822V268.404H113.897V269.822H105.991V276.74H104.336V269.822H96.4945ZM132.556 272.852V274.248H115.068V272.852H122.888V268.168H124.543V272.852H132.556ZM115.756 266.986C119.096 266.417 122.813 263.624 122.824 260.412V258.951H124.586V260.412C124.596 263.603 128.367 266.417 131.697 266.986L130.945 268.383C128.034 267.781 124.962 265.815 123.726 263.065C122.469 265.805 119.429 267.781 116.508 268.383L115.756 266.986ZM151.044 266.729V268.125H133.642V266.729H151.044ZM134.63 264.236C137.96 263.85 141.172 262.206 141.247 260.025H135.232V258.629H149.497V260.025H143.439C143.514 262.185 146.694 263.85 150.077 264.236L149.454 265.59C146.328 265.192 143.396 263.785 142.343 261.669C141.29 263.785 138.379 265.192 135.232 265.59L134.63 264.236ZM135.747 273.26C135.737 271.068 138.218 269.801 142.343 269.801C146.436 269.801 148.896 271.068 148.917 273.26C148.896 275.473 146.436 276.697 142.343 276.697C138.218 276.697 135.737 275.473 135.747 273.26ZM137.466 273.26C137.445 274.592 139.281 275.354 142.343 275.344C145.372 275.354 147.209 274.592 147.22 273.26C147.209 271.917 145.372 271.154 142.343 271.133C139.281 271.154 137.445 271.917 137.466 273.26ZM168.006 257.641V276.74H166.309V257.641H168.006ZM152.452 271.777C157.619 269.328 160.261 265.665 160.637 261.1H153.333V259.725H162.356C162.335 265.214 159.778 270.08 153.376 273.152L152.452 271.777ZM188.256 266.514V267.846H170.768V266.514H188.256ZM172.873 270.639V269.371H186.065V273.432H174.592V275.258H186.688V276.482H172.895V272.271H184.389V270.639H172.873ZM172.981 259.445V258.221H186V262.174H174.721V263.85H186.344V265.074H173.045V261.014H184.303V259.445H172.981ZM200.847 262.775C200.847 266.138 203.07 269.607 205.788 270.939L204.757 272.293C202.651 271.197 200.89 268.931 200.041 266.277C199.192 269.092 197.388 271.509 195.239 272.658L194.165 271.305C196.958 269.93 199.171 266.267 199.192 262.775V259.295H200.847V262.775ZM207.55 276.74V257.641H209.226V265.396H212.427V266.857H209.226V276.74H207.55ZM230.42 267.094V268.49H213.018V267.094H217.336V264.397C215.811 263.807 214.952 262.84 214.952 261.551C214.952 259.306 217.53 258.017 221.719 258.006C225.876 258.017 228.454 259.306 228.465 261.551C228.454 262.829 227.606 263.796 226.102 264.397V267.094H230.42ZM215.123 273.324C215.113 271.144 217.573 269.94 221.719 269.951C225.812 269.94 228.272 271.144 228.293 273.324C228.272 275.505 225.812 276.697 221.719 276.697C217.573 276.697 215.113 275.505 215.123 273.324ZM216.692 261.551C216.681 262.947 218.593 263.753 221.719 263.764C224.813 263.753 226.736 262.947 226.746 261.551C226.736 260.176 224.813 259.338 221.719 259.338C218.593 259.338 216.681 260.176 216.692 261.551ZM216.842 273.324C216.821 274.624 218.658 275.397 221.719 275.387C224.748 275.397 226.585 274.624 226.596 273.324C226.585 272.024 224.748 271.262 221.719 271.24C218.658 271.262 216.821 272.024 216.842 273.324ZM219.012 267.094H224.426V264.849C223.621 264.999 222.718 265.074 221.719 265.074C220.72 265.074 219.818 264.999 219.012 264.859V267.094ZM246.523 257.662V263.957H249.402V265.375H246.523V271.971H244.848V257.662H246.523ZM231.635 261.379V260.004H236.49V257.662H238.166V260.004H243.021V261.379H231.635ZM232.73 265.998C232.72 263.828 234.567 262.432 237.328 262.432C240.056 262.432 241.904 263.828 241.926 265.998C241.904 268.146 240.056 269.532 237.328 269.521C234.567 269.532 232.72 268.146 232.73 265.998ZM234.342 265.998C234.331 267.341 235.523 268.211 237.328 268.189C239.111 268.211 240.314 267.341 240.336 265.998C240.314 264.634 239.111 263.753 237.328 263.764C235.523 263.753 234.331 264.634 234.342 265.998ZM234.578 276.332V270.832H236.232V274.914H247.404V276.332H234.578ZM270.436 258.693V260.133C270.436 261.669 270.436 263.463 269.985 265.848H272.735V267.244H267.837V271.863H266.204V267.244H262.702V271.863H261.048V267.244H255.247V265.848H268.309C268.771 263.431 268.771 261.669 268.76 260.133V260.068H257.46V258.693H270.436ZM257.395 276.332V270.359H259.071V274.914H270.952V276.332H257.395ZM295.23 257.641V276.74H293.619V257.641H295.23ZM278.666 271.648C281.33 270.059 282.887 266.567 282.877 263.098V261.293H279.203V259.896H288.011V261.293H284.509V263.098C284.509 266.396 286.003 269.693 288.634 271.219L287.603 272.465C285.723 271.337 284.391 269.274 283.725 266.847C283.038 269.479 281.652 271.724 279.74 272.916L278.666 271.648ZM286.55 265.912V264.537H289.773V258.113H291.363V275.752H289.773V265.912H286.55ZM313.288 257.641V276.74H311.612V266.729H307.058V265.332H311.612V257.641H313.288ZM297.497 271.756C302.664 269.253 305.06 265.568 305.403 261.1H298.335V259.725H307.101C307.09 265.139 304.802 269.94 298.421 273.109L297.497 271.756ZM331.723 259.768V260.756C331.712 262.271 331.712 264.795 331.164 268.34L329.467 268.189C329.993 264.988 330.036 262.668 330.025 261.143H322.012V259.768H331.723ZM320.937 271.133C322.194 271.122 323.591 271.111 325.062 271.079V265.225H326.717V271.025C328.833 270.95 331.003 270.811 332.99 270.574L333.076 271.842C329.059 272.465 324.568 272.551 321.152 272.529L320.937 271.133ZM334.193 276.74V257.641H335.869V265.633H338.963V267.094H335.869V276.74H334.193ZM355.538 257.641V269.027H353.841V264.021H349.995V262.625H353.841V257.641H355.538ZM339.79 267.502C342.626 266.481 344.646 263.893 344.646 261.164V260.455H340.328V259.037H350.619V260.455H346.343V261.143C346.343 263.635 348.255 266.009 351.048 266.965L350.167 268.318C348.03 267.545 346.365 265.934 345.537 263.968C344.721 266.202 342.949 267.985 340.671 268.855L339.79 267.502ZM342.798 273.174C342.787 270.929 345.226 269.618 349.201 269.629C353.164 269.618 355.603 270.929 355.603 273.174C355.603 275.43 353.164 276.719 349.201 276.74C345.226 276.719 342.787 275.43 342.798 273.174ZM344.474 273.174C344.463 274.56 346.268 275.397 349.201 275.387C352.122 275.397 353.927 274.56 353.927 273.174C353.927 271.777 352.122 270.939 349.201 270.939C346.268 270.939 344.463 271.777 344.474 273.174ZM375.68 267.717V269.092H358.278V267.717H375.68ZM360.212 262.109C360.212 259.714 362.833 258.307 366.979 258.328C371.083 258.307 373.715 259.714 373.725 262.109C373.715 264.483 371.083 265.912 366.979 265.912C362.833 265.912 360.212 264.483 360.212 262.109ZM360.534 276.332V270.768H362.231V274.914H373.747V276.332H360.534ZM361.952 262.109C361.941 263.624 363.896 264.537 366.979 264.537C370.041 264.537 371.996 263.624 372.007 262.109C371.996 260.616 370.041 259.682 366.979 259.682C363.896 259.682 361.941 260.616 361.952 262.109ZM387.047 259.123C389.861 259.134 391.859 261.723 391.881 265.783C391.859 269.854 389.861 272.433 387.047 272.422C384.211 272.433 382.223 269.854 382.234 265.783C382.223 261.723 384.211 259.134 387.047 259.123ZM383.824 265.783C383.835 268.888 385.156 270.929 387.047 270.918C388.959 270.929 390.248 268.888 390.248 265.783C390.248 262.679 388.959 260.638 387.047 260.627C385.156 260.638 383.835 262.679 383.824 265.783ZM395.039 276.74V257.641H396.715V265.268H399.916V266.729H396.715V276.74H395.039ZM416.255 257.641V276.783H414.558V257.641H416.255ZM401.216 265.783C401.227 261.723 403.246 259.134 406.093 259.123C408.929 259.134 410.981 261.723 410.97 265.783C410.981 269.854 408.929 272.433 406.093 272.422C403.246 272.433 401.227 269.854 401.216 265.783ZM402.849 265.783C402.849 268.888 404.181 270.929 406.093 270.918C408.016 270.929 409.337 268.888 409.337 265.783C409.337 262.679 408.016 260.638 406.093 260.627C404.181 260.638 402.849 262.679 402.849 265.783ZM428.598 263.484V265.998H436.483V267.373H419.081V265.998H426.944V263.484H428.598ZM420.047 263.205C423.539 262.818 426.922 260.992 426.922 258.521V257.791H428.62V258.521C428.62 260.992 432.014 262.818 435.495 263.205L434.893 264.494C431.885 264.086 428.974 262.786 427.771 260.691C426.568 262.786 423.646 264.086 420.649 264.494L420.047 263.205ZM421.186 270.273V268.963H434.249V273.303H422.905V275.193H434.829V276.525H421.229V272.035H432.594V270.273H421.186ZM445.109 259.768V266.363H439.932V270.617C442.134 270.596 444.218 270.531 446.764 270.08L446.893 271.477C444.175 271.96 441.983 272.024 439.566 272.035H438.299V264.967H443.498V261.164H438.256V259.768H445.109ZM446.033 265.912V264.537H448.482V258.113H450.072V275.73H448.482V265.912H446.033ZM452.371 276.74V257.641H453.982V276.74H452.371ZM471.976 257.641V276.783H470.279V257.641H471.976ZM456.937 265.783C456.948 261.723 458.967 259.134 461.814 259.123C464.65 259.134 466.702 261.723 466.691 265.783C466.702 269.854 464.65 272.433 461.814 272.422C458.967 272.433 456.948 269.854 456.937 265.783ZM458.57 265.783C458.57 268.888 459.902 270.929 461.814 270.918C463.737 270.929 465.058 268.888 465.058 265.783C465.058 262.679 463.737 260.638 461.814 260.627C459.902 260.638 458.57 262.679 458.57 265.783ZM490.636 257.641V276.783H488.96V266.256H484.921V264.859H488.96V257.641H490.636ZM475.682 272.164V259.402H484.599V260.799H477.38V264.773H483.761V266.148H477.38V270.768C480.882 270.757 483.138 270.66 485.759 270.188L485.952 271.584C483.17 272.035 480.839 272.164 477.143 272.164H475.682ZM514.763 257.641V276.74H513.109V266.857H510.359V275.752H508.769V258.07H510.359V265.418H513.109V257.641H514.763ZM499.424 271.799V259.982H501.099V270.295C502.99 270.284 505.031 270.145 507.351 269.672L507.566 271.176C504.902 271.659 502.711 271.799 500.605 271.799H499.424ZM534.497 268.984V270.359H526.527V276.74H524.872V270.359H517.009V268.984H534.497ZM519.243 266.664V258.436H520.919V261.078H530.544V258.436H532.241V266.664H519.243ZM520.919 265.289H530.544V262.453H520.919V265.289ZM541.856 259.037C544.853 259.048 546.98 260.874 546.991 263.527C546.98 266.191 544.853 268.007 541.856 268.018C538.838 268.007 536.689 266.191 536.7 263.527C536.689 260.874 538.838 259.048 541.856 259.037ZM535.712 271.133C539.235 271.144 544.101 271.111 548.323 270.488L548.452 271.734C544.08 272.551 539.385 272.572 535.948 272.572L535.712 271.133ZM538.354 263.527C538.343 265.311 539.815 266.535 541.856 266.535C543.876 266.535 545.347 265.311 545.337 263.527C545.347 261.755 543.876 260.52 541.856 260.52C539.815 260.52 538.343 261.755 538.354 263.527ZM549.59 276.783V257.641H551.266V276.783H549.59ZM569.207 259.531V271.949H560.376V259.531H569.207ZM562.031 270.574H567.552V260.885H562.031V270.574ZM573.31 276.783V257.641H575.007V276.783H573.31ZM583.526 261.443C583.537 263.56 585.009 265.697 587.458 266.621L586.577 267.91C584.74 267.201 583.419 265.837 582.731 264.193C582.033 266.009 580.658 267.631 578.778 268.447L577.854 267.137C580.368 266.041 581.904 263.57 581.915 261.443V258.844H583.526V261.443ZM581.335 273.303C581.313 271.144 583.763 269.876 587.737 269.887C591.69 269.876 594.15 271.144 594.161 273.303C594.15 275.44 591.69 276.697 587.737 276.697C583.763 276.697 581.313 275.44 581.335 273.303ZM583.011 273.303C582.989 274.603 584.805 275.397 587.737 275.387C590.638 275.397 592.464 274.603 592.485 273.303C592.464 271.981 590.638 271.187 587.737 271.176C584.805 271.187 582.989 271.981 583.011 273.303ZM588.317 268.855V258.027H589.907V262.797H592.442V257.662H594.054V269.457H592.442V264.193H589.907V268.855H588.317ZM613.809 265.719V267.094H605.924V268.984H611.575V273.26H600.231V275.193H612.155V276.525H598.555V271.992H609.92V270.295H598.512V268.984H604.248V267.094H596.407V265.719H613.809ZM598.662 264.107V258.285H611.553V264.107H598.662ZM600.338 262.754H609.877V259.639H600.338V262.754ZM630.031 258.887V266.664H621.072V258.887H630.031ZM622.447 275.365C625.734 275 628.892 273.142 628.892 271.24H623.241V269.93H628.913V268.061H630.589V269.93H636.304V271.24H630.632C630.621 273.099 633.694 274.957 636.97 275.365L636.39 276.676C633.522 276.278 630.901 274.925 629.762 273.163C628.613 274.968 625.927 276.278 623.048 276.676L622.447 275.365ZM622.726 265.332H628.376V260.262H622.726V265.332ZM634.156 268.619V257.641H635.81V268.619H634.156ZM55.9629 294.693V296.133C55.9629 297.669 55.9629 299.463 55.5117 301.848H58.2617V303.244H53.3633V307.863H51.7305V303.244H48.2285V307.863H46.5742V303.244H40.7734V301.848H53.8359C54.2979 299.431 54.2979 297.669 54.2871 296.133V296.068H42.9863V294.693H55.9629ZM42.9219 312.332V306.359H44.5977V310.914H56.4785V312.332H42.9219ZM68.0483 293.984C72.2914 293.984 74.7836 295.155 74.7944 297.271C74.7836 299.441 72.2914 300.612 68.0483 300.623C63.7836 300.612 61.2807 299.441 61.2807 297.271C61.2807 295.155 63.7836 293.984 68.0483 293.984ZM59.3471 303.287V301.912H76.7495V303.287H59.3471ZM61.4526 306.23V304.941H74.5151V309.217H63.1713V311.193H75.0952V312.525H61.4955V307.971H72.8608V306.23H61.4526ZM63.0424 297.271C63.0209 298.604 64.8793 299.334 68.0483 299.334C71.2172 299.334 73.0649 298.604 73.0756 297.271C73.0649 296.015 71.2172 295.263 68.0483 295.252C64.8793 295.263 63.0209 296.015 63.0424 297.271ZM99.3304 293.641V312.74H97.7191V293.641H99.3304ZM82.7659 307.648C85.43 306.059 86.9876 302.567 86.9769 299.098V297.293H83.303V295.896H92.1116V297.293H88.6097V299.098C88.6097 302.396 90.1029 305.693 92.7347 307.219L91.7034 308.465C89.8236 307.337 88.4915 305.274 87.8255 302.847C87.138 305.479 85.7523 307.724 83.8402 308.916L82.7659 307.648ZM90.6507 301.912V300.537H93.8734V294.113H95.4632V311.752H93.8734V301.912H90.6507ZM117.388 293.641V312.74H115.713V302.729H111.158V301.332H115.713V293.641H117.388ZM101.597 307.756C106.764 305.253 109.16 301.568 109.504 297.1H102.435V295.725H111.201C111.19 301.139 108.902 305.94 102.521 309.109L101.597 307.756ZM135.081 293.641V298.539H137.96V299.979H135.081V304.748H133.405V293.641H135.081ZM120.193 297.014V295.617H125.048V293.469H126.724V295.617H131.579V297.014H120.193ZM121.288 301.246C121.278 299.205 123.114 297.905 125.886 297.895C128.625 297.905 130.462 299.205 130.484 301.246C130.462 303.287 128.625 304.608 125.886 304.598C123.114 304.608 121.278 303.287 121.288 301.246ZM122.9 301.246C122.889 302.492 124.081 303.309 125.886 303.309C127.669 303.309 128.872 302.492 128.894 301.246C128.872 300.011 127.669 299.184 125.886 299.205C124.081 299.184 122.889 300.011 122.9 301.246ZM123.007 312.482V305.586H124.683V307.627H133.405V305.586H135.081V312.482H123.007ZM124.683 311.129H133.405V308.959H124.683V311.129ZM154.471 293.641V312.74H152.796V293.641H154.471ZM139.969 307.82V295.531H141.624V306.359C144.546 306.338 147.553 306.112 150.755 305.436L150.991 306.875C147.596 307.584 144.578 307.82 141.516 307.82H139.969ZM172.078 293.641V301.203H175.279V302.621H172.078V312.783H170.402V293.641H172.078ZM158.135 307.992V295.51H167.051V296.906H159.811V306.574C163.27 306.563 165.708 306.413 168.555 305.887L168.77 307.348C165.773 307.885 163.27 307.992 159.639 307.992H158.135ZM177.89 311.129C177.138 311.118 176.494 310.495 176.515 309.732C176.494 308.98 177.138 308.357 177.89 308.357C178.653 308.357 179.276 308.98 179.265 309.732C179.276 310.495 178.653 311.118 177.89 311.129Z" fill="#1E1E1E"/>
<path d="M55.9629 360.693V362.133C55.9629 363.669 55.9629 365.463 55.5117 367.848H58.2617V369.244H53.3633V373.863H51.7305V369.244H48.2285V373.863H46.5742V369.244H40.7734V367.848H53.8359C54.2979 365.431 54.2979 363.669 54.2871 362.133V362.068H42.9863V360.693H55.9629ZM42.9219 378.332V372.359H44.5977V376.914H56.4785V378.332H42.9219ZM65.5991 361.037C68.5961 361.048 70.7231 362.874 70.7338 365.527C70.7231 368.191 68.5961 370.007 65.5991 370.018C62.5805 370.007 60.4321 368.191 60.4428 365.527C60.4321 362.874 62.5805 361.048 65.5991 361.037ZM59.4545 373.133C62.978 373.144 67.8442 373.111 72.0659 372.488L72.1948 373.734C67.8227 374.551 63.1284 374.572 59.6909 374.572L59.4545 373.133ZM62.0971 365.527C62.0864 367.311 63.558 368.535 65.5991 368.535C67.6186 368.535 69.0903 367.311 69.0795 365.527C69.0903 363.755 67.6186 362.52 65.5991 362.52C63.558 362.52 62.0864 363.755 62.0971 365.527ZM73.3334 378.783V359.641H75.0092V378.783H73.3334ZM99.3304 359.641V378.74H97.7191V359.641H99.3304ZM82.7659 373.648C85.43 372.059 86.9876 368.567 86.9769 365.098V363.293H83.303V361.896H92.1116V363.293H88.6097V365.098C88.6097 368.396 90.1029 371.693 92.7347 373.219L91.7034 374.465C89.8236 373.337 88.4915 371.274 87.8255 368.847C87.138 371.479 85.7523 373.724 83.8402 374.916L82.7659 373.648ZM90.6507 367.912V366.537H93.8734V360.113H95.4632V377.752H93.8734V367.912H90.6507ZM117.388 359.641V378.74H115.713V368.729H111.158V367.332H115.713V359.641H117.388ZM101.597 373.756C106.764 371.253 109.16 367.568 109.504 363.1H102.435V361.725H111.201C111.19 367.139 108.902 371.94 102.521 375.109L101.597 373.756ZM135.597 365.441V366.795H122.513V360.35H124.189V365.441H135.597ZM120.128 370.77V369.395H137.616V370.77H120.128ZM122.405 378.268V372.725H124.081V376.871H135.704V378.268H122.405ZM160.133 359.641V378.74H158.522V368.729H155.707V377.752H154.16V360.07H155.707V367.332H158.522V359.641H160.133ZM144.514 374.014V361.982H151.668V363.379H146.19V372.574C148.821 372.563 150.637 372.467 152.764 372.037L152.914 373.455C150.615 373.928 148.671 374.003 145.738 374.014H144.514ZM178.685 359.641V378.74H177.031V368.75H174.388V377.795H172.777V360.156H174.388V367.354H177.031V359.641H178.685ZM162.4 373.455C166.836 370.974 168.663 367.482 168.953 363.529H163.13V362.133H170.607C170.585 366.988 168.877 371.575 163.388 374.637L162.4 373.455ZM196.625 361.768V362.756C196.615 364.271 196.615 366.795 196.067 370.34L194.37 370.189C194.896 366.988 194.939 364.668 194.928 363.143H186.914V361.768H196.625ZM185.84 373.133C187.097 373.122 188.494 373.111 189.965 373.079V367.225H191.62V373.025C193.736 372.95 195.906 372.811 197.893 372.574L197.979 373.842C193.961 374.465 189.471 374.551 186.055 374.529L185.84 373.133ZM199.096 378.74V359.641H200.772V367.633H203.866V369.094H200.772V378.74H199.096ZM211.031 363.25C211.02 365.882 213.008 368.31 215.822 369.287L214.963 370.641C212.793 369.846 211.106 368.234 210.258 366.215C209.452 368.492 207.723 370.243 205.467 371.113L204.543 369.76C207.454 368.739 209.366 366.15 209.377 363.186V360.822H211.031V363.25ZM207.615 378.332V372.402H209.334V376.914H220.42V378.332H207.615ZM217.863 373.756V359.641H219.539V365.506H222.418V366.945H219.539V373.756H217.863ZM238.005 359.641V367.783H241.056V369.201H238.005V378.74H236.308V359.641H238.005ZM222.945 373.648C224.502 373.648 226.318 373.638 228.208 373.584V371.479C225.985 371.221 224.534 369.91 224.556 368.02C224.534 365.86 226.361 364.464 229.068 364.475C231.732 364.464 233.59 365.86 233.601 368.02C233.59 369.921 232.118 371.221 229.906 371.479V373.52C231.678 373.434 233.483 373.283 235.148 373.047L235.255 374.336C231.087 375.045 226.575 375.088 223.224 375.088L222.945 373.648ZM223.288 363.357V361.982H228.208V359.684H229.906V361.982H234.804V363.357H223.288ZM226.124 368.02C226.135 369.341 227.295 370.211 229.068 370.189C230.808 370.211 231.979 369.341 231.99 368.02C231.979 366.688 230.808 365.785 229.068 365.785C227.295 365.785 226.135 366.688 226.124 368.02ZM251.337 361.424C251.347 364.12 254.849 366.44 258.298 366.924L257.61 368.299C254.645 367.805 251.702 366.161 250.477 363.819C249.253 366.183 246.32 367.805 243.344 368.299L242.657 366.924C246.105 366.44 249.596 364.163 249.596 361.424V360.328H251.337V361.424ZM241.755 371.822V370.404H259.157V371.822H251.251V378.74H249.596V371.822H241.755ZM277.817 374.852V376.248H260.328V374.852H268.149V370.168H269.803V374.852H277.817ZM261.016 368.986C264.357 368.417 268.073 365.624 268.084 362.412V360.951H269.846V362.412C269.857 365.603 273.627 368.417 276.957 368.986L276.205 370.383C273.294 369.781 270.222 367.815 268.986 365.065C267.73 367.805 264.69 369.781 261.768 370.383L261.016 368.986ZM299.409 364.99V366.387H293.523V368.9H301.407V370.318H283.983V368.9H291.868V366.387H286.368V360.027H288.044V364.99H299.409ZM286.089 375.238C286.078 373.015 288.56 371.758 292.685 371.758C296.777 371.758 299.237 373.015 299.259 375.238C299.237 377.44 296.777 378.697 292.685 378.697C288.56 378.697 286.078 377.44 286.089 375.238ZM287.808 375.238C287.786 376.56 289.623 377.365 292.685 377.365C295.714 377.365 297.551 376.56 297.562 375.238C297.551 373.874 295.714 373.101 292.685 373.09C289.623 373.101 287.786 373.874 287.808 375.238ZM317.983 368.6V369.975H312.075V374.916H320.045V376.334H302.557V374.916H310.42V369.975H304.791V361.209H317.79V362.584H306.489V368.6H317.983ZM326.889 360.887C329.821 360.908 331.97 362.713 331.98 365.377C331.97 367.772 330.229 369.47 327.748 369.792V373.036C329.531 372.961 331.325 372.832 332.99 372.617L333.098 373.885C329.048 374.572 324.536 374.615 321.174 374.594L320.894 373.176C322.431 373.165 324.203 373.154 326.051 373.101V369.792C323.516 369.491 321.786 367.783 321.797 365.377C321.786 362.713 323.902 360.908 326.889 360.887ZM323.451 365.377C323.43 367.171 324.88 368.417 326.889 368.406C328.865 368.417 330.305 367.171 330.326 365.377C330.305 363.583 328.865 362.358 326.889 362.348C324.88 362.358 323.43 363.583 323.451 365.377ZM334.215 378.74V359.641H335.891V367.525H339.006V368.986H335.891V378.74H334.215ZM355.378 361.768V362.756C355.367 364.271 355.367 366.795 354.819 370.34L353.122 370.189C353.648 366.988 353.691 364.668 353.68 363.143H345.667V361.768H355.378ZM344.593 373.133C345.849 373.122 347.246 373.111 348.718 373.079V367.225H350.372V373.025C352.488 372.95 354.658 372.811 356.645 372.574L356.731 373.842C352.714 374.465 348.223 374.551 344.807 374.529L344.593 373.133ZM357.848 378.74V359.641H359.524V367.633H362.618V369.094H359.524V378.74H357.848ZM369.783 363.25C369.773 365.882 371.76 368.31 374.574 369.287L373.715 370.641C371.545 369.846 369.859 368.234 369.01 366.215C368.204 368.492 366.475 370.243 364.219 371.113L363.295 369.76C366.206 368.739 368.118 366.15 368.129 363.186V360.822H369.783V363.25ZM366.367 378.332V372.402H368.086V376.914H379.172V378.332H366.367ZM376.615 373.756V359.641H378.291V365.506H381.17V366.945H378.291V373.756H376.615ZM396.758 359.641V367.783H399.808V369.201H396.758V378.74H395.06V359.641H396.758ZM381.697 373.648C383.255 373.648 385.07 373.638 386.961 373.584V371.479C384.737 371.221 383.287 369.91 383.308 368.02C383.287 365.86 385.113 364.464 387.82 364.475C390.484 364.464 392.342 365.86 392.353 368.02C392.342 369.921 390.871 371.221 388.658 371.479V373.52C390.43 373.434 392.235 373.283 393.9 373.047L394.008 374.336C389.84 375.045 385.328 375.088 381.976 375.088L381.697 373.648ZM382.041 363.357V361.982H386.961V359.684H388.658V361.982H393.556V363.357H382.041ZM384.877 368.02C384.887 369.341 386.048 370.211 387.82 370.189C389.56 370.211 390.731 369.341 390.742 368.02C390.731 366.688 389.56 365.785 387.82 365.785C386.048 365.785 384.887 366.688 384.877 368.02ZM410.089 361.424C410.1 364.12 413.602 366.44 417.05 366.924L416.362 368.299C413.398 367.805 410.454 366.161 409.23 363.819C408.005 366.183 405.072 367.805 402.097 368.299L401.409 366.924C404.858 366.44 408.349 364.163 408.349 361.424V360.328H410.089V361.424ZM400.507 371.822V370.404H417.909V371.822H410.003V378.74H408.349V371.822H400.507ZM436.569 374.852V376.248H419.081V374.852H426.901V370.168H428.555V374.852H436.569ZM419.768 368.986C423.109 368.417 426.826 365.624 426.836 362.412V360.951H428.598V362.412C428.609 365.603 432.379 368.417 435.71 368.986L434.958 370.383C432.046 369.781 428.974 367.815 427.739 365.065C426.482 367.805 423.442 369.781 420.52 370.383L419.768 368.986ZM458.205 368.342V369.76H452.275V374.852H460.224V376.248H442.736V374.852H450.599V369.76H444.884V361.273H446.603V368.342H458.205ZM478.712 368.148V369.459H470.827V371.242H476.477V375.367H465.134V377.236H477.057V378.525H463.458V374.164H474.823V372.51H463.415V371.242H469.173V369.459H461.331V368.148H478.712ZM462.255 365.979C465.757 365.753 468.743 364.561 469.055 362.648H463.114V361.316H469.173V359.533H470.827V361.316H476.95V362.648H470.956C471.257 364.561 474.243 365.753 477.766 365.979L477.251 367.268C474.06 366.999 471.182 366.011 470.011 364.195C468.829 366.011 465.95 366.999 462.749 367.268L462.255 365.979ZM491.754 364.775C491.743 368.267 494.117 371.769 496.931 373.047L495.9 374.379C493.719 373.326 491.84 371.06 490.927 368.342C490.046 371.221 488.166 373.638 485.931 374.766L484.857 373.348C487.704 372.048 490.056 368.396 490.078 364.775V361.295H491.754V364.775ZM499.015 378.783V359.641H500.713V378.783H499.015ZM518.47 359.641V365.463H521.349V366.881H518.47V373.627H516.773V359.641H518.47ZM503.56 370.061C508.147 368.632 511.122 365.914 511.477 362.541H504.355V361.123H513.314C513.314 366.043 509.801 369.695 504.29 371.414L503.56 370.061ZM506.503 378.332V372.209H508.179V376.914H519.351V378.332H506.503ZM538.483 359.641V378.74H536.85V359.641H538.483ZM522.348 367.891C522.359 363.83 523.97 361.263 526.452 361.252C528.772 361.263 530.34 363.497 530.555 367.096H533.026V360.049H534.637V377.773H533.026V368.492H530.566C530.405 372.209 528.804 374.54 526.452 374.529C523.97 374.54 522.359 371.951 522.348 367.891ZM523.938 367.891C523.917 370.984 524.905 372.939 526.452 372.918C528.009 372.939 528.998 370.984 528.987 367.891C528.998 364.786 528.009 362.842 526.452 362.842C524.905 362.842 523.917 364.786 523.938 367.891ZM551.031 360.801C552.642 360.79 554.006 361.402 554.898 362.412H559.904V359.641H561.601V370.963H559.904V368.234H554.898C554.017 369.244 552.642 369.856 551.031 369.846C548.173 369.856 546.057 367.987 546.068 365.334C546.057 362.659 548.173 360.79 551.031 360.801ZM547.679 365.334C547.679 367.106 549.076 368.417 551.031 368.406C552.921 368.417 554.339 367.106 554.339 365.334C554.339 363.519 552.921 362.251 551.031 362.262C549.076 362.251 547.679 363.519 547.679 365.334ZM548.861 375.045C548.85 372.746 551.299 371.414 555.263 371.414C559.216 371.414 561.666 372.746 561.666 375.045C561.666 377.365 559.216 378.697 555.263 378.697C551.299 378.697 548.85 377.365 548.861 375.045ZM550.515 375.045C550.504 376.484 552.331 377.354 555.263 377.344C558.196 377.354 560.022 376.484 560.011 375.045C560.022 373.595 558.196 372.735 555.263 372.725C552.331 372.735 550.504 373.595 550.515 375.045ZM555.704 363.787C555.876 364.26 555.972 364.775 555.972 365.334C555.972 365.871 555.876 366.376 555.714 366.838H559.904V363.787H555.704ZM582.108 362.992V364.389H579.272V367.031H582.108V368.449H579.272V371.973H577.597V359.641H579.272V362.992H582.108ZM564.384 363.164V361.832H569.239V359.49H570.915V361.832H575.77V363.164H564.384ZM565.479 367.525C565.469 365.484 567.306 364.163 570.077 364.152C572.816 364.163 574.653 365.484 574.675 367.525C574.653 369.588 572.816 370.909 570.077 370.898C567.306 370.909 565.469 369.588 565.479 367.525ZM566.983 375.41C566.973 373.326 569.336 372.112 573.235 372.102C577.124 372.112 579.487 373.326 579.487 375.41C579.487 377.483 577.124 378.697 573.235 378.697C569.336 378.697 566.973 377.483 566.983 375.41ZM567.091 367.525C567.08 368.782 568.272 369.588 570.077 369.588C571.86 369.588 573.063 368.782 573.085 367.525C573.063 366.269 571.86 365.441 570.077 365.42C568.272 365.441 567.08 366.269 567.091 367.525ZM568.659 375.41C568.638 376.646 570.378 377.397 573.235 377.387C576.082 377.397 577.822 376.646 577.811 375.41C577.822 374.143 576.082 373.434 573.235 373.434C570.378 373.434 568.638 374.143 568.659 375.41ZM591.616 359.984C595.859 359.984 598.351 361.155 598.362 363.271C598.351 365.441 595.859 366.612 591.616 366.623C587.351 366.612 584.848 365.441 584.848 363.271C584.848 361.155 587.351 359.984 591.616 359.984ZM582.914 369.287V367.912H600.317V369.287H582.914ZM585.02 372.23V370.941H598.082V375.217H586.739V377.193H598.662V378.525H585.063V373.971H596.428V372.23H585.02ZM586.61 363.271C586.588 364.604 588.447 365.334 591.616 365.334C594.785 365.334 596.632 364.604 596.643 363.271C596.632 362.015 594.785 361.263 591.616 361.252C588.447 361.263 586.588 362.015 586.61 363.271ZM55.7051 395.641V400.26H58.584V401.678H55.7051V406.812H54.0293V395.641H55.7051ZM41.5898 405.609V396.736H43.2441V399.658H48.8086V396.736H50.4844V405.609H41.5898ZM43.2441 404.256H48.8086V401.012H43.2441V404.256ZM43.7168 414.482V407.887H55.8555V409.24H45.3926V413.107H56.2207V414.482H43.7168ZM63.2358 407.113V409.348H72.7748V407.113H74.4721V414.482H61.56V407.113H63.2358ZM59.3471 405.76V404.363H76.7495V405.76H59.3471ZM60.3354 401.656C63.7407 401.194 67.1889 399.186 67.1889 396.758V395.855H68.9291V396.758C68.9184 399.11 72.3989 401.227 75.7612 401.656L75.1381 403.01C72.184 402.569 69.2729 401.065 68.059 398.928C66.8452 401.076 63.9233 402.569 60.9799 403.01L60.3354 401.656ZM63.2358 413.129H72.7748V410.68H63.2358V413.129ZM93.6688 395.641V414.74H91.993V395.641H93.6688ZM79.1669 409.82V397.531H80.8212V408.359C83.743 408.338 86.7509 408.112 89.952 407.436L90.1884 408.875C86.7938 409.584 83.7753 409.82 80.7137 409.82H79.1669ZM111.276 395.641V403.203H114.477V404.621H111.276V414.783H109.6V395.641H111.276ZM97.3323 409.992V397.51H106.248V398.906H99.0081V408.574C102.467 408.563 104.906 408.413 107.752 407.887L107.967 409.348C104.97 409.885 102.467 409.992 98.8363 409.992H97.3323ZM117.088 413.129C116.336 413.118 115.691 412.495 115.713 411.732C115.691 410.98 116.336 410.357 117.088 410.357C117.85 410.357 118.473 410.98 118.463 411.732C118.473 412.495 117.85 413.118 117.088 413.129Z" fill="#1E1E1E"/>
<path d="M56.6074 461.641V471.416H54.9102V469.418H49.8184V468.086H54.9102V465.787H50.0977C48.9053 468.795 45.9404 470.825 41.6973 471.846L41.0957 470.449C45.7793 469.364 48.4971 467.087 48.8193 464.004H42.0625V462.607H50.6777C50.6777 463.241 50.6133 463.854 50.4951 464.434H54.9102V461.641H56.6074ZM44.2324 473.65V472.275H56.6074V476.938H45.9512V479.172H57.252V480.568H44.2754V475.648H54.9102V473.65H44.2324ZM69.9389 463.768V464.756C69.9282 466.271 69.9282 468.795 69.3803 472.34L67.683 472.189C68.2094 468.988 68.2524 466.668 68.2416 465.143H60.228V463.768H69.9389ZM59.1537 475.133C60.4106 475.122 61.8071 475.111 63.2787 475.079V469.225H64.933V475.025C67.0493 474.95 69.2192 474.811 71.2065 474.574L71.2924 475.842C67.2748 476.465 62.7846 476.551 59.3686 476.529L59.1537 475.133ZM72.4096 480.74V461.641H74.0854V469.633H77.1791V471.094H74.0854V480.74H72.4096ZM84.5595 465.164C84.5595 467.646 86.4716 470.02 89.2645 470.986L88.3837 472.318C86.2352 471.545 84.5702 469.944 83.7538 467.979C82.9266 470.17 81.1542 471.932 78.8876 472.77L78.0067 471.438C80.8212 470.428 82.8622 467.882 82.8622 465.186V464.348H78.5438V462.973H88.8348V464.348H84.5595V465.164ZM80.9071 475.498V474.102H93.7548V480.74H92.0575V475.498H80.9071ZM88.2333 468.064V466.646H92.0575V461.641H93.7548V473.092H92.0575V468.064H88.2333ZM105.196 462.887C109.181 462.897 112.178 464.981 112.178 468.129C112.178 471.309 109.181 473.393 105.196 473.371C101.21 473.393 98.2132 471.309 98.2132 468.129C98.2132 464.981 101.21 462.897 105.196 462.887ZM96.4945 478.205V476.787H113.983V478.205H96.4945ZM99.8245 468.129C99.803 470.449 102.113 471.996 105.196 471.996C108.257 471.996 110.545 470.449 110.545 468.129C110.545 465.841 108.257 464.251 105.196 464.262C102.113 464.251 99.803 465.841 99.8245 468.129ZM132.556 476.959V478.377H115.068V476.959H122.931V473.35H117.26V467.463H128.689V464.455H117.217V463.059H130.344V468.838H118.935V471.953H130.795V473.35H124.586V476.959H132.556ZM136.779 477.561L135.103 483.404H133.513L134.695 477.561H136.779ZM147.908 462.414V464.842H157.361V462.414H159.037V470.041H153.451V472.082H161.315V473.479H143.912V472.082H151.775V470.041H146.232V462.414H147.908ZM146.168 480.332V475.004H147.865V478.914H159.381V480.332H146.168ZM147.908 468.688H157.361V466.174H147.908V468.688ZM185.056 476.852V478.291H167.567V476.852H185.056ZM169.114 464.971V463.574H183.38V464.971H180.351V471.652H183.337V473.027H169.157V471.652H172.144V464.971H169.114ZM173.819 471.652H178.696V464.971H173.819V471.652ZM203.629 476.959V478.377H186.141V476.959H194.004V473.35H188.332V467.463H199.762V464.455H188.289V463.059H201.416V468.838H190.008V471.953H201.868V473.35H195.659V476.959H203.629ZM217.219 462.07V473.156H215.586V467.979H212.664V466.582H215.586V462.07H217.219ZM204.801 471.523C207.282 470.481 208.743 468.011 208.732 465.744V464.605H205.166V463.209H213.738V464.605H210.365V465.744C210.365 467.817 211.762 470.084 214.189 471.094L213.308 472.383C211.514 471.631 210.258 470.202 209.592 468.559C208.926 470.417 207.604 472.018 205.703 472.855L204.801 471.523ZM208.066 475.541V474.166H220.935V480.74H219.281V475.541H208.066ZM219.324 473.328V461.641H220.935V473.328H219.324ZM238.757 471.975V473.35H225.544V463.295H238.542V464.713H227.263V467.549H238.134V468.902H227.263V471.975H238.757ZM223.288 478.248V476.852H240.777V478.248H223.288ZM258.233 461.641V480.74H256.6V461.641H258.233ZM242.098 469.891C242.109 465.83 243.72 463.263 246.202 463.252C248.522 463.263 250.091 465.497 250.305 469.096H252.776V462.049H254.387V479.773H252.776V470.492H250.316C250.155 474.209 248.554 476.54 246.202 476.529C243.72 476.54 242.109 473.951 242.098 469.891ZM243.688 469.891C243.667 472.984 244.655 474.939 246.202 474.918C247.759 474.939 248.748 472.984 248.737 469.891C248.748 466.786 247.759 464.842 246.202 464.842C244.655 464.842 243.667 466.786 243.688 469.891ZM267.16 466.775C267.15 470.234 269.373 473.715 272.145 474.982L271.135 476.357C268.965 475.24 267.171 472.963 266.322 470.245C265.474 473.103 263.68 475.552 261.51 476.701L260.414 475.348C263.218 473.973 265.431 470.299 265.442 466.775V463.295H267.16V466.775ZM270.061 469.547V468.172H274.594V461.641H276.27V480.783H274.594V469.547H270.061ZM294.457 467.441V468.795H281.373V462.35H283.048V467.441H294.457ZM278.988 472.77V471.395H296.476V472.77H278.988ZM281.265 480.268V474.725H282.941V478.871H294.564V480.268H281.265ZM308.766 479.215C306.07 479.183 303.094 477.582 303.094 471.824C303.094 466.313 305.35 463.23 309.002 463.23C311.742 463.23 313.654 464.917 314.051 467.355H312.139C311.785 465.98 310.732 464.949 309.002 464.949C306.446 464.949 304.91 467.13 304.92 470.879H305.114C306.005 469.579 307.434 468.816 309.11 468.816C311.871 468.816 314.18 470.965 314.18 473.973C314.18 476.905 312.042 479.247 308.766 479.215ZM305.178 474.016C305.189 475.842 306.682 477.507 308.766 477.518C310.775 477.507 312.3 475.928 312.311 473.994C312.3 472.082 310.839 470.524 308.809 470.514C306.768 470.524 305.2 472.179 305.178 474.016ZM323.355 463.445V479H321.507V463.445H323.355ZM330.628 479.236C327.448 479.247 325.3 476.841 325.3 473.221C325.3 469.579 327.448 467.184 330.628 467.184C333.797 467.184 335.924 469.579 335.913 473.221C335.924 476.841 333.797 479.247 330.628 479.236ZM327.147 473.221C327.158 475.552 328.254 477.604 330.628 477.604C332.98 477.604 334.065 475.552 334.065 473.221C334.065 470.9 332.98 468.816 330.628 468.816C328.254 468.816 327.158 470.9 327.147 473.221ZM342.627 483.619C339.802 483.619 337.89 482.384 337.686 480.225H339.619C339.866 481.417 340.973 482.008 342.627 482.008C344.625 482.008 345.85 481.138 345.85 479.215V476.852H345.699C345.302 477.496 344.561 478.817 342.305 478.828C339.469 478.817 337.342 476.68 337.342 473.006C337.342 469.418 339.394 467.184 342.326 467.184C344.593 467.184 345.323 468.559 345.742 469.182H345.893V467.334H347.698V479.322C347.687 482.33 345.474 483.619 342.627 483.619ZM339.211 473.07C339.211 475.487 340.35 477.174 342.563 477.174C344.7 477.174 345.882 475.638 345.893 473.07C345.882 470.567 344.733 468.838 342.563 468.838C340.318 468.838 339.211 470.718 339.211 473.07ZM355.282 479V467.334H357.066V469.117H357.194C357.613 467.936 358.827 467.151 360.202 467.141C360.482 467.151 360.954 467.162 361.169 467.184V469.053C361.029 469.021 360.535 468.924 360.052 468.924C358.376 468.924 357.13 470.084 357.13 471.652V479H355.282ZM367.045 479.236C363.672 479.247 361.588 476.841 361.588 473.264C361.588 469.676 363.705 467.184 366.874 467.184C369.323 467.184 371.912 468.688 371.901 473.006V473.779H363.436C363.533 476.25 364.972 477.604 367.045 477.604C368.442 477.604 369.323 476.991 369.753 476.271H371.729C371.181 478.044 369.452 479.247 367.045 479.236ZM363.447 472.211H370.032C370.021 470.267 368.796 468.816 366.874 468.816C364.854 468.816 363.576 470.406 363.447 472.211ZM378.271 479.236C375.36 479.247 373.309 476.905 373.309 473.199C373.309 469.504 375.36 467.184 378.293 467.184C380.56 467.184 381.269 468.559 381.666 469.182H381.795V463.445H383.664V479H381.859V477.217H381.666C381.258 477.861 380.495 479.247 378.271 479.236ZM375.178 473.156C375.178 475.638 376.316 477.582 378.529 477.582C380.667 477.582 381.849 475.777 381.859 473.156C381.849 470.567 380.699 468.838 378.529 468.838C376.284 468.838 375.178 470.718 375.178 473.156ZM393.794 474.209V467.334H395.621V479H393.794V477.023H393.665C393.118 478.205 391.957 479.15 390.206 479.15C387.994 479.15 386.414 477.711 386.425 474.746V467.334H388.273V474.617C388.273 476.293 389.315 477.378 390.808 477.367C392.129 477.378 393.784 476.39 393.794 474.209ZM402.915 479.236C399.606 479.247 397.587 476.723 397.587 473.221C397.587 469.676 399.703 467.184 402.872 467.184C405.353 467.184 407.223 468.655 407.513 470.857H405.665C405.396 469.794 404.473 468.816 402.915 468.816C400.831 468.816 399.445 470.535 399.434 473.156C399.445 475.853 400.799 477.582 402.915 477.582C404.29 477.582 405.343 476.841 405.665 475.562H407.513C407.223 477.646 405.504 479.247 402.915 479.236ZM414.442 467.334V468.881H411.992V475.648C411.982 477.142 412.734 477.389 413.518 477.389C413.851 477.389 414.345 477.356 414.614 477.346V479.064C414.324 479.107 413.872 479.15 413.325 479.15C411.767 479.15 410.134 478.184 410.123 476.121V468.881H408.362V467.334H410.123V464.541H411.992V467.334H414.442ZM416.386 479V467.334H418.234V479H416.386ZM416.021 464.176C416.01 463.488 416.601 462.94 417.31 462.951C418.019 462.94 418.61 463.488 418.621 464.176C418.61 464.853 418.019 465.4 417.31 465.4C416.601 465.4 416.01 464.853 416.021 464.176ZM425.507 479.236C422.327 479.247 420.179 476.841 420.179 473.221C420.179 469.579 422.327 467.184 425.507 467.184C428.676 467.184 430.803 469.579 430.792 473.221C430.803 476.841 428.676 479.247 425.507 479.236ZM422.027 473.221C422.037 475.552 423.133 477.604 425.507 477.604C427.86 477.604 428.945 475.552 428.945 473.221C428.945 470.9 427.86 468.816 425.507 468.816C423.133 468.816 422.037 470.9 422.027 473.221ZM434.628 471.996V479H432.78V467.334H434.563V469.16H434.714C435.261 467.968 436.357 467.184 438.13 467.184C440.493 467.184 442.072 468.623 442.061 471.588V479H440.214V471.717C440.214 469.912 439.225 468.838 437.571 468.838C435.874 468.838 434.628 469.977 434.628 471.996ZM452.578 461.984C456.821 461.984 459.314 463.155 459.324 465.271C459.314 467.441 456.821 468.612 452.578 468.623C448.314 468.612 445.811 467.441 445.811 465.271C445.811 463.155 448.314 461.984 452.578 461.984ZM443.877 471.287V469.912H461.279V471.287H443.877ZM445.983 474.23V472.941H459.045V477.217H447.701V479.193H459.625V480.525H446.025V475.971H457.391V474.23H445.983ZM447.572 465.271C447.551 466.604 449.409 467.334 452.578 467.334C455.747 467.334 457.595 466.604 457.606 465.271C457.595 464.015 455.747 463.263 452.578 463.252C449.409 463.263 447.551 464.015 447.572 465.271ZM482.958 470.6V471.975H477.05V476.916H485.02V478.334H467.532V476.916H475.395V471.975H469.767V463.209H482.765V464.584H471.464V470.6H482.958ZM503.508 470.148V471.459H495.623V473.242H501.274V477.367H489.93V479.236H501.854V480.525H488.254V476.164H499.62V474.51H488.211V473.242H493.969V471.459H486.127V470.148H503.508ZM487.051 467.979C490.553 467.753 493.539 466.561 493.851 464.648H487.911V463.316H493.969V461.533H495.623V463.316H501.746V464.648H495.752C496.053 466.561 499.039 467.753 502.563 467.979L502.047 469.268C498.857 468.999 495.978 468.011 494.807 466.195C493.625 468.011 490.746 468.999 487.545 469.268L487.051 467.979ZM519.461 461.641V469.525H522.662V470.922H519.461V480.74H517.785V461.641H519.461ZM504.572 466.109V464.713H509.492V461.877H511.168V464.713H515.937V466.109H504.572ZM505.668 472.082C505.657 469.504 507.634 467.699 510.351 467.699C513.048 467.699 515.014 469.504 515.035 472.082C515.014 474.671 513.048 476.465 510.351 476.465C507.634 476.465 505.657 474.671 505.668 472.082ZM507.279 472.082C507.268 473.822 508.568 475.047 510.351 475.025C512.113 475.047 513.402 473.822 513.424 472.082C513.402 470.353 512.113 469.106 510.351 469.117C508.568 469.106 507.268 470.353 507.279 472.082ZM538.7 467.441V468.795H525.616V462.35H527.292V467.441H538.7ZM523.232 472.77V471.395H540.72V472.77H523.232ZM525.509 480.268V474.725H527.185V478.871H538.808V480.268H525.509ZM562.742 461.662V474.596H561.045V468.451H556.856V467.033H561.045V461.662H562.742ZM547.231 471.996C551.796 470.589 554.621 467.936 554.976 464.541H548.176V463.166H556.77C556.759 468.064 553.472 471.588 547.983 473.35L547.231 471.996ZM549.229 479.344C552.612 478.753 555.695 476.615 555.717 473.801V472.92H557.371V473.801C557.382 476.583 560.433 478.678 563.795 479.279L563.086 480.633C560.272 480.096 557.672 478.603 556.544 476.368C555.384 478.624 552.763 480.117 549.916 480.676L549.229 479.344ZM581.23 461.641V480.783H579.533V461.641H581.23ZM566.191 469.783C566.202 465.723 568.221 463.134 571.068 463.123C573.904 463.134 575.956 465.723 575.945 469.783C575.956 473.854 573.904 476.433 571.068 476.422C568.221 476.433 566.202 473.854 566.191 469.783ZM567.824 469.783C567.824 472.888 569.156 474.929 571.068 474.918C572.991 474.929 574.312 472.888 574.312 469.783C574.312 466.679 572.991 464.638 571.068 464.627C569.156 464.638 567.824 466.679 567.824 469.783ZM58.1758 506.578V507.975H50.291V510.016C53.8896 510.177 56.0273 511.348 56.0488 513.367C56.0273 515.505 53.5674 516.697 49.4746 516.697C45.3281 516.697 42.8682 515.505 42.8789 513.367C42.8682 511.348 44.9951 510.177 48.6367 510.016V507.975H40.7734V506.578H58.1758ZM41.7617 504.086C45.0703 503.742 48.2607 502.056 48.3789 499.918H42.3633V498.543H56.6289V499.918H50.5703C50.6885 502.056 53.8467 503.742 57.209 504.086L56.5859 505.418C53.46 505.042 50.5273 503.635 49.4746 501.519C48.4219 503.635 45.5107 505.042 42.3633 505.418L41.7617 504.086ZM44.5977 513.367C44.5762 514.635 46.4131 515.397 49.4746 515.387C52.5039 515.397 54.3408 514.635 54.3516 513.367C54.3408 512.067 52.5039 511.326 49.4746 511.305C46.4131 511.326 44.5762 512.067 44.5977 513.367ZM76.8354 512.873V514.291H59.3471V512.873H63.687V507.728C62.0541 506.879 61.0659 505.504 61.0659 503.764C61.0659 500.81 63.9662 498.865 68.0483 498.844C72.1303 498.865 75.0307 500.81 75.0307 503.764C75.0307 505.472 74.0746 506.825 72.4955 507.674V512.873H76.8354ZM62.6987 503.764C62.6879 505.901 64.9116 507.33 68.0483 507.33C71.1528 507.33 73.3979 505.901 73.3979 503.764C73.3979 501.626 71.1528 500.219 68.0483 500.24C64.9116 500.219 62.6879 501.626 62.6987 503.764ZM65.3412 512.873H70.7983V508.329C69.9711 508.544 69.0473 508.662 68.0483 508.662C67.0707 508.662 66.1577 508.555 65.3412 508.34V512.873ZM92.8524 497.662V503.957H95.7313V505.375H92.8524V511.971H91.1766V497.662H92.8524ZM77.9637 501.379V500.004H82.8192V497.662H84.495V500.004H89.3505V501.379H77.9637ZM79.0595 505.998C79.0487 503.828 80.8964 502.432 83.6571 502.432C86.3856 502.432 88.2333 503.828 88.2548 505.998C88.2333 508.146 86.3856 509.532 83.6571 509.521C80.8964 509.532 79.0487 508.146 79.0595 505.998ZM80.6708 505.998C80.66 507.341 81.8524 508.211 83.6571 508.189C85.4403 508.211 86.6434 507.341 86.6649 505.998C86.6434 504.634 85.4403 503.753 83.6571 503.764C81.8524 503.753 80.66 504.634 80.6708 505.998ZM80.9071 516.332V510.832H82.5614V514.914H93.7333V516.332H80.9071ZM116.765 498.457V504.902H111.115V507.352H118.978V508.727H101.576V507.352H109.439V504.902H103.832V498.457H116.765ZM103.51 512.078V510.725H116.83V516.74H115.133V512.078H103.51ZM105.486 503.549H115.09V499.811H105.486V503.549ZM137.638 513.002V514.398H120.15V513.002H125.027V508.447H121.739V507.051H124.726V500.82H121.696V499.424H135.962V500.82H132.933V507.051H135.919V508.447H132.632V513.002H137.638ZM126.402 507.051H131.279V500.82H126.402V507.051ZM126.724 513.002H130.956V508.447H126.724V513.002ZM154.493 497.641V507.889H152.817V497.641H154.493ZM139.174 502.969C139.164 500.358 141.28 498.564 144.18 498.586C147.081 498.564 149.175 500.358 149.186 502.969C149.175 505.568 147.081 507.362 144.18 507.352C141.28 507.362 139.164 505.568 139.174 502.969ZM140.829 502.969C140.807 504.709 142.214 505.944 144.18 505.955C146.125 505.944 147.532 504.709 147.532 502.969C147.532 501.218 146.125 499.993 144.18 500.004C142.214 499.993 140.807 501.218 140.829 502.969ZM142.118 516.482V508.855H143.794V511.176H152.817V508.855H154.493V516.482H142.118ZM143.794 515.107H152.817V512.529H143.794V515.107ZM173.045 497.641V516.74H171.369V497.641H173.045ZM158.543 511.82V499.531H160.197V510.359C163.119 510.338 166.127 510.112 169.328 509.436L169.565 510.875C166.17 511.584 163.151 511.82 160.09 511.82H158.543ZM190.652 497.641V505.203H193.853V506.621H190.652V516.783H188.976V497.641H190.652ZM176.709 511.992V499.51H185.625V500.906H178.384V510.574C181.843 510.563 184.282 510.413 187.128 509.887L187.343 511.348C184.346 511.885 181.843 511.992 178.212 511.992H176.709ZM196.464 515.129C195.712 515.118 195.067 514.495 195.089 513.732C195.067 512.98 195.712 512.357 196.464 512.357C197.227 512.357 197.85 512.98 197.839 513.732C197.85 514.495 197.227 515.118 196.464 515.129Z" fill="#1E1E1E"/>
</svg>
