<svg width="720" height="609" viewBox="0 0 720 609" fill="none" xmlns="http://www.w3.org/2000/svg">
<rect y="4" width="720" height="605" fill="white"/>
<path d="M165.679 106.26C164.945 103.854 163.086 102.385 160.336 102.385C156.695 102.385 154.039 105.229 154.054 110.322C154.039 115.463 156.648 118.322 160.429 118.322C163.851 118.322 166.023 116.26 166.086 113.041H160.836V109.822H170.023V112.541C170.023 118.369 166.023 121.979 160.429 121.979C154.179 121.979 149.945 117.525 149.961 110.354C149.945 103.088 154.383 98.7285 160.304 98.7285C165.289 98.7285 169.148 101.822 169.836 106.26H165.679ZM172.321 116.854C172.321 112.963 175.758 112.072 178.696 111.854C179.789 111.775 182.524 111.619 183.289 111.604V110.229C183.289 108.072 182.008 106.822 179.446 106.822C177.305 106.822 176.008 107.807 175.633 109.104H172.821C173.164 106.369 175.821 104.479 179.571 104.479C181.789 104.479 185.961 105.135 185.946 110.479V121.666H183.289V119.354H183.164C182.602 120.494 181.055 122.057 178.102 122.072C174.883 122.057 172.321 120.166 172.321 116.854ZM175.008 116.979C175.024 118.775 176.508 119.682 178.571 119.666C181.602 119.682 183.289 117.65 183.289 115.51V113.807C182.493 113.854 179.821 114.057 179.008 114.104C176.571 114.26 175.024 115.119 175.008 116.979ZM199.056 109.104C198.681 107.697 197.603 106.775 195.618 106.76C193.524 106.775 192.04 107.9 192.024 109.322C192.04 110.447 192.946 111.213 194.931 111.697L197.462 112.322C200.493 113.041 201.978 114.557 201.993 116.916C201.978 119.854 199.587 122.025 195.337 122.01C191.524 122.025 189.259 120.322 188.806 117.229H191.618C191.931 118.885 193.134 119.682 195.274 119.666C197.696 119.682 199.212 118.666 199.212 117.072C199.212 115.869 198.353 115.088 196.431 114.635L193.868 114.041C190.915 113.354 189.337 111.744 189.337 109.479C189.337 106.572 191.884 104.479 195.618 104.479C199.134 104.479 201.337 106.354 201.681 109.104H199.056ZM227.432 106.666C226.948 103.947 224.776 102.385 222.026 102.385C218.323 102.385 215.698 105.229 215.713 110.354C215.698 115.557 218.338 118.322 222.026 118.322C224.713 118.322 226.885 116.822 227.432 114.166H231.526C230.901 118.51 227.323 121.979 221.963 121.979C215.994 121.979 211.604 117.65 211.619 110.354C211.604 103.041 216.041 98.7285 221.963 98.7285C226.963 98.7285 230.823 101.635 231.526 106.666H227.432ZM236.167 128.041C235.589 128.025 235.011 128.01 234.667 127.979V125.572C234.948 125.604 235.558 125.619 235.979 125.635C237.073 125.619 237.995 125.557 238.886 123.072L239.386 121.791L233.104 104.697H236.042L240.667 118.166H240.854L245.479 104.697H248.417L241.229 124.104C240.229 126.775 238.573 128.025 236.167 128.041ZM257.058 122.01C252.246 122.025 249.308 118.354 249.308 113.26C249.308 108.104 252.386 104.479 256.996 104.479C260.605 104.479 263.324 106.619 263.746 109.822H261.058C260.668 108.275 259.324 106.854 257.058 106.854C254.027 106.854 252.011 109.354 251.996 113.166C252.011 117.088 253.98 119.604 257.058 119.604C259.058 119.604 260.589 118.525 261.058 116.666H263.746C263.324 119.697 260.824 122.025 257.058 122.01ZM269.106 99.041V121.666H266.418V99.041H269.106ZM279.872 122.01C274.966 122.025 271.934 118.525 271.934 113.322C271.934 108.104 275.013 104.479 279.622 104.479C283.184 104.479 286.95 106.666 286.934 112.947V114.072H274.622C274.763 117.666 276.856 119.635 279.872 119.635C281.903 119.635 283.184 118.744 283.809 117.697H286.684C285.888 120.275 283.372 122.025 279.872 122.01ZM274.638 111.791H284.216C284.2 108.963 282.419 106.854 279.622 106.854C276.684 106.854 274.825 109.166 274.638 111.791ZM304.811 121.666H297.123V99.041H304.936C311.686 99.041 315.764 103.275 315.779 110.322C315.764 117.4 311.686 121.666 304.811 121.666ZM301.186 118.135H304.592C309.326 118.15 311.717 115.541 311.717 110.322C311.717 105.135 309.326 102.557 304.717 102.572H301.186V118.135ZM325.921 122.01C321.014 122.025 317.983 118.525 317.983 113.322C317.983 108.104 321.061 104.479 325.671 104.479C329.233 104.479 332.999 106.666 332.983 112.947V114.072H320.671C320.811 117.666 322.905 119.635 325.921 119.635C327.952 119.635 329.233 118.744 329.858 117.697H332.733C331.936 120.275 329.421 122.025 325.921 122.01ZM320.686 111.791H330.264C330.249 108.963 328.468 106.854 325.671 106.854C322.733 106.854 320.874 109.166 320.686 111.791ZM349.281 104.697L342.999 121.666H340.218L333.968 104.697H336.906L341.531 118.166H341.718L346.343 104.697H349.281ZM358.109 122.01C353.203 122.025 350.172 118.525 350.172 113.322C350.172 108.104 353.25 104.479 357.859 104.479C361.422 104.479 365.188 106.666 365.172 112.947V114.072H352.859C353 117.666 355.094 119.635 358.109 119.635C360.141 119.635 361.422 118.744 362.047 117.697H364.922C364.125 120.275 361.609 122.025 358.109 122.01ZM352.875 111.791H362.453C362.438 108.963 360.656 106.854 357.859 106.854C354.922 106.854 353.062 109.166 352.875 111.791ZM370.719 99.041V121.666H368.032V99.041H370.719ZM381.298 122.01C376.673 122.025 373.548 118.525 373.548 113.26C373.548 107.963 376.673 104.479 381.298 104.479C385.908 104.479 389.001 107.963 388.986 113.26C389.001 118.525 385.908 122.025 381.298 122.01ZM376.236 113.26C376.251 116.65 377.845 119.635 381.298 119.635C384.72 119.635 386.298 116.65 386.298 113.26C386.298 109.885 384.72 106.854 381.298 106.854C377.845 106.854 376.251 109.885 376.236 113.26ZM391.877 128.041V104.697H394.471V107.385H394.783C395.361 106.479 396.393 104.479 399.689 104.479C403.955 104.479 406.908 107.854 406.908 113.229C406.908 118.619 403.955 122.025 399.721 122.01C396.486 122.025 395.361 120.01 394.783 119.072H394.564V128.041H391.877ZM394.502 113.166C394.518 116.979 396.221 119.604 399.346 119.604C402.564 119.604 404.221 116.775 404.221 113.166C404.221 109.619 402.611 106.885 399.346 106.885C396.174 106.885 394.518 109.4 394.502 113.166ZM409.768 121.666V104.697H412.362V107.354H412.581C413.284 105.541 414.924 104.479 417.143 104.479C419.362 104.479 420.878 105.541 421.674 107.354H421.862C422.721 105.604 424.518 104.479 426.956 104.479C429.971 104.479 432.143 106.322 432.143 110.322V121.666H429.456V110.354C429.44 107.854 427.878 106.885 426.018 106.885C423.659 106.885 422.315 108.479 422.299 110.635V121.666H419.581V110.072C419.596 108.166 418.221 106.885 416.268 106.885C414.237 106.885 412.456 108.604 412.456 111.072V121.666H409.768ZM442.941 122.01C438.034 122.025 435.003 118.525 435.003 113.322C435.003 108.104 438.081 104.479 442.691 104.479C446.253 104.479 450.019 106.666 450.003 112.947V114.072H437.691C437.831 117.666 439.925 119.635 442.941 119.635C444.972 119.635 446.253 118.744 446.878 117.697H449.753C448.956 120.275 446.441 122.025 442.941 122.01ZM437.706 111.791H447.284C447.269 108.963 445.488 106.854 442.691 106.854C439.753 106.854 437.894 109.166 437.706 111.791ZM455.551 111.479V121.666H452.863V104.697H455.457V107.354H455.676C456.473 105.619 458.066 104.479 460.644 104.479C464.082 104.479 466.379 106.572 466.363 110.885V121.666H463.676V111.072C463.676 108.447 462.238 106.885 459.832 106.885C457.363 106.885 455.551 108.541 455.551 111.479ZM477.442 104.697V106.947H473.879V116.791C473.864 118.963 474.958 119.322 476.098 119.322C476.583 119.322 477.301 119.275 477.692 119.26V121.76C477.27 121.822 476.614 121.885 475.817 121.885C473.551 121.885 471.176 120.479 471.161 117.479V106.947H468.598V104.697H471.161V100.635H473.879V104.697H477.442ZM488.568 112.135C488.584 106.572 490.084 101.932 492.787 98.0098H495.193C493.068 100.916 491.365 106.885 491.349 112.135C491.365 117.4 493.068 123.369 495.193 126.291H492.787C490.084 122.354 488.584 117.713 488.568 112.135ZM513.709 106.104C512.741 103.197 510.538 101.354 507.303 101.354C503.303 101.354 500.131 104.51 500.116 110.354C500.131 116.182 503.303 119.338 507.491 119.354C511.303 119.338 513.944 116.807 513.991 112.791H508.084V110.322H516.741V112.76C516.741 118.369 512.881 121.979 507.491 121.979C501.444 121.979 497.381 117.51 497.397 110.354C497.381 103.197 501.491 98.7285 507.303 98.7285C512.084 98.7285 515.772 101.729 516.616 106.104H513.709ZM535.757 106.166C535.101 103.041 532.429 101.354 529.444 101.354C525.351 101.354 522.179 104.51 522.163 110.354C522.179 116.182 525.351 119.338 529.444 119.354C532.429 119.338 535.085 117.666 535.757 114.572H538.569C537.757 119.197 534.038 121.979 529.444 121.979C523.632 121.979 519.429 117.51 519.444 110.354C519.429 103.197 523.632 98.7285 529.444 98.7285C534.023 98.7285 537.726 101.463 538.569 106.166H535.757ZM548.898 121.666H541.867V99.041H549.179C555.789 99.041 559.679 103.275 559.679 110.322C559.679 117.385 555.789 121.666 548.898 121.666ZM544.679 119.166H548.711C554.258 119.166 556.929 115.807 556.929 110.322C556.929 104.854 554.258 101.541 548.992 101.541H544.679V119.166ZM568.508 112.135C568.492 117.697 566.992 122.338 564.289 126.26H561.883C564.008 123.354 565.711 117.385 565.727 112.135C565.711 106.869 564.008 100.9 561.883 97.9785H564.289C566.992 101.916 568.492 106.557 568.508 112.135Z" fill="#1E1E1E"/>
<circle cx="360" cy="194.666" r="12.8571" stroke="#7737FF" stroke-width="10.2857"/>
<path d="M52.332 268.01C51.8809 265.861 50.0439 264.701 47.9922 264.701C45.1777 264.701 42.9971 266.871 42.9863 270.889C42.9971 274.896 45.1777 277.065 47.9922 277.076C50.0439 277.065 51.8701 275.916 52.332 273.789H54.2656C53.707 276.969 51.1504 278.881 47.9922 278.881C43.9961 278.881 41.1064 275.809 41.1172 270.889C41.1064 265.969 43.9961 262.896 47.9922 262.896C51.1396 262.896 53.6855 264.776 54.2656 268.01H52.332ZM58.144 271.662V278.666H56.2963V263.111H58.144V268.826H58.2944C58.8422 267.623 59.8842 266.85 61.7319 266.85C64.1166 266.85 65.7065 268.257 65.7065 271.254V278.666H63.8588V271.383C63.8588 269.546 62.8491 268.504 61.1733 268.504C59.433 268.504 58.144 269.643 58.144 271.662ZM73.1298 278.902C69.7567 278.913 67.6727 276.507 67.6727 272.93C67.6727 269.342 69.7889 266.85 72.9579 266.85C75.4071 266.85 77.996 268.354 77.9852 272.672V273.445H69.5204C69.6171 275.916 71.0565 277.27 73.1298 277.27C74.5263 277.27 75.4071 276.657 75.8368 275.938H77.8134C77.2655 277.71 75.536 278.913 73.1298 278.902ZM69.5311 271.877H76.1161C76.1054 269.933 74.8807 268.482 72.9579 268.482C70.9384 268.482 69.66 270.072 69.5311 271.877ZM79.9515 278.666V267H81.7347V268.826H81.8851C82.3685 267.58 83.4964 266.85 85.0218 266.85C86.5472 266.85 87.5892 267.58 88.137 268.826H88.2659C88.8568 267.623 90.0921 266.85 91.7679 266.85C93.8411 266.85 95.3343 268.117 95.3343 270.867V278.666H93.4866V270.889C93.4759 269.17 92.4017 268.504 91.1234 268.504C89.5013 268.504 88.5775 269.6 88.5667 271.082V278.666H86.6976V270.695C86.7083 269.385 85.763 268.504 84.4202 268.504C83.0238 268.504 81.7991 269.686 81.7991 271.383V278.666H79.9515ZM97.8591 278.666V267H99.7068V278.666H97.8591ZM97.4939 263.842C97.4832 263.154 98.074 262.606 98.783 262.617C99.492 262.606 100.083 263.154 100.094 263.842C100.083 264.519 99.492 265.066 98.783 265.066C98.074 265.066 97.4832 264.519 97.4939 263.842ZM106.98 278.902C103.671 278.913 101.652 276.389 101.652 272.887C101.652 269.342 103.768 266.85 106.937 266.85C109.418 266.85 111.287 268.321 111.577 270.523H109.73C109.461 269.46 108.537 268.482 106.98 268.482C104.896 268.482 103.51 270.201 103.499 272.822C103.51 275.519 104.863 277.248 106.98 277.248C108.355 277.248 109.407 276.507 109.73 275.229H111.577C111.287 277.312 109.569 278.913 106.98 278.902ZM112.856 275.357C112.856 272.683 115.219 272.07 117.239 271.92C117.991 271.866 119.871 271.759 120.397 271.748V270.803C120.397 269.32 119.516 268.461 117.755 268.461C116.283 268.461 115.391 269.138 115.133 270.029H113.2C113.436 268.149 115.262 266.85 117.84 266.85C119.366 266.85 122.234 267.301 122.223 270.975V278.666H120.397V277.076H120.311C119.924 277.86 118.861 278.935 116.831 278.945C114.618 278.935 112.856 277.635 112.856 275.357ZM114.704 275.443C114.714 276.679 115.735 277.302 117.153 277.291C119.237 277.302 120.397 275.905 120.397 274.434V273.263C119.849 273.295 118.012 273.435 117.454 273.467C115.778 273.574 114.714 274.165 114.704 275.443ZM126.596 263.111V278.666H124.748V263.111H126.596ZM136.351 263.111V278.666H134.417V263.111H136.351ZM140.959 271.662V278.666H139.112V267H140.895V268.826H141.045C141.593 267.634 142.689 266.85 144.461 266.85C146.825 266.85 148.404 268.289 148.393 271.254V278.666H146.545V271.383C146.545 269.578 145.557 268.504 143.903 268.504C142.205 268.504 140.959 269.643 140.959 271.662ZM155.322 278.902C152.411 278.913 150.359 276.571 150.359 272.865C150.359 269.17 152.411 266.85 155.344 266.85C157.61 266.85 158.319 268.225 158.717 268.848H158.846V263.111H160.715V278.666H158.91V276.883H158.717C158.308 277.527 157.546 278.913 155.322 278.902ZM152.228 272.822C152.228 275.304 153.367 277.248 155.58 277.248C157.718 277.248 158.899 275.443 158.91 272.822C158.899 270.233 157.75 268.504 155.58 268.504C153.335 268.504 152.228 270.384 152.228 272.822ZM163.476 278.666V267H165.324V278.666H163.476ZM163.111 263.842C163.1 263.154 163.691 262.606 164.4 262.617C165.109 262.606 165.699 263.154 165.71 263.842C165.699 264.519 165.109 265.066 164.4 265.066C163.691 265.066 163.1 264.519 163.111 263.842ZM172.596 278.902C169.288 278.913 167.268 276.389 167.268 272.887C167.268 269.342 169.384 266.85 172.553 266.85C175.035 266.85 176.904 268.321 177.194 270.523H175.346C175.078 269.46 174.154 268.482 172.596 268.482C170.512 268.482 169.127 270.201 169.116 272.822C169.127 275.519 170.48 277.248 172.596 277.248C173.971 277.248 175.024 276.507 175.346 275.229H177.194C176.904 277.312 175.185 278.913 172.596 278.902ZM178.473 275.357C178.473 272.683 180.836 272.07 182.856 271.92C183.608 271.866 185.487 271.759 186.014 271.748V270.803C186.014 269.32 185.133 268.461 183.371 268.461C181.9 268.461 181.008 269.138 180.75 270.029H178.817C179.053 268.149 180.879 266.85 183.457 266.85C184.983 266.85 187.851 267.301 187.84 270.975V278.666H186.014V277.076H185.928C185.541 277.86 184.478 278.935 182.447 278.945C180.235 278.935 178.473 277.635 178.473 275.357ZM180.32 275.443C180.331 276.679 181.352 277.302 182.77 277.291C184.854 277.302 186.014 275.905 186.014 274.434V273.263C185.466 273.295 183.629 273.435 183.07 273.467C181.395 273.574 180.331 274.165 180.32 275.443ZM195.457 267V268.547H193.007V275.314C192.997 276.808 193.749 277.055 194.533 277.055C194.866 277.055 195.36 277.022 195.629 277.012V278.73C195.338 278.773 194.887 278.816 194.339 278.816C192.782 278.816 191.149 277.85 191.138 275.787V268.547H189.377V267H191.138V264.207H193.007V267H195.457ZM202.042 278.902C198.862 278.913 196.714 276.507 196.714 272.887C196.714 269.245 198.862 266.85 202.042 266.85C205.211 266.85 207.338 269.245 207.327 272.887C207.338 276.507 205.211 278.913 202.042 278.902ZM198.562 272.887C198.572 275.218 199.668 277.27 202.042 277.27C204.395 277.27 205.48 275.218 205.48 272.887C205.48 270.566 204.395 268.482 202.042 268.482C199.668 268.482 198.572 270.566 198.562 272.887ZM209.315 278.666V267H211.098V268.783H211.227C211.646 267.602 212.86 266.817 214.235 266.807C214.514 266.817 214.987 266.828 215.202 266.85V268.719C215.062 268.687 214.568 268.59 214.084 268.59C212.409 268.59 211.163 269.75 211.163 271.318V278.666H209.315ZM223.055 270.029C222.797 269.062 222.056 268.429 220.691 268.418C219.252 268.429 218.231 269.202 218.221 270.18C218.231 270.953 218.854 271.479 220.219 271.812L221.959 272.242C224.043 272.736 225.063 273.778 225.074 275.4C225.063 277.42 223.42 278.913 220.498 278.902C217.877 278.913 216.319 277.742 216.008 275.615H217.941C218.156 276.754 218.983 277.302 220.455 277.291C222.12 277.302 223.162 276.604 223.162 275.508C223.162 274.681 222.571 274.144 221.25 273.832L219.488 273.424C217.458 272.951 216.373 271.845 216.373 270.287C216.373 268.289 218.124 266.85 220.691 266.85C223.108 266.85 224.623 268.139 224.859 270.029H223.055ZM241.382 262.553V270.33H232.423V262.553H241.382ZM233.798 279.031C237.085 278.666 240.243 276.808 240.243 274.906H234.593V273.596H240.264V271.727H241.94V273.596H247.655V274.906H241.983C241.972 276.765 245.045 278.623 248.321 279.031L247.741 280.342C244.873 279.944 242.252 278.591 241.113 276.829C239.964 278.634 237.278 279.944 234.399 280.342L233.798 279.031ZM234.077 268.998H239.727V263.928H234.077V268.998ZM245.507 272.285V261.307H247.161V272.285H245.507ZM256.013 278.666V263.111H261.47C264.736 263.111 266.272 264.948 266.261 267.236C266.272 269.234 265.08 270.126 263.726 270.502V270.652C265.176 270.738 266.874 272.07 266.884 274.541C266.874 276.872 265.338 278.666 261.664 278.666H256.013ZM257.947 276.947H261.642C264.081 276.947 265.026 275.873 265.015 274.52C265.026 272.94 263.748 271.598 261.75 271.598H257.947V276.947ZM257.947 269.922H261.406C263.092 269.933 264.414 268.88 264.414 267.258C264.414 265.904 263.501 264.83 261.47 264.83H257.947V269.922ZM268.958 278.666V267H270.806V278.666H268.958ZM268.593 263.842C268.582 263.154 269.173 262.606 269.882 262.617C270.591 262.606 271.182 263.154 271.193 263.842C271.182 264.519 270.591 265.066 269.882 265.066C269.173 265.066 268.582 264.519 268.593 263.842ZM278.079 278.902C274.899 278.913 272.751 276.507 272.751 272.887C272.751 269.245 274.899 266.85 278.079 266.85C281.248 266.85 283.375 269.245 283.364 272.887C283.375 276.507 281.248 278.913 278.079 278.902ZM274.598 272.887C274.609 275.218 275.705 277.27 278.079 277.27C280.431 277.27 281.516 275.218 281.516 272.887C281.516 270.566 280.431 268.482 278.079 268.482C275.705 268.482 274.609 270.566 274.598 272.887ZM287.199 263.111V278.666H285.352V263.111H287.199ZM294.472 278.902C291.292 278.913 289.144 276.507 289.144 272.887C289.144 269.245 291.292 266.85 294.472 266.85C297.641 266.85 299.768 269.245 299.757 272.887C299.768 276.507 297.641 278.913 294.472 278.902ZM290.992 272.887C291.002 275.218 292.098 277.27 294.472 277.27C296.825 277.27 297.91 275.218 297.91 272.887C297.91 270.566 296.825 268.482 294.472 268.482C292.098 268.482 291.002 270.566 290.992 272.887ZM306.472 283.285C303.646 283.285 301.734 282.05 301.53 279.891H303.464C303.711 281.083 304.817 281.674 306.472 281.674C308.47 281.674 309.694 280.804 309.694 278.881V276.518H309.544C309.146 277.162 308.405 278.483 306.149 278.494C303.313 278.483 301.186 276.346 301.186 272.672C301.186 269.084 303.238 266.85 306.171 266.85C308.437 266.85 309.168 268.225 309.587 268.848H309.737V267H311.542V278.988C311.531 281.996 309.318 283.285 306.472 283.285ZM303.056 272.736C303.056 275.153 304.194 276.84 306.407 276.84C308.545 276.84 309.726 275.304 309.737 272.736C309.726 270.233 308.577 268.504 306.407 268.504C304.162 268.504 303.056 270.384 303.056 272.736ZM314.045 278.666V267H315.893V278.666H314.045ZM313.68 263.842C313.669 263.154 314.26 262.606 314.969 262.617C315.678 262.606 316.269 263.154 316.28 263.842C316.269 264.519 315.678 265.066 314.969 265.066C314.26 265.066 313.669 264.519 313.68 263.842ZM323.166 278.902C319.857 278.913 317.838 276.389 317.838 272.887C317.838 269.342 319.954 266.85 323.123 266.85C325.604 266.85 327.473 268.321 327.763 270.523H325.916C325.647 269.46 324.723 268.482 323.166 268.482C321.082 268.482 319.696 270.201 319.685 272.822C319.696 275.519 321.05 277.248 323.166 277.248C324.541 277.248 325.594 276.507 325.916 275.229H327.763C327.473 277.312 325.755 278.913 323.166 278.902ZM329.042 275.357C329.042 272.683 331.405 272.07 333.425 271.92C334.177 271.866 336.057 271.759 336.583 271.748V270.803C336.583 269.32 335.702 268.461 333.941 268.461C332.469 268.461 331.577 269.138 331.32 270.029H329.386C329.622 268.149 331.448 266.85 334.027 266.85C335.552 266.85 338.42 267.301 338.409 270.975V278.666H336.583V277.076H336.497C336.111 277.86 335.047 278.935 333.017 278.945C330.804 278.935 329.042 277.635 329.042 275.357ZM330.89 275.443C330.901 276.679 331.921 277.302 333.339 277.291C335.423 277.302 336.583 275.905 336.583 274.434V273.263C336.035 273.295 334.198 273.435 333.64 273.467C331.964 273.574 330.901 274.165 330.89 275.443ZM342.782 263.111V278.666H340.934V263.111H342.782ZM352.537 263.111V278.666H350.603V263.111H352.537ZM357.145 271.662V278.666H355.298V267H357.081V268.826H357.231C357.779 267.634 358.875 266.85 360.647 266.85C363.011 266.85 364.59 268.289 364.579 271.254V278.666H362.731V271.383C362.731 269.578 361.743 268.504 360.089 268.504C358.392 268.504 357.145 269.643 357.145 271.662ZM371.508 278.902C368.597 278.913 366.545 276.571 366.545 272.865C366.545 269.17 368.597 266.85 371.53 266.85C373.796 266.85 374.505 268.225 374.903 268.848H375.032V263.111H376.901V278.666H375.096V276.883H374.903C374.495 277.527 373.732 278.913 371.508 278.902ZM368.414 272.822C368.414 275.304 369.553 277.248 371.766 277.248C373.904 277.248 375.085 275.443 375.096 272.822C375.085 270.233 373.936 268.504 371.766 268.504C369.521 268.504 368.414 270.384 368.414 272.822ZM379.662 278.666V267H381.51V278.666H379.662ZM379.297 263.842C379.286 263.154 379.877 262.606 380.586 262.617C381.295 262.606 381.886 263.154 381.896 263.842C381.886 264.519 381.295 265.066 380.586 265.066C379.877 265.066 379.286 264.519 379.297 263.842ZM388.783 278.902C385.474 278.913 383.454 276.389 383.454 272.887C383.454 269.342 385.571 266.85 388.74 266.85C391.221 266.85 393.09 268.321 393.38 270.523H391.533C391.264 269.46 390.34 268.482 388.783 268.482C386.699 268.482 385.313 270.201 385.302 272.822C385.313 275.519 386.666 277.248 388.783 277.248C390.158 277.248 391.21 276.507 391.533 275.229H393.38C393.09 277.312 391.371 278.913 388.783 278.902ZM394.659 275.357C394.659 272.683 397.022 272.07 399.042 271.92C399.794 271.866 401.674 271.759 402.2 271.748V270.803C402.2 269.32 401.319 268.461 399.557 268.461C398.086 268.461 397.194 269.138 396.936 270.029H395.003C395.239 268.149 397.065 266.85 399.643 266.85C401.169 266.85 404.037 267.301 404.026 270.975V278.666H402.2V277.076H402.114C401.727 277.86 400.664 278.935 398.634 278.945C396.421 278.935 394.659 277.635 394.659 275.357ZM396.507 275.443C396.517 276.679 397.538 277.302 398.956 277.291C401.04 277.302 402.2 275.905 402.2 274.434V273.263C401.652 273.295 399.815 273.435 399.257 273.467C397.581 273.574 396.517 274.165 396.507 275.443ZM411.643 267V268.547H409.194V275.314C409.183 276.808 409.935 277.055 410.719 277.055C411.052 277.055 411.546 277.022 411.815 277.012V278.73C411.525 278.773 411.073 278.816 410.526 278.816C408.968 278.816 407.335 277.85 407.324 275.787V268.547H405.563V267H407.324V264.207H409.194V267H411.643ZM418.228 278.902C415.048 278.913 412.9 276.507 412.9 272.887C412.9 269.245 415.048 266.85 418.228 266.85C421.397 266.85 423.524 269.245 423.513 272.887C423.524 276.507 421.397 278.913 418.228 278.902ZM414.748 272.887C414.758 275.218 415.854 277.27 418.228 277.27C420.581 277.27 421.666 275.218 421.666 272.887C421.666 270.566 420.581 268.482 418.228 268.482C415.854 268.482 414.758 270.566 414.748 272.887ZM425.501 278.666V267H427.284V268.783H427.413C427.832 267.602 429.046 266.817 430.421 266.807C430.7 266.817 431.173 266.828 431.388 266.85V268.719C431.248 268.687 430.754 268.59 430.271 268.59C428.595 268.59 427.349 269.75 427.349 271.318V278.666H425.501ZM439.241 270.029C438.983 269.062 438.242 268.429 436.877 268.418C435.438 268.429 434.417 269.202 434.407 270.18C434.417 270.953 435.04 271.479 436.405 271.812L438.145 272.242C440.229 272.736 441.249 273.778 441.26 275.4C441.249 277.42 439.606 278.913 436.684 278.902C434.063 278.913 432.505 277.742 432.194 275.615H434.127C434.342 276.754 435.169 277.302 436.641 277.291C438.306 277.302 439.348 276.604 439.348 275.508C439.348 274.681 438.757 274.144 437.436 273.832L435.674 273.424C433.644 272.951 432.559 271.845 432.559 270.287C432.559 268.289 434.31 266.85 436.877 266.85C439.294 266.85 440.809 268.139 441.045 270.029H439.241ZM459.984 270.18V271.512H442.496V270.18H459.984ZM444.601 274.305V273.037H457.793V277.098H446.32V278.924H458.416V280.148H444.623V275.938H456.117V274.305H444.601ZM444.709 263.111V261.887H457.728V265.84H446.449V267.516H458.072V268.74H444.773V264.68H456.031V263.111H444.709ZM483.575 271.447V272.822H466.151V271.447H474.014V269.557H468.471V261.865H481.405V263.24H470.169V265.023H480.889V266.312H470.169V268.203H481.513V269.557H475.69V271.447H483.575ZM468.278 277.312C468.267 275.325 470.641 274.24 474.874 274.262C479.063 274.24 481.427 275.325 481.448 277.312C481.427 279.321 479.063 280.363 474.874 280.363C470.641 280.363 468.267 279.321 468.278 277.312ZM469.975 277.312C469.954 278.473 471.716 279.074 474.874 279.053C478 279.074 479.74 278.473 479.751 277.312C479.74 276.174 478 275.54 474.874 275.529C471.716 275.54 469.954 276.174 469.975 277.312ZM494.285 264.615V265.99H484.703V264.615H488.678V261.887H490.354V264.615H494.285ZM485.391 271.619C485.391 269.084 487.12 267.29 489.494 267.279C491.901 267.29 493.619 269.084 493.641 271.619C493.619 274.187 491.901 275.991 489.494 276.002C487.12 275.991 485.391 274.187 485.391 271.619ZM486.895 271.619C486.895 273.316 487.98 274.53 489.494 274.52C491.02 274.53 492.137 273.316 492.137 271.619C492.137 269.943 491.02 268.719 489.494 268.697C487.98 268.719 486.895 269.943 486.895 271.619ZM495.274 279.461V261.779H496.864V269.363H499.399V261.307H501.01V280.406H499.399V270.76H496.864V279.461H495.274ZM44.9199 304.912L46.5957 299.068H48.1855L47.0039 304.912H44.9199ZM40.8379 304.934L42.5137 299.09H44.1035L42.9219 304.934H40.8379ZM53.8256 314.666L49.5717 299.111H51.5268L54.7709 311.701H54.9213L58.2084 299.111H60.3784L63.687 311.701H63.8159L67.06 299.111H69.0151L64.7612 314.666H62.7631L59.3686 302.355H59.2397L55.8237 314.666H53.8256ZM74.0536 314.902C70.8739 314.913 68.7255 312.507 68.7255 308.887C68.7255 305.245 70.8739 302.85 74.0536 302.85C77.2225 302.85 79.3495 305.245 79.3388 308.887C79.3495 312.507 77.2225 314.913 74.0536 314.902ZM70.5731 308.887C70.5839 311.218 71.6796 313.27 74.0536 313.27C76.4061 313.27 77.4911 311.218 77.4911 308.887C77.4911 306.566 76.4061 304.482 74.0536 304.482C71.6796 304.482 70.5839 306.566 70.5731 308.887ZM81.3265 314.666V303H83.1097V304.783H83.2386C83.6575 303.602 84.8714 302.817 86.2464 302.807C86.5257 302.817 86.9984 302.828 87.2132 302.85V304.719C87.0736 304.687 86.5794 304.59 86.096 304.59C84.4202 304.59 83.1741 305.75 83.1741 307.318V314.666H81.3265ZM95.0662 306.029C94.8084 305.062 94.0672 304.429 92.7029 304.418C91.2634 304.429 90.2429 305.202 90.2322 306.18C90.2429 306.953 90.866 307.479 92.2302 307.812L93.9705 308.242C96.0545 308.736 97.075 309.778 97.0857 311.4C97.075 313.42 95.4314 314.913 92.5095 314.902C89.8884 314.913 88.3308 313.742 88.0193 311.615H89.9529C90.1677 312.754 90.9949 313.302 92.4666 313.291C94.1316 313.302 95.1736 312.604 95.1736 311.508C95.1736 310.681 94.5828 310.144 93.2615 309.832L91.4998 309.424C89.4695 308.951 88.3845 307.845 88.3845 306.287C88.3845 304.289 90.1355 302.85 92.7029 302.85C95.1199 302.85 96.6345 304.139 96.8709 306.029H95.0662ZM104.144 303V304.547H101.695V311.314C101.684 312.808 102.436 313.055 103.22 313.055C103.553 313.055 104.047 313.022 104.316 313.012V314.73C104.026 314.773 103.574 314.816 103.027 314.816C101.469 314.816 99.8361 313.85 99.8254 311.787V304.547H98.0637V303H99.8254V300.207H101.695V303H104.144ZM111.406 314.666V299.111H116.691C120.333 299.111 121.998 301.281 121.998 304.053C121.998 306.813 120.333 309.016 116.713 309.016H113.34V314.666H111.406ZM113.34 307.297H116.627C119.108 307.297 120.075 305.9 120.086 304.053C120.075 302.194 119.108 300.83 116.606 300.83H113.34V307.297ZM128.669 314.902C125.49 314.913 123.341 312.507 123.341 308.887C123.341 305.245 125.49 302.85 128.669 302.85C131.838 302.85 133.965 305.245 133.955 308.887C133.965 312.507 131.838 314.913 128.669 314.902ZM125.189 308.887C125.2 311.218 126.295 313.27 128.669 313.27C131.022 313.27 132.107 311.218 132.107 308.887C132.107 306.566 131.022 304.482 128.669 304.482C126.295 304.482 125.2 306.566 125.189 308.887ZM142.431 306.029C142.173 305.062 141.432 304.429 140.067 304.418C138.628 304.429 137.607 305.202 137.597 306.18C137.607 306.953 138.23 307.479 139.595 307.812L141.335 308.242C143.419 308.736 144.439 309.778 144.45 311.4C144.439 313.42 142.796 314.913 139.874 314.902C137.253 314.913 135.695 313.742 135.384 311.615H137.317C137.532 312.754 138.359 313.302 139.831 313.291C141.496 313.302 142.538 312.604 142.538 311.508C142.538 310.681 141.947 310.144 140.626 309.832L138.864 309.424C136.834 308.951 135.749 307.845 135.749 306.287C135.749 304.289 137.5 302.85 140.067 302.85C142.484 302.85 143.999 304.139 144.235 306.029H142.431ZM146.416 314.666V303H148.264V314.666H146.416ZM146.051 299.842C146.04 299.154 146.631 298.606 147.34 298.617C148.049 298.606 148.64 299.154 148.651 299.842C148.64 300.519 148.049 301.066 147.34 301.066C146.631 301.066 146.04 300.519 146.051 299.842ZM155.859 303V304.547H153.41V311.314C153.399 312.808 154.151 313.055 154.935 313.055C155.268 313.055 155.763 313.022 156.031 313.012V314.73C155.741 314.773 155.29 314.816 154.742 314.816C153.184 314.816 151.552 313.85 151.541 311.787V304.547H149.779V303H151.541V300.207H153.41V303H155.859ZM157.804 314.666V303H159.652V314.666H157.804ZM157.439 299.842C157.428 299.154 158.019 298.606 158.728 298.617C159.437 298.606 160.028 299.154 160.038 299.842C160.028 300.519 159.437 301.066 158.728 301.066C158.019 301.066 157.428 300.519 157.439 299.842ZM166.925 314.902C163.745 314.913 161.596 312.507 161.596 308.887C161.596 305.245 163.745 302.85 166.925 302.85C170.093 302.85 172.22 305.245 172.21 308.887C172.22 312.507 170.093 314.913 166.925 314.902ZM163.444 308.887C163.455 311.218 164.551 313.27 166.925 313.27C169.277 313.27 170.362 311.218 170.362 308.887C170.362 306.566 169.277 304.482 166.925 304.482C164.551 304.482 163.455 306.566 163.444 308.887ZM176.045 307.662V314.666H174.197V303H175.981V304.826H176.131C176.679 303.634 177.775 302.85 179.547 302.85C181.91 302.85 183.489 304.289 183.479 307.254V314.666H181.631V307.383C181.631 305.578 180.643 304.504 178.988 304.504C177.291 304.504 176.045 305.643 176.045 307.662ZM189.248 299.154L187.572 304.998H185.982L187.164 299.154H189.248ZM190.064 304.977L191.246 299.133H193.33L191.654 304.977H190.064ZM203.224 297.65C207.467 297.65 209.959 298.821 209.97 300.938C209.959 303.107 207.467 304.278 203.224 304.289C198.959 304.278 196.456 303.107 196.456 300.938C196.456 298.821 198.959 297.65 203.224 297.65ZM194.523 306.953V305.578H211.925V306.953H194.523ZM196.628 309.896V308.607H209.69V312.883H198.347V314.859H210.271V316.191H196.671V311.637H208.036V309.896H196.628ZM198.218 300.938C198.196 302.27 200.055 303 203.224 303C206.393 303 208.24 302.27 208.251 300.938C208.24 299.681 206.393 298.929 203.224 298.918C200.055 298.929 198.196 299.681 198.218 300.938ZM224.709 300.916C224.709 303.58 226.643 306.094 229.435 307.104L228.49 308.414C226.395 307.587 224.72 305.933 223.903 303.849C223.098 306.158 221.357 307.984 219.101 308.887L218.199 307.512C221.067 306.459 223.044 303.784 223.055 300.852V298.488H224.709V300.916ZM221.658 315.998V310.004H223.355V314.58H234.441V315.998H221.658ZM228.06 303.236V301.818H232.314V297.328H234.012V311.637H232.314V303.236H228.06ZM252.585 297.307V308.693H250.888V303.688H247.042V302.291H250.888V297.307H252.585ZM236.837 307.168C239.673 306.147 241.693 303.559 241.693 300.83V300.121H237.374V298.703H247.665V300.121H243.39V300.809C243.39 303.301 245.302 305.675 248.095 306.631L247.214 307.984C245.077 307.211 243.411 305.6 242.584 303.634C241.768 305.868 239.995 307.651 237.718 308.521L236.837 307.168ZM239.845 312.84C239.834 310.595 242.273 309.284 246.247 309.295C250.211 309.284 252.65 310.595 252.65 312.84C252.65 315.096 250.211 316.385 246.247 316.406C242.273 316.385 239.834 315.096 239.845 312.84ZM241.521 312.84C241.51 314.226 243.315 315.063 246.247 315.053C249.169 315.063 250.974 314.226 250.974 312.84C250.974 311.443 249.169 310.605 246.247 310.605C243.315 310.605 241.51 311.443 241.521 312.84ZM270.257 297.307V302.205H273.136V303.645H270.257V308.414H268.581V297.307H270.257ZM255.368 300.68V299.283H260.223V297.135H261.899V299.283H266.755V300.68H255.368ZM256.464 304.912C256.453 302.871 258.29 301.571 261.061 301.561C263.801 301.571 265.637 302.871 265.659 304.912C265.637 306.953 263.801 308.274 261.061 308.264C258.29 308.274 256.453 306.953 256.464 304.912ZM258.075 304.912C258.064 306.158 259.257 306.975 261.061 306.975C262.845 306.975 264.048 306.158 264.069 304.912C264.048 303.677 262.845 302.85 261.061 302.871C259.257 302.85 258.064 303.677 258.075 304.912ZM258.182 316.148V309.252H259.858V311.293H268.581V309.252H270.257V316.148H258.182ZM259.858 314.795H268.581V312.625H259.858V314.795ZM289.647 297.307V316.406H287.971V297.307H289.647ZM275.145 311.486V299.197H276.799V310.025C279.721 310.004 282.729 309.778 285.93 309.102L286.166 310.541C282.772 311.25 279.753 311.486 276.692 311.486H275.145ZM307.254 297.307V304.869H310.455V306.287H307.254V316.449H305.578V297.307H307.254ZM293.31 311.658V299.176H302.226V300.572H294.986V310.24C298.445 310.229 300.883 310.079 303.73 309.553L303.945 311.014C300.948 311.551 298.445 311.658 294.814 311.658H293.31ZM313.066 314.795C312.314 314.784 311.669 314.161 311.691 313.398C311.669 312.646 312.314 312.023 313.066 312.023C313.828 312.023 314.451 312.646 314.441 313.398C314.451 314.161 313.828 314.784 313.066 314.795Z" fill="#1E1E1E"/>
<path d="M47.3047 366.916C47.3047 369.58 49.2383 372.094 52.0312 373.104L51.0859 374.414C48.9912 373.587 47.3154 371.933 46.499 369.849C45.6934 372.158 43.9531 373.984 41.6973 374.887L40.7949 373.512C43.6631 372.459 45.6396 369.784 45.6504 366.852V364.488H47.3047V366.916ZM44.2539 381.998V376.004H45.9512V380.58H57.0371V381.998H44.2539ZM50.6562 369.236V367.818H54.9102V363.328H56.6074V377.637H54.9102V369.236H50.6562ZM75.1811 363.307V374.693H73.4838V369.688H69.6381V368.291H73.4838V363.307H75.1811ZM59.433 373.168C62.269 372.147 64.2885 369.559 64.2885 366.83V366.121H59.9702V364.703H70.2612V366.121H65.9858V366.809C65.9858 369.301 67.8979 371.675 70.6909 372.631L69.81 373.984C67.6723 373.211 66.0073 371.6 65.1801 369.634C64.3637 371.868 62.5912 373.651 60.3139 374.521L59.433 373.168ZM62.4409 378.84C62.4301 376.595 64.8686 375.284 68.8432 375.295C72.8071 375.284 75.2455 376.595 75.2455 378.84C75.2455 381.096 72.8071 382.385 68.8432 382.406C64.8686 382.385 62.4301 381.096 62.4409 378.84ZM64.1166 378.84C64.1059 380.226 65.9106 381.063 68.8432 381.053C71.7651 381.063 73.5698 380.226 73.5698 378.84C73.5698 377.443 71.7651 376.605 68.8432 376.605C65.9106 376.605 64.1059 377.443 64.1166 378.84ZM89.0282 369.58V370.955H85.161V373.619C86.9442 373.544 88.7274 373.415 90.3817 373.232L90.5106 374.479C86.3964 375.048 81.8524 375.166 78.2645 375.166L78.0067 373.791C79.6825 373.78 81.5624 373.759 83.4852 373.694V370.955H79.747V364.553H88.8778V365.949H81.4442V369.58H89.0282ZM81.2723 381.998V376.627H82.9481V380.58H94.2919V381.998H81.2723ZM91.9716 377.615V363.328H93.6688V377.615H91.9716ZM107.871 364.252C110.728 364.23 112.78 365.81 112.769 368.141C112.78 370.472 110.728 372.062 107.871 372.051C105.013 372.062 102.972 370.472 102.972 368.141C102.972 365.81 105.013 364.23 107.871 364.252ZM101.533 373.684C105.121 373.694 110.03 373.619 114.273 372.996L114.381 374.264C112.554 374.597 110.664 374.801 108.816 374.919V381.826H107.14V375.016C105.196 375.102 103.359 375.112 101.769 375.123L101.533 373.684ZM104.627 368.141C104.605 369.634 105.969 370.665 107.871 370.654C109.794 370.665 111.169 369.634 111.158 368.141C111.169 366.658 109.794 365.605 107.871 365.627C105.969 365.605 104.605 366.658 104.627 368.141ZM115.67 382.428V363.328H117.324V382.428H115.67ZM135.898 363.307V382.406H134.2V363.307H135.898ZM120.536 377.4C123.372 376.111 125.542 372.889 125.542 369.537V368.012H121.052V366.637H125.521V363.672H127.196V366.637H131.644V368.012H127.196V369.537C127.196 372.738 129.431 375.832 132.31 377.057L131.364 378.367C129.152 377.39 127.293 375.327 126.402 372.803C125.542 375.467 123.695 377.669 121.482 378.711L120.536 377.4ZM155.094 363.307V382.406H153.462V363.307H155.094ZM138.96 371.557C138.97 367.496 140.582 364.929 143.063 364.918C145.383 364.929 146.952 367.163 147.167 370.762H149.637V363.715H151.249V381.439H149.637V372.158H147.177C147.016 375.875 145.416 378.206 143.063 378.195C140.582 378.206 138.97 375.617 138.96 371.557ZM140.549 371.557C140.528 374.65 141.516 376.605 143.063 376.584C144.621 376.605 145.609 374.65 145.598 371.557C145.609 368.452 144.621 366.508 143.063 366.508C141.516 366.508 140.528 368.452 140.549 371.557ZM164.022 368.441C164.011 371.9 166.234 375.381 169.006 376.648L167.996 378.023C165.826 376.906 164.032 374.629 163.184 371.911C162.335 374.769 160.541 377.218 158.371 378.367L157.275 377.014C160.079 375.639 162.292 371.965 162.303 368.441V364.961H164.022V368.441ZM166.922 371.213V369.838H171.455V363.307H173.131V382.449H171.455V371.213H166.922ZM181.897 380.666V365.111H187.354C190.62 365.111 192.156 366.948 192.145 369.236C192.156 371.234 190.964 372.126 189.61 372.502V372.652C191.061 372.738 192.758 374.07 192.769 376.541C192.758 378.872 191.222 380.666 187.548 380.666H181.897ZM183.831 378.947H187.526C189.965 378.947 190.91 377.873 190.899 376.52C190.91 374.94 189.632 373.598 187.634 373.598H183.831V378.947ZM183.831 371.922H187.29C188.977 371.933 190.298 370.88 190.298 369.258C190.298 367.904 189.385 366.83 187.354 366.83H183.831V371.922ZM197.012 365.111V380.666H195.079V365.111H197.012ZM205.316 364.703C208.313 364.714 210.44 366.54 210.451 369.193C210.44 371.857 208.313 373.673 205.316 373.684C202.298 373.673 200.149 371.857 200.16 369.193C200.149 366.54 202.298 364.714 205.316 364.703ZM199.172 376.799C202.695 376.81 207.561 376.777 211.783 376.154L211.912 377.4C207.54 378.217 202.846 378.238 199.408 378.238L199.172 376.799ZM201.814 369.193C201.804 370.977 203.275 372.201 205.316 372.201C207.336 372.201 208.807 370.977 208.797 369.193C208.807 367.421 207.336 366.186 205.316 366.186C203.275 366.186 201.804 367.421 201.814 369.193ZM213.051 382.449V363.307H214.726V382.449H213.051ZM228.821 380.881C226.125 380.849 223.149 379.248 223.149 373.49C223.149 367.979 225.405 364.896 229.057 364.896C231.797 364.896 233.709 366.583 234.106 369.021H232.194C231.84 367.646 230.787 366.615 229.057 366.615C226.501 366.615 224.965 368.796 224.975 372.545H225.169C226.06 371.245 227.489 370.482 229.165 370.482C231.926 370.482 234.235 372.631 234.235 375.639C234.235 378.571 232.097 380.913 228.821 380.881ZM225.233 375.682C225.244 377.508 226.737 379.173 228.821 379.184C230.83 379.173 232.355 377.594 232.366 375.66C232.355 373.748 230.894 372.19 228.864 372.18C226.823 372.19 225.255 373.845 225.233 375.682ZM243.41 365.111V380.666H241.562V365.111H243.41ZM250.683 380.902C247.503 380.913 245.355 378.507 245.355 374.887C245.355 371.245 247.503 368.85 250.683 368.85C253.852 368.85 255.979 371.245 255.968 374.887C255.979 378.507 253.852 380.913 250.683 380.902ZM247.202 374.887C247.213 377.218 248.309 379.27 250.683 379.27C253.035 379.27 254.12 377.218 254.12 374.887C254.12 372.566 253.035 370.482 250.683 370.482C248.309 370.482 247.213 372.566 247.202 374.887ZM262.682 385.285C259.857 385.285 257.945 384.05 257.741 381.891H259.674C259.921 383.083 261.028 383.674 262.682 383.674C264.68 383.674 265.905 382.804 265.905 380.881V378.518H265.754C265.357 379.162 264.616 380.483 262.36 380.494C259.524 380.483 257.397 378.346 257.397 374.672C257.397 371.084 259.449 368.85 262.381 368.85C264.648 368.85 265.378 370.225 265.797 370.848H265.948V369H267.752V380.988C267.742 383.996 265.529 385.285 262.682 385.285ZM259.266 374.736C259.266 377.153 260.405 378.84 262.618 378.84C264.755 378.84 265.937 377.304 265.948 374.736C265.937 372.233 264.788 370.504 262.618 370.504C260.373 370.504 259.266 372.384 259.266 374.736ZM275.337 380.666V369H277.12V370.783H277.249C277.668 369.602 278.882 368.817 280.257 368.807C280.536 368.817 281.009 368.828 281.224 368.85V370.719C281.084 370.687 280.59 370.59 280.107 370.59C278.431 370.59 277.185 371.75 277.185 373.318V380.666H275.337ZM287.1 380.902C283.727 380.913 281.643 378.507 281.643 374.93C281.643 371.342 283.76 368.85 286.929 368.85C289.378 368.85 291.967 370.354 291.956 374.672V375.445H283.491C283.588 377.916 285.027 379.27 287.1 379.27C288.497 379.27 289.378 378.657 289.807 377.938H291.784C291.236 379.71 289.507 380.913 287.1 380.902ZM283.502 373.877H290.087C290.076 371.933 288.851 370.482 286.929 370.482C284.909 370.482 283.631 372.072 283.502 373.877ZM298.326 380.902C295.415 380.913 293.364 378.571 293.364 374.865C293.364 371.17 295.415 368.85 298.348 368.85C300.614 368.85 301.323 370.225 301.721 370.848H301.85V365.111H303.719V380.666H301.914V378.883H301.721C301.313 379.527 300.55 380.913 298.326 380.902ZM295.233 374.822C295.233 377.304 296.371 379.248 298.584 379.248C300.722 379.248 301.904 377.443 301.914 374.822C301.904 372.233 300.754 370.504 298.584 370.504C296.339 370.504 295.233 372.384 295.233 374.822ZM313.849 375.875V369H315.675V380.666H313.849V378.689H313.72C313.173 379.871 312.012 380.816 310.261 380.816C308.049 380.816 306.469 379.377 306.48 376.412V369H308.328V376.283C308.328 377.959 309.37 379.044 310.863 379.033C312.184 379.044 313.839 378.056 313.849 375.875ZM322.97 380.902C319.661 380.913 317.642 378.389 317.642 374.887C317.642 371.342 319.758 368.85 322.927 368.85C325.408 368.85 327.277 370.321 327.568 372.523H325.72C325.451 371.46 324.527 370.482 322.97 370.482C320.886 370.482 319.5 372.201 319.489 374.822C319.5 377.519 320.854 379.248 322.97 379.248C324.345 379.248 325.398 378.507 325.72 377.229H327.568C327.277 379.312 325.559 380.913 322.97 380.902ZM334.497 369V370.547H332.047V377.314C332.037 378.808 332.789 379.055 333.573 379.055C333.906 379.055 334.4 379.022 334.669 379.012V380.73C334.378 380.773 333.927 380.816 333.379 380.816C331.822 380.816 330.189 379.85 330.178 377.787V370.547H328.417V369H330.178V366.207H332.047V369H334.497ZM336.441 380.666V369H338.289V380.666H336.441ZM336.076 365.842C336.065 365.154 336.656 364.606 337.365 364.617C338.074 364.606 338.665 365.154 338.676 365.842C338.665 366.519 338.074 367.066 337.365 367.066C336.656 367.066 336.065 366.519 336.076 365.842ZM345.562 380.902C342.382 380.913 340.234 378.507 340.234 374.887C340.234 371.245 342.382 368.85 345.562 368.85C348.731 368.85 350.858 371.245 350.847 374.887C350.858 378.507 348.731 380.913 345.562 380.902ZM342.081 374.887C342.092 377.218 343.188 379.27 345.562 379.27C347.914 379.27 348.999 377.218 348.999 374.887C348.999 372.566 347.914 370.482 345.562 370.482C343.188 370.482 342.092 372.566 342.081 374.887ZM354.682 373.662V380.666H352.835V369H354.618V370.826H354.768C355.316 369.634 356.412 368.85 358.184 368.85C360.548 368.85 362.127 370.289 362.116 373.254V380.666H360.268V373.383C360.268 371.578 359.28 370.504 357.626 370.504C355.929 370.504 354.682 371.643 354.682 373.662ZM372.633 363.65C376.876 363.65 379.368 364.821 379.379 366.938C379.368 369.107 376.876 370.278 372.633 370.289C368.368 370.278 365.866 369.107 365.866 366.938C365.866 364.821 368.368 363.65 372.633 363.65ZM363.932 372.953V371.578H381.334V372.953H363.932ZM366.037 375.896V374.607H379.1V378.883H367.756V380.859H379.68V382.191H366.08V377.637H377.446V375.896H366.037ZM367.627 366.938C367.606 368.27 369.464 369 372.633 369C375.802 369 377.65 368.27 377.66 366.938C377.65 365.681 375.802 364.929 372.633 364.918C369.464 364.929 367.606 365.681 367.627 366.938ZM403.013 372.266V373.641H397.105V378.582H405.075V380H387.587V378.582H395.45V373.641H389.821V364.875H402.82V366.25H391.519V372.266H403.013ZM423.563 371.814V373.125H415.678V374.908H421.329V379.033H409.985V380.902H421.909V382.191H408.309V377.83H419.674V376.176H408.266V374.908H414.024V373.125H406.182V371.814H423.563ZM407.106 369.645C410.608 369.419 413.594 368.227 413.906 366.314H407.965V364.982H414.024V363.199H415.678V364.982H421.801V366.314H415.807C416.108 368.227 419.094 369.419 422.618 369.645L422.102 370.934C418.912 370.665 416.033 369.677 414.862 367.861C413.68 369.677 410.801 370.665 407.6 370.934L407.106 369.645ZM439.516 363.307V371.191H442.717V372.588H439.516V382.406H437.84V363.307H439.516ZM424.627 367.775V366.379H429.547V363.543H431.223V366.379H435.992V367.775H424.627ZM425.723 373.748C425.712 371.17 427.689 369.365 430.406 369.365C433.103 369.365 435.068 371.17 435.09 373.748C435.068 376.337 433.103 378.131 430.406 378.131C427.689 378.131 425.712 376.337 425.723 373.748ZM427.334 373.748C427.323 375.488 428.623 376.713 430.406 376.691C432.168 376.713 433.457 375.488 433.479 373.748C433.457 372.019 432.168 370.772 430.406 370.783C428.623 370.772 427.323 372.019 427.334 373.748ZM452.976 364.982V366.68H457.445V363.328H459.142V377.271H457.445V372.18H452.976V373.898H444.21V364.982H452.976ZM445.886 372.545H451.322V366.379H445.886V372.545ZM446.789 381.998V376.025H448.486V380.58H459.572V381.998H446.789ZM452.976 370.783H457.445V368.098H452.976V370.783ZM465.019 379.227L463.343 385.07H461.753L462.935 379.227H465.019ZM479.392 373.383V376.906C481.24 376.81 483.109 376.659 484.871 376.391L485 377.637C480.628 378.432 475.933 378.464 472.496 378.453L472.26 377.057C473.86 377.046 475.751 377.035 477.738 376.971V373.383H479.392ZM472.84 372.717C475.665 371.879 477.652 369.784 477.695 367.217H473.312V365.82H477.738V363.457H479.392V365.82H483.883V367.217H479.392C479.446 369.677 481.487 371.696 484.312 372.502L483.517 373.834C481.229 373.146 479.425 371.675 478.565 369.741C477.738 371.782 475.955 373.308 473.656 374.006L472.84 372.717ZM486.139 382.449V363.307H487.814V382.449H486.139ZM497.365 366.83C497.365 369.312 499.277 371.686 502.07 372.652L501.189 373.984C499.04 373.211 497.375 371.61 496.559 369.645C495.732 371.836 493.959 373.598 491.693 374.436L490.812 373.104C493.626 372.094 495.667 369.548 495.667 366.852V366.014H491.349V364.639H501.64V366.014H497.365V366.83ZM493.712 377.164V375.768H506.56V382.406H504.863V377.164H493.712ZM501.038 369.73V368.312H504.863V363.307H506.56V374.758H504.863V369.73H501.038ZM524.124 363.307V371.449H527.175V372.867H524.124V382.406H522.426V363.307H524.124ZM509.063 377.314C510.621 377.314 512.436 377.304 514.327 377.25V375.145C512.103 374.887 510.653 373.576 510.675 371.686C510.653 369.526 512.479 368.13 515.186 368.141C517.85 368.13 519.709 369.526 519.719 371.686C519.709 373.587 518.237 374.887 516.024 375.145V377.186C517.797 377.1 519.601 376.949 521.266 376.713L521.374 378.002C517.206 378.711 512.694 378.754 509.342 378.754L509.063 377.314ZM509.407 367.023V365.648H514.327V363.35H516.024V365.648H520.923V367.023H509.407ZM512.243 371.686C512.254 373.007 513.414 373.877 515.186 373.855C516.926 373.877 518.097 373.007 518.108 371.686C518.097 370.354 516.926 369.451 515.186 369.451C513.414 369.451 512.254 370.354 512.243 371.686ZM538.981 369.58V370.955H535.113V373.619C536.897 373.544 538.68 373.415 540.334 373.232L540.463 374.479C536.349 375.048 531.805 375.166 528.217 375.166L527.959 373.791C529.635 373.78 531.515 373.759 533.438 373.694V370.955H529.699V364.553H538.83V365.949H531.397V369.58H538.981ZM531.225 381.998V376.627H532.901V380.58H544.244V381.998H531.225ZM541.924 377.615V363.328H543.621V377.615H541.924ZM568.931 372.244V373.641H561.046V375.682C564.645 375.843 566.782 377.014 566.804 379.033C566.782 381.171 564.322 382.363 560.23 382.363C556.083 382.363 553.623 381.171 553.634 379.033C553.623 377.014 555.75 375.843 559.392 375.682V373.641H551.528V372.244H568.931ZM552.517 369.752C555.825 369.408 559.016 367.722 559.134 365.584H553.118V364.209H567.384V365.584H561.325C561.443 367.722 564.602 369.408 567.964 369.752L567.341 371.084C564.215 370.708 561.282 369.301 560.23 367.185C559.177 369.301 556.266 370.708 553.118 371.084L552.517 369.752ZM555.353 379.033C555.331 380.301 557.168 381.063 560.23 381.053C563.259 381.063 565.096 380.301 565.106 379.033C565.096 377.733 563.259 376.992 560.23 376.971C557.168 376.992 555.331 377.733 555.353 379.033ZM587.59 378.539V379.957H570.102V378.539H574.442V373.394C572.809 372.545 571.821 371.17 571.821 369.43C571.821 366.476 574.721 364.531 578.803 364.51C582.885 364.531 585.786 366.476 585.786 369.43C585.786 371.138 584.83 372.491 583.25 373.34V378.539H587.59ZM573.454 369.43C573.443 371.567 575.667 372.996 578.803 372.996C581.908 372.996 584.153 371.567 584.153 369.43C584.153 367.292 581.908 365.885 578.803 365.906C575.667 365.885 573.443 367.292 573.454 369.43ZM576.096 378.539H581.553V373.995C580.726 374.21 579.802 374.328 578.803 374.328C577.826 374.328 576.913 374.221 576.096 374.006V378.539ZM602.394 375.381C606.487 375.381 609.086 376.67 609.097 378.883C609.086 381.074 606.487 382.363 602.394 382.363C598.301 382.363 595.702 381.074 595.712 378.883C595.702 376.67 598.301 375.381 602.394 375.381ZM593.779 373.598V372.223H600.976V368.527H602.63V372.223H611.16V373.598H593.779ZM595.841 365.67V364.295H608.947V365.906C608.936 367.453 608.936 369 608.41 370.977L606.755 370.783C607.271 368.817 607.271 367.399 607.271 365.906V365.67H595.841ZM597.388 378.883C597.377 380.215 599.354 381.031 602.394 381.031C605.445 381.031 607.4 380.215 607.421 378.883C607.4 377.519 605.445 376.681 602.394 376.67C599.354 376.681 597.377 377.519 597.388 378.883ZM628.165 363.307V374.693H626.468V369.688H622.622V368.291H626.468V363.307H628.165ZM612.417 373.168C615.253 372.147 617.272 369.559 617.272 366.83V366.121H612.954V364.703H623.245V366.121H618.97V366.809C618.97 369.301 620.882 371.675 623.675 372.631L622.794 373.984C620.656 373.211 618.991 371.6 618.164 369.634C617.347 371.868 615.575 373.651 613.298 374.521L612.417 373.168ZM615.425 378.84C615.414 376.595 617.852 375.284 621.827 375.295C625.791 375.284 628.229 376.595 628.229 378.84C628.229 381.096 625.791 382.385 621.827 382.406C617.852 382.385 615.414 381.096 615.425 378.84ZM617.1 378.84C617.09 380.226 618.894 381.063 621.827 381.053C624.749 381.063 626.554 380.226 626.554 378.84C626.554 377.443 624.749 376.605 621.827 376.605C618.894 376.605 617.09 377.443 617.1 378.84ZM651.82 363.328V377.465H650.123V372.33H645.611V374.199H636.953V364.596H638.629V367.99H643.957V364.596H645.611V366.83H650.123V363.328H651.82ZM638.629 372.803H643.957V369.322H638.629V372.803ZM639.466 381.998V376.068H641.164V380.58H652.25V381.998H639.466ZM645.611 370.934H650.123V368.248H645.611V370.934ZM664.142 365.09C664.152 367.786 667.654 370.106 671.103 370.59L670.415 371.965C667.45 371.471 664.507 369.827 663.282 367.485C662.058 369.849 659.125 371.471 656.15 371.965L655.462 370.59C658.91 370.106 662.401 367.829 662.401 365.09V363.994H664.142V365.09ZM654.56 375.488V374.07H671.962V375.488H664.056V382.406H662.401V375.488H654.56ZM55.7051 399.307V403.711H58.584V405.15H55.7051V409.684H54.0293V399.307H55.7051ZM40.8164 408.502C45.543 407.374 48.3574 404.957 48.6582 401.863H41.6758V400.467H50.5059C50.4951 405.258 47.1006 408.502 41.4609 409.898L40.8164 408.502ZM42.9004 418.148V410.672H44.4688V412.992H47.9062V410.672H49.4746V418.148H42.9004ZM44.4688 416.795H47.9062V414.303H44.4688V416.795ZM49.582 417.031C51.8379 416.043 52.9551 413.916 52.9766 412.09V410.479H54.5879V412.025C54.5879 413.916 55.6943 416.054 57.918 417.031L57.0156 418.32C55.415 417.601 54.3516 416.279 53.7822 414.786C53.2021 416.279 52.1172 417.601 50.5059 418.32L49.582 417.031ZM68.0483 399.65C72.2914 399.65 74.7836 400.821 74.7944 402.938C74.7836 405.107 72.2914 406.278 68.0483 406.289C63.7836 406.278 61.2807 405.107 61.2807 402.938C61.2807 400.821 63.7836 399.65 68.0483 399.65ZM59.3471 408.953V407.578H76.7495V408.953H59.3471ZM61.4526 411.896V410.607H74.5151V414.883H63.1713V416.859H75.0952V418.191H61.4955V413.637H72.8608V411.896H61.4526ZM63.0424 402.938C63.0209 404.27 64.8793 405 68.0483 405C71.2172 405 73.0649 404.27 73.0756 402.938C73.0649 401.681 71.2172 400.929 68.0483 400.918C64.8793 400.929 63.0209 401.681 63.0424 402.938ZM98.7503 399.307V418.449H97.053V399.307H98.7503ZM83.7113 407.449C83.722 403.389 85.7415 400.8 88.5882 400.789C91.4241 400.8 93.4759 403.389 93.4652 407.449C93.4759 411.521 91.4241 414.099 88.5882 414.088C85.7415 414.099 83.722 411.521 83.7113 407.449ZM85.3441 407.449C85.3441 410.554 86.6761 412.595 88.5882 412.584C90.5111 412.595 91.8323 410.554 91.8323 407.449C91.8323 404.345 90.5111 402.304 88.5882 402.293C86.6761 402.304 85.3441 404.345 85.3441 407.449ZM119.043 406.332V407.707H101.576V406.332H106.979C107.57 404.151 107.688 402.551 107.71 401.455H103.101V400.059H109.375V400.703C109.375 401.702 109.375 403.679 108.698 406.332H114.531C115.057 404.184 115.165 402.562 115.186 401.455H110.685V400.059H116.83V400.725C116.819 401.767 116.819 403.7 116.239 406.332H119.043ZM103.66 411.08V409.727H116.808V414.453H105.4V416.795H117.431V418.148H103.703V413.164H115.111V411.08H103.66ZM125.284 400.789C127.884 400.8 129.764 403.034 130.022 406.611H134.308V399.307H135.984V418.449H134.308V408.008H130.043C129.861 411.757 127.948 414.099 125.284 414.088C122.459 414.099 120.483 411.521 120.493 407.449C120.483 403.389 122.459 400.8 125.284 400.789ZM122.105 407.449C122.115 410.554 123.404 412.595 125.284 412.584C127.154 412.595 128.464 410.554 128.464 407.449C128.464 404.345 127.154 402.304 125.284 402.293C123.404 402.304 122.115 404.345 122.105 407.449ZM154.944 399.328V409.125H153.333V404.914H150.626V409.061H149.036V399.693H150.626V403.518H153.333V399.328H154.944ZM139.69 408.029V400.424H141.366V406.633C143.375 406.622 145.319 406.515 147.618 406.074L147.811 407.471C145.222 407.943 143.128 408.04 140.872 408.029H139.69ZM142.268 411.381V410.006H154.944V414.625H143.987V416.795H155.717V418.148H142.311V413.314H153.29V411.381H142.268ZM171.96 401.09C171.971 403.786 175.473 406.106 178.921 406.59L178.234 407.965C175.269 407.471 172.326 405.827 171.101 403.485C169.876 405.849 166.944 407.471 163.968 407.965L163.281 406.59C166.729 406.106 170.22 403.829 170.22 401.09V399.994H171.96V401.09ZM162.378 411.488V410.07H179.781V411.488H171.875V418.406H170.22V411.488H162.378ZM192.5 412.133C192.49 413.819 193.403 415.613 195.218 416.645C197.044 415.517 198.011 413.604 198 412.133V411.08H199.655V412.133C199.644 414.099 201.094 416.054 203.543 416.902L202.705 418.148C200.793 417.472 199.461 416.14 198.795 414.539C198.204 416.086 197.034 417.558 195.272 418.299C193.413 417.59 192.232 416.193 191.663 414.593C190.975 416.129 189.664 417.461 187.838 418.148L186.979 416.902C189.396 416 190.846 413.959 190.868 412.133V411.08H192.5V412.133ZM186.485 404.914C186.474 402.25 188.59 400.435 191.491 400.445C194.391 400.435 196.486 402.25 196.496 404.914C196.486 407.535 194.391 409.34 191.491 409.34C188.59 409.34 186.474 407.535 186.485 404.914ZM188.139 404.914C188.118 406.687 189.525 407.933 191.491 407.943C193.435 407.933 194.842 406.687 194.842 404.914C194.842 403.131 193.435 401.863 191.491 401.885C189.525 401.863 188.118 403.131 188.139 404.914ZM200.127 410.242V399.328H201.803V410.242H200.127ZM208.496 410.779V413.014H218.035V410.779H219.732V418.148H206.82V410.779H208.496ZM204.607 409.426V408.029H222.01V409.426H204.607ZM205.596 405.322C209.001 404.86 212.449 402.852 212.449 400.424V399.521H214.189V400.424C214.179 402.776 217.659 404.893 221.021 405.322L220.398 406.676C217.444 406.235 214.533 404.731 213.319 402.594C212.105 404.742 209.183 406.235 206.24 406.676L205.596 405.322ZM208.496 416.795H218.035V414.346H208.496V416.795ZM238.929 399.307V418.406H237.253V399.307H238.929ZM224.427 413.486V401.197H226.081V412.025C229.003 412.004 232.011 411.778 235.212 411.102L235.449 412.541C232.054 413.25 229.035 413.486 225.974 413.486H224.427ZM256.536 399.307V406.869H259.737V408.287H256.536V418.449H254.86V399.307H256.536ZM242.592 413.658V401.176H251.509V402.572H244.268V412.24C247.727 412.229 250.166 412.079 253.012 411.553L253.227 413.014C250.23 413.551 247.727 413.658 244.096 413.658H242.592ZM262.348 416.795C261.596 416.784 260.951 416.161 260.973 415.398C260.951 414.646 261.596 414.023 262.348 414.023C263.111 414.023 263.734 414.646 263.723 415.398C263.734 416.161 263.111 416.784 262.348 416.795ZM288.001 414.539V415.957H270.513V414.539H278.376V409.877H272.575V400.918H285.831V409.877H280.03V414.539H288.001ZM274.23 408.523H284.198V402.271H274.23V408.523ZM306.51 408.953V410.328H289.086V408.953H306.51ZM291.299 406.848V400.145H304.34V401.52H292.975V405.451H304.512V406.848H291.299ZM291.342 417.977V412.391H293.018V416.559H304.663V417.977H291.342ZM313.687 416.666V401.111H319.144C322.41 401.111 323.946 402.948 323.935 405.236C323.946 407.234 322.753 408.126 321.4 408.502V408.652C322.85 408.738 324.547 410.07 324.558 412.541C324.547 414.872 323.011 416.666 319.337 416.666H313.687ZM315.62 414.947H319.316C321.754 414.947 322.7 413.873 322.689 412.52C322.7 410.94 321.421 409.598 319.423 409.598H315.62V414.947ZM315.62 407.922H319.079C320.766 407.933 322.087 406.88 322.087 405.258C322.087 403.904 321.174 402.83 319.144 402.83H315.62V407.922ZM326.632 416.666V405H328.479V416.666H326.632ZM326.266 401.842C326.256 401.154 326.846 400.606 327.555 400.617C328.264 400.606 328.855 401.154 328.866 401.842C328.855 402.519 328.264 403.066 327.555 403.066C326.846 403.066 326.256 402.519 326.266 401.842ZM335.752 416.902C332.573 416.913 330.424 414.507 330.424 410.887C330.424 407.245 332.573 404.85 335.752 404.85C338.921 404.85 341.048 407.245 341.037 410.887C341.048 414.507 338.921 416.913 335.752 416.902ZM332.272 410.887C332.282 413.218 333.378 415.27 335.752 415.27C338.105 415.27 339.19 413.218 339.19 410.887C339.19 408.566 338.105 406.482 335.752 406.482C333.378 406.482 332.282 408.566 332.272 410.887ZM344.873 401.111V416.666H343.025V401.111H344.873ZM352.146 416.902C348.966 416.913 346.818 414.507 346.818 410.887C346.818 407.245 348.966 404.85 352.146 404.85C355.315 404.85 357.442 407.245 357.431 410.887C357.442 414.507 355.315 416.913 352.146 416.902ZM348.665 410.887C348.676 413.218 349.772 415.27 352.146 415.27C354.498 415.27 355.583 413.218 355.583 410.887C355.583 408.566 354.498 406.482 352.146 406.482C349.772 406.482 348.676 408.566 348.665 410.887ZM364.145 421.285C361.32 421.285 359.408 420.05 359.204 417.891H361.137C361.384 419.083 362.491 419.674 364.145 419.674C366.143 419.674 367.368 418.804 367.368 416.881V414.518H367.217C366.82 415.162 366.079 416.483 363.823 416.494C360.987 416.483 358.86 414.346 358.86 410.672C358.86 407.084 360.912 404.85 363.844 404.85C366.111 404.85 366.841 406.225 367.26 406.848H367.411V405H369.215V416.988C369.205 419.996 366.992 421.285 364.145 421.285ZM360.729 410.736C360.729 413.153 361.868 414.84 364.081 414.84C366.218 414.84 367.4 413.304 367.411 410.736C367.4 408.233 366.251 406.504 364.081 406.504C361.836 406.504 360.729 408.384 360.729 410.736ZM371.719 416.666V405H373.566V416.666H371.719ZM371.354 401.842C371.343 401.154 371.934 400.606 372.643 400.617C373.352 400.606 373.942 401.154 373.953 401.842C373.942 402.519 373.352 403.066 372.643 403.066C371.934 403.066 371.343 402.519 371.354 401.842ZM380.839 416.902C377.531 416.913 375.511 414.389 375.511 410.887C375.511 407.342 377.627 404.85 380.796 404.85C383.278 404.85 385.147 406.321 385.437 408.523H383.589C383.321 407.46 382.397 406.482 380.839 406.482C378.755 406.482 377.37 408.201 377.359 410.822C377.37 413.519 378.723 415.248 380.839 415.248C382.214 415.248 383.267 414.507 383.589 413.229H385.437C385.147 415.312 383.428 416.913 380.839 416.902ZM386.716 413.357C386.716 410.683 389.079 410.07 391.099 409.92C391.85 409.866 393.73 409.759 394.257 409.748V408.803C394.257 407.32 393.376 406.461 391.614 406.461C390.142 406.461 389.251 407.138 388.993 408.029H387.059C387.296 406.149 389.122 404.85 391.7 404.85C393.225 404.85 396.094 405.301 396.083 408.975V416.666H394.257V415.076H394.171C393.784 415.86 392.721 416.935 390.69 416.945C388.477 416.935 386.716 415.635 386.716 413.357ZM388.563 413.443C388.574 414.679 389.595 415.302 391.013 415.291C393.097 415.302 394.257 413.905 394.257 412.434V411.263C393.709 411.295 391.872 411.435 391.313 411.467C389.638 411.574 388.574 412.165 388.563 413.443ZM400.455 401.111V416.666H398.608V401.111H400.455ZM410.21 401.111V416.666H408.277V401.111H410.21ZM414.819 409.662V416.666H412.971V405H414.755V406.826H414.905C415.453 405.634 416.548 404.85 418.321 404.85C420.684 404.85 422.263 406.289 422.253 409.254V416.666H420.405V409.383C420.405 407.578 419.417 406.504 417.762 406.504C416.065 406.504 414.819 407.643 414.819 409.662ZM429.182 416.902C426.271 416.913 424.219 414.571 424.219 410.865C424.219 407.17 426.271 404.85 429.203 404.85C431.47 404.85 432.179 406.225 432.576 406.848H432.705V401.111H434.574V416.666H432.77V414.883H432.576C432.168 415.527 431.405 416.913 429.182 416.902ZM426.088 410.822C426.088 413.304 427.227 415.248 429.44 415.248C431.577 415.248 432.759 413.443 432.77 410.822C432.759 408.233 431.609 406.504 429.44 406.504C427.194 406.504 426.088 408.384 426.088 410.822ZM437.335 416.666V405H439.183V416.666H437.335ZM436.97 401.842C436.96 401.154 437.55 400.606 438.259 400.617C438.968 400.606 439.559 401.154 439.57 401.842C439.559 402.519 438.968 403.066 438.259 403.066C437.55 403.066 436.96 402.519 436.97 401.842ZM446.456 416.902C443.147 416.913 441.128 414.389 441.128 410.887C441.128 407.342 443.244 404.85 446.413 404.85C448.895 404.85 450.764 406.321 451.054 408.523H449.206C448.937 407.46 448.014 406.482 446.456 406.482C444.372 406.482 442.986 408.201 442.976 410.822C442.986 413.519 444.34 415.248 446.456 415.248C447.831 415.248 448.884 414.507 449.206 413.229H451.054C450.764 415.312 449.045 416.913 446.456 416.902ZM452.332 413.357C452.332 410.683 454.696 410.07 456.715 409.92C457.467 409.866 459.347 409.759 459.873 409.748V408.803C459.873 407.32 458.993 406.461 457.231 406.461C455.759 406.461 454.868 407.138 454.61 408.029H452.676C452.913 406.149 454.739 404.85 457.317 404.85C458.842 404.85 461.71 405.301 461.7 408.975V416.666H459.873V415.076H459.788C459.401 415.86 458.337 416.935 456.307 416.945C454.094 416.935 452.332 415.635 452.332 413.357ZM454.18 413.443C454.191 414.679 455.211 415.302 456.629 415.291C458.713 415.302 459.873 413.905 459.873 412.434V411.263C459.326 411.295 457.489 411.435 456.93 411.467C455.254 411.574 454.191 412.165 454.18 413.443ZM469.316 405V406.547H466.867V413.314C466.856 414.808 467.608 415.055 468.392 415.055C468.725 415.055 469.22 415.022 469.488 415.012V416.73C469.198 416.773 468.747 416.816 468.199 416.816C466.641 416.816 465.009 415.85 464.998 413.787V406.547H463.236V405H464.998V402.207H466.867V405H469.316ZM475.902 416.902C472.722 416.913 470.574 414.507 470.574 410.887C470.574 407.245 472.722 404.85 475.902 404.85C479.071 404.85 481.198 407.245 481.187 410.887C481.198 414.507 479.071 416.913 475.902 416.902ZM472.421 410.887C472.432 413.218 473.528 415.27 475.902 415.27C478.254 415.27 479.339 413.218 479.339 410.887C479.339 408.566 478.254 406.482 475.902 406.482C473.528 406.482 472.432 408.566 472.421 410.887ZM483.175 416.666V405H484.958V406.783H485.087C485.506 405.602 486.719 404.817 488.094 404.807C488.374 404.817 488.846 404.828 489.061 404.85V406.719C488.922 406.687 488.427 406.59 487.944 406.59C486.268 406.59 485.022 407.75 485.022 409.318V416.666H483.175ZM496.914 408.029C496.656 407.062 495.915 406.429 494.551 406.418C493.111 406.429 492.091 407.202 492.08 408.18C492.091 408.953 492.714 409.479 494.078 409.812L495.819 410.242C497.902 410.736 498.923 411.778 498.934 413.4C498.923 415.42 497.279 416.913 494.358 416.902C491.736 416.913 490.179 415.742 489.867 413.615H491.801C492.016 414.754 492.843 415.302 494.315 415.291C495.98 415.302 497.022 414.604 497.022 413.508C497.022 412.681 496.431 412.144 495.11 411.832L493.348 411.424C491.318 410.951 490.233 409.845 490.233 408.287C490.233 406.289 491.984 404.85 494.551 404.85C496.968 404.85 498.483 406.139 498.719 408.029H496.914ZM506.443 400.703C509.44 400.714 511.567 402.54 511.578 405.193C511.567 407.857 509.44 409.673 506.443 409.684C503.424 409.673 501.276 407.857 501.287 405.193C501.276 402.54 503.424 400.714 506.443 400.703ZM500.298 412.799C503.822 412.81 508.688 412.777 512.91 412.154L513.039 413.4C508.667 414.217 503.972 414.238 500.535 414.238L500.298 412.799ZM502.941 405.193C502.93 406.977 504.402 408.201 506.443 408.201C508.462 408.201 509.934 406.977 509.923 405.193C509.934 403.421 508.462 402.186 506.443 402.186C504.402 402.186 502.93 403.421 502.941 405.193ZM514.177 418.449V399.307H515.853V418.449H514.177ZM539.036 400.359V401.799C539.036 403.335 539.036 405.129 538.584 407.514H541.334V408.91H536.436V413.529H534.803V408.91H531.301V413.529H529.647V408.91H523.846V407.514H536.909C537.371 405.097 537.371 403.335 537.36 401.799V401.734H526.059V400.359H539.036ZM525.995 417.998V412.025H527.67V416.58H539.551V417.998H525.995ZM563.829 399.307V418.406H562.218V399.307H563.829ZM547.265 413.314C549.929 411.725 551.487 408.233 551.476 404.764V402.959H547.802V401.562H556.611V402.959H553.109V404.764C553.109 408.062 554.602 411.359 557.234 412.885L556.203 414.131C554.323 413.003 552.991 410.94 552.325 408.513C551.637 411.145 550.251 413.39 548.339 414.582L547.265 413.314ZM555.15 407.578V406.203H558.372V399.779H559.962V417.418H558.372V407.578H555.15ZM581.888 399.307V418.406H580.212V408.395H575.657V406.998H580.212V399.307H581.888ZM566.096 413.422C571.263 410.919 573.659 407.234 574.003 402.766H566.934V401.391H575.7C575.689 406.805 573.401 411.606 567.02 414.775L566.096 413.422ZM599.43 399.307V407.084H602.524V408.502H599.43V418.406H597.754V399.307H599.43ZM584.778 413.443C589.708 410.994 592.394 407.31 592.781 402.787H585.658V401.369H594.489C594.478 406.772 591.943 411.703 585.723 414.775L584.778 413.443ZM52.332 441.967C51.666 439.969 50.1514 438.701 47.9277 438.701C45.1777 438.701 42.9971 440.871 42.9863 444.889C42.9971 448.896 45.1777 451.065 48.0566 451.076C50.6777 451.065 52.4932 449.325 52.5254 446.564H48.4648V444.867H54.416V446.543C54.416 450.399 51.7627 452.881 48.0566 452.881C43.8994 452.881 41.1064 449.809 41.1172 444.889C41.1064 439.969 43.9316 436.896 47.9277 436.896C51.2148 436.896 53.75 438.959 54.3301 441.967H52.332ZM67.4897 442.01C67.0385 439.861 65.2016 438.701 63.1498 438.701C60.3354 438.701 58.1547 440.871 58.144 444.889C58.1547 448.896 60.3354 451.065 63.1498 451.076C65.2016 451.065 67.0278 449.916 67.4897 447.789H69.4233C68.8647 450.969 66.308 452.881 63.1498 452.881C59.1538 452.881 56.2641 449.809 56.2748 444.889C56.2641 439.969 59.1538 436.896 63.1498 436.896C66.2973 436.896 68.8432 438.776 69.4233 442.01H67.4897ZM76.5243 452.666H71.6903V437.111H76.7177C81.2616 437.111 83.9364 440.022 83.9364 444.867C83.9364 449.723 81.2616 452.666 76.5243 452.666ZM73.6239 450.947H76.3954C80.2089 450.947 82.0458 448.638 82.0458 444.867C82.0458 441.107 80.2089 438.83 76.5888 438.83H73.6239V450.947ZM101.758 435.307V454.406H100.125V435.307H101.758ZM85.6234 443.557C85.6341 439.496 87.2454 436.929 89.7269 436.918C92.0472 436.929 93.6155 439.163 93.8304 442.762H96.3011V435.715H97.9124V453.439H96.3011V444.158H93.8411C93.68 447.875 92.0794 450.206 89.7269 450.195C87.2454 450.206 85.6341 447.617 85.6234 443.557ZM87.2132 443.557C87.1917 446.65 88.18 448.605 89.7269 448.584C91.2845 448.605 92.2728 446.65 92.262 443.557C92.2728 440.452 91.2845 438.508 89.7269 438.508C88.18 438.508 87.1917 440.452 87.2132 443.557ZM110.685 440.441C110.675 443.9 112.898 447.381 115.67 448.648L114.66 450.023C112.49 448.906 110.696 446.629 109.847 443.911C108.999 446.769 107.205 449.218 105.035 450.367L103.939 449.014C106.743 447.639 108.956 443.965 108.967 440.441V436.961H110.685V440.441ZM113.586 443.213V441.838H118.119V435.307H119.795V454.449H118.119V443.213H113.586ZM142.526 435.328V441.107H145.383V442.525H142.526V448.133H140.829V435.328H142.526ZM127.53 446.178C129.055 446.178 130.839 446.178 132.708 446.124V444.717C130.484 444.513 129.045 443.492 129.055 441.902C129.045 440.162 130.839 439.088 133.524 439.088C136.231 439.088 137.993 440.162 138.014 441.902C137.993 443.481 136.596 444.502 134.383 444.717V446.06C136.167 445.974 137.971 445.823 139.647 445.576L139.798 446.801C135.651 447.531 131.086 447.563 127.723 447.553L127.53 446.178ZM128.003 438.357V437.068H132.708V435.156H134.383V437.068H139.067V438.357H128.003ZM129.872 450.432V449.078H142.526V454.406H140.829V450.432H129.872ZM130.667 441.902C130.656 442.901 131.762 443.578 133.524 443.557C135.286 443.578 136.403 442.901 136.403 441.902C136.403 440.893 135.286 440.27 133.524 440.291C131.762 440.27 130.656 440.893 130.667 441.902ZM161.959 435.328V449.293H160.283V435.328H161.959ZM146.641 441.344C146.63 438.594 148.789 436.671 151.647 436.66C154.504 436.671 156.642 438.594 156.652 441.344C156.642 444.126 154.504 446.06 151.647 446.049C148.789 446.06 146.63 444.126 146.641 441.344ZM148.295 441.344C148.274 443.245 149.713 444.566 151.647 444.566C153.548 444.566 154.998 443.245 154.998 441.344C154.998 439.475 153.548 438.143 151.647 438.143C149.713 438.143 148.274 439.475 148.295 441.344ZM149.627 453.998V447.875H151.303V452.58H162.561V453.998H149.627ZM175.871 441.58V442.955H172.003V445.619C173.787 445.544 175.57 445.415 177.224 445.232L177.353 446.479C173.239 447.048 168.695 447.166 165.107 447.166L164.849 445.791C166.525 445.78 168.405 445.759 170.328 445.694V442.955H166.589V436.553H175.72V437.949H168.287V441.58H175.871ZM168.115 453.998V448.627H169.791V452.58H181.134V453.998H168.115ZM178.814 449.615V435.328H180.511V449.615H178.814ZM198.118 435.307V442.869H201.319V444.287H198.118V454.449H196.442V435.307H198.118ZM184.175 449.658V437.176H193.091V438.572H185.851V448.24C189.31 448.229 191.748 448.079 194.595 447.553L194.81 449.014C191.812 449.551 189.31 449.658 185.679 449.658H184.175ZM211.579 436.982V438.68H216.047V435.328H217.745V449.271H216.047V444.18H211.579V445.898H202.813V436.982H211.579ZM204.489 444.545H209.924V438.379H204.489V444.545ZM205.391 453.998V448.025H207.088V452.58H218.174V453.998H205.391ZM211.579 442.783H216.047V440.098H211.579V442.783ZM223.621 451.227L221.945 457.07H220.355L221.537 451.227H223.621ZM242.313 441.967C241.647 439.969 240.133 438.701 237.909 438.701C235.159 438.701 232.978 440.871 232.967 444.889C232.978 448.896 235.159 451.065 238.038 451.076C240.659 451.065 242.474 449.325 242.507 446.564H238.446V444.867H244.397V446.543C244.397 450.399 241.744 452.881 238.038 452.881C233.881 452.881 231.088 449.809 231.098 444.889C231.088 439.969 233.913 436.896 237.909 436.896C241.196 436.896 243.731 438.959 244.311 441.967H242.313ZM257.471 442.01C257.02 439.861 255.183 438.701 253.131 438.701C250.317 438.701 248.136 440.871 248.125 444.889C248.136 448.896 250.317 451.065 253.131 451.076C255.183 451.065 257.009 449.916 257.471 447.789H259.404C258.846 450.969 256.289 452.881 253.131 452.881C249.135 452.881 246.245 449.809 246.256 444.889C246.245 439.969 249.135 436.896 253.131 436.896C256.278 436.896 258.824 438.776 259.404 442.01H257.471ZM262.38 437.111L266.957 450.152H267.129L271.726 437.111H273.767L268.074 452.666H266.033L260.339 437.111H262.38ZM531.333 435.65C535.576 435.65 538.068 436.821 538.079 438.938C538.068 441.107 535.576 442.278 531.333 442.289C527.068 442.278 524.565 441.107 524.565 438.938C524.565 436.821 527.068 435.65 531.333 435.65ZM522.632 444.953V443.578H540.034V444.953H522.632ZM524.737 447.896V446.607H537.8V450.883H526.456V452.859H538.38V454.191H524.78V449.637H536.146V447.896H524.737ZM526.327 438.938C526.306 440.27 528.164 441 531.333 441C534.502 441 536.35 440.27 536.36 438.938C536.35 437.681 534.502 436.929 531.333 436.918C528.164 436.929 526.306 437.681 526.327 438.938ZM553.162 439.41C553.173 441.988 555.203 444.309 558.06 445.211L557.201 446.564C554.977 445.802 553.216 444.233 552.346 442.225C551.518 444.395 549.725 446.113 547.447 446.951L546.566 445.598C549.434 444.599 551.454 442.117 551.465 439.41V438.293H546.996V436.918H557.566V438.293H553.162V439.41ZM549.725 453.998V448.004H551.4V452.58H562.658V453.998H549.725ZM560.381 449.336V435.328H562.057V449.336H560.381ZM581.081 435.307V447.402H579.47V441.924H576.913V446.715H575.324V435.693H576.913V440.527H579.47V435.307H581.081ZM564.753 438.959V437.605H568.835V435.457H570.511V437.605H574.55V438.959H564.753ZM565.591 443.256C565.58 441.258 567.267 439.979 569.673 439.99C572.09 439.979 573.766 441.258 573.777 443.256C573.766 445.222 572.09 446.5 569.673 446.5C567.267 446.5 565.58 445.222 565.591 443.256ZM567.095 443.256C567.095 444.427 568.148 445.232 569.673 445.232C571.199 445.232 572.251 444.427 572.251 443.256C572.251 442.042 571.199 441.236 569.673 441.236C568.148 441.236 567.095 442.042 567.095 443.256ZM568.363 451.076C568.341 448.928 570.737 447.725 574.765 447.725C578.783 447.725 581.178 448.928 581.189 451.076C581.178 453.171 578.783 454.363 574.765 454.363C570.737 454.363 568.341 453.171 568.363 451.076ZM570.038 451.076C570.017 452.312 571.789 453.063 574.765 453.053C577.73 453.063 579.492 452.312 579.513 451.076C579.492 449.766 577.73 449.035 574.765 449.057C571.789 449.035 570.017 449.766 570.038 451.076ZM598.366 435.307V440.205H601.245V441.645H598.366V446.414H596.69V435.307H598.366ZM583.477 438.68V437.283H588.333V435.135H590.009V437.283H594.864V438.68H583.477ZM584.573 442.912C584.562 440.871 586.399 439.571 589.171 439.561C591.91 439.571 593.747 440.871 593.768 442.912C593.747 444.953 591.91 446.274 589.171 446.264C586.399 446.274 584.562 444.953 584.573 442.912ZM586.184 442.912C586.174 444.158 587.366 444.975 589.171 444.975C590.954 444.975 592.157 444.158 592.179 442.912C592.157 441.677 590.954 440.85 589.171 440.871C587.366 440.85 586.174 441.677 586.184 442.912ZM586.292 454.148V447.252H587.968V449.293H596.69V447.252H598.366V454.148H586.292ZM587.968 452.795H596.69V450.625H587.968V452.795ZM617.756 435.307V454.406H616.08V435.307H617.756ZM603.254 449.486V437.197H604.908V448.025C607.83 448.004 610.838 447.778 614.039 447.102L614.276 448.541C610.881 449.25 607.863 449.486 604.801 449.486H603.254ZM635.363 435.307V442.869H638.564V444.287H635.363V454.449H633.687V435.307H635.363ZM621.42 449.658V437.176H630.336V438.572H623.095V448.24C626.554 448.229 628.993 448.079 631.84 447.553L632.054 449.014C629.057 449.551 626.554 449.658 622.924 449.658H621.42ZM641.175 452.795C640.423 452.784 639.778 452.161 639.8 451.398C639.778 450.646 640.423 450.023 641.175 450.023C641.938 450.023 642.561 450.646 642.55 451.398C642.561 452.161 641.938 452.784 641.175 452.795Z" fill="#1E1E1E"/>
<path d="M275.819 446.113C275.83 442.289 276.861 439.099 278.72 436.402H280.374C278.913 438.4 277.742 442.504 277.731 446.113C277.742 449.733 278.913 453.837 280.374 455.846H278.72C276.861 453.139 275.83 449.948 275.819 446.113ZM297.293 435.307V454.449H295.596V435.307H297.293ZM282.254 443.449C282.265 439.389 284.285 436.8 287.131 436.789C289.967 436.8 292.019 439.389 292.008 443.449C292.019 447.521 289.967 450.099 287.131 450.088C284.285 450.099 282.265 447.521 282.254 443.449ZM283.887 443.449C283.887 446.554 285.219 448.595 287.131 448.584C289.054 448.595 290.375 446.554 290.375 443.449C290.375 440.345 289.054 438.304 287.131 438.293C285.219 438.304 283.887 440.345 283.887 443.449ZM314.9 435.307V443.191H318.101V444.588H314.9V454.406H313.225V435.307H314.9ZM300.012 439.775V438.379H304.932V435.543H306.607V438.379H311.377V439.775H300.012ZM301.107 445.748C301.097 443.17 303.073 441.365 305.791 441.365C308.487 441.365 310.453 443.17 310.475 445.748C310.453 448.337 308.487 450.131 305.791 450.131C303.073 450.131 301.097 448.337 301.107 445.748ZM302.719 445.748C302.708 447.488 304.008 448.713 305.791 448.691C307.553 448.713 308.842 447.488 308.863 445.748C308.842 444.019 307.553 442.772 305.791 442.783C304.008 442.772 302.708 444.019 302.719 445.748ZM335.333 441.967C334.667 439.969 333.152 438.701 330.929 438.701C328.179 438.701 325.998 440.871 325.987 444.889C325.998 448.896 328.179 451.065 331.057 451.076C333.679 451.065 335.494 449.325 335.526 446.564H331.466V444.867H337.417V446.543C337.417 450.399 334.763 452.881 331.057 452.881C326.9 452.881 324.107 449.809 324.118 444.889C324.107 439.969 326.932 436.896 330.929 436.896C334.216 436.896 336.751 438.959 337.331 441.967H335.333ZM339.082 449.357C339.082 446.683 341.446 446.07 343.465 445.92C344.217 445.866 346.097 445.759 346.623 445.748V444.803C346.623 443.32 345.742 442.461 343.981 442.461C342.509 442.461 341.617 443.138 341.36 444.029H339.426C339.662 442.149 341.489 440.85 344.067 440.85C345.592 440.85 348.46 441.301 348.449 444.975V452.666H346.623V451.076H346.537C346.151 451.86 345.087 452.935 343.057 452.945C340.844 452.935 339.082 451.635 339.082 449.357ZM340.93 449.443C340.941 450.679 341.961 451.302 343.379 451.291C345.463 451.302 346.623 449.905 346.623 448.434V447.263C346.075 447.295 344.239 447.435 343.68 447.467C342.004 447.574 340.941 448.165 340.93 449.443ZM357.463 444.029C357.205 443.062 356.464 442.429 355.099 442.418C353.66 442.429 352.639 443.202 352.629 444.18C352.639 444.953 353.262 445.479 354.627 445.812L356.367 446.242C358.451 446.736 359.471 447.778 359.482 449.4C359.471 451.42 357.828 452.913 354.906 452.902C352.285 452.913 350.727 451.742 350.416 449.615H352.349C352.564 450.754 353.391 451.302 354.863 451.291C356.528 451.302 357.57 450.604 357.57 449.508C357.57 448.681 356.979 448.144 355.658 447.832L353.896 447.424C351.866 446.951 350.781 445.845 350.781 444.287C350.781 442.289 352.532 440.85 355.099 440.85C357.516 440.85 359.031 442.139 359.267 444.029H357.463ZM377.379 442.01C376.928 439.861 375.091 438.701 373.04 438.701C370.225 438.701 368.044 440.871 368.034 444.889C368.044 448.896 370.225 451.065 373.04 451.076C375.091 451.065 376.918 449.916 377.379 447.789H379.313C378.754 450.969 376.198 452.881 373.04 452.881C369.044 452.881 366.154 449.809 366.165 444.889C366.154 439.969 369.044 436.896 373.04 436.896C376.187 436.896 378.733 438.776 379.313 442.01H377.379ZM382.525 457.049C382.128 457.038 381.73 457.027 381.494 457.006V455.352C381.688 455.373 382.106 455.384 382.396 455.395C383.148 455.384 383.782 455.341 384.395 453.633L384.738 452.752L380.42 441H382.439L385.619 450.26H385.748L388.928 441H390.947L386.006 454.342C385.318 456.179 384.18 457.038 382.525 457.049ZM396.888 452.902C393.58 452.913 391.56 450.389 391.56 446.887C391.56 443.342 393.676 440.85 396.845 440.85C399.327 440.85 401.196 442.321 401.486 444.523H399.638C399.37 443.46 398.446 442.482 396.888 442.482C394.804 442.482 393.418 444.201 393.408 446.822C393.418 449.519 394.772 451.248 396.888 451.248C398.263 451.248 399.316 450.507 399.638 449.229H401.486C401.196 451.312 399.477 452.913 396.888 452.902ZM405.171 437.111V452.666H403.323V437.111H405.171ZM412.573 452.902C409.2 452.913 407.116 450.507 407.116 446.93C407.116 443.342 409.232 440.85 412.401 440.85C414.85 440.85 417.439 442.354 417.428 446.672V447.445H408.963C409.06 449.916 410.499 451.27 412.573 451.27C413.969 451.27 414.85 450.657 415.28 449.938H417.256C416.708 451.71 414.979 452.913 412.573 452.902ZM408.974 445.877H415.559C415.548 443.933 414.324 442.482 412.401 442.482C410.381 442.482 409.103 444.072 408.974 445.877ZM425.421 437.111L429.997 450.152H430.169L434.767 437.111H436.808L431.114 452.666H429.073L423.38 437.111H425.421ZM436.561 449.357C436.561 446.683 438.924 446.07 440.944 445.92C441.696 445.866 443.576 445.759 444.102 445.748V444.803C444.102 443.32 443.221 442.461 441.46 442.461C439.988 442.461 439.096 443.138 438.839 444.029H436.905C437.141 442.149 438.967 440.85 441.546 440.85C443.071 440.85 445.939 441.301 445.928 444.975V452.666H444.102V451.076H444.016C443.63 451.86 442.566 452.935 440.536 452.945C438.323 452.935 436.561 451.635 436.561 449.357ZM438.409 449.443C438.42 450.679 439.44 451.302 440.858 451.291C442.942 451.302 444.102 449.905 444.102 448.434V447.263C443.554 447.295 441.717 447.435 441.159 447.467C439.483 447.574 438.42 448.165 438.409 449.443ZM450.301 437.111V452.666H448.453V437.111H450.301ZM452.804 452.666V441H454.652V452.666H452.804ZM452.439 437.842C452.428 437.154 453.019 436.606 453.728 436.617C454.437 436.606 455.028 437.154 455.039 437.842C455.028 438.519 454.437 439.066 453.728 439.066C453.019 439.066 452.428 438.519 452.439 437.842ZM461.56 452.902C458.648 452.913 456.597 450.571 456.597 446.865C456.597 443.17 458.648 440.85 461.581 440.85C463.848 440.85 464.557 442.225 464.954 442.848H465.083V437.111H466.952V452.666H465.147V450.883H464.954C464.546 451.527 463.783 452.913 461.56 452.902ZM458.466 446.822C458.466 449.304 459.604 451.248 461.817 451.248C463.955 451.248 465.137 449.443 465.147 446.822C465.137 444.233 463.987 442.504 461.817 442.504C459.572 442.504 458.466 444.384 458.466 446.822ZM469.155 449.357C469.155 446.683 471.518 446.07 473.538 445.92C474.289 445.866 476.169 445.759 476.696 445.748V444.803C476.696 443.32 475.815 442.461 474.053 442.461C472.581 442.461 471.69 443.138 471.432 444.029H469.498C469.735 442.149 471.561 440.85 474.139 440.85C475.664 440.85 478.533 441.301 478.522 444.975V452.666H476.696V451.076H476.61C476.223 451.86 475.16 452.935 473.129 452.945C470.916 452.935 469.155 451.635 469.155 449.357ZM471.002 449.443C471.013 450.679 472.034 451.302 473.452 451.291C475.536 451.302 476.696 449.905 476.696 448.434V447.263C476.148 447.295 474.311 447.435 473.752 447.467C472.077 447.574 471.013 448.165 471.002 449.443ZM486.139 441V442.547H483.689V449.314C483.679 450.808 484.431 451.055 485.215 451.055C485.548 451.055 486.042 451.022 486.31 451.012V452.73C486.02 452.773 485.569 452.816 485.021 452.816C483.464 452.816 481.831 451.85 481.82 449.787V442.547H480.058V441H481.82V438.207H483.689V441H486.139ZM488.083 452.666V441H489.931V452.666H488.083ZM487.718 437.842C487.707 437.154 488.298 436.606 489.007 436.617C489.716 436.606 490.307 437.154 490.318 437.842C490.307 438.519 489.716 439.066 489.007 439.066C488.298 439.066 487.707 438.519 487.718 437.842ZM497.204 452.902C494.024 452.913 491.876 450.507 491.876 446.887C491.876 443.245 494.024 440.85 497.204 440.85C500.373 440.85 502.5 443.245 502.489 446.887C502.5 450.507 500.373 452.913 497.204 452.902ZM493.723 446.887C493.734 449.218 494.83 451.27 497.204 451.27C499.556 451.27 500.641 449.218 500.641 446.887C500.641 444.566 499.556 442.482 497.204 442.482C494.83 442.482 493.734 444.566 493.723 446.887ZM506.324 445.662V452.666H504.477V441H506.26V442.826H506.41C506.958 441.634 508.054 440.85 509.826 440.85C512.19 440.85 513.769 442.289 513.758 445.254V452.666H511.91V445.383C511.91 443.578 510.922 442.504 509.268 442.504C507.57 442.504 506.324 443.643 506.324 445.662ZM520.193 446.113C520.182 449.938 519.151 453.128 517.293 455.824H515.638C517.099 453.826 518.27 449.723 518.281 446.113C518.27 442.493 517.099 438.39 515.638 436.381H517.293C519.151 439.088 520.182 442.278 520.193 446.113Z" fill="#1E1E1E" fill-opacity="0.4"/>
<path d="M58.2402 512.65V514.025H50.2695V520.406H48.6152V514.025H40.752V512.65H58.2402ZM42.9863 510.33V502.102H44.6621V504.744H54.2871V502.102H55.9844V510.33H42.9863ZM44.6621 508.955H54.2871V506.119H44.6621V508.955ZM65.8569 505.475C65.8676 507.849 67.7797 510.019 70.6049 510.867L69.7885 512.199C67.5971 511.512 65.8998 510.051 65.062 508.171C64.2241 510.233 62.4731 511.812 60.228 512.564L59.3686 511.232C62.2153 510.352 64.1918 508.063 64.2026 505.475V505.045H59.8842V503.691H64.2026V501.242H65.8998V503.691H70.1752V505.045H65.8569V505.475ZM61.7748 515.357V513.961H74.2787V520.449H72.603V515.357H61.7748ZM72.603 512.973V501.307H74.2787V506.42H77.1577V507.859H74.2787V512.973H72.603ZM89.0282 507.58V508.955H85.161V511.619C86.9442 511.544 88.7274 511.415 90.3817 511.232L90.5106 512.479C86.3964 513.048 81.8524 513.166 78.2645 513.166L78.0067 511.791C79.6825 511.78 81.5624 511.759 83.4852 511.694V508.955H79.747V502.553H88.8778V503.949H81.4442V507.58H89.0282ZM81.2723 519.998V514.627H82.9481V518.58H94.2919V519.998H81.2723ZM91.9716 515.615V501.328H93.6688V515.615H91.9716ZM116.765 502.359V503.799C116.765 505.335 116.765 507.129 116.314 509.514H119.064V510.91H114.166V515.529H112.533V510.91H109.031V515.529H107.377V510.91H101.576V509.514H114.638C115.1 507.097 115.1 505.335 115.09 503.799V503.734H103.789V502.359H116.765ZM103.724 519.998V514.025H105.4V518.58H117.281V519.998H103.724ZM126.402 502.703C129.399 502.714 131.526 504.54 131.536 507.193C131.526 509.857 129.399 511.673 126.402 511.684C123.383 511.673 121.235 509.857 121.245 507.193C121.235 504.54 123.383 502.714 126.402 502.703ZM120.257 514.799C123.78 514.81 128.647 514.777 132.868 514.154L132.997 515.4C128.625 516.217 123.931 516.238 120.493 516.238L120.257 514.799ZM122.9 507.193C122.889 508.977 124.361 510.201 126.402 510.201C128.421 510.201 129.893 508.977 129.882 507.193C129.893 505.421 128.421 504.186 126.402 504.186C124.361 504.186 122.889 505.421 122.9 507.193ZM134.136 520.449V501.307H135.812V520.449H134.136ZM149.67 502.896C152.345 502.929 155.32 504.54 155.32 510.266C155.32 515.798 153.054 518.881 149.412 518.881C146.673 518.881 144.75 517.205 144.363 514.734H146.275C146.619 516.131 147.683 517.162 149.412 517.162C151.947 517.162 153.494 514.971 153.516 511.189H153.301C152.409 512.479 150.981 513.252 149.326 513.252C146.544 513.252 144.234 511.114 144.234 508.117C144.234 505.217 146.361 502.864 149.67 502.896ZM146.125 508.096C146.114 510.019 147.575 511.555 149.606 511.555C151.636 511.555 153.215 509.879 153.215 508.053C153.215 506.27 151.722 504.594 149.67 504.594C147.64 504.594 146.104 506.173 146.125 508.096ZM162.615 518.881C159.811 518.881 157.684 517.151 157.566 514.756H159.435C159.575 516.142 160.928 517.173 162.615 517.184C164.634 517.173 166.095 515.701 166.095 513.746C166.095 511.727 164.581 510.233 162.486 510.223C161.175 510.201 160.155 510.609 159.585 511.619H157.716L158.812 503.111H167.234V504.83H160.423L159.843 509.385H159.994C160.692 508.848 161.734 508.482 162.83 508.482C165.794 508.482 167.975 510.674 167.986 513.703C167.975 516.711 165.719 518.881 162.615 518.881ZM178.159 514.928C178.159 513.23 179.255 511.78 181.21 511.791C183.186 511.78 184.239 513.23 184.239 514.928V515.744C184.239 517.452 183.154 518.892 181.21 518.902C179.223 518.892 178.159 517.452 178.159 515.744V514.928ZM170.403 506.85V506.033C170.393 504.325 171.51 502.875 173.454 502.875C175.441 502.875 176.473 504.325 176.483 506.033V506.85C176.473 508.547 175.409 509.986 173.454 509.986C171.456 509.986 170.393 508.547 170.403 506.85ZM170.983 518.666L181.683 503.111H183.423L172.724 518.666H170.983ZM171.972 506.85C171.972 507.773 172.369 508.654 173.454 508.654C174.518 508.654 174.894 507.773 174.894 506.85V506.033C174.894 505.099 174.539 504.218 173.454 504.207C172.401 504.218 171.972 505.099 171.972 506.033V506.85ZM179.749 515.744C179.738 516.679 180.125 517.56 181.21 517.549C182.263 517.56 182.66 516.679 182.649 515.744V514.928C182.66 514.004 182.295 513.123 181.21 513.123C180.146 513.123 179.738 514.004 179.749 514.928V515.744ZM200.987 501.307V509.084H204.08V510.502H200.987V520.406H199.311V501.307H200.987ZM186.334 515.443C191.265 512.994 193.951 509.31 194.337 504.787H187.215V503.369H196.045C196.035 508.772 193.499 513.703 187.28 516.775L186.334 515.443ZM226.189 501.307V520.406H224.577V501.307H226.189ZM209.624 515.314C212.288 513.725 213.846 510.233 213.835 506.764V504.959H210.161V503.562H218.97V504.959H215.468V506.764C215.468 510.062 216.961 513.359 219.593 514.885L218.562 516.131C216.682 515.003 215.35 512.94 214.684 510.513C213.996 513.145 212.611 515.39 210.699 516.582L209.624 515.314ZM217.509 509.578V508.203H220.732V501.779H222.322V519.418H220.732V509.578H217.509ZM244.247 501.307V520.406H242.571V510.395H238.016V508.998H242.571V501.307H244.247ZM228.456 515.422C233.623 512.919 236.018 509.234 236.362 504.766H229.294V503.391H238.059C238.049 508.805 235.76 513.606 229.38 516.775L228.456 515.422ZM258.115 506.355V507.688H254.27V509.632C256.074 509.546 257.89 509.417 259.576 509.213L259.662 510.395C255.58 511.028 250.972 511.146 247.352 511.146L247.115 509.793C248.791 509.793 250.66 509.771 252.572 509.696V507.688H248.877V502.145H257.901V503.455H250.617V506.355H258.115ZM250.102 513.832V512.479H262.777V516.904H251.82V518.816H263.465V520.191H250.145V515.615H261.123V513.832H250.102ZM261.102 511.619V501.328H262.777V511.619H261.102ZM283.317 501.736V509.127H285.638V501.307H287.249V520.406H285.638V510.523H283.317V519.461H281.749V501.736H283.317ZM271.243 515.422V503.734H275.39V505.131H272.812V513.993C273.531 513.961 274.477 513.875 275.519 513.617L275.669 515.057C274.058 515.411 272.812 515.433 271.995 515.422H271.243ZM276.228 515.422V503.734H280.46V505.131H277.753V513.993C278.655 513.972 279.719 513.886 280.868 513.553L281.019 514.992C279.429 515.411 278.107 515.433 277.001 515.422H276.228ZM306.704 512.65V514.025H298.733V520.406H297.079V514.025H289.215V512.65H306.704ZM291.45 510.33V502.102H293.125V504.744H302.75V502.102H304.448V510.33H291.45ZM293.125 508.955H302.75V506.119H293.125V508.955ZM323.644 501.307V520.449H321.969V509.922H317.93V508.525H321.969V501.307H323.644ZM308.691 515.83V503.068H317.607V504.465H310.389V508.439H316.769V509.814H310.389V514.434C313.891 514.423 316.146 514.326 318.767 513.854L318.961 515.25C316.179 515.701 313.848 515.83 310.152 515.83H308.691ZM343.024 507.967C342.358 505.969 340.844 504.701 338.62 504.701C335.87 504.701 333.689 506.871 333.679 510.889C333.689 514.896 335.87 517.065 338.749 517.076C341.37 517.065 343.185 515.325 343.218 512.564H339.157V510.867H345.108V512.543C345.108 516.399 342.455 518.881 338.749 518.881C334.592 518.881 331.799 515.809 331.809 510.889C331.799 505.969 334.624 502.896 338.62 502.896C341.907 502.896 344.442 504.959 345.022 507.967H343.024ZM358.182 508.01C357.731 505.861 355.894 504.701 353.842 504.701C351.028 504.701 348.847 506.871 348.836 510.889C348.847 514.896 351.028 517.065 353.842 517.076C355.894 517.065 357.72 515.916 358.182 513.789H360.115C359.557 516.969 357 518.881 353.842 518.881C349.846 518.881 346.956 515.809 346.967 510.889C346.956 505.969 349.846 502.896 353.842 502.896C356.99 502.896 359.535 504.776 360.115 508.01H358.182ZM367.216 518.666H362.383V503.111H367.41C371.954 503.111 374.629 506.022 374.629 510.867C374.629 515.723 371.954 518.666 367.216 518.666ZM364.316 516.947H367.088C370.901 516.947 372.738 514.638 372.738 510.867C372.738 507.107 370.901 504.83 367.281 504.83H364.316V516.947ZM390.86 501.307V509.084H393.954V510.502H390.86V520.406H389.185V501.307H390.86ZM376.208 515.443C381.139 512.994 383.824 509.31 384.211 504.787H377.089V503.369H385.919C385.908 508.772 383.373 513.703 377.153 516.775L376.208 515.443ZM406.523 506.441C406.513 509.933 408.887 513.435 411.701 514.713L410.67 516.045C408.489 514.992 406.609 512.726 405.696 510.008C404.815 512.887 402.936 515.304 400.701 516.432L399.627 515.014C402.474 513.714 404.826 510.062 404.848 506.441V502.961H406.523V506.441ZM413.785 520.449V501.307H415.482V520.449H413.785ZM424.775 504.852C424.786 507.397 426.655 509.718 429.48 510.695L428.621 512.006C426.44 511.232 424.775 509.675 423.958 507.698C423.142 509.868 421.391 511.555 419.146 512.371L418.244 511.061C421.101 510.051 423.099 507.591 423.121 504.852V504.035H418.759V502.66H429.072V504.035H424.775V504.852ZM420.736 515.207V513.832H433.24V520.406H431.564V515.207H420.736ZM431.564 512.822V501.307H433.24V506.355H436.119V507.795H433.24V512.822H431.564ZM448.268 509.557V510.953H444.079V514.713C445.948 514.638 447.828 514.509 449.6 514.305L449.729 515.572C445.497 516.185 440.878 516.271 437.225 516.26L436.989 514.842C438.654 514.842 440.502 514.831 442.403 514.777V510.953H438.45V503.133H448.182V504.508H440.104V509.557H448.268ZM450.868 520.449V501.307H452.544V520.449H450.868ZM470.903 507.107V508.461H457.819V502.016H459.494V507.107H470.903ZM455.434 512.436V511.061H472.922V512.436H455.434ZM457.711 519.934V514.391H459.387V518.537H471.01V519.934H457.711ZM494.945 501.328V514.262H493.247V508.117H489.058V506.699H493.247V501.328H494.945ZM479.433 511.662C483.998 510.255 486.823 507.602 487.178 504.207H480.378V502.832H488.972C488.961 507.73 485.674 511.254 480.185 513.016L479.433 511.662ZM481.431 519.01C484.815 518.419 487.898 516.281 487.919 513.467V512.586H489.573V513.467C489.584 516.249 492.635 518.344 495.997 518.945L495.288 520.299C492.474 519.762 489.874 518.269 488.746 516.034C487.586 518.29 484.965 519.783 482.118 520.342L481.431 519.01ZM506.385 502.553C510.371 502.563 513.368 504.647 513.368 507.795C513.368 510.975 510.371 513.059 506.385 513.037C502.4 513.059 499.403 510.975 499.403 507.795C499.403 504.647 502.4 502.563 506.385 502.553ZM497.684 517.871V516.453H515.172V517.871H497.684ZM501.014 507.795C500.993 510.115 503.302 511.662 506.385 511.662C509.447 511.662 511.735 510.115 511.735 507.795C511.735 505.507 509.447 503.917 506.385 503.928C503.302 503.917 500.993 505.507 501.014 507.795ZM533.746 516.625V518.043H516.258V516.625H524.121V513.016H518.449V507.129H529.879V504.121H518.406V502.725H531.533V508.504H520.125V511.619H531.984V513.016H525.775V516.625H533.746ZM554.845 501.307V507.129H557.724V508.547H554.845V515.293H553.147V501.307H554.845ZM539.935 511.727C544.521 510.298 547.497 507.58 547.852 504.207H540.729V502.789H549.688C549.688 507.709 546.176 511.361 540.665 513.08L539.935 511.727ZM542.878 519.998V513.875H544.554V518.58H555.726V519.998H542.878ZM568.133 504.014C568.122 506.57 571.528 508.74 574.858 509.234L574.235 510.566C571.259 510.062 568.348 508.472 567.188 506.173C566.028 508.472 563.117 510.062 560.184 510.566L559.518 509.234C562.837 508.74 566.232 506.57 566.243 504.014V503.885H560.12V502.51H574.235V503.885H568.133V504.014ZM558.487 513.596V512.199H575.889V513.596H567.983V520.406H566.328V513.596H558.487ZM591.992 501.307V506.205H594.871V507.645H591.992V512.414H590.316V501.307H591.992ZM577.103 504.68V503.283H581.959V501.135H583.635V503.283H588.49V504.68H577.103ZM578.199 508.912C578.188 506.871 580.025 505.571 582.797 505.561C585.536 505.571 587.373 506.871 587.394 508.912C587.373 510.953 585.536 512.274 582.797 512.264C580.025 512.274 578.188 510.953 578.199 508.912ZM579.81 508.912C579.8 510.158 580.992 510.975 582.797 510.975C584.58 510.975 585.783 510.158 585.805 508.912C585.783 507.677 584.58 506.85 582.797 506.871C580.992 506.85 579.8 507.677 579.81 508.912ZM579.918 520.148V513.252H581.594V515.293H590.316V513.252H591.992V520.148H579.918ZM581.594 518.795H590.316V516.625H581.594V518.795ZM611.382 501.307V520.406H609.706V501.307H611.382ZM596.88 515.486V503.197H598.534V514.025C601.456 514.004 604.464 513.778 607.665 513.102L607.902 514.541C604.507 515.25 601.489 515.486 598.427 515.486H596.88ZM628.989 501.307V508.869H632.19V510.287H628.989V520.449H627.313V501.307H628.989ZM615.046 515.658V503.176H623.962V504.572H616.721V514.24C620.18 514.229 622.619 514.079 625.466 513.553L625.68 515.014C622.683 515.551 620.18 515.658 616.55 515.658H615.046ZM634.801 518.795C634.049 518.784 633.404 518.161 633.426 517.398C633.404 516.646 634.049 516.023 634.801 516.023C635.564 516.023 636.187 516.646 636.176 517.398C636.187 518.161 635.564 518.784 634.801 518.795Z" fill="#1E1E1E"/>
<line x1="40" y1="2.16602" x2="680" y2="2.16602" stroke="#F4F5FA" stroke-width="3"/>
</svg>
