<svg width="720" height="288" viewBox="0 0 720 288" fill="none" xmlns="http://www.w3.org/2000/svg">
<rect y="2" width="720" height="250" fill="white"/>
<path d="M206.549 121L200.361 98.375H203.205L207.924 116.688H208.143L212.924 98.375H216.08L220.893 116.688H221.08L225.799 98.375H228.643L222.455 121H219.549L214.611 103.094H214.424L209.455 121H206.549ZM235.971 121.344C231.346 121.359 228.221 117.859 228.221 112.594C228.221 107.297 231.346 103.812 235.971 103.812C240.581 103.812 243.674 107.297 243.659 112.594C243.674 117.859 240.581 121.359 235.971 121.344ZM230.909 112.594C230.924 115.984 232.518 118.969 235.971 118.969C239.393 118.969 240.971 115.984 240.971 112.594C240.971 109.219 239.393 106.188 235.971 106.188C232.518 106.188 230.924 109.219 230.909 112.594ZM246.55 121V104.031H249.144V106.625H249.331C249.941 104.906 251.706 103.766 253.706 103.75C254.113 103.766 254.8 103.781 255.113 103.812V106.531C254.909 106.484 254.191 106.344 253.488 106.344C251.05 106.344 249.238 108.031 249.238 110.312V121H246.55ZM266.535 108.438C266.16 107.031 265.082 106.109 263.098 106.094C261.004 106.109 259.519 107.234 259.504 108.656C259.519 109.781 260.426 110.547 262.41 111.031L264.941 111.656C267.973 112.375 269.457 113.891 269.473 116.25C269.457 119.188 267.066 121.359 262.816 121.344C259.004 121.359 256.738 119.656 256.285 116.562H259.098C259.41 118.219 260.613 119.016 262.754 119C265.176 119.016 266.691 118 266.691 116.406C266.691 115.203 265.832 114.422 263.91 113.969L261.348 113.375C258.394 112.688 256.816 111.078 256.816 108.812C256.816 105.906 259.363 103.812 263.098 103.812C266.613 103.812 268.816 105.688 269.16 108.438H266.535ZM279.739 104.031V106.281H276.176V116.125C276.161 118.297 277.254 118.656 278.395 118.656C278.879 118.656 279.598 118.609 279.989 118.594V121.094C279.567 121.156 278.911 121.219 278.114 121.219C275.848 121.219 273.473 119.812 273.458 116.812V106.281H270.895V104.031H273.458V99.9688H276.176V104.031H279.739ZM290.303 121V98.375H297.99C303.287 98.375 305.709 101.531 305.709 105.562C305.709 109.578 303.287 112.781 298.021 112.781H293.115V121H290.303ZM293.115 110.281H297.896C301.506 110.281 302.912 108.25 302.928 105.562C302.912 102.859 301.506 100.875 297.865 100.875H293.115V110.281ZM315.412 121.344C310.787 121.359 307.662 117.859 307.662 112.594C307.662 107.297 310.787 103.812 315.412 103.812C320.022 103.812 323.116 107.297 323.1 112.594C323.116 117.859 320.022 121.359 315.412 121.344ZM310.35 112.594C310.366 115.984 311.959 118.969 315.412 118.969C318.834 118.969 320.412 115.984 320.412 112.594C320.412 109.219 318.834 106.188 315.412 106.188C311.959 106.188 310.366 109.219 310.35 112.594ZM335.429 108.438C335.054 107.031 333.976 106.109 331.991 106.094C329.897 106.109 328.413 107.234 328.397 108.656C328.413 109.781 329.319 110.547 331.304 111.031L333.835 111.656C336.866 112.375 338.351 113.891 338.366 116.25C338.351 119.188 335.96 121.359 331.71 121.344C327.897 121.359 325.632 119.656 325.179 116.562H327.991C328.304 118.219 329.507 119.016 331.647 119C334.069 119.016 335.585 118 335.585 116.406C335.585 115.203 334.726 114.422 332.804 113.969L330.241 113.375C327.288 112.688 325.71 111.078 325.71 108.812C325.71 105.906 328.257 103.812 331.991 103.812C335.507 103.812 337.71 105.688 338.054 108.438H335.429ZM341.226 121V104.031H343.914V121H341.226ZM340.695 99.4375C340.679 98.4375 341.539 97.6406 342.57 97.6562C343.601 97.6406 344.461 98.4375 344.476 99.4375C344.461 100.422 343.601 101.219 342.57 101.219C341.539 101.219 340.679 100.422 340.695 99.4375ZM354.961 104.031V106.281H351.399V116.125C351.383 118.297 352.477 118.656 353.618 118.656C354.102 118.656 354.821 118.609 355.211 118.594V121.094C354.789 121.156 354.133 121.219 353.336 121.219C351.071 121.219 348.696 119.812 348.68 116.812V106.281H346.118V104.031H348.68V99.9688H351.399V104.031H354.961ZM357.79 121V104.031H360.478V121H357.79ZM357.259 99.4375C357.243 98.4375 358.103 97.6406 359.134 97.6562C360.165 97.6406 361.024 98.4375 361.04 99.4375C361.024 100.422 360.165 101.219 359.134 101.219C358.103 101.219 357.243 100.422 357.259 99.4375ZM371.056 121.344C366.431 121.359 363.306 117.859 363.306 112.594C363.306 107.297 366.431 103.812 371.056 103.812C375.666 103.812 378.759 107.297 378.744 112.594C378.759 117.859 375.666 121.359 371.056 121.344ZM365.994 112.594C366.009 115.984 367.603 118.969 371.056 118.969C374.478 118.969 376.056 115.984 376.056 112.594C376.056 109.219 374.478 106.188 371.056 106.188C367.603 106.188 366.009 109.219 365.994 112.594ZM384.322 110.812V121H381.635V104.031H384.229V106.688H384.447C385.244 104.953 386.838 103.812 389.416 103.812C392.854 103.812 395.151 105.906 395.135 110.219V121H392.447V110.406C392.447 107.781 391.01 106.219 388.604 106.219C386.135 106.219 384.322 107.875 384.322 110.812ZM414.667 101C414.667 104.875 417.48 108.531 421.542 110L420.167 111.906C417.121 110.703 414.683 108.297 413.496 105.266C412.324 108.625 409.792 111.281 406.511 112.594L405.199 110.594C409.371 109.062 412.246 105.172 412.261 100.906V97.4688H414.667V101ZM410.23 122.938V114.219H412.699V120.875H428.824V122.938H410.23ZM419.542 104.375V102.312H425.73V95.7812H428.199V116.594H425.73V104.375H419.542ZM455.215 95.75V112.312H452.746V105.031H447.152V103H452.746V95.75H455.215ZM432.309 110.094C436.434 108.609 439.371 104.844 439.371 100.875V99.8438H433.09V97.7812H448.059V99.8438H441.84V100.844C441.84 104.469 444.621 107.922 448.684 109.312L447.402 111.281C444.293 110.156 441.871 107.812 440.668 104.953C439.481 108.203 436.902 110.797 433.59 112.062L432.309 110.094ZM436.684 118.344C436.668 115.078 440.215 113.172 445.996 113.188C451.762 113.172 455.309 115.078 455.309 118.344C455.309 121.625 451.762 123.5 445.996 123.531C440.215 123.5 436.668 121.625 436.684 118.344ZM439.121 118.344C439.106 120.359 441.731 121.578 445.996 121.562C450.246 121.578 452.871 120.359 452.871 118.344C452.871 116.312 450.246 115.094 445.996 115.094C441.731 115.094 439.106 116.312 439.121 118.344ZM479.404 113.219C485.107 113.219 488.56 115.094 488.56 118.344C488.56 121.625 485.107 123.5 479.404 123.531C473.685 123.5 470.201 121.625 470.185 118.344C470.201 115.094 473.685 113.219 479.404 113.219ZM467.779 110.312V97.5H470.185V101.75H478.279V97.5H480.716V110.312H467.779ZM470.185 108.312H478.279V103.688H470.185V108.312ZM472.654 118.344C472.622 120.344 475.216 121.531 479.404 121.531C483.607 121.531 486.169 120.344 486.185 118.344C486.169 116.359 483.607 115.188 479.404 115.156C475.216 115.188 472.622 116.359 472.654 118.344ZM485.872 112.469V95.75H488.31V102.75H492.497V104.844H488.31V112.469H485.872ZM497.451 97.1875V101.5H505.201V97.1875H507.607V102.594H514.17V95.75H516.639V110.938H514.17V104.656H507.607V109.906H495.014V97.1875H497.451ZM497.451 107.906H505.201V103.438H497.451V107.906ZM498.732 123.156V112.281H501.201V115.688H514.17V112.281H516.607V123.156H498.732ZM501.201 121.125H514.17V117.656H501.201V121.125Z" fill="#1E1E1E"/>
<circle cx="360" cy="194" r="12.8571" stroke="#7737FF" stroke-width="10.2857"/>
<line x1="40" y1="1.5" x2="680" y2="1.5" stroke="#F4F5FA" stroke-width="3"/>
</svg>
