<svg width="720" height="580" viewBox="0 0 720 580" fill="none" xmlns="http://www.w3.org/2000/svg">
<rect width="720" height="580" fill="white"/>
<path d="M251.471 131.664L242.927 124.368C241.231 124.912 239.471 125.184 237.647 125.184C234.543 125.184 231.743 124.464 229.247 123.024C226.751 121.552 224.799 119.504 223.391 116.88C221.983 114.256 221.279 111.296 221.279 108C221.279 104.672 221.983 101.712 223.391 99.1198C224.799 96.4958 226.751 94.4638 229.247 93.0238C231.743 91.5518 234.543 90.8158 237.647 90.8158C240.751 90.8158 243.551 91.5518 246.047 93.0238C248.543 94.4638 250.495 96.4958 251.903 99.1198C253.311 101.712 254.015 104.672 254.015 108C254.015 111.552 253.199 114.688 251.567 117.408C249.967 120.128 247.791 122.176 245.039 123.552L254.543 131.664H251.471ZM223.487 108C223.487 111.072 224.111 113.76 225.359 116.064C226.607 118.368 228.303 120.144 230.447 121.392C232.591 122.64 234.991 123.264 237.647 123.264C240.303 123.264 242.703 122.64 244.847 121.392C246.991 120.144 248.671 118.368 249.887 116.064C251.135 113.76 251.759 111.072 251.759 108C251.759 104.896 251.135 102.192 249.887 99.8878C248.671 97.5838 246.991 95.8078 244.847 94.5598C242.703 93.3118 240.303 92.6878 237.647 92.6878C234.991 92.6878 232.591 93.3118 230.447 94.5598C228.303 95.8078 226.607 97.5838 225.359 99.8878C224.111 102.192 223.487 104.896 223.487 108ZM281.664 98.7358V124.8H279.504V119.136C278.768 121.12 277.536 122.64 275.808 123.696C274.112 124.72 272.16 125.232 269.952 125.232C266.848 125.232 264.304 124.288 262.32 122.4C260.368 120.48 259.392 117.648 259.392 113.904V98.7358H261.504V113.76C261.504 116.864 262.288 119.248 263.856 120.912C265.424 122.544 267.552 123.36 270.24 123.36C273.056 123.36 275.296 122.464 276.96 120.672C278.656 118.88 279.504 116.224 279.504 112.704V98.7358H281.664ZM287.234 111.744C287.234 109.056 287.762 106.704 288.818 104.688C289.906 102.672 291.394 101.12 293.282 100.032C295.202 98.9438 297.378 98.3998 299.81 98.3998C302.562 98.3998 304.898 99.0718 306.818 100.416C308.738 101.76 310.082 103.472 310.85 105.552V98.7358H313.01V124.8H310.85V117.936C310.082 120.048 308.722 121.792 306.77 123.168C304.85 124.512 302.53 125.184 299.81 125.184C297.378 125.184 295.202 124.64 293.282 123.552C291.394 122.432 289.906 120.864 288.818 118.848C287.762 116.8 287.234 114.432 287.234 111.744ZM310.85 111.744C310.85 109.472 310.37 107.472 309.41 105.744C308.482 103.984 307.202 102.64 305.57 101.712C303.938 100.752 302.114 100.272 300.098 100.272C297.986 100.272 296.13 100.736 294.53 101.664C292.93 102.56 291.682 103.872 290.786 105.6C289.89 107.328 289.442 109.376 289.442 111.744C289.442 114.112 289.89 116.16 290.786 117.888C291.682 119.616 292.93 120.944 294.53 121.872C296.162 122.8 298.018 123.264 300.098 123.264C302.114 123.264 303.938 122.8 305.57 121.872C307.234 120.912 308.53 119.568 309.458 117.84C310.386 116.08 310.85 114.048 310.85 111.744ZM322.075 89.2798V124.8H319.915V89.2798H322.075ZM330.137 92.9278C329.625 92.9278 329.193 92.7678 328.841 92.4478C328.489 92.0958 328.313 91.6318 328.313 91.0558C328.313 90.5118 328.489 90.0638 328.841 89.7118C329.193 89.3598 329.625 89.1838 330.137 89.1838C330.649 89.1838 331.081 89.3598 331.433 89.7118C331.785 90.0638 331.961 90.5118 331.961 91.0558C331.961 91.6318 331.785 92.0958 331.433 92.4478C331.081 92.7678 330.649 92.9278 330.137 92.9278ZM331.193 98.7358V124.8H329.033V98.7358H331.193ZM348.087 100.656H341.319V124.8H339.159V100.656H335.223V98.7358H339.159V96.9118C339.159 94.1918 339.847 92.1758 341.223 90.8638C342.599 89.5198 344.855 88.8478 347.991 88.8478V90.7678C345.495 90.7678 343.751 91.2478 342.759 92.2078C341.799 93.1678 341.319 94.7358 341.319 96.9118V98.7358H348.087V100.656ZM353.764 92.9278C353.252 92.9278 352.82 92.7678 352.468 92.4478C352.116 92.0958 351.94 91.6318 351.94 91.0558C351.94 90.5118 352.116 90.0638 352.468 89.7118C352.82 89.3598 353.252 89.1838 353.764 89.1838C354.276 89.1838 354.708 89.3598 355.06 89.7118C355.412 90.0638 355.588 90.5118 355.588 91.0558C355.588 91.6318 355.412 92.0958 355.06 92.4478C354.708 92.7678 354.276 92.9278 353.764 92.9278ZM354.82 98.7358V124.8H352.66V98.7358H354.82ZM360.434 111.744C360.434 109.024 360.962 106.656 362.018 104.64C363.106 102.624 364.594 101.088 366.482 100.032C368.402 98.9438 370.594 98.3998 373.058 98.3998C376.322 98.3998 378.994 99.2158 381.074 100.848C383.186 102.48 384.498 104.672 385.01 107.424H382.754C382.338 105.184 381.25 103.424 379.49 102.144C377.762 100.864 375.618 100.224 373.058 100.224C371.138 100.224 369.394 100.656 367.826 101.52C366.258 102.352 364.994 103.648 364.034 105.408C363.106 107.136 362.642 109.248 362.642 111.744C362.642 114.272 363.106 116.4 364.034 118.128C364.994 119.856 366.258 121.152 367.826 122.016C369.394 122.88 371.138 123.312 373.058 123.312C375.618 123.312 377.762 122.672 379.49 121.392C381.25 120.112 382.338 118.352 382.754 116.112H385.01C384.498 118.832 383.186 121.024 381.074 122.688C378.962 124.352 376.29 125.184 373.058 125.184C370.594 125.184 368.402 124.64 366.482 123.552C364.594 122.464 363.106 120.912 362.018 118.896C360.962 116.848 360.434 114.464 360.434 111.744ZM389.286 111.744C389.286 109.056 389.814 106.704 390.87 104.688C391.958 102.672 393.446 101.12 395.334 100.032C397.254 98.9438 399.43 98.3998 401.862 98.3998C404.614 98.3998 406.95 99.0718 408.87 100.416C410.79 101.76 412.134 103.472 412.902 105.552V98.7358H415.062V124.8H412.902V117.936C412.134 120.048 410.774 121.792 408.822 123.168C406.902 124.512 404.582 125.184 401.862 125.184C399.43 125.184 397.254 124.64 395.334 123.552C393.446 122.432 391.958 120.864 390.87 118.848C389.814 116.8 389.286 114.432 389.286 111.744ZM412.902 111.744C412.902 109.472 412.422 107.472 411.462 105.744C410.534 103.984 409.254 102.64 407.622 101.712C405.99 100.752 404.166 100.272 402.15 100.272C400.038 100.272 398.182 100.736 396.582 101.664C394.982 102.56 393.734 103.872 392.838 105.6C391.942 107.328 391.494 109.376 391.494 111.744C391.494 114.112 391.942 116.16 392.838 117.888C393.734 119.616 394.982 120.944 396.582 121.872C398.214 122.8 400.07 123.264 402.15 123.264C404.166 123.264 405.99 122.8 407.622 121.872C409.286 120.912 410.582 119.568 411.51 117.84C412.438 116.08 412.902 114.048 412.902 111.744ZM425.183 100.608V117.84C425.183 119.76 425.535 121.088 426.239 121.824C426.943 122.528 428.191 122.88 429.983 122.88H432.911V124.8H429.647C427.375 124.8 425.695 124.272 424.607 123.216C423.551 122.128 423.023 120.336 423.023 117.84V100.608H419.087V98.7358H423.023V92.1118H425.183V98.7358H432.911V100.608H425.183ZM438.752 92.9278C438.24 92.9278 437.808 92.7678 437.456 92.4478C437.104 92.0958 436.928 91.6318 436.928 91.0558C436.928 90.5118 437.104 90.0638 437.456 89.7118C437.808 89.3598 438.24 89.1838 438.752 89.1838C439.264 89.1838 439.696 89.3598 440.048 89.7118C440.4 90.0638 440.576 90.5118 440.576 91.0558C440.576 91.6318 440.4 92.0958 440.048 92.4478C439.696 92.7678 439.264 92.9278 438.752 92.9278ZM439.808 98.7358V124.8H437.648V98.7358H439.808ZM458.238 125.184C455.806 125.184 453.614 124.64 451.662 123.552C449.71 122.464 448.174 120.912 447.054 118.896C445.966 116.848 445.422 114.464 445.422 111.744C445.422 109.056 445.982 106.704 447.102 104.688C448.222 102.64 449.758 101.088 451.71 100.032C453.694 98.9438 455.902 98.3998 458.334 98.3998C460.766 98.3998 462.958 98.9438 464.91 100.032C466.862 101.088 468.382 102.624 469.47 104.64C470.59 106.656 471.15 109.024 471.15 111.744C471.15 114.464 470.59 116.848 469.47 118.896C468.35 120.912 466.798 122.464 464.814 123.552C462.862 124.64 460.67 125.184 458.238 125.184ZM458.238 123.264C460.126 123.264 461.886 122.848 463.518 122.016C465.182 121.152 466.51 119.856 467.502 118.128C468.494 116.4 468.99 114.272 468.99 111.744C468.99 109.248 468.494 107.136 467.502 105.408C466.51 103.68 465.198 102.4 463.566 101.568C461.934 100.704 460.174 100.272 458.286 100.272C456.398 100.272 454.638 100.704 453.006 101.568C451.406 102.4 450.11 103.68 449.118 105.408C448.126 107.136 447.63 109.248 447.63 111.744C447.63 114.272 448.11 116.4 449.07 118.128C450.062 119.856 451.358 121.152 452.958 122.016C454.59 122.848 456.35 123.264 458.238 123.264ZM488.503 98.2078C491.607 98.2078 494.135 99.1678 496.087 101.088C498.039 102.976 499.015 105.792 499.015 109.536V124.8H496.903V109.68C496.903 106.576 496.119 104.208 494.551 102.576C492.983 100.912 490.855 100.08 488.167 100.08C485.351 100.08 483.095 100.976 481.399 102.768C479.735 104.56 478.903 107.216 478.903 110.736V124.8H476.743V98.7358H478.903V104.256C479.639 102.304 480.855 100.816 482.551 99.7918C484.279 98.7358 486.263 98.2078 488.503 98.2078Z" fill="#404040"/>
<rect x="120" y="160.8" width="480" height="2.4" fill="url(#paint0_linear_763_93)"/>
<rect x="120" y="160.8" width="480" height="2.4" fill="white" fill-opacity="0.4"/>
<path d="M109.228 261.075C109.228 264.685 112.009 268.138 116.071 269.544L114.79 271.481C111.665 270.356 109.243 268.028 108.056 265.169C106.853 268.356 104.274 270.919 100.978 272.138L99.6963 270.2C103.79 268.731 106.759 265.028 106.759 261.106V259.888H100.478V257.888H115.446V259.888H109.228V261.075ZM103.915 276.106V274.075H122.603V283.731H120.134V276.106H103.915ZM114.571 265.294V263.231H120.134V255.95H122.603V272.606H120.134V265.294H114.571ZM141.244 257.856C141.244 258.935 141.119 259.966 140.9 260.95H147.15V255.981H149.619V272.544H147.15V268.856H139.775V266.825H147.15V262.981H140.228C138.353 267.356 133.994 270.528 127.994 272.169L127.025 270.2C133.806 268.325 138.103 264.606 138.603 259.856H128.431V257.856H141.244ZM130.931 275.731V273.763H149.619V283.7H147.15V275.731H130.931ZM163.166 260.325C163.135 264.294 165.963 267.778 170.041 269.169L168.666 271.075C165.604 269.935 163.198 267.669 161.994 264.747C160.807 268.075 158.276 270.653 154.916 271.919L153.573 269.919C157.854 268.419 160.698 264.731 160.729 260.419V257.544H163.166V260.325ZM158.104 278.481C158.088 275.138 161.635 273.216 167.416 273.231C173.182 273.216 176.729 275.138 176.729 278.481C176.729 281.794 173.182 283.669 167.416 283.669C161.635 283.669 158.088 281.794 158.104 278.481ZM160.541 278.481C160.526 280.497 163.151 281.716 167.416 281.7C171.666 281.716 174.291 280.497 174.291 278.481C174.291 276.403 171.666 275.169 167.416 275.169C163.151 275.169 160.526 276.403 160.541 278.481ZM167.979 263.95V261.919H174.166V255.95H176.635V272.419H174.166V263.95H167.979ZM203.605 258.075V260.106H200.761V268.997C202.043 268.903 203.308 268.794 204.511 268.638L204.636 270.513C199.214 271.341 192.902 271.435 188.386 271.419L188.074 269.356C189.183 269.356 190.386 269.356 191.668 269.341V260.106H188.855V258.075H203.605ZM192.511 278.669C192.496 275.497 196.011 273.685 201.824 273.7C207.636 273.685 211.136 275.497 211.136 278.669C211.136 281.841 207.636 283.669 201.824 283.669C196.011 283.669 192.496 281.841 192.511 278.669ZM194.043 269.294C195.464 269.263 196.933 269.216 198.386 269.138V260.106H194.043V269.294ZM194.949 278.669C194.933 280.606 197.543 281.731 201.824 281.731C206.089 281.731 208.699 280.606 208.699 278.669C208.699 276.763 206.089 275.606 201.824 275.606C197.543 275.606 194.933 276.763 194.949 278.669ZM203.886 267.95V265.919H208.574V262.981H203.886V260.95H208.574V255.95H211.043V273.106H208.574V267.95H203.886ZM236.528 255.95V267.263H241.028V269.325H236.528V283.731H234.09V255.95H236.528ZM215.215 276.513C222.387 272.95 226.293 267.591 226.856 261.013H216.496V258.95H229.34C229.324 266.81 225.637 273.981 216.59 278.45L215.215 276.513ZM251.138 257.981C255.497 257.997 258.591 260.653 258.606 264.513C258.591 268.388 255.497 271.028 251.138 271.044C246.747 271.028 243.622 268.388 243.638 264.513C243.622 260.653 246.747 257.997 251.138 257.981ZM242.2 275.575C247.325 275.591 254.403 275.544 260.544 274.638L260.731 276.45C254.372 277.638 247.544 277.669 242.544 277.669L242.2 275.575ZM246.044 264.513C246.028 267.106 248.169 268.888 251.138 268.888C254.075 268.888 256.216 267.106 256.2 264.513C256.216 261.935 254.075 260.138 251.138 260.138C248.169 260.138 246.028 261.935 246.044 264.513ZM262.388 283.794V255.95H264.825V283.794H262.388ZM290.545 259.231V261.231H276.295V259.231H282.233V256.106H284.67V259.231H290.545ZM277.514 267.575C277.498 264.606 279.951 262.638 283.451 262.638C286.967 262.638 289.404 264.606 289.42 267.575C289.404 270.481 286.967 272.45 283.451 272.45C279.951 272.45 277.498 270.481 277.514 267.575ZM279.701 267.575C279.701 269.356 281.233 270.575 283.451 270.575C285.67 270.575 287.201 269.356 287.201 267.575C287.201 265.731 285.67 264.513 283.451 264.481C281.233 264.513 279.701 265.731 279.701 267.575ZM281.326 276.888V274.888H300.045V283.731H297.639V276.888H281.326ZM291.733 273.044V256.45H294.076V263.794H297.701V255.981H300.045V273.231H297.701V265.825H294.076V273.044H291.733ZM326.405 255.981V271.763H323.968V255.981H326.405ZM303.686 269.106C307.889 267.638 310.811 263.872 310.811 259.794V257.075H313.311V259.794C313.28 263.716 316.28 267.185 320.374 268.638L319.124 270.513C315.905 269.403 313.327 267.06 312.077 264.028C310.843 267.247 308.249 269.81 304.936 271.044L303.686 269.106ZM308.343 283.356V273.356H326.405V283.356H308.343ZM310.749 281.356H323.999V275.356H310.749V281.356ZM355.796 270.606V272.606H330.484V270.606H355.796ZM333.296 262.45C333.296 258.966 337.109 256.919 343.14 256.95C349.109 256.919 352.937 258.966 352.953 262.45C352.937 265.903 349.109 267.981 343.14 267.981C337.109 267.981 333.296 265.903 333.296 262.45ZM333.765 283.138V275.044H336.234V281.075H352.984V283.138H333.765ZM335.828 262.45C335.812 264.653 338.656 265.981 343.14 265.981C347.593 265.981 350.437 264.653 350.453 262.45C350.437 260.278 347.593 258.919 343.14 258.919C338.656 258.919 335.812 260.278 335.828 262.45ZM387.798 255.763V276.388H384.298V255.763H387.798ZM364.298 269.731C368.876 268.122 371.219 264.138 371.204 260.075V257.325H374.798V260.075C374.782 264.013 377.094 267.731 381.579 269.231L379.798 271.981C376.579 270.856 374.282 268.606 373.032 265.716C371.782 268.81 369.438 271.278 366.11 272.481L364.298 269.731ZM369.11 283.419V274.419H372.61V280.606H388.579V283.419H369.11ZM407.814 258.263V266.325H396.876V269.138H408.501V271.856H402.47V275.763C404.908 275.669 407.345 275.513 409.658 275.263L409.939 277.794C403.72 278.778 397.173 278.856 391.845 278.794L391.408 275.919C393.751 275.935 396.329 275.935 398.97 275.872V271.856H393.376V263.763H404.376V261.013H393.345V258.263H407.814ZM411.345 284.013V255.731H414.814V284.013H411.345ZM426.736 257.481C431.08 257.481 434.393 260.278 434.424 264.294C434.393 267.747 431.955 270.294 428.518 270.935V275.106C430.877 274.981 433.221 274.81 435.424 274.513L435.674 277.106C429.752 278.169 423.299 278.2 418.455 278.138L417.955 275.294C420.08 275.294 422.518 275.278 425.049 275.216V270.966C421.502 270.341 419.049 267.778 419.08 264.294C419.049 260.278 422.299 257.481 426.736 257.481ZM422.455 264.294C422.439 266.653 424.268 268.169 426.736 268.138C429.158 268.169 430.971 266.653 430.986 264.294C430.971 261.919 429.158 260.45 426.736 260.419C424.268 260.45 422.439 261.919 422.455 264.294ZM437.049 283.981V255.731H440.518V267.013H444.611V269.95H440.518V283.981H437.049ZM475.925 255.731V272.513H472.456V265.606H467.644V262.763H472.456V255.731H475.925ZM452.175 269.7C456.722 268.138 459.113 264.341 459.113 260.606V260.388H453.238V257.575H468.488V260.388H462.644V260.575C462.644 264.013 464.925 267.481 469.3 268.95L467.55 271.7C464.409 270.638 462.191 268.481 460.941 265.825C459.706 268.825 457.347 271.263 453.988 272.45L452.175 269.7ZM456.769 278.606C456.738 275.216 460.409 273.231 466.363 273.231C472.347 273.231 476.003 275.216 476.019 278.606C476.003 281.997 472.347 283.966 466.363 283.981C460.409 283.966 456.738 281.997 456.769 278.606ZM460.206 278.606C460.191 280.356 462.441 281.31 466.363 281.294C470.316 281.31 472.55 280.356 472.55 278.606C472.55 276.841 470.316 275.888 466.363 275.888C462.441 275.888 460.191 276.841 460.206 278.606ZM501.66 255.763V263.981H505.473V266.856H501.66V274.856H498.191V255.763H501.66ZM479.035 271.481C481.16 271.481 483.613 271.466 486.16 271.403V269.669C483.019 269.278 481.019 267.763 481.035 265.544C481.019 262.935 483.754 261.341 487.848 261.356C491.957 261.341 494.66 262.935 494.66 265.544C494.66 267.747 492.723 269.247 489.629 269.653V271.278C492.035 271.153 494.457 270.966 496.723 270.669L497.004 273.075C490.988 274.138 484.379 274.2 479.41 274.2L479.035 271.481ZM479.754 260.544V257.981H486.16V255.513H489.629V257.981H495.973V260.544H479.754ZM482.598 278.794V276.075H501.66V283.981H498.191V278.794H482.598ZM484.379 265.544C484.348 266.716 485.66 267.45 487.848 267.419C490.035 267.45 491.348 266.716 491.348 265.544C491.348 264.31 490.035 263.685 487.848 263.7C485.66 263.685 484.348 264.31 484.379 265.544ZM528.583 255.731V262.888H532.52V265.794H528.583V272.763H525.114V255.731H528.583ZM506.333 261.231V258.45H512.989V255.544H516.458V258.45H523.083V261.231H506.333ZM507.77 267.325C507.77 264.31 510.583 262.263 514.708 262.263C518.801 262.263 521.598 264.31 521.614 267.325C521.598 270.372 518.786 272.388 514.708 272.388C510.583 272.388 507.77 270.372 507.77 267.325ZM510.333 283.638V274.106H528.583V283.638H510.333ZM511.145 267.325C511.129 268.903 512.567 269.794 514.708 269.794C516.848 269.794 518.301 268.903 518.301 267.325C518.301 265.794 516.848 264.888 514.708 264.888C512.567 264.888 511.129 265.794 511.145 267.325ZM513.77 280.825H525.145V276.856H513.77V280.825ZM556.443 255.95V270.856H554.005V255.95H556.443ZM534.161 263.7C534.146 259.903 537.224 257.294 541.443 257.325C545.661 257.294 548.708 259.903 548.724 263.7C548.708 267.481 545.661 270.091 541.443 270.075C537.224 270.091 534.146 267.481 534.161 263.7ZM536.568 263.7C536.536 266.231 538.583 268.028 541.443 268.044C544.271 268.028 546.318 266.231 546.318 263.7C546.318 261.153 544.271 259.372 541.443 259.388C538.583 259.372 536.536 261.153 536.568 263.7ZM538.443 283.356V272.263H540.88V275.638H554.005V272.263H556.443V283.356H538.443ZM540.88 281.356H554.005V277.606H540.88V281.356ZM583.428 255.95V283.731H580.99V255.95H583.428ZM562.334 276.575V258.7H564.74V274.45C568.99 274.419 573.365 274.091 578.021 273.106L578.365 275.2C573.428 276.231 569.037 276.575 564.584 276.575H562.334ZM609.038 255.95V266.95H613.694V269.013H609.038V283.794H606.6V255.95H609.038ZM588.756 276.825V258.669H601.725V260.7H591.194V274.763C596.225 274.747 599.772 274.528 603.913 273.763L604.225 275.888C599.866 276.669 596.225 276.825 590.944 276.825H588.756ZM617.491 281.388C616.397 281.372 615.46 280.466 615.491 279.356C615.46 278.263 616.397 277.356 617.491 277.356C618.601 277.356 619.507 278.263 619.491 279.356C619.507 280.466 618.601 281.372 617.491 281.388Z" fill="#1E1E1E"/>
<path d="M41.4395 372.2V356.646H44.2324V363.241H51.4727V356.646H54.2871V372.2H51.4727V365.583H44.2324V372.2H41.4395ZM58.7885 356.646L62.8276 368.913H62.9995L67.06 356.646H70.1323L64.6323 372.2H61.1948L55.7163 356.646H58.7885ZM71.6903 372.2H68.704L74.1825 356.646H77.62L83.12 372.2H80.1337L78.8339 368.354H72.9794L71.6903 372.2ZM73.7313 366.099H78.0819L75.9657 359.825H75.8368L73.7313 366.099ZM94.2816 361.888C93.9486 360.019 92.4554 358.944 90.5648 358.944C88.0189 358.944 86.2142 360.899 86.2249 364.423C86.2142 368 88.0296 369.901 90.5648 369.901C92.4124 369.901 93.9056 368.87 94.2816 367.044H97.096C96.6663 370.03 94.2064 372.415 90.5218 372.415C86.4183 372.415 83.3997 369.439 83.4105 364.423C83.3997 359.396 86.4505 356.431 90.5218 356.431C93.9593 356.431 96.6126 358.429 97.096 361.888H94.2816ZM115.863 366.185V367.56H107.892V373.94H106.238V367.56H98.3748V366.185H115.863ZM100.609 363.864V355.636H102.285V358.278H111.91V355.636H113.607V363.864H100.609ZM102.285 362.489H111.91V359.653H102.285V362.489ZM132.804 354.841V373.983H131.128V363.456H127.089V362.06H131.128V354.841H132.804ZM117.851 369.364V356.603H126.767V357.999H119.548V361.974H125.929V363.349H119.548V367.968C123.05 367.957 125.306 367.86 127.927 367.388L128.12 368.784C125.338 369.235 123.007 369.364 119.312 369.364H117.851ZM156.717 354.69V374.112H154.311V354.69H156.717ZM140.625 368.763C145.717 366.346 148.059 363.059 148.488 358.644H141.613V356.753H150.916C150.916 362.532 148.671 367.441 141.871 370.675L140.625 368.763ZM175.291 354.69V374.112H172.884V354.69H175.291ZM159.199 368.763C164.291 366.346 166.632 363.059 167.062 358.644H160.187V356.753H169.49C169.49 362.532 167.245 367.441 160.445 370.675L159.199 368.763ZM194.401 354.69V374.112H192.102V354.69H194.401ZM177.837 363.091C177.837 358.815 179.491 356.162 182.026 356.173C184.379 356.162 185.979 358.364 186.259 361.995H188.128V355.034H190.405V373.167H188.128V363.929H186.28C186.055 367.721 184.433 370.041 182.026 370.03C179.491 370.041 177.837 367.377 177.837 363.091ZM180.05 363.091C180.039 366.131 180.791 367.764 182.026 367.753C183.315 367.764 184.078 366.131 184.089 363.091C184.078 360.062 183.315 358.418 182.026 358.429C180.791 358.418 180.039 360.062 180.05 363.091ZM217.713 354.69V374.112H215.435V364.208H213.244V373.124H211.053V355.056H213.244V362.296H215.435V354.69H217.713ZM201.599 369.579V356.989H208.861V358.923H204.006V367.56C206.111 367.538 207.851 367.431 209.828 367.065L210 369.021C207.647 369.493 205.617 369.558 202.91 369.579H201.599ZM234.89 354.712V360.813H237.597V362.79H234.89V369.214H232.505V354.712H234.89ZM219.593 358.772V356.86H224.169V354.69H226.554V356.86H231.109V358.772H219.593ZM220.581 363.284C220.581 361.05 222.526 359.567 225.351 359.567C228.155 359.567 230.088 361.05 230.099 363.284C230.088 365.508 228.155 366.958 225.351 366.958C222.526 366.958 220.581 365.508 220.581 363.284ZM222.45 373.726V368.075H224.835V371.792H235.663V373.726H222.45ZM222.902 363.284C222.891 364.455 223.879 365.121 225.351 365.11C226.823 365.121 227.822 364.455 227.822 363.284C227.822 362.103 226.823 361.415 225.351 361.415C223.879 361.415 222.891 362.103 222.902 363.284ZM250.059 358.021C250.059 360.395 251.627 362.769 254.635 363.778L253.432 365.626C251.262 364.917 249.726 363.445 248.877 361.619C248.028 363.649 246.417 365.282 244.108 366.056L242.883 364.165C245.977 363.145 247.631 360.566 247.631 358.042V357.784H243.592V355.872H254.076V357.784H250.059V358.021ZM245.955 369.106V367.194H259.19V374.112H256.805V369.106H245.955ZM253.496 361.458V359.503H256.805V354.69H259.19V366.271H256.805V361.458H253.496ZM271.834 355.937C271.834 356.646 271.769 357.312 271.64 357.956H275.379V354.712H277.763V366.249H275.379V363.993H270.716V362.06H275.379V359.868H271.049C269.739 362.887 266.828 365.024 262.66 366.142L261.757 364.229C266.237 363.059 268.869 360.738 269.266 357.892H262.81V355.937H271.834ZM264.529 368.956V367.065H277.763V374.048H275.379V368.956H264.529ZM287.185 357.483C287.174 360.126 288.721 362.543 291.761 363.499L290.472 365.368C288.356 364.616 286.873 363.198 286.046 361.361C285.187 363.478 283.564 365.143 281.212 365.97L279.944 364.036C283.156 362.983 284.768 360.395 284.778 357.591V355.743H287.185V357.483ZM283.167 370.374C283.146 368.011 285.67 366.625 289.763 366.636C293.877 366.625 296.391 368.011 296.401 370.374C296.391 372.737 293.877 374.091 289.763 374.091C285.67 374.091 283.146 372.737 283.167 370.374ZM285.53 370.374C285.52 371.556 287.066 372.211 289.763 372.222C292.481 372.211 294.017 371.556 294.017 370.374C294.017 369.149 292.481 368.494 289.763 368.483C287.066 368.494 285.52 369.149 285.53 370.374ZM290.085 360.405V358.45H293.952V354.69H296.337V366.12H293.952V360.405H290.085ZM314.277 356.044V357.978H312.559V363.488C313.267 363.435 313.976 363.37 314.642 363.284V361.544H317.307V359.868H314.642V357.956H317.307V354.69H319.691V366.593H317.307V363.456H314.696L314.793 365.046C311.087 365.658 306.801 365.723 303.707 365.733L303.449 363.757C304.126 363.757 304.867 363.757 305.641 363.746V357.978H303.943V356.044H314.277ZM306.521 370.524C306.5 368.236 309.003 366.937 313.117 366.937C317.264 366.937 319.745 368.236 319.756 370.524C319.745 372.759 317.264 374.091 313.117 374.091C309.003 374.091 306.5 372.759 306.521 370.524ZM307.961 363.714C308.713 363.692 309.486 363.66 310.26 363.628V357.978H307.961V363.714ZM308.885 370.524C308.874 371.652 310.399 372.243 313.117 372.243C315.846 372.243 317.371 371.652 317.371 370.524C317.371 369.375 315.846 368.763 313.117 368.763C310.399 368.763 308.874 369.375 308.885 370.524ZM337.212 354.69V362.274H340.091V364.272H337.212V374.069H334.828V354.69H337.212ZM321.894 368.763C326.62 366.399 329.177 363.112 329.65 358.687H322.947V356.71H332.078C332.067 362.414 329.703 367.431 323.247 370.61L321.894 368.763ZM355.829 354.841V362.726H358.729V364.144H355.829V373.94H354.132V354.841H355.829ZM340.639 368.655C343.518 365.701 344.689 362.146 344.904 358.343H341.241V356.925H346.505C346.483 361.469 345.463 365.959 341.993 369.622L340.639 368.655ZM346.118 369.944C349.104 366.571 349.996 362.328 350.157 358.343H347.106V356.925H351.747C351.736 361.458 351.07 366.732 347.493 370.89L346.118 369.944ZM366.11 360.706C366.12 363.95 368.473 367.248 371.287 368.462L370.342 369.794C368.108 368.784 366.185 366.582 365.293 363.939C364.402 366.743 362.468 369.171 360.287 370.267L359.278 368.935C362.017 367.624 364.402 364.015 364.412 360.706V358.214H359.901V356.817H370.664V358.214H366.11V360.706ZM373.328 373.94V354.841H375.026V373.94H373.328ZM398.251 356.774V358.687C398.23 361.028 398.23 363.649 397.542 367.495L395.823 367.302C396.543 363.649 396.543 360.975 396.554 358.687V358.171H384.78V356.774H398.251ZM382.933 371.233V369.837H389.765V363.005H391.419V369.837H400.335V371.233H382.933ZM417.727 354.862V366.12H416.116V361.071H413.516V365.991H411.905V355.228H413.516V359.675H416.116V354.862H417.727ZM401.614 365.067C405.578 363.456 407.823 360.867 408.145 357.655H402.387V356.259H409.885C409.875 360.824 407.296 364.272 402.452 366.335L401.614 365.067ZM404.836 368.376V367.001H417.727V373.94H416.073V368.376H404.836ZM426.482 359.976C426.482 363.338 428.706 366.808 431.424 368.14L430.393 369.493C428.287 368.397 426.525 366.131 425.677 363.478C424.828 366.292 423.023 368.709 420.875 369.858L419.801 368.505C422.594 367.13 424.807 363.467 424.828 359.976V356.495H426.482V359.976ZM433.186 373.94V354.841H434.861V362.597H438.062V364.058H434.861V373.94H433.186ZM444.412 356.087C447.344 356.108 449.493 357.913 449.503 360.577C449.493 362.973 447.752 364.67 445.271 364.992V368.236C447.054 368.161 448.848 368.032 450.513 367.817L450.621 369.085C446.571 369.772 442.059 369.815 438.697 369.794L438.417 368.376C439.954 368.365 441.726 368.354 443.574 368.301V364.992C441.039 364.691 439.309 362.983 439.32 360.577C439.309 357.913 441.425 356.108 444.412 356.087ZM440.974 360.577C440.953 362.371 442.403 363.617 444.412 363.606C446.388 363.617 447.828 362.371 447.849 360.577C447.828 358.783 446.388 357.559 444.412 357.548C442.403 357.559 440.953 358.783 440.974 360.577ZM451.738 373.94V354.841H453.414V362.726H456.529V364.187H453.414V373.94H451.738ZM477.241 354.841V359.933H480.119V361.372H477.241V366.356H475.565V354.841H477.241ZM462.352 358.278V356.882H467.207V354.69H468.883V356.882H473.739V358.278H462.352ZM463.448 362.618C463.437 360.577 465.274 359.224 468.045 359.224C470.784 359.224 472.621 360.577 472.643 362.618C472.621 364.691 470.784 366.034 468.045 366.034C465.274 366.034 463.437 364.691 463.448 362.618ZM465.059 362.618C465.048 363.918 466.241 364.724 468.045 364.745C469.828 364.724 471.032 363.918 471.053 362.618C471.032 361.372 469.828 360.534 468.045 360.534C466.241 360.534 465.048 361.372 465.059 362.618ZM465.188 373.683V367.452H477.241V373.683H465.188ZM466.842 372.308H475.565V368.806H466.842V372.308ZM485.631 357.161C485.609 361.168 485.051 365.68 482.258 369.386L480.926 368.612C483.31 365.626 484.019 362.07 484.159 358.558H481.312V357.161H485.631ZM485.222 369.858C487.854 366.485 488.316 362.124 488.391 358.558H486.232V357.161H489.863C489.863 358.719 489.82 360.513 489.584 362.36H492.119V355.356H493.73V372.974H492.119V363.757H489.358C488.918 366.142 488.091 368.559 486.533 370.653L485.222 369.858ZM495.685 373.94V354.841H497.318V373.94H495.685ZM514.184 356.151V364.315H505.354V356.151H514.184ZM506.471 372.565C509.63 372.071 512.433 370.331 512.627 368.247H507.223V366.872H519.813V368.247H514.388C514.571 370.288 517.428 372.071 520.544 372.565L519.921 373.876C517.128 373.414 514.603 372.028 513.497 370.116C512.422 372.039 509.898 373.403 507.116 373.854L506.471 372.565ZM507.008 362.94H512.551V357.526H507.008V362.94ZM517.794 365.755V354.841H519.469V359.438H522.348V360.856H519.469V365.755H517.794ZM530.158 358.386C530.158 360.287 532.081 361.941 534.756 362.532L534.025 363.864C531.845 363.327 530.137 362.135 529.331 360.566C528.536 362.274 526.807 363.553 524.551 364.122L523.82 362.833C526.517 362.199 528.418 360.427 528.418 358.386V358.321H524.229V356.968H528.461V354.905H530.137V356.968H534.326V358.321H530.158V358.386ZM523.025 365.368C526.656 365.39 531.48 365.347 535.701 364.745L535.809 366.034C533.918 366.356 531.963 366.539 530.072 366.657V373.36H528.375V366.732C526.538 366.808 524.798 366.808 523.262 366.808L523.025 365.368ZM532.801 369.536V368.183H537.205V354.862H538.924V373.962H537.205V369.536H532.801ZM553.642 358.944C553.652 361.522 555.683 363.843 558.54 364.745L557.681 366.099C555.457 365.336 553.695 363.768 552.825 361.759C551.998 363.929 550.204 365.647 547.927 366.485L547.046 365.132C549.914 364.133 551.934 361.651 551.944 358.944V357.827H547.476V356.452H558.046V357.827H553.642V358.944ZM550.204 373.532V367.538H551.88V372.114H563.138V373.532H550.204ZM560.86 368.87V354.862H562.536V368.87H560.86ZM581.561 354.841V366.937H579.95V361.458H577.393V366.249H575.803V355.228H577.393V360.062H579.95V354.841H581.561ZM565.233 358.493V357.14H569.315V354.991H570.991V357.14H575.03V358.493H565.233ZM566.071 362.79C566.06 360.792 567.746 359.514 570.153 359.524C572.57 359.514 574.245 360.792 574.256 362.79C574.245 364.756 572.57 366.034 570.153 366.034C567.746 366.034 566.06 364.756 566.071 362.79ZM567.575 362.79C567.575 363.961 568.627 364.767 570.153 364.767C571.678 364.767 572.731 363.961 572.731 362.79C572.731 361.576 571.678 360.771 570.153 360.771C568.627 360.771 567.575 361.576 567.575 362.79ZM568.842 370.61C568.821 368.462 571.216 367.259 575.245 367.259C579.262 367.259 581.658 368.462 581.668 370.61C581.658 372.705 579.262 373.897 575.245 373.897C571.216 373.897 568.821 372.705 568.842 370.61ZM570.518 370.61C570.496 371.846 572.269 372.598 575.245 372.587C578.209 372.598 579.971 371.846 579.993 370.61C579.971 369.3 578.209 368.569 575.245 368.591C572.269 368.569 570.496 369.3 570.518 370.61ZM598.846 354.841V359.739H601.724V361.179H598.846V365.948H597.17V354.841H598.846ZM583.957 358.214V356.817H588.812V354.669H590.488V356.817H595.344V358.214H583.957ZM585.053 362.446C585.042 360.405 586.879 359.105 589.65 359.095C592.389 359.105 594.226 360.405 594.248 362.446C594.226 364.487 592.389 365.809 589.65 365.798C586.879 365.809 585.042 364.487 585.053 362.446ZM586.664 362.446C586.653 363.692 587.846 364.509 589.65 364.509C591.433 364.509 592.637 363.692 592.658 362.446C592.637 361.211 591.433 360.384 589.65 360.405C587.846 360.384 586.653 361.211 586.664 362.446ZM586.771 373.683V366.786H588.447V368.827H597.17V366.786H598.846V373.683H586.771ZM588.447 372.329H597.17V370.159H588.447V372.329ZM618.236 354.841V373.94H616.56V354.841H618.236ZM603.734 369.021V356.731H605.388V367.56C608.31 367.538 611.318 367.312 614.519 366.636L614.755 368.075C611.361 368.784 608.342 369.021 605.281 369.021H603.734ZM635.843 354.841V362.403H639.044V363.821H635.843V373.983H634.167V354.841H635.843ZM621.899 369.192V356.71H630.815V358.106H623.575V367.774C627.034 367.764 629.472 367.613 632.319 367.087L632.534 368.548C629.537 369.085 627.034 369.192 623.403 369.192H621.899ZM641.654 372.329C640.903 372.318 640.258 371.695 640.279 370.933C640.258 370.181 640.903 369.558 641.654 369.558C642.417 369.558 643.04 370.181 643.029 370.933C643.04 371.695 642.417 372.318 641.654 372.329ZM50.3555 392.624C50.3662 395.32 53.8682 397.641 57.3164 398.124L56.6289 399.499C53.6641 399.005 50.7207 397.361 49.4961 395.02C48.2715 397.383 45.3389 399.005 42.3633 399.499L41.6758 398.124C45.124 397.641 48.6152 395.363 48.6152 392.624V391.528H50.3555V392.624ZM40.7734 403.022V401.604H58.1758V403.022H50.2695V409.94H48.6152V403.022H40.7734ZM74.2787 390.841V395.159H77.1577V396.577H74.2787V400.638H72.603V390.841H74.2787ZM60.1635 399.886V392.108H68.9936V399.886H60.1635ZM61.3881 409.425V402.356H63.0209V408.039C64.1274 407.996 65.5991 407.835 66.9526 407.384L67.2104 408.737C65.352 409.35 63.5366 409.436 62.2905 409.425H61.3881ZM61.8178 398.532H67.3608V393.483H61.8178V398.532ZM66.5444 403.839V402.55H70.562V400.853H72.2162V402.55H76.1909V403.839H66.5444ZM67.812 407.212C67.8012 405.558 69.2514 404.537 71.3569 404.526C73.4516 404.537 74.9233 405.558 74.9448 407.212C74.9233 408.866 73.4516 409.897 71.3569 409.897C69.2514 409.897 67.8012 408.866 67.812 407.212ZM69.3159 407.212C69.3159 408.125 70.1645 408.716 71.3569 408.694C72.5493 408.716 73.3979 408.125 73.3979 407.212C73.3979 406.32 72.5493 405.74 71.3569 405.729C70.1645 405.74 69.3159 406.32 69.3159 407.212ZM95.3231 400.917V402.292H77.9208V400.917H95.3231ZM79.8544 395.31C79.8544 392.914 82.4755 391.507 86.622 391.528C90.7255 391.507 93.3573 392.914 93.368 395.31C93.3573 397.684 90.7255 399.112 86.622 399.112C82.4755 399.112 79.8544 397.684 79.8544 395.31ZM80.1766 409.532V403.968H81.8739V408.114H93.3895V409.532H80.1766ZM81.5946 395.31C81.5839 396.824 83.5389 397.737 86.622 397.737C89.6835 397.737 91.6386 396.824 91.6493 395.31C91.6386 393.816 89.6835 392.882 86.622 392.882C83.5389 392.882 81.5839 393.816 81.5946 395.31ZM116.765 391.786V393.226C116.765 394.697 116.765 396.416 116.303 398.683H118.978V400.058H101.597V398.683H114.606C114.81 397.77 114.918 396.953 114.993 396.212L103.553 396.706L103.338 395.353L115.068 394.998C115.1 394.375 115.09 393.784 115.09 393.226V393.161H103.789V391.786H116.765ZM103.638 403.216V401.905H116.916V406.31H105.357V408.329H117.582V409.683H103.681V405.021H115.24V403.216H103.638ZM134.931 390.841V398.446H138.132V399.864H134.931V409.983H133.255V390.841H134.931ZM120.902 394.021V392.624H129.581V399.456H122.62V403.925C126.165 403.936 128.647 403.796 131.536 403.259L131.708 404.655C128.7 405.203 126.154 405.343 122.47 405.364H120.945V398.06H127.905V394.021H120.902ZM154.471 390.841V409.983H152.774V390.841H154.471ZM139.432 398.983C139.443 394.923 141.463 392.334 144.309 392.323C147.145 392.334 149.197 394.923 149.186 398.983C149.197 403.055 147.145 405.633 144.309 405.622C141.463 405.633 139.443 403.055 139.432 398.983ZM141.065 398.983C141.065 402.088 142.397 404.129 144.309 404.118C146.232 404.129 147.553 402.088 147.553 398.983C147.553 395.879 146.232 393.838 144.309 393.827C142.397 393.838 141.065 395.879 141.065 398.983ZM173.131 390.862V404.935H171.434V397.565H167.438C167.062 399.918 165.085 401.519 162.561 401.519C159.703 401.519 157.587 399.553 157.598 396.792C157.587 394.021 159.703 392.098 162.561 392.087C165.139 392.098 167.148 393.741 167.459 396.169H171.434V390.862H173.131ZM159.209 396.792C159.209 398.693 160.638 400.036 162.561 400.058C164.441 400.036 165.869 398.693 165.869 396.792C165.869 394.901 164.441 393.58 162.561 393.569C160.638 393.58 159.209 394.901 159.209 396.792ZM160.863 409.532V403.495H162.561V408.114H173.668V409.532H160.863ZM191.339 401.175V402.55H178.126V392.495H191.125V393.913H179.845V396.749H190.716V398.103H179.845V401.175H191.339ZM175.871 407.448V406.052H193.359V407.448H175.871ZM216.993 400.96V402.335H209.215V406.073H207.539V402.335H199.504V400.96H216.993ZM201.739 409.532V404.312H203.414V408.114H215.038V409.532H201.739ZM201.846 399.091V391.464H203.522V393.913H212.975V391.464H214.651V399.091H201.846ZM203.522 397.716H212.975V395.202H203.522V397.716ZM235.523 398.876V400.229H218.099V398.876H235.523ZM220.205 403.259V401.948H233.267V406.374H221.924V408.351H233.848V409.726H220.248V405.106H231.613V403.259H220.205ZM220.42 397.308V391.507H233.246V392.86H222.117V395.933H233.439V397.308H220.42ZM247.265 392.968V393.956C247.254 395.471 247.254 397.995 246.706 401.54L245.009 401.39C245.535 398.188 245.578 395.868 245.568 394.343H237.554V392.968H247.265ZM236.48 404.333C237.737 404.322 239.133 404.312 240.605 404.279V398.425H242.259V404.226C244.375 404.15 246.545 404.011 248.533 403.774L248.618 405.042C244.601 405.665 240.111 405.751 236.695 405.729L236.48 404.333ZM249.736 409.94V390.841H251.411V398.833H254.505V400.294H251.411V409.94H249.736ZM275.26 390.841V395.933H278.139V397.372H275.26V402.356H273.584V390.841H275.26ZM260.371 394.278V392.882H265.227V390.69H266.902V392.882H271.758V394.278H260.371ZM261.467 398.618C261.456 396.577 263.293 395.224 266.065 395.224C268.804 395.224 270.641 396.577 270.662 398.618C270.641 400.691 268.804 402.034 266.065 402.034C263.293 402.034 261.456 400.691 261.467 398.618ZM263.078 398.618C263.068 399.918 264.26 400.724 266.065 400.745C267.848 400.724 269.051 399.918 269.072 398.618C269.051 397.372 267.848 396.534 266.065 396.534C264.26 396.534 263.068 397.372 263.078 398.618ZM263.207 409.683V403.452H275.26V409.683H263.207ZM264.861 408.308H273.584V404.806H264.861V408.308ZM283.65 393.161C283.629 397.168 283.07 401.68 280.277 405.386L278.945 404.612C281.33 401.626 282.039 398.07 282.178 394.558H279.332V393.161H283.65ZM283.242 405.858C285.874 402.485 286.336 398.124 286.411 394.558H284.252V393.161H287.882C287.882 394.719 287.839 396.513 287.603 398.36H290.138V391.356H291.75V408.974H290.138V399.757H287.378C286.937 402.142 286.11 404.559 284.552 406.653L283.242 405.858ZM293.705 409.94V390.841H295.337V409.94H293.705ZM309.432 394.944C309.443 397.522 311.473 399.843 314.331 400.745L313.471 402.099C311.248 401.336 309.486 399.768 308.616 397.759C307.789 399.929 305.995 401.647 303.717 402.485L302.836 401.132C305.705 400.133 307.724 397.651 307.735 394.944V393.827H303.266V392.452H313.836V393.827H309.432V394.944ZM305.995 409.532V403.538H307.67V408.114H318.928V409.532H305.995ZM316.651 404.87V390.862H318.327V404.87H316.651ZM337.351 390.841V402.937H335.74V397.458H333.184V402.249H331.594V391.228H333.184V396.062H335.74V390.841H337.351ZM321.023 394.493V393.14H325.105V390.991H326.781V393.14H330.82V394.493H321.023ZM321.861 398.79C321.85 396.792 323.537 395.514 325.943 395.524C328.36 395.514 330.036 396.792 330.047 398.79C330.036 400.756 328.36 402.034 325.943 402.034C323.537 402.034 321.85 400.756 321.861 398.79ZM323.365 398.79C323.365 399.961 324.418 400.767 325.943 400.767C327.469 400.767 328.521 399.961 328.521 398.79C328.521 397.576 327.469 396.771 325.943 396.771C324.418 396.771 323.365 397.576 323.365 398.79ZM324.633 406.61C324.611 404.462 327.007 403.259 331.035 403.259C335.053 403.259 337.448 404.462 337.459 406.61C337.448 408.705 335.053 409.897 331.035 409.897C327.007 409.897 324.611 408.705 324.633 406.61ZM326.309 406.61C326.287 407.846 328.059 408.598 331.035 408.587C334 408.598 335.762 407.846 335.783 406.61C335.762 405.3 334 404.569 331.035 404.591C328.059 404.569 326.287 405.3 326.309 406.61ZM349.244 394.149V395.524H339.661V394.149H343.636V391.421H345.312V394.149H349.244ZM340.349 401.153C340.349 398.618 342.078 396.824 344.453 396.813C346.859 396.824 348.578 398.618 348.599 401.153C348.578 403.721 346.859 405.525 344.453 405.536C342.078 405.525 340.349 403.721 340.349 401.153ZM341.853 401.153C341.853 402.851 342.938 404.064 344.453 404.054C345.978 404.064 347.095 402.851 347.095 401.153C347.095 399.478 345.978 398.253 344.453 398.231C342.938 398.253 341.853 399.478 341.853 401.153ZM350.232 408.995V391.313H351.822V398.897H354.357V390.841H355.968V409.94H354.357V400.294H351.822V408.995H350.232ZM380.762 401.024V402.421H363.36V401.024H371.223V399.026C367.56 398.833 365.293 397.458 365.293 395.202C365.293 392.85 367.914 391.432 372.061 391.421C376.164 391.432 378.796 392.85 378.807 395.202C378.796 397.458 376.519 398.833 372.899 399.026V401.024H380.762ZM365.615 409.532V403.968H367.313V408.114H378.828V409.532H365.615ZM367.033 395.202C367.023 396.76 368.978 397.651 372.061 397.651C375.122 397.651 377.077 396.76 377.088 395.202C377.077 393.741 375.122 392.796 372.061 392.796C368.978 392.796 367.023 393.741 367.033 395.202ZM391.011 391.614V394.042H400.464V391.614H402.14V399.241H396.554V401.282H404.417V402.679H387.015V401.282H394.878V399.241H389.335V391.614H391.011ZM389.271 409.532V404.204H390.968V408.114H402.484V409.532H389.271ZM391.011 397.888H400.464V395.374H391.011V397.888ZM411.991 395.976C411.991 399.338 414.214 402.808 416.932 404.14L415.901 405.493C413.795 404.397 412.034 402.131 411.185 399.478C410.336 402.292 408.532 404.709 406.383 405.858L405.309 404.505C408.102 403.13 410.315 399.467 410.336 395.976V392.495H411.991V395.976ZM418.694 409.94V390.841H420.37V398.597H423.571V400.058H420.37V409.94H418.694ZM439.609 396.642V397.995H426.525V391.55H428.201V396.642H439.609ZM424.141 401.97V400.595H441.629V401.97H424.141ZM426.418 409.468V403.925H428.094V408.071H439.717V409.468H426.418ZM454.391 393.849C454.37 396.577 456.314 398.973 459.118 399.929L458.173 401.239C456.067 400.455 454.413 398.897 453.586 396.889C452.769 399.177 451.029 400.949 448.72 401.819L447.796 400.444C450.739 399.413 452.694 396.878 452.716 393.913V391.937H454.391V393.849ZM450.911 406.331C450.9 404.032 453.339 402.711 457.313 402.722C461.277 402.711 463.716 404.032 463.716 406.331C463.716 408.608 461.277 409.897 457.313 409.897C453.339 409.897 450.9 408.608 450.911 406.331ZM452.587 406.331C452.576 407.717 454.381 408.555 457.313 408.544C460.235 408.555 462.04 407.717 462.04 406.331C462.04 404.902 460.235 404.054 457.313 404.054C454.381 404.054 452.576 404.902 452.587 406.331ZM457.7 396.341V394.944H461.954V390.841H463.651V402.163H461.954V396.341H457.7ZM482.139 390.862V405.364H480.442V403.388H476.489V402.163H480.442V390.862H482.139ZM466.284 399.714C469.839 399.692 474.63 399.66 478.723 399.155L478.83 400.38C477.133 400.648 475.339 400.82 473.588 400.928V404.698H471.891V401.014C469.957 401.089 468.12 401.089 466.52 401.089L466.284 399.714ZM467.83 394.966C467.82 392.957 469.732 391.636 472.557 391.636C475.361 391.636 477.273 392.957 477.284 394.966C477.273 397.007 475.361 398.274 472.557 398.274C469.732 398.274 467.82 397.007 467.83 394.966ZM469.034 409.532V403.946H470.731V408.114H482.612V409.532H469.034ZM469.442 394.966C469.42 396.212 470.688 397.018 472.557 397.028C474.372 397.018 475.661 396.212 475.672 394.966C475.661 393.741 474.372 392.903 472.557 392.925C470.688 392.903 469.42 393.741 469.442 394.966ZM501.336 390.841V409.94H499.703V390.841H501.336ZM485.201 399.091C485.212 395.03 486.823 392.463 489.304 392.452C491.625 392.463 493.193 394.697 493.408 398.296H495.879V391.249H497.49V408.974H495.879V399.692H493.419C493.258 403.409 491.657 405.74 489.304 405.729C486.823 405.74 485.212 403.151 485.201 399.091ZM486.791 399.091C486.769 402.185 487.758 404.14 489.304 404.118C490.862 404.14 491.85 402.185 491.84 399.091C491.85 395.986 490.862 394.042 489.304 394.042C487.758 394.042 486.769 395.986 486.791 399.091ZM526.108 406.095V407.491H508.62V406.095H516.483V401.97H510.682V392.194H512.38V395.653H522.305V392.194H523.96V401.97H518.137V406.095H526.108ZM512.38 400.595H522.305V397.028H512.38V400.595ZM542.125 390.841V395.331H545.004V396.749H542.125V401.024H540.449V390.841H542.125ZM528.096 400.38V392.108H536.561V393.505H529.772V398.962C533.607 398.962 535.787 398.844 538.344 398.317L538.559 399.714C535.873 400.251 533.596 400.38 529.578 400.38H528.096ZM530.029 409.618V402.056H531.705V404.44H540.449V402.056H542.125V409.618H530.029ZM531.705 408.222H540.449V405.794H531.705V408.222ZM560.699 390.776V395.417H563.599V396.813H560.699V401.347H559.023V390.776H560.699ZM545.81 393.935V392.581H550.666V390.647H552.341V392.581H557.197V393.935H545.81ZM546.906 397.931C546.895 395.997 548.721 394.805 551.503 394.794C554.275 394.805 556.08 395.997 556.101 397.931C556.08 399.875 554.275 401.057 551.503 401.067C548.721 401.057 546.895 399.875 546.906 397.931ZM548.517 403.603V402.335H560.699V406.567H550.214V408.437H561.408V409.726H548.56V405.321H559.023V403.603H548.517ZM548.517 397.931C548.506 399.08 549.688 399.8 551.503 399.8C553.308 399.8 554.49 399.08 554.511 397.931C554.49 396.792 553.308 396.051 551.503 396.04C549.688 396.051 548.506 396.792 548.517 397.931ZM576.662 400.917V404.44C578.51 404.344 580.379 404.193 582.141 403.925L582.27 405.171C577.898 405.966 573.203 405.998 569.766 405.987L569.53 404.591C571.13 404.58 573.021 404.569 575.008 404.505V400.917H576.662ZM570.11 400.251C572.935 399.413 574.922 397.318 574.965 394.751H570.582V393.354H575.008V390.991H576.662V393.354H581.153V394.751H576.662C576.716 397.211 578.757 399.23 581.582 400.036L580.787 401.368C578.499 400.681 576.695 399.209 575.835 397.275C575.008 399.316 573.225 400.842 570.926 401.54L570.11 400.251ZM583.409 409.983V390.841H585.084V409.983H583.409ZM603.314 392.774V394.687C603.293 397.028 603.293 399.649 602.605 403.495L600.887 403.302C601.606 399.649 601.606 396.975 601.617 394.687V394.171H589.844V392.774H603.314ZM587.996 407.233V405.837H594.828V399.005H596.482V405.837H605.398V407.233H587.996ZM612.822 392.237C615.819 392.248 617.946 394.074 617.956 396.728C617.946 399.392 615.819 401.207 612.822 401.218C609.803 401.207 607.655 399.392 607.665 396.728C607.655 394.074 609.803 392.248 612.822 392.237ZM606.677 404.333C610.2 404.344 615.067 404.312 619.288 403.688L619.417 404.935C615.045 405.751 610.351 405.772 606.913 405.772L606.677 404.333ZM609.32 396.728C609.309 398.511 610.781 399.735 612.822 399.735C614.841 399.735 616.313 398.511 616.302 396.728C616.313 394.955 614.841 393.72 612.822 393.72C610.781 393.72 609.309 394.955 609.32 396.728ZM620.556 409.983V390.841H622.232V409.983H620.556ZM56.6074 426.841V436.616H54.9102V434.618H49.8184V433.286H54.9102V430.987H50.0977C48.9053 433.995 45.9404 436.025 41.6973 437.046L41.0957 435.649C45.7793 434.564 48.4971 432.287 48.8193 429.204H42.0625V427.808H50.6777C50.6777 428.441 50.6133 429.054 50.4951 429.634H54.9102V426.841H56.6074ZM44.2324 438.851V437.476H56.6074V442.138H45.9512V444.372H57.252V445.769H44.2754V440.849H54.9102V438.851H44.2324ZM69.9389 428.968V429.956C69.9282 431.471 69.9282 433.995 69.3803 437.54L67.683 437.39C68.2094 434.188 68.2524 431.868 68.2416 430.343H60.228V428.968H69.9389ZM59.1537 440.333C60.4106 440.322 61.8071 440.312 63.2787 440.279V434.425H64.933V440.226C67.0493 440.15 69.2192 440.011 71.2065 439.774L71.2924 441.042C67.2748 441.665 62.7846 441.751 59.3686 441.729L59.1537 440.333ZM72.4096 445.94V426.841H74.0854V434.833H77.1791V436.294H74.0854V445.94H72.4096ZM95.3231 434.919V436.294H87.4384V438.185H93.0887V442.46H81.745V444.394H93.6688V445.726H80.0692V441.192H91.4345V439.495H80.0262V438.185H85.7626V436.294H77.9208V434.919H95.3231ZM80.1766 433.308V427.485H93.0673V433.308H80.1766ZM81.8524 431.954H91.3915V428.839H81.8524V431.954ZM105.196 427.185C109.439 427.185 111.931 428.355 111.942 430.472C111.931 432.642 109.439 433.812 105.196 433.823C100.931 433.812 98.428 432.642 98.428 430.472C98.428 428.355 100.931 427.185 105.196 427.185ZM96.4945 436.487V435.112H113.897V436.487H96.4945ZM98.5999 439.431V438.142H111.662V442.417H100.319V444.394H112.243V445.726H98.6429V441.171H110.008V439.431H98.5999ZM100.19 430.472C100.168 431.804 102.027 432.534 105.196 432.534C108.365 432.534 110.212 431.804 110.223 430.472C110.212 429.215 108.365 428.463 105.196 428.452C102.027 428.463 100.168 429.215 100.19 430.472ZM135.575 435.8V437.175H129.667V442.116H137.638V443.534H120.15V442.116H128.013V437.175H122.384V428.409H135.382V429.784H124.081V435.8H135.575ZM156.126 435.349V436.659H148.241V438.442H153.891V442.567H142.548V444.437H154.471V445.726H140.872V441.364H152.237V439.71H140.829V438.442H146.587V436.659H138.745V435.349H156.126ZM139.669 433.179C143.171 432.953 146.157 431.761 146.468 429.849H140.528V428.517H146.587V426.733H148.241V428.517H154.364V429.849H148.37C148.671 431.761 151.657 432.953 155.18 433.179L154.665 434.468C151.474 434.199 148.595 433.211 147.424 431.396C146.243 433.211 143.364 434.199 140.163 434.468L139.669 433.179ZM172.229 426.841V431.739H175.107V433.179H172.229V437.948H170.553V426.841H172.229ZM157.34 430.214V428.817H162.195V426.669H163.871V428.817H168.727V430.214H157.34ZM158.436 434.446C158.425 432.405 160.262 431.105 163.033 431.095C165.773 431.105 167.609 432.405 167.631 434.446C167.609 436.487 165.773 437.809 163.033 437.798C160.262 437.809 158.425 436.487 158.436 434.446ZM160.047 434.446C160.036 435.692 161.229 436.509 163.033 436.509C164.816 436.509 166.02 435.692 166.041 434.446C166.02 433.211 164.816 432.384 163.033 432.405C161.229 432.384 160.036 433.211 160.047 434.446ZM160.154 445.683V438.786H161.83V440.827H170.553V438.786H172.229V445.683H160.154ZM161.83 444.329H170.553V442.159H161.83V444.329ZM191.619 426.841V445.94H189.943V426.841H191.619ZM177.117 441.021V428.731H178.771V439.56C181.693 439.538 184.701 439.312 187.902 438.636L188.138 440.075C184.744 440.784 181.725 441.021 178.664 441.021H177.117ZM209.226 426.841V434.403H212.427V435.821H209.226V445.983H207.55V426.841H209.226ZM195.282 441.192V428.71H204.198V430.106H196.958V439.774C200.417 439.764 202.855 439.613 205.702 439.087L205.917 440.548C202.92 441.085 200.417 441.192 196.786 441.192H195.282ZM215.038 444.329C214.286 444.318 213.641 443.695 213.663 442.933C213.641 442.181 214.286 441.558 215.038 441.558C215.8 441.558 216.423 442.181 216.413 442.933C216.423 443.695 215.8 444.318 215.038 444.329Z" fill="#1E1E1E"/>
<path d="M44.7695 493.614V496.042H54.2227V493.614H55.8984V501.241H50.3125V503.282H58.1758V504.679H40.7734V503.282H48.6367V501.241H43.0938V493.614H44.7695ZM43.0293 511.532V506.204H44.7266V510.114H56.2422V511.532H43.0293ZM44.7695 499.888H54.2227V497.374H44.7695V499.888ZM65.7495 497.976C65.7495 501.338 67.9731 504.808 70.6909 506.14L69.6596 507.493C67.5541 506.397 65.7924 504.131 64.9438 501.478C64.0952 504.292 62.2905 506.709 60.142 507.858L59.0678 506.505C61.8608 505.13 64.0737 501.467 64.0952 497.976V494.495H65.7495V497.976ZM72.4526 511.94V492.841H74.1284V500.597H77.3295V502.058H74.1284V511.94H72.4526ZM93.368 498.642V499.995H80.2841V493.55H81.9598V498.642H93.368ZM77.8993 503.97V502.595H95.3876V503.97H77.8993ZM80.1766 511.468V505.925H81.8524V510.071H93.4755V511.468H80.1766ZM106.689 494.323C109.504 494.334 111.502 496.923 111.523 500.983C111.502 505.055 109.504 507.633 106.689 507.622C103.853 507.633 101.866 505.055 101.877 500.983C101.866 496.923 103.853 494.334 106.689 494.323ZM103.467 500.983C103.477 504.088 104.799 506.129 106.689 506.118C108.601 506.129 109.89 504.088 109.89 500.983C109.89 497.879 108.601 495.838 106.689 495.827C104.799 495.838 103.477 497.879 103.467 500.983ZM114.681 511.94V492.841H116.357V500.468H119.558V501.929H116.357V511.94H114.681ZM127.948 494.925V501.606H122.427V505.946C124.629 505.936 126.702 505.85 129.173 505.431L129.323 506.806C126.606 507.278 124.446 507.364 122.04 507.364H120.794V500.21H126.316V496.343H120.751V494.925H127.948ZM130.505 510.952V493.271H132.052V500.403H134.866V492.841H136.478V511.94H134.866V501.8H132.052V510.952H130.505ZM144.975 494.237C147.972 494.248 150.099 496.074 150.11 498.728C150.099 501.392 147.972 503.207 144.975 503.218C141.957 503.207 139.808 501.392 139.819 498.728C139.808 496.074 141.957 494.248 144.975 494.237ZM138.831 506.333C142.354 506.344 147.22 506.312 151.442 505.688L151.571 506.935C147.199 507.751 142.505 507.772 139.067 507.772L138.831 506.333ZM141.473 498.728C141.463 500.511 142.934 501.735 144.975 501.735C146.995 501.735 148.466 500.511 148.456 498.728C148.466 496.955 146.995 495.72 144.975 495.72C142.934 495.72 141.463 496.955 141.473 498.728ZM152.71 511.983V492.841H154.385V511.983H152.71ZM169.017 496.364C169.017 498.846 170.929 501.22 173.722 502.187L172.841 503.519C170.693 502.745 169.028 501.145 168.211 499.179C167.384 501.37 165.612 503.132 163.345 503.97L162.464 502.638C165.279 501.628 167.32 499.082 167.32 496.386V495.548H163.001V494.173H173.293V495.548H169.017V496.364ZM165.365 506.698V505.302H178.212V511.94H176.515V506.698H165.365ZM172.691 499.265V497.847H176.515V492.841H178.212V504.292H176.515V499.265H172.691ZM191.028 494.151C191.028 494.893 190.942 495.602 190.792 496.278H195.089V492.862H196.786V504.249H195.089V501.714H190.019V500.317H195.089V497.675H190.33C189.041 500.683 186.044 502.863 181.919 503.991L181.253 502.638C185.915 501.349 188.869 498.792 189.213 495.526H182.22V494.151H191.028ZM183.938 506.44V505.087H196.786V511.919H195.089V506.44H183.938ZM206.1 495.849C206.079 498.577 208.023 500.973 210.827 501.929L209.881 503.239C207.776 502.455 206.121 500.897 205.294 498.889C204.478 501.177 202.738 502.949 200.428 503.819L199.504 502.444C202.448 501.413 204.403 498.878 204.424 495.913V493.937H206.1V495.849ZM202.62 508.331C202.609 506.032 205.047 504.711 209.022 504.722C212.986 504.711 215.424 506.032 215.424 508.331C215.424 510.608 212.986 511.897 209.022 511.897C205.047 511.897 202.609 510.608 202.62 508.331ZM204.295 508.331C204.285 509.717 206.089 510.555 209.022 510.544C211.944 510.555 213.748 509.717 213.748 508.331C213.748 506.902 211.944 506.054 209.022 506.054C206.089 506.054 204.285 506.902 204.295 508.331ZM209.409 498.341V496.944H213.663V492.841H215.36V504.163H213.663V498.341H209.409ZM233.902 494.302V495.698H231.947V501.811C232.827 501.746 233.698 501.671 234.525 501.563L234.611 502.853C230.883 503.422 226.543 503.486 223.439 503.476L223.224 502.058C223.987 502.058 224.814 502.058 225.695 502.047V495.698H223.761V494.302H233.902ZM226.275 508.46C226.264 506.279 228.681 505.033 232.677 505.044C236.673 505.033 239.079 506.279 239.079 508.46C239.079 510.641 236.673 511.897 232.677 511.897C228.681 511.897 226.264 510.641 226.275 508.46ZM227.327 502.015C228.305 501.993 229.315 501.961 230.314 501.907V495.698H227.327V502.015ZM227.95 508.46C227.94 509.792 229.734 510.565 232.677 510.565C235.61 510.565 237.404 509.792 237.404 508.46C237.404 507.149 235.61 506.354 232.677 506.354C229.734 506.354 227.94 507.149 227.95 508.46ZM234.095 501.091V499.694H237.318V497.675H234.095V496.278H237.318V492.841H239.015V504.636H237.318V501.091H234.095ZM256.536 492.841V500.618H259.63V502.036H256.536V511.94H254.86V492.841H256.536ZM241.884 506.978C246.814 504.528 249.5 500.844 249.886 496.321H242.764V494.903H251.594C251.584 500.307 249.049 505.237 242.829 508.31L241.884 506.978ZM277.795 501.714V503.046H260.307V501.714H277.795ZM262.412 505.839V504.571H275.604V508.632H264.131V510.458H276.227V511.683H262.434V507.472H273.928V505.839H262.412ZM262.52 494.646V493.421H275.539V497.374H264.26V499.05H275.883V500.274H262.584V496.214H273.842V494.646H262.52ZM290.858 496.944C290.869 499.522 292.899 501.843 295.757 502.745L294.898 504.099C292.674 503.336 290.912 501.768 290.042 499.759C289.215 501.929 287.421 503.647 285.144 504.485L284.263 503.132C287.131 502.133 289.15 499.651 289.161 496.944V495.827H284.692V494.452H295.263V495.827H290.858V496.944ZM287.421 511.532V505.538H289.097V510.114H300.355V511.532H287.421ZM298.077 506.87V492.862H299.753V506.87H298.077ZM318.778 492.841V504.937H317.166V499.458H314.61V504.249H313.02V493.228H314.61V498.062H317.166V492.841H318.778ZM302.45 496.493V495.14H306.532V492.991H308.207V495.14H312.247V496.493H302.45ZM303.288 500.79C303.277 498.792 304.963 497.514 307.37 497.524C309.787 497.514 311.462 498.792 311.473 500.79C311.462 502.756 309.787 504.034 307.37 504.034C304.963 504.034 303.277 502.756 303.288 500.79ZM304.791 500.79C304.791 501.961 305.844 502.767 307.37 502.767C308.895 502.767 309.948 501.961 309.948 500.79C309.948 499.576 308.895 498.771 307.37 498.771C305.844 498.771 304.791 499.576 304.791 500.79ZM306.059 508.61C306.038 506.462 308.433 505.259 312.461 505.259C316.479 505.259 318.874 506.462 318.885 508.61C318.874 510.705 316.479 511.897 312.461 511.897C308.433 511.897 306.038 510.705 306.059 508.61ZM307.735 508.61C307.713 509.846 309.486 510.598 312.461 510.587C315.426 510.598 317.188 509.846 317.209 508.61C317.188 507.3 315.426 506.569 312.461 506.591C309.486 506.569 307.713 507.3 307.735 508.61ZM336.062 492.841V497.739H338.941V499.179H336.062V503.948H334.387V492.841H336.062ZM321.174 496.214V494.817H326.029V492.669H327.705V494.817H332.56V496.214H321.174ZM322.269 500.446C322.259 498.405 324.096 497.105 326.867 497.095C329.606 497.105 331.443 498.405 331.465 500.446C331.443 502.487 329.606 503.809 326.867 503.798C324.096 503.809 322.259 502.487 322.269 500.446ZM323.881 500.446C323.87 501.692 325.062 502.509 326.867 502.509C328.65 502.509 329.853 501.692 329.875 500.446C329.853 499.211 328.65 498.384 326.867 498.405C325.062 498.384 323.87 499.211 323.881 500.446ZM323.988 511.683V504.786H325.664V506.827H334.387V504.786H336.062V511.683H323.988ZM325.664 510.329H334.387V508.159H325.664V510.329ZM355.453 492.841V511.94H353.777V492.841H355.453ZM340.951 507.021V494.731H342.605V505.56C345.527 505.538 348.535 505.312 351.736 504.636L351.972 506.075C348.578 506.784 345.559 507.021 342.497 507.021H340.951ZM373.059 492.841V500.403H376.261V501.821H373.059V511.983H371.384V492.841H373.059ZM359.116 507.192V494.71H368.032V496.106H360.792V505.774C364.251 505.764 366.689 505.613 369.536 505.087L369.751 506.548C366.754 507.085 364.251 507.192 360.62 507.192H359.116ZM378.871 510.329C378.119 510.318 377.475 509.695 377.496 508.933C377.475 508.181 378.119 507.558 378.871 507.558C379.634 507.558 380.257 508.181 380.246 508.933C380.257 509.695 379.634 510.318 378.871 510.329Z" fill="#1E1E1E"/>
<defs>
<linearGradient id="paint0_linear_763_93" x1="120" y1="160.8" x2="600" y2="160.799" gradientUnits="userSpaceOnUse">
<stop stop-color="#00F3C7"/>
<stop offset="0.29" stop-color="#42C8FF"/>
<stop offset="1" stop-color="#7737FF"/>
</linearGradient>
</defs>
</svg>
