<svg width="720" height="94" viewBox="0 0 720 94" fill="none" xmlns="http://www.w3.org/2000/svg">
<rect width="720" height="94" fill="white"/>
<rect x="94.4004" y="11.5249" width="544.142" height="70.4" rx="19.2" fill="white" fill-opacity="0.1"/>
<path d="M120.208 54.7249V38.4349H126.44C129.973 38.4349 131.716 40.2349 131.728 42.6649C131.716 44.6449 130.468 45.7474 128.87 46.1299V46.2874C130.603 46.3774 132.358 47.8174 132.358 50.2924C132.358 52.8236 130.524 54.7249 126.8 54.7249H120.208ZM123.133 52.2724H126.35C128.488 52.2724 129.376 51.3611 129.388 50.0674C129.376 48.6049 128.24 47.4911 126.418 47.4799H123.133V52.2724ZM123.133 45.3649H126.08C127.621 45.3649 128.791 44.4761 128.803 43.0249C128.791 41.7761 127.891 40.8649 126.148 40.8649H123.133V45.3649ZM134.147 54.7249V42.5074H137.027V54.7249H134.147ZM133.944 39.1999C133.944 38.3449 134.698 37.6474 135.609 37.6474C136.521 37.6474 137.274 38.3449 137.274 39.1999C137.274 40.0661 136.521 40.7636 135.609 40.7749C134.698 40.7636 133.944 40.0661 133.944 39.1999ZM144.644 54.9724C141.077 54.9724 138.794 52.4411 138.794 48.6724C138.794 44.8699 141.077 42.3499 144.644 42.3499C148.221 42.3499 150.505 44.8699 150.494 48.6724C150.505 52.4411 148.221 54.9724 144.644 54.9724ZM141.696 48.6499C141.696 50.8886 142.675 52.6774 144.666 52.6774C146.624 52.6774 147.602 50.8886 147.591 48.6499C147.602 46.4111 146.624 44.6111 144.666 44.6224C142.675 44.6111 141.696 46.4111 141.696 48.6499ZM155.14 38.4349V54.7249H152.26V38.4349H155.14ZM162.757 54.9724C159.191 54.9724 156.907 52.4411 156.907 48.6724C156.907 44.8699 159.191 42.3499 162.757 42.3499C166.334 42.3499 168.618 44.8699 168.607 48.6724C168.618 52.4411 166.334 54.9724 162.757 54.9724ZM159.809 48.6499C159.809 50.8886 160.788 52.6774 162.779 52.6774C164.737 52.6774 165.716 50.8886 165.704 48.6499C165.716 46.4111 164.737 44.6111 162.779 44.6224C160.788 44.6111 159.809 46.4111 159.809 48.6499ZM175.706 59.5624C172.466 59.5624 170.407 58.1224 170.216 55.8274H173.074C173.276 56.8961 174.277 57.3911 175.751 57.4024C177.472 57.3911 178.586 56.6486 178.586 54.8599V52.5199H178.451C178.001 53.4199 177.022 54.5449 174.919 54.5449C172.095 54.5449 169.879 52.4974 169.879 48.5149C169.879 44.4986 172.106 42.3499 174.941 42.3499C177.09 42.3499 178.001 43.6436 178.451 44.5099H178.586V42.5074H181.421V54.9274C181.421 58.0549 179.002 59.5624 175.706 59.5624ZM172.804 48.5599C172.804 50.8099 173.816 52.2949 175.706 52.2949C177.562 52.2949 178.609 50.8999 178.609 48.5599C178.609 46.2311 177.574 44.7011 175.706 44.6899C173.794 44.7011 172.804 46.3324 172.804 48.5599ZM183.705 54.7249V42.5074H186.585V54.7249H183.705ZM183.503 39.1999C183.503 38.3449 184.257 37.6474 185.168 37.6474C186.079 37.6474 186.833 38.3449 186.833 39.1999C186.833 40.0661 186.079 40.7636 185.168 40.7749C184.257 40.7636 183.503 40.0661 183.503 39.1999ZM194.202 54.9724C190.557 54.9724 188.352 52.3624 188.352 48.6724C188.352 44.9261 190.625 42.3499 194.202 42.3499C197.161 42.3499 199.242 44.0824 199.445 46.7149H196.7C196.475 45.5449 195.62 44.6561 194.225 44.6449C192.447 44.6561 191.255 46.1411 191.255 48.6049C191.255 51.1249 192.425 52.6211 194.225 52.6324C195.496 52.6211 196.441 51.8786 196.7 50.5624H199.445C199.231 53.1386 197.273 54.9724 194.202 54.9724ZM200.581 51.2824C200.581 48.5374 202.865 47.7386 205.126 47.5924C205.981 47.5249 207.725 47.4461 208.265 47.4236L208.254 46.4449C208.254 45.2299 207.478 44.5324 206.049 44.5324C204.766 44.5324 203.979 45.1174 203.754 45.9949H200.986C201.189 43.9136 203.056 42.3499 206.116 42.3499C208.434 42.3499 211.111 43.3061 211.111 46.5574V54.7249H208.366V53.0374H208.276C207.736 54.0724 206.6 54.9724 204.676 54.9724C202.348 54.9724 200.581 53.7011 200.581 51.2824ZM203.349 51.2599C203.349 52.3174 204.215 52.8574 205.419 52.8574C207.163 52.8574 208.276 51.7099 208.276 50.3374L208.265 49.3361C207.748 49.3586 206.15 49.4599 205.576 49.5049C204.215 49.6174 203.349 50.1911 203.349 51.2599ZM216.23 38.4349V54.7249H213.35V38.4349H216.23ZM226.581 38.4349V54.7249H223.656V38.4349H226.581ZM231.903 47.5699V54.7249H229.023V42.5074H231.768V44.5774H231.926C232.477 43.2161 233.726 42.3499 235.548 42.3499C238.079 42.3499 239.744 44.0149 239.733 46.9399V54.7249H236.876V47.3899C236.876 45.7474 235.987 44.7686 234.491 44.7799C232.972 44.7686 231.903 45.7924 231.903 47.5699ZM246.562 54.9499C243.694 54.9386 241.522 52.6436 241.522 48.6274C241.522 44.5549 243.75 42.3499 246.585 42.3499C248.734 42.3499 249.634 43.6436 250.072 44.5099H250.185V38.4349H253.042V54.7249H250.23V52.7899H250.072C249.611 53.6899 248.677 54.9386 246.562 54.9499ZM244.447 48.6049C244.447 50.9111 245.46 52.5874 247.35 52.5874C249.206 52.5874 250.252 50.9899 250.252 48.6049C250.252 46.2311 249.217 44.7011 247.35 44.6899C245.437 44.7011 244.447 46.3324 244.447 48.6049ZM255.484 54.7249V42.5074H258.364V54.7249H255.484ZM255.281 39.1999C255.281 38.3449 256.035 37.6474 256.946 37.6474C257.858 37.6474 258.611 38.3449 258.611 39.1999C258.611 40.0661 257.858 40.7636 256.946 40.7749C256.035 40.7636 255.281 40.0661 255.281 39.1999ZM265.981 54.9724C262.336 54.9724 260.131 52.3624 260.131 48.6724C260.131 44.9261 262.403 42.3499 265.981 42.3499C268.939 42.3499 271.021 44.0824 271.223 46.7149H268.478C268.253 45.5449 267.398 44.6561 266.003 44.6449C264.226 44.6561 263.033 46.1411 263.033 48.6049C263.033 51.1249 264.203 52.6211 266.003 52.6324C267.274 52.6211 268.219 51.8786 268.478 50.5624H271.223C271.009 53.1386 269.052 54.9724 265.981 54.9724ZM272.36 51.2824C272.36 48.5374 274.644 47.7386 276.905 47.5924C277.76 47.5249 279.504 47.4461 280.044 47.4236L280.032 46.4449C280.032 45.2299 279.256 44.5324 277.827 44.5324C276.545 44.5324 275.757 45.1174 275.532 45.9949H272.765C272.967 43.9136 274.835 42.3499 277.895 42.3499C280.212 42.3499 282.89 43.3061 282.89 46.5574V54.7249H280.145V53.0374H280.055C279.515 54.0724 278.379 54.9724 276.455 54.9724C274.126 54.9724 272.36 53.7011 272.36 51.2824ZM275.127 51.2599C275.127 52.3174 275.994 52.8574 277.197 52.8574C278.941 52.8574 280.055 51.7099 280.055 50.3374L280.044 49.3361C279.526 49.3586 277.929 49.4599 277.355 49.5049C275.994 49.6174 275.127 50.1911 275.127 51.2599ZM291.227 42.5074V44.7124H288.819V51.0574C288.819 52.2274 289.404 52.4636 290.124 52.4749C290.462 52.4861 291.024 52.4524 291.384 52.4299V54.7699C291.047 54.8261 290.495 54.8936 289.764 54.8824C287.604 54.8936 285.939 53.8249 285.962 51.5299V44.7124H284.207V42.5074H285.962V39.5824H288.819V42.5074H291.227ZM298.168 54.9724C294.602 54.9724 292.318 52.4411 292.318 48.6724C292.318 44.8699 294.602 42.3499 298.168 42.3499C301.746 42.3499 304.03 44.8699 304.018 48.6724C304.03 52.4411 301.746 54.9724 298.168 54.9724ZM295.221 48.6499C295.221 50.8886 296.2 52.6774 298.191 52.6774C300.148 52.6774 301.127 50.8886 301.116 48.6499C301.127 46.4111 300.148 44.6111 298.191 44.6224C296.2 44.6111 295.221 46.4111 295.221 48.6499ZM305.785 54.7249V42.5074H308.575V44.5324H308.71C309.149 43.1261 310.319 42.3274 311.725 42.3274C312.04 42.3274 312.49 42.3611 312.76 42.3949V45.0499C312.501 44.9599 311.905 44.8811 311.433 44.8699C309.835 44.8811 308.665 45.9836 308.665 47.5249V54.7249H305.785ZM320.939 45.9949C320.759 45.0724 319.994 44.4761 318.779 44.4874C317.553 44.4761 316.653 45.0949 316.664 45.9274C316.653 46.5574 317.159 47.0299 318.397 47.3224L320.467 47.7499C322.773 48.2561 323.898 49.3249 323.909 51.0799C323.898 53.3749 321.884 54.9724 318.689 54.9724C315.584 54.9724 313.75 53.5774 313.447 51.2374H316.372C316.54 52.2836 317.35 52.8011 318.689 52.7899C320.073 52.8011 320.973 52.2386 320.984 51.3274C320.973 50.6186 320.422 50.1686 319.207 49.9099L317.249 49.4824C314.977 49.0211 313.795 47.8286 313.807 46.0849C313.795 43.8236 315.753 42.3499 318.734 42.3499C321.648 42.3499 323.448 43.7786 323.662 45.9949H320.939ZM343.361 45.8374V47.2324H325.046V45.8374H343.361ZM327.251 50.1574V48.8299H341.066V53.0824H329.051V54.9949H341.718V56.2774H327.273V51.8674H339.311V50.1574H327.251ZM327.363 38.4349V37.1524H340.998V41.2924H329.186V43.0474H341.358V44.3299H327.431V40.0774H339.221V38.4349H327.363ZM368.067 47.1649V48.6049H349.819V47.1649H358.054V45.1849H352.249V37.1299H365.794V38.5699H354.027V40.4374H365.254V41.7874H354.027V43.7674H365.907V45.1849H359.809V47.1649H368.067ZM352.047 53.3074C352.036 51.2261 354.522 50.0899 358.954 50.1124C363.342 50.0899 365.817 51.2261 365.839 53.3074C365.817 55.4111 363.342 56.5024 358.954 56.5024C354.522 56.5024 352.036 55.4111 352.047 53.3074ZM353.824 53.3074C353.802 54.5224 355.647 55.1524 358.954 55.1299C362.228 55.1524 364.051 54.5224 364.062 53.3074C364.051 52.1149 362.228 51.4511 358.954 51.4399C355.647 51.4511 353.802 52.1149 353.824 53.3074ZM384.931 36.5674V43.1599H387.946V44.6449H384.931V51.5524H383.176V36.5674H384.931ZM369.339 40.4599V39.0199H374.424V36.5674H376.179V39.0199H381.264V40.4599H369.339ZM370.486 45.2974C370.475 43.0249 372.41 41.5624 375.301 41.5624C378.159 41.5624 380.094 43.0249 380.116 45.2974C380.094 47.5474 378.159 48.9986 375.301 48.9874C372.41 48.9986 370.475 47.5474 370.486 45.2974ZM372.174 45.2974C372.162 46.7036 373.411 47.6149 375.301 47.5924C377.169 47.6149 378.429 46.7036 378.451 45.2974C378.429 43.8686 377.169 42.9461 375.301 42.9574C373.411 42.9461 372.162 43.8686 372.174 45.2974ZM372.421 56.1199V50.3599H374.154V54.6349H385.854V56.1199H372.421ZM398.072 54.7249L393.617 38.4349H395.664L399.062 51.6199H399.219L402.662 38.4349H404.934L408.399 51.6199H408.534L411.932 38.4349H413.979L409.524 54.7249H407.432L403.877 41.8324H403.742L400.164 54.7249H398.072ZM419.256 54.9724C415.926 54.9836 413.676 52.4636 413.676 48.6724C413.676 44.8586 415.926 42.3499 419.256 42.3499C422.575 42.3499 424.802 44.8586 424.791 48.6724C424.802 52.4636 422.575 54.9836 419.256 54.9724ZM415.611 48.6724C415.622 51.1136 416.77 53.2624 419.256 53.2624C421.72 53.2624 422.856 51.1136 422.856 48.6724C422.856 46.2424 421.72 44.0599 419.256 44.0599C416.77 44.0599 415.622 46.2424 415.611 48.6724ZM426.873 54.7249V42.5074H428.74V44.3749H428.875C429.314 43.1374 430.585 42.3161 432.025 42.3049C432.318 42.3161 432.813 42.3274 433.038 42.3499V44.3074C432.892 44.2736 432.374 44.1724 431.868 44.1724C430.113 44.1724 428.808 45.3874 428.808 47.0299V54.7249H426.873ZM441.262 45.6799C440.992 44.6674 440.216 44.0036 438.787 43.9924C437.28 44.0036 436.211 44.8136 436.2 45.8374C436.211 46.6474 436.863 47.1986 438.292 47.5474L440.115 47.9974C442.297 48.5149 443.366 49.6061 443.377 51.3049C443.366 53.4199 441.645 54.9836 438.585 54.9724C435.84 54.9836 434.208 53.7574 433.882 51.5299H435.907C436.132 52.7224 436.998 53.2961 438.54 53.2849C440.283 53.2961 441.375 52.5649 441.375 51.4174C441.375 50.5511 440.756 49.9886 439.372 49.6624L437.527 49.2349C435.401 48.7399 434.265 47.5811 434.265 45.9499C434.265 43.8574 436.098 42.3499 438.787 42.3499C441.318 42.3499 442.905 43.6999 443.152 45.6799H441.262ZM450.769 42.5074V44.1274H448.204V51.2149C448.192 52.7786 448.98 53.0374 449.801 53.0374C450.15 53.0374 450.667 53.0036 450.949 52.9924V54.7924C450.645 54.8374 450.172 54.8824 449.599 54.8824C447.967 54.8824 446.257 53.8699 446.246 51.7099V44.1274H444.401V42.5074H446.246V39.5824H448.204V42.5074H450.769ZM458.375 54.7249V38.4349H463.91C467.723 38.4349 469.467 40.7074 469.467 43.6099C469.467 46.5011 467.723 48.8074 463.932 48.8074H460.4V54.7249H458.375ZM460.4 47.0074H463.842C466.441 47.0074 467.453 45.5449 467.465 43.6099C467.453 41.6636 466.441 40.2349 463.82 40.2349H460.4V47.0074ZM476.454 54.9724C473.124 54.9836 470.874 52.4636 470.874 48.6724C470.874 44.8586 473.124 42.3499 476.454 42.3499C479.773 42.3499 482 44.8586 481.989 48.6724C482 52.4636 479.773 54.9836 476.454 54.9724ZM472.809 48.6724C472.82 51.1136 473.968 53.2624 476.454 53.2624C478.918 53.2624 480.054 51.1136 480.054 48.6724C480.054 46.2424 478.918 44.0599 476.454 44.0599C473.968 44.0599 472.82 46.2424 472.809 48.6724ZM490.866 45.6799C490.596 44.6674 489.819 44.0036 488.391 43.9924C486.883 44.0036 485.814 44.8136 485.803 45.8374C485.814 46.6474 486.467 47.1986 487.896 47.5474L489.718 47.9974C491.901 48.5149 492.969 49.6061 492.981 51.3049C492.969 53.4199 491.248 54.9836 488.188 54.9724C485.443 54.9836 483.812 53.7574 483.486 51.5299H485.511C485.736 52.7224 486.602 53.2961 488.143 53.2849C489.887 53.2961 490.978 52.5649 490.978 51.4174C490.978 50.5511 490.359 49.9886 488.976 49.6624L487.131 49.2349C485.004 48.7399 483.868 47.5811 483.868 45.9499C483.868 43.8574 485.702 42.3499 488.391 42.3499C490.922 42.3499 492.508 43.6999 492.756 45.6799H490.866ZM495.04 54.7249V42.5074H496.975V54.7249H495.04ZM494.657 39.1999C494.646 38.4799 495.265 37.9061 496.007 37.9174C496.75 37.9061 497.368 38.4799 497.38 39.1999C497.368 39.9086 496.75 40.4824 496.007 40.4824C495.265 40.4824 494.646 39.9086 494.657 39.1999ZM504.929 42.5074V44.1274H502.364V51.2149C502.353 52.7786 503.14 53.0374 503.961 53.0374C504.31 53.0374 504.828 53.0036 505.109 52.9924V54.7924C504.805 54.8374 504.333 54.8824 503.759 54.8824C502.128 54.8824 500.418 53.8699 500.406 51.7099V44.1274H498.561V42.5074H500.406V39.5824H502.364V42.5074H504.929ZM506.966 54.7249V42.5074H508.901V54.7249H506.966ZM506.583 39.1999C506.572 38.4799 507.191 37.9061 507.933 37.9174C508.676 37.9061 509.294 38.4799 509.306 39.1999C509.294 39.9086 508.676 40.4824 507.933 40.4824C507.191 40.4824 506.572 39.9086 506.583 39.1999ZM516.517 54.9724C513.187 54.9836 510.937 52.4636 510.937 48.6724C510.937 44.8586 513.187 42.3499 516.517 42.3499C519.836 42.3499 522.064 44.8586 522.052 48.6724C522.064 52.4636 519.836 54.9836 516.517 54.9724ZM512.872 48.6724C512.884 51.1136 514.031 53.2624 516.517 53.2624C518.981 53.2624 520.117 51.1136 520.117 48.6724C520.117 46.2424 518.981 44.0599 516.517 44.0599C514.031 44.0599 512.884 46.2424 512.872 48.6724ZM526.069 47.3899V54.7249H524.134V42.5074H526.002V44.4199H526.159C526.733 43.1711 527.88 42.3499 529.737 42.3499C532.212 42.3499 533.865 43.8574 533.854 46.9624V54.7249H531.919V47.0974C531.919 45.2074 530.884 44.0824 529.152 44.0824C527.374 44.0824 526.069 45.2749 526.069 47.3899ZM547.917 40.3249C547.917 43.1149 549.942 45.7474 552.867 46.8049L551.877 48.1774C549.684 47.3111 547.929 45.5786 547.074 43.3961C546.23 45.8149 544.407 47.7274 542.045 48.6724L541.1 47.2324C544.104 46.1299 546.174 43.3286 546.185 40.2574V37.7824H547.917V40.3249ZM544.722 56.1199V49.8424H546.5V54.6349H558.11V56.1199H544.722ZM551.427 42.7549V41.2699H555.882V36.5674H557.66V51.5524H555.882V42.7549H551.427ZM577.112 36.5449V48.4699H575.334V43.2274H571.307V41.7649H575.334V36.5449H577.112ZM560.619 46.8724C563.589 45.8036 565.704 43.0924 565.704 40.2349V39.4924H561.182V38.0074H571.959V39.4924H567.482V40.2124C567.482 42.8224 569.484 45.3086 572.409 46.3099L571.487 47.7274C569.248 46.9174 567.504 45.2299 566.638 43.1711C565.783 45.5111 563.927 47.3786 561.542 48.2899L560.619 46.8724ZM563.769 52.8124C563.758 50.4611 566.312 49.0886 570.474 49.0999C574.625 49.0886 577.179 50.4611 577.179 52.8124C577.179 55.1749 574.625 56.5249 570.474 56.5474C566.312 56.5249 563.758 55.1749 563.769 52.8124ZM565.524 52.8124C565.513 54.2636 567.403 55.1411 570.474 55.1299C573.534 55.1411 575.424 54.2636 575.424 52.8124C575.424 51.3499 573.534 50.4724 570.474 50.4724C567.403 50.4724 565.513 51.3499 565.524 52.8124Z" fill="#7737FF"/>
<path d="M599.962 51.8067C600.918 52.9052 602.625 52.9052 603.581 51.8067L610.78 43.5412C612.132 41.9882 611.029 39.565 608.97 39.565H594.573C592.514 39.565 591.411 41.9882 592.763 43.5412L599.962 51.8067Z" fill="#7737FF"/>
<rect x="40" y="19.5249" width="54.4" height="54.4" rx="12.8" fill="#7737FF"/>
<path d="M63.0727 42.9124C62.9264 41.5061 61.7452 40.6961 59.9902 40.7074C58.1339 40.6961 57.0314 41.5961 57.0202 42.8224C57.0089 44.1949 58.4602 44.7574 59.8102 45.0724L61.3402 45.4774C63.7702 46.0399 66.1102 47.3224 66.1102 50.1574C66.1102 53.0149 63.8489 54.9724 59.9452 54.9724C56.1539 54.9724 53.7464 53.1499 53.6227 49.9324H56.5027C56.6377 51.6311 58.0664 52.4636 59.9227 52.4749C61.8464 52.4636 63.1739 51.5299 63.1852 50.1349C63.1739 48.8524 62.0039 48.3124 60.2377 47.8624L58.3927 47.3899C55.7152 46.6924 54.0502 45.3424 54.0502 43.0024C54.0502 40.1224 56.6039 38.2099 60.0352 38.2099C63.4889 38.2099 65.8402 40.1561 65.8852 42.9124H63.0727ZM67.6294 51.6874V49.3474L74.6719 38.4349H78.3169V49.2799H80.4544V51.6874H78.3169V54.7249H75.5269V51.6874H67.6294ZM70.6219 49.2799H75.5719V41.7649H75.3919L70.6219 49.1674V49.2799Z" fill="white"/>
</svg>
