<svg width="720" height="94" viewBox="0 0 720 94" fill="none" xmlns="http://www.w3.org/2000/svg">
<rect width="720" height="94" fill="white"/>
<rect x="94.4004" y="13" width="459.342" height="70.4" rx="19.2" fill="white" fill-opacity="0.1"/>
<path d="M135.963 37.8627V58.2027H133.443V37.8627H135.963ZM119.111 52.6002C124.443 50.0689 126.896 46.6264 127.346 42.0027H120.146V40.0227H129.888C129.888 46.0752 127.537 51.2164 120.416 54.6027L119.111 52.6002ZM156.99 49.8777V51.8352H152.512V58.2027H149.992V51.8352H145.425V58.2027H142.927V51.8352H138.405V49.8777H156.99ZM140.587 40.5852V38.5377H154.83V44.2302H143.152V46.1652H155.28V48.1902H140.632V42.3627H152.265V40.5852H140.587ZM180.436 37.8627V58.2027H178.028V47.8752H176.003V57.1677H173.641V38.2452H176.003V45.8277H178.028V37.8627H180.436ZM162.661 51.3402C163.223 51.3402 163.865 51.3402 164.551 51.3402V42.2952H163.066V40.2702H172.471V42.2952H171.008V51.0589C171.616 51.0139 172.19 50.9464 172.741 50.8677L172.876 52.6902C169.703 53.3427 165.507 53.4214 162.953 53.4102L162.661 51.3402ZM166.801 51.2952C167.442 51.2727 168.083 51.2502 168.736 51.2164V42.2952H166.801V51.2952ZM199.37 37.8852V52.9152H196.873V45.4677H193.228V43.4427H196.873V37.8852H199.37ZM183.328 50.0352V39.4377H192.575V41.4627H185.825V43.6677H191.968V45.6252H185.825V47.9652C189.043 47.9652 191.056 47.8752 193.43 47.4702L193.633 49.4727C191.011 49.9339 188.728 50.0352 184.88 50.0352H183.328ZM186.005 57.7977V51.6102H188.525V55.7727H199.888V57.7977H186.005ZM211.037 38.1777C215.672 38.1889 218.361 39.4152 218.372 41.6652C218.361 43.9377 215.672 45.1639 211.037 45.1752C206.413 45.1639 203.702 43.9377 203.702 41.6652C203.702 39.4152 206.413 38.1889 211.037 38.1777ZM201.789 48.2577V46.2552H220.329V48.2577H201.789ZM203.972 51.4752V49.6302H218.012V54.6027H206.447V56.1102H218.574V58.0227H203.994V52.8252H215.559V51.4752H203.972ZM206.334 41.6652C206.323 42.7902 207.943 43.3077 211.037 43.3077C214.176 43.3077 215.784 42.7902 215.784 41.6652C215.784 40.6189 214.176 40.0227 211.037 40.0227C207.943 40.0227 206.323 40.6189 206.334 41.6652ZM236.778 39.1002C236.766 44.3427 233.313 48.0214 227.395 49.6752L226.383 47.7177C230.939 46.4802 233.639 44.0952 234.1 41.1252H227.485V39.1002H236.778ZM229.893 57.9327V50.1477H243.28V57.9327H229.893ZM232.345 55.9527H240.805V52.1277H232.345V55.9527ZM236.868 44.9052V42.8577H240.783V37.8852H243.28V49.3377H240.783V44.9052H236.868ZM264.239 47.3352V49.3602H245.699V47.3352H264.239ZM246.599 44.4552C250.368 44.0839 252.821 42.5764 253.203 40.8777H247.387V38.8302H262.574V40.8777H256.702C257.073 42.5539 259.503 44.0839 263.362 44.4552L262.484 46.4352C258.783 46.0527 256.049 44.5789 254.947 42.5202C253.844 44.5789 251.144 46.0527 247.454 46.4352L246.599 44.4552ZM247.859 54.4452C247.859 52.0827 250.526 50.7102 254.947 50.7102C259.334 50.7102 261.978 52.0827 261.989 54.4452C261.978 56.8414 259.334 58.1802 254.947 58.1802C250.526 58.1802 247.859 56.8414 247.859 54.4452ZM250.402 54.4452C250.391 55.6264 251.988 56.2114 254.947 56.2227C257.861 56.2114 259.469 55.6264 259.492 54.4452C259.469 53.2639 257.861 52.6677 254.947 52.6677C251.988 52.6677 250.391 53.2639 250.402 54.4452ZM280.766 38.0202V46.2777H284.119V47.7402H280.766V58.0227H279.011V38.0202H280.766ZM265.174 42.7002V41.2377H270.326V38.2677H272.081V41.2377H277.076V42.7002H265.174ZM266.321 48.9552C266.31 46.2552 268.38 44.3652 271.226 44.3652C274.05 44.3652 276.109 46.2552 276.131 48.9552C276.109 51.6664 274.05 53.5452 271.226 53.5452C268.38 53.5452 266.31 51.6664 266.321 48.9552ZM268.009 48.9552C267.997 50.7777 269.359 52.0602 271.226 52.0377C273.071 52.0602 274.421 50.7777 274.444 48.9552C274.421 47.1439 273.071 45.8389 271.226 45.8502C269.359 45.8389 267.997 47.1439 268.009 48.9552ZM290.115 39.5727C291.949 39.5839 293.445 40.6527 294.312 42.4977H299.565V38.0202H301.32V58.0677H299.565V50.3052H294.435C293.603 52.3302 292.05 53.5114 290.115 53.5002C287.157 53.5114 285.087 50.8114 285.098 46.5477C285.087 42.2952 287.157 39.5839 290.115 39.5727ZM286.785 46.5477C286.797 49.7989 288.147 51.9364 290.115 51.9252C292.073 51.9364 293.445 49.7989 293.445 46.5477C293.445 43.2964 292.073 41.1589 290.115 41.1477C288.147 41.1589 286.797 43.2964 286.785 46.5477ZM294.818 43.9827C295.009 44.7589 295.11 45.6139 295.11 46.5477C295.11 47.3689 295.032 48.1452 294.885 48.8427H299.565V43.9827H294.818ZM313.516 56.2002L309.061 39.9102H311.109L314.506 53.0952H314.664L318.106 39.9102H320.379L323.844 53.0952H323.979L327.376 39.9102H329.424L324.969 56.2002H322.876L319.321 43.3077H319.186L315.609 56.2002H313.516ZM334.7 56.4477C331.37 56.4589 329.12 53.9389 329.12 50.1477C329.12 46.3339 331.37 43.8252 334.7 43.8252C338.019 43.8252 340.247 46.3339 340.235 50.1477C340.247 53.9389 338.019 56.4589 334.7 56.4477ZM331.055 50.1477C331.067 52.5889 332.214 54.7377 334.7 54.7377C337.164 54.7377 338.3 52.5889 338.3 50.1477C338.3 47.7177 337.164 45.5352 334.7 45.5352C332.214 45.5352 331.067 47.7177 331.055 50.1477ZM342.317 56.2002V43.9827H344.185V45.8502H344.32C344.758 44.6127 346.03 43.7914 347.47 43.7802C347.762 43.7914 348.257 43.8027 348.482 43.8252V45.7827C348.336 45.7489 347.818 45.6477 347.312 45.6477C345.557 45.6477 344.252 46.8627 344.252 48.5052V56.2002H342.317ZM356.706 47.1552C356.436 46.1427 355.66 45.4789 354.231 45.4677C352.724 45.4789 351.655 46.2889 351.644 47.3127C351.655 48.1227 352.308 48.6739 353.736 49.0227L355.559 49.4727C357.741 49.9902 358.81 51.0814 358.821 52.7802C358.81 54.8952 357.089 56.4589 354.029 56.4477C351.284 56.4589 349.653 55.2327 349.326 53.0052H351.351C351.576 54.1977 352.443 54.7714 353.984 54.7602C355.728 54.7714 356.819 54.0402 356.819 52.8927C356.819 52.0264 356.2 51.4639 354.816 51.1377L352.971 50.7102C350.845 50.2152 349.709 49.0564 349.709 47.4252C349.709 45.3327 351.543 43.8252 354.231 43.8252C356.763 43.8252 358.349 45.1752 358.596 47.1552H356.706ZM366.213 43.9827V45.6027H363.648V52.6902C363.637 54.2539 364.424 54.5127 365.245 54.5127C365.594 54.5127 366.112 54.4789 366.393 54.4677V56.2677C366.089 56.3127 365.617 56.3577 365.043 56.3577C363.412 56.3577 361.702 55.3452 361.69 53.1852V45.6027H359.845V43.9827H361.69V41.0577H363.648V43.9827H366.213ZM373.819 56.2002V39.9102H379.354C383.168 39.9102 384.911 42.1827 384.911 45.0852C384.911 47.9764 383.168 50.2827 379.376 50.2827H375.844V56.2002H373.819ZM375.844 48.4827H379.286C381.885 48.4827 382.898 47.0202 382.909 45.0852C382.898 43.1389 381.885 41.7102 379.264 41.7102H375.844V48.4827ZM391.898 56.4477C388.568 56.4589 386.318 53.9389 386.318 50.1477C386.318 46.3339 388.568 43.8252 391.898 43.8252C395.217 43.8252 397.444 46.3339 397.433 50.1477C397.444 53.9389 395.217 56.4589 391.898 56.4477ZM388.253 50.1477C388.264 52.5889 389.412 54.7377 391.898 54.7377C394.362 54.7377 395.498 52.5889 395.498 50.1477C395.498 47.7177 394.362 45.5352 391.898 45.5352C389.412 45.5352 388.264 47.7177 388.253 50.1477ZM406.31 47.1552C406.04 46.1427 405.264 45.4789 403.835 45.4677C402.327 45.4789 401.259 46.2889 401.247 47.3127C401.259 48.1227 401.911 48.6739 403.34 49.0227L405.162 49.4727C407.345 49.9902 408.414 51.0814 408.425 52.7802C408.414 54.8952 406.692 56.4589 403.632 56.4477C400.887 56.4589 399.256 55.2327 398.93 53.0052H400.955C401.18 54.1977 402.046 54.7714 403.587 54.7602C405.331 54.7714 406.422 54.0402 406.422 52.8927C406.422 52.0264 405.804 51.4639 404.42 51.1377L402.575 50.7102C400.449 50.2152 399.312 49.0564 399.312 47.4252C399.312 45.3327 401.146 43.8252 403.835 43.8252C406.366 43.8252 407.952 45.1752 408.2 47.1552H406.31ZM410.484 56.2002V43.9827H412.419V56.2002H410.484ZM410.101 40.6752C410.09 39.9552 410.709 39.3814 411.451 39.3927C412.194 39.3814 412.813 39.9552 412.824 40.6752C412.813 41.3839 412.194 41.9577 411.451 41.9577C410.709 41.9577 410.09 41.3839 410.101 40.6752ZM420.373 43.9827V45.6027H417.808V52.6902C417.797 54.2539 418.584 54.5127 419.406 54.5127C419.754 54.5127 420.272 54.4789 420.553 54.4677V56.2677C420.249 56.3127 419.777 56.3577 419.203 56.3577C417.572 56.3577 415.862 55.3452 415.851 53.1852V45.6027H414.006V43.9827H415.851V41.0577H417.808V43.9827H420.373ZM422.41 56.2002V43.9827H424.345V56.2002H422.41ZM422.027 40.6752C422.016 39.9552 422.635 39.3814 423.377 39.3927C424.12 39.3814 424.739 39.9552 424.75 40.6752C424.739 41.3839 424.12 41.9577 423.377 41.9577C422.635 41.9577 422.016 41.3839 422.027 40.6752ZM431.962 56.4477C428.632 56.4589 426.382 53.9389 426.382 50.1477C426.382 46.3339 428.632 43.8252 431.962 43.8252C435.28 43.8252 437.508 46.3339 437.497 50.1477C437.508 53.9389 435.28 56.4589 431.962 56.4477ZM428.317 50.1477C428.328 52.5889 429.475 54.7377 431.962 54.7377C434.425 54.7377 435.562 52.5889 435.562 50.1477C435.562 47.7177 434.425 45.5352 431.962 45.5352C429.475 45.5352 428.328 47.7177 428.317 50.1477ZM441.513 48.8652V56.2002H439.578V43.9827H441.446V45.8952H441.603C442.177 44.6464 443.325 43.8252 445.181 43.8252C447.656 43.8252 449.31 45.3327 449.298 48.4377V56.2002H447.363V48.5727C447.363 46.6827 446.328 45.5577 444.596 45.5577C442.818 45.5577 441.513 46.7502 441.513 48.8652ZM463.362 41.8002C463.362 44.5902 465.387 47.2227 468.312 48.2802L467.322 49.6527C465.128 48.7864 463.373 47.0539 462.518 44.8714C461.674 47.2902 459.852 49.2027 457.489 50.1477L456.544 48.7077C459.548 47.6052 461.618 44.8039 461.629 41.7327V39.2577H463.362V41.8002ZM460.167 57.5952V51.3177H461.944V56.1102H473.554V57.5952H460.167ZM466.872 44.2302V42.7452H471.327V38.0427H473.104V53.0277H471.327V44.2302H466.872ZM492.556 38.0202V49.9452H490.778V44.7027H486.751V43.2402H490.778V38.0202H492.556ZM476.063 48.3477C479.033 47.2789 481.148 44.5677 481.148 41.7102V40.9677H476.626V39.4827H487.403V40.9677H482.926V41.6877C482.926 44.2977 484.928 46.7839 487.853 47.7852L486.931 49.2027C484.692 48.3927 482.948 46.7052 482.082 44.6464C481.227 46.9864 479.371 48.8539 476.986 49.7652L476.063 48.3477ZM479.213 54.2877C479.202 51.9364 481.756 50.5639 485.918 50.5752C490.07 50.5639 492.623 51.9364 492.623 54.2877C492.623 56.6502 490.07 58.0002 485.918 58.0227C481.756 58.0002 479.202 56.6502 479.213 54.2877ZM480.968 54.2877C480.957 55.7389 482.847 56.6164 485.918 56.6052C488.978 56.6164 490.868 55.7389 490.868 54.2877C490.868 52.8252 488.978 51.9477 485.918 51.9477C482.847 51.9477 480.957 52.8252 480.968 54.2877Z" fill="#7737FF"/>
<path d="M515.561 53.2816C516.518 54.38 518.224 54.38 519.181 53.2816L526.379 45.016C527.732 43.463 526.629 41.0399 524.569 41.0399H510.173C508.114 41.0399 507.011 43.463 508.363 45.016L515.561 53.2816Z" fill="#7737FF"/>
<rect x="40" y="21" width="54.4" height="54.4" rx="12.8" fill="#7737FF"/>
<path d="M65.0727 44.3877C64.9264 42.9814 63.7452 42.1714 61.9902 42.1827C60.1339 42.1714 59.0314 43.0714 59.0202 44.2977C59.0089 45.6702 60.4602 46.2327 61.8102 46.5477L63.3402 46.9527C65.7702 47.5152 68.1102 48.7977 68.1102 51.6327C68.1102 54.4902 65.8489 56.4477 61.9452 56.4477C58.1539 56.4477 55.7464 54.6252 55.6227 51.4077H58.5027C58.6377 53.1064 60.0664 53.9389 61.9227 53.9502C63.8464 53.9389 65.1739 53.0052 65.1852 51.6102C65.1739 50.3277 64.0039 49.7877 62.2377 49.3377L60.3927 48.8652C57.7152 48.1677 56.0502 46.8177 56.0502 44.4777C56.0502 41.5977 58.6039 39.6852 62.0352 39.6852C65.4889 39.6852 67.8402 41.6314 67.8852 44.3877H65.0727ZM76.5369 39.9102V56.2002H73.5894V42.7677H73.4994L69.6969 45.1977V42.5202L73.7244 39.9102H76.5369Z" fill="white"/>
</svg>
