<svg width="720" height="94" viewBox="0 0 720 94" fill="none" xmlns="http://www.w3.org/2000/svg">
<rect width="720" height="94" fill="white"/>
<rect x="94.4004" y="9" width="459.342" height="70.4" rx="19.2" fill="white" fill-opacity="0.1"/>
<path d="M134.434 33.8627V54.2027H131.914V33.8627H134.434ZM117.581 48.6002C122.914 46.0689 125.366 42.6264 125.816 38.0027H118.616V36.0227H128.359C128.359 42.0752 126.008 47.2164 118.886 50.6027L117.581 48.6002ZM155.461 45.8777V47.8352H150.983V54.2027H148.463V47.8352H143.896V54.2027H141.398V47.8352H136.876V45.8777H155.461ZM139.058 36.5852V34.5377H153.301V40.2302H141.623V42.1652H153.751V44.1902H139.103V38.3627H150.736V36.5852H139.058ZM178.907 33.8627V54.2027H176.499V43.8752H174.474V53.1677H172.112V34.2452H174.474V41.8277H176.499V33.8627H178.907ZM161.132 47.3402C161.694 47.3402 162.335 47.3402 163.022 47.3402V38.2952H161.537V36.2702H170.942V38.2952H169.479V47.0589C170.087 47.0139 170.66 46.9464 171.212 46.8677L171.347 48.6902C168.174 49.3427 163.978 49.4214 161.424 49.4102L161.132 47.3402ZM165.272 47.2952C165.913 47.2727 166.554 47.2502 167.207 47.2164V38.2952H165.272V47.2952ZM197.841 33.8852V48.9152H195.343V41.4677H191.698V39.4427H195.343V33.8852H197.841ZM181.798 46.0352V35.4377H191.046V37.4627H184.296V39.6677H190.438V41.6252H184.296V43.9652C187.513 43.9652 189.527 43.8752 191.901 43.4702L192.103 45.4727C189.482 45.9339 187.198 46.0352 183.351 46.0352H181.798ZM184.476 53.7977V47.6102H186.996V51.7727H198.358V53.7977H184.476ZM209.507 34.1777C214.142 34.1889 216.831 35.4152 216.842 37.6652C216.831 39.9377 214.142 41.1639 209.507 41.1752C204.884 41.1639 202.172 39.9377 202.172 37.6652C202.172 35.4152 204.884 34.1889 209.507 34.1777ZM200.26 44.2577V42.2552H218.8V44.2577H200.26ZM202.442 47.4752V45.6302H216.482V50.6027H204.917V52.1102H217.045V54.0227H202.465V48.8252H214.03V47.4752H202.442ZM204.805 37.6652C204.794 38.7902 206.414 39.3077 209.507 39.3077C212.646 39.3077 214.255 38.7902 214.255 37.6652C214.255 36.6189 212.646 36.0227 209.507 36.0227C206.414 36.0227 204.794 36.6189 204.805 37.6652ZM235.248 35.1002C235.237 40.3427 231.783 44.0214 225.866 45.6752L224.853 43.7177C229.41 42.4802 232.11 40.0952 232.571 37.1252H225.956V35.1002H235.248ZM228.363 53.9327V46.1477H241.751V53.9327H228.363ZM230.816 51.9527H239.276V48.1277H230.816V51.9527ZM235.338 40.9052V38.8577H239.253V33.8852H241.751V45.3377H239.253V40.9052H235.338ZM262.71 43.3352V45.3602H244.17V43.3352H262.71ZM245.07 40.4552C248.839 40.0839 251.291 38.5764 251.674 36.8777H245.858V34.8302H261.045V36.8777H255.173C255.544 38.5539 257.974 40.0839 261.833 40.4552L260.955 42.4352C257.254 42.0527 254.52 40.5789 253.418 38.5202C252.315 40.5789 249.615 42.0527 245.925 42.4352L245.07 40.4552ZM246.33 50.4452C246.33 48.0827 248.996 46.7102 253.418 46.7102C257.805 46.7102 260.449 48.0827 260.46 50.4452C260.449 52.8414 257.805 54.1802 253.418 54.1802C248.996 54.1802 246.33 52.8414 246.33 50.4452ZM248.873 50.4452C248.861 51.6264 250.459 52.2114 253.418 52.2227C256.331 52.2114 257.94 51.6264 257.963 50.4452C257.94 49.2639 256.331 48.6677 253.418 48.6677C250.459 48.6677 248.861 49.2639 248.873 50.4452ZM279.237 34.0202V42.2777H282.589V43.7402H279.237V54.0227H277.482V34.0202H279.237ZM263.644 38.7002V37.2377H268.797V34.2677H270.552V37.2377H275.547V38.7002H263.644ZM264.792 44.9552C264.781 42.2552 266.851 40.3652 269.697 40.3652C272.521 40.3652 274.579 42.2552 274.602 44.9552C274.579 47.6664 272.521 49.5452 269.697 49.5452C266.851 49.5452 264.781 47.6664 264.792 44.9552ZM266.479 44.9552C266.468 46.7777 267.829 48.0602 269.697 48.0377C271.542 48.0602 272.892 46.7777 272.914 44.9552C272.892 43.1439 271.542 41.8389 269.697 41.8502C267.829 41.8389 266.468 43.1439 266.479 44.9552ZM288.586 35.5727C290.42 35.5839 291.916 36.6527 292.782 38.4977H298.036V34.0202H299.791V54.0677H298.036V46.3052H292.906C292.073 48.3302 290.521 49.5114 288.586 49.5002C285.627 49.5114 283.557 46.8114 283.568 42.5477C283.557 38.2952 285.627 35.5839 288.586 35.5727ZM285.256 42.5477C285.267 45.7989 286.617 47.9364 288.586 47.9252C290.543 47.9364 291.916 45.7989 291.916 42.5477C291.916 39.2964 290.543 37.1589 288.586 37.1477C286.617 37.1589 285.267 39.2964 285.256 42.5477ZM293.288 39.9827C293.48 40.7589 293.581 41.6139 293.581 42.5477C293.581 43.3689 293.502 44.1452 293.356 44.8427H298.036V39.9827H293.288ZM311.987 52.2002L307.532 35.9102H309.579L312.977 49.0952H313.134L316.577 35.9102H318.849L322.314 49.0952H322.449L325.847 35.9102H327.894L323.439 52.2002H321.347L317.792 39.3077H317.657L314.079 52.2002H311.987ZM333.171 52.4477C329.841 52.4589 327.591 49.9389 327.591 46.1477C327.591 42.3339 329.841 39.8252 333.171 39.8252C336.49 39.8252 338.717 42.3339 338.706 46.1477C338.717 49.9389 336.49 52.4589 333.171 52.4477ZM329.526 46.1477C329.537 48.5889 330.685 50.7377 333.171 50.7377C335.635 50.7377 336.771 48.5889 336.771 46.1477C336.771 43.7177 335.635 41.5352 333.171 41.5352C330.685 41.5352 329.537 43.7177 329.526 46.1477ZM340.788 52.2002V39.9827H342.655V41.8502H342.79C343.229 40.6127 344.5 39.7914 345.94 39.7802C346.233 39.7914 346.728 39.8027 346.953 39.8252V41.7827C346.807 41.7489 346.289 41.6477 345.783 41.6477C344.028 41.6477 342.723 42.8627 342.723 44.5052V52.2002H340.788ZM355.177 43.1552C354.907 42.1427 354.131 41.4789 352.702 41.4677C351.194 41.4789 350.126 42.2889 350.114 43.3127C350.126 44.1227 350.778 44.6739 352.207 45.0227L354.029 45.4727C356.212 45.9902 357.281 47.0814 357.292 48.7802C357.281 50.8952 355.559 52.4589 352.499 52.4477C349.754 52.4589 348.123 51.2327 347.797 49.0052H349.822C350.047 50.1977 350.913 50.7714 352.454 50.7602C354.198 50.7714 355.289 50.0402 355.289 48.8927C355.289 48.0264 354.671 47.4639 353.287 47.1377L351.442 46.7102C349.316 46.2152 348.179 45.0564 348.179 43.4252C348.179 41.3327 350.013 39.8252 352.702 39.8252C355.233 39.8252 356.819 41.1752 357.067 43.1552H355.177ZM364.684 39.9827V41.6027H362.119V48.6902C362.107 50.2539 362.895 50.5127 363.716 50.5127C364.065 50.5127 364.582 50.4789 364.864 50.4677V52.2677C364.56 52.3127 364.087 52.3577 363.514 52.3577C361.882 52.3577 360.172 51.3452 360.161 49.1852V41.6027H358.316V39.9827H360.161V37.0577H362.119V39.9827H364.684ZM372.29 52.2002V35.9102H377.825C381.638 35.9102 383.382 38.1827 383.382 41.0852C383.382 43.9764 381.638 46.2827 377.847 46.2827H374.315V52.2002H372.29ZM374.315 44.4827H377.757C380.356 44.4827 381.368 43.0202 381.38 41.0852C381.368 39.1389 380.356 37.7102 377.735 37.7102H374.315V44.4827ZM390.369 52.4477C387.039 52.4589 384.789 49.9389 384.789 46.1477C384.789 42.3339 387.039 39.8252 390.369 39.8252C393.688 39.8252 395.915 42.3339 395.904 46.1477C395.915 49.9389 393.688 52.4589 390.369 52.4477ZM386.724 46.1477C386.735 48.5889 387.883 50.7377 390.369 50.7377C392.833 50.7377 393.969 48.5889 393.969 46.1477C393.969 43.7177 392.833 41.5352 390.369 41.5352C387.883 41.5352 386.735 43.7177 386.724 46.1477ZM404.78 43.1552C404.51 42.1427 403.734 41.4789 402.305 41.4677C400.798 41.4789 399.729 42.2889 399.718 43.3127C399.729 44.1227 400.382 44.6739 401.81 45.0227L403.633 45.4727C405.815 45.9902 406.884 47.0814 406.895 48.7802C406.884 50.8952 405.163 52.4589 402.103 52.4477C399.358 52.4589 397.727 51.2327 397.4 49.0052H399.425C399.65 50.1977 400.517 50.7714 402.058 50.7602C403.802 50.7714 404.893 50.0402 404.893 48.8927C404.893 48.0264 404.274 47.4639 402.89 47.1377L401.045 46.7102C398.919 46.2152 397.783 45.0564 397.783 43.4252C397.783 41.3327 399.617 39.8252 402.305 39.8252C404.837 39.8252 406.423 41.1752 406.67 43.1552H404.78ZM408.955 52.2002V39.9827H410.89V52.2002H408.955ZM408.572 36.6752C408.561 35.9552 409.18 35.3814 409.922 35.3927C410.665 35.3814 411.283 35.9552 411.295 36.6752C411.283 37.3839 410.665 37.9577 409.922 37.9577C409.18 37.9577 408.561 37.3839 408.572 36.6752ZM418.844 39.9827V41.6027H416.279V48.6902C416.268 50.2539 417.055 50.5127 417.876 50.5127C418.225 50.5127 418.743 50.4789 419.024 50.4677V52.2677C418.72 52.3127 418.248 52.3577 417.674 52.3577C416.043 52.3577 414.333 51.3452 414.321 49.1852V41.6027H412.476V39.9827H414.321V37.0577H416.279V39.9827H418.844ZM420.881 52.2002V39.9827H422.816V52.2002H420.881ZM420.498 36.6752C420.487 35.9552 421.106 35.3814 421.848 35.3927C422.591 35.3814 423.209 35.9552 423.221 36.6752C423.209 37.3839 422.591 37.9577 421.848 37.9577C421.106 37.9577 420.487 37.3839 420.498 36.6752ZM430.432 52.4477C427.102 52.4589 424.852 49.9389 424.852 46.1477C424.852 42.3339 427.102 39.8252 430.432 39.8252C433.751 39.8252 435.979 42.3339 435.967 46.1477C435.979 49.9389 433.751 52.4589 430.432 52.4477ZM426.787 46.1477C426.799 48.5889 427.946 50.7377 430.432 50.7377C432.896 50.7377 434.032 48.5889 434.032 46.1477C434.032 43.7177 432.896 41.5352 430.432 41.5352C427.946 41.5352 426.799 43.7177 426.787 46.1477ZM439.984 44.8652V52.2002H438.049V39.9827H439.916V41.8952H440.074C440.648 40.6464 441.795 39.8252 443.651 39.8252C446.126 39.8252 447.78 41.3327 447.769 44.4377V52.2002H445.834V44.5727C445.834 42.6827 444.799 41.5577 443.066 41.5577C441.289 41.5577 439.984 42.7502 439.984 44.8652ZM461.832 37.8002C461.832 40.5902 463.857 43.2227 466.782 44.2802L465.792 45.6527C463.599 44.7864 461.844 43.0539 460.989 40.8714C460.145 43.2902 458.322 45.2027 455.96 46.1477L455.015 44.7077C458.019 43.6052 460.089 40.8039 460.1 37.7327V35.2577H461.832V37.8002ZM458.637 53.5952V47.3177H460.415V52.1102H472.025V53.5952H458.637ZM465.342 40.2302V38.7452H469.797V34.0427H471.575V49.0277H469.797V40.2302H465.342ZM491.027 34.0202V45.9452H489.249V40.7027H485.222V39.2402H489.249V34.0202H491.027ZM474.534 44.3477C477.504 43.2789 479.619 40.5677 479.619 37.7102V36.9677H475.097V35.4827H485.874V36.9677H481.397V37.6877C481.397 40.2977 483.399 42.7839 486.324 43.7852L485.402 45.2027C483.163 44.3927 481.419 42.7052 480.553 40.6464C479.698 42.9864 477.842 44.8539 475.457 45.7652L474.534 44.3477ZM477.684 50.2877C477.673 47.9364 480.227 46.5639 484.389 46.5752C488.54 46.5639 491.094 47.9364 491.094 50.2877C491.094 52.6502 488.54 54.0002 484.389 54.0227C480.227 54.0002 477.673 52.6502 477.684 50.2877ZM479.439 50.2877C479.428 51.7389 481.318 52.6164 484.389 52.6052C487.449 52.6164 489.339 51.7389 489.339 50.2877C489.339 48.8252 487.449 47.9477 484.389 47.9477C481.318 47.9477 479.428 48.8252 479.439 50.2877Z" fill="#7737FF"/>
<path d="M515.25 39.3215C516.421 38.1499 518.321 38.1499 519.492 39.3215L526.25 46.0789C528.14 47.9688 526.801 51.2002 524.128 51.2002H510.614C507.941 51.2002 506.603 47.9688 508.492 46.0789L515.25 39.3215Z" fill="#7737FF" fill-opacity="0.5"/>
<rect x="40" y="17" width="54.4" height="54.4" rx="12.8" fill="#7737FF"/>
<path d="M65.0727 40.3877C64.9264 38.9814 63.7452 38.1714 61.9902 38.1827C60.1339 38.1714 59.0314 39.0714 59.0202 40.2977C59.0089 41.6702 60.4602 42.2327 61.8102 42.5477L63.3402 42.9527C65.7702 43.5152 68.1102 44.7977 68.1102 47.6327C68.1102 50.4902 65.8489 52.4477 61.9452 52.4477C58.1539 52.4477 55.7464 50.6252 55.6227 47.4077H58.5027C58.6377 49.1064 60.0664 49.9389 61.9227 49.9502C63.8464 49.9389 65.1739 49.0052 65.1852 47.6102C65.1739 46.3277 64.0039 45.7877 62.2377 45.3377L60.3927 44.8652C57.7152 44.1677 56.0502 42.8177 56.0502 40.4777C56.0502 37.5977 58.6039 35.6852 62.0352 35.6852C65.4889 35.6852 67.8402 37.6314 67.8852 40.3877H65.0727ZM76.5369 35.9102V52.2002H73.5894V38.7677H73.4994L69.6969 41.1977V38.5202L73.7244 35.9102H76.5369Z" fill="white"/>
</svg>
