<svg width="720" height="94" viewBox="0 0 720 94" fill="none" xmlns="http://www.w3.org/2000/svg">
<rect width="720" height="94" fill="white"/>
<rect x="94.4004" y="12" width="420.942" height="70.4" rx="19.2" fill="white" fill-opacity="0.1"/>
<path d="M137.316 47.4602V49.4852H118.776V47.4602H126.763V45.6602C123.039 45.3902 120.688 43.9052 120.688 41.5427C120.688 38.9889 123.579 37.4252 128.023 37.4252C132.456 37.4252 135.347 38.9889 135.358 41.5427C135.347 43.9052 132.996 45.3902 129.283 45.6602V47.4602H137.316ZM121.071 56.7977V50.8802H123.568V54.7727H135.223V56.7977H121.071ZM123.298 41.5427C123.276 42.9489 125.064 43.6914 128.023 43.6802C130.993 43.6914 132.771 42.9489 132.771 41.5427C132.771 40.2039 130.993 39.4164 128.023 39.4052C125.064 39.4164 123.276 40.2039 123.298 41.5427ZM154.742 46.1102V48.0902H148.712V52.7477H156.812V54.7952H138.227V52.7477H146.237V48.0902H140.477V38.3702H154.585V40.3727H142.975V46.1102H154.742ZM181.226 47.0102V49.0127H162.686V47.0102H181.226ZM163.563 44.2202C167.827 43.9277 170.223 42.5102 170.504 40.7777H164.508V38.8202H170.696V36.9077H173.171V38.8202H179.403V40.7777H173.351C173.621 42.5102 176.017 43.9277 180.303 44.2202L179.516 46.1327C175.882 45.8289 173.193 44.7039 171.933 42.9377C170.651 44.7039 167.962 45.8289 164.351 46.1327L163.563 44.2202ZM164.733 52.7477V50.7677H178.953V57.2027H176.456V52.7477H164.733ZM199.17 36.8627V48.9452H196.672V43.9727H193.207V41.9252H196.672V36.8627H199.17ZM182.07 46.9202C185.344 45.7952 187.065 43.0614 187.065 40.3727V40.2152H182.835V38.1902H193.815V40.2152H189.607V40.3502C189.607 42.8252 191.25 45.3227 194.4 46.3802L193.14 48.3602C190.879 47.5952 189.281 46.0427 188.381 44.1302C187.492 46.2902 185.794 48.0452 183.375 48.9002L182.07 46.9202ZM185.377 53.3327C185.355 50.8914 187.999 49.4627 192.285 49.4627C196.594 49.4627 199.226 50.8914 199.237 53.3327C199.226 55.7739 196.594 57.1914 192.285 57.2027C187.999 57.1914 185.355 55.7739 185.377 53.3327ZM187.852 53.3327C187.841 54.5927 189.461 55.2789 192.285 55.2677C195.131 55.2789 196.74 54.5927 196.74 53.3327C196.74 52.0614 195.131 51.3752 192.285 51.3752C189.461 51.3752 187.841 52.0614 187.852 53.3327ZM210.837 37.3802C215.28 37.3802 217.89 38.6064 217.902 40.8227C217.89 43.0952 215.28 44.3214 210.837 44.3327C206.37 44.3214 203.749 43.0952 203.749 40.8227C203.749 38.6064 206.37 37.3802 210.837 37.3802ZM201.724 47.1227V45.6827H219.949V47.1227H201.724ZM203.929 50.2052V48.8552H217.609V53.3327H205.729V55.4027H218.217V56.7977H203.974V52.0277H215.877V50.2052H203.929ZM205.594 40.8227C205.572 42.2177 207.518 42.9827 210.837 42.9827C214.155 42.9827 216.09 42.2177 216.102 40.8227C216.09 39.5064 214.155 38.7189 210.837 38.7077C207.518 38.7189 205.572 39.5064 205.594 40.8227ZM244.722 47.6402V49.0802H226.475V47.6402H234.71V45.6602H228.905V37.6052H242.45V39.0452H230.682V40.9127H241.91V42.2627H230.682V44.2427H242.562V45.6602H236.465V47.6402H244.722ZM228.702 53.7827C228.691 51.7014 231.177 50.5652 235.61 50.5877C239.997 50.5652 242.472 51.7014 242.495 53.7827C242.472 55.8864 239.997 56.9777 235.61 56.9777C231.177 56.9777 228.691 55.8864 228.702 53.7827ZM230.48 53.7827C230.457 54.9977 232.302 55.6277 235.61 55.6052C238.884 55.6277 240.706 54.9977 240.717 53.7827C240.706 52.5902 238.884 51.9264 235.61 51.9152C232.302 51.9264 230.457 52.5902 230.48 53.7827ZM261.587 37.0427V43.6352H264.602V45.1202H261.587V52.0277H259.832V37.0427H261.587ZM245.994 40.9352V39.4952H251.079V37.0427H252.834V39.4952H257.919V40.9352H245.994ZM247.142 45.7727C247.13 43.5002 249.065 42.0377 251.957 42.0377C254.814 42.0377 256.749 43.5002 256.772 45.7727C256.749 48.0227 254.814 49.4739 251.957 49.4627C249.065 49.4739 247.13 48.0227 247.142 45.7727ZM248.829 45.7727C248.818 47.1789 250.067 48.0902 251.957 48.0677C253.824 48.0902 255.084 47.1789 255.107 45.7727C255.084 44.3439 253.824 43.4214 251.957 43.4327C250.067 43.4214 248.818 44.3439 248.829 45.7727ZM249.077 56.5952V50.8352H250.809V55.1102H262.509V56.5952H249.077ZM274.728 55.2002L270.273 38.9102H272.32L275.718 52.0952H275.875L279.318 38.9102H281.59L285.055 52.0952H285.19L288.588 38.9102H290.635L286.18 55.2002H284.088L280.533 42.3077H280.398L276.82 55.2002H274.728ZM295.912 55.4477C292.582 55.4589 290.332 52.9389 290.332 49.1477C290.332 45.3339 292.582 42.8252 295.912 42.8252C299.231 42.8252 301.458 45.3339 301.447 49.1477C301.458 52.9389 299.231 55.4589 295.912 55.4477ZM292.267 49.1477C292.278 51.5889 293.426 53.7377 295.912 53.7377C298.376 53.7377 299.512 51.5889 299.512 49.1477C299.512 46.7177 298.376 44.5352 295.912 44.5352C293.426 44.5352 292.278 46.7177 292.267 49.1477ZM303.528 55.2002V42.9827H305.396V44.8502H305.531C305.97 43.6127 307.241 42.7914 308.681 42.7802C308.973 42.7914 309.468 42.8027 309.693 42.8252V44.7827C309.547 44.7489 309.03 44.6477 308.523 44.6477C306.768 44.6477 305.463 45.8627 305.463 47.5052V55.2002H303.528ZM317.918 46.1552C317.648 45.1427 316.871 44.4789 315.443 44.4677C313.935 44.4789 312.866 45.2889 312.855 46.3127C312.866 47.1227 313.519 47.6739 314.948 48.0227L316.77 48.4727C318.953 48.9902 320.021 50.0814 320.033 51.7802C320.021 53.8952 318.3 55.4589 315.24 55.4477C312.495 55.4589 310.864 54.2327 310.538 52.0052H312.563C312.788 53.1977 313.654 53.7714 315.195 53.7602C316.939 53.7714 318.03 53.0402 318.03 51.8927C318.03 51.0264 317.411 50.4639 316.028 50.1377L314.183 49.7102C312.056 49.2152 310.92 48.0564 310.92 46.4252C310.92 44.3327 312.754 42.8252 315.443 42.8252C317.974 42.8252 319.56 44.1752 319.808 46.1552H317.918ZM327.424 42.9827V44.6027H324.859V51.6902C324.848 53.2539 325.636 53.5127 326.457 53.5127C326.806 53.5127 327.323 53.4789 327.604 53.4677V55.2677C327.301 55.3127 326.828 55.3577 326.254 55.3577C324.623 55.3577 322.913 54.3452 322.902 52.1852V44.6027H321.057V42.9827H322.902V40.0577H324.859V42.9827H327.424ZM335.03 55.2002V38.9102H340.565C344.379 38.9102 346.123 41.1827 346.123 44.0852C346.123 46.9764 344.379 49.2827 340.588 49.2827H337.055V55.2002H335.03ZM337.055 47.4827H340.498C343.097 47.4827 344.109 46.0202 344.12 44.0852C344.109 42.1389 343.097 40.7102 340.475 40.7102H337.055V47.4827ZM353.109 55.4477C349.779 55.4589 347.529 52.9389 347.529 49.1477C347.529 45.3339 349.779 42.8252 353.109 42.8252C356.428 42.8252 358.656 45.3339 358.644 49.1477C358.656 52.9389 356.428 55.4589 353.109 55.4477ZM349.464 49.1477C349.476 51.5889 350.623 53.7377 353.109 53.7377C355.573 53.7377 356.709 51.5889 356.709 49.1477C356.709 46.7177 355.573 44.5352 353.109 44.5352C350.623 44.5352 349.476 46.7177 349.464 49.1477ZM367.521 46.1552C367.251 45.1427 366.475 44.4789 365.046 44.4677C363.539 44.4789 362.47 45.2889 362.459 46.3127C362.47 47.1227 363.122 47.6739 364.551 48.0227L366.374 48.4727C368.556 48.9902 369.625 50.0814 369.636 51.7802C369.625 53.8952 367.904 55.4589 364.844 55.4477C362.099 55.4589 360.467 54.2327 360.141 52.0052H362.166C362.391 53.1977 363.257 53.7714 364.799 53.7602C366.542 53.7714 367.634 53.0402 367.634 51.8927C367.634 51.0264 367.015 50.4639 365.631 50.1377L363.786 49.7102C361.66 49.2152 360.524 48.0564 360.524 46.4252C360.524 44.3327 362.357 42.8252 365.046 42.8252C367.577 42.8252 369.164 44.1752 369.411 46.1552H367.521ZM371.695 55.2002V42.9827H373.63V55.2002H371.695ZM371.313 39.6752C371.302 38.9552 371.92 38.3814 372.663 38.3927C373.405 38.3814 374.024 38.9552 374.035 39.6752C374.024 40.3839 373.405 40.9577 372.663 40.9577C371.92 40.9577 371.302 40.3839 371.313 39.6752ZM381.585 42.9827V44.6027H379.02V51.6902C379.008 53.2539 379.796 53.5127 380.617 53.5127C380.966 53.5127 381.483 53.4789 381.765 53.4677V55.2677C381.461 55.3127 380.988 55.3577 380.415 55.3577C378.783 55.3577 377.073 54.3452 377.062 52.1852V44.6027H375.217V42.9827H377.062V40.0577H379.02V42.9827H381.585ZM383.621 55.2002V42.9827H385.556V55.2002H383.621ZM383.239 39.6752C383.228 38.9552 383.846 38.3814 384.589 38.3927C385.331 38.3814 385.95 38.9552 385.961 39.6752C385.95 40.3839 385.331 40.9577 384.589 40.9577C383.846 40.9577 383.228 40.3839 383.239 39.6752ZM393.173 55.4477C389.843 55.4589 387.593 52.9389 387.593 49.1477C387.593 45.3339 389.843 42.8252 393.173 42.8252C396.492 42.8252 398.719 45.3339 398.708 49.1477C398.719 52.9389 396.492 55.4589 393.173 55.4477ZM389.528 49.1477C389.539 51.5889 390.687 53.7377 393.173 53.7377C395.637 53.7377 396.773 51.5889 396.773 49.1477C396.773 46.7177 395.637 44.5352 393.173 44.5352C390.687 44.5352 389.539 46.7177 389.528 49.1477ZM402.725 47.8652V55.2002H400.79V42.9827H402.657V44.8952H402.815C403.388 43.6464 404.536 42.8252 406.392 42.8252C408.867 42.8252 410.521 44.3327 410.51 47.4377V55.2002H408.575V47.5727C408.575 45.6827 407.54 44.5577 405.807 44.5577C404.03 44.5577 402.725 45.7502 402.725 47.8652ZM424.573 40.8002C424.573 43.5902 426.598 46.2227 429.523 47.2802L428.533 48.6527C426.339 47.7864 424.584 46.0539 423.729 43.8714C422.886 46.2902 421.063 48.2027 418.701 49.1477L417.756 47.7077C420.759 46.6052 422.829 43.8039 422.841 40.7327V38.2577H424.573V40.8002ZM421.378 56.5952V50.3177H423.156V55.1102H434.766V56.5952H421.378ZM428.083 43.2302V41.7452H432.538V37.0427H434.316V52.0277H432.538V43.2302H428.083ZM453.767 37.0202V48.9452H451.99V43.7027H447.962V42.2402H451.99V37.0202H453.767ZM437.275 47.3477C440.245 46.2789 442.36 43.5677 442.36 40.7102V39.9677H437.837V38.4827H448.615V39.9677H444.137V40.6877C444.137 43.2977 446.14 45.7839 449.065 46.7852L448.142 48.2027C445.904 47.3927 444.16 45.7052 443.294 43.6464C442.439 45.9864 440.582 47.8539 438.197 48.7652L437.275 47.3477ZM440.425 53.2877C440.414 50.9364 442.967 49.5639 447.13 49.5752C451.281 49.5639 453.835 50.9364 453.835 53.2877C453.835 55.6502 451.281 57.0002 447.13 57.0227C442.967 57.0002 440.414 55.6502 440.425 53.2877ZM442.18 53.2877C442.169 54.7389 444.059 55.6164 447.13 55.6052C450.19 55.6164 452.08 54.7389 452.08 53.2877C452.08 51.8252 450.19 50.9477 447.13 50.9477C444.059 50.9477 442.169 51.8252 442.18 53.2877Z" fill="#7737FF"/>
<path d="M477.361 52.2816C478.318 53.38 480.024 53.38 480.981 52.2816L488.179 44.016C489.531 42.463 488.428 40.0399 486.369 40.0399H471.973C469.913 40.0399 468.81 42.463 470.163 44.016L477.361 52.2816Z" fill="#7737FF"/>
<rect x="40" y="20" width="54.4" height="54.4" rx="12.8" fill="#7737FF"/>
<path d="M63.5727 43.3877C63.4264 41.9814 62.2452 41.1714 60.4902 41.1827C58.6339 41.1714 57.5314 42.0714 57.5202 43.2977C57.5089 44.6702 58.9602 45.2327 60.3102 45.5477L61.8402 45.9527C64.2702 46.5152 66.6102 47.7977 66.6102 50.6327C66.6102 53.4902 64.3489 55.4477 60.4452 55.4477C56.6539 55.4477 54.2464 53.6252 54.1227 50.4077H57.0027C57.1377 52.1064 58.5664 52.9389 60.4227 52.9502C62.3464 52.9389 63.6739 52.0052 63.6852 50.6102C63.6739 49.3277 62.5039 48.7877 60.7377 48.3377L58.8927 47.8652C56.2152 47.1677 54.5502 45.8177 54.5502 43.4777C54.5502 40.5977 57.1039 38.6852 60.5352 38.6852C63.9889 38.6852 66.3402 40.6314 66.3852 43.3877H63.5727ZM68.4219 55.2002V53.0852L74.1819 47.5277C75.8244 45.8852 76.6794 44.9177 76.6794 43.5452C76.6794 42.0264 75.4756 41.0702 73.8894 41.0702C72.2131 41.0702 71.1331 42.1164 71.1444 43.7702H68.3544C68.3431 40.6877 70.6606 38.6852 73.9119 38.6852C77.2419 38.6852 79.4806 40.6764 79.4919 43.4102C79.4806 45.2439 78.6031 46.7289 75.3969 49.7552L72.4944 52.6352V52.7477H79.7394V55.2002H68.4219Z" fill="white"/>
</svg>
