<svg width="720" height="94" viewBox="0 0 720 94" fill="none" xmlns="http://www.w3.org/2000/svg">
<rect width="720" height="94" fill="white"/>
<rect x="94.4004" y="12" width="420.942" height="70.4" rx="19.2" fill="white" fill-opacity="0.1"/>
<path d="M135.786 47.4602V49.4852H117.246V47.4602H125.234V45.6602C121.51 45.3902 119.159 43.9052 119.159 41.5427C119.159 38.9889 122.05 37.4252 126.494 37.4252C130.926 37.4252 133.818 38.9889 133.829 41.5427C133.818 43.9052 131.466 45.3902 127.754 45.6602V47.4602H135.786ZM119.541 56.7977V50.8802H122.039V54.7727H133.694V56.7977H119.541ZM121.769 41.5427C121.746 42.9489 123.535 43.6914 126.494 43.6802C129.464 43.6914 131.241 42.9489 131.241 41.5427C131.241 40.2039 129.464 39.4164 126.494 39.4052C123.535 39.4164 121.746 40.2039 121.769 41.5427ZM153.213 46.1102V48.0902H147.183V52.7477H155.283V54.7952H136.698V52.7477H144.708V48.0902H138.948V38.3702H153.055V40.3727H141.445V46.1102H153.213ZM179.696 47.0102V49.0127H161.156V47.0102H179.696ZM162.034 44.2202C166.298 43.9277 168.694 42.5102 168.975 40.7777H162.979V38.8202H169.166V36.9077H171.641V38.8202H177.874V40.7777H171.821C172.091 42.5102 174.488 43.9277 178.774 44.2202L177.986 46.1327C174.353 45.8289 171.664 44.7039 170.404 42.9377C169.121 44.7039 166.433 45.8289 162.821 46.1327L162.034 44.2202ZM163.204 52.7477V50.7677H177.424V57.2027H174.926V52.7477H163.204ZM197.641 36.8627V48.9452H195.143V43.9727H191.678V41.9252H195.143V36.8627H197.641ZM180.541 46.9202C183.814 45.7952 185.536 43.0614 185.536 40.3727V40.2152H181.306V38.1902H192.286V40.2152H188.078V40.3502C188.078 42.8252 189.721 45.3227 192.871 46.3802L191.611 48.3602C189.349 47.5952 187.752 46.0427 186.852 44.1302C185.963 46.2902 184.264 48.0452 181.846 48.9002L180.541 46.9202ZM183.848 53.3327C183.826 50.8914 186.469 49.4627 190.756 49.4627C195.064 49.4627 197.697 50.8914 197.708 53.3327C197.697 55.7739 195.064 57.1914 190.756 57.2027C186.469 57.1914 183.826 55.7739 183.848 53.3327ZM186.323 53.3327C186.312 54.5927 187.932 55.2789 190.756 55.2677C193.602 55.2789 195.211 54.5927 195.211 53.3327C195.211 52.0614 193.602 51.3752 190.756 51.3752C187.932 51.3752 186.312 52.0614 186.323 53.3327ZM209.307 37.3802C213.751 37.3802 216.361 38.6064 216.372 40.8227C216.361 43.0952 213.751 44.3214 209.307 44.3327C204.841 44.3214 202.22 43.0952 202.22 40.8227C202.22 38.6064 204.841 37.3802 209.307 37.3802ZM200.195 47.1227V45.6827H218.42V47.1227H200.195ZM202.4 50.2052V48.8552H216.08V53.3327H204.2V55.4027H216.687V56.7977H202.445V52.0277H214.347V50.2052H202.4ZM204.065 40.8227C204.042 42.2177 205.989 42.9827 209.307 42.9827C212.626 42.9827 214.561 42.2177 214.572 40.8227C214.561 39.5064 212.626 38.7189 209.307 38.7077C205.989 38.7189 204.042 39.5064 204.065 40.8227ZM243.193 47.6402V49.0802H224.946V47.6402H233.181V45.6602H227.376V37.6052H240.921V39.0452H229.153V40.9127H240.381V42.2627H229.153V44.2427H241.033V45.6602H234.936V47.6402H243.193ZM227.173 53.7827C227.162 51.7014 229.648 50.5652 234.081 50.5877C238.468 50.5652 240.943 51.7014 240.966 53.7827C240.943 55.8864 238.468 56.9777 234.081 56.9777C229.648 56.9777 227.162 55.8864 227.173 53.7827ZM228.951 53.7827C228.928 54.9977 230.773 55.6277 234.081 55.6052C237.354 55.6277 239.177 54.9977 239.188 53.7827C239.177 52.5902 237.354 51.9264 234.081 51.9152C230.773 51.9264 228.928 52.5902 228.951 53.7827ZM260.057 37.0427V43.6352H263.072V45.1202H260.057V52.0277H258.302V37.0427H260.057ZM244.465 40.9352V39.4952H249.55V37.0427H251.305V39.4952H256.39V40.9352H244.465ZM245.612 45.7727C245.601 43.5002 247.536 42.0377 250.427 42.0377C253.285 42.0377 255.22 43.5002 255.242 45.7727C255.22 48.0227 253.285 49.4739 250.427 49.4627C247.536 49.4739 245.601 48.0227 245.612 45.7727ZM247.3 45.7727C247.289 47.1789 248.537 48.0902 250.427 48.0677C252.295 48.0902 253.555 47.1789 253.577 45.7727C253.555 44.3439 252.295 43.4214 250.427 43.4327C248.537 43.4214 247.289 44.3439 247.3 45.7727ZM247.547 56.5952V50.8352H249.28V55.1102H260.98V56.5952H247.547ZM273.198 55.2002L268.743 38.9102H270.791L274.188 52.0952H274.346L277.788 38.9102H280.061L283.526 52.0952H283.661L287.058 38.9102H289.106L284.651 55.2002H282.558L279.003 42.3077H278.868L275.291 55.2002H273.198ZM294.382 55.4477C291.052 55.4589 288.802 52.9389 288.802 49.1477C288.802 45.3339 291.052 42.8252 294.382 42.8252C297.701 42.8252 299.929 45.3339 299.917 49.1477C299.929 52.9389 297.701 55.4589 294.382 55.4477ZM290.737 49.1477C290.749 51.5889 291.896 53.7377 294.382 53.7377C296.846 53.7377 297.982 51.5889 297.982 49.1477C297.982 46.7177 296.846 44.5352 294.382 44.5352C291.896 44.5352 290.749 46.7177 290.737 49.1477ZM301.999 55.2002V42.9827H303.867V44.8502H304.002C304.44 43.6127 305.712 42.7914 307.152 42.7802C307.444 42.7914 307.939 42.8027 308.164 42.8252V44.7827C308.018 44.7489 307.5 44.6477 306.994 44.6477C305.239 44.6477 303.934 45.8627 303.934 47.5052V55.2002H301.999ZM316.388 46.1552C316.118 45.1427 315.342 44.4789 313.913 44.4677C312.406 44.4789 311.337 45.2889 311.326 46.3127C311.337 47.1227 311.99 47.6739 313.418 48.0227L315.241 48.4727C317.423 48.9902 318.492 50.0814 318.503 51.7802C318.492 53.8952 316.771 55.4589 313.711 55.4477C310.966 55.4589 309.335 54.2327 309.008 52.0052H311.033C311.258 53.1977 312.125 53.7714 313.666 53.7602C315.41 53.7714 316.501 53.0402 316.501 51.8927C316.501 51.0264 315.882 50.4639 314.498 50.1377L312.653 49.7102C310.527 49.2152 309.391 48.0564 309.391 46.4252C309.391 44.3327 311.225 42.8252 313.913 42.8252C316.445 42.8252 318.031 44.1752 318.278 46.1552H316.388ZM325.895 42.9827V44.6027H323.33V51.6902C323.319 53.2539 324.106 53.5127 324.928 53.5127C325.276 53.5127 325.794 53.4789 326.075 53.4677V55.2677C325.771 55.3127 325.299 55.3577 324.725 55.3577C323.094 55.3577 321.384 54.3452 321.373 52.1852V44.6027H319.528V42.9827H321.373V40.0577H323.33V42.9827H325.895ZM333.501 55.2002V38.9102H339.036C342.85 38.9102 344.593 41.1827 344.593 44.0852C344.593 46.9764 342.85 49.2827 339.058 49.2827H335.526V55.2002H333.501ZM335.526 47.4827H338.968C341.567 47.4827 342.58 46.0202 342.591 44.0852C342.58 42.1389 341.567 40.7102 338.946 40.7102H335.526V47.4827ZM351.58 55.4477C348.25 55.4589 346 52.9389 346 49.1477C346 45.3339 348.25 42.8252 351.58 42.8252C354.899 42.8252 357.126 45.3339 357.115 49.1477C357.126 52.9389 354.899 55.4589 351.58 55.4477ZM347.935 49.1477C347.946 51.5889 349.094 53.7377 351.58 53.7377C354.044 53.7377 355.18 51.5889 355.18 49.1477C355.18 46.7177 354.044 44.5352 351.58 44.5352C349.094 44.5352 347.946 46.7177 347.935 49.1477ZM365.992 46.1552C365.722 45.1427 364.946 44.4789 363.517 44.4677C362.009 44.4789 360.941 45.2889 360.929 46.3127C360.941 47.1227 361.593 47.6739 363.022 48.0227L364.844 48.4727C367.027 48.9902 368.096 50.0814 368.107 51.7802C368.096 53.8952 366.374 55.4589 363.314 55.4477C360.569 55.4589 358.938 54.2327 358.612 52.0052H360.637C360.862 53.1977 361.728 53.7714 363.269 53.7602C365.013 53.7714 366.104 53.0402 366.104 51.8927C366.104 51.0264 365.486 50.4639 364.102 50.1377L362.257 49.7102C360.131 49.2152 358.994 48.0564 358.994 46.4252C358.994 44.3327 360.828 42.8252 363.517 42.8252C366.048 42.8252 367.634 44.1752 367.882 46.1552H365.992ZM370.166 55.2002V42.9827H372.101V55.2002H370.166ZM369.784 39.6752C369.772 38.9552 370.391 38.3814 371.134 38.3927C371.876 38.3814 372.495 38.9552 372.506 39.6752C372.495 40.3839 371.876 40.9577 371.134 40.9577C370.391 40.9577 369.772 40.3839 369.784 39.6752ZM380.055 42.9827V44.6027H377.49V51.6902C377.479 53.2539 378.267 53.5127 379.088 53.5127C379.437 53.5127 379.954 53.4789 380.235 53.4677V55.2677C379.932 55.3127 379.459 55.3577 378.885 55.3577C377.254 55.3577 375.544 54.3452 375.533 52.1852V44.6027H373.688V42.9827H375.533V40.0577H377.49V42.9827H380.055ZM382.092 55.2002V42.9827H384.027V55.2002H382.092ZM381.709 39.6752C381.698 38.9552 382.317 38.3814 383.059 38.3927C383.802 38.3814 384.421 38.9552 384.432 39.6752C384.421 40.3839 383.802 40.9577 383.059 40.9577C382.317 40.9577 381.698 40.3839 381.709 39.6752ZM391.644 55.4477C388.314 55.4589 386.064 52.9389 386.064 49.1477C386.064 45.3339 388.314 42.8252 391.644 42.8252C394.962 42.8252 397.19 45.3339 397.179 49.1477C397.19 52.9389 394.962 55.4589 391.644 55.4477ZM387.999 49.1477C388.01 51.5889 389.157 53.7377 391.644 53.7377C394.107 53.7377 395.244 51.5889 395.244 49.1477C395.244 46.7177 394.107 44.5352 391.644 44.5352C389.157 44.5352 388.01 46.7177 387.999 49.1477ZM401.195 47.8652V55.2002H399.26V42.9827H401.128V44.8952H401.285C401.859 43.6464 403.007 42.8252 404.863 42.8252C407.338 42.8252 408.992 44.3327 408.98 47.4377V55.2002H407.045V47.5727C407.045 45.6827 406.01 44.5577 404.278 44.5577C402.5 44.5577 401.195 45.7502 401.195 47.8652ZM423.044 40.8002C423.044 43.5902 425.069 46.2227 427.994 47.2802L427.004 48.6527C424.81 47.7864 423.055 46.0539 422.2 43.8714C421.356 46.2902 419.534 48.2027 417.171 49.1477L416.226 47.7077C419.23 46.6052 421.3 43.8039 421.311 40.7327V38.2577H423.044V40.8002ZM419.849 56.5952V50.3177H421.626V55.1102H433.236V56.5952H419.849ZM426.554 43.2302V41.7452H431.009V37.0427H432.786V52.0277H431.009V43.2302H426.554ZM452.238 37.0202V48.9452H450.46V43.7027H446.433V42.2402H450.46V37.0202H452.238ZM435.745 47.3477C438.715 46.2789 440.83 43.5677 440.83 40.7102V39.9677H436.308V38.4827H447.085V39.9677H442.608V40.6877C442.608 43.2977 444.61 45.7839 447.535 46.7852L446.613 48.2027C444.374 47.3927 442.63 45.7052 441.764 43.6464C440.909 45.9864 439.053 47.8539 436.668 48.7652L435.745 47.3477ZM438.895 53.2877C438.884 50.9364 441.438 49.5639 445.6 49.5752C449.752 49.5639 452.305 50.9364 452.305 53.2877C452.305 55.6502 449.752 57.0002 445.6 57.0227C441.438 57.0002 438.884 55.6502 438.895 53.2877ZM440.65 53.2877C440.639 54.7389 442.529 55.6164 445.6 55.6052C448.66 55.6164 450.55 54.7389 450.55 53.2877C450.55 51.8252 448.66 50.9477 445.6 50.9477C442.529 50.9477 440.639 51.8252 440.65 53.2877Z" fill="#7737FF"/>
<path d="M477.05 42.3215C478.221 41.1499 480.121 41.1499 481.292 42.3215L488.05 49.0789C489.939 50.9688 488.601 54.2002 485.928 54.2002H472.414C469.741 54.2002 468.402 50.9688 470.292 49.0789L477.05 42.3215Z" fill="#7737FF" fill-opacity="0.5"/>
<rect x="40" y="20" width="54.4" height="54.4" rx="12.8" fill="#7737FF"/>
<path d="M63.5727 43.3877C63.4264 41.9814 62.2452 41.1714 60.4902 41.1827C58.6339 41.1714 57.5314 42.0714 57.5202 43.2977C57.5089 44.6702 58.9602 45.2327 60.3102 45.5477L61.8402 45.9527C64.2702 46.5152 66.6102 47.7977 66.6102 50.6327C66.6102 53.4902 64.3489 55.4477 60.4452 55.4477C56.6539 55.4477 54.2464 53.6252 54.1227 50.4077H57.0027C57.1377 52.1064 58.5664 52.9389 60.4227 52.9502C62.3464 52.9389 63.6739 52.0052 63.6852 50.6102C63.6739 49.3277 62.5039 48.7877 60.7377 48.3377L58.8927 47.8652C56.2152 47.1677 54.5502 45.8177 54.5502 43.4777C54.5502 40.5977 57.1039 38.6852 60.5352 38.6852C63.9889 38.6852 66.3402 40.6314 66.3852 43.3877H63.5727ZM68.4219 55.2002V53.0852L74.1819 47.5277C75.8244 45.8852 76.6794 44.9177 76.6794 43.5452C76.6794 42.0264 75.4756 41.0702 73.8894 41.0702C72.2131 41.0702 71.1331 42.1164 71.1444 43.7702H68.3544C68.3431 40.6877 70.6606 38.6852 73.9119 38.6852C77.2419 38.6852 79.4806 40.6764 79.4919 43.4102C79.4806 45.2439 78.6031 46.7289 75.3969 49.7552L72.4944 52.6352V52.7477H79.7394V55.2002H68.4219Z" fill="white"/>
</svg>
