<svg width="720" height="94" viewBox="0 0 720 94" fill="none" xmlns="http://www.w3.org/2000/svg">
<rect width="720" height="94" fill="white"/>
<rect x="94.4004" y="11.5249" width="544.142" height="70.4" rx="19.2" fill="white" fill-opacity="0.1"/>
<path d="M118.678 54.7249V38.4349H124.911C128.443 38.4349 130.187 40.2349 130.198 42.6649C130.187 44.6449 128.938 45.7474 127.341 46.1299V46.2874C129.073 46.3774 130.828 47.8174 130.828 50.2924C130.828 52.8236 128.995 54.7249 125.271 54.7249H118.678ZM121.603 52.2724H124.821C126.958 52.2724 127.847 51.3611 127.858 50.0674C127.847 48.6049 126.711 47.4911 124.888 47.4799H121.603V52.2724ZM121.603 45.3649H124.551C126.092 45.3649 127.262 44.4761 127.273 43.0249C127.262 41.7761 126.362 40.8649 124.618 40.8649H121.603V45.3649ZM132.618 54.7249V42.5074H135.498V54.7249H132.618ZM132.415 39.1999C132.415 38.3449 133.169 37.6474 134.08 37.6474C134.991 37.6474 135.745 38.3449 135.745 39.1999C135.745 40.0661 134.991 40.7636 134.08 40.7749C133.169 40.7636 132.415 40.0661 132.415 39.1999ZM143.114 54.9724C139.548 54.9724 137.264 52.4411 137.264 48.6724C137.264 44.8699 139.548 42.3499 143.114 42.3499C146.692 42.3499 148.976 44.8699 148.964 48.6724C148.976 52.4411 146.692 54.9724 143.114 54.9724ZM140.167 48.6499C140.167 50.8886 141.146 52.6774 143.137 52.6774C145.094 52.6774 146.073 50.8886 146.062 48.6499C146.073 46.4111 145.094 44.6111 143.137 44.6224C141.146 44.6111 140.167 46.4111 140.167 48.6499ZM153.611 38.4349V54.7249H150.731V38.4349H153.611ZM161.228 54.9724C157.661 54.9724 155.378 52.4411 155.378 48.6724C155.378 44.8699 157.661 42.3499 161.228 42.3499C164.805 42.3499 167.089 44.8699 167.078 48.6724C167.089 52.4411 164.805 54.9724 161.228 54.9724ZM158.28 48.6499C158.28 50.8886 159.259 52.6774 161.25 52.6774C163.208 52.6774 164.186 50.8886 164.175 48.6499C164.186 46.4111 163.208 44.6111 161.25 44.6224C159.259 44.6111 158.28 46.4111 158.28 48.6499ZM174.177 59.5624C170.937 59.5624 168.878 58.1224 168.687 55.8274H171.544C171.747 56.8961 172.748 57.3911 174.222 57.4024C175.943 57.3911 177.057 56.6486 177.057 54.8599V52.5199H176.922C176.472 53.4199 175.493 54.5449 173.389 54.5449C170.566 54.5449 168.349 52.4974 168.349 48.5149C168.349 44.4986 170.577 42.3499 173.412 42.3499C175.561 42.3499 176.472 43.6436 176.922 44.5099H177.057V42.5074H179.892V54.9274C179.892 58.0549 177.473 59.5624 174.177 59.5624ZM171.274 48.5599C171.274 50.8099 172.287 52.2949 174.177 52.2949C176.033 52.2949 177.079 50.8999 177.079 48.5599C177.079 46.2311 176.044 44.7011 174.177 44.6899C172.264 44.7011 171.274 46.3324 171.274 48.5599ZM182.176 54.7249V42.5074H185.056V54.7249H182.176ZM181.974 39.1999C181.974 38.3449 182.727 37.6474 183.639 37.6474C184.55 37.6474 185.304 38.3449 185.304 39.1999C185.304 40.0661 184.55 40.7636 183.639 40.7749C182.727 40.7636 181.974 40.0661 181.974 39.1999ZM192.673 54.9724C189.028 54.9724 186.823 52.3624 186.823 48.6724C186.823 44.9261 189.095 42.3499 192.673 42.3499C195.632 42.3499 197.713 44.0824 197.915 46.7149H195.17C194.945 45.5449 194.09 44.6561 192.695 44.6449C190.918 44.6561 189.725 46.1411 189.725 48.6049C189.725 51.1249 190.895 52.6211 192.695 52.6324C193.967 52.6211 194.912 51.8786 195.17 50.5624H197.915C197.702 53.1386 195.744 54.9724 192.673 54.9724ZM199.052 51.2824C199.052 48.5374 201.336 47.7386 203.597 47.5924C204.452 47.5249 206.196 47.4461 206.736 47.4236L206.725 46.4449C206.725 45.2299 205.948 44.5324 204.52 44.5324C203.237 44.5324 202.45 45.1174 202.225 45.9949H199.457C199.66 43.9136 201.527 42.3499 204.587 42.3499C206.905 42.3499 209.582 43.3061 209.582 46.5574V54.7249H206.837V53.0374H206.747C206.207 54.0724 205.071 54.9724 203.147 54.9724C200.818 54.9724 199.052 53.7011 199.052 51.2824ZM201.82 51.2599C201.82 52.3174 202.686 52.8574 203.89 52.8574C205.633 52.8574 206.747 51.7099 206.747 50.3374L206.736 49.3361C206.218 49.3586 204.621 49.4599 204.047 49.5049C202.686 49.6174 201.82 50.1911 201.82 51.2599ZM214.701 38.4349V54.7249H211.821V38.4349H214.701ZM225.052 38.4349V54.7249H222.127V38.4349H225.052ZM230.374 47.5699V54.7249H227.494V42.5074H230.239V44.5774H230.396C230.948 43.2161 232.196 42.3499 234.019 42.3499C236.55 42.3499 238.215 44.0149 238.204 46.9399V54.7249H235.346V47.3899C235.346 45.7474 234.458 44.7686 232.961 44.7799C231.443 44.7686 230.374 45.7924 230.374 47.5699ZM245.033 54.9499C242.164 54.9386 239.993 52.6436 239.993 48.6274C239.993 44.5549 242.221 42.3499 245.056 42.3499C247.204 42.3499 248.104 43.6436 248.543 44.5099H248.656V38.4349H251.513V54.7249H248.701V52.7899H248.543C248.082 53.6899 247.148 54.9386 245.033 54.9499ZM242.918 48.6049C242.918 50.9111 243.931 52.5874 245.821 52.5874C247.677 52.5874 248.723 50.9899 248.723 48.6049C248.723 46.2311 247.688 44.7011 245.821 44.6899C243.908 44.7011 242.918 46.3324 242.918 48.6049ZM253.955 54.7249V42.5074H256.835V54.7249H253.955ZM253.752 39.1999C253.752 38.3449 254.506 37.6474 255.417 37.6474C256.328 37.6474 257.082 38.3449 257.082 39.1999C257.082 40.0661 256.328 40.7636 255.417 40.7749C254.506 40.7636 253.752 40.0661 253.752 39.1999ZM264.451 54.9724C260.806 54.9724 258.601 52.3624 258.601 48.6724C258.601 44.9261 260.874 42.3499 264.451 42.3499C267.41 42.3499 269.491 44.0824 269.694 46.7149H266.949C266.724 45.5449 265.869 44.6561 264.474 44.6449C262.696 44.6561 261.504 46.1411 261.504 48.6049C261.504 51.1249 262.674 52.6211 264.474 52.6324C265.745 52.6211 266.69 51.8786 266.949 50.5624H269.694C269.48 53.1386 267.523 54.9724 264.451 54.9724ZM270.831 51.2824C270.831 48.5374 273.114 47.7386 275.376 47.5924C276.231 47.5249 277.974 47.4461 278.514 47.4236L278.503 46.4449C278.503 45.2299 277.727 44.5324 276.298 44.5324C275.016 44.5324 274.228 45.1174 274.003 45.9949H271.236C271.438 43.9136 273.306 42.3499 276.366 42.3499C278.683 42.3499 281.361 43.3061 281.361 46.5574V54.7249H278.616V53.0374H278.526C277.986 54.0724 276.849 54.9724 274.926 54.9724C272.597 54.9724 270.831 53.7011 270.831 51.2824ZM273.598 51.2599C273.598 52.3174 274.464 52.8574 275.668 52.8574C277.412 52.8574 278.526 51.7099 278.526 50.3374L278.514 49.3361C277.997 49.3586 276.399 49.4599 275.826 49.5049C274.464 49.6174 273.598 50.1911 273.598 51.2599ZM289.697 42.5074V44.7124H287.29V51.0574C287.29 52.2274 287.875 52.4636 288.595 52.4749C288.932 52.4861 289.495 52.4524 289.855 52.4299V54.7699C289.517 54.8261 288.966 54.8936 288.235 54.8824C286.075 54.8936 284.41 53.8249 284.432 51.5299V44.7124H282.677V42.5074H284.432V39.5824H287.29V42.5074H289.697ZM296.639 54.9724C293.073 54.9724 290.789 52.4411 290.789 48.6724C290.789 44.8699 293.073 42.3499 296.639 42.3499C300.217 42.3499 302.5 44.8699 302.489 48.6724C302.5 52.4411 300.217 54.9724 296.639 54.9724ZM293.692 48.6499C293.692 50.8886 294.67 52.6774 296.662 52.6774C298.619 52.6774 299.598 50.8886 299.587 48.6499C299.598 46.4111 298.619 44.6111 296.662 44.6224C294.67 44.6111 293.692 46.4111 293.692 48.6499ZM304.256 54.7249V42.5074H307.046V44.5324H307.181C307.619 43.1261 308.789 42.3274 310.196 42.3274C310.511 42.3274 310.961 42.3611 311.231 42.3949V45.0499C310.972 44.9599 310.376 44.8811 309.903 44.8699C308.306 44.8811 307.136 45.9836 307.136 47.5249V54.7249H304.256ZM319.41 45.9949C319.23 45.0724 318.465 44.4761 317.25 44.4874C316.024 44.4761 315.124 45.0949 315.135 45.9274C315.124 46.5574 315.63 47.0299 316.867 47.3224L318.937 47.7499C321.244 48.2561 322.369 49.3249 322.38 51.0799C322.369 53.3749 320.355 54.9724 317.16 54.9724C314.055 54.9724 312.221 53.5774 311.917 51.2374H314.842C315.011 52.2836 315.821 52.8011 317.16 52.7899C318.544 52.8011 319.444 52.2386 319.455 51.3274C319.444 50.6186 318.892 50.1686 317.677 49.9099L315.72 49.4824C313.447 49.0211 312.266 47.8286 312.277 46.0849C312.266 43.8236 314.224 42.3499 317.205 42.3499C320.119 42.3499 321.919 43.7786 322.132 45.9949H319.41ZM341.832 45.8374V47.2324H323.517V45.8374H341.832ZM325.722 50.1574V48.8299H339.537V53.0824H327.522V54.9949H340.189V56.2774H325.744V51.8674H337.782V50.1574H325.722ZM325.834 38.4349V37.1524H339.469V41.2924H327.657V43.0474H339.829V44.3299H325.902V40.0774H337.692V38.4349H325.834ZM366.538 47.1649V48.6049H348.29V47.1649H356.525V45.1849H350.72V37.1299H364.265V38.5699H352.498V40.4374H363.725V41.7874H352.498V43.7674H364.378V45.1849H358.28V47.1649H366.538ZM350.518 53.3074C350.506 51.2261 352.993 50.0899 357.425 50.1124C361.813 50.0899 364.288 51.2261 364.31 53.3074C364.288 55.4111 361.813 56.5024 357.425 56.5024C352.993 56.5024 350.506 55.4111 350.518 53.3074ZM352.295 53.3074C352.273 54.5224 354.118 55.1524 357.425 55.1299C360.699 55.1524 362.521 54.5224 362.533 53.3074C362.521 52.1149 360.699 51.4511 357.425 51.4399C354.118 51.4511 352.273 52.1149 352.295 53.3074ZM383.402 36.5674V43.1599H386.417V44.6449H383.402V51.5524H381.647V36.5674H383.402ZM367.809 40.4599V39.0199H372.894V36.5674H374.649V39.0199H379.734V40.4599H367.809ZM368.957 45.2974C368.945 43.0249 370.88 41.5624 373.772 41.5624C376.629 41.5624 378.564 43.0249 378.587 45.2974C378.564 47.5474 376.629 48.9986 373.772 48.9874C370.88 48.9986 368.945 47.5474 368.957 45.2974ZM370.644 45.2974C370.633 46.7036 371.882 47.6149 373.772 47.5924C375.639 47.6149 376.899 46.7036 376.922 45.2974C376.899 43.8686 375.639 42.9461 373.772 42.9574C371.882 42.9461 370.633 43.8686 370.644 45.2974ZM370.892 56.1199V50.3599H372.624V54.6349H384.324V56.1199H370.892ZM396.543 54.7249L392.088 38.4349H394.135L397.533 51.6199H397.69L401.133 38.4349H403.405L406.87 51.6199H407.005L410.403 38.4349H412.45L407.995 54.7249H405.903L402.348 41.8324H402.213L398.635 54.7249H396.543ZM417.727 54.9724C414.397 54.9836 412.147 52.4636 412.147 48.6724C412.147 44.8586 414.397 42.3499 417.727 42.3499C421.046 42.3499 423.273 44.8586 423.262 48.6724C423.273 52.4636 421.046 54.9836 417.727 54.9724ZM414.082 48.6724C414.093 51.1136 415.241 53.2624 417.727 53.2624C420.191 53.2624 421.327 51.1136 421.327 48.6724C421.327 46.2424 420.191 44.0599 417.727 44.0599C415.241 44.0599 414.093 46.2424 414.082 48.6724ZM425.344 54.7249V42.5074H427.211V44.3749H427.346C427.785 43.1374 429.056 42.3161 430.496 42.3049C430.789 42.3161 431.284 42.3274 431.509 42.3499V44.3074C431.362 44.2736 430.845 44.1724 430.339 44.1724C428.584 44.1724 427.279 45.3874 427.279 47.0299V54.7249H425.344ZM439.733 45.6799C439.463 44.6674 438.686 44.0036 437.258 43.9924C435.75 44.0036 434.681 44.8136 434.67 45.8374C434.681 46.6474 435.334 47.1986 436.763 47.5474L438.585 47.9974C440.768 48.5149 441.836 49.6061 441.848 51.3049C441.836 53.4199 440.115 54.9836 437.055 54.9724C434.31 54.9836 432.679 53.7574 432.353 51.5299H434.378C434.603 52.7224 435.469 53.2961 437.01 53.2849C438.754 53.2961 439.845 52.5649 439.845 51.4174C439.845 50.5511 439.226 49.9886 437.843 49.6624L435.998 49.2349C433.871 48.7399 432.735 47.5811 432.735 45.9499C432.735 43.8574 434.569 42.3499 437.258 42.3499C439.789 42.3499 441.375 43.6999 441.623 45.6799H439.733ZM449.239 42.5074V44.1274H446.674V51.2149C446.663 52.7786 447.451 53.0374 448.272 53.0374C448.621 53.0374 449.138 53.0036 449.419 52.9924V54.7924C449.116 54.8374 448.643 54.8824 448.069 54.8824C446.438 54.8824 444.728 53.8699 444.717 51.7099V44.1274H442.872V42.5074H444.717V39.5824H446.674V42.5074H449.239ZM456.845 54.7249V38.4349H462.38C466.194 38.4349 467.938 40.7074 467.938 43.6099C467.938 46.5011 466.194 48.8074 462.403 48.8074H458.87V54.7249H456.845ZM458.87 47.0074H462.313C464.912 47.0074 465.924 45.5449 465.935 43.6099C465.924 41.6636 464.912 40.2349 462.29 40.2349H458.87V47.0074ZM474.925 54.9724C471.595 54.9836 469.345 52.4636 469.345 48.6724C469.345 44.8586 471.595 42.3499 474.925 42.3499C478.243 42.3499 480.471 44.8586 480.46 48.6724C480.471 52.4636 478.243 54.9836 474.925 54.9724ZM471.28 48.6724C471.291 51.1136 472.438 53.2624 474.925 53.2624C477.388 53.2624 478.525 51.1136 478.525 48.6724C478.525 46.2424 477.388 44.0599 474.925 44.0599C472.438 44.0599 471.291 46.2424 471.28 48.6724ZM489.336 45.6799C489.066 44.6674 488.29 44.0036 486.861 43.9924C485.354 44.0036 484.285 44.8136 484.274 45.8374C484.285 46.6474 484.937 47.1986 486.366 47.5474L488.189 47.9974C490.371 48.5149 491.44 49.6061 491.451 51.3049C491.44 53.4199 489.719 54.9836 486.659 54.9724C483.914 54.9836 482.282 53.7574 481.956 51.5299H483.981C484.206 52.7224 485.072 53.2961 486.614 53.2849C488.357 53.2961 489.449 52.5649 489.449 51.4174C489.449 50.5511 488.83 49.9886 487.446 49.6624L485.601 49.2349C483.475 48.7399 482.339 47.5811 482.339 45.9499C482.339 43.8574 484.172 42.3499 486.861 42.3499C489.392 42.3499 490.979 43.6999 491.226 45.6799H489.336ZM493.51 54.7249V42.5074H495.445V54.7249H493.51ZM493.128 39.1999C493.117 38.4799 493.735 37.9061 494.478 37.9174C495.22 37.9061 495.839 38.4799 495.85 39.1999C495.839 39.9086 495.22 40.4824 494.478 40.4824C493.735 40.4824 493.117 39.9086 493.128 39.1999ZM503.4 42.5074V44.1274H500.835V51.2149C500.823 52.7786 501.611 53.0374 502.432 53.0374C502.781 53.0374 503.298 53.0036 503.58 52.9924V54.7924C503.276 54.8374 502.803 54.8824 502.23 54.8824C500.598 54.8824 498.888 53.8699 498.877 51.7099V44.1274H497.032V42.5074H498.877V39.5824H500.835V42.5074H503.4ZM505.436 54.7249V42.5074H507.371V54.7249H505.436ZM505.054 39.1999C505.043 38.4799 505.661 37.9061 506.404 37.9174C507.146 37.9061 507.765 38.4799 507.776 39.1999C507.765 39.9086 507.146 40.4824 506.404 40.4824C505.661 40.4824 505.043 39.9086 505.054 39.1999ZM514.988 54.9724C511.658 54.9836 509.408 52.4636 509.408 48.6724C509.408 44.8586 511.658 42.3499 514.988 42.3499C518.307 42.3499 520.534 44.8586 520.523 48.6724C520.534 52.4636 518.307 54.9836 514.988 54.9724ZM511.343 48.6724C511.354 51.1136 512.502 53.2624 514.988 53.2624C517.452 53.2624 518.588 51.1136 518.588 48.6724C518.588 46.2424 517.452 44.0599 514.988 44.0599C512.502 44.0599 511.354 46.2424 511.343 48.6724ZM524.54 47.3899V54.7249H522.605V42.5074H524.472V44.4199H524.63C525.203 43.1711 526.351 42.3499 528.207 42.3499C530.682 42.3499 532.336 43.8574 532.325 46.9624V54.7249H530.39V47.0974C530.39 45.2074 529.355 44.0824 527.622 44.0824C525.845 44.0824 524.54 45.2749 524.54 47.3899ZM546.388 40.3249C546.388 43.1149 548.413 45.7474 551.338 46.8049L550.348 48.1774C548.154 47.3111 546.399 45.5786 545.544 43.3961C544.701 45.8149 542.878 47.7274 540.516 48.6724L539.571 47.2324C542.574 46.1299 544.644 43.3286 544.656 40.2574V37.7824H546.388V40.3249ZM543.193 56.1199V49.8424H544.971V54.6349H556.581V56.1199H543.193ZM549.898 42.7549V41.2699H554.353V36.5674H556.131V51.5524H554.353V42.7549H549.898ZM575.582 36.5449V48.4699H573.805V43.2274H569.777V41.7649H573.805V36.5449H575.582ZM559.09 46.8724C562.06 45.8036 564.175 43.0924 564.175 40.2349V39.4924H559.652V38.0074H570.43V39.4924H565.952V40.2124C565.952 42.8224 567.955 45.3086 570.88 46.3099L569.957 47.7274C567.719 46.9174 565.975 45.2299 565.109 43.1711C564.254 45.5111 562.397 47.3786 560.012 48.2899L559.09 46.8724ZM562.24 52.8124C562.229 50.4611 564.782 49.0886 568.945 49.0999C573.096 49.0886 575.65 50.4611 575.65 52.8124C575.65 55.1749 573.096 56.5249 568.945 56.5474C564.782 56.5249 562.229 55.1749 562.24 52.8124ZM563.995 52.8124C563.984 54.2636 565.874 55.1411 568.945 55.1299C572.005 55.1411 573.895 54.2636 573.895 52.8124C573.895 51.3499 572.005 50.4724 568.945 50.4724C565.874 50.4724 563.984 51.3499 563.995 52.8124Z" fill="#7737FF"/>
<path d="M599.65 41.8462C600.822 40.6746 602.721 40.6746 603.893 41.8462L610.65 48.6035C612.54 50.4934 611.202 53.7249 608.529 53.7249H595.014C592.341 53.7249 591.003 50.4934 592.893 48.6035L599.65 41.8462Z" fill="#7737FF" fill-opacity="0.5"/>
<rect x="40" y="19.5249" width="54.4" height="54.4" rx="12.8" fill="#7737FF"/>
<path d="M63.0727 42.9124C62.9264 41.5061 61.7452 40.6961 59.9902 40.7074C58.1339 40.6961 57.0314 41.5961 57.0202 42.8224C57.0089 44.1949 58.4602 44.7574 59.8102 45.0724L61.3402 45.4774C63.7702 46.0399 66.1102 47.3224 66.1102 50.1574C66.1102 53.0149 63.8489 54.9724 59.9452 54.9724C56.1539 54.9724 53.7464 53.1499 53.6227 49.9324H56.5027C56.6377 51.6311 58.0664 52.4636 59.9227 52.4749C61.8464 52.4636 63.1739 51.5299 63.1852 50.1349C63.1739 48.8524 62.0039 48.3124 60.2377 47.8624L58.3927 47.3899C55.7152 46.6924 54.0502 45.3424 54.0502 43.0024C54.0502 40.1224 56.6039 38.2099 60.0352 38.2099C63.4889 38.2099 65.8402 40.1561 65.8852 42.9124H63.0727ZM67.6294 51.6874V49.3474L74.6719 38.4349H78.3169V49.2799H80.4544V51.6874H78.3169V54.7249H75.5269V51.6874H67.6294ZM70.6219 49.2799H75.5719V41.7649H75.3919L70.6219 49.1674V49.2799Z" fill="white"/>
</svg>
