<svg width="720" height="94" viewBox="0 0 720 94" fill="none" xmlns="http://www.w3.org/2000/svg">
<rect width="720" height="94" fill="white"/>
<rect x="94.4004" y="11.7998" width="541.742" height="70.4" rx="19.2" fill="white" fill-opacity="0.1"/>
<path d="M130.988 44.2C130.639 42.2425 129.075 41.1175 127.095 41.1175C124.429 41.1175 122.539 43.165 122.55 46.855C122.539 50.6012 124.44 52.5925 127.095 52.5925C129.03 52.5925 130.594 51.5125 130.988 49.6H133.935C133.485 52.7275 130.909 55.225 127.05 55.225C122.753 55.225 119.591 52.1087 119.603 46.855C119.591 41.59 122.786 38.485 127.05 38.485C130.65 38.485 133.429 40.5775 133.935 44.2H130.988ZM138.739 47.845V55H135.859V38.71H138.672V44.8525H138.829C139.38 43.4687 140.573 42.625 142.452 42.625C144.983 42.625 146.659 44.2675 146.659 47.215V55H143.802V47.665C143.79 46 142.902 45.0437 141.394 45.055C139.842 45.0437 138.739 46.0675 138.739 47.845ZM154.343 55.2475C150.665 55.2475 148.403 52.795 148.403 48.97C148.403 45.19 150.698 42.625 154.186 42.625C157.178 42.625 159.766 44.5037 159.766 48.79V49.69H151.238C151.283 51.7712 152.51 53.0087 154.366 52.9975C155.626 53.0087 156.47 52.4687 156.841 51.7375H159.653C159.136 53.8525 157.178 55.2475 154.343 55.2475ZM151.25 47.7325H157.021C157.01 46.0675 155.885 44.8525 154.231 44.8525C152.51 44.8525 151.351 46.18 151.25 47.7325ZM161.533 55V42.7825H164.278V44.8525H164.435C164.941 43.4575 166.168 42.625 167.788 42.625C169.441 42.625 170.634 43.4687 171.095 44.8525H171.23C171.759 43.5025 173.12 42.625 174.898 42.625C177.136 42.625 178.711 44.065 178.7 46.7875V55H175.843V47.2375C175.843 45.7187 174.92 45.0325 173.75 45.0325C172.344 45.0325 171.523 45.9887 171.523 47.3725V55H168.733V47.125C168.721 45.8537 167.889 45.0325 166.663 45.0325C165.425 45.0325 164.413 46.0562 164.413 47.575V55H161.533ZM180.984 55V42.7825H183.864V55H180.984ZM180.782 39.475C180.782 38.62 181.536 37.9225 182.447 37.9225C183.358 37.9225 184.112 38.62 184.112 39.475C184.112 40.3412 183.358 41.0387 182.447 41.05C181.536 41.0387 180.782 40.3412 180.782 39.475ZM191.481 55.2475C187.836 55.2475 185.631 52.6375 185.631 48.9475C185.631 45.2012 187.904 42.625 191.481 42.625C194.44 42.625 196.521 44.3575 196.724 46.99H193.979C193.754 45.82 192.899 44.9312 191.504 44.92C189.726 44.9312 188.534 46.4162 188.534 48.88C188.534 51.4 189.704 52.8962 191.504 52.9075C192.775 52.8962 193.72 52.1537 193.979 50.8375H196.724C196.51 53.4137 194.552 55.2475 191.481 55.2475ZM197.86 51.5575C197.86 48.8125 200.144 48.0137 202.405 47.8675C203.26 47.8 205.004 47.7212 205.544 47.6987L205.533 46.72C205.533 45.505 204.756 44.8075 203.328 44.8075C202.045 44.8075 201.258 45.3925 201.033 46.27H198.265C198.468 44.1887 200.335 42.625 203.395 42.625C205.713 42.625 208.39 43.5812 208.39 46.8325V55H205.645V53.3125H205.555C205.015 54.3475 203.879 55.2475 201.955 55.2475C199.626 55.2475 197.86 53.9762 197.86 51.5575ZM200.628 51.535C200.628 52.5925 201.494 53.1325 202.698 53.1325C204.441 53.1325 205.555 51.985 205.555 50.6125L205.544 49.6112C205.026 49.6337 203.429 49.735 202.855 49.78C201.494 49.8925 200.628 50.4662 200.628 51.535ZM213.509 38.71V55H210.629V38.71H213.509ZM223.86 38.71V55H220.935V38.71H223.86ZM229.182 47.845V55H226.302V42.7825H229.047V44.8525H229.205C229.756 43.4912 231.005 42.625 232.827 42.625C235.358 42.625 237.023 44.29 237.012 47.215V55H234.155V47.665C234.155 46.0225 233.266 45.0437 231.77 45.055C230.251 45.0437 229.182 46.0675 229.182 47.845ZM243.841 55.225C240.972 55.2138 238.801 52.9187 238.801 48.9025C238.801 44.83 241.029 42.625 243.864 42.625C246.012 42.625 246.912 43.9187 247.351 44.785H247.464V38.71H250.321V55H247.509V53.065H247.351C246.89 53.965 245.956 55.2138 243.841 55.225ZM241.726 48.88C241.726 51.1862 242.739 52.8625 244.629 52.8625C246.485 52.8625 247.531 51.265 247.531 48.88C247.531 46.5062 246.496 44.9762 244.629 44.965C242.716 44.9762 241.726 46.6075 241.726 48.88ZM252.763 55V42.7825H255.643V55H252.763ZM252.56 39.475C252.56 38.62 253.314 37.9225 254.225 37.9225C255.137 37.9225 255.89 38.62 255.89 39.475C255.89 40.3412 255.137 41.0387 254.225 41.05C253.314 41.0387 252.56 40.3412 252.56 39.475ZM263.26 55.2475C259.615 55.2475 257.41 52.6375 257.41 48.9475C257.41 45.2012 259.682 42.625 263.26 42.625C266.218 42.625 268.3 44.3575 268.502 46.99H265.757C265.532 45.82 264.677 44.9312 263.282 44.92C261.505 44.9312 260.312 46.4162 260.312 48.88C260.312 51.4 261.482 52.8962 263.282 52.9075C264.553 52.8962 265.498 52.1537 265.757 50.8375H268.502C268.288 53.4137 266.331 55.2475 263.26 55.2475ZM269.639 51.5575C269.639 48.8125 271.923 48.0137 274.184 47.8675C275.039 47.8 276.783 47.7212 277.323 47.6987L277.311 46.72C277.311 45.505 276.535 44.8075 275.106 44.8075C273.824 44.8075 273.036 45.3925 272.811 46.27H270.044C270.246 44.1887 272.114 42.625 275.174 42.625C277.491 42.625 280.169 43.5812 280.169 46.8325V55H277.424V53.3125H277.334C276.794 54.3475 275.658 55.2475 273.734 55.2475C271.405 55.2475 269.639 53.9762 269.639 51.5575ZM272.406 51.535C272.406 52.5925 273.273 53.1325 274.476 53.1325C276.22 53.1325 277.334 51.985 277.334 50.6125L277.323 49.6112C276.805 49.6337 275.208 49.735 274.634 49.78C273.273 49.8925 272.406 50.4662 272.406 51.535ZM288.506 42.7825V44.9875H286.098V51.3325C286.098 52.5025 286.683 52.7387 287.403 52.75C287.741 52.7612 288.303 52.7275 288.663 52.705V55.045C288.326 55.1013 287.774 55.1688 287.043 55.1575C284.883 55.1688 283.218 54.1 283.241 51.805V44.9875H281.486V42.7825H283.241V39.8575H286.098V42.7825H288.506ZM295.447 55.2475C291.881 55.2475 289.597 52.7162 289.597 48.9475C289.597 45.145 291.881 42.625 295.447 42.625C299.025 42.625 301.308 45.145 301.297 48.9475C301.308 52.7162 299.025 55.2475 295.447 55.2475ZM292.5 48.925C292.5 51.1637 293.478 52.9525 295.47 52.9525C297.427 52.9525 298.406 51.1637 298.395 48.925C298.406 46.6862 297.427 44.8862 295.47 44.8975C293.478 44.8862 292.5 46.6862 292.5 48.925ZM303.064 55V42.7825H305.854V44.8075H305.989C306.428 43.4012 307.598 42.6025 309.004 42.6025C309.319 42.6025 309.769 42.6362 310.039 42.67V45.325C309.78 45.235 309.184 45.1562 308.711 45.145C307.114 45.1562 305.944 46.2587 305.944 47.8V55H303.064ZM318.218 46.27C318.038 45.3475 317.273 44.7512 316.058 44.7625C314.832 44.7512 313.932 45.37 313.943 46.2025C313.932 46.8325 314.438 47.305 315.676 47.5975L317.746 48.025C320.052 48.5312 321.177 49.6 321.188 51.355C321.177 53.65 319.163 55.2475 315.968 55.2475C312.863 55.2475 311.029 53.8525 310.726 51.5125H313.651C313.819 52.5587 314.629 53.0762 315.968 53.065C317.352 53.0762 318.252 52.5137 318.263 51.6025C318.252 50.8937 317.701 50.4437 316.486 50.185L314.528 49.7575C312.256 49.2962 311.074 48.1037 311.086 46.36C311.074 44.0987 313.032 42.625 316.013 42.625C318.927 42.625 320.727 44.0537 320.941 46.27H318.218ZM340.64 46.1125V47.5075H322.325V46.1125H340.64ZM324.53 50.4325V49.105H338.345V53.3575H326.33V55.27H338.997V56.5525H324.552V52.1425H336.59V50.4325H324.53ZM324.642 38.71V37.4275H338.277V41.5675H326.465V43.3225H338.637V44.605H324.71V40.3525H336.5V38.71H324.642ZM365.346 47.44V48.88H347.098V47.44H355.333V45.46H349.528V37.405H363.073V38.845H351.306V40.7125H362.533V42.0625H351.306V44.0425H363.186V45.46H357.088V47.44H365.346ZM349.326 53.5825C349.314 51.5012 351.801 50.365 356.233 50.3875C360.621 50.365 363.096 51.5012 363.118 53.5825C363.096 55.6863 360.621 56.7775 356.233 56.7775C351.801 56.7775 349.314 55.6863 349.326 53.5825ZM351.103 53.5825C351.081 54.7975 352.926 55.4275 356.233 55.405C359.507 55.4275 361.329 54.7975 361.341 53.5825C361.329 52.39 359.507 51.7262 356.233 51.715C352.926 51.7262 351.081 52.39 351.103 53.5825ZM382.21 36.8425V43.435H385.225V44.92H382.21V51.8275H380.455V36.8425H382.21ZM366.617 40.735V39.295H371.702V36.8425H373.457V39.295H378.542V40.735H366.617ZM367.765 45.5725C367.754 43.3 369.689 41.8375 372.58 41.8375C375.437 41.8375 377.372 43.3 377.395 45.5725C377.372 47.8225 375.437 49.2737 372.58 49.2625C369.689 49.2737 367.754 47.8225 367.765 45.5725ZM369.452 45.5725C369.441 46.9787 370.69 47.89 372.58 47.8675C374.447 47.89 375.707 46.9787 375.73 45.5725C375.707 44.1437 374.447 43.2212 372.58 43.2325C370.69 43.2212 369.441 44.1437 369.452 45.5725ZM369.7 56.395V50.635H371.432V54.91H383.132V56.395H369.7ZM395.351 55L390.896 38.71H392.943L396.341 51.895H396.498L399.941 38.71H402.213L405.678 51.895H405.813L409.211 38.71H411.258L406.803 55H404.711L401.156 42.1075H401.021L397.443 55H395.351ZM416.535 55.2475C413.205 55.2588 410.955 52.7387 410.955 48.9475C410.955 45.1337 413.205 42.625 416.535 42.625C419.854 42.625 422.081 45.1337 422.07 48.9475C422.081 52.7387 419.854 55.2588 416.535 55.2475ZM412.89 48.9475C412.901 51.3887 414.049 53.5375 416.535 53.5375C418.999 53.5375 420.135 51.3887 420.135 48.9475C420.135 46.5175 418.999 44.335 416.535 44.335C414.049 44.335 412.901 46.5175 412.89 48.9475ZM424.152 55V42.7825H426.019V44.65H426.154C426.593 43.4125 427.864 42.5912 429.304 42.58C429.597 42.5912 430.092 42.6025 430.317 42.625V44.5825C430.17 44.5487 429.653 44.4475 429.147 44.4475C427.392 44.4475 426.087 45.6625 426.087 47.305V55H424.152ZM438.541 45.955C438.271 44.9425 437.495 44.2787 436.066 44.2675C434.558 44.2787 433.49 45.0887 433.478 46.1125C433.49 46.9225 434.142 47.4737 435.571 47.8225L437.393 48.2725C439.576 48.79 440.645 49.8812 440.656 51.58C440.645 53.695 438.923 55.2588 435.863 55.2475C433.118 55.2588 431.487 54.0325 431.161 51.805H433.186C433.411 52.9975 434.277 53.5712 435.818 53.56C437.562 53.5712 438.653 52.84 438.653 51.6925C438.653 50.8262 438.035 50.2637 436.651 49.9375L434.806 49.51C432.68 49.015 431.543 47.8562 431.543 46.225C431.543 44.1325 433.377 42.625 436.066 42.625C438.597 42.625 440.183 43.975 440.431 45.955H438.541ZM448.048 42.7825V44.4025H445.483V51.49C445.471 53.0537 446.259 53.3125 447.08 53.3125C447.429 53.3125 447.946 53.2787 448.228 53.2675V55.0675C447.924 55.1125 447.451 55.1575 446.878 55.1575C445.246 55.1575 443.536 54.145 443.525 51.985V44.4025H441.68V42.7825H443.525V39.8575H445.483V42.7825H448.048ZM455.654 55V38.71H461.189C465.002 38.71 466.746 40.9825 466.746 43.885C466.746 46.7762 465.002 49.0825 461.211 49.0825H457.679V55H455.654ZM457.679 47.2825H461.121C463.72 47.2825 464.732 45.82 464.744 43.885C464.732 41.9387 463.72 40.51 461.099 40.51H457.679V47.2825ZM473.733 55.2475C470.403 55.2588 468.153 52.7387 468.153 48.9475C468.153 45.1337 470.403 42.625 473.733 42.625C477.051 42.625 479.279 45.1337 479.268 48.9475C479.279 52.7387 477.051 55.2588 473.733 55.2475ZM470.088 48.9475C470.099 51.3887 471.246 53.5375 473.733 53.5375C476.196 53.5375 477.333 51.3887 477.333 48.9475C477.333 46.5175 476.196 44.335 473.733 44.335C471.246 44.335 470.099 46.5175 470.088 48.9475ZM488.144 45.955C487.874 44.9425 487.098 44.2787 485.669 44.2675C484.162 44.2787 483.093 45.0887 483.082 46.1125C483.093 46.9225 483.746 47.4737 485.174 47.8225L486.997 48.2725C489.179 48.79 490.248 49.8812 490.259 51.58C490.248 53.695 488.527 55.2588 485.467 55.2475C482.722 55.2588 481.091 54.0325 480.764 51.805H482.789C483.014 52.9975 483.881 53.5712 485.422 53.56C487.166 53.5712 488.257 52.84 488.257 51.6925C488.257 50.8262 487.638 50.2637 486.254 49.9375L484.409 49.51C482.283 49.015 481.147 47.8562 481.147 46.225C481.147 44.1325 482.981 42.625 485.669 42.625C488.201 42.625 489.787 43.975 490.034 45.955H488.144ZM492.319 55V42.7825H494.254V55H492.319ZM491.936 39.475C491.925 38.755 492.544 38.1812 493.286 38.1925C494.029 38.1812 494.647 38.755 494.659 39.475C494.647 40.1837 494.029 40.7575 493.286 40.7575C492.544 40.7575 491.925 40.1837 491.936 39.475ZM502.208 42.7825V44.4025H499.643V51.49C499.632 53.0537 500.419 53.3125 501.24 53.3125C501.589 53.3125 502.107 53.2787 502.388 53.2675V55.0675C502.084 55.1125 501.612 55.1575 501.038 55.1575C499.407 55.1575 497.697 54.145 497.685 51.985V44.4025H495.84V42.7825H497.685V39.8575H499.643V42.7825H502.208ZM504.245 55V42.7825H506.18V55H504.245ZM503.862 39.475C503.851 38.755 504.47 38.1812 505.212 38.1925C505.955 38.1812 506.573 38.755 506.585 39.475C506.573 40.1837 505.955 40.7575 505.212 40.7575C504.47 40.7575 503.851 40.1837 503.862 39.475ZM513.796 55.2475C510.466 55.2588 508.216 52.7387 508.216 48.9475C508.216 45.1337 510.466 42.625 513.796 42.625C517.115 42.625 519.342 45.1337 519.331 48.9475C519.342 52.7387 517.115 55.2588 513.796 55.2475ZM510.151 48.9475C510.162 51.3887 511.31 53.5375 513.796 53.5375C516.26 53.5375 517.396 51.3887 517.396 48.9475C517.396 46.5175 516.26 44.335 513.796 44.335C511.31 44.335 510.162 46.5175 510.151 48.9475ZM523.348 47.665V55H521.413V42.7825H523.28V44.695H523.438C524.012 43.4462 525.159 42.625 527.015 42.625C529.49 42.625 531.144 44.1325 531.133 47.2375V55H529.198V47.3725C529.198 45.4825 528.163 44.3575 526.43 44.3575C524.653 44.3575 523.348 45.55 523.348 47.665ZM545.196 40.6C545.196 43.39 547.221 46.0225 550.146 47.08L549.156 48.4525C546.963 47.5862 545.208 45.8537 544.353 43.6712C543.509 46.09 541.686 48.0025 539.324 48.9475L538.379 47.5075C541.383 46.405 543.453 43.6037 543.464 40.5325V38.0575H545.196V40.6ZM542.001 56.395V50.1175H543.779V54.91H555.389V56.395H542.001ZM548.706 43.03V41.545H553.161V36.8425H554.939V51.8275H553.161V43.03H548.706ZM574.391 36.82V48.745H572.613V43.5025H568.586V42.04H572.613V36.82H574.391ZM557.898 47.1475C560.868 46.0787 562.983 43.3675 562.983 40.51V39.7675H558.461V38.2825H569.238V39.7675H564.761V40.4875C564.761 43.0975 566.763 45.5837 569.688 46.585L568.766 48.0025C566.527 47.1925 564.783 45.505 563.917 43.4462C563.062 45.7862 561.206 47.6537 558.821 48.565L557.898 47.1475ZM561.048 53.0875C561.037 50.7362 563.591 49.3637 567.753 49.375C571.904 49.3637 574.458 50.7362 574.458 53.0875C574.458 55.45 571.904 56.8 567.753 56.8225C563.591 56.8 561.037 55.45 561.048 53.0875ZM562.803 53.0875C562.792 54.5387 564.682 55.4163 567.753 55.405C570.813 55.4163 572.703 54.5387 572.703 53.0875C572.703 51.625 570.813 50.7475 567.753 50.7475C564.682 50.7475 562.792 51.625 562.803 53.0875Z" fill="#7737FF"/>
<path d="M597.761 52.0814C598.718 53.1798 600.425 53.1798 601.381 52.0814L608.579 43.8158C609.932 42.2629 608.829 39.8397 606.77 39.8397H592.373C590.314 39.8397 589.211 42.2629 590.563 43.8158L597.761 52.0814Z" fill="#7737FF"/>
<rect x="40" y="19.7998" width="54.4" height="54.4" rx="12.8" fill="#7737FF"/>
<path d="M63.0727 43.1875C62.9264 41.7812 61.7452 40.9712 59.9902 40.9825C58.1339 40.9712 57.0314 41.8712 57.0202 43.0975C57.0089 44.47 58.4602 45.0325 59.8102 45.3475L61.3402 45.7525C63.7702 46.315 66.1102 47.5975 66.1102 50.4325C66.1102 53.29 63.8489 55.2475 59.9452 55.2475C56.1539 55.2475 53.7464 53.425 53.6227 50.2075H56.5027C56.6377 51.9062 58.0664 52.7387 59.9227 52.75C61.8464 52.7387 63.1739 51.805 63.1852 50.41C63.1739 49.1275 62.0039 48.5875 60.2377 48.1375L58.3927 47.665C55.7152 46.9675 54.0502 45.6175 54.0502 43.2775C54.0502 40.3975 56.6039 38.485 60.0352 38.485C63.4889 38.485 65.8402 40.4312 65.8852 43.1875H63.0727ZM73.8394 55.225C70.3631 55.225 67.8769 53.335 67.8094 50.59H70.7569C70.8356 51.895 72.1406 52.7612 73.8394 52.75C75.6281 52.7612 76.9219 51.7712 76.9219 50.32C76.9219 48.8575 75.6619 47.8112 73.5469 47.8H72.0844V45.55H73.5469C75.2794 45.55 76.4831 44.5825 76.4719 43.165C76.4831 41.7925 75.4481 40.87 73.8619 40.87C72.3319 40.87 71.0156 41.725 70.9594 43.0975H68.1469C68.2144 40.3637 70.7006 38.485 73.8844 38.485C77.1919 38.485 79.3294 40.51 79.3069 43.0075C79.3294 44.83 78.1144 46.1462 76.3369 46.5175V46.6525C78.6319 46.9562 79.9369 48.43 79.9144 50.4775C79.9369 53.2337 77.3606 55.225 73.8394 55.225Z" fill="white"/>
</svg>
