<svg width="720" height="94" viewBox="0 0 720 94" fill="none" xmlns="http://www.w3.org/2000/svg">
<rect width="720" height="94" fill="white"/>
<rect x="94.4004" y="12" width="541.742" height="70.4" rx="19.2" fill="white" fill-opacity="0.1"/>
<path d="M129.458 44.4C129.109 42.4425 127.546 41.3175 125.566 41.3175C122.899 41.3175 121.009 43.365 121.021 47.055C121.009 50.8012 122.911 52.7925 125.566 52.7925C127.501 52.7925 129.064 51.7125 129.458 49.8H132.406C131.956 52.9275 129.379 55.425 125.521 55.425C121.223 55.425 118.062 52.3087 118.073 47.055C118.062 41.79 121.257 38.685 125.521 38.685C129.121 38.685 131.899 40.7775 132.406 44.4H129.458ZM137.21 48.045V55.2H134.33V38.91H137.142V45.0525H137.3C137.851 43.6687 139.044 42.825 140.922 42.825C143.454 42.825 145.13 44.4675 145.13 47.415V55.2H142.272V47.865C142.261 46.2 141.372 45.2437 139.865 45.255C138.312 45.2437 137.21 46.2675 137.21 48.045ZM152.814 55.4475C149.135 55.4475 146.874 52.995 146.874 49.17C146.874 45.39 149.169 42.825 152.657 42.825C155.649 42.825 158.237 44.7037 158.237 48.99V49.89H149.709C149.754 51.9712 150.98 53.2087 152.837 53.1975C154.097 53.2087 154.94 52.6687 155.312 51.9375H158.124C157.607 54.0525 155.649 55.4475 152.814 55.4475ZM149.72 47.9325H155.492C155.48 46.2675 154.355 45.0525 152.702 45.0525C150.98 45.0525 149.822 46.38 149.72 47.9325ZM160.003 55.2V42.9825H162.748V45.0525H162.906C163.412 43.6575 164.638 42.825 166.258 42.825C167.912 42.825 169.105 43.6687 169.566 45.0525H169.701C170.23 43.7025 171.591 42.825 173.368 42.825C175.607 42.825 177.182 44.265 177.171 46.9875V55.2H174.313V47.4375C174.313 45.9187 173.391 45.2325 172.221 45.2325C170.815 45.2325 169.993 46.1887 169.993 47.5725V55.2H167.203V47.325C167.192 46.0537 166.36 45.2325 165.133 45.2325C163.896 45.2325 162.883 46.2562 162.883 47.775V55.2H160.003ZM179.455 55.2V42.9825H182.335V55.2H179.455ZM179.253 39.675C179.253 38.82 180.006 38.1225 180.918 38.1225C181.829 38.1225 182.583 38.82 182.583 39.675C182.583 40.5412 181.829 41.2387 180.918 41.25C180.006 41.2387 179.253 40.5412 179.253 39.675ZM189.952 55.4475C186.307 55.4475 184.102 52.8375 184.102 49.1475C184.102 45.4012 186.374 42.825 189.952 42.825C192.91 42.825 194.992 44.5575 195.194 47.19H192.449C192.224 46.02 191.369 45.1312 189.974 45.12C188.197 45.1312 187.004 46.6162 187.004 49.08C187.004 51.6 188.174 53.0962 189.974 53.1075C191.245 53.0962 192.19 52.3537 192.449 51.0375H195.194C194.98 53.6137 193.023 55.4475 189.952 55.4475ZM196.331 51.7575C196.331 49.0125 198.615 48.2137 200.876 48.0675C201.731 48 203.475 47.9212 204.015 47.8987L204.003 46.92C204.003 45.705 203.227 45.0075 201.798 45.0075C200.516 45.0075 199.728 45.5925 199.503 46.47H196.736C196.938 44.3887 198.806 42.825 201.866 42.825C204.183 42.825 206.861 43.7812 206.861 47.0325V55.2H204.116V53.5125H204.026C203.486 54.5475 202.35 55.4475 200.426 55.4475C198.097 55.4475 196.331 54.1762 196.331 51.7575ZM199.098 51.735C199.098 52.7925 199.965 53.3325 201.168 53.3325C202.912 53.3325 204.026 52.185 204.026 50.8125L204.015 49.8112C203.497 49.8337 201.9 49.935 201.326 49.98C199.965 50.0925 199.098 50.6662 199.098 51.735ZM211.98 38.91V55.2H209.1V38.91H211.98ZM222.331 38.91V55.2H219.406V38.91H222.331ZM227.653 48.045V55.2H224.773V42.9825H227.518V45.0525H227.675C228.226 43.6912 229.475 42.825 231.298 42.825C233.829 42.825 235.494 44.49 235.483 47.415V55.2H232.625V47.865C232.625 46.2225 231.736 45.2437 230.24 45.255C228.721 45.2437 227.653 46.2675 227.653 48.045ZM242.312 55.425C239.443 55.4137 237.272 53.1187 237.272 49.1025C237.272 45.03 239.499 42.825 242.334 42.825C244.483 42.825 245.383 44.1187 245.822 44.985H245.934V38.91H248.792V55.2H245.979V53.265H245.822C245.361 54.165 244.427 55.4137 242.312 55.425ZM240.197 49.08C240.197 51.3862 241.209 53.0625 243.099 53.0625C244.956 53.0625 246.002 51.465 246.002 49.08C246.002 46.7062 244.967 45.1762 243.099 45.165C241.187 45.1762 240.197 46.8075 240.197 49.08ZM251.234 55.2V42.9825H254.114V55.2H251.234ZM251.031 39.675C251.031 38.82 251.785 38.1225 252.696 38.1225C253.607 38.1225 254.361 38.82 254.361 39.675C254.361 40.5412 253.607 41.2387 252.696 41.25C251.785 41.2387 251.031 40.5412 251.031 39.675ZM261.73 55.4475C258.085 55.4475 255.88 52.8375 255.88 49.1475C255.88 45.4012 258.153 42.825 261.73 42.825C264.689 42.825 266.77 44.5575 266.973 47.19H264.228C264.003 46.02 263.148 45.1312 261.753 45.12C259.975 45.1312 258.783 46.6162 258.783 49.08C258.783 51.6 259.953 53.0962 261.753 53.1075C263.024 53.0962 263.969 52.3537 264.228 51.0375H266.973C266.759 53.6137 264.802 55.4475 261.73 55.4475ZM268.11 51.7575C268.11 49.0125 270.393 48.2137 272.655 48.0675C273.51 48 275.253 47.9212 275.793 47.8987L275.782 46.92C275.782 45.705 275.006 45.0075 273.577 45.0075C272.295 45.0075 271.507 45.5925 271.282 46.47H268.515C268.717 44.3887 270.585 42.825 273.645 42.825C275.962 42.825 278.64 43.7812 278.64 47.0325V55.2H275.895V53.5125H275.805C275.265 54.5475 274.128 55.4475 272.205 55.4475C269.876 55.4475 268.11 54.1762 268.11 51.7575ZM270.877 51.735C270.877 52.7925 271.743 53.3325 272.947 53.3325C274.691 53.3325 275.805 52.185 275.805 50.8125L275.793 49.8112C275.276 49.8337 273.678 49.935 273.105 49.98C271.743 50.0925 270.877 50.6662 270.877 51.735ZM286.976 42.9825V45.1875H284.569V51.5325C284.569 52.7025 285.154 52.9387 285.874 52.95C286.211 52.9612 286.774 52.9275 287.134 52.905V55.245C286.796 55.3012 286.245 55.3687 285.514 55.3575C283.354 55.3687 281.689 54.3 281.711 52.005V45.1875H279.956V42.9825H281.711V40.0575H284.569V42.9825H286.976ZM293.918 55.4475C290.352 55.4475 288.068 52.9162 288.068 49.1475C288.068 45.345 290.352 42.825 293.918 42.825C297.495 42.825 299.779 45.345 299.768 49.1475C299.779 52.9162 297.495 55.4475 293.918 55.4475ZM290.97 49.125C290.97 51.3637 291.949 53.1525 293.94 53.1525C295.898 53.1525 296.877 51.3637 296.865 49.125C296.877 46.8862 295.898 45.0862 293.94 45.0975C291.949 45.0862 290.97 46.8862 290.97 49.125ZM301.535 55.2V42.9825H304.325V45.0075H304.46C304.898 43.6012 306.068 42.8025 307.475 42.8025C307.79 42.8025 308.24 42.8362 308.51 42.87V45.525C308.251 45.435 307.655 45.3562 307.182 45.345C305.585 45.3562 304.415 46.4587 304.415 48V55.2H301.535ZM316.689 46.47C316.509 45.5475 315.744 44.9512 314.529 44.9625C313.303 44.9512 312.403 45.57 312.414 46.4025C312.403 47.0325 312.909 47.505 314.146 47.7975L316.216 48.225C318.523 48.7312 319.648 49.8 319.659 51.555C319.648 53.85 317.634 55.4475 314.439 55.4475C311.334 55.4475 309.5 54.0525 309.196 51.7125H312.121C312.29 52.7587 313.1 53.2762 314.439 53.265C315.823 53.2762 316.723 52.7137 316.734 51.8025C316.723 51.0937 316.171 50.6437 314.956 50.385L312.999 49.9575C310.726 49.4962 309.545 48.3037 309.556 46.56C309.545 44.2987 311.503 42.825 314.484 42.825C317.398 42.825 319.198 44.2537 319.411 46.47H316.689ZM339.111 46.3125V47.7075H320.796V46.3125H339.111ZM323.001 50.6325V49.305H336.816V53.5575H324.801V55.47H337.468V56.7525H323.023V52.3425H335.061V50.6325H323.001ZM323.113 38.91V37.6275H336.748V41.7675H324.936V43.5225H337.108V44.805H323.181V40.5525H334.971V38.91H323.113ZM363.816 47.64V49.08H345.569V47.64H353.804V45.66H347.999V37.605H361.544V39.045H349.776V40.9125H361.004V42.2625H349.776V44.2425H361.656V45.66H355.559V47.64H363.816ZM347.796 53.7825C347.785 51.7012 350.271 50.565 354.704 50.5875C359.091 50.565 361.566 51.7012 361.589 53.7825C361.566 55.8862 359.091 56.9775 354.704 56.9775C350.271 56.9775 347.785 55.8862 347.796 53.7825ZM349.574 53.7825C349.551 54.9975 351.396 55.6275 354.704 55.605C357.978 55.6275 359.8 54.9975 359.811 53.7825C359.8 52.59 357.978 51.9262 354.704 51.915C351.396 51.9262 349.551 52.59 349.574 53.7825ZM380.681 37.0425V43.635H383.696V45.12H380.681V52.0275H378.926V37.0425H380.681ZM365.088 40.935V39.495H370.173V37.0425H371.928V39.495H377.013V40.935H365.088ZM366.236 45.7725C366.224 43.5 368.159 42.0375 371.051 42.0375C373.908 42.0375 375.843 43.5 375.866 45.7725C375.843 48.0225 373.908 49.4737 371.051 49.4625C368.159 49.4737 366.224 48.0225 366.236 45.7725ZM367.923 45.7725C367.912 47.1787 369.161 48.09 371.051 48.0675C372.918 48.09 374.178 47.1787 374.201 45.7725C374.178 44.3437 372.918 43.4212 371.051 43.4325C369.161 43.4212 367.912 44.3437 367.923 45.7725ZM368.171 56.595V50.835H369.903V55.11H381.603V56.595H368.171ZM393.822 55.2L389.367 38.91H391.414L394.812 52.095H394.969L398.412 38.91H400.684L404.149 52.095H404.284L407.682 38.91H409.729L405.274 55.2H403.182L399.627 42.3075H399.492L395.914 55.2H393.822ZM415.006 55.4475C411.676 55.4587 409.426 52.9387 409.426 49.1475C409.426 45.3337 411.676 42.825 415.006 42.825C418.324 42.825 420.552 45.3337 420.541 49.1475C420.552 52.9387 418.324 55.4587 415.006 55.4475ZM411.361 49.1475C411.372 51.5887 412.519 53.7375 415.006 53.7375C417.469 53.7375 418.606 51.5887 418.606 49.1475C418.606 46.7175 417.469 44.535 415.006 44.535C412.519 44.535 411.372 46.7175 411.361 49.1475ZM422.622 55.2V42.9825H424.49V44.85H424.625C425.064 43.6125 426.335 42.7912 427.775 42.78C428.067 42.7912 428.562 42.8025 428.787 42.825V44.7825C428.641 44.7487 428.124 44.6475 427.617 44.6475C425.862 44.6475 424.557 45.8625 424.557 47.505V55.2H422.622ZM437.012 46.155C436.742 45.1425 435.965 44.4787 434.537 44.4675C433.029 44.4787 431.96 45.2887 431.949 46.3125C431.96 47.1225 432.613 47.6737 434.042 48.0225L435.864 48.4725C438.047 48.99 439.115 50.0812 439.127 51.78C439.115 53.895 437.394 55.4587 434.334 55.4475C431.589 55.4587 429.958 54.2325 429.632 52.005H431.657C431.882 53.1975 432.748 53.7712 434.289 53.76C436.033 53.7712 437.124 53.04 437.124 51.8925C437.124 51.0262 436.505 50.4637 435.122 50.1375L433.277 49.71C431.15 49.215 430.014 48.0562 430.014 46.425C430.014 44.3325 431.848 42.825 434.537 42.825C437.068 42.825 438.654 44.175 438.902 46.155H437.012ZM446.518 42.9825V44.6025H443.953V51.69C443.942 53.2537 444.73 53.5125 445.551 53.5125C445.9 53.5125 446.417 53.4787 446.698 53.4675V55.2675C446.395 55.3125 445.922 55.3575 445.348 55.3575C443.717 55.3575 442.007 54.345 441.996 52.185V44.6025H440.151V42.9825H441.996V40.0575H443.953V42.9825H446.518ZM454.124 55.2V38.91H459.659C463.473 38.91 465.217 41.1825 465.217 44.085C465.217 46.9762 463.473 49.2825 459.682 49.2825H456.149V55.2H454.124ZM456.149 47.4825H459.592C462.19 47.4825 463.203 46.02 463.214 44.085C463.203 42.1387 462.19 40.71 459.569 40.71H456.149V47.4825ZM472.203 55.4475C468.873 55.4587 466.623 52.9387 466.623 49.1475C466.623 45.3337 468.873 42.825 472.203 42.825C475.522 42.825 477.75 45.3337 477.738 49.1475C477.75 52.9387 475.522 55.4587 472.203 55.4475ZM468.558 49.1475C468.57 51.5887 469.717 53.7375 472.203 53.7375C474.667 53.7375 475.803 51.5887 475.803 49.1475C475.803 46.7175 474.667 44.535 472.203 44.535C469.717 44.535 468.57 46.7175 468.558 49.1475ZM486.615 46.155C486.345 45.1425 485.569 44.4787 484.14 44.4675C482.633 44.4787 481.564 45.2887 481.553 46.3125C481.564 47.1225 482.216 47.6737 483.645 48.0225L485.468 48.4725C487.65 48.99 488.719 50.0812 488.73 51.78C488.719 53.895 486.998 55.4587 483.938 55.4475C481.193 55.4587 479.561 54.2325 479.235 52.005H481.26C481.485 53.1975 482.351 53.7712 483.893 53.76C485.636 53.7712 486.728 53.04 486.728 51.8925C486.728 51.0262 486.109 50.4637 484.725 50.1375L482.88 49.71C480.754 49.215 479.618 48.0562 479.618 46.425C479.618 44.3325 481.451 42.825 484.14 42.825C486.671 42.825 488.258 44.175 488.505 46.155H486.615ZM490.789 55.2V42.9825H492.724V55.2H490.789ZM490.407 39.675C490.396 38.955 491.014 38.3812 491.757 38.3925C492.499 38.3812 493.118 38.955 493.129 39.675C493.118 40.3837 492.499 40.9575 491.757 40.9575C491.014 40.9575 490.396 40.3837 490.407 39.675ZM500.679 42.9825V44.6025H498.114V51.69C498.102 53.2537 498.89 53.5125 499.711 53.5125C500.06 53.5125 500.577 53.4787 500.859 53.4675V55.2675C500.555 55.3125 500.082 55.3575 499.509 55.3575C497.877 55.3575 496.167 54.345 496.156 52.185V44.6025H494.311V42.9825H496.156V40.0575H498.114V42.9825H500.679ZM502.715 55.2V42.9825H504.65V55.2H502.715ZM502.333 39.675C502.321 38.955 502.94 38.3812 503.683 38.3925C504.425 38.3812 505.044 38.955 505.055 39.675C505.044 40.3837 504.425 40.9575 503.683 40.9575C502.94 40.9575 502.321 40.3837 502.333 39.675ZM512.267 55.4475C508.937 55.4587 506.687 52.9387 506.687 49.1475C506.687 45.3337 508.937 42.825 512.267 42.825C515.586 42.825 517.813 45.3337 517.802 49.1475C517.813 52.9387 515.586 55.4587 512.267 55.4475ZM508.622 49.1475C508.633 51.5887 509.781 53.7375 512.267 53.7375C514.731 53.7375 515.867 51.5887 515.867 49.1475C515.867 46.7175 514.731 44.535 512.267 44.535C509.781 44.535 508.633 46.7175 508.622 49.1475ZM521.819 47.865V55.2H519.884V42.9825H521.751V44.895H521.909C522.482 43.6462 523.63 42.825 525.486 42.825C527.961 42.825 529.615 44.3325 529.604 47.4375V55.2H527.669V47.5725C527.669 45.6825 526.634 44.5575 524.901 44.5575C523.124 44.5575 521.819 45.75 521.819 47.865ZM543.667 40.8C543.667 43.59 545.692 46.2225 548.617 47.28L547.627 48.6525C545.433 47.7862 543.678 46.0537 542.823 43.8712C541.98 46.29 540.157 48.2025 537.795 49.1475L536.85 47.7075C539.853 46.605 541.923 43.8037 541.935 40.7325V38.2575H543.667V40.8ZM540.472 56.595V50.3175H542.25V55.11H553.86V56.595H540.472ZM547.177 43.23V41.745H551.632V37.0425H553.41V52.0275H551.632V43.23H547.177ZM572.861 37.02V48.945H571.084V43.7025H567.056V42.24H571.084V37.02H572.861ZM556.369 47.3475C559.339 46.2787 561.454 43.5675 561.454 40.71V39.9675H556.931V38.4825H567.709V39.9675H563.231V40.6875C563.231 43.2975 565.234 45.7837 568.159 46.785L567.236 48.2025C564.997 47.3925 563.254 45.705 562.387 43.6462C561.532 45.9862 559.676 47.8537 557.291 48.765L556.369 47.3475ZM559.519 53.2875C559.507 50.9362 562.061 49.5637 566.224 49.575C570.375 49.5637 572.929 50.9362 572.929 53.2875C572.929 55.65 570.375 57 566.224 57.0225C562.061 57 559.507 55.65 559.519 53.2875ZM561.274 53.2875C561.262 54.7387 563.152 55.6162 566.224 55.605C569.284 55.6162 571.174 54.7387 571.174 53.2875C571.174 51.825 569.284 50.9475 566.224 50.9475C563.152 50.9475 561.262 51.825 561.274 53.2875Z" fill="#7737FF"/>
<path d="M597.45 42.3213C598.622 41.1497 600.521 41.1497 601.693 42.3213L608.45 49.0786C610.34 50.9685 609.001 54.2 606.329 54.2H592.814C590.141 54.2 588.803 50.9685 590.693 49.0786L597.45 42.3213Z" fill="#7737FF" fill-opacity="0.5"/>
<rect x="40" y="20" width="54.4" height="54.4" rx="12.8" fill="#7737FF"/>
<path d="M63.0727 43.3875C62.9264 41.9812 61.7452 41.1712 59.9902 41.1825C58.1339 41.1712 57.0314 42.0712 57.0202 43.2975C57.0089 44.67 58.4602 45.2325 59.8102 45.5475L61.3402 45.9525C63.7702 46.515 66.1102 47.7975 66.1102 50.6325C66.1102 53.49 63.8489 55.4475 59.9452 55.4475C56.1539 55.4475 53.7464 53.625 53.6227 50.4075H56.5027C56.6377 52.1062 58.0664 52.9387 59.9227 52.95C61.8464 52.9387 63.1739 52.005 63.1852 50.61C63.1739 49.3275 62.0039 48.7875 60.2377 48.3375L58.3927 47.865C55.7152 47.1675 54.0502 45.8175 54.0502 43.4775C54.0502 40.5975 56.6039 38.685 60.0352 38.685C63.4889 38.685 65.8402 40.6312 65.8852 43.3875H63.0727ZM73.8394 55.425C70.3631 55.425 67.8769 53.535 67.8094 50.79H70.7569C70.8356 52.095 72.1406 52.9612 73.8394 52.95C75.6281 52.9612 76.9219 51.9712 76.9219 50.52C76.9219 49.0575 75.6619 48.0112 73.5469 48H72.0844V45.75H73.5469C75.2794 45.75 76.4831 44.7825 76.4719 43.365C76.4831 41.9925 75.4481 41.07 73.8619 41.07C72.3319 41.07 71.0156 41.925 70.9594 43.2975H68.1469C68.2144 40.5637 70.7006 38.685 73.8844 38.685C77.1919 38.685 79.3294 40.71 79.3069 43.2075C79.3294 45.03 78.1144 46.3462 76.3369 46.7175V46.8525C78.6319 47.1562 79.9369 48.63 79.9144 50.6775C79.9369 53.4337 77.3606 55.425 73.8394 55.425Z" fill="white"/>
</svg>
