<svg width="720" height="94" viewBox="0 0 720 94" fill="none" xmlns="http://www.w3.org/2000/svg">
<rect width="720" height="94" fill="white"/>
<rect x="94.4004" y="12.3999" width="420.942" height="70.4" rx="19.2" fill="white" fill-opacity="0.1"/>
<path d="M137.316 47.8601V49.8851H118.776V47.8601H126.763V46.0601C123.039 45.7901 120.688 44.3051 120.688 41.9426C120.688 39.3888 123.579 37.8251 128.023 37.8251C132.456 37.8251 135.347 39.3888 135.358 41.9426C135.347 44.3051 132.996 45.7901 129.283 46.0601V47.8601H137.316ZM121.071 57.1976V51.2801H123.568V55.1726H135.223V57.1976H121.071ZM123.298 41.9426C123.276 43.3488 125.064 44.0913 128.023 44.0801C130.993 44.0913 132.771 43.3488 132.771 41.9426C132.771 40.6038 130.993 39.8163 128.023 39.8051C125.064 39.8163 123.276 40.6038 123.298 41.9426ZM154.742 46.5101V48.4901H148.712V53.1476H156.812V55.1951H138.227V53.1476H146.237V48.4901H140.477V38.7701H154.585V40.7726H142.975V46.5101H154.742ZM181.226 47.4101V49.4126H162.686V47.4101H181.226ZM163.563 44.6201C167.827 44.3276 170.223 42.9101 170.504 41.1776H164.508V39.2201H170.696V37.3076H173.171V39.2201H179.403V41.1776H173.351C173.621 42.9101 176.017 44.3276 180.303 44.6201L179.516 46.5326C175.882 46.2288 173.193 45.1038 171.933 43.3376C170.651 45.1038 167.962 46.2288 164.351 46.5326L163.563 44.6201ZM164.733 53.1476V51.1676H178.953V57.6026H176.456V53.1476H164.733ZM199.17 37.2626V49.3451H196.672V44.3726H193.207V42.3251H196.672V37.2626H199.17ZM182.07 47.3201C185.344 46.1951 187.065 43.4613 187.065 40.7726V40.6151H182.835V38.5901H193.815V40.6151H189.607V40.7501C189.607 43.2251 191.25 45.7226 194.4 46.7801L193.14 48.7601C190.879 47.9951 189.281 46.4426 188.381 44.5301C187.492 46.6901 185.794 48.4451 183.375 49.3001L182.07 47.3201ZM185.377 53.7326C185.355 51.2913 187.999 49.8626 192.285 49.8626C196.594 49.8626 199.226 51.2913 199.237 53.7326C199.226 56.1738 196.594 57.5913 192.285 57.6026C187.999 57.5913 185.355 56.1738 185.377 53.7326ZM187.852 53.7326C187.841 54.9926 189.461 55.6788 192.285 55.6676C195.131 55.6788 196.74 54.9926 196.74 53.7326C196.74 52.4613 195.131 51.7751 192.285 51.7751C189.461 51.7751 187.841 52.4613 187.852 53.7326ZM210.837 37.7801C215.28 37.7801 217.89 39.0063 217.902 41.2226C217.89 43.4951 215.28 44.7213 210.837 44.7326C206.37 44.7213 203.749 43.4951 203.749 41.2226C203.749 39.0063 206.37 37.7801 210.837 37.7801ZM201.724 47.5226V46.0826H219.949V47.5226H201.724ZM203.929 50.6051V49.2551H217.609V53.7326H205.729V55.8026H218.217V57.1976H203.974V52.4276H215.877V50.6051H203.929ZM205.594 41.2226C205.572 42.6176 207.518 43.3826 210.837 43.3826C214.155 43.3826 216.09 42.6176 216.102 41.2226C216.09 39.9063 214.155 39.1188 210.837 39.1076C207.518 39.1188 205.572 39.9063 205.594 41.2226ZM244.722 48.0401V49.4801H226.475V48.0401H234.71V46.0601H228.905V38.0051H242.45V39.4451H230.682V41.3126H241.91V42.6626H230.682V44.6426H242.562V46.0601H236.465V48.0401H244.722ZM228.702 54.1826C228.691 52.1013 231.177 50.9651 235.61 50.9876C239.997 50.9651 242.472 52.1013 242.495 54.1826C242.472 56.2863 239.997 57.3776 235.61 57.3776C231.177 57.3776 228.691 56.2863 228.702 54.1826ZM230.48 54.1826C230.457 55.3976 232.302 56.0276 235.61 56.0051C238.884 56.0276 240.706 55.3976 240.717 54.1826C240.706 52.9901 238.884 52.3263 235.61 52.3151C232.302 52.3263 230.457 52.9901 230.48 54.1826ZM261.587 37.4426V44.0351H264.602V45.5201H261.587V52.4276H259.832V37.4426H261.587ZM245.994 41.3351V39.8951H251.079V37.4426H252.834V39.8951H257.919V41.3351H245.994ZM247.142 46.1726C247.13 43.9001 249.065 42.4376 251.957 42.4376C254.814 42.4376 256.749 43.9001 256.772 46.1726C256.749 48.4226 254.814 49.8738 251.957 49.8626C249.065 49.8738 247.13 48.4226 247.142 46.1726ZM248.829 46.1726C248.818 47.5788 250.067 48.4901 251.957 48.4676C253.824 48.4901 255.084 47.5788 255.107 46.1726C255.084 44.7438 253.824 43.8213 251.957 43.8326C250.067 43.8213 248.818 44.7438 248.829 46.1726ZM249.077 56.9951V51.2351H250.809V55.5101H262.509V56.9951H249.077ZM274.728 55.6001L270.273 39.3101H272.32L275.718 52.4951H275.875L279.318 39.3101H281.59L285.055 52.4951H285.19L288.588 39.3101H290.635L286.18 55.6001H284.088L280.533 42.7076H280.398L276.82 55.6001H274.728ZM295.912 55.8476C292.582 55.8588 290.332 53.3388 290.332 49.5476C290.332 45.7338 292.582 43.2251 295.912 43.2251C299.231 43.2251 301.458 45.7338 301.447 49.5476C301.458 53.3388 299.231 55.8588 295.912 55.8476ZM292.267 49.5476C292.278 51.9888 293.426 54.1376 295.912 54.1376C298.376 54.1376 299.512 51.9888 299.512 49.5476C299.512 47.1176 298.376 44.9351 295.912 44.9351C293.426 44.9351 292.278 47.1176 292.267 49.5476ZM303.528 55.6001V43.3826H305.396V45.2501H305.531C305.97 44.0126 307.241 43.1913 308.681 43.1801C308.973 43.1913 309.468 43.2026 309.693 43.2251V45.1826C309.547 45.1488 309.03 45.0476 308.523 45.0476C306.768 45.0476 305.463 46.2626 305.463 47.9051V55.6001H303.528ZM317.918 46.5551C317.648 45.5426 316.871 44.8788 315.443 44.8676C313.935 44.8788 312.866 45.6888 312.855 46.7126C312.866 47.5226 313.519 48.0738 314.948 48.4226L316.77 48.8726C318.953 49.3901 320.021 50.4813 320.033 52.1801C320.021 54.2951 318.3 55.8588 315.24 55.8476C312.495 55.8588 310.864 54.6326 310.538 52.4051H312.563C312.788 53.5976 313.654 54.1713 315.195 54.1601C316.939 54.1713 318.03 53.4401 318.03 52.2926C318.03 51.4263 317.411 50.8638 316.028 50.5376L314.183 50.1101C312.056 49.6151 310.92 48.4563 310.92 46.8251C310.92 44.7326 312.754 43.2251 315.443 43.2251C317.974 43.2251 319.56 44.5751 319.808 46.5551H317.918ZM327.424 43.3826V45.0026H324.859V52.0901C324.848 53.6538 325.636 53.9126 326.457 53.9126C326.806 53.9126 327.323 53.8788 327.604 53.8676V55.6676C327.301 55.7126 326.828 55.7576 326.254 55.7576C324.623 55.7576 322.913 54.7451 322.902 52.5851V45.0026H321.057V43.3826H322.902V40.4576H324.859V43.3826H327.424ZM335.03 55.6001V39.3101H340.565C344.379 39.3101 346.123 41.5826 346.123 44.4851C346.123 47.3763 344.379 49.6826 340.588 49.6826H337.055V55.6001H335.03ZM337.055 47.8826H340.498C343.097 47.8826 344.109 46.4201 344.12 44.4851C344.109 42.5388 343.097 41.1101 340.475 41.1101H337.055V47.8826ZM353.109 55.8476C349.779 55.8588 347.529 53.3388 347.529 49.5476C347.529 45.7338 349.779 43.2251 353.109 43.2251C356.428 43.2251 358.656 45.7338 358.644 49.5476C358.656 53.3388 356.428 55.8588 353.109 55.8476ZM349.464 49.5476C349.476 51.9888 350.623 54.1376 353.109 54.1376C355.573 54.1376 356.709 51.9888 356.709 49.5476C356.709 47.1176 355.573 44.9351 353.109 44.9351C350.623 44.9351 349.476 47.1176 349.464 49.5476ZM367.521 46.5551C367.251 45.5426 366.475 44.8788 365.046 44.8676C363.539 44.8788 362.47 45.6888 362.459 46.7126C362.47 47.5226 363.122 48.0738 364.551 48.4226L366.374 48.8726C368.556 49.3901 369.625 50.4813 369.636 52.1801C369.625 54.2951 367.904 55.8588 364.844 55.8476C362.099 55.8588 360.467 54.6326 360.141 52.4051H362.166C362.391 53.5976 363.257 54.1713 364.799 54.1601C366.542 54.1713 367.634 53.4401 367.634 52.2926C367.634 51.4263 367.015 50.8638 365.631 50.5376L363.786 50.1101C361.66 49.6151 360.524 48.4563 360.524 46.8251C360.524 44.7326 362.357 43.2251 365.046 43.2251C367.577 43.2251 369.164 44.5751 369.411 46.5551H367.521ZM371.695 55.6001V43.3826H373.63V55.6001H371.695ZM371.313 40.0751C371.302 39.3551 371.92 38.7813 372.663 38.7926C373.405 38.7813 374.024 39.3551 374.035 40.0751C374.024 40.7838 373.405 41.3576 372.663 41.3576C371.92 41.3576 371.302 40.7838 371.313 40.0751ZM381.585 43.3826V45.0026H379.02V52.0901C379.008 53.6538 379.796 53.9126 380.617 53.9126C380.966 53.9126 381.483 53.8788 381.765 53.8676V55.6676C381.461 55.7126 380.988 55.7576 380.415 55.7576C378.783 55.7576 377.073 54.7451 377.062 52.5851V45.0026H375.217V43.3826H377.062V40.4576H379.02V43.3826H381.585ZM383.621 55.6001V43.3826H385.556V55.6001H383.621ZM383.239 40.0751C383.228 39.3551 383.846 38.7813 384.589 38.7926C385.331 38.7813 385.95 39.3551 385.961 40.0751C385.95 40.7838 385.331 41.3576 384.589 41.3576C383.846 41.3576 383.228 40.7838 383.239 40.0751ZM393.173 55.8476C389.843 55.8588 387.593 53.3388 387.593 49.5476C387.593 45.7338 389.843 43.2251 393.173 43.2251C396.492 43.2251 398.719 45.7338 398.708 49.5476C398.719 53.3388 396.492 55.8588 393.173 55.8476ZM389.528 49.5476C389.539 51.9888 390.687 54.1376 393.173 54.1376C395.637 54.1376 396.773 51.9888 396.773 49.5476C396.773 47.1176 395.637 44.9351 393.173 44.9351C390.687 44.9351 389.539 47.1176 389.528 49.5476ZM402.725 48.2651V55.6001H400.79V43.3826H402.657V45.2951H402.815C403.388 44.0463 404.536 43.2251 406.392 43.2251C408.867 43.2251 410.521 44.7326 410.51 47.8376V55.6001H408.575V47.9726C408.575 46.0826 407.54 44.9576 405.807 44.9576C404.03 44.9576 402.725 46.1501 402.725 48.2651ZM424.573 41.2001C424.573 43.9901 426.598 46.6226 429.523 47.6801L428.533 49.0526C426.339 48.1863 424.584 46.4538 423.729 44.2713C422.886 46.6901 421.063 48.6026 418.701 49.5476L417.756 48.1076C420.759 47.0051 422.829 44.2038 422.841 41.1326V38.6576H424.573V41.2001ZM421.378 56.9951V50.7176H423.156V55.5101H434.766V56.9951H421.378ZM428.083 43.6301V42.1451H432.538V37.4426H434.316V52.4276H432.538V43.6301H428.083ZM453.767 37.4201V49.3451H451.99V44.1026H447.962V42.6401H451.99V37.4201H453.767ZM437.275 47.7476C440.245 46.6788 442.36 43.9676 442.36 41.1101V40.3676H437.837V38.8826H448.615V40.3676H444.137V41.0876C444.137 43.6976 446.14 46.1838 449.065 47.1851L448.142 48.6026C445.904 47.7926 444.16 46.1051 443.294 44.0463C442.439 46.3863 440.582 48.2538 438.197 49.1651L437.275 47.7476ZM440.425 53.6876C440.414 51.3363 442.967 49.9638 447.13 49.9751C451.281 49.9638 453.835 51.3363 453.835 53.6876C453.835 56.0501 451.281 57.4001 447.13 57.4226C442.967 57.4001 440.414 56.0501 440.425 53.6876ZM442.18 53.6876C442.169 55.1388 444.059 56.0163 447.13 56.0051C450.19 56.0163 452.08 55.1388 452.08 53.6876C452.08 52.2251 450.19 51.3476 447.13 51.3476C444.059 51.3476 442.169 52.2251 442.18 53.6876Z" fill="#7737FF"/>
<path d="M477.361 52.6815C478.318 53.7799 480.024 53.7799 480.981 52.6815L488.179 44.4159C489.531 42.863 488.428 40.4398 486.369 40.4398H471.973C469.913 40.4398 468.81 42.863 470.163 44.4159L477.361 52.6815Z" fill="#7737FF"/>
<rect x="40" y="20.3999" width="54.4" height="54.4" rx="12.8" fill="#7737FF"/>
<path d="M63.5727 43.7876C63.4264 42.3813 62.2452 41.5713 60.4902 41.5826C58.6339 41.5713 57.5314 42.4713 57.5202 43.6976C57.5089 45.0701 58.9602 45.6326 60.3102 45.9476L61.8402 46.3526C64.2702 46.9151 66.6102 48.1976 66.6102 51.0326C66.6102 53.8901 64.3489 55.8476 60.4452 55.8476C56.6539 55.8476 54.2464 54.0251 54.1227 50.8076H57.0027C57.1377 52.5063 58.5664 53.3388 60.4227 53.3501C62.3464 53.3388 63.6739 52.4051 63.6852 51.0101C63.6739 49.7276 62.5039 49.1876 60.7377 48.7376L58.8927 48.2651C56.2152 47.5676 54.5502 46.2176 54.5502 43.8776C54.5502 40.9976 57.1039 39.0851 60.5352 39.0851C63.9889 39.0851 66.3402 41.0313 66.3852 43.7876H63.5727ZM68.4219 55.6001V53.4851L74.1819 47.9276C75.8244 46.2851 76.6794 45.3176 76.6794 43.9451C76.6794 42.4263 75.4756 41.4701 73.8894 41.4701C72.2131 41.4701 71.1331 42.5163 71.1444 44.1701H68.3544C68.3431 41.0876 70.6606 39.0851 73.9119 39.0851C77.2419 39.0851 79.4806 41.0763 79.4919 43.8101C79.4806 45.6438 78.6031 47.1288 75.3969 50.1551L72.4944 53.0351V53.1476H79.7394V55.6001H68.4219Z" fill="white"/>
</svg>
