<svg width="720" height="94" viewBox="0 0 720 94" fill="none" xmlns="http://www.w3.org/2000/svg">
<rect width="720" height="94" fill="white"/>
<rect x="94.4004" y="7" width="459.342" height="70.4" rx="19.2" fill="white" fill-opacity="0.1"/>
<path d="M135.963 31.8627V52.2027H133.443V31.8627H135.963ZM119.111 46.6002C124.443 44.0689 126.896 40.6264 127.346 36.0027H120.146V34.0227H129.888C129.888 40.0752 127.537 45.2164 120.416 48.6027L119.111 46.6002ZM156.99 43.8777V45.8352H152.512V52.2027H149.992V45.8352H145.425V52.2027H142.927V45.8352H138.405V43.8777H156.99ZM140.587 34.5852V32.5377H154.83V38.2302H143.152V40.1652H155.28V42.1902H140.632V36.3627H152.265V34.5852H140.587ZM180.436 31.8627V52.2027H178.028V41.8752H176.003V51.1677H173.641V32.2452H176.003V39.8277H178.028V31.8627H180.436ZM162.661 45.3402C163.223 45.3402 163.865 45.3402 164.551 45.3402V36.2952H163.066V34.2702H172.471V36.2952H171.008V45.0589C171.616 45.0139 172.19 44.9464 172.741 44.8677L172.876 46.6902C169.703 47.3427 165.507 47.4214 162.953 47.4102L162.661 45.3402ZM166.801 45.2952C167.442 45.2727 168.083 45.2502 168.736 45.2164V36.2952H166.801V45.2952ZM199.37 31.8852V46.9152H196.873V39.4677H193.228V37.4427H196.873V31.8852H199.37ZM183.328 44.0352V33.4377H192.575V35.4627H185.825V37.6677H191.968V39.6252H185.825V41.9652C189.043 41.9652 191.056 41.8752 193.43 41.4702L193.633 43.4727C191.011 43.9339 188.728 44.0352 184.88 44.0352H183.328ZM186.005 51.7977V45.6102H188.525V49.7727H199.888V51.7977H186.005ZM211.037 32.1777C215.672 32.1889 218.361 33.4152 218.372 35.6652C218.361 37.9377 215.672 39.1639 211.037 39.1752C206.413 39.1639 203.702 37.9377 203.702 35.6652C203.702 33.4152 206.413 32.1889 211.037 32.1777ZM201.789 42.2577V40.2552H220.329V42.2577H201.789ZM203.972 45.4752V43.6302H218.012V48.6027H206.447V50.1102H218.574V52.0227H203.994V46.8252H215.559V45.4752H203.972ZM206.334 35.6652C206.323 36.7902 207.943 37.3077 211.037 37.3077C214.176 37.3077 215.784 36.7902 215.784 35.6652C215.784 34.6189 214.176 34.0227 211.037 34.0227C207.943 34.0227 206.323 34.6189 206.334 35.6652ZM236.778 33.1002C236.766 38.3427 233.313 42.0214 227.395 43.6752L226.383 41.7177C230.939 40.4802 233.639 38.0952 234.1 35.1252H227.485V33.1002H236.778ZM229.893 51.9327V44.1477H243.28V51.9327H229.893ZM232.345 49.9527H240.805V46.1277H232.345V49.9527ZM236.868 38.9052V36.8577H240.783V31.8852H243.28V43.3377H240.783V38.9052H236.868ZM264.239 41.3352V43.3602H245.699V41.3352H264.239ZM246.599 38.4552C250.368 38.0839 252.821 36.5764 253.203 34.8777H247.387V32.8302H262.574V34.8777H256.702C257.073 36.5539 259.503 38.0839 263.362 38.4552L262.484 40.4352C258.783 40.0527 256.049 38.5789 254.947 36.5202C253.844 38.5789 251.144 40.0527 247.454 40.4352L246.599 38.4552ZM247.859 48.4452C247.859 46.0827 250.526 44.7102 254.947 44.7102C259.334 44.7102 261.978 46.0827 261.989 48.4452C261.978 50.8414 259.334 52.1802 254.947 52.1802C250.526 52.1802 247.859 50.8414 247.859 48.4452ZM250.402 48.4452C250.391 49.6264 251.988 50.2114 254.947 50.2227C257.861 50.2114 259.469 49.6264 259.492 48.4452C259.469 47.2639 257.861 46.6677 254.947 46.6677C251.988 46.6677 250.391 47.2639 250.402 48.4452ZM280.766 32.0202V40.2777H284.119V41.7402H280.766V52.0227H279.011V32.0202H280.766ZM265.174 36.7002V35.2377H270.326V32.2677H272.081V35.2377H277.076V36.7002H265.174ZM266.321 42.9552C266.31 40.2552 268.38 38.3652 271.226 38.3652C274.05 38.3652 276.109 40.2552 276.131 42.9552C276.109 45.6664 274.05 47.5452 271.226 47.5452C268.38 47.5452 266.31 45.6664 266.321 42.9552ZM268.009 42.9552C267.997 44.7777 269.359 46.0602 271.226 46.0377C273.071 46.0602 274.421 44.7777 274.444 42.9552C274.421 41.1439 273.071 39.8389 271.226 39.8502C269.359 39.8389 267.997 41.1439 268.009 42.9552ZM290.115 33.5727C291.949 33.5839 293.445 34.6527 294.312 36.4977H299.565V32.0202H301.32V52.0677H299.565V44.3052H294.435C293.603 46.3302 292.05 47.5114 290.115 47.5002C287.157 47.5114 285.087 44.8114 285.098 40.5477C285.087 36.2952 287.157 33.5839 290.115 33.5727ZM286.785 40.5477C286.797 43.7989 288.147 45.9364 290.115 45.9252C292.073 45.9364 293.445 43.7989 293.445 40.5477C293.445 37.2964 292.073 35.1589 290.115 35.1477C288.147 35.1589 286.797 37.2964 286.785 40.5477ZM294.818 37.9827C295.009 38.7589 295.11 39.6139 295.11 40.5477C295.11 41.3689 295.032 42.1452 294.885 42.8427H299.565V37.9827H294.818ZM313.516 50.2002L309.061 33.9102H311.109L314.506 47.0952H314.664L318.106 33.9102H320.379L323.844 47.0952H323.979L327.376 33.9102H329.424L324.969 50.2002H322.876L319.321 37.3077H319.186L315.609 50.2002H313.516ZM334.7 50.4477C331.37 50.4589 329.12 47.9389 329.12 44.1477C329.12 40.3339 331.37 37.8252 334.7 37.8252C338.019 37.8252 340.247 40.3339 340.235 44.1477C340.247 47.9389 338.019 50.4589 334.7 50.4477ZM331.055 44.1477C331.067 46.5889 332.214 48.7377 334.7 48.7377C337.164 48.7377 338.3 46.5889 338.3 44.1477C338.3 41.7177 337.164 39.5352 334.7 39.5352C332.214 39.5352 331.067 41.7177 331.055 44.1477ZM342.317 50.2002V37.9827H344.185V39.8502H344.32C344.758 38.6127 346.03 37.7914 347.47 37.7802C347.762 37.7914 348.257 37.8027 348.482 37.8252V39.7827C348.336 39.7489 347.818 39.6477 347.312 39.6477C345.557 39.6477 344.252 40.8627 344.252 42.5052V50.2002H342.317ZM356.706 41.1552C356.436 40.1427 355.66 39.4789 354.231 39.4677C352.724 39.4789 351.655 40.2889 351.644 41.3127C351.655 42.1227 352.308 42.6739 353.736 43.0227L355.559 43.4727C357.741 43.9902 358.81 45.0814 358.821 46.7802C358.81 48.8952 357.089 50.4589 354.029 50.4477C351.284 50.4589 349.653 49.2327 349.326 47.0052H351.351C351.576 48.1977 352.443 48.7714 353.984 48.7602C355.728 48.7714 356.819 48.0402 356.819 46.8927C356.819 46.0264 356.2 45.4639 354.816 45.1377L352.971 44.7102C350.845 44.2152 349.709 43.0564 349.709 41.4252C349.709 39.3327 351.543 37.8252 354.231 37.8252C356.763 37.8252 358.349 39.1752 358.596 41.1552H356.706ZM366.213 37.9827V39.6027H363.648V46.6902C363.637 48.2539 364.424 48.5127 365.245 48.5127C365.594 48.5127 366.112 48.4789 366.393 48.4677V50.2677C366.089 50.3127 365.617 50.3577 365.043 50.3577C363.412 50.3577 361.702 49.3452 361.69 47.1852V39.6027H359.845V37.9827H361.69V35.0577H363.648V37.9827H366.213ZM373.819 50.2002V33.9102H379.354C383.168 33.9102 384.911 36.1827 384.911 39.0852C384.911 41.9764 383.168 44.2827 379.376 44.2827H375.844V50.2002H373.819ZM375.844 42.4827H379.286C381.885 42.4827 382.898 41.0202 382.909 39.0852C382.898 37.1389 381.885 35.7102 379.264 35.7102H375.844V42.4827ZM391.898 50.4477C388.568 50.4589 386.318 47.9389 386.318 44.1477C386.318 40.3339 388.568 37.8252 391.898 37.8252C395.217 37.8252 397.444 40.3339 397.433 44.1477C397.444 47.9389 395.217 50.4589 391.898 50.4477ZM388.253 44.1477C388.264 46.5889 389.412 48.7377 391.898 48.7377C394.362 48.7377 395.498 46.5889 395.498 44.1477C395.498 41.7177 394.362 39.5352 391.898 39.5352C389.412 39.5352 388.264 41.7177 388.253 44.1477ZM406.31 41.1552C406.04 40.1427 405.264 39.4789 403.835 39.4677C402.327 39.4789 401.259 40.2889 401.247 41.3127C401.259 42.1227 401.911 42.6739 403.34 43.0227L405.162 43.4727C407.345 43.9902 408.414 45.0814 408.425 46.7802C408.414 48.8952 406.692 50.4589 403.632 50.4477C400.887 50.4589 399.256 49.2327 398.93 47.0052H400.955C401.18 48.1977 402.046 48.7714 403.587 48.7602C405.331 48.7714 406.422 48.0402 406.422 46.8927C406.422 46.0264 405.804 45.4639 404.42 45.1377L402.575 44.7102C400.449 44.2152 399.312 43.0564 399.312 41.4252C399.312 39.3327 401.146 37.8252 403.835 37.8252C406.366 37.8252 407.952 39.1752 408.2 41.1552H406.31ZM410.484 50.2002V37.9827H412.419V50.2002H410.484ZM410.101 34.6752C410.09 33.9552 410.709 33.3814 411.451 33.3927C412.194 33.3814 412.813 33.9552 412.824 34.6752C412.813 35.3839 412.194 35.9577 411.451 35.9577C410.709 35.9577 410.09 35.3839 410.101 34.6752ZM420.373 37.9827V39.6027H417.808V46.6902C417.797 48.2539 418.584 48.5127 419.406 48.5127C419.754 48.5127 420.272 48.4789 420.553 48.4677V50.2677C420.249 50.3127 419.777 50.3577 419.203 50.3577C417.572 50.3577 415.862 49.3452 415.851 47.1852V39.6027H414.006V37.9827H415.851V35.0577H417.808V37.9827H420.373ZM422.41 50.2002V37.9827H424.345V50.2002H422.41ZM422.027 34.6752C422.016 33.9552 422.635 33.3814 423.377 33.3927C424.12 33.3814 424.739 33.9552 424.75 34.6752C424.739 35.3839 424.12 35.9577 423.377 35.9577C422.635 35.9577 422.016 35.3839 422.027 34.6752ZM431.962 50.4477C428.632 50.4589 426.382 47.9389 426.382 44.1477C426.382 40.3339 428.632 37.8252 431.962 37.8252C435.28 37.8252 437.508 40.3339 437.497 44.1477C437.508 47.9389 435.28 50.4589 431.962 50.4477ZM428.317 44.1477C428.328 46.5889 429.475 48.7377 431.962 48.7377C434.425 48.7377 435.562 46.5889 435.562 44.1477C435.562 41.7177 434.425 39.5352 431.962 39.5352C429.475 39.5352 428.328 41.7177 428.317 44.1477ZM441.513 42.8652V50.2002H439.578V37.9827H441.446V39.8952H441.603C442.177 38.6464 443.325 37.8252 445.181 37.8252C447.656 37.8252 449.31 39.3327 449.298 42.4377V50.2002H447.363V42.5727C447.363 40.6827 446.328 39.5577 444.596 39.5577C442.818 39.5577 441.513 40.7502 441.513 42.8652ZM463.362 35.8002C463.362 38.5902 465.387 41.2227 468.312 42.2802L467.322 43.6527C465.128 42.7864 463.373 41.0539 462.518 38.8714C461.674 41.2902 459.852 43.2027 457.489 44.1477L456.544 42.7077C459.548 41.6052 461.618 38.8039 461.629 35.7327V33.2577H463.362V35.8002ZM460.167 51.5952V45.3177H461.944V50.1102H473.554V51.5952H460.167ZM466.872 38.2302V36.7452H471.327V32.0427H473.104V47.0277H471.327V38.2302H466.872ZM492.556 32.0202V43.9452H490.778V38.7027H486.751V37.2402H490.778V32.0202H492.556ZM476.063 42.3477C479.033 41.2789 481.148 38.5677 481.148 35.7102V34.9677H476.626V33.4827H487.403V34.9677H482.926V35.6877C482.926 38.2977 484.928 40.7839 487.853 41.7852L486.931 43.2027C484.692 42.3927 482.948 40.7052 482.082 38.6464C481.227 40.9864 479.371 42.8539 476.986 43.7652L476.063 42.3477ZM479.213 48.2877C479.202 45.9364 481.756 44.5639 485.918 44.5752C490.07 44.5639 492.623 45.9364 492.623 48.2877C492.623 50.6502 490.07 52.0002 485.918 52.0227C481.756 52.0002 479.202 50.6502 479.213 48.2877ZM480.968 48.2877C480.957 49.7389 482.847 50.6164 485.918 50.6052C488.978 50.6164 490.868 49.7389 490.868 48.2877C490.868 46.8252 488.978 45.9477 485.918 45.9477C482.847 45.9477 480.957 46.8252 480.968 48.2877Z" fill="#7737FF"/>
<path d="M515.561 47.2816C516.518 48.38 518.224 48.38 519.181 47.2816L526.379 39.016C527.732 37.463 526.629 35.0399 524.569 35.0399H510.173C508.114 35.0399 507.011 37.463 508.363 39.016L515.561 47.2816Z" fill="#7737FF"/>
<rect x="40" y="15" width="54.4" height="54.4" rx="12.8" fill="#7737FF"/>
<path d="M65.0727 38.3877C64.9264 36.9814 63.7452 36.1714 61.9902 36.1827C60.1339 36.1714 59.0314 37.0714 59.0202 38.2977C59.0089 39.6702 60.4602 40.2327 61.8102 40.5477L63.3402 40.9527C65.7702 41.5152 68.1102 42.7977 68.1102 45.6327C68.1102 48.4902 65.8489 50.4477 61.9452 50.4477C58.1539 50.4477 55.7464 48.6252 55.6227 45.4077H58.5027C58.6377 47.1064 60.0664 47.9389 61.9227 47.9502C63.8464 47.9389 65.1739 47.0052 65.1852 45.6102C65.1739 44.3277 64.0039 43.7877 62.2377 43.3377L60.3927 42.8652C57.7152 42.1677 56.0502 40.8177 56.0502 38.4777C56.0502 35.5977 58.6039 33.6852 62.0352 33.6852C65.4889 33.6852 67.8402 35.6314 67.8852 38.3877H65.0727ZM76.5369 33.9102V50.2002H73.5894V36.7677H73.4994L69.6969 39.1977V36.5202L73.7244 33.9102H76.5369Z" fill="white"/>
</svg>
