<svg width="720" height="94" viewBox="0 0 720 94" fill="none" xmlns="http://www.w3.org/2000/svg">
<rect width="720" height="94" fill="white"/>
<rect x="94.4004" y="12.2002" width="544.142" height="70.4" rx="19.2" fill="white" fill-opacity="0.1"/>
<path d="M120.208 55.4004V39.1104H126.44C129.973 39.1104 131.716 40.9104 131.728 43.3404C131.716 45.3204 130.468 46.4229 128.87 46.8054V46.9629C130.603 47.0529 132.358 48.4929 132.358 50.9679C132.358 53.4991 130.524 55.4004 126.8 55.4004H120.208ZM123.133 52.9479H126.35C128.488 52.9479 129.376 52.0366 129.388 50.7429C129.376 49.2804 128.24 48.1666 126.418 48.1554H123.133V52.9479ZM123.133 46.0404H126.08C127.621 46.0404 128.791 45.1516 128.803 43.7004C128.791 42.4516 127.891 41.5404 126.148 41.5404H123.133V46.0404ZM134.147 55.4004V43.1829H137.027V55.4004H134.147ZM133.944 39.8754C133.944 39.0204 134.698 38.3229 135.609 38.3229C136.521 38.3229 137.274 39.0204 137.274 39.8754C137.274 40.7416 136.521 41.4391 135.609 41.4504C134.698 41.4391 133.944 40.7416 133.944 39.8754ZM144.644 55.6479C141.077 55.6479 138.794 53.1166 138.794 49.3479C138.794 45.5454 141.077 43.0254 144.644 43.0254C148.221 43.0254 150.505 45.5454 150.494 49.3479C150.505 53.1166 148.221 55.6479 144.644 55.6479ZM141.696 49.3254C141.696 51.5641 142.675 53.3529 144.666 53.3529C146.624 53.3529 147.602 51.5641 147.591 49.3254C147.602 47.0866 146.624 45.2866 144.666 45.2979C142.675 45.2866 141.696 47.0866 141.696 49.3254ZM155.14 39.1104V55.4004H152.26V39.1104H155.14ZM162.757 55.6479C159.191 55.6479 156.907 53.1166 156.907 49.3479C156.907 45.5454 159.191 43.0254 162.757 43.0254C166.334 43.0254 168.618 45.5454 168.607 49.3479C168.618 53.1166 166.334 55.6479 162.757 55.6479ZM159.809 49.3254C159.809 51.5641 160.788 53.3529 162.779 53.3529C164.737 53.3529 165.716 51.5641 165.704 49.3254C165.716 47.0866 164.737 45.2866 162.779 45.2979C160.788 45.2866 159.809 47.0866 159.809 49.3254ZM175.706 60.2379C172.466 60.2379 170.407 58.7979 170.216 56.5029H173.074C173.276 57.5716 174.277 58.0666 175.751 58.0779C177.472 58.0666 178.586 57.3241 178.586 55.5354V53.1954H178.451C178.001 54.0954 177.022 55.2204 174.919 55.2204C172.095 55.2204 169.879 53.1729 169.879 49.1904C169.879 45.1741 172.106 43.0254 174.941 43.0254C177.09 43.0254 178.001 44.3191 178.451 45.1854H178.586V43.1829H181.421V55.6029C181.421 58.7304 179.002 60.2379 175.706 60.2379ZM172.804 49.2354C172.804 51.4854 173.816 52.9704 175.706 52.9704C177.562 52.9704 178.609 51.5754 178.609 49.2354C178.609 46.9066 177.574 45.3766 175.706 45.3654C173.794 45.3766 172.804 47.0079 172.804 49.2354ZM183.705 55.4004V43.1829H186.585V55.4004H183.705ZM183.503 39.8754C183.503 39.0204 184.257 38.3229 185.168 38.3229C186.079 38.3229 186.833 39.0204 186.833 39.8754C186.833 40.7416 186.079 41.4391 185.168 41.4504C184.257 41.4391 183.503 40.7416 183.503 39.8754ZM194.202 55.6479C190.557 55.6479 188.352 53.0379 188.352 49.3479C188.352 45.6016 190.625 43.0254 194.202 43.0254C197.161 43.0254 199.242 44.7579 199.445 47.3904H196.7C196.475 46.2204 195.62 45.3316 194.225 45.3204C192.447 45.3316 191.255 46.8166 191.255 49.2804C191.255 51.8004 192.425 53.2966 194.225 53.3079C195.496 53.2966 196.441 52.5541 196.7 51.2379H199.445C199.231 53.8141 197.273 55.6479 194.202 55.6479ZM200.581 51.9579C200.581 49.2129 202.865 48.4141 205.126 48.2679C205.981 48.2004 207.725 48.1216 208.265 48.0991L208.254 47.1204C208.254 45.9054 207.478 45.2079 206.049 45.2079C204.766 45.2079 203.979 45.7929 203.754 46.6704H200.986C201.189 44.5891 203.056 43.0254 206.116 43.0254C208.434 43.0254 211.111 43.9816 211.111 47.2329V55.4004H208.366V53.7129H208.276C207.736 54.7479 206.6 55.6479 204.676 55.6479C202.348 55.6479 200.581 54.3766 200.581 51.9579ZM203.349 51.9354C203.349 52.9929 204.215 53.5329 205.419 53.5329C207.163 53.5329 208.276 52.3854 208.276 51.0129L208.265 50.0116C207.748 50.0341 206.15 50.1354 205.576 50.1804C204.215 50.2929 203.349 50.8666 203.349 51.9354ZM216.23 39.1104V55.4004H213.35V39.1104H216.23ZM226.581 39.1104V55.4004H223.656V39.1104H226.581ZM231.903 48.2454V55.4004H229.023V43.1829H231.768V45.2529H231.926C232.477 43.8916 233.726 43.0254 235.548 43.0254C238.079 43.0254 239.744 44.6904 239.733 47.6154V55.4004H236.876V48.0654C236.876 46.4229 235.987 45.4441 234.491 45.4554C232.972 45.4441 231.903 46.4679 231.903 48.2454ZM246.562 55.6254C243.694 55.6141 241.522 53.3191 241.522 49.3029C241.522 45.2304 243.75 43.0254 246.585 43.0254C248.734 43.0254 249.634 44.3191 250.072 45.1854H250.185V39.1104H253.042V55.4004H250.23V53.4654H250.072C249.611 54.3654 248.677 55.6141 246.562 55.6254ZM244.447 49.2804C244.447 51.5866 245.46 53.2629 247.35 53.2629C249.206 53.2629 250.252 51.6654 250.252 49.2804C250.252 46.9066 249.217 45.3766 247.35 45.3654C245.437 45.3766 244.447 47.0079 244.447 49.2804ZM255.484 55.4004V43.1829H258.364V55.4004H255.484ZM255.281 39.8754C255.281 39.0204 256.035 38.3229 256.946 38.3229C257.858 38.3229 258.611 39.0204 258.611 39.8754C258.611 40.7416 257.858 41.4391 256.946 41.4504C256.035 41.4391 255.281 40.7416 255.281 39.8754ZM265.981 55.6479C262.336 55.6479 260.131 53.0379 260.131 49.3479C260.131 45.6016 262.403 43.0254 265.981 43.0254C268.939 43.0254 271.021 44.7579 271.223 47.3904H268.478C268.253 46.2204 267.398 45.3316 266.003 45.3204C264.226 45.3316 263.033 46.8166 263.033 49.2804C263.033 51.8004 264.203 53.2966 266.003 53.3079C267.274 53.2966 268.219 52.5541 268.478 51.2379H271.223C271.009 53.8141 269.052 55.6479 265.981 55.6479ZM272.36 51.9579C272.36 49.2129 274.644 48.4141 276.905 48.2679C277.76 48.2004 279.504 48.1216 280.044 48.0991L280.032 47.1204C280.032 45.9054 279.256 45.2079 277.827 45.2079C276.545 45.2079 275.757 45.7929 275.532 46.6704H272.765C272.967 44.5891 274.835 43.0254 277.895 43.0254C280.212 43.0254 282.89 43.9816 282.89 47.2329V55.4004H280.145V53.7129H280.055C279.515 54.7479 278.379 55.6479 276.455 55.6479C274.126 55.6479 272.36 54.3766 272.36 51.9579ZM275.127 51.9354C275.127 52.9929 275.994 53.5329 277.197 53.5329C278.941 53.5329 280.055 52.3854 280.055 51.0129L280.044 50.0116C279.526 50.0341 277.929 50.1354 277.355 50.1804C275.994 50.2929 275.127 50.8666 275.127 51.9354ZM291.227 43.1829V45.3879H288.819V51.7329C288.819 52.9029 289.404 53.1391 290.124 53.1504C290.462 53.1616 291.024 53.1279 291.384 53.1054V55.4454C291.047 55.5016 290.495 55.5691 289.764 55.5579C287.604 55.5691 285.939 54.5004 285.962 52.2054V45.3879H284.207V43.1829H285.962V40.2579H288.819V43.1829H291.227ZM298.168 55.6479C294.602 55.6479 292.318 53.1166 292.318 49.3479C292.318 45.5454 294.602 43.0254 298.168 43.0254C301.746 43.0254 304.03 45.5454 304.018 49.3479C304.03 53.1166 301.746 55.6479 298.168 55.6479ZM295.221 49.3254C295.221 51.5641 296.2 53.3529 298.191 53.3529C300.148 53.3529 301.127 51.5641 301.116 49.3254C301.127 47.0866 300.148 45.2866 298.191 45.2979C296.2 45.2866 295.221 47.0866 295.221 49.3254ZM305.785 55.4004V43.1829H308.575V45.2079H308.71C309.149 43.8016 310.319 43.0029 311.725 43.0029C312.04 43.0029 312.49 43.0366 312.76 43.0704V45.7254C312.501 45.6354 311.905 45.5566 311.433 45.5454C309.835 45.5566 308.665 46.6591 308.665 48.2004V55.4004H305.785ZM320.939 46.6704C320.759 45.7479 319.994 45.1516 318.779 45.1629C317.553 45.1516 316.653 45.7704 316.664 46.6029C316.653 47.2329 317.159 47.7054 318.397 47.9979L320.467 48.4254C322.773 48.9316 323.898 50.0004 323.909 51.7554C323.898 54.0504 321.884 55.6479 318.689 55.6479C315.584 55.6479 313.75 54.2529 313.447 51.9129H316.372C316.54 52.9591 317.35 53.4766 318.689 53.4654C320.073 53.4766 320.973 52.9141 320.984 52.0029C320.973 51.2941 320.422 50.8441 319.207 50.5854L317.249 50.1579C314.977 49.6966 313.795 48.5041 313.807 46.7604C313.795 44.4991 315.753 43.0254 318.734 43.0254C321.648 43.0254 323.448 44.4541 323.662 46.6704H320.939ZM343.361 46.5129V47.9079H325.046V46.5129H343.361ZM327.251 50.8329V49.5054H341.066V53.7579H329.051V55.6704H341.718V56.9529H327.273V52.5429H339.311V50.8329H327.251ZM327.363 39.1104V37.8279H340.998V41.9679H329.186V43.7229H341.358V45.0054H327.431V40.7529H339.221V39.1104H327.363ZM368.067 47.8404V49.2804H349.819V47.8404H358.054V45.8604H352.249V37.8054H365.794V39.2454H354.027V41.1129H365.254V42.4629H354.027V44.4429H365.907V45.8604H359.809V47.8404H368.067ZM352.047 53.9829C352.036 51.9016 354.522 50.7654 358.954 50.7879C363.342 50.7654 365.817 51.9016 365.839 53.9829C365.817 56.0866 363.342 57.1779 358.954 57.1779C354.522 57.1779 352.036 56.0866 352.047 53.9829ZM353.824 53.9829C353.802 55.1979 355.647 55.8279 358.954 55.8054C362.228 55.8279 364.051 55.1979 364.062 53.9829C364.051 52.7904 362.228 52.1266 358.954 52.1154C355.647 52.1266 353.802 52.7904 353.824 53.9829ZM384.931 37.2429V43.8354H387.946V45.3204H384.931V52.2279H383.176V37.2429H384.931ZM369.339 41.1354V39.6954H374.424V37.2429H376.179V39.6954H381.264V41.1354H369.339ZM370.486 45.9729C370.475 43.7004 372.41 42.2379 375.301 42.2379C378.159 42.2379 380.094 43.7004 380.116 45.9729C380.094 48.2229 378.159 49.6741 375.301 49.6629C372.41 49.6741 370.475 48.2229 370.486 45.9729ZM372.174 45.9729C372.162 47.3791 373.411 48.2904 375.301 48.2679C377.169 48.2904 378.429 47.3791 378.451 45.9729C378.429 44.5441 377.169 43.6216 375.301 43.6329C373.411 43.6216 372.162 44.5441 372.174 45.9729ZM372.421 56.7954V51.0354H374.154V55.3104H385.854V56.7954H372.421ZM398.072 55.4004L393.617 39.1104H395.664L399.062 52.2954H399.219L402.662 39.1104H404.934L408.399 52.2954H408.534L411.932 39.1104H413.979L409.524 55.4004H407.432L403.877 42.5079H403.742L400.164 55.4004H398.072ZM419.256 55.6479C415.926 55.6591 413.676 53.1391 413.676 49.3479C413.676 45.5341 415.926 43.0254 419.256 43.0254C422.575 43.0254 424.802 45.5341 424.791 49.3479C424.802 53.1391 422.575 55.6591 419.256 55.6479ZM415.611 49.3479C415.622 51.7891 416.77 53.9379 419.256 53.9379C421.72 53.9379 422.856 51.7891 422.856 49.3479C422.856 46.9179 421.72 44.7354 419.256 44.7354C416.77 44.7354 415.622 46.9179 415.611 49.3479ZM426.873 55.4004V43.1829H428.74V45.0504H428.875C429.314 43.8129 430.585 42.9916 432.025 42.9804C432.318 42.9916 432.813 43.0029 433.038 43.0254V44.9829C432.892 44.9491 432.374 44.8479 431.868 44.8479C430.113 44.8479 428.808 46.0629 428.808 47.7054V55.4004H426.873ZM441.262 46.3554C440.992 45.3429 440.216 44.6791 438.787 44.6679C437.28 44.6791 436.211 45.4891 436.2 46.5129C436.211 47.3229 436.863 47.8741 438.292 48.2229L440.115 48.6729C442.297 49.1904 443.366 50.2816 443.377 51.9804C443.366 54.0954 441.645 55.6591 438.585 55.6479C435.84 55.6591 434.208 54.4329 433.882 52.2054H435.907C436.132 53.3979 436.998 53.9716 438.54 53.9604C440.283 53.9716 441.375 53.2404 441.375 52.0929C441.375 51.2266 440.756 50.6641 439.372 50.3379L437.527 49.9104C435.401 49.4154 434.265 48.2566 434.265 46.6254C434.265 44.5329 436.098 43.0254 438.787 43.0254C441.318 43.0254 442.905 44.3754 443.152 46.3554H441.262ZM450.769 43.1829V44.8029H448.204V51.8904C448.192 53.4541 448.98 53.7129 449.801 53.7129C450.15 53.7129 450.667 53.6791 450.949 53.6679V55.4679C450.645 55.5129 450.172 55.5579 449.599 55.5579C447.967 55.5579 446.257 54.5454 446.246 52.3854V44.8029H444.401V43.1829H446.246V40.2579H448.204V43.1829H450.769ZM458.375 55.4004V39.1104H463.91C467.723 39.1104 469.467 41.3829 469.467 44.2854C469.467 47.1766 467.723 49.4829 463.932 49.4829H460.4V55.4004H458.375ZM460.4 47.6829H463.842C466.441 47.6829 467.453 46.2204 467.465 44.2854C467.453 42.3391 466.441 40.9104 463.82 40.9104H460.4V47.6829ZM476.454 55.6479C473.124 55.6591 470.874 53.1391 470.874 49.3479C470.874 45.5341 473.124 43.0254 476.454 43.0254C479.773 43.0254 482 45.5341 481.989 49.3479C482 53.1391 479.773 55.6591 476.454 55.6479ZM472.809 49.3479C472.82 51.7891 473.968 53.9379 476.454 53.9379C478.918 53.9379 480.054 51.7891 480.054 49.3479C480.054 46.9179 478.918 44.7354 476.454 44.7354C473.968 44.7354 472.82 46.9179 472.809 49.3479ZM490.866 46.3554C490.596 45.3429 489.819 44.6791 488.391 44.6679C486.883 44.6791 485.814 45.4891 485.803 46.5129C485.814 47.3229 486.467 47.8741 487.896 48.2229L489.718 48.6729C491.901 49.1904 492.969 50.2816 492.981 51.9804C492.969 54.0954 491.248 55.6591 488.188 55.6479C485.443 55.6591 483.812 54.4329 483.486 52.2054H485.511C485.736 53.3979 486.602 53.9716 488.143 53.9604C489.887 53.9716 490.978 53.2404 490.978 52.0929C490.978 51.2266 490.359 50.6641 488.976 50.3379L487.131 49.9104C485.004 49.4154 483.868 48.2566 483.868 46.6254C483.868 44.5329 485.702 43.0254 488.391 43.0254C490.922 43.0254 492.508 44.3754 492.756 46.3554H490.866ZM495.04 55.4004V43.1829H496.975V55.4004H495.04ZM494.657 39.8754C494.646 39.1554 495.265 38.5816 496.007 38.5929C496.75 38.5816 497.368 39.1554 497.38 39.8754C497.368 40.5841 496.75 41.1579 496.007 41.1579C495.265 41.1579 494.646 40.5841 494.657 39.8754ZM504.929 43.1829V44.8029H502.364V51.8904C502.353 53.4541 503.14 53.7129 503.961 53.7129C504.31 53.7129 504.828 53.6791 505.109 53.6679V55.4679C504.805 55.5129 504.333 55.5579 503.759 55.5579C502.128 55.5579 500.418 54.5454 500.406 52.3854V44.8029H498.561V43.1829H500.406V40.2579H502.364V43.1829H504.929ZM506.966 55.4004V43.1829H508.901V55.4004H506.966ZM506.583 39.8754C506.572 39.1554 507.191 38.5816 507.933 38.5929C508.676 38.5816 509.294 39.1554 509.306 39.8754C509.294 40.5841 508.676 41.1579 507.933 41.1579C507.191 41.1579 506.572 40.5841 506.583 39.8754ZM516.517 55.6479C513.187 55.6591 510.937 53.1391 510.937 49.3479C510.937 45.5341 513.187 43.0254 516.517 43.0254C519.836 43.0254 522.064 45.5341 522.052 49.3479C522.064 53.1391 519.836 55.6591 516.517 55.6479ZM512.872 49.3479C512.884 51.7891 514.031 53.9379 516.517 53.9379C518.981 53.9379 520.117 51.7891 520.117 49.3479C520.117 46.9179 518.981 44.7354 516.517 44.7354C514.031 44.7354 512.884 46.9179 512.872 49.3479ZM526.069 48.0654V55.4004H524.134V43.1829H526.002V45.0954H526.159C526.733 43.8466 527.88 43.0254 529.737 43.0254C532.212 43.0254 533.865 44.5329 533.854 47.6379V55.4004H531.919V47.7729C531.919 45.8829 530.884 44.7579 529.152 44.7579C527.374 44.7579 526.069 45.9504 526.069 48.0654ZM547.917 41.0004C547.917 43.7904 549.942 46.4229 552.867 47.4804L551.877 48.8529C549.684 47.9866 547.929 46.2541 547.074 44.0716C546.23 46.4904 544.407 48.4029 542.045 49.3479L541.1 47.9079C544.104 46.8054 546.174 44.0041 546.185 40.9329V38.4579H547.917V41.0004ZM544.722 56.7954V50.5179H546.5V55.3104H558.11V56.7954H544.722ZM551.427 43.4304V41.9454H555.882V37.2429H557.66V52.2279H555.882V43.4304H551.427ZM577.112 37.2204V49.1454H575.334V43.9029H571.307V42.4404H575.334V37.2204H577.112ZM560.619 47.5479C563.589 46.4791 565.704 43.7679 565.704 40.9104V40.1679H561.182V38.6829H571.959V40.1679H567.482V40.8879C567.482 43.4979 569.484 45.9841 572.409 46.9854L571.487 48.4029C569.248 47.5929 567.504 45.9054 566.638 43.8466C565.783 46.1866 563.927 48.0541 561.542 48.9654L560.619 47.5479ZM563.769 53.4879C563.758 51.1366 566.312 49.7641 570.474 49.7754C574.625 49.7641 577.179 51.1366 577.179 53.4879C577.179 55.8504 574.625 57.2004 570.474 57.2229C566.312 57.2004 563.758 55.8504 563.769 53.4879ZM565.524 53.4879C565.513 54.9391 567.403 55.8166 570.474 55.8054C573.534 55.8166 575.424 54.9391 575.424 53.4879C575.424 52.0254 573.534 51.1479 570.474 51.1479C567.403 51.1479 565.513 52.0254 565.524 53.4879Z" fill="#7737FF"/>
<path d="M599.962 52.4818C600.918 53.5802 602.625 53.5802 603.581 52.4818L610.78 44.2162C612.132 42.6632 611.029 40.2401 608.97 40.2401H594.573C592.514 40.2401 591.411 42.6632 592.763 44.2162L599.962 52.4818Z" fill="#7737FF"/>
<rect x="40" y="20.2002" width="54.4" height="54.4" rx="12.8" fill="#7737FF"/>
<path d="M63.0727 43.5879C62.9264 42.1816 61.7452 41.3716 59.9902 41.3829C58.1339 41.3716 57.0314 42.2716 57.0202 43.4979C57.0089 44.8704 58.4602 45.4329 59.8102 45.7479L61.3402 46.1529C63.7702 46.7154 66.1102 47.9979 66.1102 50.8329C66.1102 53.6904 63.8489 55.6479 59.9452 55.6479C56.1539 55.6479 53.7464 53.8254 53.6227 50.6079H56.5027C56.6377 52.3066 58.0664 53.1391 59.9227 53.1504C61.8464 53.1391 63.1739 52.2054 63.1852 50.8104C63.1739 49.5279 62.0039 48.9879 60.2377 48.5379L58.3927 48.0654C55.7152 47.3679 54.0502 46.0179 54.0502 43.6779C54.0502 40.7979 56.6039 38.8854 60.0352 38.8854C63.4889 38.8854 65.8402 40.8316 65.8852 43.5879H63.0727ZM67.6294 52.3629V50.0229L74.6719 39.1104H78.3169V49.9554H80.4544V52.3629H78.3169V55.4004H75.5269V52.3629H67.6294ZM70.6219 49.9554H75.5719V42.4404H75.3919L70.6219 49.8429V49.9554Z" fill="white"/>
</svg>
