<svg width="720" height="94" viewBox="0 0 720 94" fill="none" xmlns="http://www.w3.org/2000/svg">
<rect width="720" height="94" fill="white"/>
<rect x="94.4004" y="12" width="541.742" height="70.4" rx="19.2" fill="white" fill-opacity="0.1"/>
<path d="M130.988 44.4C130.639 42.4425 129.075 41.3175 127.095 41.3175C124.429 41.3175 122.539 43.365 122.55 47.055C122.539 50.8012 124.44 52.7925 127.095 52.7925C129.03 52.7925 130.594 51.7125 130.988 49.8H133.935C133.485 52.9275 130.909 55.425 127.05 55.425C122.753 55.425 119.591 52.3087 119.603 47.055C119.591 41.79 122.786 38.685 127.05 38.685C130.65 38.685 133.429 40.7775 133.935 44.4H130.988ZM138.739 48.045V55.2H135.859V38.91H138.672V45.0525H138.829C139.38 43.6687 140.573 42.825 142.452 42.825C144.983 42.825 146.659 44.4675 146.659 47.415V55.2H143.802V47.865C143.79 46.2 142.902 45.2437 141.394 45.255C139.842 45.2437 138.739 46.2675 138.739 48.045ZM154.343 55.4475C150.665 55.4475 148.403 52.995 148.403 49.17C148.403 45.39 150.698 42.825 154.186 42.825C157.178 42.825 159.766 44.7037 159.766 48.99V49.89H151.238C151.283 51.9712 152.51 53.2087 154.366 53.1975C155.626 53.2087 156.47 52.6687 156.841 51.9375H159.653C159.136 54.0525 157.178 55.4475 154.343 55.4475ZM151.25 47.9325H157.021C157.01 46.2675 155.885 45.0525 154.231 45.0525C152.51 45.0525 151.351 46.38 151.25 47.9325ZM161.533 55.2V42.9825H164.278V45.0525H164.435C164.941 43.6575 166.168 42.825 167.788 42.825C169.441 42.825 170.634 43.6687 171.095 45.0525H171.23C171.759 43.7025 173.12 42.825 174.898 42.825C177.136 42.825 178.711 44.265 178.7 46.9875V55.2H175.843V47.4375C175.843 45.9187 174.92 45.2325 173.75 45.2325C172.344 45.2325 171.523 46.1887 171.523 47.5725V55.2H168.733V47.325C168.721 46.0537 167.889 45.2325 166.663 45.2325C165.425 45.2325 164.413 46.2562 164.413 47.775V55.2H161.533ZM180.984 55.2V42.9825H183.864V55.2H180.984ZM180.782 39.675C180.782 38.82 181.536 38.1225 182.447 38.1225C183.358 38.1225 184.112 38.82 184.112 39.675C184.112 40.5412 183.358 41.2387 182.447 41.25C181.536 41.2387 180.782 40.5412 180.782 39.675ZM191.481 55.4475C187.836 55.4475 185.631 52.8375 185.631 49.1475C185.631 45.4012 187.904 42.825 191.481 42.825C194.44 42.825 196.521 44.5575 196.724 47.19H193.979C193.754 46.02 192.899 45.1312 191.504 45.12C189.726 45.1312 188.534 46.6162 188.534 49.08C188.534 51.6 189.704 53.0962 191.504 53.1075C192.775 53.0962 193.72 52.3537 193.979 51.0375H196.724C196.51 53.6137 194.552 55.4475 191.481 55.4475ZM197.86 51.7575C197.86 49.0125 200.144 48.2137 202.405 48.0675C203.26 48 205.004 47.9212 205.544 47.8987L205.533 46.92C205.533 45.705 204.756 45.0075 203.328 45.0075C202.045 45.0075 201.258 45.5925 201.033 46.47H198.265C198.468 44.3887 200.335 42.825 203.395 42.825C205.713 42.825 208.39 43.7812 208.39 47.0325V55.2H205.645V53.5125H205.555C205.015 54.5475 203.879 55.4475 201.955 55.4475C199.626 55.4475 197.86 54.1762 197.86 51.7575ZM200.628 51.735C200.628 52.7925 201.494 53.3325 202.698 53.3325C204.441 53.3325 205.555 52.185 205.555 50.8125L205.544 49.8112C205.026 49.8337 203.429 49.935 202.855 49.98C201.494 50.0925 200.628 50.6662 200.628 51.735ZM213.509 38.91V55.2H210.629V38.91H213.509ZM223.86 38.91V55.2H220.935V38.91H223.86ZM229.182 48.045V55.2H226.302V42.9825H229.047V45.0525H229.205C229.756 43.6912 231.005 42.825 232.827 42.825C235.358 42.825 237.023 44.49 237.012 47.415V55.2H234.155V47.865C234.155 46.2225 233.266 45.2437 231.77 45.255C230.251 45.2437 229.182 46.2675 229.182 48.045ZM243.841 55.425C240.972 55.4137 238.801 53.1187 238.801 49.1025C238.801 45.03 241.029 42.825 243.864 42.825C246.012 42.825 246.912 44.1187 247.351 44.985H247.464V38.91H250.321V55.2H247.509V53.265H247.351C246.89 54.165 245.956 55.4137 243.841 55.425ZM241.726 49.08C241.726 51.3862 242.739 53.0625 244.629 53.0625C246.485 53.0625 247.531 51.465 247.531 49.08C247.531 46.7062 246.496 45.1762 244.629 45.165C242.716 45.1762 241.726 46.8075 241.726 49.08ZM252.763 55.2V42.9825H255.643V55.2H252.763ZM252.56 39.675C252.56 38.82 253.314 38.1225 254.225 38.1225C255.137 38.1225 255.89 38.82 255.89 39.675C255.89 40.5412 255.137 41.2387 254.225 41.25C253.314 41.2387 252.56 40.5412 252.56 39.675ZM263.26 55.4475C259.615 55.4475 257.41 52.8375 257.41 49.1475C257.41 45.4012 259.682 42.825 263.26 42.825C266.218 42.825 268.3 44.5575 268.502 47.19H265.757C265.532 46.02 264.677 45.1312 263.282 45.12C261.505 45.1312 260.312 46.6162 260.312 49.08C260.312 51.6 261.482 53.0962 263.282 53.1075C264.553 53.0962 265.498 52.3537 265.757 51.0375H268.502C268.288 53.6137 266.331 55.4475 263.26 55.4475ZM269.639 51.7575C269.639 49.0125 271.923 48.2137 274.184 48.0675C275.039 48 276.783 47.9212 277.323 47.8987L277.311 46.92C277.311 45.705 276.535 45.0075 275.106 45.0075C273.824 45.0075 273.036 45.5925 272.811 46.47H270.044C270.246 44.3887 272.114 42.825 275.174 42.825C277.491 42.825 280.169 43.7812 280.169 47.0325V55.2H277.424V53.5125H277.334C276.794 54.5475 275.658 55.4475 273.734 55.4475C271.405 55.4475 269.639 54.1762 269.639 51.7575ZM272.406 51.735C272.406 52.7925 273.273 53.3325 274.476 53.3325C276.22 53.3325 277.334 52.185 277.334 50.8125L277.323 49.8112C276.805 49.8337 275.208 49.935 274.634 49.98C273.273 50.0925 272.406 50.6662 272.406 51.735ZM288.506 42.9825V45.1875H286.098V51.5325C286.098 52.7025 286.683 52.9387 287.403 52.95C287.741 52.9612 288.303 52.9275 288.663 52.905V55.245C288.326 55.3012 287.774 55.3687 287.043 55.3575C284.883 55.3687 283.218 54.3 283.241 52.005V45.1875H281.486V42.9825H283.241V40.0575H286.098V42.9825H288.506ZM295.447 55.4475C291.881 55.4475 289.597 52.9162 289.597 49.1475C289.597 45.345 291.881 42.825 295.447 42.825C299.025 42.825 301.308 45.345 301.297 49.1475C301.308 52.9162 299.025 55.4475 295.447 55.4475ZM292.5 49.125C292.5 51.3637 293.478 53.1525 295.47 53.1525C297.427 53.1525 298.406 51.3637 298.395 49.125C298.406 46.8862 297.427 45.0862 295.47 45.0975C293.478 45.0862 292.5 46.8862 292.5 49.125ZM303.064 55.2V42.9825H305.854V45.0075H305.989C306.428 43.6012 307.598 42.8025 309.004 42.8025C309.319 42.8025 309.769 42.8362 310.039 42.87V45.525C309.78 45.435 309.184 45.3562 308.711 45.345C307.114 45.3562 305.944 46.4587 305.944 48V55.2H303.064ZM318.218 46.47C318.038 45.5475 317.273 44.9512 316.058 44.9625C314.832 44.9512 313.932 45.57 313.943 46.4025C313.932 47.0325 314.438 47.505 315.676 47.7975L317.746 48.225C320.052 48.7312 321.177 49.8 321.188 51.555C321.177 53.85 319.163 55.4475 315.968 55.4475C312.863 55.4475 311.029 54.0525 310.726 51.7125H313.651C313.819 52.7587 314.629 53.2762 315.968 53.265C317.352 53.2762 318.252 52.7137 318.263 51.8025C318.252 51.0937 317.701 50.6437 316.486 50.385L314.528 49.9575C312.256 49.4962 311.074 48.3037 311.086 46.56C311.074 44.2987 313.032 42.825 316.013 42.825C318.927 42.825 320.727 44.2537 320.941 46.47H318.218ZM340.64 46.3125V47.7075H322.325V46.3125H340.64ZM324.53 50.6325V49.305H338.345V53.5575H326.33V55.47H338.997V56.7525H324.552V52.3425H336.59V50.6325H324.53ZM324.642 38.91V37.6275H338.277V41.7675H326.465V43.5225H338.637V44.805H324.71V40.5525H336.5V38.91H324.642ZM365.346 47.64V49.08H347.098V47.64H355.333V45.66H349.528V37.605H363.073V39.045H351.306V40.9125H362.533V42.2625H351.306V44.2425H363.186V45.66H357.088V47.64H365.346ZM349.326 53.7825C349.314 51.7012 351.801 50.565 356.233 50.5875C360.621 50.565 363.096 51.7012 363.118 53.7825C363.096 55.8862 360.621 56.9775 356.233 56.9775C351.801 56.9775 349.314 55.8862 349.326 53.7825ZM351.103 53.7825C351.081 54.9975 352.926 55.6275 356.233 55.605C359.507 55.6275 361.329 54.9975 361.341 53.7825C361.329 52.59 359.507 51.9262 356.233 51.915C352.926 51.9262 351.081 52.59 351.103 53.7825ZM382.21 37.0425V43.635H385.225V45.12H382.21V52.0275H380.455V37.0425H382.21ZM366.617 40.935V39.495H371.702V37.0425H373.457V39.495H378.542V40.935H366.617ZM367.765 45.7725C367.754 43.5 369.689 42.0375 372.58 42.0375C375.437 42.0375 377.372 43.5 377.395 45.7725C377.372 48.0225 375.437 49.4737 372.58 49.4625C369.689 49.4737 367.754 48.0225 367.765 45.7725ZM369.452 45.7725C369.441 47.1787 370.69 48.09 372.58 48.0675C374.447 48.09 375.707 47.1787 375.73 45.7725C375.707 44.3437 374.447 43.4212 372.58 43.4325C370.69 43.4212 369.441 44.3437 369.452 45.7725ZM369.7 56.595V50.835H371.432V55.11H383.132V56.595H369.7ZM395.351 55.2L390.896 38.91H392.943L396.341 52.095H396.498L399.941 38.91H402.213L405.678 52.095H405.813L409.211 38.91H411.258L406.803 55.2H404.711L401.156 42.3075H401.021L397.443 55.2H395.351ZM416.535 55.4475C413.205 55.4587 410.955 52.9387 410.955 49.1475C410.955 45.3337 413.205 42.825 416.535 42.825C419.854 42.825 422.081 45.3337 422.07 49.1475C422.081 52.9387 419.854 55.4587 416.535 55.4475ZM412.89 49.1475C412.901 51.5887 414.049 53.7375 416.535 53.7375C418.999 53.7375 420.135 51.5887 420.135 49.1475C420.135 46.7175 418.999 44.535 416.535 44.535C414.049 44.535 412.901 46.7175 412.89 49.1475ZM424.152 55.2V42.9825H426.019V44.85H426.154C426.593 43.6125 427.864 42.7912 429.304 42.78C429.597 42.7912 430.092 42.8025 430.317 42.825V44.7825C430.17 44.7487 429.653 44.6475 429.147 44.6475C427.392 44.6475 426.087 45.8625 426.087 47.505V55.2H424.152ZM438.541 46.155C438.271 45.1425 437.495 44.4787 436.066 44.4675C434.558 44.4787 433.49 45.2887 433.478 46.3125C433.49 47.1225 434.142 47.6737 435.571 48.0225L437.393 48.4725C439.576 48.99 440.645 50.0812 440.656 51.78C440.645 53.895 438.923 55.4587 435.863 55.4475C433.118 55.4587 431.487 54.2325 431.161 52.005H433.186C433.411 53.1975 434.277 53.7712 435.818 53.76C437.562 53.7712 438.653 53.04 438.653 51.8925C438.653 51.0262 438.035 50.4637 436.651 50.1375L434.806 49.71C432.68 49.215 431.543 48.0562 431.543 46.425C431.543 44.3325 433.377 42.825 436.066 42.825C438.597 42.825 440.183 44.175 440.431 46.155H438.541ZM448.048 42.9825V44.6025H445.483V51.69C445.471 53.2537 446.259 53.5125 447.08 53.5125C447.429 53.5125 447.946 53.4787 448.228 53.4675V55.2675C447.924 55.3125 447.451 55.3575 446.878 55.3575C445.246 55.3575 443.536 54.345 443.525 52.185V44.6025H441.68V42.9825H443.525V40.0575H445.483V42.9825H448.048ZM455.654 55.2V38.91H461.189C465.002 38.91 466.746 41.1825 466.746 44.085C466.746 46.9762 465.002 49.2825 461.211 49.2825H457.679V55.2H455.654ZM457.679 47.4825H461.121C463.72 47.4825 464.732 46.02 464.744 44.085C464.732 42.1387 463.72 40.71 461.099 40.71H457.679V47.4825ZM473.733 55.4475C470.403 55.4587 468.153 52.9387 468.153 49.1475C468.153 45.3337 470.403 42.825 473.733 42.825C477.051 42.825 479.279 45.3337 479.268 49.1475C479.279 52.9387 477.051 55.4587 473.733 55.4475ZM470.088 49.1475C470.099 51.5887 471.246 53.7375 473.733 53.7375C476.196 53.7375 477.333 51.5887 477.333 49.1475C477.333 46.7175 476.196 44.535 473.733 44.535C471.246 44.535 470.099 46.7175 470.088 49.1475ZM488.144 46.155C487.874 45.1425 487.098 44.4787 485.669 44.4675C484.162 44.4787 483.093 45.2887 483.082 46.3125C483.093 47.1225 483.746 47.6737 485.174 48.0225L486.997 48.4725C489.179 48.99 490.248 50.0812 490.259 51.78C490.248 53.895 488.527 55.4587 485.467 55.4475C482.722 55.4587 481.091 54.2325 480.764 52.005H482.789C483.014 53.1975 483.881 53.7712 485.422 53.76C487.166 53.7712 488.257 53.04 488.257 51.8925C488.257 51.0262 487.638 50.4637 486.254 50.1375L484.409 49.71C482.283 49.215 481.147 48.0562 481.147 46.425C481.147 44.3325 482.981 42.825 485.669 42.825C488.201 42.825 489.787 44.175 490.034 46.155H488.144ZM492.319 55.2V42.9825H494.254V55.2H492.319ZM491.936 39.675C491.925 38.955 492.544 38.3812 493.286 38.3925C494.029 38.3812 494.647 38.955 494.659 39.675C494.647 40.3837 494.029 40.9575 493.286 40.9575C492.544 40.9575 491.925 40.3837 491.936 39.675ZM502.208 42.9825V44.6025H499.643V51.69C499.632 53.2537 500.419 53.5125 501.24 53.5125C501.589 53.5125 502.107 53.4787 502.388 53.4675V55.2675C502.084 55.3125 501.612 55.3575 501.038 55.3575C499.407 55.3575 497.697 54.345 497.685 52.185V44.6025H495.84V42.9825H497.685V40.0575H499.643V42.9825H502.208ZM504.245 55.2V42.9825H506.18V55.2H504.245ZM503.862 39.675C503.851 38.955 504.47 38.3812 505.212 38.3925C505.955 38.3812 506.573 38.955 506.585 39.675C506.573 40.3837 505.955 40.9575 505.212 40.9575C504.47 40.9575 503.851 40.3837 503.862 39.675ZM513.796 55.4475C510.466 55.4587 508.216 52.9387 508.216 49.1475C508.216 45.3337 510.466 42.825 513.796 42.825C517.115 42.825 519.342 45.3337 519.331 49.1475C519.342 52.9387 517.115 55.4587 513.796 55.4475ZM510.151 49.1475C510.162 51.5887 511.31 53.7375 513.796 53.7375C516.26 53.7375 517.396 51.5887 517.396 49.1475C517.396 46.7175 516.26 44.535 513.796 44.535C511.31 44.535 510.162 46.7175 510.151 49.1475ZM523.348 47.865V55.2H521.413V42.9825H523.28V44.895H523.438C524.012 43.6462 525.159 42.825 527.015 42.825C529.49 42.825 531.144 44.3325 531.133 47.4375V55.2H529.198V47.5725C529.198 45.6825 528.163 44.5575 526.43 44.5575C524.653 44.5575 523.348 45.75 523.348 47.865ZM545.196 40.8C545.196 43.59 547.221 46.2225 550.146 47.28L549.156 48.6525C546.963 47.7862 545.208 46.0537 544.353 43.8712C543.509 46.29 541.686 48.2025 539.324 49.1475L538.379 47.7075C541.383 46.605 543.453 43.8037 543.464 40.7325V38.2575H545.196V40.8ZM542.001 56.595V50.3175H543.779V55.11H555.389V56.595H542.001ZM548.706 43.23V41.745H553.161V37.0425H554.939V52.0275H553.161V43.23H548.706ZM574.391 37.02V48.945H572.613V43.7025H568.586V42.24H572.613V37.02H574.391ZM557.898 47.3475C560.868 46.2787 562.983 43.5675 562.983 40.71V39.9675H558.461V38.4825H569.238V39.9675H564.761V40.6875C564.761 43.2975 566.763 45.7837 569.688 46.785L568.766 48.2025C566.527 47.3925 564.783 45.705 563.917 43.6462C563.062 45.9862 561.206 47.8537 558.821 48.765L557.898 47.3475ZM561.048 53.2875C561.037 50.9362 563.591 49.5637 567.753 49.575C571.904 49.5637 574.458 50.9362 574.458 53.2875C574.458 55.65 571.904 57 567.753 57.0225C563.591 57 561.037 55.65 561.048 53.2875ZM562.803 53.2875C562.792 54.7387 564.682 55.6162 567.753 55.605C570.813 55.6162 572.703 54.7387 572.703 53.2875C572.703 51.825 570.813 50.9475 567.753 50.9475C564.682 50.9475 562.792 51.825 562.803 53.2875Z" fill="#7737FF"/>
<path d="M597.761 52.2818C598.718 53.3803 600.425 53.3803 601.381 52.2818L608.579 44.0163C609.932 42.4633 608.829 40.0401 606.77 40.0401H592.373C590.314 40.0401 589.211 42.4633 590.563 44.0163L597.761 52.2818Z" fill="#7737FF"/>
<rect x="40" y="20" width="54.4" height="54.4" rx="12.8" fill="#7737FF"/>
<path d="M63.0727 43.3875C62.9264 41.9812 61.7452 41.1712 59.9902 41.1825C58.1339 41.1712 57.0314 42.0712 57.0202 43.2975C57.0089 44.67 58.4602 45.2325 59.8102 45.5475L61.3402 45.9525C63.7702 46.515 66.1102 47.7975 66.1102 50.6325C66.1102 53.49 63.8489 55.4475 59.9452 55.4475C56.1539 55.4475 53.7464 53.625 53.6227 50.4075H56.5027C56.6377 52.1062 58.0664 52.9387 59.9227 52.95C61.8464 52.9387 63.1739 52.005 63.1852 50.61C63.1739 49.3275 62.0039 48.7875 60.2377 48.3375L58.3927 47.865C55.7152 47.1675 54.0502 45.8175 54.0502 43.4775C54.0502 40.5975 56.6039 38.685 60.0352 38.685C63.4889 38.685 65.8402 40.6312 65.8852 43.3875H63.0727ZM73.8394 55.425C70.3631 55.425 67.8769 53.535 67.8094 50.79H70.7569C70.8356 52.095 72.1406 52.9612 73.8394 52.95C75.6281 52.9612 76.9219 51.9712 76.9219 50.52C76.9219 49.0575 75.6619 48.0112 73.5469 48H72.0844V45.75H73.5469C75.2794 45.75 76.4831 44.7825 76.4719 43.365C76.4831 41.9925 75.4481 41.07 73.8619 41.07C72.3319 41.07 71.0156 41.925 70.9594 43.2975H68.1469C68.2144 40.5637 70.7006 38.685 73.8844 38.685C77.1919 38.685 79.3294 40.71 79.3069 43.2075C79.3294 45.03 78.1144 46.3462 76.3369 46.7175V46.8525C78.6319 47.1562 79.9369 48.63 79.9144 50.6775C79.9369 53.4337 77.3606 55.425 73.8394 55.425Z" fill="white"/>
</svg>
