<svg width="720" height="850" viewBox="0 0 720 850" fill="none" xmlns="http://www.w3.org/2000/svg">
<rect width="720" height="850" fill="white"/>
<path d="M164.523 125.184C161.419 125.184 158.619 124.464 156.123 123.024C153.627 121.552 151.675 119.504 150.267 116.88C148.859 114.256 148.155 111.296 148.155 108C148.155 104.672 148.859 101.712 150.267 99.1198C151.675 96.4958 153.627 94.4638 156.123 93.0238C158.619 91.5518 161.419 90.8158 164.523 90.8158C167.627 90.8158 170.427 91.5518 172.923 93.0238C175.419 94.4638 177.371 96.4958 178.779 99.1198C180.187 101.712 180.891 104.672 180.891 108C180.891 111.296 180.187 114.256 178.779 116.88C177.371 119.504 175.419 121.552 172.923 123.024C170.427 124.464 167.627 125.184 164.523 125.184ZM164.523 123.264C167.179 123.264 169.579 122.64 171.723 121.392C173.867 120.144 175.547 118.368 176.763 116.064C178.011 113.76 178.635 111.072 178.635 108C178.635 104.896 178.011 102.192 176.763 99.8878C175.547 97.5838 173.867 95.8078 171.723 94.5598C169.579 93.3118 167.179 92.6878 164.523 92.6878C161.867 92.6878 159.467 93.3118 157.323 94.5598C155.179 95.8078 153.483 97.5838 152.235 99.8878C150.987 102.192 150.363 104.896 150.363 108C150.363 111.072 150.987 113.76 152.235 116.064C153.483 118.368 155.179 120.144 157.323 121.392C159.467 122.64 161.867 123.264 164.523 123.264ZM188.621 104.112C189.261 102.192 190.397 100.736 192.029 99.7438C193.661 98.7198 195.741 98.2078 198.269 98.2078V100.464H197.549C194.989 100.464 192.861 101.2 191.165 102.672C189.469 104.112 188.621 106.48 188.621 109.776V124.8H186.461V98.7358H188.621V104.112ZM213.514 98.3998C216.266 98.3998 218.602 99.0718 220.522 100.416C222.442 101.728 223.786 103.424 224.554 105.504V98.7358H226.714V125.616C226.714 128.016 226.186 130.112 225.13 131.904C224.074 133.728 222.65 135.12 220.858 136.08C219.066 137.072 217.066 137.568 214.858 137.568C211.594 137.568 208.89 136.784 206.746 135.216C204.602 133.648 203.194 131.536 202.522 128.88H204.682C205.322 130.96 206.522 132.608 208.282 133.824C210.042 135.072 212.234 135.696 214.858 135.696C216.682 135.696 218.33 135.28 219.802 134.448C221.274 133.648 222.426 132.48 223.258 130.944C224.122 129.44 224.554 127.664 224.554 125.616V117.984C223.786 120.064 222.426 121.792 220.474 123.168C218.554 124.512 216.234 125.184 213.514 125.184C211.082 125.184 208.906 124.64 206.986 123.552C205.098 122.432 203.61 120.864 202.522 118.848C201.466 116.8 200.938 114.432 200.938 111.744C200.938 109.056 201.466 106.704 202.522 104.688C203.61 102.672 205.098 101.12 206.986 100.032C208.906 98.9438 211.082 98.3998 213.514 98.3998ZM224.554 111.744C224.554 109.472 224.074 107.472 223.114 105.744C222.186 103.984 220.906 102.64 219.274 101.712C217.642 100.752 215.818 100.272 213.802 100.272C211.69 100.272 209.834 100.736 208.234 101.664C206.634 102.56 205.386 103.872 204.49 105.6C203.594 107.328 203.146 109.376 203.146 111.744C203.146 114.112 203.594 116.16 204.49 117.888C205.386 119.616 206.634 120.944 208.234 121.872C209.866 122.8 211.722 123.264 213.802 123.264C215.818 123.264 217.642 122.8 219.274 121.872C220.938 120.912 222.234 119.568 223.162 117.84C224.09 116.08 224.554 114.048 224.554 111.744ZM232.275 111.744C232.275 109.056 232.803 106.704 233.859 104.688C234.947 102.672 236.435 101.12 238.323 100.032C240.243 98.9438 242.419 98.3998 244.851 98.3998C247.603 98.3998 249.939 99.0718 251.859 100.416C253.779 101.76 255.123 103.472 255.891 105.552V98.7358H258.051V124.8H255.891V117.936C255.123 120.048 253.763 121.792 251.811 123.168C249.891 124.512 247.571 125.184 244.851 125.184C242.419 125.184 240.243 124.64 238.323 123.552C236.435 122.432 234.947 120.864 233.859 118.848C232.803 116.8 232.275 114.432 232.275 111.744ZM255.891 111.744C255.891 109.472 255.411 107.472 254.451 105.744C253.523 103.984 252.243 102.64 250.611 101.712C248.979 100.752 247.155 100.272 245.139 100.272C243.027 100.272 241.171 100.736 239.571 101.664C237.971 102.56 236.723 103.872 235.827 105.6C234.931 107.328 234.483 109.376 234.483 111.744C234.483 114.112 234.931 116.16 235.827 117.888C236.723 119.616 237.971 120.944 239.571 121.872C241.203 122.8 243.059 123.264 245.139 123.264C247.155 123.264 248.979 122.8 250.611 121.872C252.275 120.912 253.571 119.568 254.499 117.84C255.427 116.08 255.891 114.048 255.891 111.744ZM276.716 98.2078C279.82 98.2078 282.348 99.1678 284.3 101.088C286.252 102.976 287.228 105.792 287.228 109.536V124.8H285.116V109.68C285.116 106.576 284.332 104.208 282.764 102.576C281.196 100.912 279.068 100.08 276.38 100.08C273.564 100.08 271.308 100.976 269.612 102.768C267.948 104.56 267.116 107.216 267.116 110.736V124.8H264.956V98.7358H267.116V104.256C267.852 102.304 269.068 100.816 270.764 99.7918C272.492 98.7358 274.476 98.2078 276.716 98.2078ZM295.006 92.9278C294.494 92.9278 294.062 92.7678 293.71 92.4478C293.358 92.0958 293.182 91.6318 293.182 91.0558C293.182 90.5118 293.358 90.0638 293.71 89.7118C294.062 89.3598 294.494 89.1838 295.006 89.1838C295.518 89.1838 295.95 89.3598 296.302 89.7118C296.654 90.0638 296.83 90.5118 296.83 91.0558C296.83 91.6318 296.654 92.0958 296.302 92.4478C295.95 92.7678 295.518 92.9278 295.006 92.9278ZM296.062 98.7358V124.8H293.902V98.7358H296.062ZM303.117 122.976H317.805V124.8H300.717V122.976L315.021 100.56H301.053V98.7358H317.469V100.56L303.117 122.976ZM321.06 111.744C321.06 109.056 321.588 106.704 322.644 104.688C323.732 102.672 325.22 101.12 327.108 100.032C329.028 98.9438 331.204 98.3998 333.636 98.3998C336.388 98.3998 338.724 99.0718 340.644 100.416C342.564 101.76 343.908 103.472 344.676 105.552V98.7358H346.836V124.8H344.676V117.936C343.908 120.048 342.548 121.792 340.596 123.168C338.676 124.512 336.356 125.184 333.636 125.184C331.204 125.184 329.028 124.64 327.108 123.552C325.22 122.432 323.732 120.864 322.644 118.848C321.588 116.8 321.06 114.432 321.06 111.744ZM344.676 111.744C344.676 109.472 344.196 107.472 343.236 105.744C342.308 103.984 341.028 102.64 339.396 101.712C337.764 100.752 335.94 100.272 333.924 100.272C331.812 100.272 329.956 100.736 328.356 101.664C326.756 102.56 325.508 103.872 324.612 105.6C323.716 107.328 323.268 109.376 323.268 111.744C323.268 114.112 323.716 116.16 324.612 117.888C325.508 119.616 326.756 120.944 328.356 121.872C329.988 122.8 331.844 123.264 333.924 123.264C335.94 123.264 337.764 122.8 339.396 121.872C341.06 120.912 342.356 119.568 343.284 117.84C344.212 116.08 344.676 114.048 344.676 111.744ZM356.957 100.608V117.84C356.957 119.76 357.309 121.088 358.013 121.824C358.717 122.528 359.965 122.88 361.757 122.88H364.685V124.8H361.421C359.149 124.8 357.469 124.272 356.381 123.216C355.325 122.128 354.797 120.336 354.797 117.84V100.608H350.861V98.7358H354.797V92.1118H356.957V98.7358H364.685V100.608H356.957ZM370.526 92.9278C370.014 92.9278 369.582 92.7678 369.23 92.4478C368.878 92.0958 368.702 91.6318 368.702 91.0558C368.702 90.5118 368.878 90.0638 369.23 89.7118C369.582 89.3598 370.014 89.1838 370.526 89.1838C371.038 89.1838 371.47 89.3598 371.822 89.7118C372.174 90.0638 372.35 90.5118 372.35 91.0558C372.35 91.6318 372.174 92.0958 371.822 92.4478C371.47 92.7678 371.038 92.9278 370.526 92.9278ZM371.582 98.7358V124.8H369.422V98.7358H371.582ZM390.012 125.184C387.58 125.184 385.388 124.64 383.436 123.552C381.484 122.464 379.948 120.912 378.828 118.896C377.74 116.848 377.196 114.464 377.196 111.744C377.196 109.056 377.756 106.704 378.876 104.688C379.996 102.64 381.532 101.088 383.484 100.032C385.468 98.9438 387.676 98.3998 390.108 98.3998C392.54 98.3998 394.732 98.9438 396.684 100.032C398.636 101.088 400.156 102.624 401.244 104.64C402.364 106.656 402.924 109.024 402.924 111.744C402.924 114.464 402.364 116.848 401.244 118.896C400.124 120.912 398.572 122.464 396.588 123.552C394.636 124.64 392.444 125.184 390.012 125.184ZM390.012 123.264C391.9 123.264 393.66 122.848 395.292 122.016C396.956 121.152 398.284 119.856 399.276 118.128C400.268 116.4 400.764 114.272 400.764 111.744C400.764 109.248 400.268 107.136 399.276 105.408C398.284 103.68 396.972 102.4 395.34 101.568C393.708 100.704 391.948 100.272 390.06 100.272C388.172 100.272 386.412 100.704 384.78 101.568C383.18 102.4 381.884 103.68 380.892 105.408C379.9 107.136 379.404 109.248 379.404 111.744C379.404 114.272 379.884 116.4 380.844 118.128C381.836 119.856 383.132 121.152 384.732 122.016C386.364 122.848 388.124 123.264 390.012 123.264ZM420.277 98.2078C423.381 98.2078 425.909 99.1678 427.861 101.088C429.813 102.976 430.789 105.792 430.789 109.536V124.8H428.677V109.68C428.677 106.576 427.893 104.208 426.325 102.576C424.757 100.912 422.629 100.08 419.941 100.08C417.125 100.08 414.869 100.976 413.173 102.768C411.509 104.56 410.677 107.216 410.677 110.736V124.8H408.517V98.7358H410.677V104.256C411.413 102.304 412.629 100.816 414.325 99.7918C416.053 98.7358 418.037 98.2078 420.277 98.2078ZM448.707 108C448.707 104.672 449.395 101.712 450.771 99.1198C452.179 96.4958 454.099 94.4478 456.531 92.9758C458.995 91.5038 461.747 90.7678 464.787 90.7678C468.627 90.7678 471.859 91.6638 474.483 93.4558C477.107 95.2478 479.027 97.7598 480.243 100.992H477.747C476.787 98.4318 475.187 96.4158 472.947 94.9438C470.739 93.4398 468.019 92.6878 464.787 92.6878C462.195 92.6878 459.843 93.3118 457.731 94.5598C455.619 95.7758 453.955 97.5518 452.739 99.8878C451.523 102.192 450.915 104.896 450.915 108C450.915 111.072 451.523 113.76 452.739 116.064C453.955 118.336 455.619 120.096 457.731 121.344C459.843 122.592 462.195 123.216 464.787 123.216C468.019 123.216 470.739 122.48 472.947 121.008C475.187 119.504 476.787 117.472 477.747 114.912H480.243C479.027 118.144 477.107 120.656 474.483 122.448C471.859 124.24 468.627 125.136 464.787 125.136C461.747 125.136 458.995 124.416 456.531 122.976C454.099 121.504 452.179 119.472 450.771 116.88C449.395 114.256 448.707 111.296 448.707 108ZM497.836 98.2078C500.908 98.2078 503.42 99.1678 505.372 101.088C507.324 102.976 508.3 105.792 508.3 109.536V124.8H506.188V109.68C506.188 106.576 505.404 104.208 503.836 102.576C502.268 100.912 500.14 100.08 497.452 100.08C494.636 100.08 492.38 100.976 490.684 102.768C489.02 104.56 488.188 107.216 488.188 110.736V124.8H486.028V89.2798H488.188V104.256C488.924 102.304 490.156 100.816 491.884 99.7918C493.612 98.7358 495.596 98.2078 497.836 98.2078ZM513.63 111.744C513.63 109.056 514.158 106.704 515.214 104.688C516.302 102.672 517.79 101.12 519.678 100.032C521.598 98.9438 523.774 98.3998 526.206 98.3998C528.958 98.3998 531.294 99.0718 533.214 100.416C535.134 101.76 536.478 103.472 537.246 105.552V98.7358H539.406V124.8H537.246V117.936C536.478 120.048 535.118 121.792 533.166 123.168C531.246 124.512 528.926 125.184 526.206 125.184C523.774 125.184 521.598 124.64 519.678 123.552C517.79 122.432 516.302 120.864 515.214 118.848C514.158 116.8 513.63 114.432 513.63 111.744ZM537.246 111.744C537.246 109.472 536.766 107.472 535.806 105.744C534.878 103.984 533.598 102.64 531.966 101.712C530.334 100.752 528.51 100.272 526.494 100.272C524.382 100.272 522.526 100.736 520.926 101.664C519.326 102.56 518.078 103.872 517.182 105.6C516.286 107.328 515.838 109.376 515.838 111.744C515.838 114.112 516.286 116.16 517.182 117.888C518.078 119.616 519.326 120.944 520.926 121.872C522.558 122.8 524.414 123.264 526.494 123.264C528.51 123.264 530.334 122.8 531.966 121.872C533.63 120.912 534.926 119.568 535.854 117.84C536.782 116.08 537.246 114.048 537.246 111.744ZM548.471 104.112C549.111 102.192 550.247 100.736 551.879 99.7438C553.511 98.7198 555.591 98.2078 558.119 98.2078V100.464H557.399C554.839 100.464 552.711 101.2 551.015 102.672C549.319 104.112 548.471 106.48 548.471 109.776V124.8H546.311V98.7358H548.471V104.112ZM565.348 100.608V117.84C565.348 119.76 565.7 121.088 566.404 121.824C567.108 122.528 568.356 122.88 570.148 122.88H573.076V124.8H569.812C567.54 124.8 565.86 124.272 564.772 123.216C563.716 122.128 563.188 120.336 563.188 117.84V100.608H559.252V98.7358H563.188V92.1118H565.348V98.7358H573.076V100.608H565.348Z" fill="#404040"/>
<rect x="120" y="160.8" width="480" height="2.4" fill="url(#paint0_linear_579_1971)"/>
<rect x="120" y="160.8" width="480" height="2.4" fill="white" fill-opacity="0.4"/>
<path d="M130.986 677.086L130.986 657.857" stroke="url(#paint1_linear_579_1971)" stroke-width="0.938004" stroke-linecap="round"/>
<path d="M177.887 610.486C177.887 636.389 156.889 657.387 130.986 657.387C105.084 657.387 84.0862 636.389 84.0862 610.486C84.0862 584.584 105.084 563.586 130.986 563.586C156.889 563.586 177.887 584.584 177.887 610.486Z" fill="#F5F8FF" stroke="#799EFF" stroke-width="0.938004"/>
<path d="M124.73 609.064C124.401 608.02 123.601 607.373 122.436 607.379C120.946 607.373 119.805 608.545 119.799 610.688C119.805 612.824 120.934 614.002 122.497 613.996C123.906 614.002 124.84 613.104 124.865 611.688H122.692V610.578H126.171V611.579C126.171 613.819 124.633 615.229 122.484 615.229C120.092 615.229 118.468 613.489 118.468 610.688C118.468 607.868 120.141 606.146 122.423 606.146C124.334 606.146 125.811 607.337 126.11 609.064H124.73ZM127.471 606.269H129.107L131.902 613.117H132.012L134.808 606.269H136.443V615.106H135.162V608.722H135.076L132.488 615.094H131.426L128.826 608.71H128.753V615.106H127.471V606.269ZM138 615.106V606.269H141.149C143.206 606.269 144.213 607.501 144.213 609.137C144.213 610.767 143.2 612.006 141.149 612.006H139.343V615.106H138ZM139.343 610.858H141.015C142.315 610.865 142.858 610.132 142.858 609.137C142.858 608.136 142.315 607.422 141.015 607.416H139.343V610.858Z" fill="#404040"/>
<ellipse cx="179.504" cy="738.055" rx="42.4212" ry="42.6323" fill="#F5F8FF"/>
<path d="M221.503 738.055C221.503 761.369 202.698 780.265 179.504 780.265C156.311 780.265 137.505 761.369 137.505 738.055C137.505 714.741 156.311 695.845 179.504 695.845C202.698 695.845 221.503 714.741 221.503 738.055Z" stroke="#799EFF" stroke-opacity="0.5" stroke-width="0.844204"/>
<path d="M154.786 726.04L157.043 732.655H157.133L159.39 726.04H160.727L157.795 734.171H156.369L153.449 726.04H154.786ZM161.53 734.171V726.04H162.765V729.566H166.808V726.04H168.044V734.171H166.808V730.622H162.765V734.171H161.53ZM169.476 734.171V726.04H172.373C174.265 726.04 175.192 727.174 175.192 728.679C175.192 730.178 174.26 731.318 172.373 731.318H170.711V734.171H169.476ZM170.711 730.263H172.25C173.446 730.268 173.945 729.594 173.945 728.679C173.945 727.758 173.446 727.101 172.25 727.096H170.711V730.263ZM184.345 728.69C184.149 727.64 183.278 727.056 182.245 727.062C180.841 727.056 179.802 728.135 179.797 730.105C179.802 732.088 180.847 733.155 182.245 733.149C183.267 733.155 184.132 732.582 184.345 731.543L185.592 731.554C185.333 733.16 184.025 734.283 182.234 734.283C180.117 734.283 178.573 732.705 178.573 730.105C178.573 727.506 180.128 725.928 182.234 725.928C183.952 725.928 185.317 726.944 185.592 728.69H184.345ZM187.372 736.462C187.125 736.456 186.884 736.451 186.732 736.428V735.429C186.867 735.44 187.103 735.446 187.271 735.451C187.642 735.446 187.95 735.423 188.237 734.654L188.383 734.25L186.148 728.073H187.428L188.967 732.801H189.034L190.573 728.073H191.864L189.349 734.979C188.995 735.945 188.377 736.456 187.372 736.462ZM194.981 734.294C193.201 734.294 192.123 732.986 192.128 731.15C192.123 729.291 193.24 727.994 194.958 727.994C196.351 727.994 197.356 728.814 197.485 730.049H196.317C196.194 729.477 195.739 728.999 194.981 728.994C193.993 728.999 193.33 729.819 193.33 731.116C193.33 732.453 193.976 733.278 194.981 733.272C195.66 733.278 196.166 732.896 196.317 732.239H197.485C197.356 733.424 196.418 734.294 194.981 734.294ZM199.591 726.04V734.171H198.39V726.04H199.591ZM203.449 734.294C201.652 734.294 200.546 733.053 200.552 731.161C200.546 729.286 201.669 727.994 203.371 727.994C204.757 727.994 206.077 728.853 206.077 731.06V731.487H201.742C201.776 732.649 202.461 733.306 203.46 733.306C204.14 733.306 204.583 733.014 204.786 732.644H205.998C205.729 733.632 204.791 734.294 203.449 734.294ZM201.748 730.588H204.898C204.898 729.662 204.297 728.977 203.382 728.982C202.422 728.977 201.798 729.729 201.748 730.588ZM149.777 750.171H147.138V742.04H149.855C152.253 742.04 153.679 743.562 153.685 746.094C153.679 748.632 152.253 750.171 149.777 750.171ZM148.373 749.093H149.709C151.551 749.087 152.461 748.015 152.461 746.094C152.461 744.179 151.551 743.118 149.777 743.118H148.373V749.093ZM157.374 750.294C155.577 750.294 154.471 749.053 154.477 747.161C154.471 745.286 155.594 743.994 157.296 743.994C158.683 743.994 160.002 744.853 160.002 747.06V747.487H155.667C155.701 748.649 156.386 749.306 157.386 749.306C158.065 749.306 158.509 749.014 158.711 748.644H159.924C159.654 749.632 158.716 750.294 157.374 750.294ZM155.673 746.588H158.823C158.823 745.662 158.222 744.977 157.307 744.982C156.347 744.977 155.723 745.729 155.673 746.588ZM166.005 744.073L163.793 750.171H162.501L160.289 744.073H161.58L163.119 748.756H163.175L164.714 744.073H166.005ZM169.167 750.294C167.37 750.294 166.264 749.053 166.269 747.161C166.264 745.286 167.387 743.994 169.088 743.994C170.475 743.994 171.795 744.853 171.795 747.06V747.487H167.46C167.493 748.649 168.179 749.306 169.178 749.306C169.857 749.306 170.301 749.014 170.503 748.644H171.716C171.447 749.632 170.509 750.294 169.167 750.294ZM167.465 746.588H170.616C170.616 745.662 170.015 744.977 169.099 744.982C168.139 744.977 167.516 745.729 167.465 746.588ZM173.957 742.04V750.171H172.755V742.04H173.957ZM177.77 750.294C176.04 750.294 174.912 749.037 174.917 747.15C174.912 745.252 176.04 743.994 177.77 743.994C179.488 743.994 180.611 745.252 180.611 747.15C180.611 749.037 179.488 750.294 177.77 750.294ZM176.119 747.15C176.119 748.312 176.652 749.295 177.77 749.295C178.87 749.295 179.398 748.312 179.398 747.15C179.398 745.982 178.87 744.988 177.77 744.982C176.652 744.988 176.119 745.982 176.119 747.15ZM181.56 752.462V744.073H182.728V745.061H182.829C183.043 744.679 183.453 743.994 184.581 743.994C186.058 743.994 187.142 745.151 187.142 747.139C187.142 749.104 186.069 750.289 184.593 750.294C183.486 750.289 183.048 749.615 182.829 749.216H182.762V752.462H181.56ZM182.739 747.116C182.739 748.396 183.301 749.267 184.323 749.272C185.379 749.267 185.929 748.34 185.929 747.116C185.929 745.915 185.395 745.01 184.323 745.016C183.29 745.01 182.739 745.847 182.739 747.116ZM188.102 750.171V744.073H189.259V745.072H189.326C189.585 744.393 190.186 743.994 190.988 743.994C191.803 743.994 192.37 744.393 192.628 745.072H192.696C192.982 744.415 193.644 743.994 194.526 743.994C195.627 743.994 196.407 744.685 196.413 746.083V750.171H195.211V746.195C195.211 745.37 194.695 745.027 194.066 745.027C193.296 745.027 192.853 745.555 192.853 746.285V750.171H191.662V746.128C191.662 745.46 191.207 745.027 190.55 745.027C189.877 745.027 189.304 745.589 189.304 746.409V750.171H188.102ZM200.259 750.294C198.463 750.294 197.356 749.053 197.362 747.161C197.356 745.286 198.479 743.994 200.181 743.994C201.568 743.994 202.887 744.853 202.887 747.06V747.487H198.552C198.586 748.649 199.271 749.306 200.271 749.306C200.95 749.306 201.394 749.014 201.596 748.644H202.809C202.539 749.632 201.602 750.294 200.259 750.294ZM198.558 746.588H201.708C201.708 745.662 201.107 744.977 200.192 744.982C199.232 744.977 198.609 745.729 198.558 746.588ZM205.049 746.555V750.171H203.848V744.073H205.005V745.072H205.072C205.358 744.415 205.959 743.994 206.869 743.994C208.121 743.994 208.952 744.786 208.946 746.296V750.171H207.756V746.442C207.75 745.555 207.273 745.027 206.465 745.027C205.639 745.027 205.049 745.583 205.049 746.555ZM213.029 744.073V745.027H211.782V748.374C211.788 749.065 212.125 749.188 212.512 749.194C212.686 749.194 212.95 749.177 213.119 749.16V750.205C212.956 750.227 212.698 750.25 212.366 750.25C211.429 750.25 210.581 749.733 210.592 748.621V745.027H209.694V744.073H210.592V742.613H211.782V744.073H213.029Z" fill="#404040"/>
<ellipse cx="82.6323" cy="738.055" rx="42.6323" ry="42.6323" fill="#F5F8FF"/>
<path d="M124.842 738.055C124.842 761.367 105.944 780.265 82.6323 780.265C59.3202 780.265 40.4221 761.367 40.4221 738.055C40.4221 714.743 59.3202 695.845 82.6323 695.845C105.944 695.845 124.842 714.743 124.842 738.055Z" stroke="#799EFF" stroke-opacity="0.5" stroke-width="0.844204"/>
<path d="M59.1786 734.482L61.4359 741.097H61.5257L63.783 734.482H65.1195L62.1883 742.613H60.7621L57.8421 734.482H59.1786ZM64.9344 740.895C64.9288 739.502 66.1136 739.143 67.2142 739.064C67.6185 739.042 68.5338 738.991 68.8145 738.98L68.8089 738.492C68.8145 737.801 68.3878 737.402 67.5736 737.402C66.866 737.402 66.4393 737.728 66.3157 738.177H65.1253C65.232 737.167 66.1754 736.437 67.6185 736.437C68.5899 736.437 70.005 736.79 70.0106 738.559V742.613H68.8426V741.782H68.7977C68.5618 742.237 68.0003 742.748 66.9896 742.748C65.8328 742.748 64.9288 742.085 64.9344 740.895ZM66.1024 740.906C66.1024 741.49 66.5853 741.788 67.2591 741.793C68.2362 741.788 68.8201 741.136 68.8201 740.412L68.8145 739.856C68.5394 739.873 67.669 739.935 67.3826 739.952C66.5965 740.008 66.1024 740.305 66.1024 740.906ZM72.431 734.482V742.613H71.2293V734.482H72.431ZM73.6609 742.613V736.515H74.8626V742.613H73.6609ZM73.5037 734.864C73.5093 734.471 73.8518 734.157 74.2674 734.157C74.6773 734.157 75.0198 734.471 75.0198 734.864C75.0198 735.257 74.6773 735.577 74.2674 735.572C73.8518 735.577 73.5093 735.257 73.5037 734.864ZM78.3723 742.737C76.9011 742.731 75.823 741.546 75.823 739.581C75.823 737.593 76.918 736.437 78.3836 736.437C79.5178 736.437 79.9277 737.122 80.1467 737.503H80.2029V734.482H81.4046V742.613H80.2366V741.659H80.1467C79.9221 742.057 79.4841 742.731 78.3723 742.737ZM77.0471 739.559C77.0415 740.783 77.5918 741.709 78.6419 741.715C79.6638 741.709 80.2366 740.839 80.2366 739.559C80.2366 738.29 79.6751 737.453 78.6419 737.458C77.5806 737.453 77.0415 738.357 77.0471 739.559ZM82.4548 740.895C82.4492 739.502 83.634 739.143 84.7346 739.064C85.1389 739.042 86.0542 738.991 86.335 738.98L86.3293 738.492C86.335 737.801 85.9082 737.402 85.094 737.402C84.3865 737.402 83.9597 737.728 83.8362 738.177H82.6457C82.7524 737.167 83.6958 736.437 85.1389 736.437C86.1103 736.437 87.5254 736.79 87.531 738.559V742.613H86.363V741.782H86.3181C86.0823 742.237 85.5207 742.748 84.51 742.748C83.3533 742.748 82.4492 742.085 82.4548 740.895ZM83.6228 740.906C83.6228 741.49 84.1057 741.788 84.7795 741.793C85.7566 741.788 86.3406 741.136 86.3406 740.412L86.335 739.856C86.0598 739.873 85.1894 739.935 84.9031 739.952C84.1169 740.008 83.6228 740.305 83.6228 740.906ZM91.6023 736.515V737.47H90.3557V740.816C90.3613 741.507 90.6982 741.631 91.0857 741.636C91.2597 741.636 91.5237 741.619 91.6921 741.603V742.647C91.5293 742.669 91.271 742.692 90.9397 742.692C90.0019 742.692 89.154 742.175 89.1653 741.063V737.47H88.2668V736.515H89.1653V735.055H90.3557V736.515H91.6023ZM92.5402 742.613V736.515H93.7419V742.613H92.5402ZM92.383 734.864C92.3886 734.471 92.7312 734.157 93.1467 734.157C93.5566 734.157 93.8991 734.471 93.8991 734.864C93.8991 735.257 93.5566 735.577 93.1467 735.572C92.7312 735.577 92.3886 735.257 92.383 734.864ZM97.5549 742.737C95.8254 742.737 94.6967 741.479 94.7023 739.592C94.6967 737.694 95.8254 736.437 97.5549 736.437C99.2731 736.437 100.396 737.694 100.396 739.592C100.396 741.479 99.2731 742.737 97.5549 742.737ZM95.904 739.592C95.904 740.755 96.4374 741.737 97.5549 741.737C98.6554 741.737 99.1833 740.755 99.1833 739.592C99.1833 738.424 98.6554 737.43 97.5549 737.425C96.4374 737.43 95.904 738.424 95.904 739.592ZM102.547 738.997V742.613H101.345V736.515H102.502V737.515H102.569C102.856 736.858 103.457 736.437 104.366 736.437C105.619 736.437 106.45 737.228 106.444 738.739V742.613H105.254V738.885C105.248 737.998 104.771 737.47 103.962 737.47C103.137 737.47 102.547 738.026 102.547 738.997Z" fill="#404040"/>
<path d="M406.9 610.486C406.9 636.391 386.005 657.387 360.234 657.387C334.464 657.387 313.569 636.391 313.569 610.486C313.569 584.582 334.464 563.586 360.234 563.586C386.005 563.586 406.9 584.582 406.9 610.486Z" fill="#F5F8FF" stroke="#799EFF" stroke-width="0.938004"/>
<path d="M332.187 607.99C332.174 609.986 333.383 612 335.08 612.75L334.384 613.666C333.126 613.068 332.132 611.841 331.619 610.346C331.112 611.951 330.105 613.269 328.793 613.91L328.085 612.934C329.806 612.171 331.015 610.077 331.015 607.99V606.122H332.187V607.99ZM336.068 616.168V605.207H337.228V616.168H336.068ZM344.278 606.757C344.278 608.539 346.176 610.224 348.282 610.602L347.745 611.566C345.993 611.188 344.388 610.041 343.68 608.502C342.959 610.034 341.354 611.176 339.603 611.566L339.09 610.602C341.165 610.211 343.051 608.539 343.057 606.757V605.927H344.278V606.757ZM338.724 614.704V613.739H348.733V614.704H338.724ZM353.928 605.902V606.854H350.876V608.039H353.5V608.942H350.876V610.248C352.323 610.236 353.269 610.181 354.392 609.979L354.501 610.895C353.244 611.133 352.2 611.176 350.473 611.176H349.765V605.902H353.928ZM351.291 616.01V612.262H358.603V616.01H351.291ZM352.451 615.07H357.468V613.178H352.451V615.07ZM354.001 608.856V607.917H355.356V605.39H356.455V611.688H355.356V608.856H354.001ZM357.504 611.774V605.207H358.603V611.774H357.504ZM366.428 607.99C366.416 609.925 367.545 611.908 369.175 612.702L368.455 613.629C367.264 613.007 366.343 611.786 365.861 610.327C365.372 611.878 364.414 613.19 363.169 613.837L362.449 612.897C364.127 612.091 365.262 609.992 365.269 607.99V606.122H366.428V607.99ZM369.993 616.144V605.207H371.152V609.564H372.91V610.553H371.152V616.144H369.993ZM376.212 605.707C377.653 605.695 378.77 606.531 379.008 607.758H381.144V605.207H382.304V611.078H381.144V608.71H379.014C378.788 609.967 377.665 610.81 376.212 610.81C374.54 610.81 373.338 609.754 373.344 608.246C373.338 606.757 374.54 605.695 376.212 605.707ZM374.455 608.246C374.448 609.18 375.181 609.833 376.212 609.833C377.226 609.833 377.946 609.18 377.946 608.246C377.946 607.306 377.226 606.665 376.212 606.671C375.181 606.665 374.448 607.306 374.455 608.246ZM375.175 616.01V611.603H376.322V612.873H381.144V611.603H382.304V616.01H375.175ZM376.322 615.058H381.144V613.788H376.322V615.058ZM393.736 611.64V612.555H389.268V616.144H388.133V612.555H383.726V611.64H393.736ZM384.971 610.395V605.646H386.119V607.074H391.319V605.646H392.479V610.395H384.971ZM386.119 609.467H391.319V608.002H386.119V609.467Z" fill="#404040"/>
<ellipse cx="408.331" cy="738.055" rx="42.4212" ry="42.6323" fill="#F5F8FF"/>
<path d="M450.331 738.055C450.331 761.369 431.525 780.265 408.331 780.265C385.138 780.265 366.332 761.369 366.332 738.055C366.332 714.741 385.138 695.845 408.331 695.845C431.525 695.845 450.331 714.741 450.331 738.055Z" stroke="#799EFF" stroke-opacity="0.5" stroke-width="0.844204"/>
<path d="M397.207 742.613V734.482H402.305V735.549H398.442V738.009H402.036V739.064H398.442V741.546H402.35V742.613H397.207ZM403.592 734.482H405.096L407.668 740.783H407.769L410.341 734.482H411.846V742.613H410.667V736.74H410.588L408.207 742.602H407.23L404.838 736.729H404.771V742.613H403.592V734.482ZM417.703 736.627C417.624 735.869 416.962 735.437 416.03 735.437C415.036 735.437 414.407 735.948 414.401 736.639C414.401 737.408 415.238 737.711 415.884 737.863L416.67 738.076C417.708 738.329 419.011 738.896 419.017 740.367C419.011 741.743 417.916 742.748 415.996 742.748C414.176 742.748 413.031 741.838 412.952 740.356H414.188C414.261 741.243 415.047 741.664 415.996 741.67C417.035 741.664 417.787 741.142 417.793 740.345C417.787 739.637 417.113 739.351 416.254 739.121L415.288 738.862C413.98 738.503 413.171 737.84 413.166 736.706C413.171 735.302 414.418 734.37 416.063 734.37C417.714 734.37 418.865 735.313 418.905 736.627H417.703Z" fill="#404040"/>
<ellipse cx="311.458" cy="738.055" rx="42.6323" ry="42.6323" fill="#F5F8FF"/>
<path d="M353.669 738.055C353.669 761.367 334.77 780.265 311.458 780.265C288.146 780.265 269.248 761.367 269.248 738.055C269.248 714.743 288.146 695.845 311.458 695.845C334.77 695.845 353.669 714.743 353.669 738.055Z" stroke="#799EFF" stroke-opacity="0.5" stroke-width="0.844204"/>
<path d="M294.032 736.47C294.027 738.059 295.077 739.834 296.604 740.558L295.998 741.389C294.869 740.85 293.97 739.716 293.516 738.402C293.055 739.834 292.112 741.075 290.966 741.647L290.337 740.805C291.865 740.07 292.971 738.172 292.977 736.47V735.403H290.708V734.516H296.222V735.403H294.032V736.47ZM297.3 743.568V733.505H298.367V737.492H299.984V738.391H298.367V743.568H297.3ZM309.424 738.402V739.255H300.237V738.402H304.314V737.335H301.383V733.966H308.29V734.808H302.438V736.481H308.357V737.335H305.347V738.402H309.424ZM301.327 741.737C301.327 740.569 302.635 739.912 304.819 739.907C306.987 739.912 308.284 740.569 308.29 741.737C308.284 742.905 306.987 743.562 304.819 743.568C302.635 743.562 301.327 742.905 301.327 741.737ZM302.405 741.737C302.399 742.383 303.281 742.737 304.819 742.726C306.335 742.737 307.223 742.383 307.223 741.737C307.223 741.103 306.335 740.738 304.819 740.738C303.281 740.738 302.399 741.103 302.405 741.737ZM321.16 733.505V743.568H320.138V733.505H321.16ZM312.378 740.794C313.804 739.935 314.529 738.104 314.534 736.313V735.504H312.681V734.64H317.286V735.504H315.556V736.313C315.556 738.031 316.252 739.755 317.667 740.569L317.027 741.355C316.067 740.783 315.41 739.755 315.056 738.542C314.697 739.856 314.012 740.979 313.029 741.591L312.378 740.794ZM316.544 737.941V737.065H318.105V733.719H319.116V743.062H318.105V737.941H316.544ZM324.962 734.258C326.332 734.263 327.326 735.42 327.489 737.279H329.566V733.505H330.622V743.59H329.566V738.144H327.5C327.382 740.109 326.366 741.327 324.962 741.322C323.463 741.327 322.401 739.957 322.413 737.784C322.401 735.634 323.463 734.263 324.962 734.258ZM323.423 737.784C323.429 739.385 324.052 740.367 324.962 740.367C325.872 740.367 326.495 739.385 326.5 737.784C326.495 736.206 325.872 735.218 324.962 735.212C324.052 735.218 323.429 736.206 323.423 737.784Z" fill="#404040"/>
<ellipse cx="637.579" cy="738.056" rx="42.4212" ry="42.6323" fill="#F5F8FF"/>
<path d="M679.579 738.056C679.579 761.37 660.773 780.266 637.579 780.266C614.386 780.266 595.58 761.37 595.58 738.056C595.58 714.742 614.386 695.846 637.579 695.846C660.773 695.846 679.579 714.742 679.579 738.056Z" stroke="#799EFF" stroke-opacity="0.5" stroke-width="0.844204"/>
<path d="M625.111 733.518V740.829H624.044V733.518H625.111ZM616.969 736.685C616.974 735.23 618.131 734.197 619.653 734.191C621.169 734.197 622.326 735.23 622.326 736.685C622.326 738.161 621.169 739.189 619.653 739.189C618.131 739.189 616.974 738.161 616.969 736.685ZM618.013 736.685C618.008 737.634 618.715 738.257 619.653 738.257C620.574 738.257 621.281 737.634 621.281 736.685C621.281 735.758 620.574 735.124 619.653 735.124C618.715 735.124 618.008 735.758 618.013 736.685ZM618.53 743.355V740.087H619.608V742.491H625.414V743.355H618.53ZM629.968 736.067C629.957 737.847 630.996 739.672 632.495 740.402L631.833 741.255C630.738 740.683 629.89 739.56 629.446 738.218C628.997 739.644 628.115 740.851 626.97 741.446L626.307 740.582C627.851 739.84 628.896 737.909 628.901 736.067V734.349H629.968V736.067ZM633.248 743.569V733.506H634.314V737.516H635.932V738.425H634.314V743.569H633.248ZM647.937 738.661V739.526H638.762V738.661H642.816V737.504H643.872V738.661H647.937ZM639.245 737.179C641.239 737.016 642.62 736.286 642.749 735.314H639.683V734.461H642.816V733.495H643.872V734.461H647.017V735.314H643.939C644.057 736.286 645.444 737.016 647.443 737.179L647.118 737.999C645.377 737.836 643.968 737.252 643.344 736.314C642.715 737.252 641.312 737.836 639.582 737.999L639.245 737.179ZM639.852 741.873C639.852 740.784 641.143 740.188 643.344 740.188C645.534 740.188 646.809 740.784 646.814 741.873C646.809 742.962 645.534 743.552 643.344 743.546C641.143 743.552 639.852 742.962 639.852 741.873ZM640.93 741.873C640.924 742.446 641.789 742.749 643.344 742.738C644.877 742.749 645.748 742.446 645.748 741.873C645.748 741.3 644.877 740.986 643.344 740.986C641.789 740.986 640.924 741.3 640.93 741.873ZM657.669 739.279V740.144H653.559V743.558H652.514V740.144H648.46V739.279H657.669ZM649.617 737.999V734.045H656.512V737.999H649.617ZM650.661 737.167H655.445V734.899H650.661V737.167Z" fill="#404040"/>
<ellipse cx="540.285" cy="738.056" rx="42.6323" ry="42.6323" fill="#F5F8FF"/>
<path d="M582.495 738.056C582.495 761.368 563.597 780.266 540.285 780.266C516.973 780.266 498.074 761.368 498.074 738.056C498.074 714.744 516.973 695.846 540.285 695.846C563.597 695.846 582.495 714.744 582.495 738.056Z" stroke="#799EFF" stroke-opacity="0.5" stroke-width="0.844204"/>
<path d="M539.894 733.506V743.569H538.872V738.403H537.671V743.075H536.66V733.697H537.671V737.504H538.872V733.506H539.894ZM531.067 740.728C532.538 739.902 533.223 738.167 533.223 736.168V735.517H531.337V734.652H536.009V735.517H534.257V736.168C534.257 737.976 534.936 739.616 536.402 740.368L535.773 741.188C534.784 740.649 534.122 739.711 533.762 738.554C533.42 739.874 532.757 740.93 531.73 741.536L531.067 740.728ZM549.3 733.518V739.47H548.233V738.246H545.695V737.37H548.233V736.146H545.802C545.15 737.763 543.64 738.903 541.461 739.526L541.034 738.695C543.415 738.015 544.808 736.735 544.999 735.112H541.551V734.236H546.156C546.156 734.607 546.116 734.966 546.049 735.303H548.233V733.518H549.3ZM542.595 741.547C542.595 740.329 543.921 739.588 545.987 739.582C548.025 739.588 549.362 740.329 549.367 741.547C549.362 742.771 548.025 743.524 545.987 743.524C543.921 743.524 542.595 742.771 542.595 741.547ZM543.651 741.547C543.651 742.255 544.55 742.665 545.987 742.67C547.396 742.665 548.295 742.255 548.301 741.547C548.295 740.829 547.396 740.419 545.987 740.424C544.55 740.419 543.651 740.829 543.651 741.547Z" fill="#404040"/>
<path d="M635.961 611.426C635.961 637.328 614.963 658.326 589.061 658.326C563.158 658.326 542.16 637.328 542.16 611.426C542.16 585.524 563.158 564.526 589.061 564.526C614.963 564.526 635.961 585.524 635.961 611.426Z" fill="#F5F8FF" stroke="#799EFF" stroke-width="0.938004"/>
<path d="M575.783 606.158V612.628H574.623V611.297H571.864V610.345H574.623V609.015H571.98C571.272 610.772 569.63 612.011 567.262 612.689L566.798 611.786C569.386 611.047 570.9 609.656 571.107 607.892H567.36V606.939H572.365C572.365 607.342 572.322 607.733 572.249 608.099H574.623V606.158H575.783ZM568.495 614.886C568.495 613.562 569.936 612.756 572.182 612.75C574.397 612.756 575.85 613.562 575.856 614.886C575.85 616.217 574.397 617.035 572.182 617.035C569.936 617.035 568.495 616.217 568.495 614.886ZM569.643 614.886C569.643 615.655 570.619 616.101 572.182 616.107C573.714 616.101 574.69 615.655 574.696 614.886C574.69 614.105 573.714 613.659 572.182 613.666C570.619 613.659 569.643 614.105 569.643 614.886ZM580.245 606.781C581.154 606.775 581.929 607.116 582.442 607.684H585.176V606.146H586.336V612.604H585.176V611.126H582.436C581.923 611.688 581.148 612.024 580.245 612.018C578.597 612.024 577.37 610.931 577.376 609.405C577.37 607.861 578.597 606.775 580.245 606.781ZM578.487 609.405C578.481 610.364 579.219 611.041 580.245 611.029C581.24 611.041 581.978 610.364 581.978 609.405C581.978 608.423 581.24 607.77 580.245 607.782C579.219 607.77 578.481 608.423 578.487 609.405ZM578.975 614.959C578.969 613.623 580.385 612.842 582.674 612.848C584.95 612.842 586.366 613.623 586.373 614.959C586.366 616.29 584.95 617.065 582.674 617.059C580.385 617.065 578.969 616.29 578.975 614.959ZM580.11 614.959C580.104 615.71 581.069 616.15 582.674 616.144C584.279 616.15 585.237 615.71 585.237 614.959C585.237 614.178 584.279 613.745 582.674 613.739C581.069 613.745 580.104 614.178 580.11 614.959ZM582.973 608.612C583.046 608.856 583.089 609.125 583.089 609.405C583.089 609.674 583.046 609.936 582.973 610.174H585.176V608.612H582.973ZM594.601 609.369C594.594 611.2 595.797 613.092 597.481 613.812L596.847 614.715C595.559 614.148 594.533 612.939 594.027 611.48C593.52 613.043 592.495 614.374 591.219 614.996L590.548 614.081C592.196 613.305 593.417 611.255 593.429 609.369V608.209H590.926V607.245H597.091V608.209H594.601V609.369ZM598.47 617.083V606.146H599.63V617.083H598.47ZM610.22 606.158V614.447H609.06V613.397H606.863V612.579H609.06V606.158H610.22ZM601.077 611.151C603.097 611.133 605.825 611.114 608.157 610.821L608.23 611.651C607.296 611.81 606.313 611.908 605.349 611.975V614.105H604.189V612.036C603.127 612.079 602.108 612.079 601.223 612.079L601.077 611.151ZM601.931 608.502C601.925 607.342 603.03 606.573 604.653 606.573C606.252 606.573 607.363 607.342 607.363 608.502C607.363 609.668 606.252 610.406 604.653 610.406C603.036 610.406 601.925 609.668 601.931 608.502ZM602.59 616.852V613.641H603.738V615.912H610.488V616.852H602.59ZM603.03 608.502C603.024 609.149 603.683 609.552 604.653 609.552C605.587 609.552 606.259 609.149 606.265 608.502C606.259 607.849 605.587 607.428 604.653 607.44C603.683 607.428 603.024 607.849 603.03 608.502Z" fill="#404040"/>
<path d="M359.391 563.118L359.391 398.029" stroke="url(#paint2_linear_579_1971)" stroke-width="0.938004" stroke-linecap="round"/>
<path d="M130.986 564.056V564.056C130.986 550.846 141.695 540.137 154.905 540.137H359.39V564.056" stroke="#D1D7E7" stroke-width="0.938004"/>
<path d="M83.6172 695.377V695.377C83.6172 685.275 91.8064 677.086 101.908 677.086H160.064C170.166 677.086 178.356 685.275 178.356 695.377V695.377" stroke="#D1D7E7" stroke-width="0.938004"/>
<path d="M359.391 677.086L359.391 657.857" stroke="url(#paint3_linear_579_1971)" stroke-width="0.938004" stroke-linecap="round"/>
<path d="M312.021 695.377V695.377C312.021 685.275 320.211 677.086 330.313 677.086H388.469C398.571 677.086 406.76 685.275 406.76 695.377V695.377" stroke="#D1D7E7" stroke-width="0.938004"/>
<path d="M589.201 677.086L589.201 657.857" stroke="url(#paint4_linear_579_1971)" stroke-width="0.938004" stroke-linecap="round"/>
<path d="M541.832 695.377V695.377C541.832 685.275 550.021 677.086 560.123 677.086H618.279C628.381 677.086 636.57 685.275 636.57 695.377V695.377" stroke="#D1D7E7" stroke-width="0.938004"/>
<path d="M359.391 563.118V468.38H546.991C570.303 468.38 589.202 487.278 589.202 510.59V563.118" stroke="#D1D7E7" stroke-width="0.938004"/>
<ellipse cx="4.22102" cy="4.22102" rx="4.22102" ry="4.22102" transform="matrix(1 0 0 -1 355.169 568.277)" fill="#799EFF"/>
<ellipse cx="4.22102" cy="4.22102" rx="4.22102" ry="4.22102" transform="matrix(1 0 0 -1 584.98 568.277)" fill="#799EFF"/>
<ellipse cx="4.22102" cy="4.22102" rx="4.22102" ry="4.22102" transform="matrix(1 0 0 -1 126.766 568.277)" fill="#799EFF"/>
<ellipse cx="359.39" cy="341.28" rx="52.9972" ry="52.9972" fill="#799EFF"/>
<path d="M359.391 398.03C390.732 398.03 416.14 372.622 416.14 341.28C416.14 309.939 390.732 284.531 359.391 284.531C328.049 284.531 302.641 309.939 302.641 341.28C302.641 372.622 328.049 398.03 359.391 398.03Z" stroke="#799EFF" stroke-width="0.938004"/>
<path d="M343.134 333.087V348.095H341.374V340.441H339.681V347.331H337.988V333.369H339.681V338.964H341.374V333.087H343.134ZM330.683 344.592V334.863H336.294V336.357H332.542V343.031C334.169 343.015 335.514 342.932 337.041 342.649L337.174 344.16C335.356 344.525 333.787 344.575 331.696 344.592H330.683ZM358.283 344.874V346.368H344.57V344.874H348.123V341.786H345.749V340.292H347.858V335.843H345.699V334.365H357.088V335.843H354.897V340.292H357.038V341.786H354.664V344.874H358.283ZM349.7 340.292H353.07V335.843H349.7V340.292ZM349.966 344.874H352.821V341.786H349.966V344.874ZM371.407 333.087V348.111H369.548V333.087H371.407ZM359.404 339.479C359.396 336.241 361.048 334.183 363.322 334.183C365.572 334.183 367.232 336.241 367.24 339.479C367.232 342.741 365.572 344.791 363.322 344.791C361.048 344.791 359.396 342.741 359.404 339.479ZM361.181 339.479C361.181 341.786 362.052 343.123 363.322 343.131C364.584 343.123 365.447 341.786 365.447 339.479C365.447 337.188 364.584 335.843 363.322 335.843C362.052 335.843 361.181 337.188 361.181 339.479ZM378.637 336.689C378.621 339.371 379.966 342.077 382.29 343.197L381.161 344.675C379.534 343.853 378.364 342.268 377.724 340.358C377.069 342.4 375.84 344.094 374.122 344.957L372.993 343.479C375.408 342.334 376.786 339.462 376.795 336.689V334.299H378.637V336.689ZM383.186 348.095V333.087H385.029V338.964H387.337V340.541H385.029V348.095H383.186Z" fill="white"/>
<ellipse cx="474.061" cy="468.38" rx="47.1347" ry="47.3692" fill="#799EFF"/>
<path d="M472.022 462.713V465.804H473.926V466.961H472.022V470.125H470.63V462.713H472.022ZM461.651 469.202C464.793 468.375 466.639 466.727 466.895 464.676H462.266V463.533H468.404C468.397 466.895 466.119 469.261 462.208 470.315L461.651 469.202ZM463.614 475.662V470.682H472.022V475.662H463.614ZM465.005 474.549H470.645V471.839H465.005V474.549ZM478.929 466.053C478.914 468.375 480.269 470.755 482.225 471.707L481.361 472.82C479.933 472.073 478.827 470.608 478.248 468.858C477.662 470.718 476.512 472.293 475.018 473.069L474.154 471.941C476.168 470.975 477.53 468.455 477.537 466.053V463.812H478.929V466.053ZM483.206 475.838V462.713H484.598V467.942H486.707V469.129H484.598V475.838H483.206Z" fill="white"/>
<defs>
<linearGradient id="paint0_linear_579_1971" x1="120" y1="160.8" x2="600" y2="160.799" gradientUnits="userSpaceOnUse">
<stop stop-color="#00F3C7"/>
<stop offset="0.29" stop-color="#42C8FF"/>
<stop offset="1" stop-color="#7737FF"/>
</linearGradient>
<linearGradient id="paint1_linear_579_1971" x1="130.985" y1="657.392" x2="130.985" y2="677.086" gradientUnits="userSpaceOnUse">
<stop stop-color="#799EFF"/>
<stop offset="0.47" stop-color="#D1D7E7"/>
</linearGradient>
<linearGradient id="paint2_linear_579_1971" x1="359.39" y1="394.035" x2="359.39" y2="563.118" gradientUnits="userSpaceOnUse">
<stop stop-color="#799EFF"/>
<stop offset="0.47" stop-color="#D1D7E7"/>
</linearGradient>
<linearGradient id="paint3_linear_579_1971" x1="359.39" y1="657.392" x2="359.39" y2="677.086" gradientUnits="userSpaceOnUse">
<stop stop-color="#799EFF"/>
<stop offset="0.47" stop-color="#D1D7E7"/>
</linearGradient>
<linearGradient id="paint4_linear_579_1971" x1="589.2" y1="657.392" x2="589.2" y2="677.086" gradientUnits="userSpaceOnUse">
<stop stop-color="#799EFF"/>
<stop offset="0.47" stop-color="#D1D7E7"/>
</linearGradient>
</defs>
</svg>
