<svg width="720" height="1207" viewBox="0 0 720 1207" fill="none" xmlns="http://www.w3.org/2000/svg">
<rect width="720" height="1207" fill="white"/>
<path d="M320.604 91.1038L311.292 124.8H308.94L299.724 94.4638L290.364 124.8H288.108L278.94 91.1038H281.244L289.308 121.776L298.572 91.1038H300.972L310.14 121.968L318.252 91.1038H320.604ZM323.662 111.744C323.662 109.056 324.19 106.704 325.246 104.688C326.334 102.672 327.822 101.12 329.71 100.032C331.63 98.9438 333.806 98.3998 336.238 98.3998C338.99 98.3998 341.326 99.0718 343.246 100.416C345.166 101.76 346.51 103.472 347.278 105.552V98.7358H349.438V124.8H347.278V117.936C346.51 120.048 345.15 121.792 343.198 123.168C341.278 124.512 338.958 125.184 336.238 125.184C333.806 125.184 331.63 124.64 329.71 123.552C327.822 122.432 326.334 120.864 325.246 118.848C324.19 116.8 323.662 114.432 323.662 111.744ZM347.278 111.744C347.278 109.472 346.798 107.472 345.838 105.744C344.91 103.984 343.63 102.64 341.998 101.712C340.366 100.752 338.542 100.272 336.526 100.272C334.414 100.272 332.558 100.736 330.958 101.664C329.358 102.56 328.11 103.872 327.214 105.6C326.318 107.328 325.87 109.376 325.87 111.744C325.87 114.112 326.318 116.16 327.214 117.888C328.11 119.616 329.358 120.944 330.958 121.872C332.59 122.8 334.446 123.264 336.526 123.264C338.542 123.264 340.366 122.8 341.998 121.872C343.662 120.912 344.958 119.568 345.886 117.84C346.814 116.08 347.278 114.048 347.278 111.744ZM376.695 98.7358L361.527 137.04H359.319L364.167 124.8L353.223 98.7358H355.575L365.367 122.4L374.487 98.7358H376.695ZM411.766 91.1038V92.9278H402.166V124.8H400.006V92.9278H390.406V91.1038H411.766ZM427.419 125.184C424.987 125.184 422.795 124.64 420.843 123.552C418.891 122.464 417.355 120.912 416.235 118.896C415.147 116.848 414.603 114.464 414.603 111.744C414.603 109.056 415.163 106.704 416.283 104.688C417.403 102.64 418.939 101.088 420.891 100.032C422.875 98.9438 425.083 98.3998 427.515 98.3998C429.947 98.3998 432.139 98.9438 434.091 100.032C436.043 101.088 437.563 102.624 438.651 104.64C439.771 106.656 440.331 109.024 440.331 111.744C440.331 114.464 439.771 116.848 438.651 118.896C437.531 120.912 435.979 122.464 433.995 123.552C432.043 124.64 429.851 125.184 427.419 125.184ZM427.419 123.264C429.307 123.264 431.067 122.848 432.699 122.016C434.363 121.152 435.691 119.856 436.683 118.128C437.675 116.4 438.171 114.272 438.171 111.744C438.171 109.248 437.675 107.136 436.683 105.408C435.691 103.68 434.379 102.4 432.747 101.568C431.115 100.704 429.355 100.272 427.467 100.272C425.579 100.272 423.819 100.704 422.187 101.568C420.587 102.4 419.291 103.68 418.299 105.408C417.307 107.136 416.811 109.248 416.811 111.744C416.811 114.272 417.291 116.4 418.251 118.128C419.243 119.856 420.539 121.152 422.139 122.016C423.771 122.848 425.531 123.264 427.419 123.264Z" fill="#404040"/>
<rect x="120" y="160.8" width="480" height="2.4" fill="url(#paint0_linear_679_33)"/>
<rect x="120" y="160.8" width="480" height="2.4" fill="white" fill-opacity="0.4"/>
<defs>
<linearGradient id="paint0_linear_679_33" x1="120" y1="160.8" x2="600" y2="160.799" gradientUnits="userSpaceOnUse">
<stop stop-color="#00F3C7"/>
<stop offset="0.29" stop-color="#42C8FF"/>
<stop offset="1" stop-color="#7737FF"/>
</linearGradient>
</defs>
</svg>
