<svg width="1920" height="277" viewBox="0 0 1920 277" fill="none" xmlns="http://www.w3.org/2000/svg">
<rect y="220" width="1920" height="57" fill="#E1E5EF"/>
<path d="M866.688 248.416C866.688 247.328 866.933 246.352 867.424 245.488C867.915 244.613 868.581 243.931 869.424 243.44C870.277 242.949 871.221 242.704 872.256 242.704C873.472 242.704 874.533 242.997 875.44 243.584C876.347 244.171 877.008 245.003 877.424 246.08H875.68C875.371 245.408 874.923 244.891 874.336 244.528C873.76 244.165 873.067 243.984 872.256 243.984C871.477 243.984 870.779 244.165 870.16 244.528C869.541 244.891 869.056 245.408 868.704 246.08C868.352 246.741 868.176 247.52 868.176 248.416C868.176 249.301 868.352 250.08 868.704 250.752C869.056 251.413 869.541 251.925 870.16 252.288C870.779 252.651 871.477 252.832 872.256 252.832C873.067 252.832 873.76 252.656 874.336 252.304C874.923 251.941 875.371 251.424 875.68 250.752H877.424C877.008 251.819 876.347 252.645 875.44 253.232C874.533 253.808 873.472 254.096 872.256 254.096C871.221 254.096 870.277 253.856 869.424 253.376C868.581 252.885 867.915 252.208 867.424 251.344C866.933 250.48 866.688 249.504 866.688 248.416ZM883.895 254.144C883.074 254.144 882.327 253.957 881.655 253.584C880.994 253.211 880.471 252.683 880.087 252C879.714 251.307 879.527 250.507 879.527 249.6C879.527 248.704 879.719 247.915 880.103 247.232C880.498 246.539 881.031 246.011 881.703 245.648C882.375 245.275 883.127 245.088 883.959 245.088C884.791 245.088 885.543 245.275 886.215 245.648C886.887 246.011 887.415 246.533 887.799 247.216C888.194 247.899 888.391 248.693 888.391 249.6C888.391 250.507 888.189 251.307 887.783 252C887.389 252.683 886.85 253.211 886.167 253.584C885.485 253.957 884.727 254.144 883.895 254.144ZM883.895 252.864C884.418 252.864 884.909 252.741 885.367 252.496C885.826 252.251 886.194 251.883 886.471 251.392C886.759 250.901 886.903 250.304 886.903 249.6C886.903 248.896 886.765 248.299 886.487 247.808C886.21 247.317 885.847 246.955 885.399 246.72C884.951 246.475 884.466 246.352 883.943 246.352C883.41 246.352 882.919 246.475 882.471 246.72C882.034 246.955 881.682 247.317 881.415 247.808C881.149 248.299 881.015 248.896 881.015 249.6C881.015 250.315 881.143 250.917 881.399 251.408C881.666 251.899 882.018 252.267 882.455 252.512C882.893 252.747 883.373 252.864 883.895 252.864ZM892.242 246.848C892.53 246.347 892.956 245.931 893.522 245.6C894.098 245.259 894.764 245.088 895.522 245.088C896.3 245.088 897.004 245.275 897.634 245.648C898.274 246.021 898.775 246.549 899.138 247.232C899.5 247.904 899.682 248.688 899.682 249.584C899.682 250.469 899.5 251.259 899.138 251.952C898.775 252.645 898.274 253.184 897.634 253.568C897.004 253.952 896.3 254.144 895.522 254.144C894.775 254.144 894.114 253.979 893.538 253.648C892.972 253.307 892.54 252.885 892.242 252.384V258.16H890.786V245.232H892.242V246.848ZM898.194 249.584C898.194 248.923 898.06 248.347 897.794 247.856C897.527 247.365 897.164 246.992 896.706 246.736C896.258 246.48 895.762 246.352 895.218 246.352C894.684 246.352 894.188 246.485 893.73 246.752C893.282 247.008 892.919 247.387 892.642 247.888C892.375 248.379 892.242 248.949 892.242 249.6C892.242 250.261 892.375 250.843 892.642 251.344C892.919 251.835 893.282 252.213 893.73 252.48C894.188 252.736 894.684 252.864 895.218 252.864C895.762 252.864 896.258 252.736 896.706 252.48C897.164 252.213 897.527 251.835 897.794 251.344C898.06 250.843 898.194 250.256 898.194 249.584ZM909.63 245.232L904.35 258.128H902.846L904.574 253.904L901.038 245.232H902.654L905.406 252.336L908.126 245.232H909.63ZM913.03 246.656C913.286 246.155 913.649 245.765 914.118 245.488C914.598 245.211 915.179 245.072 915.862 245.072V246.576H915.478C913.846 246.576 913.03 247.461 913.03 249.232V254H911.574V245.232H913.03V246.656ZM918.775 243.808C918.497 243.808 918.263 243.712 918.071 243.52C917.879 243.328 917.783 243.093 917.783 242.816C917.783 242.539 917.879 242.304 918.071 242.112C918.263 241.92 918.497 241.824 918.775 241.824C919.041 241.824 919.265 241.92 919.447 242.112C919.639 242.304 919.735 242.539 919.735 242.816C919.735 243.093 919.639 243.328 919.447 243.52C919.265 243.712 919.041 243.808 918.775 243.808ZM919.479 245.232V254H918.023V245.232H919.479ZM926.056 245.088C926.813 245.088 927.475 245.253 928.04 245.584C928.616 245.915 929.043 246.331 929.32 246.832V245.232H930.792V254.192C930.792 254.992 930.621 255.701 930.28 256.32C929.939 256.949 929.448 257.44 928.808 257.792C928.179 258.144 927.443 258.32 926.6 258.32C925.448 258.32 924.488 258.048 923.72 257.504C922.952 256.96 922.499 256.219 922.36 255.28H923.8C923.96 255.813 924.291 256.24 924.792 256.56C925.293 256.891 925.896 257.056 926.6 257.056C927.4 257.056 928.051 256.805 928.552 256.304C929.064 255.803 929.32 255.099 929.32 254.192V252.352C929.032 252.864 928.605 253.291 928.04 253.632C927.475 253.973 926.813 254.144 926.056 254.144C925.277 254.144 924.568 253.952 923.928 253.568C923.299 253.184 922.803 252.645 922.44 251.952C922.077 251.259 921.896 250.469 921.896 249.584C921.896 248.688 922.077 247.904 922.44 247.232C922.803 246.549 923.299 246.021 923.928 245.648C924.568 245.275 925.277 245.088 926.056 245.088ZM929.32 249.6C929.32 248.939 929.187 248.363 928.92 247.872C928.653 247.381 928.291 247.008 927.832 246.752C927.384 246.485 926.888 246.352 926.344 246.352C925.8 246.352 925.304 246.48 924.856 246.736C924.408 246.992 924.051 247.365 923.784 247.856C923.517 248.347 923.384 248.923 923.384 249.584C923.384 250.256 923.517 250.843 923.784 251.344C924.051 251.835 924.408 252.213 924.856 252.48C925.304 252.736 925.8 252.864 926.344 252.864C926.888 252.864 927.384 252.736 927.832 252.48C928.291 252.213 928.653 251.835 928.92 251.344C929.187 250.843 929.32 250.261 929.32 249.6ZM938.085 245.072C938.746 245.072 939.343 245.216 939.877 245.504C940.41 245.781 940.826 246.203 941.125 246.768C941.434 247.333 941.589 248.021 941.589 248.832V254H940.149V249.04C940.149 248.165 939.93 247.499 939.493 247.04C939.055 246.571 938.458 246.336 937.701 246.336C936.933 246.336 936.319 246.576 935.861 247.056C935.413 247.536 935.189 248.235 935.189 249.152V254H933.733V242.16H935.189V246.48C935.477 246.032 935.871 245.685 936.373 245.44C936.885 245.195 937.455 245.072 938.085 245.072ZM946.223 246.432V251.6C946.223 252.027 946.314 252.331 946.495 252.512C946.676 252.683 946.991 252.768 947.439 252.768H948.511V254H947.199C946.388 254 945.78 253.813 945.375 253.44C944.97 253.067 944.767 252.453 944.767 251.6V246.432H943.631V245.232H944.767V243.024H946.223V245.232H948.511V246.432H946.223ZM959.075 250.96C958.307 250.96 957.71 250.725 957.283 250.256C956.856 249.787 956.643 249.136 956.643 248.304C956.643 247.451 956.862 246.795 957.299 246.336C957.747 245.867 958.36 245.632 959.139 245.632C959.395 245.632 959.64 245.659 959.875 245.712C960.12 245.755 960.36 245.829 960.595 245.936L960.323 246.736C960.12 246.651 959.918 246.587 959.715 246.544C959.523 246.501 959.326 246.48 959.123 246.48C958.654 246.48 958.296 246.635 958.051 246.944C957.816 247.243 957.699 247.696 957.699 248.304C957.699 248.88 957.816 249.328 958.051 249.648C958.286 249.957 958.627 250.112 959.075 250.112C959.288 250.112 959.512 250.085 959.747 250.032C959.992 249.968 960.248 249.883 960.515 249.776V250.64C960.259 250.747 960.014 250.827 959.779 250.88C959.544 250.933 959.31 250.96 959.075 250.96ZM958.643 254.88C957.736 254.88 956.883 254.709 956.083 254.368C955.283 254.027 954.579 253.557 953.971 252.96C953.374 252.352 952.904 251.648 952.563 250.848C952.222 250.048 952.051 249.195 952.051 248.288C952.051 247.371 952.222 246.517 952.563 245.728C952.904 244.928 953.374 244.229 953.971 243.632C954.579 243.024 955.283 242.549 956.083 242.208C956.883 241.867 957.736 241.696 958.643 241.696C959.56 241.696 960.414 241.867 961.203 242.208C962.003 242.549 962.702 243.024 963.299 243.632C963.907 244.229 964.382 244.928 964.723 245.728C965.064 246.517 965.235 247.371 965.235 248.288C965.235 249.195 965.064 250.048 964.723 250.848C964.382 251.648 963.907 252.352 963.299 252.96C962.702 253.557 962.003 254.027 961.203 254.368C960.414 254.709 959.56 254.88 958.643 254.88ZM958.643 253.984C959.432 253.984 960.168 253.84 960.851 253.552C961.544 253.253 962.152 252.843 962.675 252.32C963.198 251.797 963.603 251.195 963.891 250.512C964.19 249.819 964.339 249.077 964.339 248.288C964.339 247.499 964.19 246.763 963.891 246.08C963.603 245.387 963.198 244.779 962.675 244.256C962.152 243.733 961.544 243.328 960.851 243.04C960.168 242.741 959.432 242.592 958.643 242.592C957.854 242.592 957.112 242.741 956.419 243.04C955.736 243.328 955.134 243.733 954.611 244.256C954.088 244.779 953.678 245.387 953.379 246.08C953.091 246.763 952.947 247.499 952.947 248.288C952.947 249.077 953.091 249.819 953.379 250.512C953.678 251.195 954.088 251.797 954.611 252.32C955.134 252.843 955.736 253.253 956.419 253.552C957.112 253.84 957.854 253.984 958.643 253.984ZM978.691 242.848L974.483 254H972.803L968.595 242.848H970.147L973.651 252.464L977.155 242.848H978.691ZM988.768 249.28C988.768 249.557 988.752 249.851 988.72 250.16H981.712C981.765 251.024 982.058 251.701 982.592 252.192C983.136 252.672 983.792 252.912 984.56 252.912C985.189 252.912 985.712 252.768 986.128 252.48C986.554 252.181 986.853 251.787 987.024 251.296H988.592C988.357 252.139 987.888 252.827 987.184 253.36C986.48 253.883 985.605 254.144 984.56 254.144C983.728 254.144 982.981 253.957 982.32 253.584C981.669 253.211 981.157 252.683 980.784 252C980.41 251.307 980.224 250.507 980.224 249.6C980.224 248.693 980.405 247.899 980.768 247.216C981.13 246.533 981.637 246.011 982.288 245.648C982.949 245.275 983.706 245.088 984.56 245.088C985.392 245.088 986.128 245.269 986.768 245.632C987.408 245.995 987.898 246.496 988.24 247.136C988.592 247.765 988.768 248.48 988.768 249.28ZM987.264 248.976C987.264 248.421 987.141 247.947 986.896 247.552C986.65 247.147 986.314 246.843 985.888 246.64C985.472 246.427 985.008 246.32 984.496 246.32C983.76 246.32 983.13 246.555 982.608 247.024C982.096 247.493 981.802 248.144 981.728 248.976H987.264ZM994.786 245.088C995.543 245.088 996.204 245.253 996.77 245.584C997.346 245.915 997.772 246.331 998.05 246.832V245.232H999.522V254.192C999.522 254.992 999.351 255.701 999.01 256.32C998.668 256.949 998.178 257.44 997.538 257.792C996.908 258.144 996.172 258.32 995.33 258.32C994.178 258.32 993.218 258.048 992.45 257.504C991.682 256.96 991.228 256.219 991.09 255.28H992.53C992.69 255.813 993.02 256.24 993.522 256.56C994.023 256.891 994.626 257.056 995.33 257.056C996.13 257.056 996.78 256.805 997.282 256.304C997.794 255.803 998.05 255.099 998.05 254.192V252.352C997.762 252.864 997.335 253.291 996.77 253.632C996.204 253.973 995.543 254.144 994.786 254.144C994.007 254.144 993.298 253.952 992.658 253.568C992.028 253.184 991.532 252.645 991.17 251.952C990.807 251.259 990.626 250.469 990.626 249.584C990.626 248.688 990.807 247.904 991.17 247.232C991.532 246.549 992.028 246.021 992.658 245.648C993.298 245.275 994.007 245.088 994.786 245.088ZM998.05 249.6C998.05 248.939 997.916 248.363 997.65 247.872C997.383 247.381 997.02 247.008 996.562 246.752C996.114 246.485 995.618 246.352 995.074 246.352C994.53 246.352 994.034 246.48 993.586 246.736C993.138 246.992 992.78 247.365 992.514 247.856C992.247 248.347 992.114 248.923 992.114 249.584C992.114 250.256 992.247 250.843 992.514 251.344C992.78 251.835 993.138 252.213 993.586 252.48C994.034 252.736 994.53 252.864 995.074 252.864C995.618 252.864 996.114 252.736 996.562 252.48C997.02 252.213 997.383 251.835 997.65 251.344C997.916 250.843 998.05 250.261 998.05 249.6ZM1001.92 249.584C1001.92 248.688 1002.1 247.904 1002.46 247.232C1002.82 246.549 1003.32 246.021 1003.95 245.648C1004.59 245.275 1005.3 245.088 1006.08 245.088C1006.85 245.088 1007.51 245.253 1008.08 245.584C1008.64 245.915 1009.06 246.331 1009.34 246.832V245.232H1010.81V254H1009.34V252.368C1009.05 252.88 1008.62 253.307 1008.05 253.648C1007.48 253.979 1006.82 254.144 1006.06 254.144C1005.28 254.144 1004.58 253.952 1003.95 253.568C1003.32 253.184 1002.82 252.645 1002.46 251.952C1002.1 251.259 1001.92 250.469 1001.92 249.584ZM1009.34 249.6C1009.34 248.939 1009.21 248.363 1008.94 247.872C1008.68 247.381 1008.31 247.008 1007.85 246.752C1007.41 246.485 1006.91 246.352 1006.37 246.352C1005.82 246.352 1005.33 246.48 1004.88 246.736C1004.43 246.992 1004.07 247.365 1003.81 247.856C1003.54 248.347 1003.41 248.923 1003.41 249.584C1003.41 250.256 1003.54 250.843 1003.81 251.344C1004.07 251.835 1004.43 252.213 1004.88 252.48C1005.33 252.736 1005.82 252.864 1006.37 252.864C1006.91 252.864 1007.41 252.736 1007.85 252.48C1008.31 252.213 1008.68 251.835 1008.94 251.344C1009.21 250.843 1009.34 250.261 1009.34 249.6ZM1016.86 254.144C1016.19 254.144 1015.58 254.032 1015.05 253.808C1014.52 253.573 1014.1 253.253 1013.79 252.848C1013.48 252.432 1013.31 251.957 1013.27 251.424H1014.78C1014.82 251.861 1015.02 252.219 1015.39 252.496C1015.76 252.773 1016.25 252.912 1016.84 252.912C1017.4 252.912 1017.83 252.789 1018.15 252.544C1018.47 252.299 1018.63 251.989 1018.63 251.616C1018.63 251.232 1018.46 250.949 1018.12 250.768C1017.78 250.576 1017.25 250.389 1016.54 250.208C1015.89 250.037 1015.35 249.867 1014.94 249.696C1014.53 249.515 1014.18 249.253 1013.88 248.912C1013.59 248.56 1013.45 248.101 1013.45 247.536C1013.45 247.088 1013.58 246.677 1013.85 246.304C1014.12 245.931 1014.5 245.637 1014.99 245.424C1015.48 245.2 1016.04 245.088 1016.67 245.088C1017.64 245.088 1018.42 245.333 1019.02 245.824C1019.62 246.315 1019.94 246.987 1019.98 247.84H1018.52C1018.49 247.381 1018.3 247.013 1017.96 246.736C1017.63 246.459 1017.18 246.32 1016.62 246.32C1016.1 246.32 1015.68 246.432 1015.37 246.656C1015.06 246.88 1014.91 247.173 1014.91 247.536C1014.91 247.824 1015 248.064 1015.18 248.256C1015.37 248.437 1015.61 248.587 1015.88 248.704C1016.17 248.811 1016.57 248.933 1017.07 249.072C1017.7 249.243 1018.21 249.413 1018.6 249.584C1019 249.744 1019.33 249.989 1019.61 250.32C1019.9 250.651 1020.05 251.083 1020.06 251.616C1020.06 252.096 1019.93 252.528 1019.66 252.912C1019.39 253.296 1019.01 253.6 1018.52 253.824C1018.04 254.037 1017.49 254.144 1016.86 254.144ZM1028.8 242.848V254H1027.34V242.848H1028.8ZM1036.03 245.072C1037.1 245.072 1037.96 245.397 1038.62 246.048C1039.28 246.688 1039.61 247.616 1039.61 248.832V254H1038.17V249.04C1038.17 248.165 1037.95 247.499 1037.52 247.04C1037.08 246.571 1036.48 246.336 1035.72 246.336C1034.96 246.336 1034.34 246.576 1033.88 247.056C1033.44 247.536 1033.21 248.235 1033.21 249.152V254H1031.76V245.232H1033.21V246.48C1033.5 246.032 1033.89 245.685 1034.38 245.44C1034.88 245.195 1035.43 245.072 1036.03 245.072ZM1041.93 249.6C1041.93 248.693 1042.11 247.904 1042.47 247.232C1042.83 246.549 1043.34 246.021 1043.98 245.648C1044.63 245.275 1045.37 245.088 1046.2 245.088C1047.28 245.088 1048.16 245.349 1048.86 245.872C1049.56 246.395 1050.02 247.12 1050.25 248.048H1048.68C1048.53 247.515 1048.24 247.093 1047.8 246.784C1047.37 246.475 1046.84 246.32 1046.2 246.32C1045.37 246.32 1044.7 246.608 1044.18 247.184C1043.67 247.749 1043.42 248.555 1043.42 249.6C1043.42 250.656 1043.67 251.472 1044.18 252.048C1044.7 252.624 1045.37 252.912 1046.2 252.912C1046.84 252.912 1047.37 252.763 1047.8 252.464C1048.23 252.165 1048.52 251.739 1048.68 251.184H1050.25C1050.01 252.08 1049.54 252.8 1048.84 253.344C1048.14 253.877 1047.26 254.144 1046.2 254.144C1045.37 254.144 1044.63 253.957 1043.98 253.584C1043.34 253.211 1042.83 252.683 1042.47 252C1042.11 251.317 1041.93 250.517 1041.93 249.6ZM1053.13 254.096C1052.86 254.096 1052.62 254 1052.43 253.808C1052.24 253.616 1052.14 253.381 1052.14 253.104C1052.14 252.827 1052.24 252.592 1052.43 252.4C1052.62 252.208 1052.86 252.112 1053.13 252.112C1053.4 252.112 1053.62 252.208 1053.81 252.4C1054 252.592 1054.09 252.827 1054.09 253.104C1054.09 253.381 1054 253.616 1053.81 253.808C1053.62 254 1053.4 254.096 1053.13 254.096Z" fill="#1E1E1E"/>
<rect width="1920" height="220" fill="#F5F6F8"/>
<path d="M272.719 83.2188V97.4375H270.828V90.2969H269.453V96.75H267.625V83.4531H269.453V88.7031H270.828V83.2188H272.719ZM260.828 94.2188V84.8594H266.125V86.4688H262.828V92.5469C264.203 92.5234 265.422 92.4453 266.797 92.2031L266.938 93.8281C265.203 94.1562 263.688 94.2109 261.812 94.2188H260.828ZM286.946 94.2656V95.8594H273.93V94.2656H277.164V91.5625H275.008V89.9531H276.914V85.9531H274.946V84.3594H285.852V85.9531H283.852V89.9531H285.789V91.5625H283.649V94.2656H286.946ZM278.914 89.9531H281.883V85.9531H278.914V89.9531ZM279.164 94.2656H281.649V91.5625H279.164V94.2656ZM297.439 83.0938V97.5938H296.283V83.0938H297.439ZM319.854 85.4844V86.5H317.791V88.4375H319.854V89.4688H317.791V91.625H316.572V83.375H317.791V85.4844H319.854ZM307.197 87.4844C307.19 85.5469 308.737 84.2109 310.838 84.2188C312.955 84.2109 314.479 85.5469 314.494 87.4844C314.479 89.4141 312.955 90.7422 310.838 90.75C308.737 90.7422 307.19 89.4141 307.197 87.4844ZM308.401 87.4844C308.393 88.7969 309.432 89.7031 310.838 89.7188C312.26 89.7031 313.283 88.7969 313.291 87.4844C313.283 86.1797 312.26 85.25 310.838 85.2656C309.432 85.25 308.393 86.1797 308.401 87.4844ZM308.729 94.6562C308.737 93.0078 310.502 92.0547 313.338 92.0469C316.174 92.0547 317.916 93.0078 317.916 94.6562C317.916 96.2734 316.174 97.2344 313.338 97.2344C310.502 97.2344 308.737 96.2734 308.729 94.6562ZM309.963 94.6562C309.947 95.6562 311.244 96.2422 313.338 96.25C315.44 96.2422 316.721 95.6562 316.729 94.6562C316.721 93.6484 315.44 93.0469 313.338 93.0469C311.244 93.0469 309.947 93.6484 309.963 94.6562ZM332.315 83.375V97.2656H331.143V89.9844H329.096V96.5469H327.971V83.6875H329.096V88.9688H331.143V83.375H332.315ZM320.956 93.8281V85.0781H326.159V86.0938H322.174V92.7812C324.088 92.7734 325.409 92.7031 326.956 92.3906L327.065 93.4219C325.393 93.7656 323.979 93.8203 321.846 93.8281H320.956ZM346.604 89.875V90.8906H340.87V92.375C343.487 92.4922 345.042 93.3438 345.058 94.8125C345.042 96.3672 343.253 97.2344 340.276 97.2344C337.261 97.2344 335.472 96.3672 335.479 94.8125C335.472 93.3438 337.018 92.4922 339.667 92.375V90.8906H333.948V89.875H346.604ZM334.667 88.0625C337.073 87.8125 339.393 86.5859 339.479 85.0312H335.104V84.0312H345.479V85.0312H341.073C341.159 86.5859 343.456 87.8125 345.901 88.0625L345.448 89.0312C343.175 88.7578 341.042 87.7344 340.276 86.1953C339.511 87.7344 337.393 88.7578 335.104 89.0312L334.667 88.0625ZM336.729 94.8125C336.714 95.7344 338.05 96.2891 340.276 96.2812C342.479 96.2891 343.815 95.7344 343.823 94.8125C343.815 93.8672 342.479 93.3281 340.276 93.3125C338.05 93.3281 336.714 93.8672 336.729 94.8125ZM265.656 116.438C265.648 118.984 266.734 121.555 269.016 122.656L267.812 124.25C266.289 123.492 265.258 122.086 264.672 120.375C264.047 122.211 262.953 123.719 261.344 124.516L260.109 122.906C262.523 121.797 263.656 119.078 263.656 116.438V114.312H265.656V116.438ZM269.641 127.438V113.219H271.641V118.703H273.734V120.391H271.641V127.438H269.641ZM277.899 113.828C279.711 113.812 281.157 114.852 281.547 116.375H283.93V113.219H285.914V120.859H283.93V117.969H281.555C281.188 119.531 279.727 120.594 277.899 120.594C275.711 120.594 274.102 119.172 274.118 117.188C274.102 115.242 275.711 113.812 277.899 113.828ZM276.008 117.188C276 118.25 276.782 118.922 277.899 118.922C278.977 118.922 279.75 118.25 279.758 117.188C279.75 116.125 278.977 115.477 277.899 115.484C276.782 115.477 276 116.125 276.008 117.188ZM276.43 127.281V121.484H278.399V122.859H283.93V121.484H285.914V127.281H276.43ZM278.399 125.672H283.93V124.391H278.399V125.672ZM292.688 117.094C292.68 119.258 293.837 121.758 296.173 122.844L295.063 124.406C293.477 123.68 292.352 122.227 291.712 120.523C291.079 122.398 289.907 123.992 288.266 124.766L287.11 123.188C289.477 122.086 290.673 119.445 290.688 117.094V116.219H287.673V114.594H295.548V116.219H292.688V117.094ZM296.657 127.438V113.219H298.657V118.641H300.751V120.312H298.657V127.438H296.657ZM313.946 119.719V121.344H300.946V119.719H313.946ZM302.431 124.812C302.431 123.141 304.306 122.195 307.415 122.203C310.501 122.195 312.353 123.141 312.368 124.812C312.353 126.492 310.501 127.445 307.415 127.438C304.306 127.445 302.431 126.492 302.431 124.812ZM302.524 118.719V113.594H312.384V115.203H304.509V117.141H312.462V118.719H302.524ZM304.462 124.812C304.454 125.562 305.446 125.922 307.415 125.922C309.345 125.922 310.36 125.562 310.368 124.812C310.36 124.094 309.345 123.719 307.415 123.719C305.446 123.719 304.454 124.094 304.462 124.812ZM327.454 120.844V122.438H314.439V120.844H319.954V119.812H316.064V115.906H323.876V115.031H316.033V113.484H325.876V117.344H318.048V118.281H326.142V119.812H321.939V120.844H327.454ZM315.892 124.812V123.25H325.954V127.375H323.939V124.812H315.892ZM339.947 113.234V123.719H337.963V118.594H335.338V121.469H328.572V114.156H330.572V116.344H333.369V114.156H335.338V117H337.963V113.234H339.947ZM330.478 127.188V122.672H332.494V125.594H340.244V127.188H330.478ZM330.572 119.906H333.369V117.859H330.572V119.906ZM353.861 115.016V116.609H342.033V115.016H346.955V113.359H348.924V115.016H353.861ZM341.471 125.984V124.391H346.955V122.758C344.533 122.539 343.064 121.547 343.08 119.984C343.064 118.258 344.932 117.227 347.939 117.234C350.893 117.227 352.791 118.258 352.783 119.984C352.791 121.547 351.307 122.539 348.924 122.75V124.391H354.486V125.984H341.471ZM345.127 119.984C345.119 120.828 346.096 121.211 347.939 121.203C349.744 121.211 350.736 120.828 350.736 119.984C350.736 119.172 349.744 118.789 347.939 118.781C346.096 118.789 345.119 119.172 345.127 119.984ZM364.979 113.094V127.594H363.823V113.094H364.979ZM378.91 126.156C376.949 126.133 374.785 124.969 374.785 120.781C374.785 116.773 376.426 114.531 379.082 114.531C381.074 114.531 382.465 115.758 382.754 117.531H381.363C381.105 116.531 380.34 115.781 379.082 115.781C377.223 115.781 376.105 117.367 376.113 120.094H376.254C376.902 119.148 377.941 118.594 379.16 118.594C381.168 118.594 382.848 120.156 382.848 122.344C382.848 124.477 381.293 126.18 378.91 126.156ZM376.301 122.375C376.308 123.703 377.394 124.914 378.91 124.922C380.371 124.914 381.48 123.766 381.488 122.359C381.48 120.969 380.418 119.836 378.941 119.828C377.457 119.836 376.316 121.039 376.301 122.375ZM388.465 114.688V126H387.043V116.156H386.981L384.231 117.984V116.562L387.043 114.688H388.465ZM395.067 126.156C392.817 126.156 391.2 124.953 391.129 123.156H392.551C392.629 124.234 393.7 124.906 395.051 124.906C396.543 124.906 397.622 124.102 397.629 122.922C397.622 121.688 396.637 120.82 394.879 120.812H393.958V119.578H394.879C396.254 119.578 397.215 118.805 397.208 117.641C397.215 116.508 396.387 115.758 395.098 115.75C393.887 115.758 392.786 116.422 392.723 117.531H391.364C391.434 115.734 393.106 114.531 395.114 114.531C397.27 114.531 398.583 115.945 398.567 117.562C398.583 118.852 397.833 119.789 396.645 120.125V120.203C398.122 120.43 399.012 121.484 399.004 122.922C399.012 124.781 397.325 126.156 395.067 126.156ZM405.591 119.734V120.969H400.637V119.734H405.591ZM411.099 126.156C408.716 126.156 407.075 124.836 407.083 123C407.075 121.539 408.091 120.328 409.38 120.125V120.062C408.255 119.805 407.513 118.766 407.521 117.531C407.513 115.805 409.028 114.531 411.099 114.531C413.161 114.531 414.677 115.805 414.693 117.531C414.677 118.766 413.927 119.805 412.818 120.062V120.125C414.099 120.328 415.114 121.539 415.13 123C415.114 124.836 413.458 126.156 411.099 126.156ZM408.489 122.922C408.466 124.109 409.474 124.914 411.099 124.922C412.716 124.914 413.724 124.109 413.724 122.922C413.724 121.672 412.622 120.75 411.099 120.75C409.583 120.75 408.466 121.672 408.489 122.922ZM408.88 117.641C408.888 118.781 409.802 119.555 411.099 119.562C412.388 119.555 413.318 118.781 413.318 117.641C413.318 116.508 412.419 115.742 411.099 115.75C409.755 115.742 408.888 116.508 408.88 117.641ZM417.06 126L422.247 116.016V115.938H416.263V114.688H423.701V116L418.529 126H417.06ZM430.084 119.734V120.969H425.131V119.734H430.084ZM435.514 126.156C433.006 126.156 431.553 124.047 431.561 120.344C431.553 116.672 433.022 114.531 435.514 114.531C437.998 114.531 439.467 116.672 439.467 120.344C439.467 124.047 438.022 126.156 435.514 126.156ZM432.92 120.344C432.928 123.273 433.873 124.906 435.514 124.906C437.147 124.906 438.1 123.273 438.092 120.344C438.1 117.414 437.139 115.758 435.514 115.75C433.889 115.758 432.928 117.414 432.92 120.344ZM441.022 126L441.006 124.969L444.866 120.906C446.202 119.484 446.842 118.719 446.85 117.672C446.842 116.508 445.873 115.758 444.6 115.75C443.248 115.758 442.405 116.609 442.397 117.875H441.069C441.053 115.875 442.6 114.531 444.647 114.531C446.702 114.531 448.155 115.914 448.163 117.672C448.155 118.938 447.569 119.922 445.569 121.984L442.975 124.656V124.75H448.366V126H441.022ZM453.78 126.156C451.741 126.156 450.194 124.898 450.108 123.156H451.467C451.569 124.164 452.553 124.914 453.78 124.922C455.249 124.914 456.311 123.844 456.311 122.422C456.311 120.953 455.21 119.867 453.686 119.859C452.733 119.844 451.991 120.141 451.577 120.875H450.217L451.014 114.688H457.139V115.938H452.186L451.764 119.25H451.874C452.382 118.859 453.139 118.594 453.936 118.594C456.092 118.594 457.678 120.188 457.686 122.391C457.678 124.578 456.038 126.156 453.78 126.156ZM459.038 123.688V122.531L464.132 114.688H465.866V122.453H467.444V123.688H465.866V126H464.523V123.688H459.038ZM460.554 122.453H464.523V116.469H464.382L460.554 122.359V122.453ZM468.984 126L468.968 124.969L472.827 120.906C474.163 119.484 474.804 118.719 474.812 117.672C474.804 116.508 473.835 115.758 472.562 115.75C471.21 115.758 470.367 116.609 470.359 117.875H469.031C469.015 115.875 470.562 114.531 472.609 114.531C474.663 114.531 476.117 115.914 476.124 117.672C476.117 118.938 475.531 119.922 473.531 121.984L470.937 124.656V124.75H476.327V126H468.984ZM263.859 143.797V145.328H269.953V143.797H271.672V149.531H267.766V150.828H273.344V152.234H260.469V150.828H266.016V149.531H262.141V143.797H263.859ZM262.062 157.109V153.141H263.797V155.703H271.891V157.109H262.062ZM263.859 148.141H269.953V146.672H263.859V148.141ZM279.024 146.656C279.008 149.18 280.274 151.727 282.461 152.781L281.399 154.172C279.868 153.398 278.766 151.906 278.164 150.109C277.547 152.031 276.391 153.625 274.774 154.438L273.711 153.047C275.985 151.969 277.282 149.266 277.289 146.656V144.406H279.024V146.656ZM283.305 157.391V143.266H285.039V148.797H287.211V150.281H285.039V157.391H283.305ZM297.439 143.094V157.594H296.283V143.094H297.439ZM318.447 143.391V151.734H317.213V149.859H313.526V148.844H317.213V146.969H313.666C312.752 149.203 310.612 150.82 307.635 151.703L307.119 150.734C310.471 149.742 312.572 147.859 312.815 145.453H307.822V144.422H314.151C314.151 144.969 314.088 145.492 313.971 145.984H317.213V143.391H318.447ZM309.26 154.531C309.252 152.875 311.057 151.875 313.901 151.875C316.713 151.875 318.526 152.875 318.526 154.531C318.526 156.195 316.713 157.203 313.901 157.203C311.057 157.203 309.252 156.195 309.26 154.531ZM310.463 154.531C310.471 155.578 311.807 156.211 313.901 156.203C315.963 156.211 317.299 155.578 317.307 154.531C317.299 153.484 315.963 152.852 313.901 152.859C311.807 152.852 310.471 153.484 310.463 154.531ZM331.924 143.375V157.266H330.69V143.375H331.924ZM320.612 153.656C324.37 151.875 326.292 149.211 326.565 145.891H321.252V144.891H327.815C327.799 148.883 325.94 152.422 321.284 154.656L320.612 153.656ZM345.167 149.891V150.891H340.87V154.484H346.667V155.516H333.948V154.484H339.667V150.891H335.573V144.516H345.026V145.516H336.808V149.891H345.167ZM355.933 145.562C355.918 147.547 357.332 149.289 359.371 149.984L358.683 150.938C357.152 150.367 355.949 149.234 355.347 147.773C354.753 149.438 353.488 150.727 351.808 151.359L351.136 150.359C353.277 149.609 354.699 147.766 354.714 145.609V144.172H355.933V145.562ZM353.402 154.641C353.394 152.969 355.168 152.008 358.058 152.016C360.941 152.008 362.714 152.969 362.714 154.641C362.714 156.297 360.941 157.234 358.058 157.234C355.168 157.234 353.394 156.297 353.402 154.641ZM354.621 154.641C354.613 155.648 355.925 156.258 358.058 156.25C360.183 156.258 361.496 155.648 361.496 154.641C361.496 153.602 360.183 152.984 358.058 152.984C355.925 152.984 354.613 153.602 354.621 154.641ZM358.339 147.375V146.359H361.433V143.375H362.668V151.609H361.433V147.375H358.339ZM375.519 143.391V146.578H377.629V147.609H375.519V151.234H374.301V143.391H375.519ZM365.332 150.172V144.094H366.566V149.141C368.551 149.133 370.59 148.977 372.832 148.516L372.988 149.547C370.629 150.023 368.527 150.164 366.441 150.172H365.332ZM366.723 157.078V152H375.519V157.078H366.723ZM367.926 156.078H374.332V152.969H367.926V156.078ZM383.106 147.109C383.098 149.648 384.824 152.195 386.871 153.125L386.121 154.094C384.535 153.328 383.168 151.68 382.504 149.703C381.863 151.797 380.496 153.555 378.871 154.375L378.09 153.344C380.16 152.398 381.871 149.742 381.887 147.109V144.578H383.106V147.109ZM388.387 157.297V143.375H389.621V157.297H388.387ZM408.028 149.875V150.891H402.294V152.375C404.911 152.492 406.466 153.344 406.481 154.812C406.466 156.367 404.677 157.234 401.7 157.234C398.684 157.234 396.895 156.367 396.903 154.812C396.895 153.344 398.442 152.492 401.091 152.375V150.891H395.372V149.875H408.028ZM396.091 148.062C398.497 147.812 400.817 146.586 400.903 145.031H396.528V144.031H406.903V145.031H402.497C402.583 146.586 404.88 147.812 407.325 148.062L406.872 149.031C404.598 148.758 402.466 147.734 401.7 146.195C400.934 147.734 398.817 148.758 396.528 149.031L396.091 148.062ZM398.153 154.812C398.137 155.734 399.473 156.289 401.7 156.281C403.903 156.289 405.239 155.734 405.247 154.812C405.239 153.867 403.903 153.328 401.7 153.312C399.473 153.328 398.137 153.867 398.153 154.812ZM420.333 143.391V153.938H419.099V152.5H416.224V151.609H419.099V143.391H420.333ZM408.802 149.828C411.388 149.812 414.872 149.789 417.849 149.422L417.927 150.312C416.693 150.508 415.388 150.633 414.114 150.711V153.453H412.88V150.773C411.474 150.828 410.138 150.828 408.974 150.828L408.802 149.828ZM409.927 146.375C409.919 144.914 411.31 143.953 413.364 143.953C415.403 143.953 416.794 144.914 416.802 146.375C416.794 147.859 415.403 148.781 413.364 148.781C411.31 148.781 409.919 147.859 409.927 146.375ZM410.802 156.969V152.906H412.036V155.938H420.677V156.969H410.802ZM411.099 146.375C411.083 147.281 412.005 147.867 413.364 147.875C414.685 147.867 415.622 147.281 415.63 146.375C415.622 145.484 414.685 144.875 413.364 144.891C412.005 144.875 411.083 145.484 411.099 146.375ZM433.372 144.281V145.5C433.372 146.812 433.372 148.258 432.974 150.25H435.044V151.266H429.31V157.297H428.076V151.266H422.388V150.25H431.732C432.154 148.25 432.154 146.797 432.154 145.5V145.297H423.982V144.281H433.372ZM444.248 147.109C444.248 149.555 445.865 152.078 447.842 153.047L447.092 154.031C445.561 153.234 444.279 151.586 443.662 149.656C443.045 151.703 441.732 153.461 440.17 154.297L439.389 153.312C441.42 152.312 443.029 149.648 443.045 147.109V144.578H444.248V147.109ZM449.123 157.266V143.375H450.342V149.016H452.67V150.078H450.342V157.266H449.123ZM464.584 143.375V157.266H463.35V143.375H464.584ZM453.272 153.656C457.03 151.875 458.952 149.211 459.225 145.891H453.913V144.891H460.475C460.459 148.883 458.6 152.422 453.944 154.656L453.272 153.656ZM473.624 144.422V150.562H467.202V144.422H473.624ZM468.374 153.344V152.359H477.467V157.297H476.249V153.344H468.374ZM468.405 149.562H472.436V145.406H468.405V149.562ZM476.249 151.609V143.375H477.467V147H479.561V148.031H477.467V151.609H476.249ZM491.163 143.953V144.844C491.155 145.742 491.155 146.805 490.898 148.156L489.679 148.031C489.937 146.75 489.944 145.812 489.944 144.953H481.632V143.953H491.163ZM480.132 149.922V148.922H485.366V146.516H486.569V148.922H492.773V149.922H480.132ZM481.632 152.219V151.219H491.21V154.516H482.882V156.109H491.569V157.109H481.648V153.641H489.991V152.219H481.632ZM506.343 154.516V155.547H493.624V154.516H499.343V151.891H495.218V147.609H503.531V145.422H495.187V144.406H504.734V148.609H496.437V150.875H505.062V151.891H500.546V154.516H506.343ZM515.266 156.156C513.305 156.133 511.141 154.969 511.141 150.781C511.141 146.773 512.781 144.531 515.438 144.531C517.43 144.531 518.82 145.758 519.109 147.531H517.719C517.461 146.531 516.695 145.781 515.438 145.781C513.578 145.781 512.461 147.367 512.469 150.094H512.609C513.258 149.148 514.297 148.594 515.516 148.594C517.523 148.594 519.203 150.156 519.203 152.344C519.203 154.477 517.648 156.18 515.266 156.156ZM512.656 152.375C512.664 153.703 513.75 154.914 515.266 154.922C516.727 154.914 517.836 153.766 517.844 152.359C517.836 150.969 516.773 149.836 515.297 149.828C513.812 149.836 512.672 151.039 512.656 152.375ZM520.821 156L520.805 154.969L524.664 150.906C526 149.484 526.641 148.719 526.649 147.672C526.641 146.508 525.672 145.758 524.399 145.75C523.047 145.758 522.203 146.609 522.196 147.875H520.867C520.852 145.875 522.399 144.531 524.446 144.531C526.5 144.531 527.953 145.914 527.961 147.672C527.953 148.938 527.367 149.922 525.367 151.984L522.774 154.656V154.75H528.164V156H520.821ZM540.907 143.391V153.672H539.672V148.328H536.391V151.297H530.094V144.312H531.313V146.781H535.188V144.312H536.391V147.297H539.672V143.391H540.907ZM531.313 150.281H535.188V147.75H531.313V150.281ZM531.922 156.969V152.656H533.157V155.938H541.219V156.969H531.922ZM554.368 143.375V150.484H553.149V143.375H554.368ZM543.134 149.75C546.618 148.977 548.649 147.312 548.868 145.078H543.837V144.062H550.212C550.204 147.609 547.696 149.82 543.587 150.781L543.134 149.75ZM545.337 152.125V151.141H554.368V154.5H546.587V156.156H554.868V157.141H545.368V153.562H553.149V152.125H545.337ZM564.509 156.156C562.259 156.156 560.642 154.953 560.572 153.156H561.994C562.072 154.234 563.142 154.906 564.494 154.906C565.986 154.906 567.064 154.102 567.072 152.922C567.064 151.688 566.08 150.82 564.322 150.812H563.4V149.578H564.322C565.697 149.578 566.658 148.805 566.65 147.641C566.658 146.508 565.83 145.758 564.541 145.75C563.33 145.758 562.228 146.422 562.166 147.531H560.806C560.877 145.734 562.548 144.531 564.556 144.531C566.712 144.531 568.025 145.945 568.009 147.562C568.025 148.852 567.275 149.789 566.087 150.125V150.203C567.564 150.43 568.455 151.484 568.447 152.922C568.455 154.781 566.767 156.156 564.509 156.156ZM574.064 156.156C571.814 156.156 570.197 154.953 570.127 153.156H571.549C571.627 154.234 572.697 154.906 574.049 154.906C575.541 154.906 576.619 154.102 576.627 152.922C576.619 151.688 575.635 150.82 573.877 150.812H572.955V149.578H573.877C575.252 149.578 576.213 148.805 576.205 147.641C576.213 146.508 575.385 145.758 574.096 145.75C572.885 145.758 571.783 146.422 571.721 147.531H570.361C570.432 145.734 572.103 144.531 574.111 144.531C576.267 144.531 577.58 145.945 577.564 147.562C577.58 148.852 576.83 149.789 575.642 150.125V150.203C577.119 150.43 578.01 151.484 578.002 152.922C578.01 154.781 576.322 156.156 574.064 156.156ZM583.878 151.234C583.885 148.453 584.635 146.133 585.987 144.172H587.19C586.128 145.625 585.276 148.609 585.268 151.234C585.276 153.867 586.128 156.852 587.19 158.312H585.987C584.635 156.344 583.885 154.023 583.878 151.234ZM592.823 145.562C592.807 147.547 594.222 149.289 596.261 149.984L595.573 150.938C594.042 150.367 592.839 149.234 592.237 147.773C591.643 149.438 590.378 150.727 588.698 151.359L588.026 150.359C590.167 149.609 591.589 147.766 591.604 145.609V144.172H592.823V145.562ZM590.292 154.641C590.284 152.969 592.057 152.008 594.948 152.016C597.831 152.008 599.604 152.969 599.604 154.641C599.604 156.297 597.831 157.234 594.948 157.234C592.057 157.234 590.284 156.297 590.292 154.641ZM591.511 154.641C591.503 155.648 592.815 156.258 594.948 156.25C597.073 156.258 598.386 155.648 598.386 154.641C598.386 153.602 597.073 152.984 594.948 152.984C592.815 152.984 591.503 153.602 591.511 154.641ZM595.229 147.375V146.359H598.323V143.375H599.557V151.609H598.323V147.375H595.229ZM612.409 143.391V146.578H614.519V147.609H612.409V151.234H611.191V143.391H612.409ZM602.222 150.172V144.094H603.456V149.141C605.441 149.133 607.48 148.977 609.722 148.516L609.878 149.547C607.519 150.023 605.417 150.164 603.331 150.172H602.222ZM603.612 157.078V152H612.409V157.078H603.612ZM604.816 156.078H611.222V152.969H604.816V156.078ZM626.855 143.375V153.797H625.683V143.375H626.855ZM615.105 150.844C616.894 150 617.988 148.078 617.98 146.438V144.359H619.168V146.438C619.168 148.062 620.183 149.734 621.949 150.484L621.261 151.453C619.98 150.867 619.066 149.797 618.589 148.539C618.097 149.922 617.121 151.148 615.793 151.797L615.105 150.844ZM617.746 156.969V152.516H618.964V155.938H627.277V156.969H617.746ZM620.746 147.922V146.906H622.933V143.656H624.121V153.406H622.933V147.922H620.746ZM640.082 143.375V157.297H638.863V149.641H635.926V148.625H638.863V143.375H640.082ZM629.207 153.938V144.656H635.691V145.672H630.441V148.562H635.082V149.562H630.441V152.922C632.988 152.914 634.629 152.844 636.535 152.5L636.676 153.516C634.652 153.844 632.957 153.938 630.269 153.938H629.207ZM653.871 143.391V151.438H652.699V143.391H653.871ZM642.231 147.453C642.223 145.555 643.543 144.242 645.402 144.234C647.059 144.242 648.317 145.312 648.551 146.922H650.059V143.672H651.215V151.266H650.059V147.953H648.559C648.34 149.594 647.074 150.672 645.402 150.672C643.543 150.672 642.223 149.367 642.231 147.453ZM643.34 147.453C643.324 148.742 644.207 149.656 645.402 149.672C646.582 149.656 647.465 148.742 647.481 147.453C647.465 146.18 646.582 145.25 645.402 145.266C644.207 145.25 643.324 146.18 643.34 147.453ZM644.699 157.078V152.125H653.871V157.078H644.699ZM645.902 156.078H652.668V153.094H645.902V156.078ZM660.551 147.641C660.559 150 662.27 152.398 664.317 153.281L663.629 154.25C662.004 153.516 660.606 151.914 659.957 149.992C659.309 152.031 657.903 153.797 656.317 154.594L655.582 153.625C657.575 152.672 659.309 150.047 659.317 147.641V145.828H656.036V144.812H663.864V145.828H660.551V147.641ZM665.801 157.266V143.375H667.036V157.266H665.801ZM674.013 145.391C673.997 147.414 675.466 149.219 677.528 149.938L676.903 150.906C675.294 150.312 674.02 149.117 673.395 147.578C672.786 149.227 671.505 150.523 669.872 151.156L669.231 150.188C671.309 149.414 672.763 147.492 672.763 145.391V144.062H674.013V145.391ZM671.216 153.453V152.438H680.559V157.266H679.341V153.453H671.216ZM679.341 151.75V143.375H680.559V151.75H679.341ZM687.271 146C687.263 147.914 688.708 149.68 690.755 150.391L690.13 151.375C688.552 150.797 687.325 149.625 686.708 148.156C686.122 149.812 684.864 151.086 683.224 151.719L682.552 150.734C684.669 149.992 686.06 148.109 686.068 145.953V144.234H687.271V146ZM684.786 156.969V152.656H686.036V155.938H694.099V156.969H684.786ZM692.239 153.641V143.375H693.458V147.641H695.552V148.688H693.458V153.641H692.239ZM699.935 144.031C701.794 144.023 703.216 145.109 703.482 146.703H706.388V143.375H707.622V150.828H706.388V147.719H703.49C703.247 149.359 701.818 150.453 699.935 150.453C697.818 150.453 696.318 149.141 696.326 147.234C696.318 145.352 697.818 144.023 699.935 144.031ZM697.497 147.234C697.497 148.5 698.505 149.414 699.935 149.422C701.333 149.414 702.341 148.5 702.341 147.234C702.341 145.953 701.333 145.062 699.935 145.078C698.505 145.062 697.497 145.953 697.497 147.234ZM698.669 157.078V151.531H699.904V153.297H706.388V151.531H707.622V157.078H698.669ZM699.904 156.078H706.388V154.281H699.904V156.078ZM721.412 143.375V153.797H720.24V143.375H721.412ZM709.662 150.844C711.451 150 712.545 148.078 712.537 146.438V144.359H713.724V146.438C713.724 148.062 714.74 149.734 716.506 150.484L715.818 151.453C714.537 150.867 713.623 149.797 713.146 148.539C712.654 149.922 711.677 151.148 710.349 151.797L709.662 150.844ZM712.302 156.969V152.516H713.521V155.938H721.834V156.969H712.302ZM715.302 147.922V146.906H717.49V143.656H718.677V153.406H717.49V147.922H715.302ZM734.639 143.375V157.297H733.42V149.641H730.483V148.625H733.42V143.375H734.639ZM723.764 153.938V144.656H730.248V145.672H724.998V148.562H729.639V149.562H724.998V152.922C727.545 152.914 729.186 152.844 731.092 152.5L731.233 153.516C729.209 153.844 727.514 153.938 724.826 153.938H723.764ZM738.1 156.094C737.553 156.086 737.084 155.633 737.1 155.078C737.084 154.531 737.553 154.078 738.1 154.078C738.655 154.078 739.108 154.531 739.1 155.078C739.108 155.633 738.655 156.086 738.1 156.094ZM748.304 144.531C750.249 144.555 752.413 145.727 752.413 149.891C752.413 153.914 750.765 156.156 748.116 156.156C746.124 156.156 744.726 154.938 744.444 153.141H745.835C746.085 154.156 746.858 154.906 748.116 154.906C749.96 154.906 751.085 153.312 751.101 150.562H750.944C750.296 151.5 749.257 152.062 748.054 152.062C746.03 152.062 744.351 150.508 744.351 148.328C744.351 146.219 745.897 144.508 748.304 144.531ZM745.726 148.312C745.718 149.711 746.78 150.828 748.257 150.828C749.733 150.828 750.882 149.609 750.882 148.281C750.882 146.984 749.796 145.766 748.304 145.766C746.827 145.766 745.71 146.914 745.726 148.312ZM766.187 150.438V151.453H753.531V150.438H766.187ZM754.265 148.578C756.867 148.336 759.07 147.281 759.179 145.734H754.843V144.734H759.249V143.344H760.453V144.734H764.906V145.734H760.531C760.632 147.281 762.843 148.336 765.437 148.578L765.062 149.531C762.765 149.289 760.703 148.461 759.859 147.062C759.007 148.461 756.953 149.289 754.656 149.531L754.265 148.578ZM755.062 154.938C755.054 153.445 756.835 152.641 759.859 152.641C762.867 152.641 764.624 153.445 764.64 154.938C764.624 156.43 762.867 157.234 759.859 157.234C756.835 157.234 755.054 156.43 755.062 154.938ZM756.312 154.938C756.296 155.812 757.609 156.297 759.859 156.281C762.085 156.297 763.398 155.812 763.406 154.938C763.398 154.062 762.085 153.57 759.859 153.562C757.609 153.57 756.296 154.062 756.312 154.938ZM770.398 151.234C770.39 154.016 769.64 156.336 768.289 158.297H767.086C768.148 156.844 769 153.859 769.008 151.234C769 148.602 768.148 145.617 767.086 144.156H768.289C769.64 146.125 770.39 148.445 770.398 151.234ZM774.453 154.953L773.234 159.203H772.078L772.938 154.953H774.453ZM783.907 144.531C785.852 144.555 788.016 145.727 788.016 149.891C788.016 153.914 786.368 156.156 783.719 156.156C781.727 156.156 780.329 154.938 780.047 153.141H781.438C781.688 154.156 782.462 154.906 783.719 154.906C785.563 154.906 786.688 153.312 786.704 150.562H786.547C785.899 151.5 784.86 152.062 783.657 152.062C781.633 152.062 779.954 150.508 779.954 148.328C779.954 146.219 781.501 144.508 783.907 144.531ZM781.329 148.312C781.321 149.711 782.383 150.828 783.86 150.828C785.337 150.828 786.485 149.609 786.485 148.281C786.485 146.984 785.399 145.766 783.907 145.766C782.43 145.766 781.313 146.914 781.329 148.312ZM793.337 156.156C790.829 156.156 789.376 154.047 789.384 150.344C789.376 146.672 790.845 144.531 793.337 144.531C795.821 144.531 797.29 146.672 797.29 150.344C797.29 154.047 795.845 156.156 793.337 156.156ZM790.743 150.344C790.751 153.273 791.696 154.906 793.337 154.906C794.97 154.906 795.923 153.273 795.915 150.344C795.923 147.414 794.962 145.758 793.337 145.75C791.712 145.758 790.751 147.414 790.743 150.344ZM798.564 153.688V152.531L803.657 144.688H805.392V152.453H806.97V153.688H805.392V156H804.048V153.688H798.564ZM800.079 152.453H804.048V146.469H803.907L800.079 152.359V152.453ZM820.009 145.438V146.453H808.634V145.438H813.728V143.609H814.931V145.438H820.009ZM808.009 155.641V154.625H813.728V152.672C811.252 152.539 809.759 151.578 809.775 150.016C809.759 148.367 811.502 147.391 814.338 147.406C817.134 147.391 818.908 148.367 818.9 150.016C818.908 151.578 817.384 152.539 814.931 152.672V154.625H820.728V155.641H808.009ZM811.009 150.016C810.994 151.07 812.267 151.68 814.338 151.688C816.384 151.68 817.658 151.07 817.65 150.016C817.658 148.984 816.384 148.375 814.338 148.375C812.267 148.375 810.994 148.984 811.009 150.016ZM864.739 152.094C867.81 152.102 869.747 153.07 869.755 154.75C869.747 156.391 867.81 157.375 864.739 157.375C861.7 157.375 859.739 156.391 859.739 154.75C859.739 153.07 861.7 152.102 864.739 152.094ZM858.411 151.078V149.672H863.38V147.109H865.099V149.672H871.224V151.078H858.411ZM859.88 145.312V143.938H869.661V145.109C869.669 146.227 869.669 147.414 869.271 148.859L867.552 148.703C867.903 147.336 867.927 146.336 867.927 145.312H859.88ZM861.489 154.75C861.474 155.578 862.7 156.031 864.739 156.031C866.786 156.031 868.021 155.578 868.036 154.75C868.021 153.891 866.786 153.406 864.739 153.406C862.7 153.406 861.474 153.891 861.489 154.75ZM876.951 145.812C876.951 147.539 878.068 149.164 880.279 149.844L879.451 151.203C877.865 150.703 876.74 149.695 876.122 148.422C875.497 149.906 874.31 151.086 872.607 151.656L871.732 150.281C874.005 149.539 875.201 147.703 875.201 145.828V145.656H872.216V144.25H879.888V145.656H876.951V145.812ZM873.654 154.672C873.654 152.984 875.482 152 878.435 152C881.365 152 883.162 152.984 883.169 154.672C883.162 156.375 881.365 157.375 878.435 157.375C875.482 157.375 873.654 156.375 873.654 154.672ZM875.388 154.672C875.388 155.547 876.497 156.008 878.435 156.016C880.365 156.008 881.451 155.547 881.451 154.672C881.451 153.812 880.365 153.359 878.435 153.359C876.497 153.359 875.388 153.812 875.388 154.672ZM881.294 151.688V143.266H883.029V146.656H884.997V148.078H883.029V151.688H881.294ZM895.35 143.094V157.594H894.194V143.094H895.35ZM916.359 143.391V151.734H915.124V149.859H911.437V148.844H915.124V146.969H911.578C910.663 149.203 908.523 150.82 905.546 151.703L905.031 150.734C908.382 149.742 910.484 147.859 910.726 145.453H905.734V144.422H912.062C912.062 144.969 911.999 145.492 911.882 145.984H915.124V143.391H916.359ZM907.171 154.531C907.163 152.875 908.968 151.875 911.812 151.875C914.624 151.875 916.437 152.875 916.437 154.531C916.437 156.195 914.624 157.203 911.812 157.203C908.968 157.203 907.163 156.195 907.171 154.531ZM908.374 154.531C908.382 155.578 909.718 156.211 911.812 156.203C913.874 156.211 915.21 155.578 915.218 154.531C915.21 153.484 913.874 152.852 911.812 152.859C909.718 152.852 908.382 153.484 908.374 154.531ZM929.836 143.375V157.266H928.601V143.375H929.836ZM918.523 153.656C922.281 151.875 924.203 149.211 924.476 145.891H919.164V144.891H925.726C925.711 148.883 923.851 152.422 919.195 154.656L918.523 153.656ZM943.078 149.891V150.891H938.781V154.484H944.578V155.516H931.859V154.484H937.578V150.891H933.484V144.516H942.938V145.516H934.719V149.891H943.078ZM956.766 144.25V145C956.758 145.867 956.758 147.125 956.391 148.766L955.172 148.656C955.501 147.188 955.532 146.109 955.532 145.281H949.844V144.25H956.766ZM948.985 150.062C949.891 150.062 950.907 150.055 951.969 150.023V147.266H953.188V149.992C954.735 149.93 956.321 149.828 957.766 149.641L957.844 150.547C954.93 151.016 951.618 151.094 949.11 151.094L948.985 150.062ZM950.813 154.703C950.813 153.148 952.563 152.234 955.438 152.234C958.313 152.234 960.071 153.148 960.063 154.703C960.071 156.312 958.313 157.227 955.438 157.219C952.563 157.227 950.813 156.312 950.813 154.703ZM952.047 154.703C952.04 155.688 953.337 156.242 955.438 156.25C957.532 156.242 958.821 155.688 958.829 154.703C958.821 153.766 957.532 153.195 955.438 153.188C953.337 153.195 952.04 153.766 952.047 154.703ZM958.704 152.062V143.375H959.954V147.188H961.985V148.219H959.954V152.062H958.704ZM969.587 145.344C969.579 147.203 972.056 148.781 974.477 149.141L974.024 150.109C971.86 149.742 969.743 148.586 968.899 146.914C968.056 148.586 965.938 149.742 963.806 150.109L963.321 149.141C965.735 148.781 968.204 147.203 968.212 145.344V145.25H963.759V144.25H974.024V145.25H969.587V145.344ZM962.571 152.312V151.297H975.227V152.312H969.477V157.266H968.274V152.312H962.571ZM981.017 147.109C981.009 149.648 982.736 152.195 984.782 153.125L984.032 154.094C982.447 153.328 981.079 151.68 980.415 149.703C979.775 151.797 978.407 153.555 976.782 154.375L976.001 153.344C978.072 152.398 979.782 149.742 979.798 147.109V144.578H981.017V147.109ZM986.298 157.297V143.375H987.532V157.297H986.298ZM1004.33 144.219V145.188C1004.32 146.258 1004.32 147.594 1003.96 149.375L1002.72 149.219C1003.11 147.484 1003.11 146.266 1003.11 145.219H994.799V144.219H1004.33ZM993.299 151.328V150.328H998.533V147.453H999.736V150.328H1005.94V151.328H993.299ZM994.908 156.969V152.75H996.143V155.938H1004.69V156.969H994.908ZM1011.76 147.641C1011.77 150 1013.48 152.398 1015.53 153.281L1014.84 154.25C1013.21 153.516 1011.81 151.914 1011.17 149.992C1010.52 152.031 1009.11 153.797 1007.53 154.594L1006.79 153.625C1008.78 152.672 1010.52 150.047 1010.53 147.641V145.828H1007.24V144.812H1015.07V145.828H1011.76V147.641ZM1017.01 157.266V143.375H1018.24V157.266H1017.01ZM1031.16 143.375V146.812H1033.25V147.812H1031.16V151.422H1029.94V143.375H1031.16ZM1020.57 147.484C1020.56 145.547 1022.1 144.211 1024.21 144.219C1026.32 144.211 1027.85 145.547 1027.86 147.484C1027.85 149.414 1026.32 150.742 1024.21 150.75C1022.1 150.742 1020.56 149.414 1020.57 147.484ZM1021.77 147.484C1021.76 148.797 1022.8 149.703 1024.21 149.719C1025.63 149.703 1026.65 148.797 1026.66 147.484C1026.65 146.18 1025.63 145.25 1024.21 145.266C1022.8 145.25 1021.76 146.18 1021.77 147.484ZM1022.39 157.078V152.078H1031.16V157.078H1022.39ZM1023.6 156.078H1029.94V153.078H1023.6V156.078ZM1040.14 143.641C1043.18 143.648 1045.03 144.586 1045.04 146.219C1045.03 147.836 1043.18 148.773 1040.14 148.766C1037.09 148.773 1035.21 147.836 1035.21 146.219C1035.21 144.586 1037.09 143.648 1040.14 143.641ZM1033.81 150.891V149.891H1046.46V150.891H1033.81ZM1035.42 157.078V151.797H1036.64V153.344H1043.6V151.797H1044.85V157.078H1035.42ZM1036.48 146.219C1036.47 147.219 1037.86 147.812 1040.14 147.812C1042.39 147.812 1043.78 147.219 1043.79 146.219C1043.78 145.219 1042.39 144.609 1040.14 144.609C1037.86 144.609 1036.47 145.219 1036.48 146.219ZM1036.64 156.078H1043.6V154.328H1036.64V156.078ZM1062.06 144.219V145.188C1062.05 146.258 1062.05 147.594 1061.68 149.375L1060.45 149.219C1060.84 147.484 1060.84 146.266 1060.84 145.219H1052.53V144.219H1062.06ZM1051.03 151.328V150.328H1056.26V147.453H1057.46V150.328H1063.67V151.328H1051.03ZM1052.64 156.969V152.75H1053.87V155.938H1062.42V156.969H1052.64ZM1069.49 147.641C1069.5 150 1071.21 152.398 1073.25 153.281L1072.57 154.25C1070.94 153.516 1069.54 151.914 1068.89 149.992C1068.25 152.031 1066.84 153.797 1065.25 154.594L1064.52 153.625C1066.51 152.672 1068.25 150.047 1068.25 147.641V145.828H1064.97V144.812H1072.8V145.828H1069.49V147.641ZM1074.74 157.266V143.375H1075.97V157.266H1074.74ZM1088.89 143.375V146.812H1090.98V147.812H1088.89V151.422H1087.67V143.375H1088.89ZM1078.29 147.484C1078.29 145.547 1079.83 144.211 1081.93 144.219C1084.05 144.211 1085.57 145.547 1085.59 147.484C1085.57 149.414 1084.05 150.742 1081.93 150.75C1079.83 150.742 1078.29 149.414 1078.29 147.484ZM1079.5 147.484C1079.49 148.797 1080.53 149.703 1081.93 149.719C1083.36 149.703 1084.38 148.797 1084.39 147.484C1084.38 146.18 1083.36 145.25 1081.93 145.266C1080.53 145.25 1079.49 146.18 1079.5 147.484ZM1080.12 157.078V152.078H1088.89V157.078H1080.12ZM1081.32 156.078H1087.67V153.078H1081.32V156.078ZM1103 143.375V157.297H1101.79V143.375H1103ZM1092.32 145.688V144.672H1098.79V149.609H1093.6V152.891C1095.9 152.898 1097.96 152.789 1100.44 152.391L1100.57 153.422C1098.01 153.82 1095.9 153.922 1093.5 153.922H1092.35V148.609H1097.55V145.688H1092.32ZM1113.24 144.688V156H1111.82V146.156H1111.76L1109.01 147.984V146.562L1111.82 144.688H1113.24ZM1119.64 156.156C1117.13 156.156 1115.68 154.047 1115.68 150.344C1115.68 146.672 1117.15 144.531 1119.64 144.531C1122.12 144.531 1123.59 146.672 1123.59 150.344C1123.59 154.047 1122.15 156.156 1119.64 156.156ZM1117.04 150.344C1117.05 153.273 1118 154.906 1119.64 154.906C1121.27 154.906 1122.22 153.273 1122.22 150.344C1122.22 147.414 1121.26 145.758 1119.64 145.75C1118.01 145.758 1117.05 147.414 1117.04 150.344ZM1128.93 156.156C1126.54 156.156 1124.9 154.836 1124.91 153C1124.9 151.539 1125.92 150.328 1127.21 150.125V150.062C1126.08 149.805 1125.34 148.766 1125.35 147.531C1125.34 145.805 1126.86 144.531 1128.93 144.531C1130.99 144.531 1132.51 145.805 1132.52 147.531C1132.51 148.766 1131.76 149.805 1130.65 150.062V150.125C1131.93 150.328 1132.94 151.539 1132.96 153C1132.94 154.836 1131.29 156.156 1128.93 156.156ZM1126.32 152.922C1126.29 154.109 1127.3 154.914 1128.93 154.922C1130.54 154.914 1131.55 154.109 1131.55 152.922C1131.55 151.672 1130.45 150.75 1128.93 150.75C1127.41 150.75 1126.29 151.672 1126.32 152.922ZM1126.71 147.641C1126.72 148.781 1127.63 149.555 1128.93 149.562C1130.22 149.555 1131.15 148.781 1131.15 147.641C1131.15 146.508 1130.25 145.742 1128.93 145.75C1127.58 145.742 1126.72 146.508 1126.71 147.641ZM272.297 173.281V183.594H270.562V178.422H268.062V177.016H270.562V173.281H272.297ZM260.438 180.547C262.688 179.805 263.891 177.961 263.891 176.078V175.703H260.953V174.297H268.578V175.703H265.656V176.094C265.656 177.789 266.797 179.547 268.984 180.266L268.109 181.656C266.531 181.117 265.414 180.039 264.797 178.703C264.18 180.188 263 181.375 261.328 181.953L260.438 180.547ZM263.031 187.109V182.688H264.766V185.703H272.656V187.109H263.031ZM285.149 173.266V179.094H287.133V180.547H285.149V187.391H283.399V173.266H285.149ZM273.805 183.469C274.875 183.469 276.118 183.469 277.414 183.438V182.117C275.875 181.852 274.875 180.891 274.883 179.562C274.875 177.969 276.274 176.914 278.305 176.906C280.313 176.914 281.727 177.969 281.743 179.562C281.727 180.898 280.703 181.859 279.164 182.117V183.375C280.352 183.312 281.539 183.219 282.649 183.062L282.758 184.328C279.727 184.883 276.461 184.906 274.055 184.906L273.805 183.469ZM274.071 176.266V174.891H277.414V173.328H279.164V174.891H282.493V176.266H274.071ZM276.524 179.562C276.516 180.375 277.235 180.852 278.305 180.844C279.36 180.852 280.071 180.375 280.071 179.562C280.071 178.742 279.36 178.242 278.305 178.234C277.235 178.242 276.516 178.742 276.524 179.562ZM297.439 173.094V187.594H296.283V173.094H297.439ZM311.135 186.156C308.627 186.156 307.174 184.047 307.182 180.344C307.174 176.672 308.643 174.531 311.135 174.531C313.619 174.531 315.088 176.672 315.088 180.344C315.088 184.047 313.643 186.156 311.135 186.156ZM308.541 180.344C308.549 183.273 309.494 184.906 311.135 184.906C312.768 184.906 313.721 183.273 313.713 180.344C313.721 177.414 312.76 175.758 311.135 175.75C309.51 175.758 308.549 177.414 308.541 180.344ZM320.549 186.156C318.299 186.156 316.682 184.953 316.612 183.156H318.034C318.112 184.234 319.182 184.906 320.534 184.906C322.026 184.906 323.104 184.102 323.112 182.922C323.104 181.688 322.12 180.82 320.362 180.812H319.44V179.578H320.362C321.737 179.578 322.698 178.805 322.69 177.641C322.698 176.508 321.87 175.758 320.581 175.75C319.37 175.758 318.268 176.422 318.206 177.531H316.846C316.917 175.734 318.588 174.531 320.596 174.531C322.752 174.531 324.065 175.945 324.049 177.562C324.065 178.852 323.315 179.789 322.127 180.125V180.203C323.604 180.43 324.495 181.484 324.487 182.922C324.495 184.781 322.807 186.156 320.549 186.156ZM330.198 174.688V186H328.776V176.156H328.714L325.964 177.984V176.562L328.776 174.688H330.198ZM337.769 179.734V180.969H332.816V179.734H337.769ZM343.433 186.156C341.472 186.133 339.308 184.969 339.308 180.781C339.308 176.773 340.949 174.531 343.605 174.531C345.597 174.531 346.988 175.758 347.277 177.531H345.886C345.628 176.531 344.863 175.781 343.605 175.781C341.746 175.781 340.628 177.367 340.636 180.094H340.777C341.425 179.148 342.464 178.594 343.683 178.594C345.691 178.594 347.371 180.156 347.371 182.344C347.371 184.477 345.816 186.18 343.433 186.156ZM340.824 182.375C340.832 183.703 341.918 184.914 343.433 184.922C344.894 184.914 346.003 183.766 346.011 182.359C346.003 180.969 344.941 179.836 343.464 179.828C341.98 179.836 340.839 181.039 340.824 182.375ZM348.988 186L348.973 184.969L352.832 180.906C354.168 179.484 354.808 178.719 354.816 177.672C354.808 176.508 353.84 175.758 352.566 175.75C351.215 175.758 350.371 176.609 350.363 177.875H349.035C349.019 175.875 350.566 174.531 352.613 174.531C354.668 174.531 356.121 175.914 356.129 177.672C356.121 178.938 355.535 179.922 353.535 181.984L350.941 184.656V184.75H356.332V186H348.988ZM361.762 186.156C359.254 186.156 357.801 184.047 357.809 180.344C357.801 176.672 359.27 174.531 361.762 174.531C364.246 174.531 365.715 176.672 365.715 180.344C365.715 184.047 364.27 186.156 361.762 186.156ZM359.168 180.344C359.176 183.273 360.121 184.906 361.762 184.906C363.395 184.906 364.348 183.273 364.34 180.344C364.348 177.414 363.387 175.758 361.762 175.75C360.137 175.758 359.176 177.414 359.168 180.344ZM372.145 179.734V180.969H367.192V179.734H372.145ZM377.559 186.156C375.52 186.156 373.973 184.898 373.887 183.156H375.247C375.348 184.164 376.333 184.914 377.559 184.922C379.028 184.914 380.091 183.844 380.091 182.422C380.091 180.953 378.989 179.867 377.466 179.859C376.512 179.844 375.77 180.141 375.356 180.875H373.997L374.794 174.688H380.919V175.938H375.966L375.544 179.25H375.653C376.161 178.859 376.919 178.594 377.716 178.594C379.872 178.594 381.458 180.188 381.466 182.391C381.458 184.578 379.817 186.156 377.559 186.156ZM386.864 174.531C388.81 174.555 390.974 175.727 390.974 179.891C390.974 183.914 389.325 186.156 386.677 186.156C384.685 186.156 383.286 184.938 383.005 183.141H384.396C384.646 184.156 385.419 184.906 386.677 184.906C388.521 184.906 389.646 183.312 389.661 180.562H389.505C388.857 181.5 387.817 182.062 386.614 182.062C384.591 182.062 382.911 180.508 382.911 178.328C382.911 176.219 384.458 174.508 386.864 174.531ZM384.286 178.312C384.278 179.711 385.341 180.828 386.817 180.828C388.294 180.828 389.442 179.609 389.442 178.281C389.442 176.984 388.357 175.766 386.864 175.766C385.388 175.766 384.271 176.914 384.286 178.312ZM392.31 183.688V182.531L397.404 174.688H399.138V182.453H400.716V183.688H399.138V186H397.794V183.688H392.31ZM393.826 182.453H397.794V176.469H397.654L393.826 182.359V182.453ZM406.021 174.531C407.967 174.555 410.131 175.727 410.131 179.891C410.131 183.914 408.482 186.156 405.834 186.156C403.842 186.156 402.443 184.938 402.162 183.141H403.553C403.803 184.156 404.576 184.906 405.834 184.906C407.678 184.906 408.803 183.312 408.818 180.562H408.662C408.013 181.5 406.974 182.062 405.771 182.062C403.748 182.062 402.068 180.508 402.068 178.328C402.068 176.219 403.615 174.508 406.021 174.531ZM403.443 178.312C403.435 179.711 404.498 180.828 405.974 180.828C407.451 180.828 408.599 179.609 408.599 178.281C408.599 176.984 407.513 175.766 406.021 175.766C404.545 175.766 403.428 176.914 403.443 178.312ZM460.189 173.281V181.906H458.533V178.297H457.236V181.828H455.611V173.469H457.236V176.875H458.533V173.281H460.189ZM448.001 179.875L449.267 179.867V175.875H448.267V174.438H454.829V175.875H453.814V179.68C454.236 179.641 454.65 179.602 455.033 179.547L455.111 180.844C452.9 181.242 449.993 181.289 448.189 181.297L448.001 179.875ZM450.314 183.922V182.531H460.189V187.391H458.454V183.922H450.314ZM450.861 179.836C451.314 179.82 451.775 179.805 452.236 179.781V175.875H450.861V179.836ZM468.916 175.203C468.916 177.383 471.048 179.578 474.009 180.094L473.228 181.547C470.861 181.055 468.923 179.617 468.002 177.719C467.072 179.602 465.134 181.047 462.775 181.547L462.009 180.094C464.923 179.562 467.064 177.375 467.072 175.203V174.156H468.916V175.203ZM461.619 185.594V184.156H474.525V185.594H461.619ZM485.081 173.094V187.594H483.924V173.094H485.081ZM498.777 186.156C496.269 186.156 494.816 184.047 494.824 180.344C494.816 176.672 496.285 174.531 498.777 174.531C501.261 174.531 502.73 176.672 502.73 180.344C502.73 184.047 501.285 186.156 498.777 186.156ZM496.183 180.344C496.191 183.273 497.136 184.906 498.777 184.906C500.41 184.906 501.363 183.273 501.355 180.344C501.363 177.414 500.402 175.758 498.777 175.75C497.152 175.758 496.191 177.414 496.183 180.344ZM508.191 186.156C505.941 186.156 504.324 184.953 504.254 183.156H505.676C505.754 184.234 506.824 184.906 508.176 184.906C509.668 184.906 510.746 184.102 510.754 182.922C510.746 181.688 509.762 180.82 508.004 180.812H507.082V179.578H508.004C509.379 179.578 510.34 178.805 510.332 177.641C510.34 176.508 509.512 175.758 508.223 175.75C507.012 175.758 505.91 176.422 505.848 177.531H504.488C504.558 175.734 506.23 174.531 508.238 174.531C510.394 174.531 511.707 175.945 511.691 177.562C511.707 178.852 510.957 179.789 509.769 180.125V180.203C511.246 180.43 512.137 181.484 512.129 182.922C512.137 184.781 510.449 186.156 508.191 186.156ZM517.84 174.688V186H516.418V176.156H516.356L513.606 177.984V176.562L516.418 174.688H517.84ZM525.411 179.734V180.969H520.457V179.734H525.411ZM531.075 186.156C529.114 186.133 526.95 184.969 526.95 180.781C526.95 176.773 528.591 174.531 531.247 174.531C533.239 174.531 534.63 175.758 534.919 177.531H533.528C533.27 176.531 532.505 175.781 531.247 175.781C529.388 175.781 528.27 177.367 528.278 180.094H528.419C529.067 179.148 530.106 178.594 531.325 178.594C533.333 178.594 535.013 180.156 535.013 182.344C535.013 184.477 533.458 186.18 531.075 186.156ZM528.466 182.375C528.473 183.703 529.559 184.914 531.075 184.922C532.536 184.914 533.645 183.766 533.653 182.359C533.645 180.969 532.583 179.836 531.106 179.828C529.622 179.836 528.481 181.039 528.466 182.375ZM536.63 186L536.614 184.969L540.474 180.906C541.81 179.484 542.45 178.719 542.458 177.672C542.45 176.508 541.482 175.758 540.208 175.75C538.857 175.758 538.013 176.609 538.005 177.875H536.677C536.661 175.875 538.208 174.531 540.255 174.531C542.31 174.531 543.763 175.914 543.771 177.672C543.763 178.938 543.177 179.922 541.177 181.984L538.583 184.656V184.75H543.974V186H536.63ZM549.404 186.156C546.896 186.156 545.443 184.047 545.451 180.344C545.443 176.672 546.912 174.531 549.404 174.531C551.888 174.531 553.357 176.672 553.357 180.344C553.357 184.047 551.912 186.156 549.404 186.156ZM546.81 180.344C546.818 183.273 547.763 184.906 549.404 184.906C551.037 184.906 551.99 183.273 551.982 180.344C551.99 177.414 551.029 175.758 549.404 175.75C547.779 175.758 546.818 177.414 546.81 180.344ZM559.787 179.734V180.969H554.834V179.734H559.787ZM565.201 186.156C563.162 186.156 561.615 184.898 561.529 183.156H562.889C562.99 184.164 563.975 184.914 565.201 184.922C566.67 184.914 567.733 183.844 567.733 182.422C567.733 180.953 566.631 179.867 565.108 179.859C564.154 179.844 563.412 180.141 562.998 180.875H561.639L562.436 174.688H568.561V175.938H563.608L563.186 179.25H563.295C563.803 178.859 564.561 178.594 565.358 178.594C567.514 178.594 569.1 180.188 569.108 182.391C569.1 184.578 567.459 186.156 565.201 186.156ZM574.506 174.531C576.452 174.555 578.616 175.727 578.616 179.891C578.616 183.914 576.967 186.156 574.319 186.156C572.327 186.156 570.928 184.938 570.647 183.141H572.038C572.288 184.156 573.061 184.906 574.319 184.906C576.163 184.906 577.288 183.312 577.303 180.562H577.147C576.498 181.5 575.459 182.062 574.256 182.062C572.233 182.062 570.553 180.508 570.553 178.328C570.553 176.219 572.1 174.508 574.506 174.531ZM571.928 178.312C571.92 179.711 572.983 180.828 574.459 180.828C575.936 180.828 577.084 179.609 577.084 178.281C577.084 176.984 575.998 175.766 574.506 175.766C573.03 175.766 571.913 176.914 571.928 178.312ZM583.921 186.156C581.882 186.156 580.335 184.898 580.249 183.156H581.608C581.71 184.164 582.694 184.914 583.921 184.922C585.389 184.914 586.452 183.844 586.452 182.422C586.452 180.953 585.35 179.867 583.827 179.859C582.874 179.844 582.132 180.141 581.717 180.875H580.358L581.155 174.688H587.28V175.938H582.327L581.905 179.25H582.014C582.522 178.859 583.28 178.594 584.077 178.594C586.233 178.594 587.819 180.188 587.827 182.391C587.819 184.578 586.178 186.156 583.921 186.156ZM593.163 186.156C590.655 186.156 589.202 184.047 589.21 180.344C589.202 176.672 590.671 174.531 593.163 174.531C595.647 174.531 597.116 176.672 597.116 180.344C597.116 184.047 595.671 186.156 593.163 186.156ZM590.569 180.344C590.577 183.273 591.522 184.906 593.163 184.906C594.796 184.906 595.749 183.273 595.741 180.344C595.749 177.414 594.788 175.758 593.163 175.75C591.538 175.758 590.577 177.414 590.569 180.344ZM646.784 173.266V187.406H645.034V173.266H646.784ZM635.487 179.281C635.479 176.234 637.034 174.297 639.174 174.297C641.292 174.297 642.854 176.234 642.862 179.281C642.854 182.352 641.292 184.281 639.174 184.281C637.034 184.281 635.479 182.352 635.487 179.281ZM637.159 179.281C637.159 181.453 637.979 182.711 639.174 182.719C640.362 182.711 641.174 181.453 641.174 179.281C641.174 177.125 640.362 175.859 639.174 175.859C637.979 175.859 637.159 177.125 637.159 179.281ZM654.526 174.797V178.469H656.167V173.516H657.823V186.703H656.167V179.875H654.526V183.75H648.979V174.797H654.526ZM650.604 182.375H652.901V176.172H650.604V182.375ZM659.057 187.391V173.266H660.729V187.391H659.057ZM666.05 173.719C668.191 173.727 669.784 175.047 669.8 176.906C669.784 178.773 668.191 180.086 666.05 180.094C663.894 180.086 662.3 178.773 662.3 176.906C662.3 175.047 663.894 173.727 666.05 173.719ZM663.987 176.906C663.987 178 664.862 178.688 666.05 178.688C667.237 178.688 668.105 178 668.112 176.906C668.105 175.836 667.237 175.148 666.05 175.156C664.862 175.148 663.987 175.836 663.987 176.906ZM664.441 182.375V181.016H673.816V184.703H666.175V185.844H674.237V187.219H664.472V183.422H672.081V182.375H664.441ZM672.066 180.406V173.266H673.816V180.406H672.066ZM685.512 173.094V187.594H684.356V173.094H685.512ZM695.521 186V177.516H696.864V186H695.521ZM695.255 175.219C695.247 174.719 695.677 174.32 696.193 174.328C696.708 174.32 697.138 174.719 697.146 175.219C697.138 175.711 696.708 176.109 696.193 176.109C695.677 176.109 695.247 175.711 695.255 175.219ZM700.029 180.906V186H698.685V177.516H699.982V178.844H700.091C700.49 177.977 701.287 177.406 702.576 177.406C704.294 177.406 705.443 178.453 705.435 180.609V186H704.091V180.703C704.091 179.391 703.372 178.609 702.169 178.609C700.935 178.609 700.029 179.438 700.029 180.906ZM711.068 177.516V178.641H709.193V186H707.834V178.641H706.474V177.516H707.834V176.359C707.842 174.984 708.756 174.156 710.256 174.156C710.584 174.156 710.974 174.195 711.256 174.25V175.453C710.967 175.406 710.724 175.391 710.552 175.391C709.607 175.391 709.185 175.781 709.193 176.656V177.516H711.068ZM715.451 186.172C713.139 186.18 711.576 184.43 711.576 181.797C711.576 179.148 713.139 177.406 715.451 177.406C717.756 177.406 719.303 179.148 719.295 181.797C719.303 184.43 717.756 186.18 715.451 186.172ZM712.92 181.797C712.928 183.492 713.725 184.984 715.451 184.984C717.162 184.984 717.951 183.492 717.951 181.797C717.951 180.109 717.162 178.594 715.451 178.594C713.725 178.594 712.928 180.109 712.92 181.797ZM726.334 184.516C724.764 184.508 723.631 183.25 723.631 181.219C723.631 179.203 724.788 177.945 726.35 177.938C727.475 177.945 727.936 178.664 728.131 179.016H728.209V178.062H729.397V182.625C729.42 183.234 729.67 183.539 730.178 183.531C731.147 183.539 731.795 182.406 731.803 180.781C731.819 177.836 729.686 175.914 726.694 175.906C723.6 175.922 721.608 178.312 721.6 181.219C721.6 184.398 723.334 186.578 726.631 186.547C727.725 186.531 728.444 186.461 729.397 186.203V187.266C728.577 187.484 727.663 187.625 726.631 187.625C722.811 187.625 720.467 185.18 720.475 181.219C720.459 177.523 723.053 174.828 726.694 174.828C730.428 174.828 732.944 177.367 732.928 180.734C732.936 183.164 731.686 184.578 730.1 184.578C729.116 184.578 728.373 184.023 728.311 183.297H728.209C728.03 183.648 727.553 184.508 726.334 184.516ZM724.85 181.203C724.842 182.422 725.452 183.367 726.538 183.375C727.655 183.367 728.217 182.5 728.225 181.203C728.217 179.938 727.663 179.086 726.538 179.078C725.444 179.086 724.842 180.008 724.85 181.203ZM741.483 177.516L738.342 186H736.952L733.827 177.516H735.296L737.608 184.25H737.702L740.014 177.516H741.483ZM745.897 186.172C743.444 186.18 741.929 184.43 741.929 181.828C741.929 179.219 743.468 177.406 745.772 177.406C747.554 177.406 749.437 178.5 749.429 181.641V182.203H743.272C743.343 184 744.39 184.984 745.897 184.984C746.913 184.984 747.554 184.539 747.866 184.016H749.304C748.905 185.305 747.647 186.18 745.897 186.172ZM743.28 181.062H748.069C748.062 179.648 747.171 178.594 745.772 178.594C744.304 178.594 743.374 179.75 743.28 181.062ZM754.296 189.359C752.242 189.359 750.851 188.461 750.703 186.891H752.109C752.288 187.758 753.093 188.188 754.296 188.188C755.749 188.188 756.64 187.555 756.64 186.156V184.438H756.531C756.242 184.906 755.703 185.867 754.062 185.875C751.999 185.867 750.453 184.312 750.453 181.641C750.453 179.031 751.945 177.406 754.078 177.406C755.726 177.406 756.257 178.406 756.562 178.859H756.671V177.516H757.984V186.234C757.976 188.422 756.367 189.359 754.296 189.359ZM751.812 181.688C751.812 183.445 752.64 184.672 754.249 184.672C755.804 184.672 756.663 183.555 756.671 181.688C756.663 179.867 755.828 178.609 754.249 178.609C752.617 178.609 751.812 179.977 751.812 181.688ZM759.398 183.594C759.398 181.648 761.117 181.203 762.586 181.094C763.133 181.055 764.5 180.977 764.883 180.969V180.281C764.883 179.203 764.242 178.578 762.961 178.578C761.89 178.578 761.242 179.07 761.054 179.719H759.648C759.82 178.352 761.148 177.406 763.023 177.406C764.133 177.406 766.218 177.734 766.211 180.406V186H764.883V184.844H764.82C764.539 185.414 763.765 186.195 762.289 186.203C760.679 186.195 759.398 185.25 759.398 183.594ZM760.742 183.656C760.75 184.555 761.492 185.008 762.523 185C764.039 185.008 764.883 183.992 764.883 182.922V182.07C764.484 182.094 763.148 182.195 762.742 182.219C761.523 182.297 760.75 182.727 760.742 183.656ZM772.766 179.719C772.578 179.016 772.039 178.555 771.047 178.547C770 178.555 769.258 179.117 769.25 179.828C769.258 180.391 769.711 180.773 770.703 181.016L771.969 181.328C773.484 181.688 774.227 182.445 774.234 183.625C774.227 185.094 773.031 186.18 770.906 186.172C769 186.18 767.867 185.328 767.641 183.781H769.047C769.203 184.609 769.805 185.008 770.875 185C772.086 185.008 772.844 184.5 772.844 183.703C772.844 183.102 772.414 182.711 771.453 182.484L770.172 182.188C768.695 181.844 767.906 181.039 767.906 179.906C767.906 178.453 769.18 177.406 771.047 177.406C772.805 177.406 773.906 178.344 774.078 179.719H772.766ZM775.664 186V177.516H777.008V186H775.664ZM775.399 175.219C775.391 174.719 775.821 174.32 776.336 174.328C776.852 174.32 777.282 174.719 777.289 175.219C777.282 175.711 776.852 176.109 776.336 176.109C775.821 176.109 775.391 175.711 775.399 175.219ZM780.172 180.906V186H778.829V177.516H780.126V178.844H780.235C780.633 177.977 781.43 177.406 782.719 177.406C784.438 177.406 785.587 178.453 785.579 180.609V186H784.235V180.703C784.235 179.391 783.516 178.609 782.313 178.609C781.079 178.609 780.172 179.438 780.172 180.906ZM790.884 186.172C788.477 186.18 787.009 184.344 787.009 181.797C787.009 179.219 788.548 177.406 790.852 177.406C792.657 177.406 794.017 178.477 794.227 180.078H792.884C792.688 179.305 792.017 178.594 790.884 178.594C789.368 178.594 788.36 179.844 788.352 181.75C788.36 183.711 789.345 184.969 790.884 184.969C791.884 184.969 792.649 184.43 792.884 183.5H794.227C794.017 185.016 792.767 186.18 790.884 186.172ZM796.517 186.094C795.97 186.086 795.501 185.633 795.517 185.078C795.501 184.531 795.97 184.078 796.517 184.078C797.072 184.078 797.525 184.531 797.517 185.078C797.525 185.633 797.072 186.086 796.517 186.094ZM802.775 186.172C800.369 186.18 798.9 184.344 798.9 181.797C798.9 179.219 800.439 177.406 802.744 177.406C804.548 177.406 805.908 178.477 806.119 180.078H804.775C804.58 179.305 803.908 178.594 802.775 178.594C801.259 178.594 800.252 179.844 800.244 181.75C800.252 183.711 801.236 184.969 802.775 184.969C803.775 184.969 804.541 184.43 804.775 183.5H806.119C805.908 185.016 804.658 186.18 802.775 186.172ZM810.924 186.172C808.611 186.18 807.049 184.43 807.049 181.797C807.049 179.148 808.611 177.406 810.924 177.406C813.228 177.406 814.775 179.148 814.768 181.797C814.775 184.43 813.228 186.18 810.924 186.172ZM808.393 181.797C808.4 183.492 809.197 184.984 810.924 184.984C812.635 184.984 813.424 183.492 813.424 181.797C813.424 180.109 812.635 178.594 810.924 178.594C809.197 178.594 808.4 180.109 808.393 181.797ZM817.166 186.094C816.619 186.086 816.151 185.633 816.166 185.078C816.151 184.531 816.619 184.078 817.166 184.078C817.721 184.078 818.174 184.531 818.166 185.078C818.174 185.633 817.721 186.086 817.166 186.094ZM819.956 186V174.688H821.299V181.266H821.456L825.128 177.516H826.784L823.206 181.148L827.049 186H825.346L822.198 182L821.299 182.836V186H819.956ZM827.901 186V177.516H829.198V178.812H829.292C829.597 177.953 830.479 177.383 831.479 177.375C831.682 177.383 832.026 177.391 832.182 177.406V178.766C832.081 178.742 831.722 178.672 831.37 178.672C830.151 178.672 829.245 179.516 829.245 180.656V186H827.901Z" fill="#1E1E1E"/>
<path d="M273.344 43.1406V44.5469H267.734V49.375H266.016V44.5469H260.469V43.1406H273.344ZM261.141 40.8281C263.914 40.4766 265.773 38.9844 265.898 37.4375H261.656V36.0625H272.156V37.4375H267.914C268.031 38.9844 269.875 40.4766 272.672 40.8281L272.047 42.1875C269.641 41.8438 267.766 40.7422 266.906 39.2188C266.039 40.7422 264.18 41.8438 261.797 42.1875L261.141 40.8281ZM279.243 37.2812C279.235 39.1406 280.407 40.8906 282.649 41.5938L281.789 42.9688C280.164 42.4297 279 41.3516 278.36 39.9688C277.727 41.4531 276.539 42.6328 274.868 43.2031L273.993 41.8438C276.274 41.0703 277.453 39.1953 277.446 37.2812V35.9375H279.243V37.2812ZM276.102 45.75V44.3594H285.743V49.3906H283.993V45.75H276.102ZM283.993 43.7188V35.2656H285.743V43.7188H283.993ZM299.251 35.2656V49.3906H297.516V35.2656H299.251ZM287.548 45.4688C288.673 45.4609 289.946 45.4609 291.282 45.4219V44.125C289.696 43.875 288.657 42.9062 288.657 41.5625C288.657 39.9688 290.071 38.9141 292.126 38.9062C294.204 38.9141 295.641 39.9688 295.641 41.5625C295.641 42.8984 294.602 43.8594 293.016 44.1172V45.3594C294.258 45.3047 295.508 45.2031 296.688 45.0469L296.813 46.3438C293.712 46.8672 290.337 46.9062 287.798 46.9062L287.548 45.4688ZM287.844 38.2656V36.8906H291.282V35.3125H293.016V36.8906H296.438V38.2656H287.844ZM290.313 41.5625C290.298 42.375 291.055 42.8516 292.126 42.8438C293.227 42.8516 293.977 42.375 293.969 41.5625C293.977 40.7422 293.227 40.2422 292.126 40.2344C291.055 40.2422 290.298 40.7422 290.313 41.5625ZM306.04 38.6562C306.024 41.1797 307.29 43.7266 309.478 44.7812L308.415 46.1719C306.884 45.3984 305.782 43.9062 305.181 42.1094C304.563 44.0312 303.407 45.625 301.79 46.4375L300.728 45.0469C303.001 43.9688 304.298 41.2656 304.306 38.6562V36.4062H306.04V38.6562ZM310.321 49.3906V35.2656H312.056V40.7969H314.228V42.2812H312.056V49.3906H310.321ZM320.056 36.5938V39.9219H322.384V36.5938H323.963V40.4844H325.603V35.5312H327.259V48.7344H325.603V41.9219H323.963V45.9688H318.416V36.5938H320.056ZM320.056 44.5469H322.384V41.3125H320.056V44.5469ZM328.494 49.3906V35.2656H330.166V49.3906H328.494ZM342.549 35.2656V40.7812H344.643V42.2344H342.549V49.3594H340.814V35.2656H342.549ZM331.408 45.5C334.846 43.7812 336.705 41.3906 337.049 38.1719H332.174V36.7344H338.814C338.807 40.8828 337.088 44.5312 332.393 46.8438L331.408 45.5ZM352.291 37.2031C352.291 39.3828 354.424 41.5781 357.385 42.0938L356.604 43.5469C354.237 43.0547 352.299 41.6172 351.377 39.7188C350.448 41.6016 348.51 43.0469 346.151 43.5469L345.385 42.0938C348.299 41.5625 350.44 39.375 350.448 37.2031V36.1562H352.291V37.2031ZM344.994 47.5938V46.1562H357.901V47.5938H344.994ZM363.261 43.2344C363.268 40.4531 364.018 38.1328 365.37 36.1719H366.573C365.511 37.625 364.659 40.6094 364.651 43.2344C364.659 45.8672 365.511 48.8516 366.573 50.3125H365.37C364.018 48.3438 363.268 46.0234 363.261 43.2344ZM368.628 36.6875L371.956 46.1719H372.081L375.425 36.6875H376.909L372.769 48H371.284L367.144 36.6875H368.628ZM380.699 48.1719C378.246 48.1797 376.73 46.4297 376.73 43.8281C376.73 41.2188 378.269 39.4062 380.574 39.4062C382.355 39.4062 384.238 40.5 384.23 43.6406V44.2031H378.074C378.144 46 379.191 46.9844 380.699 46.9844C381.714 46.9844 382.355 46.5391 382.668 46.0156H384.105C383.707 47.3047 382.449 48.1797 380.699 48.1719ZM378.082 43.0625H382.871C382.863 41.6484 381.972 40.5938 380.574 40.5938C379.105 40.5938 378.175 41.75 378.082 43.0625ZM389.098 51.3594C387.043 51.3594 385.652 50.4609 385.504 48.8906H386.91C387.09 49.7578 387.894 50.1875 389.098 50.1875C390.551 50.1875 391.441 49.5547 391.441 48.1562V46.4375H391.332C391.043 46.9062 390.504 47.8672 388.863 47.875C386.801 47.8672 385.254 46.3125 385.254 43.6406C385.254 41.0312 386.746 39.4062 388.879 39.4062C390.527 39.4062 391.058 40.4062 391.363 40.8594H391.473V39.5156H392.785V48.2344C392.777 50.4219 391.168 51.3594 389.098 51.3594ZM386.613 43.6875C386.613 45.4453 387.441 46.6719 389.051 46.6719C390.605 46.6719 391.465 45.5547 391.473 43.6875C391.465 41.8672 390.629 40.6094 389.051 40.6094C387.418 40.6094 386.613 41.9766 386.613 43.6875ZM394.199 45.5938C394.199 43.6484 395.918 43.2031 397.387 43.0938C397.934 43.0547 399.301 42.9766 399.684 42.9688V42.2812C399.684 41.2031 399.043 40.5781 397.762 40.5781C396.692 40.5781 396.043 41.0703 395.856 41.7188H394.449C394.621 40.3516 395.949 39.4062 397.824 39.4062C398.934 39.4062 401.02 39.7344 401.012 42.4062V48H399.684V46.8438H399.621C399.34 47.4141 398.567 48.1953 397.09 48.2031C395.481 48.1953 394.199 47.25 394.199 45.5938ZM395.543 45.6562C395.551 46.5547 396.293 47.0078 397.324 47C398.84 47.0078 399.684 45.9922 399.684 44.9219V44.0703C399.285 44.0938 397.949 44.1953 397.543 44.2188C396.324 44.2969 395.551 44.7266 395.543 45.6562ZM407.567 41.7188C407.379 41.0156 406.84 40.5547 405.848 40.5469C404.801 40.5547 404.059 41.1172 404.051 41.8281C404.059 42.3906 404.512 42.7734 405.504 43.0156L406.77 43.3281C408.286 43.6875 409.028 44.4453 409.036 45.625C409.028 47.0938 407.833 48.1797 405.708 48.1719C403.801 48.1797 402.668 47.3281 402.442 45.7812H403.848C404.004 46.6094 404.606 47.0078 405.676 47C406.887 47.0078 407.645 46.5 407.645 45.7031C407.645 45.1016 407.215 44.7109 406.254 44.4844L404.973 44.1875C403.497 43.8438 402.708 43.0391 402.708 41.9062C402.708 40.4531 403.981 39.4062 405.848 39.4062C407.606 39.4062 408.708 40.3438 408.879 41.7188H407.567ZM415.739 36.6875V48H414.333V36.6875H415.739ZM419.091 42.9062V48H417.747V39.5156H419.044V40.8438H419.154C419.552 39.9766 420.349 39.4062 421.638 39.4062C423.357 39.4062 424.505 40.4531 424.497 42.6094V48H423.154V42.7031C423.154 41.3906 422.435 40.6094 421.232 40.6094C419.997 40.6094 419.091 41.4375 419.091 42.9062ZM429.803 48.1719C427.396 48.1797 425.928 46.3438 425.928 43.7969C425.928 41.2188 427.467 39.4062 429.771 39.4062C431.576 39.4062 432.935 40.4766 433.146 42.0781H431.803C431.607 41.3047 430.935 40.5938 429.803 40.5938C428.287 40.5938 427.279 41.8438 427.271 43.75C427.279 45.7109 428.263 46.9688 429.803 46.9688C430.803 46.9688 431.568 46.4297 431.803 45.5H433.146C432.935 47.0156 431.685 48.1797 429.803 48.1719ZM435.436 48.0938C434.889 48.0859 434.42 47.6328 434.436 47.0781C434.42 46.5312 434.889 46.0781 435.436 46.0781C435.99 46.0781 436.443 46.5312 436.436 47.0781C436.443 47.6328 435.99 48.0859 435.436 48.0938ZM441.069 43.2344C441.061 46.0156 440.311 48.3359 438.959 50.2969H437.756C438.819 48.8438 439.67 45.8594 439.678 43.2344C439.67 40.6016 438.819 37.6172 437.756 36.1562H438.959C440.311 38.125 441.061 40.4453 441.069 43.2344Z" fill="black"/>
<rect x="1590.85" y="119.443" width="86.6056" height="7.44266" transform="rotate(-180 1590.85 119.443)" fill="#C4C5C6" fill-opacity="0.6"/>
<path d="M1605.19 155.79C1602.73 155.79 1600.53 155.357 1598.58 154.491C1596.63 153.589 1595.08 152.38 1593.93 150.864C1592.81 149.349 1592.2 147.671 1592.09 145.83H1599.72C1599.86 146.985 1600.42 147.941 1601.4 148.699C1602.41 149.457 1603.65 149.836 1605.13 149.836C1606.58 149.836 1607.69 149.547 1608.49 148.97C1609.32 148.393 1609.73 147.653 1609.73 146.751C1609.73 145.776 1609.23 145.055 1608.22 144.585C1607.24 144.08 1605.67 143.539 1603.51 142.962C1601.27 142.42 1599.43 141.861 1597.99 141.284C1596.58 140.706 1595.35 139.822 1594.31 138.631C1593.3 137.44 1592.79 135.835 1592.79 133.814C1592.79 132.154 1593.26 130.638 1594.2 129.267C1595.17 127.896 1596.54 126.813 1598.31 126.019C1600.12 125.225 1602.23 124.829 1604.65 124.829C1608.22 124.829 1611.07 125.731 1613.2 127.535C1615.33 129.303 1616.5 131.703 1616.72 134.734H1609.46C1609.35 133.543 1608.85 132.605 1607.95 131.919C1607.08 131.198 1605.91 130.837 1604.43 130.837C1603.06 130.837 1601.99 131.089 1601.24 131.595C1600.51 132.1 1600.15 132.803 1600.15 133.706C1600.15 134.716 1600.66 135.492 1601.67 136.033C1602.68 136.538 1604.25 137.062 1606.38 137.603C1608.54 138.144 1610.33 138.703 1611.74 139.281C1613.14 139.858 1614.35 140.76 1615.36 141.987C1616.41 143.178 1616.95 144.766 1616.99 146.751C1616.99 148.483 1616.5 150.034 1615.53 151.406C1614.59 152.777 1613.22 153.859 1611.41 154.653C1609.64 155.411 1607.57 155.79 1605.19 155.79Z" fill="#C4C5C6"/>
<path d="M1555.08 140.201C1555.08 137.17 1555.67 134.481 1556.86 132.136C1558.09 129.79 1559.73 127.986 1561.79 126.723C1563.88 125.46 1566.21 124.829 1568.77 124.829C1571.01 124.829 1572.96 125.28 1574.62 126.182C1576.31 127.084 1577.67 128.221 1578.68 129.592V125.316H1586.31V155.303H1578.68V150.918C1577.7 152.326 1576.35 153.499 1574.62 154.437C1572.92 155.339 1570.96 155.79 1568.72 155.79C1566.19 155.79 1563.88 155.141 1561.79 153.841C1559.73 152.542 1558.09 150.72 1556.86 148.374C1555.67 145.993 1555.08 143.268 1555.08 140.201ZM1578.68 140.309C1578.68 138.469 1578.32 136.899 1577.6 135.6C1576.87 134.265 1575.9 133.255 1574.67 132.569C1573.45 131.847 1572.13 131.486 1570.72 131.486C1569.31 131.486 1568.01 131.829 1566.82 132.515C1565.63 133.2 1564.66 134.211 1563.9 135.546C1563.18 136.845 1562.82 138.397 1562.82 140.201C1562.82 142.005 1563.18 143.593 1563.9 144.964C1564.66 146.3 1565.63 147.328 1566.82 148.05C1568.05 148.771 1569.35 149.132 1570.72 149.132C1572.13 149.132 1573.45 148.789 1574.67 148.104C1575.9 147.382 1576.87 146.372 1577.6 145.073C1578.32 143.737 1578.68 142.15 1578.68 140.309Z" fill="#C4C5C6"/>
<path d="M1532.09 124.829C1534.33 124.829 1536.29 125.28 1537.99 126.182C1539.68 127.048 1541.02 128.185 1541.99 129.592V125.316H1549.63V155.519C1549.63 158.298 1549.07 160.77 1547.95 162.935C1546.83 165.136 1545.15 166.868 1542.91 168.131C1540.68 169.43 1537.97 170.08 1534.79 170.08C1530.54 170.08 1527.04 169.088 1524.29 167.103C1521.59 165.118 1520.05 162.412 1519.69 158.984H1527.22C1527.61 160.355 1528.46 161.437 1529.76 162.231C1531.1 163.061 1532.7 163.476 1534.58 163.476C1536.78 163.476 1538.57 162.809 1539.94 161.474C1541.31 160.174 1541.99 158.19 1541.99 155.519V150.864C1541.02 152.272 1539.67 153.444 1537.93 154.383C1536.24 155.321 1534.29 155.79 1532.09 155.79C1529.56 155.79 1527.25 155.141 1525.16 153.841C1523.07 152.542 1521.41 150.72 1520.18 148.374C1518.99 145.993 1518.39 143.268 1518.39 140.201C1518.39 137.17 1518.99 134.481 1520.18 132.136C1521.41 129.79 1523.05 127.986 1525.11 126.723C1527.2 125.46 1529.53 124.829 1532.09 124.829ZM1541.99 140.309C1541.99 138.469 1541.63 136.899 1540.91 135.6C1540.19 134.265 1539.21 133.255 1537.99 132.569C1536.76 131.847 1535.44 131.486 1534.04 131.486C1532.63 131.486 1531.33 131.829 1530.14 132.515C1528.95 133.2 1527.97 134.211 1527.22 135.546C1526.49 136.845 1526.13 138.397 1526.13 140.201C1526.13 142.005 1526.49 143.593 1527.22 144.964C1527.97 146.3 1528.95 147.328 1530.14 148.05C1531.37 148.771 1532.67 149.132 1534.04 149.132C1535.44 149.132 1536.76 148.789 1537.99 148.104C1539.21 147.382 1540.19 146.372 1540.91 145.073C1541.63 143.737 1541.99 142.15 1541.99 140.309Z" fill="#C4C5C6"/>
<path d="M1514.81 139.66C1514.81 140.742 1514.74 141.717 1514.59 142.583H1492.67C1492.85 144.748 1493.61 146.444 1494.95 147.671C1496.28 148.898 1497.92 149.511 1499.87 149.511C1502.69 149.511 1504.69 148.302 1505.88 145.885H1514.05C1513.19 148.771 1511.53 151.153 1509.07 153.03C1506.62 154.87 1503.61 155.79 1500.03 155.79C1497.15 155.79 1494.55 155.159 1492.24 153.896C1489.97 152.596 1488.18 150.774 1486.88 148.429C1485.62 146.083 1484.99 143.377 1484.99 140.309C1484.99 137.206 1485.62 134.481 1486.88 132.136C1488.14 129.79 1489.91 127.986 1492.19 126.723C1494.46 125.46 1497.08 124.829 1500.03 124.829C1502.88 124.829 1505.43 125.442 1507.67 126.669C1509.94 127.896 1511.69 129.646 1512.92 131.919C1514.18 134.157 1514.81 136.737 1514.81 139.66ZM1506.96 137.495C1506.93 135.546 1506.22 133.994 1504.85 132.84C1503.48 131.649 1501.8 131.053 1499.82 131.053C1497.94 131.053 1496.35 131.631 1495.05 132.785C1493.79 133.904 1493.02 135.474 1492.73 137.495H1506.96Z" fill="#C4C5C6"/>
<path d="M1466.7 148.32L1479.61 112H1487.67L1471.24 155.303H1462.04L1451 125.316H1459.12L1466.7 148.32Z" fill="#C4C5C6"/>
<rect x="1567.85" y="119.443" width="86.6056" height="7.44266" transform="rotate(-180 1567.85 119.443)" fill="#C4C5C6"/>
</svg>
