<svg width="126" height="44" viewBox="0 0 126 44" fill="none" xmlns="http://www.w3.org/2000/svg">
<rect x="105.95" y="5.63843" width="65.6103" height="5.63838" transform="rotate(-180 105.95 5.63843)" fill="#8D58FF"/>
<path d="M116.808 33.1742C114.949 33.1742 113.282 32.8461 111.806 32.19C110.329 31.5066 109.154 30.5908 108.279 29.4426C107.432 28.2944 106.967 27.0232 106.885 25.629H112.667C112.776 26.5038 113.2 27.2283 113.938 27.8024C114.703 28.3764 115.646 28.6635 116.767 28.6635C117.861 28.6635 118.708 28.4448 119.31 28.0074C119.938 27.57 120.253 27.0096 120.253 26.3261C120.253 25.588 119.87 25.0413 119.105 24.6859C118.367 24.3031 117.177 23.8931 115.537 23.4557C113.842 23.0456 112.448 22.6219 111.354 22.1845C110.288 21.7471 109.359 21.0773 108.566 20.1752C107.801 19.273 107.418 18.0565 107.418 16.5256C107.418 15.268 107.773 14.1199 108.484 13.081C109.222 12.0422 110.261 11.2221 111.601 10.6206C112.967 10.0192 114.567 9.71851 116.398 9.71851C119.105 9.71851 121.264 10.4019 122.877 11.7688C124.49 13.1084 125.379 14.9263 125.543 17.2227H120.048C119.966 16.3205 119.583 15.6098 118.9 15.0904C118.244 14.5436 117.355 14.2702 116.234 14.2702C115.195 14.2702 114.389 14.4616 113.815 14.8443C113.268 15.227 112.995 15.7601 112.995 16.4436C112.995 17.209 113.377 17.7968 114.143 18.2068C114.908 18.5896 116.098 18.986 117.71 19.396C119.351 19.8061 120.704 20.2298 121.77 20.6672C122.836 21.1046 123.752 21.7881 124.518 22.7176C125.31 23.6197 125.72 24.8226 125.748 26.3261C125.748 27.6383 125.379 28.8138 124.641 29.8527C123.93 30.8915 122.891 31.7116 121.524 32.3131C120.185 32.8872 118.613 33.1742 116.808 33.1742Z" fill="black"/>
<path d="M78.8472 21.3643C78.8472 19.068 79.2982 17.0313 80.2004 15.2544C81.1299 13.4774 82.3737 12.1105 83.932 11.1537C85.5176 10.1969 87.2808 9.71851 89.2218 9.71851C90.9167 9.71851 92.393 10.0602 93.6505 10.7437C94.9354 11.4271 95.9605 12.2882 96.726 13.3271V10.0876H102.508V32.8051H96.726V29.4836C95.9879 30.5498 94.9627 31.4383 93.6505 32.149C92.3656 32.8325 90.8757 33.1742 89.1808 33.1742C87.2672 33.1742 85.5176 32.6821 83.932 31.698C82.3737 30.7138 81.1299 29.3333 80.2004 27.5563C79.2982 25.752 78.8472 23.688 78.8472 21.3643ZM96.726 21.4464C96.726 20.0521 96.4526 18.8629 95.9059 17.8788C95.3591 16.8673 94.621 16.1018 93.6915 15.5824C92.762 15.0357 91.7642 14.7623 90.698 14.7623C89.6319 14.7623 88.6477 15.022 87.7456 15.5414C86.8434 16.0608 86.1053 16.8263 85.5312 17.8378C84.9845 18.8219 84.7111 19.9975 84.7111 21.3643C84.7111 22.7312 84.9845 23.9341 85.5312 24.9729C86.1053 25.9844 86.8434 26.7635 87.7456 27.3103C88.675 27.857 89.6592 28.1304 90.698 28.1304C91.7642 28.1304 92.762 27.8707 93.6915 27.3513C94.621 26.8045 95.3591 26.0391 95.9059 25.0549C96.4526 24.0434 96.726 22.8406 96.726 21.4464Z" fill="black"/>
<path d="M61.4303 9.71851C63.1252 9.71851 64.6151 10.0602 65.9 10.7437C67.1849 11.3998 68.1964 12.2609 68.9345 13.3271V10.0876H74.7164V32.9692C74.7164 35.0742 74.2927 36.9468 73.4452 38.5871C72.5977 40.2546 71.3265 41.5669 69.6316 42.5237C67.9367 43.5078 65.8863 43.9999 63.4806 43.9999C60.2548 43.9999 57.603 43.2481 55.5254 41.7445C53.475 40.241 52.3132 38.1907 52.0398 35.5936H57.7397C58.0404 36.6324 58.6829 37.4525 59.667 38.054C60.6785 38.6827 61.895 38.9971 63.3166 38.9971C64.9842 38.9971 66.3374 38.4914 67.3762 37.4799C68.4151 36.4957 68.9345 34.9922 68.9345 32.9692V29.4426C68.1964 30.5088 67.1712 31.3973 65.859 32.108C64.5741 32.8188 63.0979 33.1742 61.4303 33.1742C59.5167 33.1742 57.7671 32.6821 56.1815 31.698C54.5959 30.7138 53.3384 29.3333 52.4089 27.5563C51.5067 25.752 51.0557 23.688 51.0557 21.3643C51.0557 19.068 51.5067 17.0313 52.4089 15.2544C53.3384 13.4774 54.5822 12.1105 56.1405 11.1537C57.726 10.1969 59.4893 9.71851 61.4303 9.71851ZM68.9345 21.4464C68.9345 20.0521 68.6611 18.8629 68.1143 17.8788C67.5676 16.8673 66.8295 16.1018 65.9 15.5824C64.9705 15.0357 63.9727 14.7623 62.9065 14.7623C61.8404 14.7623 60.8562 15.022 59.9541 15.5414C59.0519 16.0608 58.3138 16.8263 57.7397 17.8378C57.193 18.8219 56.9196 19.9975 56.9196 21.3643C56.9196 22.7312 57.193 23.9341 57.7397 24.9729C58.3138 25.9844 59.0519 26.7635 59.9541 27.3103C60.8835 27.857 61.8677 28.1304 62.9065 28.1304C63.9727 28.1304 64.9705 27.8707 65.9 27.3513C66.8295 26.8045 67.5676 26.0391 68.1143 25.0549C68.6611 24.0434 68.9345 22.8406 68.9345 21.4464Z" fill="black"/>
<path d="M48.3416 20.9543C48.3416 21.7744 48.287 22.5125 48.1776 23.1686H31.57C31.7067 24.8089 32.2808 26.0938 33.2923 27.0232C34.3038 27.9527 35.5476 28.4175 37.0238 28.4175C39.1562 28.4175 40.6734 27.5016 41.5756 25.67H47.7675C47.1114 27.857 45.8539 29.6613 43.9949 31.0829C42.136 32.4771 39.8533 33.1742 37.1469 33.1742C34.9599 33.1742 32.9915 32.6958 31.2419 31.739C29.5197 30.7548 28.1665 29.3743 27.1823 27.5973C26.2255 25.8204 25.7471 23.7701 25.7471 21.4464C25.7471 19.0953 26.2255 17.0313 27.1823 15.2544C28.1391 13.4774 29.4787 12.1105 31.2009 11.1537C32.9232 10.1969 34.9052 9.71851 37.1469 9.71851C39.3065 9.71851 41.2338 10.1832 42.9288 11.1127C44.651 12.0422 45.9769 13.3681 46.9064 15.0904C47.8632 16.7853 48.3416 18.7399 48.3416 20.9543ZM42.3957 19.314C42.3684 17.8378 41.8353 16.6623 40.7964 15.7875C39.7576 14.8853 38.4864 14.4342 36.9828 14.4342C35.5613 14.4342 34.3584 14.8717 33.3743 15.7465C32.4175 16.5939 31.8297 17.7831 31.611 19.314H42.3957Z" fill="black"/>
<path d="M11.8919 27.5155L21.6719 0H27.7818L15.3364 32.8053H8.36532L0 10.0878H6.15097L11.8919 27.5155Z" fill="black"/>
<rect x="88.5227" y="5.63843" width="65.6103" height="5.63838" transform="rotate(-180 88.5227 5.63843)" fill="black"/>
</svg>
