<svg width="1920" height="385" viewBox="0 0 1920 385" fill="none" xmlns="http://www.w3.org/2000/svg">
<rect width="1920" height="385" fill="white"/>
<path d="M327.367 108.719L334.711 131.023H335.023L342.406 108.719H347.992L337.992 137H331.742L321.781 108.719H327.367ZM349.614 130.984C349.614 126.121 353.911 125.008 357.583 124.734C358.95 124.637 362.368 124.441 363.325 124.422V122.703C363.325 120.008 361.723 118.445 358.52 118.445C355.845 118.445 354.223 119.676 353.755 121.297H350.239C350.669 117.879 353.989 115.516 358.677 115.516C361.45 115.516 366.665 116.336 366.645 123.016V137H363.325V134.109H363.169C362.466 135.535 360.532 137.488 356.841 137.508C352.817 137.488 349.614 135.125 349.614 130.984ZM352.973 131.141C352.993 133.387 354.848 134.52 357.427 134.5C361.216 134.52 363.325 131.98 363.325 129.305V127.176C362.329 127.234 358.989 127.488 357.973 127.547C354.927 127.742 352.993 128.816 352.973 131.141ZM371.236 144.969V115.789H374.478V119.148H374.869C375.591 118.016 376.88 115.516 381.002 115.516C386.334 115.516 390.025 119.734 390.025 126.453C390.025 133.191 386.334 137.449 381.041 137.43C376.998 137.449 375.591 134.93 374.869 133.758H374.595V144.969H371.236ZM374.517 126.375C374.537 131.141 376.666 134.422 380.572 134.422C384.595 134.422 386.666 130.887 386.666 126.375C386.666 121.941 384.654 118.523 380.572 118.523C376.607 118.523 374.537 121.668 374.517 126.375ZM402.272 137.43C396.491 137.449 392.584 133.074 392.584 126.492C392.584 119.871 396.491 115.516 402.272 115.516C408.034 115.516 411.901 119.871 411.881 126.492C411.901 133.074 408.034 137.449 402.272 137.43ZM395.944 126.492C395.963 130.73 397.955 134.461 402.272 134.461C406.549 134.461 408.522 130.73 408.522 126.492C408.522 122.273 406.549 118.484 402.272 118.484C397.955 118.484 395.963 122.273 395.944 126.492ZM415.495 137V115.789H418.738V119.031H418.972C419.734 116.883 421.941 115.457 424.441 115.438C424.948 115.457 425.808 115.477 426.198 115.516V118.914C425.945 118.855 425.046 118.68 424.167 118.68C421.12 118.68 418.855 120.789 418.855 123.641V137H415.495ZM428.68 137V115.789H432.039V137H428.68ZM428.016 110.047C427.996 108.797 429.07 107.801 430.359 107.82C431.648 107.801 432.723 108.797 432.742 110.047C432.723 111.277 431.648 112.273 430.359 112.273C429.07 112.273 427.996 111.277 428.016 110.047ZM435.966 137V134.461L447.919 119.109V118.875H436.356V115.789H452.255V118.445L440.653 133.68V133.914H452.645V137H435.966ZM464.58 137.43C458.447 137.449 454.658 133.074 454.658 126.57C454.658 120.047 458.505 115.516 464.267 115.516C468.72 115.516 473.427 118.25 473.408 126.102V127.508H458.017C458.193 132 460.81 134.461 464.58 134.461C467.119 134.461 468.72 133.348 469.502 132.039H473.095C472.099 135.262 468.955 137.449 464.58 137.43ZM458.037 124.656H470.009C469.99 121.121 467.763 118.484 464.267 118.484C460.595 118.484 458.271 121.375 458.037 124.656ZM484.991 137.43C479.698 137.449 475.967 133.191 475.967 126.453C475.967 119.734 479.698 115.516 485.03 115.516C489.151 115.516 490.44 118.016 491.163 119.148H491.397V108.719H494.795V137H491.514V133.758H491.163C490.42 134.93 489.034 137.449 484.991 137.43ZM479.366 126.375C479.366 130.887 481.436 134.422 485.459 134.422C489.346 134.422 491.495 131.141 491.514 126.375C491.495 121.668 489.405 118.523 485.459 118.523C481.377 118.523 479.366 121.941 479.366 126.375ZM508.977 137V108.719H514.055V120.711H527.219V108.719H532.336V137H527.219V124.969H514.055V137H508.977ZM538.997 144.969C538.274 144.949 537.552 144.93 537.122 144.891V141.883C537.473 141.922 538.235 141.941 538.762 141.961C540.13 141.941 541.282 141.863 542.395 138.758L543.02 137.156L535.169 115.789H538.841L544.622 132.625H544.856L550.637 115.789H554.309L545.325 140.047C544.075 143.387 542.005 144.949 538.997 144.969ZM564.447 137.43C559.154 137.449 555.423 133.191 555.423 126.453C555.423 119.734 559.154 115.516 564.486 115.516C568.607 115.516 569.896 118.016 570.619 119.148H570.853V108.719H574.252V137H570.97V133.758H570.619C569.877 134.93 568.49 137.449 564.447 137.43ZM558.822 126.375C558.822 130.887 560.892 134.422 564.916 134.422C568.802 134.422 570.951 131.141 570.97 126.375C570.951 121.668 568.861 118.523 564.916 118.523C560.834 118.523 558.822 121.941 558.822 126.375ZM579.272 137V115.789H582.514V119.031H582.748C583.51 116.883 585.717 115.457 588.217 115.438C588.725 115.457 589.584 115.477 589.975 115.516V118.914C589.721 118.855 588.823 118.68 587.944 118.68C584.897 118.68 582.631 120.789 582.631 123.641V137H579.272ZM600.425 137.43C594.644 137.449 590.737 133.074 590.737 126.492C590.737 119.871 594.644 115.516 600.425 115.516C606.187 115.516 610.054 119.871 610.034 126.492C610.054 133.074 606.187 137.449 600.425 137.43ZM594.097 126.492C594.116 130.73 596.109 134.461 600.425 134.461C604.702 134.461 606.675 130.73 606.675 126.492C606.675 122.273 604.702 118.484 600.425 118.484C596.109 118.484 594.116 122.273 594.097 126.492ZM622.242 145.398C617.105 145.398 613.629 143.152 613.258 139.227H616.773C617.223 141.395 619.234 142.469 622.242 142.469C625.875 142.469 628.102 140.887 628.102 137.391V133.094H627.828C627.105 134.266 625.758 136.668 621.656 136.688C616.5 136.668 612.633 132.781 612.633 126.102C612.633 119.578 616.363 115.516 621.695 115.516C625.816 115.516 627.145 118.016 627.906 119.148H628.18V115.789H631.461V137.586C631.441 143.055 627.418 145.398 622.242 145.398ZM616.031 126.219C616.031 130.613 618.102 133.68 622.125 133.68C626.012 133.68 628.16 130.887 628.18 126.219C628.16 121.668 626.07 118.523 622.125 118.523C618.043 118.523 616.031 121.941 616.031 126.219ZM644.919 137.43C638.786 137.449 634.997 133.074 634.997 126.57C634.997 120.047 638.845 115.516 644.606 115.516C649.059 115.516 653.766 118.25 653.747 126.102V127.508H638.356C638.532 132 641.149 134.461 644.919 134.461C647.458 134.461 649.059 133.348 649.841 132.039H653.434C652.438 135.262 649.294 137.449 644.919 137.43ZM638.376 124.656H650.348C650.329 121.121 648.102 118.484 644.606 118.484C640.934 118.484 638.61 121.375 638.376 124.656ZM660.681 124.266V137H657.322V115.789H660.564V119.109H660.837C661.834 116.941 663.826 115.516 667.048 115.516C671.345 115.516 674.216 118.133 674.197 123.523V137H670.837V123.758C670.837 120.477 669.041 118.523 666.033 118.523C662.947 118.523 660.681 120.594 660.681 124.266ZM687.948 137V108.719H698.573C705.058 108.719 708.515 112.664 708.534 118.094C708.515 123.504 705.019 127.43 698.495 127.43H693.027V137H687.948ZM693.027 123.25H697.792C701.62 123.23 703.339 121.082 703.339 118.094C703.339 115.066 701.62 112.977 697.792 112.977H693.027V123.25ZM720.82 137.43C714.688 137.449 710.898 133.074 710.898 126.57C710.898 120.047 714.746 115.516 720.508 115.516C724.961 115.516 729.668 118.25 729.648 126.102V127.508H714.258C714.434 132 717.051 134.461 720.82 134.461C723.359 134.461 724.961 133.348 725.742 132.039H729.336C728.34 135.262 725.195 137.449 720.82 137.43ZM714.277 124.656H726.25C726.23 121.121 724.004 118.484 720.508 118.484C716.836 118.484 714.512 121.375 714.277 124.656ZM733.223 137V115.789H736.466V119.031H736.7C737.462 116.883 739.669 115.457 742.169 115.438C742.677 115.457 743.536 115.477 743.927 115.516V118.914C743.673 118.855 742.774 118.68 741.895 118.68C738.848 118.68 736.583 120.789 736.583 123.641V137H733.223ZM754.377 137.43C748.595 137.449 744.689 133.074 744.689 126.492C744.689 119.871 748.595 115.516 754.377 115.516C760.138 115.516 764.005 119.871 763.986 126.492C764.005 133.074 760.138 137.449 754.377 137.43ZM748.048 126.492C748.068 130.73 750.06 134.461 754.377 134.461C758.654 134.461 760.627 130.73 760.627 126.492C760.627 122.273 758.654 118.484 754.377 118.484C750.06 118.484 748.068 122.273 748.048 126.492ZM769.241 115.789L774.241 124.422L779.28 115.789H783.147L776.311 126.375L783.147 137H779.319L774.241 128.797L769.241 137H765.373L772.053 126.375L765.373 115.789H769.241ZM786.409 137V115.789H789.769V137H786.409ZM785.745 110.047C785.726 108.797 786.8 107.801 788.089 107.82C789.378 107.801 790.452 108.797 790.472 110.047C790.452 111.277 789.378 112.273 788.089 112.273C786.8 112.273 785.726 111.277 785.745 110.047ZM802.328 137.43C797.035 137.449 793.305 133.191 793.305 126.453C793.305 119.734 797.035 115.516 802.367 115.516C806.488 115.516 807.777 118.016 808.5 119.148H808.734V108.719H812.133V137H808.852V133.758H808.5C807.758 134.93 806.371 137.449 802.328 137.43ZM796.703 126.375C796.703 130.887 798.773 134.422 802.797 134.422C806.684 134.422 808.832 131.141 808.852 126.375C808.832 121.668 806.742 118.523 802.797 118.523C798.715 118.523 796.703 121.941 796.703 126.375ZM826.059 137.43C819.927 137.449 816.138 133.074 816.138 126.57C816.138 120.047 819.985 115.516 825.747 115.516C830.2 115.516 834.907 118.25 834.888 126.102V127.508H819.497C819.673 132 822.29 134.461 826.059 134.461C828.598 134.461 830.2 133.348 830.981 132.039H834.575C833.579 135.262 830.434 137.449 826.059 137.43ZM819.516 124.656H831.489C831.47 121.121 829.243 118.484 825.747 118.484C822.075 118.484 819.751 121.375 819.516 124.656ZM848.131 137V108.719H857.741C864.362 108.719 867.389 112.664 867.389 117.703C867.389 122.723 864.362 126.727 857.78 126.727H851.647V137H848.131ZM851.647 123.602H857.623C862.135 123.602 863.893 121.062 863.912 117.703C863.893 114.324 862.135 111.844 857.584 111.844H851.647V123.602ZM871.081 137V115.789H874.323V119.031H874.558C875.32 116.883 877.527 115.457 880.027 115.438C880.534 115.457 881.394 115.477 881.784 115.516V118.914C881.53 118.855 880.632 118.68 879.753 118.68C876.706 118.68 874.441 120.789 874.441 123.641V137H871.081ZM892.234 137.43C886.453 137.449 882.547 133.074 882.547 126.492C882.547 119.871 886.453 115.516 892.234 115.516C897.996 115.516 901.863 119.871 901.844 126.492C901.863 133.074 897.996 137.449 892.234 137.43ZM885.906 126.492C885.926 130.73 887.918 134.461 892.234 134.461C896.512 134.461 898.484 130.73 898.484 126.492C898.484 122.273 896.512 118.484 892.234 118.484C887.918 118.484 885.926 122.273 885.906 126.492ZM914.13 137.43C908.114 137.449 904.442 132.859 904.442 126.492C904.442 120.047 908.29 115.516 914.052 115.516C918.563 115.516 921.962 118.191 922.489 122.195H919.13C918.641 120.262 916.962 118.484 914.13 118.484C910.341 118.484 907.821 121.609 907.802 126.375C907.821 131.277 910.282 134.422 914.13 134.422C916.63 134.422 918.544 133.074 919.13 130.75H922.489C921.962 134.539 918.837 137.449 914.13 137.43ZM934.736 137.43C928.603 137.449 924.814 133.074 924.814 126.57C924.814 120.047 928.662 115.516 934.423 115.516C938.877 115.516 943.584 118.25 943.564 126.102V127.508H928.173C928.349 132 930.966 134.461 934.736 134.461C937.275 134.461 938.877 133.348 939.658 132.039H943.252C942.255 135.262 939.111 137.449 934.736 137.43ZM928.193 124.656H940.166C940.146 121.121 937.92 118.484 934.423 118.484C930.752 118.484 928.427 121.375 928.193 124.656ZM958.936 121.297C958.467 119.539 957.12 118.387 954.639 118.367C952.022 118.387 950.166 119.793 950.147 121.57C950.166 122.977 951.299 123.934 953.78 124.539L956.944 125.32C960.733 126.219 962.588 128.113 962.608 131.062C962.588 134.734 959.6 137.449 954.287 137.43C949.522 137.449 946.69 135.32 946.123 131.453H949.639C950.03 133.523 951.534 134.52 954.209 134.5C957.237 134.52 959.131 133.25 959.131 131.258C959.131 129.754 958.057 128.777 955.655 128.211L952.452 127.469C948.76 126.609 946.787 124.598 946.787 121.766C946.787 118.133 949.971 115.516 954.639 115.516C959.034 115.516 961.787 117.859 962.217 121.297H958.936ZM977.98 121.297C977.511 119.539 976.163 118.387 973.683 118.367C971.066 118.387 969.21 119.793 969.191 121.57C969.21 122.977 970.343 123.934 972.823 124.539L975.987 125.32C979.777 126.219 981.632 128.113 981.652 131.062C981.632 134.734 978.644 137.449 973.331 137.43C968.566 137.449 965.734 135.32 965.167 131.453H968.683C969.073 133.523 970.577 134.52 973.253 134.5C976.28 134.52 978.175 133.25 978.175 131.258C978.175 129.754 977.101 128.777 974.698 128.211L971.495 127.469C967.804 126.609 965.831 124.598 965.831 121.766C965.831 118.133 969.015 115.516 973.683 115.516C978.077 115.516 980.831 117.859 981.261 121.297H977.98Z" fill="#1E1E1E"/>
<path d="M333.398 197.383V198.461C333.387 200.113 333.387 202.867 332.789 206.734L330.938 206.57C331.512 203.078 331.559 200.547 331.547 198.883H322.805V197.383H333.398ZM321.633 209.781C323.004 209.77 324.527 209.758 326.133 209.723V203.336H327.938V209.664C330.246 209.582 332.613 209.43 334.781 209.172L334.875 210.555C330.492 211.234 325.594 211.328 321.867 211.305L321.633 209.781ZM336.094 215.898V195.062H337.922V203.781H341.297V205.375H337.922V215.898H336.094ZM349.114 199C349.102 201.871 351.27 204.52 354.34 205.586L353.403 207.062C351.036 206.195 349.196 204.438 348.27 202.234C347.391 204.719 345.504 206.629 343.043 207.578L342.036 206.102C345.211 204.988 347.297 202.164 347.309 198.93V196.352H349.114V199ZM345.387 215.453V208.984H347.262V213.906H359.356V215.453H345.387ZM356.567 210.461V195.062H358.395V201.461H361.536V203.031H358.395V210.461H356.567ZM378.54 195.062V203.945H381.868V205.492H378.54V215.898H376.688V195.062H378.54ZM362.11 210.344C363.81 210.344 365.79 210.332 367.853 210.273V207.977C365.427 207.695 363.845 206.266 363.868 204.203C363.845 201.848 365.837 200.324 368.79 200.336C371.696 200.324 373.724 201.848 373.735 204.203C373.724 206.277 372.118 207.695 369.704 207.977V210.203C371.638 210.109 373.606 209.945 375.423 209.688L375.54 211.094C370.993 211.867 366.071 211.914 362.415 211.914L362.11 210.344ZM362.485 199.117V197.617H367.853V195.109H369.704V197.617H375.048V199.117H362.485ZM365.579 204.203C365.591 205.645 366.856 206.594 368.79 206.57C370.688 206.594 371.966 205.645 371.978 204.203C371.966 202.75 370.688 201.766 368.79 201.766C366.856 201.766 365.591 202.75 365.579 204.203ZM393.083 197.008C393.095 199.949 396.915 202.48 400.677 203.008L399.927 204.508C396.693 203.969 393.482 202.176 392.146 199.621C390.81 202.199 387.611 203.969 384.365 204.508L383.615 203.008C387.376 202.48 391.185 199.996 391.185 197.008V195.812H393.083V197.008ZM382.63 208.352V206.805H401.615V208.352H392.99V215.898H391.185V208.352H382.63ZM421.971 211.656V213.18H402.893V211.656H411.424V206.547H413.228V211.656H421.971ZM403.643 205.258C407.287 204.637 411.342 201.59 411.353 198.086V196.492H413.275V198.086C413.287 201.566 417.4 204.637 421.033 205.258L420.213 206.781C417.037 206.125 413.685 203.98 412.338 200.98C410.967 203.969 407.65 206.125 404.463 206.781L403.643 205.258ZM442.139 204.977V206.5H423.155V204.977H442.139ZM424.233 202.258C427.866 201.836 431.37 200.043 431.452 197.664H424.889V196.141H440.452V197.664H433.842C433.924 200.02 437.393 201.836 441.084 202.258L440.405 203.734C436.995 203.301 433.795 201.766 432.647 199.457C431.498 201.766 428.323 203.301 424.889 203.734L424.233 202.258ZM425.452 212.102C425.44 209.711 428.147 208.328 432.647 208.328C437.112 208.328 439.795 209.711 439.819 212.102C439.795 214.516 437.112 215.852 432.647 215.852C428.147 215.852 425.44 214.516 425.452 212.102ZM427.327 212.102C427.303 213.555 429.307 214.387 432.647 214.375C435.952 214.387 437.955 213.555 437.967 212.102C437.955 210.637 435.952 209.805 432.647 209.781C429.307 209.805 427.303 210.637 427.327 212.102ZM460.643 195.062V215.898H458.792V195.062H460.643ZM443.675 210.484C449.311 207.812 452.194 203.816 452.604 198.836H444.636V197.336H454.479C454.456 203.324 451.667 208.633 444.683 211.984L443.675 210.484ZM482.734 204.742V206.195H463.656V204.742H482.734ZM465.952 209.242V207.859H480.343V212.289H467.827V214.281H481.023V215.617H465.976V211.023H478.515V209.242H465.952ZM466.07 197.031V195.695H480.273V200.008H467.968V201.836H480.648V203.172H466.14V198.742H478.421V197.031H466.07ZM496.469 200.664C496.469 204.332 498.895 208.117 501.86 209.57L500.735 211.047C498.438 209.852 496.516 207.379 495.59 204.484C494.664 207.555 492.696 210.191 490.352 211.445L489.18 209.969C492.227 208.469 494.641 204.473 494.664 200.664V196.867H496.469V200.664ZM503.782 215.898V195.062H505.61V203.523H509.102V205.117H505.61V215.898H503.782ZM528.731 205.375V206.898H509.747V205.375H514.458V202.434C512.794 201.789 511.856 200.734 511.856 199.328C511.856 196.879 514.669 195.473 519.239 195.461C523.774 195.473 526.587 196.879 526.598 199.328C526.587 200.723 525.661 201.777 524.02 202.434V205.375H528.731ZM512.044 212.172C512.032 209.793 514.716 208.48 519.239 208.492C523.704 208.48 526.387 209.793 526.411 212.172C526.387 214.551 523.704 215.852 519.239 215.852C514.716 215.852 512.032 214.551 512.044 212.172ZM513.755 199.328C513.743 200.852 515.829 201.73 519.239 201.742C522.614 201.73 524.712 200.852 524.723 199.328C524.712 197.828 522.614 196.914 519.239 196.914C515.829 196.914 513.743 197.828 513.755 199.328ZM513.919 212.172C513.895 213.59 515.899 214.434 519.239 214.422C522.544 214.434 524.548 213.59 524.559 212.172C524.548 210.754 522.544 209.922 519.239 209.898C515.899 209.922 513.895 210.754 513.919 212.172ZM516.286 205.375H522.192V202.926C521.313 203.09 520.329 203.172 519.239 203.172C518.149 203.172 517.165 203.09 516.286 202.938V205.375ZM546.298 195.086V201.953H549.439V203.5H546.298V210.695H544.47V195.086H546.298ZM530.056 199.141V197.641H535.353V195.086H537.181V197.641H542.478V199.141H530.056ZM531.251 204.18C531.24 201.812 533.255 200.289 536.267 200.289C539.243 200.289 541.259 201.812 541.283 204.18C541.259 206.523 539.243 208.035 536.267 208.023C533.255 208.035 531.24 206.523 531.251 204.18ZM533.009 204.18C532.997 205.645 534.298 206.594 536.267 206.57C538.212 206.594 539.525 205.645 539.548 204.18C539.525 202.691 538.212 201.73 536.267 201.742C534.298 201.73 532.997 202.691 533.009 204.18ZM533.267 215.453V209.453H535.072V213.906H547.259V215.453H533.267ZM572.385 196.211V197.781C572.385 199.457 572.385 201.414 571.893 204.016H574.893V205.539H569.549V210.578H567.768V205.539H563.947V210.578H562.143V205.539H555.815V204.016H570.065C570.569 201.379 570.569 199.457 570.557 197.781V197.711H558.229V196.211H572.385ZM558.158 215.453V208.938H559.987V213.906H572.947V215.453H558.158ZM599.433 195.062V215.898H597.675V195.062H599.433ZM581.362 210.344C584.269 208.609 585.968 204.801 585.956 201.016V199.047H581.948V197.523H591.558V199.047H587.737V201.016C587.737 204.613 589.366 208.211 592.237 209.875L591.112 211.234C589.062 210.004 587.609 207.754 586.882 205.105C586.132 207.977 584.62 210.426 582.534 211.727L581.362 210.344ZM589.964 204.086V202.586H593.48V195.578H595.214V214.82H593.48V204.086H589.964ZM619.133 195.062V215.898H617.304V204.977H612.336V203.453H617.304V195.062H619.133ZM601.906 210.461C607.543 207.73 610.156 203.711 610.531 198.836H602.82V197.336H612.383C612.371 203.242 609.875 208.48 602.914 211.938L601.906 210.461ZM639.243 197.383V198.461C639.231 200.113 639.231 202.867 638.633 206.734L636.782 206.57C637.356 203.078 637.403 200.547 637.391 198.883H628.649V197.383H639.243ZM627.477 209.781C628.848 209.77 630.372 209.758 631.977 209.723V203.336H633.782V209.664C636.09 209.582 638.458 209.43 640.626 209.172L640.719 210.555C636.337 211.234 631.438 211.328 627.712 211.305L627.477 209.781ZM641.938 215.898V195.062H643.766V203.781H647.141V205.375H643.766V215.898H641.938ZM665.224 195.062V207.484H663.372V202.023H659.177V200.5H663.372V195.062H665.224ZM648.044 205.82C651.138 204.707 653.341 201.883 653.341 198.906V198.133H648.63V196.586H659.857V198.133H655.193V198.883C655.193 201.602 657.278 204.191 660.325 205.234L659.364 206.711C657.032 205.867 655.216 204.109 654.314 201.965C653.423 204.402 651.489 206.348 649.005 207.297L648.044 205.82ZM651.325 212.008C651.314 209.559 653.974 208.129 658.31 208.141C662.634 208.129 665.294 209.559 665.294 212.008C665.294 214.469 662.634 215.875 658.31 215.898C653.974 215.875 651.314 214.469 651.325 212.008ZM653.153 212.008C653.142 213.52 655.11 214.434 658.31 214.422C661.497 214.434 663.466 213.52 663.466 212.008C663.466 210.484 661.497 209.57 658.31 209.57C655.11 209.57 653.142 210.484 653.153 212.008ZM687.197 206.055V207.555H668.212V206.055H687.197ZM670.322 199.938C670.322 197.324 673.181 195.789 677.705 195.812C682.181 195.789 685.052 197.324 685.064 199.938C685.052 202.527 682.181 204.086 677.705 204.086C673.181 204.086 670.322 202.527 670.322 199.938ZM670.673 215.453V209.383H672.525V213.906H685.087V215.453H670.673ZM672.22 199.938C672.209 201.59 674.341 202.586 677.705 202.586C681.045 202.586 683.177 201.59 683.189 199.938C683.177 198.309 681.045 197.289 677.705 197.289C674.341 197.289 672.209 198.309 672.22 199.938ZM699.596 196.68C702.667 196.691 704.846 199.516 704.87 203.945C704.846 208.387 702.667 211.199 699.596 211.188C696.503 211.199 694.335 208.387 694.346 203.945C694.335 199.516 696.503 196.691 699.596 196.68ZM696.081 203.945C696.092 207.332 697.534 209.559 699.596 209.547C701.682 209.559 703.088 207.332 703.088 203.945C703.088 200.559 701.682 198.332 699.596 198.32C697.534 198.332 696.092 200.559 696.081 203.945ZM708.315 215.898V195.062H710.143V203.383H713.635V204.977H710.143V215.898H708.315ZM731.46 195.062V215.945H729.608V195.062H731.46ZM715.054 203.945C715.065 199.516 717.269 196.691 720.374 196.68C723.468 196.691 725.706 199.516 725.694 203.945C725.706 208.387 723.468 211.199 720.374 211.188C717.269 211.199 715.065 208.387 715.054 203.945ZM716.835 203.945C716.835 207.332 718.288 209.559 720.374 209.547C722.472 209.559 723.913 207.332 723.913 203.945C723.913 200.559 722.472 198.332 720.374 198.32C718.288 198.332 716.835 200.559 716.835 203.945ZM744.925 201.438V204.18H753.527V205.68H734.543V204.18H743.121V201.438H744.925ZM735.597 201.133C739.406 200.711 743.097 198.719 743.097 196.023V195.227H744.949V196.023C744.949 198.719 748.652 200.711 752.449 201.133L751.793 202.539C748.511 202.094 745.335 200.676 744.023 198.391C742.71 200.676 739.523 202.094 736.253 202.539L735.597 201.133ZM736.839 208.844V207.414H751.089V212.148H738.714V214.211H751.722V215.664H736.886V210.766H749.285V208.844H736.839ZM762.938 197.383V204.578H757.289V209.219C759.691 209.195 761.965 209.125 764.742 208.633L764.883 210.156C761.918 210.684 759.527 210.754 756.891 210.766H755.508V203.055H761.18V198.906H755.461V197.383H762.938ZM763.945 204.086V202.586H766.617V195.578H768.352V214.797H766.617V204.086H763.945ZM770.859 215.898V195.062H772.617V215.898H770.859ZM792.247 195.062V215.945H790.395V195.062H792.247ZM775.84 203.945C775.852 199.516 778.055 196.691 781.161 196.68C784.254 196.691 786.493 199.516 786.481 203.945C786.493 208.387 784.254 211.199 781.161 211.188C778.055 211.199 775.852 208.387 775.84 203.945ZM777.622 203.945C777.622 207.332 779.075 209.559 781.161 209.547C783.258 209.559 784.7 207.332 784.7 203.945C784.7 200.559 783.258 198.332 781.161 198.32C779.075 198.332 777.622 200.559 777.622 203.945ZM812.603 195.062V215.945H810.774V204.461H806.368V202.938H810.774V195.062H812.603ZM796.29 210.906V196.984H806.017V198.508H798.142V202.844H805.103V204.344H798.142V209.383C801.962 209.371 804.423 209.266 807.282 208.75L807.493 210.273C804.458 210.766 801.915 210.906 797.884 210.906H796.29ZM838.924 195.062V215.898H837.119V205.117H834.119V214.82H832.385V195.531H834.119V203.547H837.119V195.062H838.924ZM822.189 210.508V197.617H824.017V208.867C826.08 208.855 828.307 208.703 830.838 208.188L831.072 209.828C828.166 210.355 825.775 210.508 823.478 210.508H822.189ZM860.452 207.438V208.938H851.756V215.898H849.952V208.938H841.373V207.438H860.452ZM843.811 204.906V195.93H845.639V198.812H856.139V195.93H857.991V204.906H843.811ZM845.639 203.406H856.139V200.312H845.639V203.406ZM868.479 196.586C871.749 196.598 874.069 198.59 874.081 201.484C874.069 204.391 871.749 206.371 868.479 206.383C865.186 206.371 862.843 204.391 862.854 201.484C862.843 198.59 865.186 196.598 868.479 196.586ZM861.776 209.781C865.62 209.793 870.929 209.758 875.534 209.078L875.675 210.438C870.905 211.328 865.784 211.352 862.034 211.352L861.776 209.781ZM864.659 201.484C864.647 203.43 866.253 204.766 868.479 204.766C870.682 204.766 872.288 203.43 872.276 201.484C872.288 199.551 870.682 198.203 868.479 198.203C866.253 198.203 864.647 199.551 864.659 201.484ZM876.917 215.945V195.062H878.745V215.945H876.917ZM898.316 197.125V210.672H888.683V197.125H898.316ZM890.488 209.172H896.512V198.602H890.488V209.172ZM902.793 215.945V195.062H904.644V215.945H902.793ZM913.938 199.211C913.95 201.52 915.555 203.852 918.227 204.859L917.266 206.266C915.262 205.492 913.821 204.004 913.071 202.211C912.309 204.191 910.809 205.961 908.758 206.852L907.75 205.422C910.492 204.227 912.168 201.531 912.18 199.211V196.375H913.938V199.211ZM911.547 212.148C911.524 209.793 914.196 208.41 918.532 208.422C922.844 208.41 925.528 209.793 925.539 212.148C925.528 214.48 922.844 215.852 918.532 215.852C914.196 215.852 911.524 214.48 911.547 212.148ZM913.375 212.148C913.352 213.566 915.332 214.434 918.532 214.422C921.696 214.434 923.688 213.566 923.711 212.148C923.688 210.707 921.696 209.84 918.532 209.828C915.332 209.84 913.352 210.707 913.375 212.148ZM919.164 207.297V195.484H920.899V200.688H923.664V195.086H925.422V207.953H923.664V202.211H920.899V207.297H919.164ZM946.973 203.875V205.375H938.372V207.438H944.536V212.102H932.161V214.211H945.169V215.664H930.333V210.719H942.731V208.867H930.286V207.438H936.544V205.375H927.989V203.875H946.973ZM930.45 202.117V195.766H944.513V202.117H930.45ZM932.278 200.641H942.684V197.242H932.278V200.641ZM964.67 196.422V204.906H954.896V196.422H964.67ZM956.396 214.398C959.982 214 963.427 211.973 963.427 209.898H957.263V208.469H963.451V206.43H965.279V208.469H971.513V209.898H965.326C965.314 211.926 968.666 213.953 972.24 214.398L971.607 215.828C968.478 215.395 965.619 213.918 964.377 211.996C963.123 213.965 960.193 215.395 957.052 215.828L956.396 214.398ZM956.701 203.453H962.865V197.922H956.701V203.453ZM969.17 207.039V195.062H970.974V207.039H969.17ZM996.171 196.211V197.781C996.171 199.457 996.171 201.414 995.678 204.016H998.678V205.539H993.335V210.578H991.553V205.539H987.733V210.578H985.928V205.539H979.6V204.016H993.85C994.354 201.379 994.354 199.457 994.343 197.781V197.711H982.014V196.211H996.171ZM981.944 215.453V208.938H983.772V213.906H996.733V215.453H981.944ZM1009.35 195.438C1013.98 195.438 1016.7 196.715 1016.71 199.023C1016.7 201.391 1013.98 202.668 1009.35 202.68C1004.7 202.668 1001.97 201.391 1001.97 199.023C1001.97 196.715 1004.7 195.438 1009.35 195.438ZM999.862 205.586V204.086H1018.85V205.586H999.862ZM1002.16 208.797V207.391H1016.41V212.055H1004.03V214.211H1017.04V215.664H1002.21V210.695H1014.6V208.797H1002.16ZM1003.89 199.023C1003.87 200.477 1005.9 201.273 1009.35 201.273C1012.81 201.273 1014.83 200.477 1014.84 199.023C1014.83 197.652 1012.81 196.832 1009.35 196.82C1005.9 196.832 1003.87 197.652 1003.89 199.023ZM1043.48 195.062V215.898H1041.72V195.062H1043.48ZM1025.41 210.344C1028.32 208.609 1030.02 204.801 1030 201.016V199.047H1026V197.523H1035.61V199.047H1031.79V201.016C1031.79 204.613 1033.41 208.211 1036.29 209.875L1035.16 211.234C1033.11 210.004 1031.66 207.754 1030.93 205.105C1030.18 207.977 1028.67 210.426 1026.58 211.727L1025.41 210.344ZM1034.01 204.086V202.586H1037.53V195.578H1039.26V214.82H1037.53V204.086H1034.01ZM1063.18 195.062V215.898H1061.35V204.977H1056.38V203.453H1061.35V195.062H1063.18ZM1045.95 210.461C1051.59 207.73 1054.2 203.711 1054.58 198.836H1046.87V197.336H1056.43C1056.42 203.242 1053.92 208.48 1046.96 211.938L1045.95 210.461ZM1082.48 195.062V200.406H1085.62V201.977H1082.48V207.18H1080.65V195.062H1082.48ZM1066.24 198.742V197.219H1071.54V194.875H1073.36V197.219H1078.66V198.742H1066.24ZM1067.43 203.359C1067.42 201.133 1069.43 199.715 1072.45 199.703C1075.44 199.715 1077.44 201.133 1077.47 203.359C1077.44 205.586 1075.44 207.027 1072.45 207.016C1069.43 207.027 1067.42 205.586 1067.43 203.359ZM1069.19 203.359C1069.18 204.719 1070.48 205.609 1072.45 205.609C1074.4 205.609 1075.71 204.719 1075.73 203.359C1075.71 202.012 1074.4 201.109 1072.45 201.133C1070.48 201.109 1069.18 202.012 1069.19 203.359ZM1069.31 215.617V208.094H1071.14V210.32H1080.65V208.094H1082.48V215.617H1069.31ZM1071.14 214.141H1080.65V211.773H1071.14V214.141ZM1103.63 195.062V215.898H1101.81V195.062H1103.63ZM1087.81 210.531V197.125H1089.62V208.938C1092.81 208.914 1096.09 208.668 1099.58 207.93L1099.84 209.5C1096.13 210.273 1092.84 210.531 1089.5 210.531H1087.81ZM1122.84 195.062V203.312H1126.33V204.859H1122.84V215.945H1121.01V195.062H1122.84ZM1107.63 210.719V197.102H1117.36V198.625H1109.46V209.172C1113.23 209.16 1115.89 208.996 1119 208.422L1119.23 210.016C1115.96 210.602 1113.23 210.719 1109.27 210.719H1107.63ZM1129.18 214.141C1128.36 214.129 1127.66 213.449 1127.68 212.617C1127.66 211.797 1128.36 211.117 1129.18 211.117C1130.01 211.117 1130.69 211.797 1130.68 212.617C1130.69 213.449 1130.01 214.129 1129.18 214.141Z" fill="#1E1E1E"/>
<path d="M338.414 260.211V261.781C338.414 263.457 338.414 265.414 337.922 268.016H340.922V269.539H335.578V274.578H333.797V269.539H329.977V274.578H328.172V269.539H321.844V268.016H336.094C336.598 265.379 336.598 263.457 336.586 261.781V261.711H324.258V260.211H338.414ZM324.188 279.453V272.938H326.016V277.906H338.977V279.453H324.188ZM348.926 260.586C352.196 260.598 354.516 262.59 354.528 265.484C354.516 268.391 352.196 270.371 348.926 270.383C345.633 270.371 343.29 268.391 343.301 265.484C343.29 262.59 345.633 260.598 348.926 260.586ZM342.223 273.781C346.067 273.793 351.375 273.758 355.981 273.078L356.122 274.438C351.352 275.328 346.231 275.352 342.481 275.352L342.223 273.781ZM345.106 265.484C345.094 267.43 346.7 268.766 348.926 268.766C351.129 268.766 352.735 267.43 352.723 265.484C352.735 263.551 351.129 262.203 348.926 262.203C346.7 262.203 345.094 263.551 345.106 265.484ZM357.364 279.945V259.062H359.192V279.945H357.364ZM385.724 259.062V279.898H383.966V259.062H385.724ZM367.654 274.344C370.56 272.609 372.259 268.801 372.248 265.016V263.047H368.24V261.523H377.849V263.047H374.029V265.016C374.029 268.613 375.658 272.211 378.529 273.875L377.404 275.234C375.353 274.004 373.9 271.754 373.173 269.105C372.423 271.977 370.912 274.426 368.826 275.727L367.654 274.344ZM376.255 268.086V266.586H379.771V259.578H381.505V278.82H379.771V268.086H376.255ZM405.424 259.062V279.898H403.596V268.977H398.627V267.453H403.596V259.062H405.424ZM388.197 274.461C393.834 271.73 396.447 267.711 396.822 262.836H389.111V261.336H398.674C398.662 267.242 396.166 272.48 389.205 275.938L388.197 274.461ZM425.287 265.391V266.867H411.014V259.836H412.842V265.391H425.287ZM408.412 271.203V269.703H427.491V271.203H408.412ZM410.897 279.383V273.336H412.725V277.859H425.405V279.383H410.897ZM452.054 259.062V279.898H450.296V268.977H447.226V278.82H445.538V259.531H447.226V267.453H450.296V259.062H452.054ZM435.015 274.742V261.617H442.82V263.141H436.843V273.172C439.714 273.16 441.695 273.055 444.015 272.586L444.179 274.133C441.671 274.648 439.55 274.73 436.351 274.742H435.015ZM472.293 259.062V279.898H470.488V269H467.605V278.867H465.848V259.625H467.605V267.477H470.488V259.062H472.293ZM454.527 274.133C459.367 271.426 461.359 267.617 461.676 263.305H455.324V261.781H463.48C463.457 267.078 461.594 272.082 455.605 275.422L454.527 274.133ZM491.864 261.383V262.461C491.852 264.113 491.852 266.867 491.255 270.734L489.403 270.57C489.977 267.078 490.024 264.547 490.012 262.883H481.27V261.383H491.864ZM480.098 273.781C481.47 273.77 482.993 273.758 484.598 273.723V267.336H486.403V273.664C488.712 273.582 491.079 273.43 493.247 273.172L493.341 274.555C488.958 275.234 484.059 275.328 480.333 275.305L480.098 273.781ZM494.559 279.898V259.062H496.387V267.781H499.762V269.375H496.387V279.898H494.559ZM507.579 263C507.568 265.871 509.736 268.52 512.806 269.586L511.868 271.062C509.501 270.195 507.661 268.438 506.736 266.234C505.857 268.719 503.97 270.629 501.509 271.578L500.501 270.102C503.677 268.988 505.763 266.164 505.775 262.93V260.352H507.579V263ZM503.853 279.453V272.984H505.728V277.906H517.822V279.453H503.853ZM515.033 274.461V259.062H516.861V265.461H520.001V267.031H516.861V274.461H515.033ZM537.006 259.062V267.945H540.334V269.492H537.006V279.898H535.154V259.062H537.006ZM520.576 274.344C522.275 274.344 524.256 274.332 526.318 274.273V271.977C523.892 271.695 522.31 270.266 522.334 268.203C522.31 265.848 524.303 264.324 527.256 264.336C530.162 264.324 532.189 265.848 532.201 268.203C532.189 270.277 530.584 271.695 528.17 271.977V274.203C530.103 274.109 532.072 273.945 533.888 273.688L534.006 275.094C529.459 275.867 524.537 275.914 520.881 275.914L520.576 274.344ZM520.951 263.117V261.617H526.318V259.109H528.17V261.617H533.513V263.117H520.951ZM524.045 268.203C524.056 269.645 525.322 270.594 527.256 270.57C529.154 270.594 530.431 269.645 530.443 268.203C530.431 266.75 529.154 265.766 527.256 265.766C525.322 265.766 524.056 266.75 524.045 268.203ZM551.549 261.008C551.561 263.949 555.381 266.48 559.143 267.008L558.393 268.508C555.158 267.969 551.947 266.176 550.612 263.621C549.276 266.199 546.076 267.969 542.83 268.508L542.08 267.008C545.842 266.48 549.651 263.996 549.651 261.008V259.812H551.549V261.008ZM541.096 272.352V270.805H560.08V272.352H551.455V279.898H549.651V272.352H541.096ZM580.436 275.656V277.18H561.358V275.656H569.889V270.547H571.694V275.656H580.436ZM562.108 269.258C565.753 268.637 569.807 265.59 569.819 262.086V260.492H571.741V262.086C571.753 265.566 575.866 268.637 579.499 269.258L578.678 270.781C575.503 270.125 572.151 267.98 570.803 264.98C569.432 267.969 566.116 270.125 562.928 270.781L562.108 269.258ZM603.992 264.898V266.422H597.57V269.164H606.172V270.711H587.164V269.164H595.765V266.422H589.765V259.484H591.593V264.898H603.992ZM589.461 276.078C589.449 273.652 592.156 272.281 596.656 272.281C601.121 272.281 603.804 273.652 603.828 276.078C603.804 278.48 601.121 279.852 596.656 279.852C592.156 279.852 589.449 278.48 589.461 276.078ZM591.336 276.078C591.312 277.52 593.316 278.398 596.656 278.398C599.961 278.398 601.965 277.52 601.976 276.078C601.965 274.59 599.961 273.746 596.656 273.734C593.316 273.746 591.312 274.59 591.336 276.078ZM624.254 268.836V270.336H617.809V275.727H626.504V277.273H607.426V275.727H616.004V270.336H609.863V260.773H624.043V262.273H611.715V268.836H624.254ZM633.969 260.422C637.169 260.445 639.512 262.414 639.524 265.32C639.512 267.934 637.614 269.785 634.907 270.137V273.676C636.852 273.594 638.809 273.453 640.626 273.219L640.743 274.602C636.325 275.352 631.403 275.398 627.735 275.375L627.43 273.828C629.106 273.816 631.04 273.805 633.055 273.746V270.137C630.29 269.809 628.403 267.945 628.415 265.32C628.403 262.414 630.712 260.445 633.969 260.422ZM630.219 265.32C630.196 267.277 631.778 268.637 633.969 268.625C636.126 268.637 637.696 267.277 637.719 265.32C637.696 263.363 636.126 262.027 633.969 262.016C631.778 262.027 630.196 263.363 630.219 265.32ZM641.962 279.898V259.062H643.79V267.664H647.188V269.258H643.79V279.898H641.962ZM665.048 261.383V262.461C665.037 264.113 665.037 266.867 664.439 270.734L662.587 270.57C663.162 267.078 663.209 264.547 663.197 262.883H654.455V261.383H665.048ZM653.283 273.781C654.654 273.77 656.177 273.758 657.783 273.723V267.336H659.587V273.664C661.896 273.582 664.263 273.43 666.431 273.172L666.525 274.555C662.142 275.234 657.244 275.328 653.517 275.305L653.283 273.781ZM667.744 279.898V259.062H669.572V267.781H672.947V269.375H669.572V279.898H667.744ZM680.764 263C680.752 265.871 682.92 268.52 685.99 269.586L685.053 271.062C682.686 270.195 680.846 268.438 679.92 266.234C679.041 268.719 677.154 270.629 674.693 271.578L673.686 270.102C676.861 268.988 678.947 266.164 678.959 262.93V260.352H680.764V263ZM677.037 279.453V272.984H678.912V277.906H691.006V279.453H677.037ZM688.217 274.461V259.062H690.045V265.461H693.186V267.031H690.045V274.461H688.217ZM710.19 259.062V267.945H713.518V269.492H710.19V279.898H708.338V259.062H710.19ZM693.76 274.344C695.46 274.344 697.44 274.332 699.503 274.273V271.977C697.077 271.695 695.495 270.266 695.518 268.203C695.495 265.848 697.487 264.324 700.44 264.336C703.346 264.324 705.374 265.848 705.385 268.203C705.374 270.277 703.768 271.695 701.354 271.977V274.203C703.288 274.109 705.256 273.945 707.073 273.688L707.19 275.094C702.643 275.867 697.721 275.914 694.065 275.914L693.76 274.344ZM694.135 263.117V261.617H699.503V259.109H701.354V261.617H706.698V263.117H694.135ZM697.229 268.203C697.241 269.645 698.506 270.594 700.44 270.57C702.338 270.594 703.616 269.645 703.628 268.203C703.616 266.75 702.338 265.766 700.44 265.766C698.506 265.766 697.241 266.75 697.229 268.203ZM724.733 261.008C724.745 263.949 728.565 266.48 732.327 267.008L731.577 268.508C728.343 267.969 725.132 266.176 723.796 263.621C722.46 266.199 719.261 267.969 716.015 268.508L715.265 267.008C719.026 266.48 722.835 263.996 722.835 261.008V259.812H724.733V261.008ZM714.28 272.352V270.805H733.265V272.352H724.64V279.898H722.835V272.352H714.28ZM753.621 275.656V277.18H734.543V275.656H743.074V270.547H744.878V275.656H753.621ZM735.293 269.258C738.937 268.637 742.992 265.59 743.003 262.086V260.492H744.925V262.086C744.937 265.566 749.05 268.637 752.683 269.258L751.863 270.781C748.687 270.125 745.335 267.98 743.988 264.98C742.617 267.969 739.3 270.125 736.113 270.781L735.293 269.258ZM777.223 268.555V270.102H770.754V275.656H779.426V277.18H760.348V275.656H768.926V270.102H762.692V260.844H764.567V268.555H777.223ZM799.595 268.344V269.773H790.993V271.719H797.157V276.219H784.782V278.258H797.79V279.664H782.954V274.906H795.353V273.102H782.907V271.719H789.188V269.773H780.634V268.344H799.595ZM781.642 265.977C785.462 265.73 788.72 264.43 789.06 262.344H782.579V260.891H789.188V258.945H790.993V260.891H797.673V262.344H791.134C791.462 264.43 794.72 265.73 798.563 265.977L798.001 267.383C794.52 267.09 791.38 266.012 790.103 264.031C788.813 266.012 785.673 267.09 782.181 267.383L781.642 265.977ZM813.822 264.664C813.81 268.473 816.4 272.293 819.471 273.688L818.346 275.141C815.967 273.992 813.916 271.52 812.92 268.555C811.959 271.695 809.908 274.332 807.471 275.562L806.299 274.016C809.404 272.598 811.971 268.613 811.994 264.664V260.867H813.822V264.664ZM821.744 279.945V259.062H823.596V279.945H821.744ZM842.967 259.062V265.414H846.108V266.961H842.967V274.32H841.116V259.062H842.967ZM826.702 270.43C831.705 268.871 834.952 265.906 835.338 262.227H827.569V260.68H837.342C837.342 266.047 833.51 270.031 827.498 271.906L826.702 270.43ZM829.913 279.453V272.773H831.741V277.906H843.928V279.453H829.913ZM864.8 259.062V279.898H863.018V259.062H864.8ZM847.198 268.062C847.21 263.633 848.968 260.832 851.675 260.82C854.206 260.832 855.917 263.27 856.151 267.195H858.847V259.508H860.604V278.844H858.847V268.719H856.163C855.987 272.773 854.241 275.316 851.675 275.305C848.968 275.316 847.21 272.492 847.198 268.062ZM848.932 268.062C848.909 271.438 849.987 273.57 851.675 273.547C853.374 273.57 854.452 271.438 854.44 268.062C854.452 264.676 853.374 262.555 851.675 262.555C849.987 262.555 848.909 264.676 848.932 268.062ZM878.488 260.328C880.246 260.316 881.734 260.984 882.707 262.086H888.168V259.062H890.019V271.414H888.168V268.438H882.707C881.746 269.539 880.246 270.207 878.488 270.195C875.371 270.207 873.062 268.168 873.074 265.273C873.062 262.355 875.371 260.316 878.488 260.328ZM874.832 265.273C874.832 267.207 876.355 268.637 878.488 268.625C880.551 268.637 882.097 267.207 882.097 265.273C882.097 263.293 880.551 261.91 878.488 261.922C876.355 261.91 874.832 263.293 874.832 265.273ZM876.121 275.867C876.109 273.359 878.781 271.906 883.105 271.906C887.418 271.906 890.09 273.359 890.09 275.867C890.09 278.398 887.418 279.852 883.105 279.852C878.781 279.852 876.109 278.398 876.121 275.867ZM877.926 275.867C877.914 277.438 879.906 278.387 883.105 278.375C886.305 278.387 888.297 277.438 888.285 275.867C888.297 274.285 886.305 273.348 883.105 273.336C879.906 273.348 877.914 274.285 877.926 275.867ZM883.586 263.586C883.773 264.102 883.879 264.664 883.879 265.273C883.879 265.859 883.773 266.41 883.597 266.914H888.168V263.586H883.586ZM912.391 262.719V264.242H909.297V267.125H912.391V268.672H909.297V272.516H907.469V259.062H909.297V262.719H912.391ZM893.055 262.906V261.453H898.352V258.898H900.18V261.453H905.477V262.906H893.055ZM894.25 267.664C894.239 265.438 896.242 263.996 899.266 263.984C902.254 263.996 904.258 265.438 904.282 267.664C904.258 269.914 902.254 271.355 899.266 271.344C896.242 271.355 894.239 269.914 894.25 267.664ZM895.891 276.266C895.879 273.992 898.457 272.668 902.711 272.656C906.953 272.668 909.532 273.992 909.532 276.266C909.532 278.527 906.953 279.852 902.711 279.852C898.457 279.852 895.879 278.527 895.891 276.266ZM896.008 267.664C895.996 269.035 897.297 269.914 899.266 269.914C901.211 269.914 902.524 269.035 902.547 267.664C902.524 266.293 901.211 265.391 899.266 265.367C897.297 265.391 895.996 266.293 896.008 267.664ZM897.719 276.266C897.696 277.613 899.594 278.434 902.711 278.422C905.817 278.434 907.715 277.613 907.703 276.266C907.715 274.883 905.817 274.109 902.711 274.109C899.594 274.109 897.696 274.883 897.719 276.266ZM922.763 259.438C927.391 259.438 930.11 260.715 930.122 263.023C930.11 265.391 927.391 266.668 922.763 266.68C918.11 266.668 915.38 265.391 915.38 263.023C915.38 260.715 918.11 259.438 922.763 259.438ZM913.27 269.586V268.086H932.255V269.586H913.27ZM915.567 272.797V271.391H929.817V276.055H917.442V278.211H930.45V279.664H915.614V274.695H928.013V272.797H915.567ZM917.302 263.023C917.278 264.477 919.305 265.273 922.763 265.273C926.22 265.273 928.235 264.477 928.247 263.023C928.235 261.652 926.22 260.832 922.763 260.82C919.305 260.832 917.278 261.652 917.302 263.023ZM955.365 259.062V264.102H958.506V265.648H955.365V271.25H953.537V259.062H955.365ZM939.967 269.938V260.258H941.771V263.445H947.842V260.258H949.67V269.938H939.967ZM941.771 268.461H947.842V264.922H941.771V268.461ZM942.287 279.617V272.422H955.529V273.898H944.115V278.117H955.927V279.617H942.287ZM963.58 271.578V274.016H973.987V271.578H975.838V279.617H961.752V271.578H963.58ZM959.338 270.102V268.578H978.323V270.102H959.338ZM960.416 265.625C964.131 265.121 967.893 262.93 967.893 260.281V259.297H969.791V260.281C969.78 262.848 973.576 265.156 977.244 265.625L976.565 267.102C973.342 266.621 970.166 264.98 968.842 262.648C967.518 264.992 964.33 266.621 961.119 267.102L960.416 265.625ZM963.58 278.141H973.987V275.469H963.58V278.141ZM996.78 259.062V279.898H994.952V259.062H996.78ZM980.96 274.531V261.125H982.764V272.938C985.952 272.914 989.233 272.668 992.725 271.93L992.983 273.5C989.28 274.273 985.987 274.531 982.647 274.531H980.96ZM1015.99 259.062V267.312H1019.48V268.859H1015.99V279.945H1014.16V259.062H1015.99ZM1000.78 274.719V261.102H1010.5V262.625H1002.6V273.172C1006.38 273.16 1009.04 272.996 1012.14 272.422L1012.38 274.016C1009.11 274.602 1006.38 274.719 1002.42 274.719H1000.78ZM1022.33 278.141C1021.51 278.129 1020.8 277.449 1020.83 276.617C1020.8 275.797 1021.51 275.117 1022.33 275.117C1023.16 275.117 1023.84 275.797 1023.83 276.617C1023.84 277.449 1023.16 278.129 1022.33 278.141Z" fill="#1E1E1E"/>
<path d="M339.117 323.062V333.727H337.266V331.547H331.711V330.094H337.266V327.586H332.016C330.715 330.867 327.48 333.082 322.852 334.195L322.195 332.672C327.305 331.488 330.27 329.004 330.621 325.641H323.25V324.117H332.648C332.648 324.809 332.578 325.477 332.449 326.109H337.266V323.062H339.117ZM325.617 336.164V334.664H339.117V339.75H327.492V342.188H339.82V343.711H325.664V338.344H337.266V336.164H325.617ZM353.661 325.383V326.461C353.649 328.113 353.649 330.867 353.051 334.734L351.2 334.57C351.774 331.078 351.821 328.547 351.809 326.883H343.067V325.383H353.661ZM341.895 337.781C343.266 337.77 344.79 337.758 346.395 337.723V331.336H348.2V337.664C350.508 337.582 352.875 337.43 355.043 337.172L355.137 338.555C350.754 339.234 345.856 339.328 342.129 339.305L341.895 337.781ZM356.356 343.898V323.062H358.184V331.781H361.559V333.375H358.184V343.898H356.356ZM369.61 326.906C369.61 329.613 371.696 332.203 374.743 333.258L373.782 334.711C371.438 333.867 369.622 332.121 368.731 329.977C367.829 332.367 365.895 334.289 363.423 335.203L362.462 333.75C365.532 332.648 367.759 329.871 367.759 326.93V326.016H363.048V324.516H374.274V326.016H369.61V326.906ZM365.626 338.18V336.656H379.642V343.898H377.79V338.18H365.626ZM373.618 330.07V328.523H377.79V323.062H379.642V335.555H377.79V330.07H373.618ZM392.123 324.422C396.47 324.434 399.74 326.707 399.74 330.141C399.74 333.609 396.47 335.883 392.123 335.859C387.775 335.883 384.505 333.609 384.505 330.141C384.505 326.707 387.775 324.434 392.123 324.422ZM382.63 341.133V339.586H401.708V341.133H382.63ZM386.263 330.141C386.24 332.672 388.759 334.359 392.123 334.359C395.462 334.359 397.958 332.672 397.958 330.141C397.958 327.645 395.462 325.91 392.123 325.922C388.759 325.91 386.24 327.645 386.263 330.141ZM421.971 339.773V341.32H402.893V339.773H411.471V335.836H405.283V329.414H417.752V326.133H405.236V324.609H419.557V330.914H407.111V334.312H420.049V335.836H413.275V339.773H421.971ZM426.577 340.43L424.748 346.805H423.014L424.303 340.43H426.577ZM438.718 323.906V326.555H449.031V323.906H450.859V332.227H444.765V334.453H453.343V335.977H434.359V334.453H442.937V332.227H436.89V323.906H438.718ZM436.82 343.453V337.641H438.671V341.906H451.234V343.453H436.82ZM438.718 330.75H449.031V328.008H438.718V330.75ZM479.242 339.656V341.227H460.164V339.656H479.242ZM461.852 326.695V325.172H477.414V326.695H474.11V333.984H477.367V335.484H461.899V333.984H465.157V326.695H461.852ZM466.985 333.984H472.305V326.695H466.985V333.984ZM499.505 339.773V341.32H480.427V339.773H489.005V335.836H482.817V329.414H495.286V326.133H482.77V324.609H497.091V330.914H484.645V334.312H497.583V335.836H490.809V339.773H499.505ZM514.329 323.531V335.625H512.548V329.977H509.361V328.453H512.548V323.531H514.329ZM500.783 333.844C503.49 332.707 505.083 330.012 505.072 327.539V326.297H501.181V324.773H510.533V326.297H506.853V327.539C506.853 329.801 508.376 332.273 511.025 333.375L510.064 334.781C508.107 333.961 506.736 332.402 506.009 330.609C505.283 332.637 503.841 334.383 501.767 335.297L500.783 333.844ZM504.345 338.227V336.727H518.384V343.898H516.579V338.227H504.345ZM516.626 335.812V323.062H518.384V335.812H516.626ZM537.826 334.336V335.836H523.412V324.867H537.592V326.414H525.287V329.508H537.146V330.984H525.287V334.336H537.826ZM520.951 341.18V339.656H540.029V341.18H520.951ZM559.072 323.062V343.898H557.291V323.062H559.072ZM541.471 332.062C541.483 327.633 543.24 324.832 545.947 324.82C548.479 324.832 550.19 327.27 550.424 331.195H553.119V323.508H554.877V342.844H553.119V332.719H550.436C550.26 336.773 548.514 339.316 545.947 339.305C543.24 339.316 541.483 336.492 541.471 332.062ZM543.205 332.062C543.182 335.438 544.26 337.57 545.947 337.547C547.647 337.57 548.725 335.438 548.713 332.062C548.725 328.676 547.647 326.555 545.947 326.555C544.26 326.555 543.182 328.676 543.205 332.062ZM568.811 328.664C568.8 332.438 571.225 336.234 574.249 337.617L573.147 339.117C570.78 337.898 568.823 335.414 567.897 332.449C566.971 335.566 565.014 338.238 562.647 339.492L561.452 338.016C564.51 336.516 566.925 332.508 566.936 328.664V324.867H568.811V328.664ZM571.975 331.688V330.188H576.921V323.062H578.749V343.945H576.921V331.688H571.975ZM598.589 329.391V330.867H584.316V323.836H586.144V329.391H598.589ZM581.714 335.203V333.703H600.792V335.203H581.714ZM584.198 343.383V337.336H586.027V341.859H598.706V343.383H584.198ZM614.199 342.234C611.258 342.199 608.012 340.453 608.012 334.172C608.012 328.16 610.473 324.797 614.457 324.797C617.445 324.797 619.531 326.637 619.965 329.297H617.879C617.492 327.797 616.344 326.672 614.457 326.672C611.668 326.672 609.992 329.051 610.004 333.141H610.215C611.188 331.723 612.746 330.891 614.574 330.891C617.586 330.891 620.106 333.234 620.106 336.516C620.106 339.715 617.774 342.27 614.199 342.234ZM610.285 336.562C610.297 338.555 611.926 340.371 614.199 340.383C616.391 340.371 618.055 338.648 618.067 336.539C618.055 334.453 616.461 332.754 614.246 332.742C612.02 332.754 610.309 334.559 610.285 336.562ZM630.114 325.031V342H628.099V325.031H630.114ZM638.048 342.258C634.58 342.27 632.236 339.645 632.236 335.695C632.236 331.723 634.58 329.109 638.048 329.109C641.505 329.109 643.826 331.723 643.814 335.695C643.826 339.645 641.505 342.27 638.048 342.258ZM634.252 335.695C634.263 338.238 635.459 340.477 638.048 340.477C640.615 340.477 641.798 338.238 641.798 335.695C641.798 333.164 640.615 330.891 638.048 330.891C635.459 330.891 634.263 333.164 634.252 335.695ZM651.139 347.039C648.057 347.039 645.971 345.691 645.748 343.336H647.858C648.127 344.637 649.334 345.281 651.139 345.281C653.318 345.281 654.654 344.332 654.654 342.234V339.656H654.49C654.057 340.359 653.248 341.801 650.787 341.812C647.693 341.801 645.373 339.469 645.373 335.461C645.373 331.547 647.611 329.109 650.811 329.109C653.283 329.109 654.08 330.609 654.537 331.289H654.701V329.273H656.67V342.352C656.658 345.633 654.244 347.039 651.139 347.039ZM647.412 335.531C647.412 338.168 648.654 340.008 651.068 340.008C653.4 340.008 654.69 338.332 654.701 335.531C654.69 332.801 653.436 330.914 651.068 330.914C648.619 330.914 647.412 332.965 647.412 335.531ZM664.944 342V329.273H666.89V331.219H667.03C667.487 329.93 668.812 329.074 670.312 329.062C670.616 329.074 671.132 329.086 671.366 329.109V331.148C671.214 331.113 670.675 331.008 670.147 331.008C668.319 331.008 666.96 332.273 666.96 333.984V342H664.944ZM677.777 342.258C674.097 342.27 671.824 339.645 671.824 335.742C671.824 331.828 674.132 329.109 677.589 329.109C680.261 329.109 683.085 330.75 683.074 335.461V336.305H673.839C673.945 339 675.515 340.477 677.777 340.477C679.3 340.477 680.261 339.809 680.73 339.023H682.886C682.289 340.957 680.402 342.27 677.777 342.258ZM673.851 334.594H681.035C681.023 332.473 679.687 330.891 677.589 330.891C675.386 330.891 673.992 332.625 673.851 334.594ZM690.023 342.258C686.848 342.27 684.609 339.715 684.609 335.672C684.609 331.641 686.848 329.109 690.047 329.109C692.52 329.109 693.293 330.609 693.727 331.289H693.867V325.031H695.906V342H693.938V340.055H693.727C693.281 340.758 692.449 342.27 690.023 342.258ZM686.648 335.625C686.648 338.332 687.891 340.453 690.305 340.453C692.637 340.453 693.926 338.484 693.938 335.625C693.926 332.801 692.672 330.914 690.305 330.914C687.855 330.914 686.648 332.965 686.648 335.625ZM706.957 336.773V329.273H708.95V342H706.957V339.844H706.817C706.219 341.133 704.954 342.164 703.043 342.164C700.629 342.164 698.907 340.594 698.918 337.359V329.273H700.934V337.219C700.934 339.047 702.071 340.23 703.7 340.219C705.141 340.23 706.946 339.152 706.957 336.773ZM716.907 342.258C713.298 342.27 711.095 339.516 711.095 335.695C711.095 331.828 713.403 329.109 716.86 329.109C719.567 329.109 721.606 330.715 721.923 333.117H719.907C719.614 331.957 718.606 330.891 716.907 330.891C714.634 330.891 713.122 332.766 713.11 335.625C713.122 338.566 714.599 340.453 716.907 340.453C718.407 340.453 719.556 339.645 719.907 338.25H721.923C721.606 340.523 719.731 342.27 716.907 342.258ZM729.482 329.273V330.961H726.81V338.344C726.798 339.973 727.619 340.242 728.474 340.242C728.837 340.242 729.376 340.207 729.669 340.195V342.07C729.353 342.117 728.861 342.164 728.263 342.164C726.564 342.164 724.783 341.109 724.771 338.859V330.961H722.849V329.273H724.771V326.227H726.81V329.273H729.482ZM731.603 342V329.273H733.619V342H731.603ZM731.205 325.828C731.193 325.078 731.838 324.48 732.611 324.492C733.385 324.48 734.029 325.078 734.041 325.828C734.029 326.566 733.385 327.164 732.611 327.164C731.838 327.164 731.193 326.566 731.205 325.828ZM741.553 342.258C738.084 342.27 735.741 339.645 735.741 335.695C735.741 331.723 738.084 329.109 741.553 329.109C745.01 329.109 747.33 331.723 747.319 335.695C747.33 339.645 745.01 342.27 741.553 342.258ZM737.756 335.695C737.768 338.238 738.963 340.477 741.553 340.477C744.12 340.477 745.303 338.238 745.303 335.695C745.303 333.164 744.12 330.891 741.553 330.891C738.963 330.891 737.768 333.164 737.756 335.695ZM751.503 334.359V342H749.487V329.273H751.432V331.266H751.597C752.194 329.965 753.39 329.109 755.323 329.109C757.901 329.109 759.624 330.68 759.612 333.914V342H757.597V334.055C757.597 332.086 756.518 330.914 754.714 330.914C752.862 330.914 751.503 332.156 751.503 334.359ZM771.085 323.438C775.714 323.438 778.433 324.715 778.445 327.023C778.433 329.391 775.714 330.668 771.085 330.68C766.433 330.668 763.703 329.391 763.703 327.023C763.703 324.715 766.433 323.438 771.085 323.438ZM761.593 333.586V332.086H780.578V333.586H761.593ZM763.89 336.797V335.391H778.14V340.055H765.765V342.211H778.773V343.664H763.937V338.695H776.335V336.797H763.89ZM765.624 327.023C765.601 328.477 767.628 329.273 771.085 329.273C774.542 329.273 776.558 328.477 776.57 327.023C776.558 325.652 774.542 324.832 771.085 324.82C767.628 324.832 765.601 325.652 765.624 327.023ZM804.227 332.836V334.336H797.782V339.727H806.477V341.273H787.399V339.727H795.977V334.336H789.836V324.773H804.016V326.273H791.688V332.836H804.227ZM826.645 332.344V333.773H818.044V335.719H824.208V340.219H811.833V342.258H824.841V343.664H810.005V338.906H822.403V337.102H809.958V335.719H816.239V333.773H807.684V332.344H826.645ZM808.692 329.977C812.513 329.73 815.77 328.43 816.11 326.344H809.63V324.891H816.239V322.945H818.044V324.891H824.723V326.344H818.184C818.513 328.43 821.77 329.73 825.614 329.977L825.052 331.383C821.571 331.09 818.43 330.012 817.153 328.031C815.864 330.012 812.723 331.09 809.231 331.383L808.692 329.977ZM844.048 323.062V331.664H847.54V333.188H844.048V343.898H842.22V323.062H844.048ZM827.806 327.938V326.414H833.173V323.32H835.001V326.414H840.204V327.938H827.806ZM829.001 334.453C828.99 331.641 831.146 329.672 834.111 329.672C837.052 329.672 839.197 331.641 839.22 334.453C839.197 337.277 837.052 339.234 834.111 339.234C831.146 339.234 828.99 337.277 829.001 334.453ZM830.759 334.453C830.747 336.352 832.165 337.688 834.111 337.664C836.033 337.688 837.439 336.352 837.462 334.453C837.439 332.566 836.033 331.207 834.111 331.219C832.165 331.207 830.747 332.566 830.759 334.453ZM865.037 329.391V330.867H850.763V323.836H852.592V329.391H865.037ZM848.162 335.203V333.703H867.24V335.203H848.162ZM850.646 343.383V337.336H852.474V341.859H865.154V343.383H850.646ZM891.264 323.086V337.195H889.413V330.492H884.843V328.945H889.413V323.086H891.264ZM874.343 334.359C879.323 332.824 882.405 329.93 882.792 326.227H875.374V324.727H884.749C884.737 330.07 881.151 333.914 875.163 335.836L874.343 334.359ZM876.522 342.375C880.214 341.73 883.577 339.398 883.6 336.328V335.367H885.405V336.328C885.417 339.363 888.745 341.648 892.413 342.305L891.639 343.781C888.569 343.195 885.733 341.566 884.503 339.129C883.237 341.59 880.378 343.219 877.272 343.828L876.522 342.375ZM911.433 323.062V343.945H909.581V323.062H911.433ZM895.027 331.945C895.038 327.516 897.241 324.691 900.347 324.68C903.441 324.691 905.679 327.516 905.667 331.945C905.679 336.387 903.441 339.199 900.347 339.188C897.241 339.199 895.038 336.387 895.027 331.945ZM896.808 331.945C896.808 335.332 898.261 337.559 900.347 337.547C902.445 337.559 903.886 335.332 903.886 331.945C903.886 328.559 902.445 326.332 900.347 326.32C898.261 326.332 896.808 328.559 896.808 331.945ZM939.043 332.812V334.336H930.442V336.562C934.367 336.738 936.699 338.016 936.723 340.219C936.699 342.551 934.016 343.852 929.551 343.852C925.028 343.852 922.344 342.551 922.356 340.219C922.344 338.016 924.664 336.738 928.637 336.562V334.336H920.059V332.812H939.043ZM921.137 330.094C924.746 329.719 928.227 327.879 928.356 325.547H921.793V324.047H937.356V325.547H930.746C930.875 327.879 934.32 329.719 937.988 330.094L937.309 331.547C933.899 331.137 930.699 329.602 929.551 327.293C928.403 329.602 925.227 331.137 921.793 331.547L921.137 330.094ZM924.231 340.219C924.207 341.602 926.211 342.434 929.551 342.422C932.856 342.434 934.86 341.602 934.871 340.219C934.86 338.801 932.856 337.992 929.551 337.969C926.211 337.992 924.207 338.801 924.231 340.219ZM959.399 339.68V341.227H940.321V339.68H945.055V334.066C943.274 333.141 942.196 331.641 942.196 329.742C942.196 326.52 945.36 324.398 949.813 324.375C954.266 324.398 957.43 326.52 957.43 329.742C957.43 331.605 956.387 333.082 954.665 334.008V339.68H959.399ZM943.977 329.742C943.965 332.074 946.391 333.633 949.813 333.633C953.2 333.633 955.649 332.074 955.649 329.742C955.649 327.41 953.2 325.875 949.813 325.898C946.391 325.875 943.965 327.41 943.977 329.742ZM946.86 339.68H952.813V334.723C951.911 334.957 950.903 335.086 949.813 335.086C948.747 335.086 947.751 334.969 946.86 334.734V339.68ZM976.872 323.086V329.953H980.013V331.5H976.872V338.695H975.044V323.086H976.872ZM960.63 327.141V325.641H965.927V323.086H967.755V325.641H973.052V327.141H960.63ZM961.825 332.18C961.814 329.812 963.829 328.289 966.841 328.289C969.818 328.289 971.833 329.812 971.857 332.18C971.833 334.523 969.818 336.035 966.841 336.023C963.829 336.035 961.814 334.523 961.825 332.18ZM963.583 332.18C963.571 333.645 964.872 334.594 966.841 334.57C968.786 334.594 970.099 333.645 970.122 332.18C970.099 330.691 968.786 329.73 966.841 329.742C964.872 329.73 963.571 330.691 963.583 332.18ZM963.841 343.453V337.453H965.646V341.906H977.833V343.453H963.841ZM1002.96 323.953V330.984H996.795V333.656H1005.37V335.156H986.389V333.656H994.967V330.984H988.85V323.953H1002.96ZM988.498 338.812V337.336H1003.03V343.898H1001.18V338.812H988.498ZM990.654 329.508H1001.13V325.43H990.654V329.508ZM1025.73 339.82V341.344H1006.65V339.82H1011.97V334.852H1008.39V333.328H1011.64V326.531H1008.34V325.008H1023.9V326.531H1020.6V333.328H1023.85V334.852H1020.27V339.82H1025.73ZM1013.47 333.328H1018.79V326.531H1013.47V333.328ZM1013.82 339.82H1018.44V334.852H1013.82V339.82ZM1044.12 323.062V334.242H1042.29V323.062H1044.12ZM1027.41 328.875C1027.39 326.027 1029.7 324.07 1032.87 324.094C1036.03 324.07 1038.32 326.027 1038.33 328.875C1038.32 331.711 1036.03 333.668 1032.87 333.656C1029.7 333.668 1027.39 331.711 1027.41 328.875ZM1029.21 328.875C1029.19 330.773 1030.72 332.121 1032.87 332.133C1034.99 332.121 1036.52 330.773 1036.52 328.875C1036.52 326.965 1034.99 325.629 1032.87 325.641C1030.72 325.629 1029.19 326.965 1029.21 328.875ZM1030.62 343.617V335.297H1032.44V337.828H1042.29V335.297H1044.12V343.617H1030.62ZM1032.44 342.117H1042.29V339.305H1032.44V342.117ZM1064.35 323.062V343.898H1062.53V323.062H1064.35ZM1048.53 338.531V325.125H1050.34V336.938C1053.53 336.914 1056.81 336.668 1060.3 335.93L1060.56 337.5C1056.85 338.273 1053.56 338.531 1050.22 338.531H1048.53ZM1083.56 323.062V331.312H1087.05V332.859H1083.56V343.945H1081.73V323.062H1083.56ZM1068.35 338.719V325.102H1078.08V326.625H1070.18V337.172C1073.95 337.16 1076.61 336.996 1079.72 336.422L1079.95 338.016C1076.68 338.602 1073.95 338.719 1069.99 338.719H1068.35ZM1089.9 342.141C1089.08 342.129 1088.38 341.449 1088.4 340.617C1088.38 339.797 1089.08 339.117 1089.9 339.117C1090.73 339.117 1091.41 339.797 1091.4 340.617C1091.41 341.449 1090.73 342.129 1089.9 342.141Z" fill="#1E1E1E"/>
<circle cx="281" cy="107" r="15" stroke="#7737FF" stroke-width="12"/>
</svg>
