<svg width="1920" height="129" viewBox="0 0 1920 129" fill="none" xmlns="http://www.w3.org/2000/svg">
<rect width="1920" height="129" fill="white"/>
<path d="M329.359 91L321.625 62.7188H325.18L331.078 85.6094H331.352L337.328 62.7188H341.273L347.289 85.6094H347.523L353.422 62.7188H356.977L349.242 91H345.609L339.438 68.6172H339.203L332.992 91H329.359ZM366.138 91.4297C360.356 91.4492 356.45 87.0742 356.45 80.4922C356.45 73.8711 360.356 69.5156 366.138 69.5156C371.899 69.5156 375.766 73.8711 375.747 80.4922C375.766 87.0742 371.899 91.4492 366.138 91.4297ZM359.809 80.4922C359.829 84.7305 361.821 88.4609 366.138 88.4609C370.415 88.4609 372.388 84.7305 372.388 80.4922C372.388 76.2734 370.415 72.4844 366.138 72.4844C361.821 72.4844 359.829 76.2734 359.809 80.4922ZM379.361 91V69.7891H382.603V73.0312H382.838C383.599 70.8828 385.806 69.457 388.306 69.4375C388.814 69.457 389.673 69.4766 390.064 69.5156V72.9141C389.81 72.8555 388.912 72.6797 388.033 72.6797C384.986 72.6797 382.72 74.7891 382.72 77.6406V91H379.361ZM404.342 75.2969C403.873 73.5391 402.526 72.3867 400.045 72.3672C397.428 72.3867 395.573 73.793 395.553 75.5703C395.573 76.9766 396.705 77.9336 399.186 78.5391L402.35 79.3203C406.139 80.2188 407.995 82.1133 408.014 85.0625C407.995 88.7344 405.006 91.4492 399.694 91.4297C394.928 91.4492 392.096 89.3203 391.53 85.4531H395.045C395.436 87.5234 396.94 88.5195 399.616 88.5C402.643 88.5195 404.537 87.25 404.537 85.2578C404.537 83.7539 403.463 82.7773 401.061 82.2109L397.858 81.4688C394.166 80.6094 392.194 78.5977 392.194 75.7656C392.194 72.1328 395.377 69.5156 400.045 69.5156C404.44 69.5156 407.194 71.8594 407.623 75.2969H404.342ZM420.847 69.7891V72.6016H416.394V84.9062C416.374 87.6211 417.741 88.0703 419.167 88.0703C419.773 88.0703 420.671 88.0117 421.159 87.9922V91.1172C420.632 91.1953 419.812 91.2734 418.816 91.2734C415.984 91.2734 413.015 89.5156 412.995 85.7656V72.6016H409.792V69.7891H412.995V64.7109H416.394V69.7891H420.847ZM434.052 91V62.7188H443.661C450.282 62.7188 453.309 66.6641 453.309 71.7031C453.309 76.7227 450.282 80.7266 443.7 80.7266H437.567V91H434.052ZM437.567 77.6016H443.544C448.055 77.6016 449.813 75.0625 449.833 71.7031C449.813 68.3242 448.055 65.8438 443.505 65.8438H437.567V77.6016ZM465.439 91.4297C459.658 91.4492 455.752 87.0742 455.752 80.4922C455.752 73.8711 459.658 69.5156 465.439 69.5156C471.201 69.5156 475.068 73.8711 475.048 80.4922C475.068 87.0742 471.201 91.4492 465.439 91.4297ZM459.111 80.4922C459.13 84.7305 461.123 88.4609 465.439 88.4609C469.716 88.4609 471.689 84.7305 471.689 80.4922C471.689 76.2734 469.716 72.4844 465.439 72.4844C461.123 72.4844 459.13 76.2734 459.111 80.4922ZM490.459 75.2969C489.991 73.5391 488.643 72.3867 486.163 72.3672C483.545 72.3867 481.69 73.793 481.67 75.5703C481.69 76.9766 482.823 77.9336 485.303 78.5391L488.467 79.3203C492.256 80.2188 494.112 82.1133 494.131 85.0625C494.112 88.7344 491.123 91.4492 485.811 91.4297C481.045 91.4492 478.213 89.3203 477.647 85.4531H481.163C481.553 87.5234 483.057 88.5195 485.733 88.5C488.76 88.5195 490.655 87.25 490.655 85.2578C490.655 83.7539 489.58 82.7773 487.178 82.2109L483.975 81.4688C480.284 80.6094 478.311 78.5977 478.311 75.7656C478.311 72.1328 481.495 69.5156 486.163 69.5156C490.557 69.5156 493.311 71.8594 493.741 75.2969H490.459ZM497.706 91V69.7891H501.066V91H497.706ZM497.042 64.0469C497.023 62.7969 498.097 61.8008 499.386 61.8203C500.675 61.8008 501.749 62.7969 501.769 64.0469C501.749 65.2773 500.675 66.2734 499.386 66.2734C498.097 66.2734 497.023 65.2773 497.042 64.0469ZM514.875 69.7891V72.6016H510.422V84.9062C510.402 87.6211 511.77 88.0703 513.195 88.0703C513.801 88.0703 514.699 88.0117 515.188 87.9922V91.1172C514.66 91.1953 513.84 91.2734 512.844 91.2734C510.012 91.2734 507.043 89.5156 507.023 85.7656V72.6016H503.82V69.7891H507.023V64.7109H510.422V69.7891H514.875ZM518.411 91V69.7891H521.77V91H518.411ZM517.747 64.0469C517.727 62.7969 518.802 61.8008 520.091 61.8203C521.38 61.8008 522.454 62.7969 522.473 64.0469C522.454 65.2773 521.38 66.2734 520.091 66.2734C518.802 66.2734 517.727 65.2773 517.747 64.0469ZM534.994 91.4297C529.212 91.4492 525.306 87.0742 525.306 80.4922C525.306 73.8711 529.212 69.5156 534.994 69.5156C540.755 69.5156 544.623 73.8711 544.603 80.4922C544.623 87.0742 540.755 91.4492 534.994 91.4297ZM528.666 80.4922C528.685 84.7305 530.677 88.4609 534.994 88.4609C539.271 88.4609 541.244 84.7305 541.244 80.4922C541.244 76.2734 539.271 72.4844 534.994 72.4844C530.677 72.4844 528.685 76.2734 528.666 80.4922ZM551.577 78.2656V91H548.217V69.7891H551.459V73.1094H551.733C552.729 70.9414 554.721 69.5156 557.944 69.5156C562.241 69.5156 565.112 72.1328 565.092 77.5234V91H561.733V77.7578C561.733 74.4766 559.936 72.5234 556.928 72.5234C553.842 72.5234 551.577 74.5938 551.577 78.2656ZM589.508 66C589.508 70.8438 593.023 75.4141 598.102 77.25L596.383 79.6328C592.574 78.1289 589.527 75.1211 588.043 71.332C586.578 75.5312 583.414 78.8516 579.312 80.4922L577.672 77.9922C582.887 76.0781 586.48 71.2148 586.5 65.8828V61.5859H589.508V66ZM583.961 93.4219V82.5234H587.047V90.8438H607.203V93.4219H583.961ZM595.602 70.2188V67.6406H603.336V59.4766H606.422V85.4922H603.336V70.2188H595.602ZM640.192 59.4375V80.1406H637.106V71.0391H630.114V68.5H637.106V59.4375H640.192ZM611.559 77.3672C616.716 75.5117 620.388 70.8047 620.388 65.8438V64.5547H612.536V61.9766H631.247V64.5547H623.473V65.8047C623.473 70.3359 626.95 74.6523 632.028 76.3906L630.427 78.8516C626.54 77.4453 623.513 74.5156 622.009 70.9414C620.524 75.0039 617.302 78.2461 613.161 79.8281L611.559 77.3672ZM617.028 87.6797C617.009 83.5977 621.442 81.2148 628.669 81.2344C635.876 81.2148 640.309 83.5977 640.309 87.6797C640.309 91.7812 635.876 94.125 628.669 94.1641C621.442 94.125 617.009 91.7812 617.028 87.6797ZM620.075 87.6797C620.055 90.1992 623.337 91.7227 628.669 91.7031C633.981 91.7227 637.263 90.1992 637.263 87.6797C637.263 85.1406 633.981 83.6172 628.669 83.6172C623.337 83.6172 620.055 85.1406 620.075 87.6797ZM670.428 81.2734C677.557 81.2734 681.873 83.6172 681.873 87.6797C681.873 91.7812 677.557 94.125 670.428 94.1641C663.28 94.125 658.924 91.7812 658.905 87.6797C658.924 83.6172 663.28 81.2734 670.428 81.2734ZM655.897 77.6406V61.625H658.905V66.9375H669.022V61.625H672.069V77.6406H655.897ZM658.905 75.1406H669.022V69.3594H658.905V75.1406ZM661.991 87.6797C661.952 90.1797 665.194 91.6641 670.428 91.6641C675.682 91.6641 678.885 90.1797 678.905 87.6797C678.885 85.1992 675.682 83.7344 670.428 83.6953C665.194 83.7344 661.952 85.1992 661.991 87.6797ZM678.514 80.3359V59.4375H681.561V68.1875H686.795V70.8047H681.561V80.3359H678.514ZM692.987 61.2344V66.625H702.675V61.2344H705.683V67.9922H713.886V59.4375H716.972V78.4219H713.886V70.5703H705.683V77.1328H689.941V61.2344H692.987ZM692.987 74.6328H702.675V69.0469H692.987V74.6328ZM694.589 93.6953V80.1016H697.675V84.3594H713.886V80.1016H716.933V93.6953H694.589ZM697.675 91.1562H713.886V86.8203H697.675V91.1562Z" fill="#1E1E1E"/>
<circle cx="281" cy="61" r="15" stroke="#7737FF" stroke-width="12"/>
</svg>
