<svg width="1920" height="470" viewBox="0 0 1920 470" fill="none" xmlns="http://www.w3.org/2000/svg">
<rect y="3" width="1920" height="467" fill="white"/>
<path d="M342.562 124.742C341.645 121.734 339.32 119.898 335.883 119.898C331.332 119.898 328.012 123.453 328.031 129.82C328.012 136.246 331.273 139.82 336 139.82C340.277 139.82 342.992 137.242 343.07 133.219H336.508V129.195H347.992V132.594C347.992 139.879 342.992 144.391 336 144.391C328.188 144.391 322.895 138.824 322.914 129.859C322.895 120.777 328.441 115.328 335.844 115.328C342.074 115.328 346.898 119.195 347.758 124.742H342.562ZM350.864 137.984C350.864 133.121 355.161 132.008 358.833 131.734C360.2 131.637 363.618 131.441 364.575 131.422V129.703C364.575 127.008 362.973 125.445 359.77 125.445C357.095 125.445 355.473 126.676 355.005 128.297H351.489C351.919 124.879 355.239 122.516 359.927 122.516C362.7 122.516 367.915 123.336 367.895 130.016V144H364.575V141.109H364.419C363.716 142.535 361.782 144.488 358.091 144.508C354.067 144.488 350.864 142.125 350.864 137.984ZM354.223 138.141C354.243 140.387 356.098 141.52 358.677 141.5C362.466 141.52 364.575 138.98 364.575 136.305V134.176C363.579 134.234 360.239 134.488 359.223 134.547C356.177 134.742 354.243 135.816 354.223 138.141ZM384.283 128.297C383.814 126.539 382.466 125.387 379.986 125.367C377.369 125.387 375.513 126.793 375.494 128.57C375.513 129.977 376.646 130.934 379.127 131.539L382.291 132.32C386.08 133.219 387.935 135.113 387.955 138.062C387.935 141.734 384.947 144.449 379.634 144.43C374.869 144.449 372.037 142.32 371.47 138.453H374.986C375.377 140.523 376.88 141.52 379.556 141.5C382.584 141.52 384.478 140.25 384.478 138.258C384.478 136.754 383.404 135.777 381.002 135.211L377.798 134.469C374.107 133.609 372.134 131.598 372.134 128.766C372.134 125.133 375.318 122.516 379.986 122.516C384.38 122.516 387.134 124.859 387.564 128.297H384.283ZM419.753 125.25C419.148 121.852 416.433 119.898 412.995 119.898C408.366 119.898 405.085 123.453 405.105 129.859C405.085 136.363 408.386 139.82 412.995 139.82C416.355 139.82 419.07 137.945 419.753 134.625H424.87C424.089 140.055 419.616 144.391 412.917 144.391C405.456 144.391 399.968 138.98 399.988 129.859C399.968 120.719 405.515 115.328 412.917 115.328C419.167 115.328 423.991 118.961 424.87 125.25H419.753ZM430.672 151.969C429.949 151.949 429.227 151.93 428.797 151.891V148.883C429.148 148.922 429.91 148.941 430.438 148.961C431.805 148.941 432.957 148.863 434.07 145.758L434.695 144.156L426.844 122.789H430.516L436.297 139.625H436.531L442.312 122.789H445.984L437 147.047C435.75 150.387 433.68 151.949 430.672 151.969ZM456.786 144.43C450.77 144.449 447.098 139.859 447.098 133.492C447.098 127.047 450.946 122.516 456.708 122.516C461.22 122.516 464.618 125.191 465.145 129.195H461.786C461.298 127.262 459.618 125.484 456.786 125.484C452.997 125.484 450.477 128.609 450.458 133.375C450.477 138.277 452.938 141.422 456.786 141.422C459.286 141.422 461.2 140.074 461.786 137.75H465.145C464.618 141.539 461.493 144.449 456.786 144.43ZM471.845 115.719V144H468.486V115.719H471.845ZM485.303 144.43C479.17 144.449 475.381 140.074 475.381 133.57C475.381 127.047 479.229 122.516 484.991 122.516C489.444 122.516 494.151 125.25 494.131 133.102V134.508H478.741C478.916 139 481.534 141.461 485.303 141.461C487.842 141.461 489.444 140.348 490.225 139.039H493.819C492.823 142.262 489.678 144.449 485.303 144.43ZM478.76 131.656H490.733C490.713 128.121 488.487 125.484 484.991 125.484C481.319 125.484 478.995 128.375 478.76 131.656ZM516.477 144H506.867V115.719H516.633C525.07 115.719 530.168 121.012 530.188 129.82C530.168 138.668 525.07 144 516.477 144ZM511.945 139.586H516.203C522.121 139.605 525.109 136.344 525.109 129.82C525.109 123.336 522.121 120.113 516.359 120.133H511.945V139.586ZM542.864 144.43C536.731 144.449 532.942 140.074 532.942 133.57C532.942 127.047 536.79 122.516 542.552 122.516C547.005 122.516 551.712 125.25 551.692 133.102V134.508H536.302C536.477 139 539.095 141.461 542.864 141.461C545.403 141.461 547.005 140.348 547.786 139.039H551.38C550.384 142.262 547.239 144.449 542.864 144.43ZM536.321 131.656H548.294C548.274 128.121 546.048 125.484 542.552 125.484C538.88 125.484 536.555 128.375 536.321 131.656ZM572.064 122.789L564.212 144H560.736L552.923 122.789H556.595L562.377 139.625H562.611L568.392 122.789H572.064ZM583.1 144.43C576.967 144.449 573.178 140.074 573.178 133.57C573.178 127.047 577.026 122.516 582.788 122.516C587.241 122.516 591.948 125.25 591.928 133.102V134.508H576.538C576.713 139 579.33 141.461 583.1 141.461C585.639 141.461 587.241 140.348 588.022 139.039H591.616C590.62 142.262 587.475 144.449 583.1 144.43ZM576.557 131.656H588.53C588.51 128.121 586.284 125.484 582.788 125.484C579.116 125.484 576.791 128.375 576.557 131.656ZM598.862 115.719V144H595.503V115.719H598.862ZM612.086 144.43C606.305 144.449 602.398 140.074 602.398 133.492C602.398 126.871 606.305 122.516 612.086 122.516C617.848 122.516 621.715 126.871 621.695 133.492C621.715 140.074 617.848 144.449 612.086 144.43ZM605.758 133.492C605.777 137.73 607.77 141.461 612.086 141.461C616.363 141.461 618.336 137.73 618.336 133.492C618.336 129.273 616.363 125.484 612.086 125.484C607.77 125.484 605.777 129.273 605.758 133.492ZM625.309 151.969V122.789H628.552V126.148H628.942C629.665 125.016 630.954 122.516 635.075 122.516C640.407 122.516 644.098 126.734 644.098 133.453C644.098 140.191 640.407 144.449 635.114 144.43C631.071 144.449 629.665 141.93 628.942 140.758H628.669V151.969H625.309ZM628.591 133.375C628.61 138.141 630.739 141.422 634.645 141.422C638.669 141.422 640.739 137.887 640.739 133.375C640.739 128.941 638.727 125.523 634.645 125.523C630.68 125.523 628.61 128.668 628.591 133.375ZM647.673 144V122.789H650.916V126.109H651.189C652.068 123.844 654.119 122.516 656.892 122.516C659.666 122.516 661.56 123.844 662.556 126.109H662.791C663.865 123.922 666.111 122.516 669.158 122.516C672.927 122.516 675.642 124.82 675.642 129.82V144H672.283V129.859C672.263 126.734 670.31 125.523 667.986 125.523C665.037 125.523 663.357 127.516 663.337 130.211V144H659.939V129.508C659.959 127.125 658.24 125.523 655.798 125.523C653.259 125.523 651.033 127.672 651.033 130.758V144H647.673ZM689.139 144.43C683.006 144.449 679.217 140.074 679.217 133.57C679.217 127.047 683.065 122.516 688.827 122.516C693.28 122.516 697.987 125.25 697.967 133.102V134.508H682.577C682.752 139 685.37 141.461 689.139 141.461C691.678 141.461 693.28 140.348 694.061 139.039H697.655C696.659 142.262 693.514 144.449 689.139 144.43ZM682.596 131.656H694.569C694.549 128.121 692.323 125.484 688.827 125.484C685.155 125.484 682.83 128.375 682.596 131.656ZM704.902 131.266V144H701.542V122.789H704.784V126.109H705.058C706.054 123.941 708.046 122.516 711.269 122.516C715.566 122.516 718.437 125.133 718.417 130.523V144H715.058V130.758C715.058 127.477 713.261 125.523 710.253 125.523C707.167 125.523 704.902 127.594 704.902 131.266ZM732.266 122.789V125.602H727.812V137.906C727.793 140.621 729.16 141.07 730.586 141.07C731.191 141.07 732.09 141.012 732.578 140.992V144.117C732.051 144.195 731.23 144.273 730.234 144.273C727.402 144.273 724.434 142.516 724.414 138.766V125.602H721.211V122.789H724.414V117.711H727.812V122.789H732.266ZM746.173 132.086C746.193 125.133 748.068 119.332 751.447 114.43H754.455C751.798 118.062 749.67 125.523 749.65 132.086C749.67 138.668 751.798 146.129 754.455 149.781H751.447C748.068 144.859 746.193 139.059 746.173 132.086ZM777.6 124.547C776.389 120.914 773.635 118.609 769.592 118.609C764.592 118.609 760.627 122.555 760.608 129.859C760.627 137.145 764.592 141.09 769.827 141.109C774.592 141.09 777.893 137.926 777.952 132.906H770.569V129.82H781.389V132.867C781.389 139.879 776.565 144.391 769.827 144.391C762.268 144.391 757.19 138.805 757.209 129.859C757.19 120.914 762.327 115.328 769.592 115.328C775.569 115.328 780.178 119.078 781.233 124.547H777.6ZM805.159 124.625C804.339 120.719 800.999 118.609 797.269 118.609C792.152 118.609 788.187 122.555 788.167 129.859C788.187 137.145 792.152 141.09 797.269 141.109C800.999 141.09 804.32 139 805.159 135.133H808.675C807.659 140.914 803.011 144.391 797.269 144.391C790.003 144.391 784.749 138.805 784.769 129.859C784.749 120.914 790.003 115.328 797.269 115.328C802.991 115.328 807.62 118.746 808.675 124.625H805.159ZM821.586 144H812.797V115.719H821.938C830.199 115.719 835.062 121.012 835.062 129.82C835.062 138.648 830.199 144 821.586 144ZM816.312 140.875H821.352C828.285 140.875 831.625 136.676 831.625 129.82C831.625 122.984 828.285 118.844 821.703 118.844H816.312V140.875ZM846.098 132.086C846.079 139.039 844.204 144.84 840.825 149.742H837.817C840.473 146.109 842.602 138.648 842.622 132.086C842.602 125.504 840.473 118.043 837.817 114.391H840.825C844.204 119.312 846.079 125.113 846.098 132.086Z" fill="#1E1E1E"/>
<path d="M334.453 209.375C333.961 207.031 331.957 205.766 329.719 205.766C326.648 205.766 324.27 208.133 324.258 212.516C324.27 216.887 326.648 219.254 329.719 219.266C331.957 219.254 333.949 218 334.453 215.68H336.562C335.953 219.148 333.164 221.234 329.719 221.234C325.359 221.234 322.207 217.883 322.219 212.516C322.207 207.148 325.359 203.797 329.719 203.797C333.152 203.797 335.93 205.848 336.562 209.375H334.453ZM340.793 213.359V221H338.778V204.031H340.793V210.266H340.958C341.555 208.953 342.692 208.109 344.708 208.109C347.309 208.109 349.043 209.645 349.043 212.914V221H347.028V213.055C347.028 211.051 345.926 209.914 344.098 209.914C342.2 209.914 340.793 211.156 340.793 213.359ZM357.142 221.258C353.462 221.27 351.188 218.645 351.188 214.742C351.188 210.828 353.497 208.109 356.954 208.109C359.626 208.109 362.45 209.75 362.438 214.461V215.305H353.204C353.31 218 354.88 219.477 357.142 219.477C358.665 219.477 359.626 218.809 360.095 218.023H362.251C361.653 219.957 359.767 221.27 357.142 221.258ZM353.216 213.594H360.399C360.388 211.473 359.052 209.891 356.954 209.891C354.751 209.891 353.356 211.625 353.216 213.594ZM364.583 221V208.273H366.529V210.266H366.693C367.22 208.906 368.451 208.109 370.115 208.109C371.779 208.109 372.915 208.906 373.513 210.266H373.654C374.298 208.953 375.646 208.109 377.474 208.109C379.736 208.109 381.365 209.492 381.365 212.492V221H379.349V212.516C379.337 210.641 378.165 209.914 376.771 209.914C375.001 209.914 373.994 211.109 373.982 212.727V221H371.943V212.305C371.955 210.875 370.923 209.914 369.458 209.914C367.935 209.914 366.599 211.203 366.599 213.055V221H364.583ZM384.119 221V208.273H386.135V221H384.119ZM383.721 204.828C383.709 204.078 384.353 203.48 385.127 203.492C385.9 203.48 386.545 204.078 386.557 204.828C386.545 205.566 385.9 206.164 385.127 206.164C384.353 206.164 383.709 205.566 383.721 204.828ZM394.069 221.258C390.459 221.27 388.256 218.516 388.256 214.695C388.256 210.828 390.565 208.109 394.022 208.109C396.729 208.109 398.768 209.715 399.084 212.117H397.069C396.776 210.957 395.768 209.891 394.069 209.891C391.795 209.891 390.284 211.766 390.272 214.625C390.284 217.566 391.76 219.453 394.069 219.453C395.569 219.453 396.717 218.645 397.069 217.25H399.084C398.768 219.523 396.893 221.27 394.069 221.258ZM400.479 217.391C400.479 214.473 403.058 213.805 405.261 213.641C406.081 213.582 408.132 213.465 408.706 213.453V212.422C408.706 210.805 407.745 209.867 405.823 209.867C404.218 209.867 403.245 210.605 402.964 211.578H400.854C401.112 209.527 403.104 208.109 405.917 208.109C407.581 208.109 410.71 208.602 410.698 212.609V221H408.706V219.266H408.612C408.19 220.121 407.03 221.293 404.815 221.305C402.401 221.293 400.479 219.875 400.479 217.391ZM402.495 217.484C402.507 218.832 403.62 219.512 405.167 219.5C407.44 219.512 408.706 217.988 408.706 216.383V215.105C408.108 215.141 406.104 215.293 405.495 215.328C403.667 215.445 402.507 216.09 402.495 217.484ZM415.468 204.031V221H413.452V204.031H415.468ZM426.11 204.031V221H424V204.031H426.11ZM431.137 213.359V221H429.122V208.273H431.067V210.266H431.231C431.829 208.965 433.024 208.109 434.958 208.109C437.536 208.109 439.259 209.68 439.247 212.914V221H437.231V213.055C437.231 211.086 436.153 209.914 434.348 209.914C432.497 209.914 431.137 211.156 431.137 213.359ZM446.806 221.258C443.63 221.27 441.392 218.715 441.392 214.672C441.392 210.641 443.63 208.109 446.829 208.109C449.302 208.109 450.075 209.609 450.509 210.289H450.65V204.031H452.689V221H450.72V219.055H450.509C450.064 219.758 449.232 221.27 446.806 221.258ZM443.431 214.625C443.431 217.332 444.673 219.453 447.087 219.453C449.419 219.453 450.708 217.484 450.72 214.625C450.708 211.801 449.454 209.914 447.087 209.914C444.638 209.914 443.431 211.965 443.431 214.625ZM455.701 221V208.273H457.717V221H455.701ZM455.303 204.828C455.291 204.078 455.935 203.48 456.709 203.492C457.482 203.48 458.127 204.078 458.138 204.828C458.127 205.566 457.482 206.164 456.709 206.164C455.935 206.164 455.291 205.566 455.303 204.828ZM465.651 221.258C462.041 221.27 459.838 218.516 459.838 214.695C459.838 210.828 462.147 208.109 465.604 208.109C468.311 208.109 470.35 209.715 470.666 212.117H468.651C468.358 210.957 467.35 209.891 465.651 209.891C463.377 209.891 461.865 211.766 461.854 214.625C461.865 217.566 463.342 219.453 465.651 219.453C467.151 219.453 468.299 218.645 468.651 217.25H470.666C470.35 219.523 468.475 221.27 465.651 221.258ZM472.061 217.391C472.061 214.473 474.639 213.805 476.842 213.641C477.663 213.582 479.714 213.465 480.288 213.453V212.422C480.288 210.805 479.327 209.867 477.405 209.867C475.8 209.867 474.827 210.605 474.546 211.578H472.436C472.694 209.527 474.686 208.109 477.499 208.109C479.163 208.109 482.292 208.602 482.28 212.609V221H480.288V219.266H480.194C479.772 220.121 478.612 221.293 476.397 221.305C473.983 221.293 472.061 219.875 472.061 217.391ZM474.077 217.484C474.089 218.832 475.202 219.512 476.749 219.5C479.022 219.512 480.288 217.988 480.288 216.383V215.105C479.69 215.141 477.686 215.293 477.077 215.328C475.249 215.445 474.089 216.09 474.077 217.484ZM490.589 208.273V209.961H487.917V217.344C487.905 218.973 488.726 219.242 489.581 219.242C489.945 219.242 490.484 219.207 490.777 219.195V221.07C490.46 221.117 489.968 221.164 489.37 221.164C487.671 221.164 485.89 220.109 485.878 217.859V209.961H483.956V208.273H485.878V205.227H487.917V208.273H490.589ZM497.773 221.258C494.304 221.27 491.961 218.645 491.961 214.695C491.961 210.723 494.304 208.109 497.773 208.109C501.23 208.109 503.55 210.723 503.539 214.695C503.55 218.645 501.23 221.27 497.773 221.258ZM493.976 214.695C493.988 217.238 495.183 219.477 497.773 219.477C500.34 219.477 501.523 217.238 501.523 214.695C501.523 212.164 500.34 209.891 497.773 209.891C495.183 209.891 493.988 212.164 493.976 214.695ZM505.707 221V208.273H507.652V210.219H507.793C508.25 208.93 509.574 208.074 511.074 208.062C511.379 208.074 511.895 208.086 512.129 208.109V210.148C511.977 210.113 511.438 210.008 510.91 210.008C509.082 210.008 507.723 211.273 507.723 212.984V221H505.707ZM520.696 211.578C520.415 210.523 519.606 209.832 518.118 209.82C516.548 209.832 515.434 210.676 515.423 211.742C515.434 212.586 516.114 213.16 517.602 213.523L519.501 213.992C521.774 214.531 522.887 215.668 522.899 217.438C522.887 219.641 521.094 221.27 517.907 221.258C515.048 221.27 513.348 219.992 513.008 217.672H515.118C515.352 218.914 516.255 219.512 517.86 219.5C519.676 219.512 520.813 218.75 520.813 217.555C520.813 216.652 520.169 216.066 518.727 215.727L516.805 215.281C514.59 214.766 513.407 213.559 513.407 211.859C513.407 209.68 515.317 208.109 518.118 208.109C520.755 208.109 522.407 209.516 522.665 211.578H520.696ZM540.689 203.422V211.906H530.916V203.422H540.689ZM532.416 221.398C536.002 221 539.447 218.973 539.447 216.898H533.283V215.469H539.47V213.43H541.298V215.469H547.533V216.898H541.345C541.334 218.926 544.685 220.953 548.259 221.398L547.627 222.828C544.498 222.395 541.638 220.918 540.396 218.996C539.142 220.965 536.212 222.395 533.072 222.828L532.416 221.398ZM532.72 210.453H538.884V204.922H532.72V210.453ZM545.189 214.039V202.062H546.994V214.039H545.189ZM556.651 221V204.031H562.604C566.167 204.031 567.842 206.035 567.831 208.531C567.842 210.711 566.542 211.684 565.065 212.094V212.258C566.647 212.352 568.499 213.805 568.51 216.5C568.499 219.043 566.823 221 562.815 221H556.651ZM558.76 219.125H562.792C565.452 219.125 566.483 217.953 566.471 216.477C566.483 214.754 565.088 213.289 562.909 213.289H558.76V219.125ZM558.76 211.461H562.534C564.374 211.473 565.815 210.324 565.815 208.555C565.815 207.078 564.819 205.906 562.604 205.906H558.76V211.461ZM570.773 221V208.273H572.788V221H570.773ZM570.374 204.828C570.362 204.078 571.007 203.48 571.78 203.492C572.554 203.48 573.198 204.078 573.21 204.828C573.198 205.566 572.554 206.164 571.78 206.164C571.007 206.164 570.362 205.566 570.374 204.828ZM580.722 221.258C577.253 221.27 574.91 218.645 574.91 214.695C574.91 210.723 577.253 208.109 580.722 208.109C584.179 208.109 586.5 210.723 586.488 214.695C586.5 218.645 584.179 221.27 580.722 221.258ZM576.925 214.695C576.937 217.238 578.132 219.477 580.722 219.477C583.289 219.477 584.472 217.238 584.472 214.695C584.472 212.164 583.289 209.891 580.722 209.891C578.132 209.891 576.937 212.164 576.925 214.695ZM590.672 204.031V221H588.656V204.031H590.672ZM598.606 221.258C595.137 221.27 592.793 218.645 592.793 214.695C592.793 210.723 595.137 208.109 598.606 208.109C602.063 208.109 604.383 210.723 604.372 214.695C604.383 218.645 602.063 221.27 598.606 221.258ZM594.809 214.695C594.821 217.238 596.016 219.477 598.606 219.477C601.172 219.477 602.356 217.238 602.356 214.695C602.356 212.164 601.172 209.891 598.606 209.891C596.016 209.891 594.821 212.164 594.809 214.695ZM611.696 226.039C608.614 226.039 606.528 224.691 606.306 222.336H608.415C608.685 223.637 609.892 224.281 611.696 224.281C613.876 224.281 615.212 223.332 615.212 221.234V218.656H615.048C614.614 219.359 613.806 220.801 611.345 220.812C608.251 220.801 605.931 218.469 605.931 214.461C605.931 210.547 608.169 208.109 611.368 208.109C613.841 208.109 614.638 209.609 615.095 210.289H615.259V208.273H617.228V221.352C617.216 224.633 614.802 226.039 611.696 226.039ZM607.97 214.531C607.97 217.168 609.212 219.008 611.626 219.008C613.958 219.008 615.247 217.332 615.259 214.531C615.247 211.801 613.993 209.914 611.626 209.914C609.177 209.914 607.97 211.965 607.97 214.531ZM619.958 221V208.273H621.974V221H619.958ZM619.56 204.828C619.548 204.078 620.193 203.48 620.966 203.492C621.74 203.48 622.384 204.078 622.396 204.828C622.384 205.566 621.74 206.164 620.966 206.164C620.193 206.164 619.548 205.566 619.56 204.828ZM629.908 221.258C626.299 221.27 624.096 218.516 624.096 214.695C624.096 210.828 626.404 208.109 629.861 208.109C632.568 208.109 634.607 209.715 634.924 212.117H632.908C632.615 210.957 631.607 209.891 629.908 209.891C627.635 209.891 626.123 211.766 626.111 214.625C626.123 217.566 627.6 219.453 629.908 219.453C631.408 219.453 632.557 218.645 632.908 217.25H634.924C634.607 219.523 632.732 221.27 629.908 221.258ZM636.319 217.391C636.319 214.473 638.897 213.805 641.1 213.641C641.92 213.582 643.971 213.465 644.545 213.453V212.422C644.545 210.805 643.584 209.867 641.663 209.867C640.057 209.867 639.084 210.605 638.803 211.578H636.694C636.952 209.527 638.944 208.109 641.756 208.109C643.42 208.109 646.549 208.602 646.538 212.609V221H644.545V219.266H644.452C644.03 220.121 642.87 221.293 640.655 221.305C638.241 221.293 636.319 219.875 636.319 217.391ZM638.334 217.484C638.346 218.832 639.459 219.512 641.006 219.5C643.28 219.512 644.545 217.988 644.545 216.383V215.105C643.948 215.141 641.944 215.293 641.334 215.328C639.506 215.445 638.346 216.09 638.334 217.484ZM651.307 204.031V221H649.292V204.031H651.307ZM661.949 204.031V221H659.84V204.031H661.949ZM666.977 213.359V221H664.961V208.273H666.907V210.266H667.071C667.668 208.965 668.864 208.109 670.797 208.109C673.375 208.109 675.098 209.68 675.086 212.914V221H673.071V213.055C673.071 211.086 671.992 209.914 670.188 209.914C668.336 209.914 666.977 211.156 666.977 213.359ZM682.645 221.258C679.47 221.27 677.231 218.715 677.231 214.672C677.231 210.641 679.47 208.109 682.669 208.109C685.141 208.109 685.915 209.609 686.348 210.289H686.489V204.031H688.528V221H686.559V219.055H686.348C685.903 219.758 685.071 221.27 682.645 221.258ZM679.27 214.625C679.27 217.332 680.513 219.453 682.927 219.453C685.259 219.453 686.548 217.484 686.559 214.625C686.548 211.801 685.294 209.914 682.927 209.914C680.477 209.914 679.27 211.965 679.27 214.625ZM691.54 221V208.273H693.556V221H691.54ZM691.142 204.828C691.13 204.078 691.775 203.48 692.548 203.492C693.322 203.48 693.966 204.078 693.978 204.828C693.966 205.566 693.322 206.164 692.548 206.164C691.775 206.164 691.13 205.566 691.142 204.828ZM701.49 221.258C697.881 221.27 695.677 218.516 695.677 214.695C695.677 210.828 697.986 208.109 701.443 208.109C704.15 208.109 706.189 209.715 706.506 212.117H704.49C704.197 210.957 703.189 209.891 701.49 209.891C699.217 209.891 697.705 211.766 697.693 214.625C697.705 217.566 699.181 219.453 701.49 219.453C702.99 219.453 704.138 218.645 704.49 217.25H706.506C706.189 219.523 704.314 221.27 701.49 221.258ZM707.901 217.391C707.901 214.473 710.479 213.805 712.682 213.641C713.502 213.582 715.553 213.465 716.127 213.453V212.422C716.127 210.805 715.166 209.867 713.244 209.867C711.639 209.867 710.666 210.605 710.385 211.578H708.276C708.533 209.527 710.526 208.109 713.338 208.109C715.002 208.109 718.131 208.602 718.119 212.609V221H716.127V219.266H716.033C715.612 220.121 714.451 221.293 712.237 221.305C709.823 221.293 707.901 219.875 707.901 217.391ZM709.916 217.484C709.928 218.832 711.041 219.512 712.588 219.5C714.862 219.512 716.127 217.988 716.127 216.383V215.105C715.53 215.141 713.526 215.293 712.916 215.328C711.088 215.445 709.928 216.09 709.916 217.484ZM726.428 208.273V209.961H723.757V217.344C723.745 218.973 724.565 219.242 725.421 219.242C725.784 219.242 726.323 219.207 726.616 219.195V221.07C726.3 221.117 725.807 221.164 725.21 221.164C723.51 221.164 721.729 220.109 721.717 217.859V209.961H719.796V208.273H721.717V205.227H723.757V208.273H726.428ZM733.612 221.258C730.144 221.27 727.8 218.645 727.8 214.695C727.8 210.723 730.144 208.109 733.612 208.109C737.07 208.109 739.39 210.723 739.378 214.695C739.39 218.645 737.07 221.27 733.612 221.258ZM729.816 214.695C729.827 217.238 731.023 219.477 733.612 219.477C736.179 219.477 737.362 217.238 737.362 214.695C737.362 212.164 736.179 209.891 733.612 209.891C731.023 209.891 729.827 212.164 729.816 214.695ZM741.547 221V208.273H743.492V210.219H743.633C744.09 208.93 745.414 208.074 746.914 208.062C747.218 208.074 747.734 208.086 747.968 208.109V210.148C747.816 210.113 747.277 210.008 746.75 210.008C744.922 210.008 743.562 211.273 743.562 212.984V221H741.547ZM756.535 211.578C756.254 210.523 755.445 209.832 753.957 209.82C752.387 209.832 751.274 210.676 751.262 211.742C751.274 212.586 751.953 213.16 753.442 213.523L755.34 213.992C757.613 214.531 758.727 215.668 758.738 217.438C758.727 219.641 756.934 221.27 753.746 221.258C750.887 221.27 749.188 219.992 748.848 217.672H750.957C751.192 218.914 752.094 219.512 753.699 219.5C755.516 219.512 756.652 218.75 756.652 217.555C756.652 216.652 756.008 216.066 754.567 215.727L752.645 215.281C750.43 214.766 749.246 213.559 749.246 211.859C749.246 209.68 751.156 208.109 753.957 208.109C756.594 208.109 758.246 209.516 758.504 211.578H756.535ZM779.165 211.742V213.195H760.087V211.742H779.165ZM762.383 216.242V214.859H776.774V219.289H764.258V221.281H777.454V222.617H762.407V218.023H774.946V216.242H762.383ZM762.501 204.031V202.695H776.704V207.008H764.399V208.836H777.079V210.172H762.571V205.742H774.852V204.031H762.501ZM804.9 213.125V214.625H785.892V213.125H794.47V211.062H788.423V202.672H802.533V204.172H790.275V206.117H801.97V207.523H790.275V209.586H802.65V211.062H796.298V213.125H804.9ZM788.212 219.523C788.201 217.355 790.791 216.172 795.408 216.195C799.978 216.172 802.556 217.355 802.58 219.523C802.556 221.715 799.978 222.852 795.408 222.852C790.791 222.852 788.201 221.715 788.212 219.523ZM790.064 219.523C790.041 220.789 791.962 221.445 795.408 221.422C798.818 221.445 800.716 220.789 800.728 219.523C800.716 218.281 798.818 217.59 795.408 217.578C791.962 217.59 790.041 218.281 790.064 219.523ZM816.584 205.672V207.172H806.131V205.672H810.467V202.695H812.295V205.672H816.584ZM806.881 213.312C806.881 210.547 808.768 208.59 811.358 208.578C813.983 208.59 815.858 210.547 815.881 213.312C815.858 216.113 813.983 218.082 811.358 218.094C808.768 218.082 806.881 216.113 806.881 213.312ZM808.522 213.312C808.522 215.164 809.705 216.488 811.358 216.477C813.022 216.488 814.24 215.164 814.24 213.312C814.24 211.484 813.022 210.148 811.358 210.125C809.705 210.148 808.522 211.484 808.522 213.312ZM817.662 221.867V202.578H819.397V210.852H822.162V202.062H823.92V222.898H822.162V212.375H819.397V221.867H817.662ZM836.507 210.359L838.335 203.984H840.069L838.78 210.359H836.507ZM832.054 210.383L833.882 204.008H835.616L834.327 210.383H832.054ZM846.222 221L841.582 204.031H843.714L847.253 217.766H847.417L851.003 204.031H853.371L856.98 217.766H857.121L860.66 204.031H862.792L858.152 221H855.972L852.269 207.57H852.128L848.402 221H846.222ZM868.289 221.258C864.82 221.27 862.477 218.645 862.477 214.695C862.477 210.723 864.82 208.109 868.289 208.109C871.746 208.109 874.066 210.723 874.055 214.695C874.066 218.645 871.746 221.27 868.289 221.258ZM864.492 214.695C864.504 217.238 865.699 219.477 868.289 219.477C870.855 219.477 872.039 217.238 872.039 214.695C872.039 212.164 870.855 209.891 868.289 209.891C865.699 209.891 864.504 212.164 864.492 214.695ZM876.223 221V208.273H878.168V210.219H878.309C878.766 208.93 880.09 208.074 881.59 208.062C881.895 208.074 882.411 208.086 882.645 208.109V210.148C882.493 210.113 881.954 210.008 881.426 210.008C879.598 210.008 878.239 211.273 878.239 212.984V221H876.223ZM891.212 211.578C890.931 210.523 890.122 209.832 888.634 209.82C887.063 209.832 885.95 210.676 885.938 211.742C885.95 212.586 886.63 213.16 888.118 213.523L890.017 213.992C892.29 214.531 893.403 215.668 893.415 217.438C893.403 219.641 891.61 221.27 888.423 221.258C885.563 221.27 883.864 219.992 883.524 217.672H885.634C885.868 218.914 886.77 219.512 888.376 219.5C890.192 219.512 891.329 218.75 891.329 217.555C891.329 216.652 890.685 216.066 889.243 215.727L887.321 215.281C885.106 214.766 883.923 213.559 883.923 211.859C883.923 209.68 885.833 208.109 888.634 208.109C891.27 208.109 892.923 209.516 893.181 211.578H891.212ZM901.115 208.273V209.961H898.443V217.344C898.431 218.973 899.251 219.242 900.107 219.242C900.47 219.242 901.009 219.207 901.302 219.195V221.07C900.986 221.117 900.494 221.164 899.896 221.164C898.197 221.164 896.415 220.109 896.404 217.859V209.961H894.482V208.273H896.404V205.227H898.443V208.273H901.115ZM909.037 221V204.031H914.803C918.776 204.031 920.592 206.398 920.592 209.422C920.592 212.434 918.776 214.836 914.827 214.836H911.147V221H909.037ZM911.147 212.961H914.733C917.44 212.961 918.495 211.438 918.506 209.422C918.495 207.395 917.44 205.906 914.709 205.906H911.147V212.961ZM927.87 221.258C924.401 221.27 922.057 218.645 922.057 214.695C922.057 210.723 924.401 208.109 927.87 208.109C931.327 208.109 933.647 210.723 933.636 214.695C933.647 218.645 931.327 221.27 927.87 221.258ZM924.073 214.695C924.085 217.238 925.28 219.477 927.87 219.477C930.436 219.477 931.62 217.238 931.62 214.695C931.62 212.164 930.436 209.891 927.87 209.891C925.28 209.891 924.085 212.164 924.073 214.695ZM942.882 211.578C942.601 210.523 941.792 209.832 940.304 209.82C938.734 209.832 937.62 210.676 937.609 211.742C937.62 212.586 938.3 213.16 939.788 213.523L941.687 213.992C943.96 214.531 945.074 215.668 945.085 217.438C945.074 219.641 943.281 221.27 940.093 221.258C937.234 221.27 935.535 219.992 935.195 217.672H937.304C937.538 218.914 938.441 219.512 940.046 219.5C941.863 219.512 942.999 218.75 942.999 217.555C942.999 216.652 942.355 216.066 940.913 215.727L938.992 215.281C936.777 214.766 935.593 213.559 935.593 211.859C935.593 209.68 937.503 208.109 940.304 208.109C942.941 208.109 944.593 209.516 944.851 211.578H942.882ZM947.23 221V208.273H949.246V221H947.23ZM946.832 204.828C946.82 204.078 947.465 203.48 948.238 203.492C949.012 203.48 949.656 204.078 949.668 204.828C949.656 205.566 949.012 206.164 948.238 206.164C947.465 206.164 946.82 205.566 946.832 204.828ZM957.532 208.273V209.961H954.86V217.344C954.848 218.973 955.668 219.242 956.524 219.242C956.887 219.242 957.426 219.207 957.719 219.195V221.07C957.403 221.117 956.91 221.164 956.313 221.164C954.614 221.164 952.832 220.109 952.821 217.859V209.961H950.899V208.273H952.821V205.227H954.86V208.273H957.532ZM959.653 221V208.273H961.669V221H959.653ZM959.255 204.828C959.243 204.078 959.888 203.48 960.661 203.492C961.434 203.48 962.079 204.078 962.091 204.828C962.079 205.566 961.434 206.164 960.661 206.164C959.888 206.164 959.243 205.566 959.255 204.828ZM969.603 221.258C966.134 221.27 963.79 218.645 963.79 214.695C963.79 210.723 966.134 208.109 969.603 208.109C973.06 208.109 975.38 210.723 975.368 214.695C975.38 218.645 973.06 221.27 969.603 221.258ZM965.806 214.695C965.818 217.238 967.013 219.477 969.603 219.477C972.169 219.477 973.353 217.238 973.353 214.695C973.353 212.164 972.169 209.891 969.603 209.891C967.013 209.891 965.818 212.164 965.806 214.695ZM979.552 213.359V221H977.537V208.273H979.482V210.266H979.646C980.244 208.965 981.439 208.109 983.373 208.109C985.951 208.109 987.674 209.68 987.662 212.914V221H985.646V213.055C985.646 211.086 984.568 209.914 982.763 209.914C980.912 209.914 979.552 211.156 979.552 213.359ZM993.955 204.078L992.127 210.453H990.393L991.682 204.078H993.955ZM994.846 210.43L996.135 204.055H998.408L996.58 210.43H994.846ZM1009.2 202.438C1013.83 202.438 1016.55 203.715 1016.56 206.023C1016.55 208.391 1013.83 209.668 1009.2 209.68C1004.55 209.668 1001.82 208.391 1001.82 206.023C1001.82 203.715 1004.55 202.438 1009.2 202.438ZM999.71 212.586V211.086H1018.69V212.586H999.71ZM1002.01 215.797V214.391H1016.26V219.055H1003.88V221.211H1016.89V222.664H1002.05V217.695H1014.45V215.797H1002.01ZM1003.74 206.023C1003.72 207.477 1005.74 208.273 1009.2 208.273C1012.66 208.273 1014.67 207.477 1014.69 206.023C1014.67 204.652 1012.66 203.832 1009.2 203.82C1005.74 203.832 1003.72 204.652 1003.74 206.023ZM1032.64 206C1032.64 208.906 1034.75 211.648 1037.8 212.75L1036.77 214.18C1034.48 213.277 1032.65 211.473 1031.76 209.199C1030.88 211.719 1028.98 213.711 1026.52 214.695L1025.54 213.195C1028.67 212.047 1030.82 209.129 1030.84 205.93V203.352H1032.64V206ZM1029.31 222.453V215.914H1031.16V220.906H1043.26V222.453H1029.31ZM1036.3 208.531V206.984H1040.94V202.086H1042.79V217.695H1040.94V208.531H1036.3ZM1063.05 202.062V214.484H1061.2V209.023H1057V207.5H1061.2V202.062H1063.05ZM1045.87 212.82C1048.97 211.707 1051.17 208.883 1051.17 205.906V205.133H1046.46V203.586H1057.68V205.133H1053.02V205.883C1053.02 208.602 1055.11 211.191 1058.15 212.234L1057.19 213.711C1054.86 212.867 1053.04 211.109 1052.14 208.965C1051.25 211.402 1049.32 213.348 1046.83 214.297L1045.87 212.82ZM1049.15 219.008C1049.14 216.559 1051.8 215.129 1056.14 215.141C1060.46 215.129 1063.12 216.559 1063.12 219.008C1063.12 221.469 1060.46 222.875 1056.14 222.898C1051.8 222.875 1049.14 221.469 1049.15 219.008ZM1050.98 219.008C1050.97 220.52 1052.94 221.434 1056.14 221.422C1059.32 221.434 1061.29 220.52 1061.29 219.008C1061.29 217.484 1059.32 216.57 1056.14 216.57C1052.94 216.57 1050.97 217.484 1050.98 219.008ZM1082.33 202.062V207.406H1085.47V208.977H1082.33V214.18H1080.5V202.062H1082.33ZM1066.09 205.742V204.219H1071.38V201.875H1073.21V204.219H1078.51V205.742H1066.09ZM1067.28 210.359C1067.27 208.133 1069.27 206.715 1072.3 206.703C1075.29 206.715 1077.29 208.133 1077.31 210.359C1077.29 212.586 1075.29 214.027 1072.3 214.016C1069.27 214.027 1067.27 212.586 1067.28 210.359ZM1069.04 210.359C1069.03 211.719 1070.33 212.609 1072.3 212.609C1074.24 212.609 1075.56 211.719 1075.58 210.359C1075.56 209.012 1074.24 208.109 1072.3 208.133C1070.33 208.109 1069.03 209.012 1069.04 210.359ZM1069.16 222.617V215.094H1070.98V217.32H1080.5V215.094H1082.33V222.617H1069.16ZM1070.98 221.141H1080.5V218.773H1070.98V221.141ZM1103.48 202.062V222.898H1101.65V202.062H1103.48ZM1087.66 217.531V204.125H1089.47V215.938C1092.65 215.914 1095.93 215.668 1099.43 214.93L1099.68 216.5C1095.98 217.273 1092.69 217.531 1089.35 217.531H1087.66ZM1122.69 202.062V210.312H1126.18V211.859H1122.69V222.945H1120.86V202.062H1122.69ZM1107.48 217.719V204.102H1117.2V205.625H1109.31V216.172C1113.08 216.16 1115.74 215.996 1118.85 215.422L1119.08 217.016C1115.81 217.602 1113.08 217.719 1109.12 217.719H1107.48ZM1129.03 221.141C1128.21 221.129 1127.51 220.449 1127.53 219.617C1127.51 218.797 1128.21 218.117 1129.03 218.117C1129.86 218.117 1130.54 218.797 1130.53 219.617C1130.54 220.449 1129.86 221.129 1129.03 221.141Z" fill="#1E1E1E"/>
<path d="M328.969 270C328.969 272.906 331.078 275.648 334.125 276.75L333.094 278.18C330.809 277.277 328.98 275.473 328.09 273.199C327.211 275.719 325.312 277.711 322.852 278.695L321.867 277.195C324.996 276.047 327.152 273.129 327.164 269.93V267.352H328.969V270ZM325.641 286.453V279.914H327.492V284.906H339.586V286.453H325.641ZM332.625 272.531V270.984H337.266V266.086H339.117V281.695H337.266V272.531H332.625ZM359.379 266.062V278.484H357.528V273.023H353.333V271.5H357.528V266.062H359.379ZM342.2 276.82C345.293 275.707 347.497 272.883 347.497 269.906V269.133H342.786V267.586H354.012V269.133H349.348V269.883C349.348 272.602 351.434 275.191 354.481 276.234L353.52 277.711C351.188 276.867 349.372 275.109 348.469 272.965C347.579 275.402 345.645 277.348 343.161 278.297L342.2 276.82ZM345.481 283.008C345.469 280.559 348.129 279.129 352.465 279.141C356.79 279.129 359.45 280.559 359.45 283.008C359.45 285.469 356.79 286.875 352.465 286.898C348.129 286.875 345.469 285.469 345.481 283.008ZM347.309 283.008C347.297 284.52 349.266 285.434 352.465 285.422C355.653 285.434 357.622 284.52 357.622 283.008C357.622 281.484 355.653 280.57 352.465 280.57C349.266 280.57 347.297 281.484 347.309 283.008ZM374.485 272.906V274.406H370.267V277.312C372.212 277.23 374.157 277.09 375.962 276.891L376.103 278.25C371.614 278.871 366.657 279 362.743 279L362.462 277.5C364.29 277.488 366.341 277.465 368.438 277.395V274.406H364.36V267.422H374.321V268.945H366.212V272.906H374.485ZM366.024 286.453V280.594H367.853V284.906H380.228V286.453H366.024ZM377.696 281.672V266.086H379.548V281.672H377.696ZM395.041 267.094C398.158 267.07 400.396 268.793 400.385 271.336C400.396 273.879 398.158 275.613 395.041 275.602C391.924 275.613 389.697 273.879 389.697 271.336C389.697 268.793 391.924 267.07 395.041 267.094ZM388.127 277.383C392.041 277.395 397.396 277.312 402.025 276.633L402.143 278.016C400.15 278.379 398.088 278.602 396.072 278.73V286.266H394.244V278.836C392.123 278.93 390.119 278.941 388.385 278.953L388.127 277.383ZM391.502 271.336C391.478 272.965 392.967 274.09 395.041 274.078C397.139 274.09 398.639 272.965 398.627 271.336C398.639 269.719 397.139 268.57 395.041 268.594C392.967 268.57 391.478 269.719 391.502 271.336ZM403.549 286.922V266.086H405.353V286.922H403.549ZM425.616 266.062V286.898H423.764V266.062H425.616ZM408.858 281.438C411.952 280.031 414.319 276.516 414.319 272.859V271.195H409.42V269.695H414.295V266.461H416.123V269.695H420.975V271.195H416.123V272.859C416.123 276.352 418.561 279.727 421.702 281.062L420.67 282.492C418.256 281.426 416.229 279.176 415.256 276.422C414.319 279.328 412.303 281.73 409.889 282.867L408.858 281.438ZM446.558 266.062V286.898H444.776V266.062H446.558ZM428.956 275.062C428.968 270.633 430.725 267.832 433.433 267.82C435.964 267.832 437.675 270.27 437.909 274.195H440.604V266.508H442.362V285.844H440.604V275.719H437.921C437.745 279.773 435.999 282.316 433.433 282.305C430.725 282.316 428.968 279.492 428.956 275.062ZM430.69 275.062C430.667 278.438 431.745 280.57 433.433 280.547C435.132 280.57 436.21 278.438 436.198 275.062C436.21 271.676 435.132 269.555 433.433 269.555C431.745 269.555 430.667 271.676 430.69 275.062ZM456.296 271.664C456.285 275.438 458.71 279.234 461.734 280.617L460.632 282.117C458.265 280.898 456.308 278.414 455.382 275.449C454.456 278.566 452.499 281.238 450.132 282.492L448.937 281.016C451.995 279.516 454.41 275.508 454.421 271.664V267.867H456.296V271.664ZM459.46 274.688V273.188H464.406V266.062H466.234V286.945H464.406V274.688H459.46ZM475.797 285V268.031H481.75C485.313 268.031 486.989 270.035 486.977 272.531C486.989 274.711 485.688 275.684 484.211 276.094V276.258C485.793 276.352 487.645 277.805 487.657 280.5C487.645 283.043 485.969 285 481.961 285H475.797ZM477.907 283.125H481.938C484.598 283.125 485.629 281.953 485.617 280.477C485.629 278.754 484.235 277.289 482.055 277.289H477.907V283.125ZM477.907 275.461H481.68C483.52 275.473 484.961 274.324 484.961 272.555C484.961 271.078 483.965 269.906 481.75 269.906H477.907V275.461ZM492.286 268.031V285H490.177V268.031H492.286ZM501.345 267.586C504.615 267.598 506.935 269.59 506.947 272.484C506.935 275.391 504.615 277.371 501.345 277.383C498.052 277.371 495.708 275.391 495.72 272.484C495.708 269.59 498.052 267.598 501.345 267.586ZM494.642 280.781C498.486 280.793 503.794 280.758 508.4 280.078L508.54 281.438C503.771 282.328 498.65 282.352 494.9 282.352L494.642 280.781ZM497.525 272.484C497.513 274.43 499.118 275.766 501.345 275.766C503.548 275.766 505.154 274.43 505.142 272.484C505.154 270.551 503.548 269.203 501.345 269.203C499.118 269.203 497.513 270.551 497.525 272.484ZM509.783 286.945V266.062H511.611V286.945H509.783ZM526.987 285.234C524.045 285.199 520.799 283.453 520.799 277.172C520.799 271.16 523.26 267.797 527.244 267.797C530.233 267.797 532.319 269.637 532.752 272.297H530.666C530.28 270.797 529.131 269.672 527.244 269.672C524.455 269.672 522.78 272.051 522.791 276.141H523.002C523.975 274.723 525.533 273.891 527.362 273.891C530.373 273.891 532.893 276.234 532.893 279.516C532.893 282.715 530.561 285.27 526.987 285.234ZM523.072 279.562C523.084 281.555 524.713 283.371 526.987 283.383C529.178 283.371 530.842 281.648 530.854 279.539C530.842 277.453 529.248 275.754 527.033 275.742C524.807 275.754 523.096 277.559 523.072 279.562ZM542.902 268.031V285H540.886V268.031H542.902ZM550.836 285.258C547.367 285.27 545.023 282.645 545.023 278.695C545.023 274.723 547.367 272.109 550.836 272.109C554.293 272.109 556.613 274.723 556.601 278.695C556.613 282.645 554.293 285.27 550.836 285.258ZM547.039 278.695C547.05 281.238 548.246 283.477 550.836 283.477C553.402 283.477 554.586 281.238 554.586 278.695C554.586 276.164 553.402 273.891 550.836 273.891C548.246 273.891 547.05 276.164 547.039 278.695ZM563.926 290.039C560.844 290.039 558.758 288.691 558.535 286.336H560.645C560.914 287.637 562.121 288.281 563.926 288.281C566.106 288.281 567.442 287.332 567.442 285.234V282.656H567.277C566.844 283.359 566.035 284.801 563.574 284.812C560.481 284.801 558.16 282.469 558.16 278.461C558.16 274.547 560.399 272.109 563.598 272.109C566.07 272.109 566.867 273.609 567.324 274.289H567.488V272.273H569.457V285.352C569.445 288.633 567.031 290.039 563.926 290.039ZM560.199 278.531C560.199 281.168 561.442 283.008 563.856 283.008C566.188 283.008 567.477 281.332 567.488 278.531C567.477 275.801 566.223 273.914 563.856 273.914C561.406 273.914 560.199 275.965 560.199 278.531ZM577.732 285V272.273H579.677V274.219H579.818C580.275 272.93 581.599 272.074 583.099 272.062C583.403 272.074 583.919 272.086 584.153 272.109V274.148C584.001 274.113 583.462 274.008 582.935 274.008C581.107 274.008 579.747 275.273 579.747 276.984V285H577.732ZM590.564 285.258C586.884 285.27 584.611 282.645 584.611 278.742C584.611 274.828 586.92 272.109 590.377 272.109C593.048 272.109 595.873 273.75 595.861 278.461V279.305H586.627C586.732 282 588.302 283.477 590.564 283.477C592.087 283.477 593.048 282.809 593.517 282.023H595.673C595.076 283.957 593.189 285.27 590.564 285.258ZM586.638 277.594H593.822C593.81 275.473 592.474 273.891 590.377 273.891C588.173 273.891 586.779 275.625 586.638 277.594ZM602.811 285.258C599.635 285.27 597.397 282.715 597.397 278.672C597.397 274.641 599.635 272.109 602.834 272.109C605.307 272.109 606.08 273.609 606.514 274.289H606.654V268.031H608.693V285H606.725V283.055H606.514C606.068 283.758 605.236 285.27 602.811 285.258ZM599.436 278.625C599.436 281.332 600.678 283.453 603.092 283.453C605.424 283.453 606.713 281.484 606.725 278.625C606.713 275.801 605.459 273.914 603.092 273.914C600.643 273.914 599.436 275.965 599.436 278.625ZM619.745 279.773V272.273H621.737V285H619.745V282.844H619.604C619.006 284.133 617.741 285.164 615.831 285.164C613.417 285.164 611.694 283.594 611.706 280.359V272.273H613.721V280.219C613.721 282.047 614.858 283.23 616.487 283.219C617.928 283.23 619.733 282.152 619.745 279.773ZM629.694 285.258C626.085 285.27 623.882 282.516 623.882 278.695C623.882 274.828 626.19 272.109 629.647 272.109C632.355 272.109 634.394 273.715 634.71 276.117H632.694C632.401 274.957 631.394 273.891 629.694 273.891C627.421 273.891 625.909 275.766 625.897 278.625C625.909 281.566 627.386 283.453 629.694 283.453C631.194 283.453 632.343 282.645 632.694 281.25H634.71C634.394 283.523 632.519 285.27 629.694 285.258ZM642.269 272.273V273.961H639.597V281.344C639.585 282.973 640.406 283.242 641.261 283.242C641.625 283.242 642.164 283.207 642.457 283.195V285.07C642.14 285.117 641.648 285.164 641.05 285.164C639.351 285.164 637.57 284.109 637.558 281.859V273.961H635.636V272.273H637.558V269.227H639.597V272.273H642.269ZM644.391 285V272.273H646.406V285H644.391ZM643.992 268.828C643.98 268.078 644.625 267.48 645.398 267.492C646.172 267.48 646.816 268.078 646.828 268.828C646.816 269.566 646.172 270.164 645.398 270.164C644.625 270.164 643.98 269.566 643.992 268.828ZM654.34 285.258C650.872 285.27 648.528 282.645 648.528 278.695C648.528 274.723 650.872 272.109 654.34 272.109C657.797 272.109 660.118 274.723 660.106 278.695C660.118 282.645 657.797 285.27 654.34 285.258ZM650.543 278.695C650.555 281.238 651.75 283.477 654.34 283.477C656.907 283.477 658.09 281.238 658.09 278.695C658.09 276.164 656.907 273.891 654.34 273.891C651.75 273.891 650.555 276.164 650.543 278.695ZM664.29 277.359V285H662.274V272.273H664.22V274.266H664.384C664.981 272.965 666.177 272.109 668.11 272.109C670.688 272.109 672.411 273.68 672.399 276.914V285H670.384V277.055C670.384 275.086 669.306 273.914 667.501 273.914C665.649 273.914 664.29 275.156 664.29 277.359ZM683.872 266.438C688.501 266.438 691.22 267.715 691.232 270.023C691.22 272.391 688.501 273.668 683.872 273.68C679.22 273.668 676.49 272.391 676.49 270.023C676.49 267.715 679.22 266.438 683.872 266.438ZM674.38 276.586V275.086H693.365V276.586H674.38ZM676.677 279.797V278.391H690.927V283.055H678.552V285.211H691.56V286.664H676.724V281.695H689.122V279.797H676.677ZM678.412 270.023C678.388 271.477 680.415 272.273 683.872 272.273C687.33 272.273 689.345 271.477 689.357 270.023C689.345 268.652 687.33 267.832 683.872 267.82C680.415 267.832 678.388 268.652 678.412 270.023ZM717.014 275.836V277.336H710.569V282.727H719.264V284.273H700.186V282.727H708.764V277.336H702.623V267.773H716.803V269.273H704.475V275.836H717.014ZM739.432 275.344V276.773H730.831V278.719H736.995V283.219H724.62V285.258H737.628V286.664H722.792V281.906H735.19V280.102H722.745V278.719H729.026V276.773H720.472V275.344H739.432ZM721.479 272.977C725.3 272.73 728.557 271.43 728.897 269.344H722.417V267.891H729.026V265.945H730.831V267.891H737.511V269.344H730.972C731.3 271.43 734.557 272.73 738.401 272.977L737.839 274.383C734.358 274.09 731.218 273.012 729.94 271.031C728.651 273.012 725.511 274.09 722.018 274.383L721.479 272.977ZM756.835 266.062V274.664H760.328V276.188H756.835V286.898H755.007V266.062H756.835ZM740.593 270.938V269.414H745.96V266.32H747.788V269.414H752.992V270.938H740.593ZM741.788 277.453C741.777 274.641 743.933 272.672 746.898 272.672C749.839 272.672 751.984 274.641 752.007 277.453C751.984 280.277 749.839 282.234 746.898 282.234C743.933 282.234 741.777 280.277 741.788 277.453ZM743.546 277.453C743.535 279.352 744.953 280.688 746.898 280.664C748.82 280.688 750.226 279.352 750.249 277.453C750.226 275.566 748.82 274.207 746.898 274.219C744.953 274.207 743.535 275.566 743.546 277.453ZM771.519 267.891V269.742H776.394V266.086H778.246V281.297H776.394V275.742H771.519V277.617H761.957V267.891H771.519ZM763.785 276.141H769.715V269.414H763.785V276.141ZM764.769 286.453V279.938H766.621V284.906H778.715V286.453H764.769ZM771.519 274.219H776.394V271.289H771.519V274.219ZM784.657 283.43L782.828 289.805H781.094L782.383 283.43H784.657ZM800.337 277.055V280.898C802.353 280.793 804.392 280.629 806.314 280.336L806.454 281.695C801.685 282.562 796.564 282.598 792.814 282.586L792.556 281.062C794.302 281.051 796.365 281.039 798.533 280.969V277.055H800.337ZM793.189 276.328C796.271 275.414 798.439 273.129 798.486 270.328H793.704V268.805H798.533V266.227H800.337V268.805H805.236V270.328H800.337C800.396 273.012 802.622 275.215 805.704 276.094L804.837 277.547C802.341 276.797 800.372 275.191 799.435 273.082C798.533 275.309 796.587 276.973 794.079 277.734L793.189 276.328ZM807.697 286.945V266.062H809.525V286.945H807.697ZM819.943 269.906C819.943 272.613 822.029 275.203 825.076 276.258L824.115 277.711C821.771 276.867 819.955 275.121 819.064 272.977C818.162 275.367 816.228 277.289 813.756 278.203L812.795 276.75C815.865 275.648 818.092 272.871 818.092 269.93V269.016H813.381V267.516H824.607V269.016H819.943V269.906ZM815.959 281.18V279.656H829.974V286.898H828.123V281.18H815.959ZM823.951 273.07V271.523H828.123V266.062H829.974V278.555H828.123V273.07H823.951ZM849.135 266.062V274.945H852.463V276.492H849.135V286.898H847.283V266.062H849.135ZM832.705 281.344C834.405 281.344 836.385 281.332 838.448 281.273V278.977C836.022 278.695 834.44 277.266 834.463 275.203C834.44 272.848 836.432 271.324 839.385 271.336C842.291 271.324 844.319 272.848 844.33 275.203C844.319 277.277 842.713 278.695 840.299 278.977V281.203C842.233 281.109 844.201 280.945 846.018 280.688L846.135 282.094C841.588 282.867 836.666 282.914 833.01 282.914L832.705 281.344ZM833.08 270.117V268.617H838.448V266.109H840.299V268.617H845.643V270.117H833.08ZM836.174 275.203C836.186 276.645 837.451 277.594 839.385 277.57C841.283 277.594 842.561 276.645 842.573 275.203C842.561 273.75 841.283 272.766 839.385 272.766C837.451 272.766 836.186 273.75 836.174 275.203ZM865.343 272.906V274.406H861.124V277.312C863.069 277.23 865.014 277.09 866.819 276.891L866.96 278.25C862.471 278.871 857.514 279 853.6 279L853.319 277.5C855.147 277.488 857.198 277.465 859.296 277.395V274.406H855.218V267.422H865.178V268.945H857.069V272.906H865.343ZM856.882 286.453V280.594H858.71V284.906H871.085V286.453H856.882ZM868.553 281.672V266.086H870.405V281.672H868.553ZM898.015 275.812V277.336H889.414V279.562C893.34 279.738 895.672 281.016 895.695 283.219C895.672 285.551 892.988 286.852 888.523 286.852C884 286.852 881.316 285.551 881.328 283.219C881.316 281.016 883.636 279.738 887.609 279.562V277.336H879.031V275.812H898.015ZM880.109 273.094C883.718 272.719 887.199 270.879 887.328 268.547H880.765V267.047H896.328V268.547H889.718C889.847 270.879 893.293 272.719 896.961 273.094L896.281 274.547C892.871 274.137 889.672 272.602 888.523 270.293C887.375 272.602 884.199 274.137 880.765 274.547L880.109 273.094ZM883.203 283.219C883.179 284.602 885.183 285.434 888.523 285.422C891.828 285.434 893.832 284.602 893.843 283.219C893.832 281.801 891.828 280.992 888.523 280.969C885.183 280.992 883.179 281.801 883.203 283.219ZM918.371 282.68V284.227H899.293V282.68H904.028V277.066C902.246 276.141 901.168 274.641 901.168 272.742C901.168 269.52 904.332 267.398 908.785 267.375C913.238 267.398 916.403 269.52 916.403 272.742C916.403 274.605 915.36 276.082 913.637 277.008V282.68H918.371ZM902.949 272.742C902.938 275.074 905.363 276.633 908.785 276.633C912.172 276.633 914.621 275.074 914.621 272.742C914.621 270.41 912.172 268.875 908.785 268.898C905.363 268.875 902.938 270.41 902.949 272.742ZM905.832 282.68H911.785V277.723C910.883 277.957 909.875 278.086 908.785 278.086C907.719 278.086 906.723 277.969 905.832 277.734V282.68ZM934.521 279.234C938.985 279.234 941.821 280.641 941.833 283.055C941.821 285.445 938.985 286.852 934.521 286.852C930.056 286.852 927.22 285.445 927.232 283.055C927.22 280.641 930.056 279.234 934.521 279.234ZM925.122 277.289V275.789H932.974V271.758H934.778V275.789H944.083V277.289H925.122ZM927.372 268.641V267.141H941.669V268.898C941.657 270.586 941.657 272.273 941.083 274.43L939.278 274.219C939.841 272.074 939.841 270.527 939.841 268.898V268.641H927.372ZM929.06 283.055C929.048 284.508 931.204 285.398 934.521 285.398C937.849 285.398 939.982 284.508 940.005 283.055C939.982 281.566 937.849 280.652 934.521 280.641C931.204 280.652 929.048 281.566 929.06 283.055ZM962.634 266.062V278.484H960.783V273.023H956.588V271.5H960.783V266.062H962.634ZM945.455 276.82C948.548 275.707 950.752 272.883 950.752 269.906V269.133H946.041V267.586H957.267V269.133H952.603V269.883C952.603 272.602 954.689 275.191 957.736 276.234L956.775 277.711C954.443 276.867 952.627 275.109 951.724 272.965C950.834 275.402 948.9 277.348 946.416 278.297L945.455 276.82ZM948.736 283.008C948.724 280.559 951.384 279.129 955.72 279.141C960.045 279.129 962.705 280.559 962.705 283.008C962.705 285.469 960.045 286.875 955.72 286.898C951.384 286.875 948.724 285.469 948.736 283.008ZM950.564 283.008C950.552 284.52 952.521 285.434 955.72 285.422C958.908 285.434 960.877 284.52 960.877 283.008C960.877 281.484 958.908 280.57 955.72 280.57C952.521 280.57 950.552 281.484 950.564 283.008ZM988.44 266.086V281.508H986.588V275.906H981.667V277.945H972.221V267.469H974.049V271.172H979.862V267.469H981.667V269.906H986.588V266.086H988.44ZM974.049 276.422H979.862V272.625H974.049V276.422ZM974.963 286.453V279.984H976.815V284.906H988.909V286.453H974.963ZM981.667 274.383H986.588V271.453H981.667V274.383ZM1001.88 268.008C1001.89 270.949 1005.71 273.48 1009.48 274.008L1008.73 275.508C1005.49 274.969 1002.28 273.176 1000.94 270.621C999.608 273.199 996.409 274.969 993.163 275.508L992.413 274.008C996.175 273.48 999.983 270.996 999.983 268.008V266.812H1001.88V268.008ZM991.429 279.352V277.805H1010.41V279.352H1001.79V286.898H999.983V279.352H991.429ZM1033.52 266.062V270.867H1036.66V272.438H1033.52V277.383H1031.7V266.062H1033.52ZM1017.28 276.094C1022.44 274.863 1025.51 272.227 1025.84 268.852H1018.22V267.328H1027.85C1027.84 272.555 1024.14 276.094 1017.98 277.617L1017.28 276.094ZM1019.55 286.617V278.461H1021.27V280.992H1025.02V278.461H1026.73V286.617H1019.55ZM1021.27 285.141H1025.02V282.422H1021.27V285.141ZM1026.84 285.398C1029.3 284.32 1030.52 282 1030.55 280.008V278.25H1032.3V279.938C1032.3 282 1033.51 284.332 1035.94 285.398L1034.95 286.805C1033.21 286.02 1032.05 284.578 1031.43 282.949C1030.79 284.578 1029.61 286.02 1027.85 286.805L1026.84 285.398ZM1046.99 266.438C1051.62 266.438 1054.34 267.715 1054.35 270.023C1054.34 272.391 1051.62 273.668 1046.99 273.68C1042.34 273.668 1039.61 272.391 1039.61 270.023C1039.61 267.715 1042.34 266.438 1046.99 266.438ZM1037.5 276.586V275.086H1056.48V276.586H1037.5ZM1039.79 279.797V278.391H1054.04V283.055H1041.67V285.211H1054.68V286.664H1039.84V281.695H1052.24V279.797H1039.79ZM1041.53 270.023C1041.5 271.477 1043.53 272.273 1046.99 272.273C1050.45 272.273 1052.46 271.477 1052.47 270.023C1052.46 268.652 1050.45 267.832 1046.99 267.82C1043.53 267.832 1041.5 268.652 1041.53 270.023ZM1080.48 266.062V286.945H1078.63V266.062H1080.48ZM1064.08 274.945C1064.09 270.516 1066.29 267.691 1069.4 267.68C1072.49 267.691 1074.73 270.516 1074.72 274.945C1074.73 279.387 1072.49 282.199 1069.4 282.188C1066.29 282.199 1064.09 279.387 1064.08 274.945ZM1065.86 274.945C1065.86 278.332 1067.31 280.559 1069.4 280.547C1071.49 280.559 1072.93 278.332 1072.93 274.945C1072.93 271.559 1071.49 269.332 1069.4 269.32C1067.31 269.332 1065.86 271.559 1065.86 274.945ZM1102.62 273.727V275.227H1083.56V273.727H1089.46C1090.1 271.348 1090.23 269.602 1090.26 268.406H1085.23V266.883H1092.07V267.586C1092.07 268.676 1092.07 270.832 1091.33 273.727H1097.7C1098.27 271.383 1098.39 269.613 1098.41 268.406H1093.5V266.883H1100.21V267.609C1100.19 268.746 1100.19 270.855 1099.56 273.727H1102.62ZM1085.84 278.906V277.43H1100.18V282.586H1087.74V285.141H1100.86V286.617H1085.88V281.18H1098.33V278.906H1085.84ZM1109.43 267.68C1112.26 267.691 1114.31 270.129 1114.6 274.031H1119.27V266.062H1121.1V286.945H1119.27V275.555H1114.62C1114.42 279.645 1112.33 282.199 1109.43 282.188C1106.35 282.199 1104.19 279.387 1104.2 274.945C1104.19 270.516 1106.35 267.691 1109.43 267.68ZM1105.96 274.945C1105.97 278.332 1107.38 280.559 1109.43 280.547C1111.47 280.559 1112.9 278.332 1112.9 274.945C1112.9 271.559 1111.47 269.332 1109.43 269.32C1107.38 269.332 1105.97 271.559 1105.96 274.945ZM1141.78 266.086V276.773H1140.03V272.18H1137.07V276.703H1135.34V266.484H1137.07V270.656H1140.03V266.086H1141.78ZM1125.14 275.578V267.281H1126.97V274.055C1129.16 274.043 1131.28 273.926 1133.79 273.445L1134 274.969C1131.18 275.484 1128.89 275.59 1126.43 275.578H1125.14ZM1127.96 279.234V277.734H1141.78V282.773H1129.83V285.141H1142.63V286.617H1128V281.344H1139.98V279.234H1127.96ZM1160.35 268.008C1160.36 270.949 1164.18 273.48 1167.94 274.008L1167.19 275.508C1163.96 274.969 1160.75 273.176 1159.41 270.621C1158.07 273.199 1154.87 274.969 1151.63 275.508L1150.88 274.008C1154.64 273.48 1158.45 270.996 1158.45 268.008V266.812H1160.35V268.008ZM1149.89 279.352V277.805H1168.88V279.352H1160.25V286.898H1158.45V279.352H1149.89ZM1182.75 280.055C1182.74 281.895 1183.74 283.852 1185.72 284.977C1187.71 283.746 1188.77 281.66 1188.75 280.055V278.906H1190.56V280.055C1190.55 282.199 1192.13 284.332 1194.8 285.258L1193.89 286.617C1191.8 285.879 1190.35 284.426 1189.62 282.68C1188.98 284.367 1187.7 285.973 1185.78 286.781C1183.75 286.008 1182.46 284.484 1181.84 282.738C1181.09 284.414 1179.66 285.867 1177.67 286.617L1176.73 285.258C1179.37 284.273 1180.95 282.047 1180.97 280.055V278.906H1182.75V280.055ZM1176.19 272.18C1176.18 269.273 1178.49 267.293 1181.65 267.305C1184.82 267.293 1187.1 269.273 1187.11 272.18C1187.1 275.039 1184.82 277.008 1181.65 277.008C1178.49 277.008 1176.18 275.039 1176.19 272.18ZM1178 272.18C1177.97 274.113 1179.51 275.473 1181.65 275.484C1183.77 275.473 1185.31 274.113 1185.31 272.18C1185.31 270.234 1183.77 268.852 1181.65 268.875C1179.51 268.852 1177.97 270.234 1178 272.18ZM1191.08 277.992V266.086H1192.9V277.992H1191.08ZM1200.2 278.578V281.016H1210.61V278.578H1212.46V286.617H1198.38V278.578H1200.2ZM1195.96 277.102V275.578H1214.95V277.102H1195.96ZM1197.04 272.625C1200.76 272.121 1204.52 269.93 1204.52 267.281V266.297H1206.42V267.281C1206.4 269.848 1210.2 272.156 1213.87 272.625L1213.19 274.102C1209.97 273.621 1206.79 271.98 1205.47 269.648C1204.14 271.992 1200.95 273.621 1197.74 274.102L1197.04 272.625ZM1200.2 285.141H1210.61V282.469H1200.2V285.141ZM1233.4 266.062V286.898H1231.58V266.062H1233.4ZM1217.58 281.531V268.125H1219.39V279.938C1222.58 279.914 1225.86 279.668 1229.35 278.93L1229.61 280.5C1225.9 281.273 1222.61 281.531 1219.27 281.531H1217.58ZM1252.61 266.062V274.312H1256.1V275.859H1252.61V286.945H1250.78V266.062H1252.61ZM1237.4 281.719V268.102H1247.13V269.625H1239.23V280.172C1243 280.16 1245.66 279.996 1248.77 279.422L1249 281.016C1245.73 281.602 1243 281.719 1239.04 281.719H1237.4ZM1258.95 285.141C1258.13 285.129 1257.43 284.449 1257.45 283.617C1257.43 282.797 1258.13 282.117 1258.95 282.117C1259.78 282.117 1260.46 282.797 1260.45 283.617C1260.46 284.449 1259.78 285.129 1258.95 285.141ZM340.922 322.68V324.227H321.844V322.68H330.422V317.594H324.094V307.82H338.555V317.594H332.227V322.68H340.922ZM325.898 316.117H336.773V309.297H325.898V316.117ZM361.114 316.586V318.086H342.106V316.586H361.114ZM344.52 314.289V306.977H358.747V308.477H346.348V312.766H358.934V314.289H344.52ZM344.567 326.43V320.336H346.395V324.883H359.098V326.43H344.567ZM368.943 325V308.031H374.896C378.458 308.031 380.134 310.035 380.123 312.531C380.134 314.711 378.833 315.684 377.357 316.094V316.258C378.939 316.352 380.79 317.805 380.802 320.5C380.79 323.043 379.115 325 375.107 325H368.943ZM371.052 323.125H375.083C377.744 323.125 378.775 321.953 378.763 320.477C378.775 318.754 377.38 317.289 375.201 317.289H371.052V323.125ZM371.052 315.461H374.826C376.665 315.473 378.107 314.324 378.107 312.555C378.107 311.078 377.111 309.906 374.896 309.906H371.052V315.461ZM383.064 325V312.273H385.08V325H383.064ZM382.666 308.828C382.654 308.078 383.299 307.48 384.072 307.492C384.846 307.48 385.49 308.078 385.502 308.828C385.49 309.566 384.846 310.164 384.072 310.164C383.299 310.164 382.654 309.566 382.666 308.828ZM393.014 325.258C389.545 325.27 387.202 322.645 387.202 318.695C387.202 314.723 389.545 312.109 393.014 312.109C396.471 312.109 398.791 314.723 398.78 318.695C398.791 322.645 396.471 325.27 393.014 325.258ZM389.217 318.695C389.229 321.238 390.424 323.477 393.014 323.477C395.58 323.477 396.764 321.238 396.764 318.695C396.764 316.164 395.58 313.891 393.014 313.891C390.424 313.891 389.229 316.164 389.217 318.695ZM402.964 308.031V325H400.948V308.031H402.964ZM410.898 325.258C407.429 325.27 405.085 322.645 405.085 318.695C405.085 314.723 407.429 312.109 410.898 312.109C414.355 312.109 416.675 314.723 416.663 318.695C416.675 322.645 414.355 325.27 410.898 325.258ZM407.101 318.695C407.113 321.238 408.308 323.477 410.898 323.477C413.464 323.477 414.648 321.238 414.648 318.695C414.648 316.164 413.464 313.891 410.898 313.891C408.308 313.891 407.113 316.164 407.101 318.695ZM423.988 330.039C420.906 330.039 418.82 328.691 418.598 326.336H420.707C420.976 327.637 422.183 328.281 423.988 328.281C426.168 328.281 427.504 327.332 427.504 325.234V322.656H427.34C426.906 323.359 426.098 324.801 423.637 324.812C420.543 324.801 418.223 322.469 418.223 318.461C418.223 314.547 420.461 312.109 423.66 312.109C426.133 312.109 426.93 313.609 427.387 314.289H427.551V312.273H429.519V325.352C429.508 328.633 427.094 330.039 423.988 330.039ZM420.262 318.531C420.262 321.168 421.504 323.008 423.918 323.008C426.25 323.008 427.539 321.332 427.551 318.531C427.539 315.801 426.285 313.914 423.918 313.914C421.469 313.914 420.262 315.965 420.262 318.531ZM432.25 325V312.273H434.266V325H432.25ZM431.852 308.828C431.84 308.078 432.485 307.48 433.258 307.492C434.032 307.48 434.676 308.078 434.688 308.828C434.676 309.566 434.032 310.164 433.258 310.164C432.485 310.164 431.84 309.566 431.852 308.828ZM442.2 325.258C438.591 325.27 436.387 322.516 436.387 318.695C436.387 314.828 438.696 312.109 442.153 312.109C444.86 312.109 446.899 313.715 447.216 316.117H445.2C444.907 314.957 443.899 313.891 442.2 313.891C439.927 313.891 438.415 315.766 438.403 318.625C438.415 321.566 439.891 323.453 442.2 323.453C443.7 323.453 444.848 322.645 445.2 321.25H447.216C446.899 323.523 445.024 325.27 442.2 325.258ZM448.611 321.391C448.611 318.473 451.189 317.805 453.392 317.641C454.212 317.582 456.263 317.465 456.837 317.453V316.422C456.837 314.805 455.876 313.867 453.954 313.867C452.349 313.867 451.376 314.605 451.095 315.578H448.986C449.243 313.527 451.236 312.109 454.048 312.109C455.712 312.109 458.841 312.602 458.829 316.609V325H456.837V323.266H456.743C456.322 324.121 455.161 325.293 452.947 325.305C450.533 325.293 448.611 323.875 448.611 321.391ZM450.626 321.484C450.638 322.832 451.751 323.512 453.298 323.5C455.572 323.512 456.837 321.988 456.837 320.383V319.105C456.24 319.141 454.236 319.293 453.626 319.328C451.798 319.445 450.638 320.09 450.626 321.484ZM463.599 308.031V325H461.584V308.031H463.599ZM474.241 308.031V325H472.132V308.031H474.241ZM479.269 317.359V325H477.253V312.273H479.198V314.266H479.363C479.96 312.965 481.155 312.109 483.089 312.109C485.667 312.109 487.39 313.68 487.378 316.914V325H485.363V317.055C485.363 315.086 484.284 313.914 482.48 313.914C480.628 313.914 479.269 315.156 479.269 317.359ZM494.937 325.258C491.761 325.27 489.523 322.715 489.523 318.672C489.523 314.641 491.761 312.109 494.961 312.109C497.433 312.109 498.207 313.609 498.64 314.289H498.781V308.031H500.82V325H498.851V323.055H498.64C498.195 323.758 497.363 325.27 494.937 325.258ZM491.562 318.625C491.562 321.332 492.804 323.453 495.218 323.453C497.55 323.453 498.84 321.484 498.851 318.625C498.84 315.801 497.586 313.914 495.218 313.914C492.769 313.914 491.562 315.965 491.562 318.625ZM503.832 325V312.273H505.848V325H503.832ZM503.434 308.828C503.422 308.078 504.067 307.48 504.84 307.492C505.613 307.48 506.258 308.078 506.27 308.828C506.258 309.566 505.613 310.164 504.84 310.164C504.067 310.164 503.422 309.566 503.434 308.828ZM513.782 325.258C510.173 325.27 507.969 322.516 507.969 318.695C507.969 314.828 510.278 312.109 513.735 312.109C516.442 312.109 518.481 313.715 518.798 316.117H516.782C516.489 314.957 515.481 313.891 513.782 313.891C511.508 313.891 509.997 315.766 509.985 318.625C509.997 321.566 511.473 323.453 513.782 323.453C515.282 323.453 516.43 322.645 516.782 321.25H518.798C518.481 323.523 516.606 325.27 513.782 325.258ZM520.193 321.391C520.193 318.473 522.771 317.805 524.974 317.641C525.794 317.582 527.845 317.465 528.419 317.453V316.422C528.419 314.805 527.458 313.867 525.536 313.867C523.931 313.867 522.958 314.605 522.677 315.578H520.568C520.825 313.527 522.818 312.109 525.63 312.109C527.294 312.109 530.423 312.602 530.411 316.609V325H528.419V323.266H528.325C527.903 324.121 526.743 325.293 524.528 325.305C522.114 325.293 520.193 323.875 520.193 321.391ZM522.208 321.484C522.22 322.832 523.333 323.512 524.88 323.5C527.153 323.512 528.419 321.988 528.419 320.383V319.105C527.821 319.141 525.818 319.293 525.208 319.328C523.38 319.445 522.22 320.09 522.208 321.484ZM538.72 312.273V313.961H536.048V321.344C536.037 322.973 536.857 323.242 537.712 323.242C538.076 323.242 538.615 323.207 538.908 323.195V325.07C538.591 325.117 538.099 325.164 537.502 325.164C535.802 325.164 534.021 324.109 534.009 321.859V313.961H532.087V312.273H534.009V309.227H536.048V312.273H538.72ZM545.904 325.258C542.436 325.27 540.092 322.645 540.092 318.695C540.092 314.723 542.436 312.109 545.904 312.109C549.361 312.109 551.682 314.723 551.67 318.695C551.682 322.645 549.361 325.27 545.904 325.258ZM542.107 318.695C542.119 321.238 543.315 323.477 545.904 323.477C548.471 323.477 549.654 321.238 549.654 318.695C549.654 316.164 548.471 313.891 545.904 313.891C543.315 313.891 542.119 316.164 542.107 318.695ZM553.838 325V312.273H555.784V314.219H555.924C556.381 312.93 557.706 312.074 559.206 312.062C559.51 312.074 560.026 312.086 560.26 312.109V314.148C560.108 314.113 559.569 314.008 559.042 314.008C557.213 314.008 555.854 315.273 555.854 316.984V325H553.838ZM568.827 315.578C568.546 314.523 567.737 313.832 566.249 313.82C564.679 313.832 563.565 314.676 563.554 315.742C563.565 316.586 564.245 317.16 565.733 317.523L567.632 317.992C569.905 318.531 571.019 319.668 571.03 321.438C571.019 323.641 569.226 325.27 566.038 325.258C563.179 325.27 561.48 323.992 561.14 321.672H563.249C563.483 322.914 564.386 323.512 565.991 323.5C567.808 323.512 568.944 322.75 568.944 321.555C568.944 320.652 568.3 320.066 566.858 319.727L564.937 319.281C562.722 318.766 561.538 317.559 561.538 315.859C561.538 313.68 563.448 312.109 566.249 312.109C568.886 312.109 570.538 313.516 570.796 315.578H568.827ZM579.222 307.586C582.492 307.598 584.812 309.59 584.824 312.484C584.812 315.391 582.492 317.371 579.222 317.383C575.929 317.371 573.585 315.391 573.597 312.484C573.585 309.59 575.929 307.598 579.222 307.586ZM572.519 320.781C576.363 320.793 581.671 320.758 586.277 320.078L586.417 321.438C581.648 322.328 576.527 322.352 572.777 322.352L572.519 320.781ZM575.402 312.484C575.39 314.43 576.996 315.766 579.222 315.766C581.425 315.766 583.031 314.43 583.019 312.484C583.031 310.551 581.425 309.203 579.222 309.203C576.996 309.203 575.39 310.551 575.402 312.484ZM587.66 326.945V306.062H589.488V326.945H587.66ZM614.778 307.211V308.781C614.778 310.457 614.778 312.414 614.286 315.016H617.286V316.539H611.942V321.578H610.161V316.539H606.34V321.578H604.536V316.539H598.207V315.016H612.457C612.961 312.379 612.961 310.457 612.95 308.781V308.711H600.622V307.211H614.778ZM600.551 326.453V319.938H602.379V324.906H615.34V326.453H600.551ZM641.826 306.062V326.898H640.068V306.062H641.826ZM623.755 321.344C626.662 319.609 628.361 315.801 628.349 312.016V310.047H624.341V308.523H633.951V310.047H630.13V312.016C630.13 315.613 631.759 319.211 634.63 320.875L633.505 322.234C631.455 321.004 630.001 318.754 629.275 316.105C628.525 318.977 627.013 321.426 624.927 322.727L623.755 321.344ZM632.357 315.086V313.586H635.872V306.578H637.607V325.82H635.872V315.086H632.357ZM661.525 306.062V326.898H659.697V315.977H654.728V314.453H659.697V306.062H661.525ZM644.299 321.461C649.935 318.73 652.549 314.711 652.924 309.836H645.213V308.336H654.775C654.764 314.242 652.267 319.48 645.307 322.938L644.299 321.461ZM680.663 306.062V314.547H684.038V316.094H680.663V326.898H678.834V306.062H680.663ZM664.678 321.484C670.057 318.812 672.987 314.793 673.409 309.859H665.639V308.312H675.272C675.26 314.207 672.495 319.586 665.709 322.938L664.678 321.484ZM702.953 313.328C702.226 311.148 700.574 309.766 698.148 309.766C695.148 309.766 692.769 312.133 692.757 316.516C692.769 320.887 695.148 323.254 698.288 323.266C701.148 323.254 703.128 321.355 703.163 318.344H698.734V316.492H705.226V318.32C705.226 322.527 702.331 325.234 698.288 325.234C693.753 325.234 690.706 321.883 690.718 316.516C690.706 311.148 693.788 307.797 698.148 307.797C701.734 307.797 704.499 310.047 705.132 313.328H702.953ZM719.488 313.375C718.996 311.031 716.992 309.766 714.754 309.766C711.683 309.766 709.305 312.133 709.293 316.516C709.305 320.887 711.683 323.254 714.754 323.266C716.992 323.254 718.984 322 719.488 319.68H721.598C720.988 323.148 718.199 325.234 714.754 325.234C710.394 325.234 707.242 321.883 707.254 316.516C707.242 311.148 710.394 307.797 714.754 307.797C718.187 307.797 720.965 309.848 721.598 313.375H719.488ZM729.344 325H724.071V308.031H729.555C734.512 308.031 737.43 311.207 737.43 316.492C737.43 321.789 734.512 325 729.344 325ZM726.18 323.125H729.203C733.364 323.125 735.367 320.605 735.367 316.492C735.367 312.391 733.364 309.906 729.414 309.906H726.18V323.125ZM762.415 306.062V326.898H760.634V306.062H762.415ZM744.814 315.062C744.825 310.633 746.583 307.832 749.29 307.82C751.822 307.832 753.533 310.27 753.767 314.195H756.462V306.508H758.22V325.844H756.462V315.719H753.779C753.603 319.773 751.857 322.316 749.29 322.305C746.583 322.316 744.825 319.492 744.814 315.062ZM746.548 315.062C746.525 318.438 747.603 320.57 749.29 320.547C750.99 320.57 752.068 318.438 752.056 315.062C752.068 311.676 750.99 309.555 749.29 309.555C747.603 309.555 746.525 311.676 746.548 315.062ZM772.154 311.664C772.142 315.438 774.568 319.234 777.592 320.617L776.49 322.117C774.123 320.898 772.166 318.414 771.24 315.449C770.314 318.566 768.357 321.238 765.99 322.492L764.795 321.016C767.853 319.516 770.267 315.508 770.279 311.664V307.867H772.154V311.664ZM775.318 314.688V313.188H780.263V306.062H782.092V326.945H780.263V314.688H775.318ZM806.889 306.086V312.391H810.007V313.938H806.889V320.055H805.038V306.086H806.889ZM790.53 317.922C792.194 317.922 794.139 317.922 796.178 317.863V316.328C793.753 316.105 792.182 314.992 792.194 313.258C792.182 311.359 794.139 310.188 797.069 310.188C800.022 310.188 801.944 311.359 801.967 313.258C801.944 314.98 800.421 316.094 798.007 316.328V317.793C799.952 317.699 801.921 317.535 803.749 317.266L803.913 318.602C799.389 319.398 794.409 319.434 790.741 319.422L790.53 317.922ZM791.046 309.391V307.984H796.178V305.898H798.007V307.984H803.116V309.391H791.046ZM793.085 322.562V321.086H806.889V326.898H805.038V322.562H793.085ZM793.952 313.258C793.94 314.348 795.147 315.086 797.069 315.062C798.991 315.086 800.21 314.348 800.21 313.258C800.21 312.156 798.991 311.477 797.069 311.5C795.147 311.477 793.94 312.156 793.952 313.258ZM828.089 306.086V321.32H826.261V306.086H828.089ZM811.378 312.648C811.366 309.648 813.722 307.551 816.839 307.539C819.956 307.551 822.288 309.648 822.3 312.648C822.288 315.684 819.956 317.793 816.839 317.781C813.722 317.793 811.366 315.684 811.378 312.648ZM813.183 312.648C813.159 314.723 814.73 316.164 816.839 316.164C818.913 316.164 820.495 314.723 820.495 312.648C820.495 310.609 818.913 309.156 816.839 309.156C814.73 309.156 813.159 310.609 813.183 312.648ZM814.636 326.453V319.773H816.464V324.906H828.745V326.453H814.636ZM843.265 312.906V314.406H839.047V317.312C840.992 317.23 842.937 317.09 844.742 316.891L844.883 318.25C840.394 318.871 835.437 319 831.523 319L831.242 317.5C833.07 317.488 835.121 317.465 837.218 317.395V314.406H833.14V307.422H843.101V308.945H834.992V312.906H843.265ZM834.804 326.453V320.594H836.633V324.906H849.008V326.453H834.804ZM846.476 321.672V306.086H848.328V321.672H846.476ZM867.535 306.062V314.312H871.028V315.859H867.535V326.945H865.707V306.062H867.535ZM852.324 321.719V308.102H862.051V309.625H854.153V320.172C857.926 320.16 860.586 319.996 863.692 319.422L863.926 321.016C860.656 321.602 857.926 321.719 853.965 321.719H852.324ZM882.219 307.891V309.742H887.094V306.086H888.946V321.297H887.094V315.742H882.219V317.617H872.657V307.891H882.219ZM874.485 316.141H880.415V309.414H874.485V316.141ZM875.469 326.453V319.938H877.321V324.906H889.415V326.453H875.469ZM882.219 314.219H887.094V311.289H882.219V314.219ZM895.357 323.43L893.528 329.805H891.794L893.083 323.43H895.357ZM915.748 313.328C915.022 311.148 913.369 309.766 910.943 309.766C907.943 309.766 905.565 312.133 905.553 316.516C905.565 320.887 907.943 323.254 911.084 323.266C913.943 323.254 915.924 321.355 915.959 318.344H911.529V316.492H918.022V318.32C918.022 322.527 915.127 325.234 911.084 325.234C906.549 325.234 903.502 321.883 903.514 316.516C903.502 311.148 906.584 307.797 910.943 307.797C914.529 307.797 917.295 310.047 917.928 313.328H915.748ZM932.284 313.375C931.792 311.031 929.788 309.766 927.549 309.766C924.479 309.766 922.1 312.133 922.088 316.516C922.1 320.887 924.479 323.254 927.549 323.266C929.788 323.254 931.78 322 932.284 319.68H934.393C933.784 323.148 930.995 325.234 927.549 325.234C923.19 325.234 920.038 321.883 920.049 316.516C920.038 311.148 923.19 307.797 927.549 307.797C930.983 307.797 933.76 309.848 934.393 313.375H932.284ZM937.64 308.031L942.632 322.258H942.819L947.835 308.031H950.062L943.851 325H941.624L935.413 308.031H937.64ZM1231.04 306.438C1235.67 306.438 1238.39 307.715 1238.4 310.023C1238.39 312.391 1235.67 313.668 1231.04 313.68C1226.39 313.668 1223.66 312.391 1223.66 310.023C1223.66 307.715 1226.39 306.438 1231.04 306.438ZM1221.55 316.586V315.086H1240.53V316.586H1221.55ZM1223.85 319.797V318.391H1238.1V323.055H1225.72V325.211H1238.73V326.664H1223.89V321.695H1236.29V319.797H1223.85ZM1225.58 310.023C1225.56 311.477 1227.59 312.273 1231.04 312.273C1234.5 312.273 1236.52 311.477 1236.53 310.023C1236.52 308.652 1234.5 307.832 1231.04 307.82C1227.59 307.832 1225.56 308.652 1225.58 310.023ZM1254.86 310.539C1254.87 313.352 1257.08 315.883 1260.2 316.867L1259.26 318.344C1256.84 317.512 1254.91 315.801 1253.97 313.609C1253.06 315.977 1251.11 317.852 1248.62 318.766L1247.66 317.289C1250.79 316.199 1252.99 313.492 1253 310.539V309.32H1248.13V307.82H1259.66V309.32H1254.86V310.539ZM1251.11 326.453V319.914H1252.93V324.906H1265.22V326.453H1251.11ZM1262.73 321.367V306.086H1264.56V321.367H1262.73ZM1285.31 306.062V319.258H1283.56V313.281H1280.77V318.508H1279.03V306.484H1280.77V311.758H1283.56V306.062H1285.31ZM1267.5 310.047V308.57H1271.95V306.227H1273.78V308.57H1278.19V310.047H1267.5ZM1268.41 314.734C1268.4 312.555 1270.24 311.16 1272.87 311.172C1275.5 311.16 1277.33 312.555 1277.34 314.734C1277.33 316.879 1275.5 318.273 1272.87 318.273C1270.24 318.273 1268.4 316.879 1268.41 314.734ZM1270.06 314.734C1270.06 316.012 1271.2 316.891 1272.87 316.891C1274.53 316.891 1275.68 316.012 1275.68 314.734C1275.68 313.41 1274.53 312.531 1272.87 312.531C1271.2 312.531 1270.06 313.41 1270.06 314.734ZM1271.44 323.266C1271.41 320.922 1274.03 319.609 1278.42 319.609C1282.81 319.609 1285.42 320.922 1285.43 323.266C1285.42 325.551 1282.81 326.852 1278.42 326.852C1274.03 326.852 1271.41 325.551 1271.44 323.266ZM1273.27 323.266C1273.24 324.613 1275.18 325.434 1278.42 325.422C1281.66 325.434 1283.58 324.613 1283.6 323.266C1283.58 321.836 1281.66 321.039 1278.42 321.062C1275.18 321.039 1273.24 321.836 1273.27 323.266ZM1304.17 306.062V311.406H1307.31V312.977H1304.17V318.18H1302.34V306.062H1304.17ZM1287.93 309.742V308.219H1293.22V305.875H1295.05V308.219H1300.35V309.742H1287.93ZM1289.12 314.359C1289.11 312.133 1291.11 310.715 1294.14 310.703C1297.13 310.715 1299.13 312.133 1299.15 314.359C1299.13 316.586 1297.13 318.027 1294.14 318.016C1291.11 318.027 1289.11 316.586 1289.12 314.359ZM1290.88 314.359C1290.87 315.719 1292.17 316.609 1294.14 316.609C1296.08 316.609 1297.4 315.719 1297.42 314.359C1297.4 313.012 1296.08 312.109 1294.14 312.133C1292.17 312.109 1290.87 313.012 1290.88 314.359ZM1291 326.617V319.094H1292.83V321.32H1302.34V319.094H1304.17V326.617H1291ZM1292.83 325.141H1302.34V322.773H1292.83V325.141ZM1325.32 306.062V326.898H1323.49V306.062H1325.32ZM1309.5 321.531V308.125H1311.31V319.938C1314.49 319.914 1317.78 319.668 1321.27 318.93L1321.53 320.5C1317.82 321.273 1314.53 321.531 1311.19 321.531H1309.5ZM1344.53 306.062V314.312H1348.02V315.859H1344.53V326.945H1342.7V306.062H1344.53ZM1329.32 321.719V308.102H1339.05V309.625H1331.15V320.172C1334.92 320.16 1337.58 319.996 1340.69 319.422L1340.92 321.016C1337.65 321.602 1334.92 321.719 1330.96 321.719H1329.32ZM1350.87 325.141C1350.05 325.129 1349.35 324.449 1349.37 323.617C1349.35 322.797 1350.05 322.117 1350.87 322.117C1351.7 322.117 1352.38 322.797 1352.37 323.617C1352.38 324.449 1351.7 325.129 1350.87 325.141Z" fill="#1E1E1E"/>
<path d="M952.3 317.852C952.312 313.68 953.437 310.199 955.464 307.258H957.269C955.675 309.438 954.398 313.914 954.386 317.852C954.398 321.801 955.675 326.277 957.269 328.469H955.464C953.437 325.516 952.312 322.035 952.3 317.852ZM975.727 306.062V326.945H973.875V306.062H975.727ZM959.32 314.945C959.332 310.516 961.535 307.691 964.641 307.68C967.734 307.691 969.973 310.516 969.961 314.945C969.973 319.387 967.734 322.199 964.641 322.188C961.535 322.199 959.332 319.387 959.32 314.945ZM961.102 314.945C961.102 318.332 962.555 320.559 964.641 320.547C966.738 320.559 968.18 318.332 968.18 314.945C968.18 311.559 966.738 309.332 964.641 309.32C962.555 309.332 961.102 311.559 961.102 314.945ZM994.934 306.062V314.664H998.426V316.188H994.934V326.898H993.106V306.062H994.934ZM978.692 310.938V309.414H984.059V306.32H985.887V309.414H991.09V310.938H978.692ZM979.887 317.453C979.875 314.641 982.032 312.672 984.997 312.672C987.938 312.672 990.083 314.641 990.106 317.453C990.083 320.277 987.938 322.234 984.997 322.234C982.032 322.234 979.875 320.277 979.887 317.453ZM981.645 317.453C981.633 319.352 983.051 320.688 984.997 320.664C986.918 320.688 988.325 319.352 988.348 317.453C988.325 315.566 986.918 314.207 984.997 314.219C983.051 314.207 981.633 315.566 981.645 317.453ZM1017.22 313.328C1016.5 311.148 1014.85 309.766 1012.42 309.766C1009.42 309.766 1007.04 312.133 1007.03 316.516C1007.04 320.887 1009.42 323.254 1012.56 323.266C1015.42 323.254 1017.4 321.355 1017.43 318.344H1013.01V316.492H1019.5V318.32C1019.5 322.527 1016.6 325.234 1012.56 325.234C1008.02 325.234 1004.98 321.883 1004.99 316.516C1004.98 311.148 1008.06 307.797 1012.42 307.797C1016.01 307.797 1018.77 310.047 1019.4 313.328H1017.22ZM1021.31 321.391C1021.31 318.473 1023.89 317.805 1026.1 317.641C1026.92 317.582 1028.97 317.465 1029.54 317.453V316.422C1029.54 314.805 1028.58 313.867 1026.66 313.867C1025.05 313.867 1024.08 314.605 1023.8 315.578H1021.69C1021.95 313.527 1023.94 312.109 1026.75 312.109C1028.42 312.109 1031.54 312.602 1031.53 316.609V325H1029.54V323.266H1029.45C1029.03 324.121 1027.87 325.293 1025.65 325.305C1023.24 325.293 1021.31 323.875 1021.31 321.391ZM1023.33 321.484C1023.34 322.832 1024.46 323.512 1026 323.5C1028.28 323.512 1029.54 321.988 1029.54 320.383V319.105C1028.94 319.141 1026.94 319.293 1026.33 319.328C1024.5 319.445 1023.34 320.09 1023.33 321.484ZM1041.37 315.578C1041.08 314.523 1040.28 313.832 1038.79 313.82C1037.22 313.832 1036.1 314.676 1036.09 315.742C1036.1 316.586 1036.78 317.16 1038.27 317.523L1040.17 317.992C1042.44 318.531 1043.56 319.668 1043.57 321.438C1043.56 323.641 1041.76 325.27 1038.58 325.258C1035.72 325.27 1034.02 323.992 1033.68 321.672H1035.79C1036.02 322.914 1036.92 323.512 1038.53 323.5C1040.35 323.512 1041.48 322.75 1041.48 321.555C1041.48 320.652 1040.84 320.066 1039.4 319.727L1037.47 319.281C1035.26 318.766 1034.08 317.559 1034.08 315.859C1034.08 313.68 1035.99 312.109 1038.79 312.109C1041.42 312.109 1043.08 313.516 1043.33 315.578H1041.37ZM1063.09 313.375C1062.6 311.031 1060.6 309.766 1058.36 309.766C1055.29 309.766 1052.91 312.133 1052.9 316.516C1052.91 320.887 1055.29 323.254 1058.36 323.266C1060.6 323.254 1062.59 322 1063.09 319.68H1065.2C1064.59 323.148 1061.8 325.234 1058.36 325.234C1054 325.234 1050.85 321.883 1050.86 316.516C1050.85 311.148 1054 307.797 1058.36 307.797C1061.79 307.797 1064.57 309.848 1065.2 313.375H1063.09ZM1068.71 329.781C1068.27 329.77 1067.84 329.758 1067.58 329.734V327.93C1067.79 327.953 1068.25 327.965 1068.57 327.977C1069.39 327.965 1070.08 327.918 1070.75 326.055L1071.12 325.094L1066.41 312.273H1068.61L1072.08 322.375H1072.22L1075.69 312.273H1077.89L1072.5 326.828C1071.75 328.832 1070.51 329.77 1068.71 329.781ZM1084.38 325.258C1080.77 325.27 1078.56 322.516 1078.56 318.695C1078.56 314.828 1080.87 312.109 1084.33 312.109C1087.04 312.109 1089.07 313.715 1089.39 316.117H1087.38C1087.08 314.957 1086.07 313.891 1084.38 313.891C1082.1 313.891 1080.59 315.766 1080.58 318.625C1080.59 321.566 1082.07 323.453 1084.38 323.453C1085.88 323.453 1087.02 322.645 1087.38 321.25H1089.39C1089.07 323.523 1087.2 325.27 1084.38 325.258ZM1093.41 308.031V325H1091.4V308.031H1093.41ZM1101.49 325.258C1097.81 325.27 1095.53 322.645 1095.53 318.742C1095.53 314.828 1097.84 312.109 1101.3 312.109C1103.97 312.109 1106.79 313.75 1106.78 318.461V319.305H1097.55C1097.65 322 1099.22 323.477 1101.49 323.477C1103.01 323.477 1103.97 322.809 1104.44 322.023H1106.59C1106 323.957 1104.11 325.27 1101.49 325.258ZM1097.56 317.594H1104.74C1104.73 315.473 1103.4 313.891 1101.3 313.891C1099.09 313.891 1097.7 315.625 1097.56 317.594ZM1115.5 308.031L1120.49 322.258H1120.68L1125.7 308.031H1127.92L1121.71 325H1119.49L1113.28 308.031H1115.5ZM1127.66 321.391C1127.66 318.473 1130.23 317.805 1132.44 317.641C1133.26 317.582 1135.31 317.465 1135.88 317.453V316.422C1135.88 314.805 1134.92 313.867 1133 313.867C1131.39 313.867 1130.42 314.605 1130.14 315.578H1128.03C1128.29 313.527 1130.28 312.109 1133.09 312.109C1134.76 312.109 1137.89 312.602 1137.87 316.609V325H1135.88V323.266H1135.79C1135.37 324.121 1134.21 325.293 1131.99 325.305C1129.58 325.293 1127.66 323.875 1127.66 321.391ZM1129.67 321.484C1129.68 322.832 1130.8 323.512 1132.34 323.5C1134.62 323.512 1135.88 321.988 1135.88 320.383V319.105C1135.28 319.141 1133.28 319.293 1132.67 319.328C1130.84 319.445 1129.68 320.09 1129.67 321.484ZM1142.64 308.031V325H1140.63V308.031H1142.64ZM1145.37 325V312.273H1147.39V325H1145.37ZM1144.98 308.828C1144.96 308.078 1145.61 307.48 1146.38 307.492C1147.16 307.48 1147.8 308.078 1147.81 308.828C1147.8 309.566 1147.16 310.164 1146.38 310.164C1145.61 310.164 1144.96 309.566 1144.98 308.828ZM1154.93 325.258C1151.75 325.27 1149.51 322.715 1149.51 318.672C1149.51 314.641 1151.75 312.109 1154.95 312.109C1157.42 312.109 1158.2 313.609 1158.63 314.289H1158.77V308.031H1160.81V325H1158.84V323.055H1158.63C1158.18 323.758 1157.35 325.27 1154.93 325.258ZM1151.55 318.625C1151.55 321.332 1152.79 323.453 1155.21 323.453C1157.54 323.453 1158.83 321.484 1158.84 318.625C1158.83 315.801 1157.57 313.914 1155.21 313.914C1152.76 313.914 1151.55 315.965 1151.55 318.625ZM1163.21 321.391C1163.21 318.473 1165.79 317.805 1167.99 317.641C1168.81 317.582 1170.86 317.465 1171.44 317.453V316.422C1171.44 314.805 1170.48 313.867 1168.56 313.867C1166.95 313.867 1165.98 314.605 1165.7 315.578H1163.59C1163.84 313.527 1165.84 312.109 1168.65 312.109C1170.31 312.109 1173.44 312.602 1173.43 316.609V325H1171.44V323.266H1171.34C1170.92 324.121 1169.76 325.293 1167.55 325.305C1165.13 325.293 1163.21 323.875 1163.21 321.391ZM1165.23 321.484C1165.24 322.832 1166.35 323.512 1167.9 323.5C1170.17 323.512 1171.44 321.988 1171.44 320.383V319.105C1170.84 319.141 1168.84 319.293 1168.23 319.328C1166.4 319.445 1165.24 320.09 1165.23 321.484ZM1181.74 312.273V313.961H1179.07V321.344C1179.06 322.973 1179.88 323.242 1180.73 323.242C1181.09 323.242 1181.63 323.207 1181.93 323.195V325.07C1181.61 325.117 1181.12 325.164 1180.52 325.164C1178.82 325.164 1177.04 324.109 1177.03 321.859V313.961H1175.11V312.273H1177.03V309.227H1179.07V312.273H1181.74ZM1183.86 325V312.273H1185.88V325H1183.86ZM1183.46 308.828C1183.45 308.078 1184.1 307.48 1184.87 307.492C1185.64 307.48 1186.29 308.078 1186.3 308.828C1186.29 309.566 1185.64 310.164 1184.87 310.164C1184.1 310.164 1183.45 309.566 1183.46 308.828ZM1193.81 325.258C1190.34 325.27 1188 322.645 1188 318.695C1188 314.723 1190.34 312.109 1193.81 312.109C1197.27 312.109 1199.59 314.723 1199.58 318.695C1199.59 322.645 1197.27 325.27 1193.81 325.258ZM1190.01 318.695C1190.03 321.238 1191.22 323.477 1193.81 323.477C1196.38 323.477 1197.56 321.238 1197.56 318.695C1197.56 316.164 1196.38 313.891 1193.81 313.891C1191.22 313.891 1190.03 316.164 1190.01 318.695ZM1203.76 317.359V325H1201.74V312.273H1203.69V314.266H1203.85C1204.45 312.965 1205.65 312.109 1207.58 312.109C1210.16 312.109 1211.88 313.68 1211.87 316.914V325H1209.85V317.055C1209.85 315.086 1208.78 313.914 1206.97 313.914C1205.12 313.914 1203.76 315.156 1203.76 317.359ZM1218.89 317.852C1218.88 322.023 1217.75 325.504 1215.73 328.445H1213.92C1215.51 326.266 1216.79 321.789 1216.8 317.852C1216.79 313.902 1215.51 309.426 1213.92 307.234H1215.73C1217.75 310.188 1218.88 313.668 1218.89 317.852Z" fill="#1E1E1E" fill-opacity="0.4"/>
<path d="M340.898 382.438V383.938H332.203V390.898H330.398V383.938H321.82V382.438H340.898ZM324.258 379.906V370.93H326.086V373.812H336.586V370.93H338.438V379.906H324.258ZM326.086 378.406H336.586V375.312H326.086V378.406ZM349.208 374.609C349.219 377.199 351.305 379.566 354.387 380.492L353.497 381.945C351.106 381.195 349.254 379.602 348.34 377.551C347.426 379.801 345.516 381.523 343.067 382.344L342.129 380.891C345.235 379.93 347.391 377.434 347.403 374.609V374.141H342.692V372.664H347.403V369.992H349.254V372.664H353.918V374.141H349.208V374.609ZM344.754 385.391V383.867H358.395V390.945H356.567V385.391H344.754ZM356.567 382.789V370.062H358.395V375.641H361.536V377.211H358.395V382.789H356.567ZM374.485 376.906V378.406H370.267V381.312C372.212 381.23 374.157 381.09 375.962 380.891L376.103 382.25C371.614 382.871 366.657 383 362.743 383L362.462 381.5C364.29 381.488 366.341 381.465 368.438 381.395V378.406H364.36V371.422H374.321V372.945H366.212V376.906H374.485ZM366.024 390.453V384.594H367.853V388.906H380.228V390.453H366.024ZM377.696 385.672V370.086H379.548V385.672H377.696ZM404.744 371.211V372.781C404.744 374.457 404.744 376.414 404.252 379.016H407.252V380.539H401.908V385.578H400.127V380.539H396.307V385.578H394.502V380.539H388.174V379.016H402.424C402.928 376.379 402.928 374.457 402.916 372.781V372.711H390.588V371.211H404.744ZM390.518 390.453V383.938H392.346V388.906H405.307V390.453H390.518ZM415.256 371.586C418.526 371.598 420.846 373.59 420.858 376.484C420.846 379.391 418.526 381.371 415.256 381.383C411.963 381.371 409.62 379.391 409.631 376.484C409.62 373.59 411.963 371.598 415.256 371.586ZM408.553 384.781C412.397 384.793 417.705 384.758 422.311 384.078L422.452 385.438C417.682 386.328 412.561 386.352 408.811 386.352L408.553 384.781ZM411.436 376.484C411.424 378.43 413.03 379.766 415.256 379.766C417.459 379.766 419.065 378.43 419.053 376.484C419.065 374.551 417.459 373.203 415.256 373.203C413.03 373.203 411.424 374.551 411.436 376.484ZM423.694 390.945V370.062H425.522V390.945H423.694ZM440.64 371.797C443.558 371.832 446.804 373.59 446.804 379.836C446.804 385.871 444.331 389.234 440.359 389.234C437.37 389.234 435.273 387.406 434.851 384.711H436.937C437.312 386.234 438.472 387.359 440.359 387.359C443.124 387.359 444.812 384.969 444.835 380.844H444.601C443.628 382.25 442.07 383.094 440.265 383.094C437.23 383.094 434.71 380.762 434.71 377.492C434.71 374.328 437.031 371.762 440.64 371.797ZM436.773 377.469C436.761 379.566 438.355 381.242 440.57 381.242C442.785 381.242 444.507 379.414 444.507 377.422C444.507 375.477 442.878 373.648 440.64 373.648C438.425 373.648 436.749 375.371 436.773 377.469ZM454.762 389.234C451.703 389.234 449.383 387.348 449.254 384.734H451.293C451.445 386.246 452.922 387.371 454.762 387.383C456.965 387.371 458.558 385.766 458.558 383.633C458.558 381.43 456.906 379.801 454.621 379.789C453.191 379.766 452.078 380.211 451.457 381.312H449.418L450.613 372.031H459.801V373.906H452.371L451.738 378.875H451.902C452.664 378.289 453.801 377.891 454.996 377.891C458.23 377.891 460.609 380.281 460.621 383.586C460.609 386.867 458.148 389.234 454.762 389.234ZM471.719 384.922C471.719 383.07 472.914 381.488 475.047 381.5C477.203 381.488 478.352 383.07 478.352 384.922V385.812C478.352 387.676 477.168 389.246 475.047 389.258C472.879 389.246 471.719 387.676 471.719 385.812V384.922ZM463.258 376.109V375.219C463.246 373.355 464.465 371.773 466.586 371.773C468.754 371.773 469.879 373.355 469.891 375.219V376.109C469.879 377.961 468.719 379.531 466.586 379.531C464.407 379.531 463.246 377.961 463.258 376.109ZM463.891 389L475.563 372.031H477.461L465.789 389H463.891ZM464.969 376.109C464.969 377.117 465.403 378.078 466.586 378.078C467.746 378.078 468.157 377.117 468.157 376.109V375.219C468.157 374.199 467.77 373.238 466.586 373.227C465.438 373.238 464.969 374.199 464.969 375.219V376.109ZM473.453 385.812C473.442 386.832 473.864 387.793 475.047 387.781C476.196 387.793 476.629 386.832 476.617 385.812V384.922C476.629 383.914 476.231 382.953 475.047 382.953C473.887 382.953 473.442 383.914 473.453 384.922V385.812ZM496.622 370.062V378.547H499.997V380.094H496.622V390.898H494.794V370.062H496.622ZM480.637 385.484C486.016 382.812 488.946 378.793 489.368 373.859H481.598V372.312H491.231C491.22 378.207 488.454 383.586 481.669 386.938L480.637 385.484ZM524.115 370.062V390.898H522.357V370.062H524.115ZM506.045 385.344C508.951 383.609 510.65 379.801 510.638 376.016V374.047H506.631V372.523H516.24V374.047H512.42V376.016C512.42 379.613 514.049 383.211 516.92 384.875L515.795 386.234C513.744 385.004 512.291 382.754 511.564 380.105C510.814 382.977 509.303 385.426 507.217 386.727L506.045 385.344ZM514.646 379.086V377.586H518.162V370.578H519.896V389.82H518.162V379.086H514.646ZM543.815 370.062V390.898H541.987V379.977H537.018V378.453H541.987V370.062H543.815ZM526.588 385.461C532.225 382.73 534.838 378.711 535.213 373.836H527.502V372.336H537.065C537.053 378.242 534.557 383.48 527.596 386.938L526.588 385.461ZM558.944 375.57V377.023H554.749V379.145C556.717 379.051 558.698 378.91 560.538 378.688L560.632 379.977C556.178 380.668 551.151 380.797 547.202 380.797L546.944 379.32C548.772 379.32 550.811 379.297 552.897 379.215V377.023H548.866V370.977H558.71V372.406H550.764V375.57H558.944ZM550.202 383.727V382.25H564.03V387.078H552.077V389.164H564.78V390.664H550.249V385.672H562.225V383.727H550.202ZM562.202 381.312V370.086H564.03V381.312H562.202ZM586.437 370.531V378.594H588.968V370.062H590.726V390.898H588.968V380.117H586.437V389.867H584.726V370.531H586.437ZM573.265 385.461V372.711H577.789V374.234H574.976V383.902C575.761 383.867 576.793 383.773 577.929 383.492L578.093 385.062C576.336 385.449 574.976 385.473 574.086 385.461H573.265ZM578.703 385.461V372.711H583.32V374.234H580.367V383.902C581.351 383.879 582.511 383.785 583.765 383.422L583.929 384.992C582.195 385.449 580.754 385.473 579.547 385.461H578.703ZM611.949 382.438V383.938H603.254V390.898H601.449V383.938H592.871V382.438H611.949ZM595.309 379.906V370.93H597.137V373.812H607.637V370.93H609.488V379.906H595.309ZM597.137 378.406H607.637V375.312H597.137V378.406ZM630.43 370.062V390.945H628.602V379.461H624.196V377.938H628.602V370.062H630.43ZM614.118 385.906V371.984H623.844V373.508H615.969V377.844H622.93V379.344H615.969V384.383C619.79 384.371 622.251 384.266 625.11 383.75L625.321 385.273C622.286 385.766 619.743 385.906 615.712 385.906H614.118ZM651.572 377.328C650.845 375.148 649.193 373.766 646.767 373.766C643.767 373.766 641.388 376.133 641.377 380.516C641.388 384.887 643.767 387.254 646.908 387.266C649.767 387.254 651.748 385.355 651.783 382.344H647.353V380.492H653.845V382.32C653.845 386.527 650.951 389.234 646.908 389.234C642.373 389.234 639.326 385.883 639.337 380.516C639.326 375.148 642.408 371.797 646.767 371.797C650.353 371.797 653.119 374.047 653.752 377.328H651.572ZM668.108 377.375C667.615 375.031 665.611 373.766 663.373 373.766C660.303 373.766 657.924 376.133 657.912 380.516C657.924 384.887 660.303 387.254 663.373 387.266C665.611 387.254 667.604 386 668.108 383.68H670.217C669.608 387.148 666.818 389.234 663.373 389.234C659.014 389.234 655.861 385.883 655.873 380.516C655.861 375.148 659.014 371.797 663.373 371.797C666.807 371.797 669.584 373.848 670.217 377.375H668.108ZM677.963 389H672.69V372.031H678.174C683.131 372.031 686.049 375.207 686.049 380.492C686.049 385.789 683.131 389 677.963 389ZM674.799 387.125H677.823C681.983 387.125 683.987 384.605 683.987 380.492C683.987 376.391 681.983 373.906 678.034 373.906H674.799V387.125ZM703.757 370.062V378.547H707.132V380.094H703.757V390.898H701.929V370.062H703.757ZM687.772 385.484C693.151 382.812 696.081 378.793 696.503 373.859H688.733V372.312H698.366C698.355 378.207 695.589 383.586 688.804 386.938L687.772 385.484ZM720.844 375.664C720.832 379.473 723.422 383.293 726.492 384.688L725.367 386.141C722.988 384.992 720.938 382.52 719.941 379.555C718.98 382.695 716.93 385.332 714.492 386.562L713.32 385.016C716.426 383.598 718.992 379.613 719.016 375.664V371.867H720.844V375.664ZM728.766 390.945V370.062H730.617V390.945H728.766ZM740.754 373.93C740.766 376.707 742.805 379.238 745.887 380.305L744.95 381.734C742.571 380.891 740.754 379.191 739.864 377.035C738.973 379.402 737.063 381.242 734.614 382.133L733.629 380.703C736.747 379.602 738.926 376.918 738.95 373.93V373.039H734.192V371.539H745.442V373.039H740.754V373.93ZM736.348 385.227V383.727H749.989V390.898H748.161V385.227H736.348ZM748.161 382.625V370.062H749.989V375.57H753.129V377.141H749.989V382.625H748.161ZM766.384 379.062V380.586H761.813V384.688C763.853 384.605 765.903 384.465 767.837 384.242L767.978 385.625C763.36 386.293 758.321 386.387 754.337 386.375L754.079 384.828C755.895 384.828 757.911 384.816 759.985 384.758V380.586H755.673V372.055H766.29V373.555H757.478V379.062H766.384ZM769.22 390.945V370.062H771.048V390.945H769.22ZM791.076 376.391V377.867H776.802V370.836H778.63V376.391H791.076ZM774.201 382.203V380.703H793.279V382.203H774.201ZM776.685 390.383V384.336H778.513V388.859H791.193V390.383H776.685ZM817.303 370.086V384.195H815.452V377.492H810.881V375.945H815.452V370.086H817.303ZM800.381 381.359C805.362 379.824 808.444 376.93 808.83 373.227H801.413V371.727H810.788C810.776 377.07 807.19 380.914 801.202 382.836L800.381 381.359ZM802.561 389.375C806.252 388.73 809.616 386.398 809.639 383.328V382.367H811.444V383.328C811.455 386.363 814.784 388.648 818.452 389.305L817.678 390.781C814.608 390.195 811.772 388.566 810.541 386.129C809.276 388.59 806.416 390.219 803.311 390.828L802.561 389.375ZM829.784 371.422C834.132 371.434 837.401 373.707 837.401 377.141C837.401 380.609 834.132 382.883 829.784 382.859C825.436 382.883 822.167 380.609 822.167 377.141C822.167 373.707 825.436 371.434 829.784 371.422ZM820.292 388.133V386.586H839.37V388.133H820.292ZM823.925 377.141C823.901 379.672 826.421 381.359 829.784 381.359C833.124 381.359 835.62 379.672 835.62 377.141C835.62 374.645 833.124 372.91 829.784 372.922C826.421 372.91 823.901 374.645 823.925 377.141ZM859.632 386.773V388.32H840.554V386.773H849.132V382.836H842.945V376.414H855.413V373.133H842.898V371.609H857.218V377.914H844.773V381.312H857.71V382.836H850.937V386.773H859.632ZM882.649 370.062V376.414H885.789V377.961H882.649V385.32H880.797V370.062H882.649ZM866.383 381.43C871.387 379.871 874.633 376.906 875.02 373.227H867.25V371.68H877.024C877.024 377.047 873.192 381.031 867.18 382.906L866.383 381.43ZM869.594 390.453V383.773H871.422V388.906H883.61V390.453H869.594ZM897.145 373.016C897.134 375.805 900.848 378.172 904.481 378.711L903.802 380.164C900.555 379.613 897.38 377.879 896.114 375.371C894.848 377.879 891.673 379.613 888.473 380.164L887.747 378.711C891.368 378.172 895.071 375.805 895.083 373.016V372.875H888.403V371.375H903.802V372.875H897.145V373.016ZM886.622 383.469V381.945H905.606V383.469H896.981V390.898H895.177V383.469H886.622ZM923.173 370.062V375.406H926.314V376.977H923.173V382.18H921.345V370.062H923.173ZM906.931 373.742V372.219H912.228V369.875H914.056V372.219H919.353V373.742H906.931ZM908.126 378.359C908.115 376.133 910.118 374.715 913.142 374.703C916.13 374.715 918.134 376.133 918.157 378.359C918.134 380.586 916.13 382.027 913.142 382.016C910.118 382.027 908.115 380.586 908.126 378.359ZM909.884 378.359C909.872 379.719 911.173 380.609 913.142 380.609C915.087 380.609 916.4 379.719 916.423 378.359C916.4 377.012 915.087 376.109 913.142 376.133C911.173 376.109 909.872 377.012 909.884 378.359ZM910.001 390.617V383.094H911.829V385.32H921.345V383.094H923.173V390.617H910.001ZM911.829 389.141H921.345V386.773H911.829V389.141ZM944.326 370.062V390.898H942.498V370.062H944.326ZM928.506 385.531V372.125H930.31V383.938C933.498 383.914 936.779 383.668 940.271 382.93L940.529 384.5C936.826 385.273 933.533 385.531 930.193 385.531H928.506ZM963.533 370.062V378.312H967.026V379.859H963.533V390.945H961.705V370.062H963.533ZM948.323 385.719V372.102H958.049V373.625H950.151V384.172C953.924 384.16 956.584 383.996 959.69 383.422L959.924 385.016C956.655 385.602 953.924 385.719 949.963 385.719H948.323ZM969.874 389.141C969.053 389.129 968.35 388.449 968.374 387.617C968.35 386.797 969.053 386.117 969.874 386.117C970.706 386.117 971.385 386.797 971.374 387.617C971.385 388.449 970.706 389.129 969.874 389.141Z" fill="#1E1E1E"/>
<circle cx="281" cy="114" r="15" stroke="#7737FF" stroke-width="12"/>
<line x1="260" y1="1.5" x2="1660" y2="1.5" stroke="#F4F5FA" stroke-width="3"/>
</svg>
