<svg width="1920" height="762" viewBox="0 0 1920 762" fill="none" xmlns="http://www.w3.org/2000/svg">
<rect width="1920" height="762" fill="white"/>
<rect x="588" y="425" width="219" height="18" fill="#9DB6FF" fill-opacity="0.4"/>
<path d="M273.477 408.844C273.477 413.355 276.953 417.672 282.031 419.43L280.43 421.852C276.523 420.445 273.496 417.535 272.012 413.961C270.508 417.945 267.285 421.148 263.164 422.672L261.562 420.25C266.68 418.414 270.391 413.785 270.391 408.883V407.359H262.539V404.859H281.25V407.359H273.477V408.844ZM266.836 427.633V425.094H290.195V437.164H287.109V427.633H266.836ZM280.156 414.117V411.539H287.109V402.438H290.195V423.258H287.109V414.117H280.156ZM313.497 404.82C313.497 406.168 313.341 407.457 313.067 408.688H320.88V402.477H323.966V423.18H320.88V418.57H311.661V416.031H320.88V411.227H312.227C309.884 416.695 304.434 420.66 296.934 422.711L295.723 420.25C304.2 417.906 309.571 413.258 310.196 407.32H297.481V404.82H313.497ZM300.606 427.164V424.703H323.966V437.125H320.88V427.164H300.606ZM340.9 407.906C340.861 412.867 344.396 417.223 349.494 418.961L347.775 421.344C343.947 419.918 340.939 417.086 339.435 413.434C337.951 417.594 334.787 420.816 330.588 422.398L328.908 419.898C334.259 418.023 337.814 413.414 337.853 408.023V404.43H340.9V407.906ZM334.572 430.602C334.552 426.422 338.986 424.02 346.213 424.039C353.42 424.02 357.853 426.422 357.853 430.602C357.853 434.742 353.42 437.086 346.213 437.086C338.986 437.086 334.552 434.742 334.572 430.602ZM337.619 430.602C337.599 433.121 340.88 434.645 346.213 434.625C351.525 434.645 354.806 433.121 354.806 430.602C354.806 428.004 351.525 426.461 346.213 426.461C340.88 426.461 337.599 428.004 337.619 430.602ZM346.916 412.438V409.898H354.65V402.438H357.736V423.023H354.65V412.438H346.916ZM391.448 405.094V407.633H387.894V418.746C389.495 418.629 391.077 418.492 392.581 418.297L392.738 420.641C385.96 421.676 378.07 421.793 372.425 421.773L372.034 419.195C373.421 419.195 374.925 419.195 376.527 419.176V407.633H373.011V405.094H391.448ZM377.581 430.836C377.562 426.871 381.956 424.605 389.222 424.625C396.488 424.605 400.863 426.871 400.863 430.836C400.863 434.801 396.488 437.086 389.222 437.086C381.956 437.086 377.562 434.801 377.581 430.836ZM379.495 419.117C381.273 419.078 383.109 419.02 384.925 418.922V407.633H379.495V419.117ZM380.628 430.836C380.609 433.258 383.87 434.664 389.222 434.664C394.554 434.664 397.816 433.258 397.816 430.836C397.816 428.453 394.554 427.008 389.222 427.008C383.87 427.008 380.609 428.453 380.628 430.836ZM391.8 417.438V414.898H397.659V411.227H391.8V408.688H397.659V402.438H400.745V423.883H397.659V417.438H391.8ZM432.602 402.438V416.578H438.227V419.156H432.602V437.164H429.555V402.438H432.602ZM405.961 428.141C414.926 423.688 419.809 416.988 420.512 408.766H407.562V406.188H423.617C423.598 416.012 418.988 424.977 407.68 430.562L405.961 428.141ZM450.864 404.977C456.313 404.996 460.18 408.316 460.2 413.141C460.18 417.984 456.313 421.285 450.864 421.305C445.376 421.285 441.47 417.984 441.489 413.141C441.47 408.316 445.376 404.996 450.864 404.977ZM439.692 426.969C446.098 426.988 454.946 426.93 462.622 425.797L462.856 428.062C454.907 429.547 446.372 429.586 440.122 429.586L439.692 426.969ZM444.497 413.141C444.477 416.383 447.153 418.609 450.864 418.609C454.536 418.609 457.212 416.383 457.192 413.141C457.212 409.918 454.536 407.672 450.864 407.672C447.153 407.672 444.477 409.918 444.497 413.141ZM464.927 437.242V402.438H467.973V437.242H464.927ZM500.123 406.539V409.039H482.311V406.539H489.733V402.633H492.78V406.539H500.123ZM483.834 416.969C483.815 413.258 486.881 410.797 491.256 410.797C495.651 410.797 498.698 413.258 498.717 416.969C498.698 420.602 495.651 423.062 491.256 423.062C486.881 423.062 483.815 420.602 483.834 416.969ZM486.569 416.969C486.569 419.195 488.483 420.719 491.256 420.719C494.03 420.719 495.944 419.195 495.944 416.969C495.944 414.664 494.03 413.141 491.256 413.102C488.483 413.141 486.569 414.664 486.569 416.969ZM488.6 428.609V426.109H511.998V437.164H508.991V428.609H488.6ZM501.608 423.805V403.062H504.538V412.242H509.069V402.477H511.998V424.039H509.069V414.781H504.538V423.805H501.608ZM544.948 402.477V422.203H541.902V402.477H544.948ZM516.55 418.883C521.804 417.047 525.456 412.34 525.456 407.242V403.844H528.581V407.242C528.542 412.145 532.292 416.48 537.409 418.297L535.847 420.641C531.823 419.254 528.601 416.324 527.038 412.535C525.495 416.559 522.253 419.762 518.113 421.305L516.55 418.883ZM522.37 436.695V424.195H544.948V436.695H522.37ZM525.378 434.195H541.941V426.695H525.378V434.195ZM581.688 420.758V423.258H550.047V420.758H581.688ZM553.562 410.562C553.562 406.207 558.328 403.648 565.867 403.688C573.328 403.648 578.113 406.207 578.133 410.562C578.113 414.879 573.328 417.477 565.867 417.477C558.328 417.477 553.562 414.879 553.562 410.562ZM554.148 436.422V426.305H557.234V433.844H578.172V436.422H554.148ZM556.727 410.562C556.707 413.316 560.262 414.977 565.867 414.977C571.434 414.977 574.988 413.316 575.008 410.562C574.988 407.848 571.434 406.148 565.867 406.148C560.262 406.148 556.707 407.848 556.727 410.562ZM622.236 402.203V427.984H617.861V402.203H622.236ZM592.861 419.664C598.584 417.652 601.513 412.672 601.494 407.594V404.156H605.986V407.594C605.966 412.516 608.857 417.164 614.462 419.039L612.236 422.477C608.212 421.07 605.341 418.258 603.779 414.645C602.216 418.512 599.287 421.598 595.127 423.102L592.861 419.664ZM598.877 436.773V425.523H603.252V433.258H623.212V436.773H598.877ZM647.256 405.328V415.406H633.584V418.922H648.116V422.32H640.577V427.203C643.623 427.086 646.67 426.891 649.561 426.578L649.913 429.742C642.139 430.973 633.955 431.07 627.295 430.992L626.748 427.398C629.678 427.418 632.901 427.418 636.202 427.34V422.32H629.209V412.203H642.959V408.766H629.17V405.328H647.256ZM651.67 437.516V402.164H656.006V437.516H651.67ZM670.909 404.352C676.339 404.352 680.48 407.848 680.519 412.867C680.48 417.184 677.433 420.367 673.136 421.168V426.383C676.085 426.227 679.015 426.012 681.769 425.641L682.081 428.883C674.679 430.211 666.612 430.25 660.558 430.172L659.933 426.617C662.589 426.617 665.636 426.598 668.8 426.52V421.207C664.366 420.426 661.3 417.223 661.339 412.867C661.3 407.848 665.362 404.352 670.909 404.352ZM665.558 412.867C665.538 415.816 667.823 417.711 670.909 417.672C673.937 417.711 676.202 415.816 676.222 412.867C676.202 409.898 673.937 408.062 670.909 408.023C667.823 408.062 665.538 409.898 665.558 412.867ZM683.8 437.477V402.164H688.136V416.266H693.253V419.938H688.136V437.477H683.8ZM732.395 402.164V423.141H728.059V414.508H722.044V410.953H728.059V402.164H732.395ZM702.708 419.625C708.391 417.672 711.38 412.926 711.38 408.258V407.984H704.036V404.469H723.098V407.984H715.794V408.219C715.794 412.516 718.645 416.852 724.114 418.688L721.927 422.125C718.001 420.797 715.227 418.102 713.665 414.781C712.122 418.531 709.173 421.578 704.973 423.062L702.708 419.625ZM708.45 430.758C708.411 426.52 713.001 424.039 720.442 424.039C727.923 424.039 732.493 426.52 732.513 430.758C732.493 434.996 727.923 437.457 720.442 437.477C713.001 437.457 708.411 434.996 708.45 430.758ZM712.747 430.758C712.727 432.945 715.54 434.137 720.442 434.117C725.384 434.137 728.177 432.945 728.177 430.758C728.177 428.551 725.384 427.359 720.442 427.359C715.54 427.359 712.727 428.551 712.747 430.758ZM764.564 402.203V412.477H769.33V416.07H764.564V426.07H760.228V402.203H764.564ZM736.283 421.852C738.939 421.852 742.005 421.832 745.189 421.754V419.586C741.263 419.098 738.763 417.203 738.783 414.43C738.763 411.168 742.181 409.176 747.298 409.195C752.435 409.176 755.814 411.168 755.814 414.43C755.814 417.184 753.392 419.059 749.525 419.566V421.598C752.533 421.441 755.56 421.207 758.392 420.836L758.744 423.844C751.224 425.172 742.962 425.25 736.752 425.25L736.283 421.852ZM737.181 408.18V404.977H745.189V401.891H749.525V404.977H757.455V408.18H737.181ZM740.736 430.992V427.594H764.564V437.477H760.228V430.992H740.736ZM742.962 414.43C742.923 415.895 744.564 416.812 747.298 416.773C750.033 416.812 751.673 415.895 751.673 414.43C751.673 412.887 750.033 412.105 747.298 412.125C744.564 412.105 742.923 412.887 742.962 414.43ZM798.217 402.164V411.109H803.139V414.742H798.217V423.453H793.881V402.164H798.217ZM770.405 409.039V405.562H778.725V401.93H783.061V405.562H791.342V409.039H770.405ZM772.202 416.656C772.202 412.887 775.717 410.328 780.873 410.328C785.991 410.328 789.487 412.887 789.506 416.656C789.487 420.465 785.971 422.984 780.873 422.984C775.717 422.984 772.202 420.465 772.202 416.656ZM775.405 437.047V425.133H798.217V437.047H775.405ZM776.42 416.656C776.401 418.629 778.198 419.742 780.873 419.742C783.549 419.742 785.366 418.629 785.366 416.656C785.366 414.742 783.549 413.609 780.873 413.609C778.198 413.609 776.401 414.742 776.42 416.656ZM779.702 433.531H793.92V428.57H779.702V433.531ZM833.042 402.438V421.07H829.995V402.438H833.042ZM805.191 412.125C805.171 407.379 809.019 404.117 814.292 404.156C819.566 404.117 823.374 407.379 823.394 412.125C823.374 416.852 819.566 420.113 814.292 420.094C809.019 420.113 805.171 416.852 805.191 412.125ZM808.198 412.125C808.159 415.289 810.718 417.535 814.292 417.555C817.827 417.535 820.386 415.289 820.386 412.125C820.386 408.941 817.827 406.715 814.292 406.734C810.718 406.715 808.159 408.941 808.198 412.125ZM810.542 436.695V422.828H813.589V427.047H829.995V422.828H833.042V436.695H810.542ZM813.589 434.195H829.995V429.508H813.589V434.195ZM866.773 402.438V437.164H863.727V402.438H866.773ZM840.406 428.219V405.875H843.414V425.562C848.727 425.523 854.195 425.113 860.016 423.883L860.445 426.5C854.273 427.789 848.785 428.219 843.219 428.219H840.406ZM898.786 402.438V416.188H904.606V418.766H898.786V437.242H895.739V402.438H898.786ZM873.434 428.531V405.836H889.645V408.375H876.481V425.953C882.77 425.934 887.204 425.66 892.38 424.703L892.77 427.359C887.321 428.336 882.77 428.531 876.169 428.531H873.434ZM909.353 434.234C907.986 434.215 906.814 433.082 906.853 431.695C906.814 430.328 907.986 429.195 909.353 429.195C910.74 429.195 911.873 430.328 911.853 431.695C911.873 433.082 910.74 434.215 909.353 434.234Z" fill="#1E1E1E"/>
<path d="M261.57 547V530.031H264.617V537.227H272.516V530.031H275.586V547H272.516V539.781H264.617V547H261.57ZM280.497 530.031L284.903 543.414H285.09L289.52 530.031H292.872L286.872 547H283.122L277.145 530.031H280.497ZM294.571 547H291.313L297.29 530.031H301.04L307.04 547H303.782L302.364 542.805H295.978L294.571 547ZM296.798 540.344H301.544L299.235 533.5H299.095L296.798 540.344ZM319.216 535.75C318.853 533.711 317.224 532.539 315.162 532.539C312.384 532.539 310.415 534.672 310.427 538.516C310.415 542.418 312.396 544.492 315.162 544.492C317.177 544.492 318.806 543.367 319.216 541.375H322.287C321.818 544.633 319.134 547.234 315.115 547.234C310.638 547.234 307.345 543.988 307.357 538.516C307.345 533.031 310.673 529.797 315.115 529.797C318.865 529.797 321.759 531.977 322.287 535.75H319.216ZM342.76 540.438V541.938H334.064V548.898H332.26V541.938H323.682V540.438H342.76ZM326.119 537.906V528.93H327.947V531.812H338.447V528.93H340.299V537.906H326.119ZM327.947 536.406H338.447V533.312H327.947V536.406ZM361.241 528.062V548.945H359.412V537.461H355.006V535.938H359.412V528.062H361.241ZM344.928 543.906V529.984H354.655V531.508H346.78V535.844H353.741V537.344H346.78V542.383C350.6 542.371 353.061 542.266 355.92 541.75L356.131 543.273C353.096 543.766 350.553 543.906 346.522 543.906H344.928ZM387.327 527.898V549.086H384.702V527.898H387.327ZM369.773 543.25C375.327 540.613 377.882 537.027 378.351 532.211H370.851V530.148H380.999C380.999 536.453 378.55 541.809 371.132 545.336L369.773 543.25ZM407.59 527.898V549.086H404.965V527.898H407.59ZM390.035 543.25C395.59 540.613 398.144 537.027 398.613 532.211H391.113V530.148H401.262C401.262 536.453 398.812 541.809 391.394 545.336L390.035 543.25ZM428.438 527.898V549.086H425.93V527.898H428.438ZM410.367 537.062C410.367 532.398 412.172 529.504 414.938 529.516C417.504 529.504 419.25 531.906 419.555 535.867H421.594V528.273H424.078V548.055H421.594V537.977H419.578C419.332 542.113 417.563 544.645 414.938 544.633C412.172 544.645 410.367 541.738 410.367 537.062ZM412.782 537.062C412.77 540.379 413.59 542.16 414.938 542.148C416.344 542.16 417.176 540.379 417.188 537.062C417.176 533.758 416.344 531.965 414.938 531.977C413.59 531.965 412.77 533.758 412.782 537.062ZM453.868 527.898V549.086H451.384V538.281H448.993V548.008H446.603V528.297H448.993V536.195H451.384V527.898H453.868ZM436.29 544.141V530.406H444.212V532.516H438.915V541.938C441.212 541.914 443.111 541.797 445.267 541.398L445.454 543.531C442.888 544.047 440.673 544.117 437.72 544.141H436.29ZM472.607 527.922V534.578H475.56V536.734H472.607V543.742H470.006V527.922H472.607ZM455.92 532.352V530.266H460.912V527.898H463.513V530.266H468.482V532.352H455.92ZM456.998 537.273C456.998 534.836 459.119 533.219 462.201 533.219C465.26 533.219 467.369 534.836 467.381 537.273C467.369 539.699 465.26 541.281 462.201 541.281C459.119 541.281 456.998 539.699 456.998 537.273ZM459.037 548.664V542.5H461.638V546.555H473.451V548.664H459.037ZM459.529 537.273C459.517 538.551 460.595 539.277 462.201 539.266C463.806 539.277 464.896 538.551 464.896 537.273C464.896 535.984 463.806 535.234 462.201 535.234C460.595 535.234 459.517 535.984 459.529 537.273ZM489.155 531.531C489.155 534.121 490.866 536.711 494.147 537.812L492.835 539.828C490.467 539.055 488.792 537.449 487.866 535.457C486.94 537.672 485.182 539.453 482.663 540.297L481.327 538.234C484.702 537.121 486.507 534.309 486.507 531.555V531.273H482.1V529.188H493.538V531.273H489.155V531.531ZM484.678 543.625V541.539H499.116V549.086H496.514V543.625H484.678ZM492.905 535.281V533.148H496.514V527.898H499.116V540.531H496.514V535.281H492.905ZM512.909 529.258C512.909 530.031 512.839 530.758 512.698 531.461H516.777V527.922H519.378V540.508H516.777V538.047H511.691V535.938H516.777V533.547H512.054C510.624 536.84 507.448 539.172 502.902 540.391L501.917 538.305C506.804 537.027 509.675 534.496 510.109 531.391H503.066V529.258H512.909ZM504.941 543.461V541.398H519.378V549.016H516.777V543.461H504.941ZM529.656 530.945C529.644 533.828 531.332 536.465 534.648 537.508L533.242 539.547C530.933 538.727 529.316 537.18 528.414 535.176C527.476 537.484 525.707 539.301 523.14 540.203L521.758 538.094C525.261 536.945 527.019 534.121 527.031 531.062V529.047H529.656V530.945ZM525.273 545.008C525.25 542.43 528.004 540.918 532.468 540.93C536.957 540.918 539.699 542.43 539.711 545.008C539.699 547.586 536.957 549.062 532.468 549.062C528.004 549.062 525.25 547.586 525.273 545.008ZM527.851 545.008C527.84 546.297 529.527 547.012 532.468 547.023C535.433 547.012 537.109 546.297 537.109 545.008C537.109 543.672 535.433 542.957 532.468 542.945C529.527 542.957 527.84 543.672 527.851 545.008ZM532.82 534.133V532H537.039V527.898H539.64V540.367H537.039V534.133H532.82ZM559.212 529.375V531.484H557.337V537.496C558.11 537.438 558.883 537.367 559.61 537.273V535.375H562.516V533.547H559.61V531.461H562.516V527.898H565.118V540.883H562.516V537.461H559.669L559.774 539.195C555.731 539.863 551.055 539.934 547.68 539.945L547.399 537.789C548.137 537.789 548.946 537.789 549.79 537.777V531.484H547.938V529.375H559.212ZM550.751 545.172C550.727 542.676 553.458 541.258 557.946 541.258C562.469 541.258 565.176 542.676 565.188 545.172C565.176 547.609 562.469 549.062 557.946 549.062C553.458 549.062 550.727 547.609 550.751 545.172ZM552.321 537.742C553.141 537.719 553.985 537.684 554.829 537.648V531.484H552.321V537.742ZM553.329 545.172C553.317 546.402 554.981 547.047 557.946 547.047C560.922 547.047 562.587 546.402 562.587 545.172C562.587 543.918 560.922 543.25 557.946 543.25C554.981 543.25 553.317 543.918 553.329 545.172ZM584.232 527.898V536.172H587.372V538.352H584.232V549.039H581.63V527.898H584.232ZM567.521 543.25C572.677 540.672 575.466 537.086 575.982 532.258H568.669V530.102H578.63C578.618 536.324 576.04 541.797 568.997 545.266L567.521 543.25ZM604.541 528.062V536.664H607.705V538.211H604.541V548.898H602.689V528.062H604.541ZM587.97 543.133C591.111 539.91 592.388 536.031 592.623 531.883H588.627V530.336H594.369C594.345 535.293 593.232 540.191 589.447 544.188L587.97 543.133ZM593.947 544.539C597.205 540.859 598.177 536.23 598.353 531.883H595.025V530.336H600.087C600.076 535.281 599.349 541.035 595.447 545.57L593.947 544.539ZM615.756 534.461C615.768 538 618.334 541.598 621.404 542.922L620.373 544.375C617.936 543.273 615.838 540.871 614.865 537.988C613.893 541.047 611.783 543.695 609.404 544.891L608.303 543.438C611.291 542.008 613.893 538.07 613.904 534.461V531.742H608.983V530.219H620.725V531.742H615.756V534.461ZM623.631 548.898V528.062H625.483V548.898H623.631ZM650.819 530.172V532.258C650.796 534.812 650.796 537.672 650.046 541.867L648.171 541.656C648.956 537.672 648.956 534.754 648.968 532.258V531.695H636.124V530.172H650.819ZM634.108 545.945V544.422H641.562V536.969H643.366V544.422H653.093V545.945H634.108ZM672.066 528.086V540.367H670.308V534.859H667.472V540.227H665.714V528.484H667.472V533.336H670.308V528.086H672.066ZM654.488 539.219C658.812 537.461 661.261 534.637 661.613 531.133H655.332V529.609H663.511C663.5 534.59 660.687 538.352 655.402 540.602L654.488 539.219ZM658.003 542.828V541.328H672.066V548.898H670.261V542.828H658.003ZM681.617 533.664C681.617 537.332 684.043 541.117 687.008 542.57L685.883 544.047C683.586 542.852 681.664 540.379 680.738 537.484C679.812 540.555 677.844 543.191 675.5 544.445L674.328 542.969C677.375 541.469 679.789 537.473 679.812 533.664V529.867H681.617V533.664ZM688.93 548.898V528.062H690.758V536.523H694.25V538.117H690.758V548.898H688.93ZM701.176 529.422C704.375 529.445 706.719 531.414 706.731 534.32C706.719 536.934 704.821 538.785 702.114 539.137V542.676C704.059 542.594 706.016 542.453 707.832 542.219L707.95 543.602C703.532 544.352 698.61 544.398 694.942 544.375L694.637 542.828C696.313 542.816 698.247 542.805 700.262 542.746V539.137C697.497 538.809 695.61 536.945 695.622 534.32C695.61 531.414 697.918 529.445 701.176 529.422ZM697.426 534.32C697.403 536.277 698.985 537.637 701.176 537.625C703.332 537.637 704.903 536.277 704.926 534.32C704.903 532.363 703.332 531.027 701.176 531.016C698.985 531.027 697.403 532.363 697.426 534.32ZM709.168 548.898V528.062H710.997V536.664H714.395V538.258H710.997V548.898H709.168ZM736.99 528.062V533.617H740.13V535.188H736.99V540.625H735.162V528.062H736.99ZM720.747 531.812V530.289H726.044V527.898H727.872V530.289H733.169V531.812H720.747ZM721.943 536.547C721.931 534.32 723.935 532.844 726.958 532.844C729.947 532.844 731.951 534.32 731.974 536.547C731.951 538.809 729.947 540.273 726.958 540.273C723.935 540.273 721.931 538.809 721.943 536.547ZM723.701 536.547C723.689 537.965 724.99 538.844 726.958 538.867C728.904 538.844 730.216 537.965 730.24 536.547C730.216 535.188 728.904 534.273 726.958 534.273C724.99 534.273 723.689 535.188 723.701 536.547ZM723.841 548.617V541.82H736.99V548.617H723.841ZM725.646 547.117H735.162V543.297H725.646V547.117ZM746.142 530.594C746.119 534.965 745.51 539.887 742.463 543.93L741.01 543.086C743.611 539.828 744.385 535.949 744.537 532.117H741.432V530.594H746.142ZM745.697 544.445C748.568 540.766 749.072 536.008 749.154 532.117H746.799V530.594H750.76C750.76 532.293 750.713 534.25 750.455 536.266H753.221V528.625H754.978V547.844H753.221V537.789H750.209C749.728 540.391 748.826 543.027 747.127 545.312L745.697 544.445ZM757.111 548.898V528.062H758.892V548.898H757.111ZM777.292 529.492V538.398H767.659V529.492H777.292ZM768.878 547.398C772.323 546.859 775.382 544.961 775.593 542.688H769.698V541.188H783.432V542.688H777.515C777.714 544.914 780.831 546.859 784.229 547.398L783.55 548.828C780.503 548.324 777.749 546.812 776.542 544.727C775.37 546.824 772.616 548.312 769.581 548.805L768.878 547.398ZM769.464 536.898H775.511V530.992H769.464V536.898ZM781.229 539.969V528.062H783.057V533.078H786.198V534.625H783.057V539.969H781.229ZM794.718 531.93C794.718 534.004 796.816 535.809 799.734 536.453L798.937 537.906C796.558 537.32 794.695 536.02 793.816 534.309C792.949 536.172 791.062 537.566 788.601 538.188L787.804 536.781C790.745 536.09 792.82 534.156 792.82 531.93V531.859H788.249V530.383H792.867V528.133H794.695V530.383H799.265V531.859H794.718V531.93ZM786.937 539.547C790.898 539.57 796.16 539.523 800.765 538.867L800.882 540.273C798.82 540.625 796.687 540.824 794.624 540.953V548.266H792.773V541.035C790.769 541.117 788.87 541.117 787.195 541.117L786.937 539.547ZM797.601 544.094V542.617H802.406V528.086H804.281V548.922H802.406V544.094H797.601ZM820.336 532.539C820.348 535.352 822.563 537.883 825.68 538.867L824.742 540.344C822.317 539.512 820.395 537.801 819.446 535.609C818.543 537.977 816.586 539.852 814.102 540.766L813.141 539.289C816.27 538.199 818.473 535.492 818.485 532.539V531.32H813.61V529.82H825.141V531.32H820.336V532.539ZM816.586 548.453V541.914H818.414V546.906H830.696V548.453H816.586ZM828.211 543.367V528.086H830.039V543.367H828.211ZM850.794 528.062V541.258H849.036V535.281H846.247V540.508H844.513V528.484H846.247V533.758H849.036V528.062H850.794ZM832.981 532.047V530.57H837.434V528.227H839.263V530.57H843.669V532.047H832.981ZM833.895 536.734C833.884 534.555 835.723 533.16 838.348 533.172C840.985 533.16 842.813 534.555 842.825 536.734C842.813 538.879 840.985 540.273 838.348 540.273C835.723 540.273 833.884 538.879 833.895 536.734ZM835.536 536.734C835.536 538.012 836.684 538.891 838.348 538.891C840.013 538.891 841.161 538.012 841.161 536.734C841.161 535.41 840.013 534.531 838.348 534.531C836.684 534.531 835.536 535.41 835.536 536.734ZM836.919 545.266C836.895 542.922 839.509 541.609 843.903 541.609C848.286 541.609 850.899 542.922 850.911 545.266C850.899 547.551 848.286 548.852 843.903 548.852C839.509 548.852 836.895 547.551 836.919 545.266ZM838.747 545.266C838.723 546.613 840.657 547.434 843.903 547.422C847.138 547.434 849.059 546.613 849.083 545.266C849.059 543.836 847.138 543.039 843.903 543.062C840.657 543.039 838.723 543.836 838.747 545.266ZM869.65 528.062V533.406H872.79V534.977H869.65V540.18H867.822V528.062H869.65ZM853.407 531.742V530.219H858.704V527.875H860.532V530.219H865.829V531.742H853.407ZM854.603 536.359C854.591 534.133 856.595 532.715 859.618 532.703C862.607 532.715 864.611 534.133 864.634 536.359C864.611 538.586 862.607 540.027 859.618 540.016C856.595 540.027 854.591 538.586 854.603 536.359ZM856.361 536.359C856.349 537.719 857.65 538.609 859.618 538.609C861.564 538.609 862.876 537.719 862.9 536.359C862.876 535.012 861.564 534.109 859.618 534.133C857.65 534.109 856.349 535.012 856.361 536.359ZM856.478 548.617V541.094H858.306V543.32H867.822V541.094H869.65V548.617H856.478ZM858.306 547.141H867.822V544.773H858.306V547.141ZM890.802 528.062V548.898H888.974V528.062H890.802ZM874.982 543.531V530.125H876.787V541.938C879.974 541.914 883.256 541.668 886.748 540.93L887.006 542.5C883.302 543.273 880.01 543.531 876.67 543.531H874.982ZM910.01 528.062V536.312H913.502V537.859H910.01V548.945H908.182V528.062H910.01ZM894.799 543.719V530.102H904.526V531.625H896.627V542.172C900.401 542.16 903.061 541.996 906.166 541.422L906.401 543.016C903.131 543.602 900.401 543.719 896.44 543.719H894.799ZM916.35 547.141C915.53 547.129 914.827 546.449 914.85 545.617C914.827 544.797 915.53 544.117 916.35 544.117C917.182 544.117 917.862 544.797 917.85 545.617C917.862 546.449 917.182 547.129 916.35 547.141ZM271.297 570.008C271.309 572.949 275.129 575.48 278.891 576.008L278.141 577.508C274.906 576.969 271.695 575.176 270.359 572.621C269.023 575.199 265.824 576.969 262.578 577.508L261.828 576.008C265.59 575.48 269.398 572.996 269.398 570.008V568.812H271.297V570.008ZM260.844 581.352V579.805H279.828V581.352H271.203V588.898H269.398V581.352H260.844ZM297.395 568.062V572.773H300.536V574.32H297.395V578.75H295.567V568.062H297.395ZM281.997 577.93V569.445H291.629V577.93H281.997ZM283.333 588.336V580.625H285.114V586.824C286.321 586.777 287.926 586.602 289.403 586.109L289.684 587.586C287.657 588.254 285.676 588.348 284.317 588.336H283.333ZM283.801 576.453H289.848V570.945H283.801V576.453ZM288.958 582.242V580.836H293.34V578.984H295.145V580.836H299.481V582.242H288.958ZM290.34 585.922C290.329 584.117 291.911 583.004 294.208 582.992C296.493 583.004 298.098 584.117 298.122 585.922C298.098 587.727 296.493 588.852 294.208 588.852C291.911 588.852 290.329 587.727 290.34 585.922ZM291.981 585.922C291.981 586.918 292.907 587.562 294.208 587.539C295.508 587.562 296.434 586.918 296.434 585.922C296.434 584.949 295.508 584.316 294.208 584.305C292.907 584.316 291.981 584.949 291.981 585.922ZM320.353 579.055V580.555H301.368V579.055H320.353ZM303.478 572.938C303.478 570.324 306.337 568.789 310.86 568.812C315.337 568.789 318.208 570.324 318.22 572.938C318.208 575.527 315.337 577.086 310.86 577.086C306.337 577.086 303.478 575.527 303.478 572.938ZM303.829 588.453V582.383H305.681V586.906H318.243V588.453H303.829ZM305.376 572.938C305.364 574.59 307.497 575.586 310.86 575.586C314.2 575.586 316.333 574.59 316.345 572.938C316.333 571.309 314.2 570.289 310.86 570.289C307.497 570.289 305.364 571.309 305.376 572.938ZM343.744 569.094V570.664C343.744 572.27 343.744 574.145 343.24 576.617H346.158V578.117H327.197V576.617H341.389C341.611 575.621 341.728 574.73 341.81 573.922L329.33 574.461L329.096 572.984L341.893 572.598C341.928 571.918 341.916 571.273 341.916 570.664V570.594H329.588V569.094H343.744ZM329.424 581.562V580.133H343.908V584.938H331.299V587.141H344.635V588.617H329.471V583.531H342.08V581.562H329.424ZM363.561 568.062V576.359H367.053V577.906H363.561V588.945H361.733V568.062H363.561ZM348.256 571.531V570.008H357.725V577.461H350.131V582.336C353.998 582.348 356.705 582.195 359.858 581.609L360.045 583.133C356.764 583.73 353.987 583.883 349.967 583.906H348.303V575.938H355.897V571.531H348.256ZM384.878 568.062V588.945H383.026V568.062H384.878ZM368.472 576.945C368.483 572.516 370.686 569.691 373.792 569.68C376.886 569.691 379.124 572.516 379.112 576.945C379.124 581.387 376.886 584.199 373.792 584.188C370.686 584.199 368.483 581.387 368.472 576.945ZM370.253 576.945C370.253 580.332 371.706 582.559 373.792 582.547C375.89 582.559 377.331 580.332 377.331 576.945C377.331 573.559 375.89 571.332 373.792 571.32C371.706 571.332 370.253 573.559 370.253 576.945ZM405.234 568.086V583.438H403.382V575.398H399.023C398.613 577.965 396.456 579.711 393.702 579.711C390.585 579.711 388.277 577.566 388.288 574.555C388.277 571.531 390.585 569.434 393.702 569.422C396.515 569.434 398.706 571.227 399.046 573.875H403.382V568.086H405.234ZM390.046 574.555C390.046 576.629 391.605 578.094 393.702 578.117C395.753 578.094 397.312 576.629 397.312 574.555C397.312 572.492 395.753 571.051 393.702 571.039C391.605 571.051 390.046 572.492 390.046 574.555ZM391.851 588.453V581.867H393.702V586.906H405.82V588.453H391.851ZM425.098 579.336V580.836H410.683V569.867H424.863V571.414H412.558V574.508H424.418V575.984H412.558V579.336H425.098ZM408.223 586.18V584.656H427.301V586.18H408.223ZM453.083 579.102V580.602H444.598V584.68H442.77V580.602H434.005V579.102H453.083ZM436.442 588.453V582.758H438.27V586.906H450.95V588.453H436.442ZM436.559 577.062V568.742H438.387V571.414H448.7V568.742H450.528V577.062H436.559ZM438.387 575.562H448.7V572.82H438.387V575.562ZM473.298 576.828V578.305H454.29V576.828H473.298ZM456.587 581.609V580.18H470.837V585.008H458.462V587.164H471.47V588.664H456.634V583.625H469.033V581.609H456.587ZM456.822 575.117V568.789H470.814V570.266H458.673V573.617H471.025V575.117H456.822ZM486.107 570.383V571.461C486.095 573.113 486.095 575.867 485.498 579.734L483.646 579.57C484.22 576.078 484.267 573.547 484.256 571.883H475.513V570.383H486.107ZM474.342 582.781C475.713 582.77 477.236 582.758 478.842 582.723V576.336H480.646V582.664C482.955 582.582 485.322 582.43 487.49 582.172L487.584 583.555C483.201 584.234 478.303 584.328 474.576 584.305L474.342 582.781ZM488.803 588.898V568.062H490.631V576.781H494.006V578.375H490.631V588.898H488.803ZM516.647 568.062V573.617H519.788V575.188H516.647V580.625H514.819V568.062H516.647ZM500.405 571.812V570.289H505.702V567.898H507.53V570.289H512.827V571.812H500.405ZM501.6 576.547C501.589 574.32 503.592 572.844 506.616 572.844C509.604 572.844 511.608 574.32 511.632 576.547C511.608 578.809 509.604 580.273 506.616 580.273C503.592 580.273 501.589 578.809 501.6 576.547ZM503.358 576.547C503.346 577.965 504.647 578.844 506.616 578.867C508.561 578.844 509.874 577.965 509.897 576.547C509.874 575.188 508.561 574.273 506.616 574.273C504.647 574.273 503.346 575.188 503.358 576.547ZM503.499 588.617V581.82H516.647V588.617H503.499ZM505.303 587.117H514.819V583.297H505.303V587.117ZM525.8 570.594C525.777 574.965 525.167 579.887 522.12 583.93L520.667 583.086C523.269 579.828 524.042 575.949 524.195 572.117H521.089V570.594H525.8ZM525.355 584.445C528.226 580.766 528.73 576.008 528.812 572.117H526.456V570.594H530.417C530.417 572.293 530.37 574.25 530.112 576.266H532.878V568.625H534.636V587.844H532.878V577.789H529.866C529.386 580.391 528.484 583.027 526.784 585.312L525.355 584.445ZM536.769 588.898V568.062H538.55V588.898H536.769ZM553.926 572.539C553.938 575.352 556.152 577.883 559.27 578.867L558.332 580.344C555.906 579.512 553.985 577.801 553.035 575.609C552.133 577.977 550.176 579.852 547.692 580.766L546.731 579.289C549.86 578.199 552.063 575.492 552.074 572.539V571.32H547.199V569.82H558.731V571.32H553.926V572.539ZM550.176 588.453V581.914H552.004V586.906H564.285V588.453H550.176ZM561.801 583.367V568.086H563.629V583.367H561.801ZM584.383 568.062V581.258H582.626V575.281H579.837V580.508H578.102V568.484H579.837V573.758H582.626V568.062H584.383ZM566.571 572.047V570.57H571.024V568.227H572.852V570.57H577.258V572.047H566.571ZM567.485 576.734C567.473 574.555 569.313 573.16 571.938 573.172C574.575 573.16 576.403 574.555 576.415 576.734C576.403 578.879 574.575 580.273 571.938 580.273C569.313 580.273 567.473 578.879 567.485 576.734ZM569.126 576.734C569.126 578.012 570.274 578.891 571.938 578.891C573.602 578.891 574.751 578.012 574.751 576.734C574.751 575.41 573.602 574.531 571.938 574.531C570.274 574.531 569.126 575.41 569.126 576.734ZM570.508 585.266C570.485 582.922 573.098 581.609 577.493 581.609C581.876 581.609 584.489 582.922 584.501 585.266C584.489 587.551 581.876 588.852 577.493 588.852C573.098 588.852 570.485 587.551 570.508 585.266ZM572.337 585.266C572.313 586.613 574.247 587.434 577.493 587.422C580.727 587.434 582.649 586.613 582.672 585.266C582.649 583.836 580.727 583.039 577.493 583.062C574.247 583.039 572.313 583.836 572.337 585.266ZM597.357 571.672V573.172H586.903V571.672H591.239V568.695H593.068V571.672H597.357ZM587.653 579.312C587.653 576.547 589.54 574.59 592.13 574.578C594.755 574.59 596.63 576.547 596.653 579.312C596.63 582.113 594.755 584.082 592.13 584.094C589.54 584.082 587.653 582.113 587.653 579.312ZM589.294 579.312C589.294 581.164 590.478 582.488 592.13 582.477C593.794 582.488 595.013 581.164 595.013 579.312C595.013 577.484 593.794 576.148 592.13 576.125C590.478 576.148 589.294 577.484 589.294 579.312ZM598.435 587.867V568.578H600.169V576.852H602.935V568.062H604.693V588.898H602.935V578.375H600.169V587.867H598.435ZM631.74 579.172V580.695H612.756V579.172H621.334V576.992C617.338 576.781 614.865 575.281 614.865 572.82C614.865 570.254 617.725 568.707 622.248 568.695C626.725 568.707 629.596 570.254 629.608 572.82C629.596 575.281 627.111 576.781 623.162 576.992V579.172H631.74ZM615.217 588.453V582.383H617.068V586.906H629.631V588.453H615.217ZM616.764 572.82C616.752 574.52 618.885 575.492 622.248 575.492C625.588 575.492 627.721 574.52 627.733 572.82C627.721 571.227 625.588 570.195 622.248 570.195C618.885 570.195 616.752 571.227 616.764 572.82ZM642.921 568.906V571.555H653.233V568.906H655.062V577.227H648.968V579.453H657.546V580.977H638.562V579.453H647.14V577.227H641.093V568.906H642.921ZM641.022 588.453V582.641H642.874V586.906H655.437V588.453H641.022ZM642.921 575.75H653.233V573.008H642.921V575.75ZM665.808 573.664C665.808 577.332 668.234 581.117 671.199 582.57L670.074 584.047C667.777 582.852 665.855 580.379 664.929 577.484C664.003 580.555 662.035 583.191 659.691 584.445L658.519 582.969C661.566 581.469 663.98 577.473 664.003 573.664V569.867H665.808V573.664ZM673.121 588.898V568.062H674.949V576.523H678.441V578.117H674.949V588.898H673.121ZM695.938 574.391V575.867H681.664V568.836H683.492V574.391H695.938ZM679.062 580.203V578.703H698.141V580.203H679.062ZM681.547 588.383V582.336H683.375V586.859H696.055V588.383H681.547ZM712.063 571.344C712.04 574.32 714.161 576.934 717.22 577.977L716.188 579.406C713.892 578.551 712.087 576.852 711.185 574.66C710.294 577.156 708.395 579.09 705.876 580.039L704.868 578.539C708.079 577.414 710.212 574.648 710.235 571.414V569.258H712.063V571.344ZM708.267 584.961C708.255 582.453 710.915 581.012 715.251 581.023C719.575 581.012 722.235 582.453 722.235 584.961C722.235 587.445 719.575 588.852 715.251 588.852C710.915 588.852 708.255 587.445 708.267 584.961ZM710.095 584.961C710.083 586.473 712.052 587.387 715.251 587.375C718.438 587.387 720.407 586.473 720.407 584.961C720.407 583.402 718.438 582.477 715.251 582.477C712.052 582.477 710.083 583.402 710.095 584.961ZM715.673 574.062V572.539H720.313V568.062H722.165V580.414H720.313V574.062H715.673ZM742.333 568.086V583.906H740.482V581.75H736.169V580.414H740.482V568.086H742.333ZM725.037 577.742C728.915 577.719 734.142 577.684 738.607 577.133L738.724 578.469C736.872 578.762 734.915 578.949 733.005 579.066V583.18H731.154V579.16C729.044 579.242 727.04 579.242 725.294 579.242L725.037 577.742ZM726.724 572.562C726.712 570.371 728.798 568.93 731.88 568.93C734.939 568.93 737.025 570.371 737.037 572.562C737.025 574.789 734.939 576.172 731.88 576.172C728.798 576.172 726.712 574.789 726.724 572.562ZM728.037 588.453V582.359H729.888V586.906H742.849V588.453H728.037ZM728.482 572.562C728.458 573.922 729.841 574.801 731.88 574.812C733.861 574.801 735.267 573.922 735.279 572.562C735.267 571.227 733.861 570.312 731.88 570.336C729.841 570.312 728.458 571.227 728.482 572.562ZM763.275 568.062V588.898H761.494V568.062H763.275ZM745.674 577.062C745.685 572.633 747.443 569.832 750.15 569.82C752.682 569.832 754.392 572.27 754.627 576.195H757.322V568.508H759.08V587.844H757.322V577.719H754.639C754.463 581.773 752.717 584.316 750.15 584.305C747.443 584.316 745.685 581.492 745.674 577.062ZM747.408 577.062C747.385 580.438 748.463 582.57 750.15 582.547C751.85 582.57 752.928 580.438 752.916 577.062C752.928 573.676 751.85 571.555 750.15 571.555C748.463 571.555 747.385 573.676 747.408 577.062ZM790.3 584.703V586.227H771.222V584.703H779.8V580.203H773.472V569.539H775.323V573.312H786.151V569.539H787.956V580.203H781.604V584.703H790.3ZM775.323 578.703H786.151V574.812H775.323V578.703ZM807.773 568.062V572.961H810.913V574.508H807.773V579.172H805.945V568.062H807.773ZM792.468 578.469V569.445H801.703V570.969H794.296V576.922C798.48 576.922 800.859 576.793 803.648 576.219L803.882 577.742C800.953 578.328 798.468 578.469 794.085 578.469H792.468ZM794.578 588.547V580.297H796.406V582.898H805.945V580.297H807.773V588.547H794.578ZM796.406 587.023H805.945V584.375H796.406V587.023ZM828.035 567.992V573.055H831.199V574.578H828.035V579.523H826.207V567.992H828.035ZM811.793 571.438V569.961H817.09V567.852H818.918V569.961H824.215V571.438H811.793ZM812.988 575.797C812.976 573.688 814.969 572.387 818.004 572.375C821.027 572.387 822.996 573.688 823.019 575.797C822.996 577.918 821.027 579.207 818.004 579.219C814.969 579.207 812.976 577.918 812.988 575.797ZM814.746 581.984V580.602H828.035V585.219H816.597V587.258H828.808V588.664H814.793V583.859H826.207V581.984H814.746ZM814.746 575.797C814.734 577.051 816.023 577.836 818.004 577.836C819.972 577.836 821.262 577.051 821.285 575.797C821.262 574.555 819.972 573.746 818.004 573.734C816.023 573.746 814.734 574.555 814.746 575.797ZM845.45 579.055V582.898C847.466 582.793 849.505 582.629 851.427 582.336L851.567 583.695C846.798 584.562 841.677 584.598 837.927 584.586L837.669 583.062C839.415 583.051 841.477 583.039 843.645 582.969V579.055H845.45ZM838.302 578.328C841.384 577.414 843.552 575.129 843.598 572.328H838.817V570.805H843.645V568.227H845.45V570.805H850.348V572.328H845.45C845.509 575.012 847.735 577.215 850.817 578.094L849.95 579.547C847.454 578.797 845.485 577.191 844.548 575.082C843.645 577.309 841.7 578.973 839.192 579.734L838.302 578.328ZM852.809 588.945V568.062H854.638V588.945H852.809ZM874.525 570.172V572.258C874.501 574.812 874.501 577.672 873.751 581.867L871.876 581.656C872.661 577.672 872.661 574.754 872.673 572.258V571.695H859.829V570.172H874.525ZM857.814 585.945V584.422H865.267V576.969H867.072V584.422H876.798V585.945H857.814ZM884.896 569.586C888.166 569.598 890.486 571.59 890.498 574.484C890.486 577.391 888.166 579.371 884.896 579.383C881.603 579.371 879.26 577.391 879.271 574.484C879.26 571.59 881.603 569.598 884.896 569.586ZM878.193 582.781C882.037 582.793 887.345 582.758 891.951 582.078L892.092 583.438C887.322 584.328 882.201 584.352 878.451 584.352L878.193 582.781ZM881.076 574.484C881.064 576.43 882.67 577.766 884.896 577.766C887.099 577.766 888.705 576.43 888.693 574.484C888.705 572.551 887.099 571.203 884.896 571.203C882.67 571.203 881.064 572.551 881.076 574.484ZM893.334 588.945V568.062H895.162V588.945H893.334ZM921.155 568.062V578.727H919.303V576.547H913.749V575.094H919.303V572.586H914.053C912.753 575.867 909.518 578.082 904.889 579.195L904.233 577.672C909.343 576.488 912.307 574.004 912.659 570.641H905.288V569.117H914.686C914.686 569.809 914.616 570.477 914.487 571.109H919.303V568.062H921.155ZM907.655 581.164V579.664H921.155V584.75H909.53V587.188H921.858V588.711H907.702V583.344H919.303V581.164H907.655ZM935.698 570.383V571.461C935.687 573.113 935.687 575.867 935.089 579.734L933.237 579.57C933.812 576.078 933.859 573.547 933.847 571.883H925.105V570.383H935.698ZM923.933 582.781C925.304 582.77 926.827 582.758 928.433 582.723V576.336H930.237V582.664C932.546 582.582 934.913 582.43 937.081 582.172L937.175 583.555C932.792 584.234 927.894 584.328 924.167 584.305L923.933 582.781ZM938.394 588.898V568.062H940.222V576.781H943.597V578.375H940.222V588.898H938.394ZM963.39 576.875V578.375H954.789V580.438H960.953V585.102H948.578V587.211H961.586V588.664H946.75V583.719H959.148V581.867H946.703V580.438H952.961V578.375H944.406V576.875H963.39ZM946.867 575.117V568.766H960.929V575.117H946.867ZM948.695 573.641H959.101V570.242H948.695V573.641ZM974.16 568.438C978.789 568.438 981.508 569.715 981.52 572.023C981.508 574.391 978.789 575.668 974.16 575.68C969.508 575.668 966.778 574.391 966.778 572.023C966.778 569.715 969.508 568.438 974.16 568.438ZM964.668 578.586V577.086H983.653V578.586H964.668ZM966.965 581.797V580.391H981.215V585.055H968.84V587.211H981.848V588.664H967.012V583.695H979.41V581.797H966.965ZM968.699 572.023C968.676 573.477 970.703 574.273 974.16 574.273C977.617 574.273 979.633 573.477 979.645 572.023C979.633 570.652 977.617 569.832 974.16 569.82C970.703 569.832 968.676 570.652 968.699 572.023ZM1007.3 577.836V579.336H1000.86V584.727H1009.55V586.273H990.474V584.727H999.052V579.336H992.911V569.773H1007.09V571.273H994.763V577.836H1007.3ZM1029.72 577.344V578.773H1021.12V580.719H1027.28V585.219H1014.91V587.258H1027.92V588.664H1013.08V583.906H1025.48V582.102H1013.03V580.719H1019.31V578.773H1010.76V577.344H1029.72ZM1011.77 574.977C1015.59 574.73 1018.85 573.43 1019.19 571.344H1012.7V569.891H1019.31V567.945H1021.12V569.891H1027.8V571.344H1021.26C1021.59 573.43 1024.85 574.73 1028.69 574.977L1028.13 576.383C1024.65 576.09 1021.51 575.012 1020.23 573.031C1018.94 575.012 1015.8 576.09 1012.31 576.383L1011.77 574.977ZM1047.29 568.062V573.406H1050.43V574.977H1047.29V580.18H1045.46V568.062H1047.29ZM1031.04 571.742V570.219H1036.34V567.875H1038.17V570.219H1043.47V571.742H1031.04ZM1032.24 576.359C1032.23 574.133 1034.23 572.715 1037.26 572.703C1040.24 572.715 1042.25 574.133 1042.27 576.359C1042.25 578.586 1040.24 580.027 1037.26 580.016C1034.23 580.027 1032.23 578.586 1032.24 576.359ZM1034 576.359C1033.99 577.719 1035.29 578.609 1037.26 578.609C1039.2 578.609 1040.51 577.719 1040.54 576.359C1040.51 575.012 1039.2 574.109 1037.26 574.133C1035.29 574.109 1033.99 575.012 1034 576.359ZM1034.12 588.617V581.094H1035.94V583.32H1045.46V581.094H1047.29V588.617H1034.12ZM1035.94 587.141H1045.46V584.773H1035.94V587.141ZM1068.44 568.062V588.898H1066.61V568.062H1068.44ZM1052.62 583.531V570.125H1054.42V581.938C1057.61 581.914 1060.89 581.668 1064.39 580.93L1064.64 582.5C1060.94 583.273 1057.65 583.531 1054.31 583.531H1052.62ZM1087.65 568.062V576.312H1091.14V577.859H1087.65V588.945H1085.82V568.062H1087.65ZM1072.44 583.719V570.102H1082.16V571.625H1074.26V582.172C1078.04 582.16 1080.7 581.996 1083.8 581.422L1084.04 583.016C1080.77 583.602 1078.04 583.719 1074.08 583.719H1072.44ZM1093.99 587.141C1093.17 587.129 1092.46 586.449 1092.49 585.617C1092.46 584.797 1093.17 584.117 1093.99 584.117C1094.82 584.117 1095.5 584.797 1095.49 585.617C1095.5 586.449 1094.82 587.129 1093.99 587.141Z" fill="#1E1E1E"/>
<path d="M822.98 224.58L812.3 215.46C810.18 216.14 807.98 216.48 805.7 216.48C801.82 216.48 798.32 215.58 795.2 213.78C792.08 211.94 789.64 209.38 787.88 206.1C786.12 202.82 785.24 199.12 785.24 195C785.24 190.84 786.12 187.14 787.88 183.9C789.64 180.62 792.08 178.08 795.2 176.28C798.32 174.44 801.82 173.52 805.7 173.52C809.58 173.52 813.08 174.44 816.2 176.28C819.32 178.08 821.76 180.62 823.52 183.9C825.28 187.14 826.16 190.84 826.16 195C826.16 199.44 825.14 203.36 823.1 206.76C821.1 210.16 818.38 212.72 814.94 214.44L826.82 224.58H822.98ZM788 195C788 198.84 788.78 202.2 790.34 205.08C791.9 207.96 794.02 210.18 796.7 211.74C799.38 213.3 802.38 214.08 805.7 214.08C809.02 214.08 812.02 213.3 814.7 211.74C817.38 210.18 819.48 207.96 821 205.08C822.56 202.2 823.34 198.84 823.34 195C823.34 191.12 822.56 187.74 821 184.86C819.48 181.98 817.38 179.76 814.7 178.2C812.02 176.64 809.02 175.86 805.7 175.86C802.38 175.86 799.38 176.64 796.7 178.2C794.02 179.76 791.9 181.98 790.34 184.86C788.78 187.74 788 191.12 788 195ZM860.721 183.42V216H858.021V208.92C857.101 211.4 855.561 213.3 853.401 214.62C851.281 215.9 848.841 216.54 846.081 216.54C842.201 216.54 839.021 215.36 836.541 213C834.101 210.6 832.881 207.06 832.881 202.38V183.42H835.521V202.2C835.521 206.08 836.501 209.06 838.461 211.14C840.421 213.18 843.081 214.2 846.441 214.2C849.961 214.2 852.761 213.08 854.841 210.84C856.961 208.6 858.021 205.28 858.021 200.88V183.42H860.721ZM867.684 199.68C867.684 196.32 868.344 193.38 869.664 190.86C871.024 188.34 872.884 186.4 875.244 185.04C877.644 183.68 880.364 183 883.404 183C886.844 183 889.764 183.84 892.164 185.52C894.564 187.2 896.244 189.34 897.204 191.94V183.42H899.904V216H897.204V207.42C896.244 210.06 894.544 212.24 892.104 213.96C889.704 215.64 886.804 216.48 883.404 216.48C880.364 216.48 877.644 215.8 875.244 214.44C872.884 213.04 871.024 211.08 869.664 208.56C868.344 206 867.684 203.04 867.684 199.68ZM897.204 199.68C897.204 196.84 896.604 194.34 895.404 192.18C894.244 189.98 892.644 188.3 890.604 187.14C888.564 185.94 886.284 185.34 883.764 185.34C881.124 185.34 878.804 185.92 876.804 187.08C874.804 188.2 873.244 189.84 872.124 192C871.004 194.16 870.444 196.72 870.444 199.68C870.444 202.64 871.004 205.2 872.124 207.36C873.244 209.52 874.804 211.18 876.804 212.34C878.844 213.5 881.164 214.08 883.764 214.08C886.284 214.08 888.564 213.5 890.604 212.34C892.684 211.14 894.304 209.46 895.464 207.3C896.624 205.1 897.204 202.56 897.204 199.68ZM911.235 171.6V216H908.535V171.6H911.235ZM921.312 176.16C920.672 176.16 920.132 175.96 919.692 175.56C919.252 175.12 919.032 174.54 919.032 173.82C919.032 173.14 919.252 172.58 919.692 172.14C920.132 171.7 920.672 171.48 921.312 171.48C921.952 171.48 922.492 171.7 922.932 172.14C923.372 172.58 923.592 173.14 923.592 173.82C923.592 174.54 923.372 175.12 922.932 175.56C922.492 175.96 921.952 176.16 921.312 176.16ZM922.632 183.42V216H919.932V183.42H922.632ZM943.75 185.82H935.29V216H932.59V185.82H927.67V183.42H932.59V181.14C932.59 177.74 933.45 175.22 935.17 173.58C936.89 171.9 939.71 171.06 943.63 171.06V173.46C940.51 173.46 938.33 174.06 937.09 175.26C935.89 176.46 935.29 178.42 935.29 181.14V183.42H943.75V185.82ZM950.846 176.16C950.206 176.16 949.666 175.96 949.226 175.56C948.786 175.12 948.566 174.54 948.566 173.82C948.566 173.14 948.786 172.58 949.226 172.14C949.666 171.7 950.206 171.48 950.846 171.48C951.486 171.48 952.026 171.7 952.466 172.14C952.906 172.58 953.126 173.14 953.126 173.82C953.126 174.54 952.906 175.12 952.466 175.56C952.026 175.96 951.486 176.16 950.846 176.16ZM952.166 183.42V216H949.466V183.42H952.166ZM959.184 199.68C959.184 196.28 959.844 193.32 961.164 190.8C962.524 188.28 964.384 186.36 966.744 185.04C969.144 183.68 971.884 183 974.964 183C979.044 183 982.384 184.02 984.984 186.06C987.624 188.1 989.264 190.84 989.904 194.28H987.084C986.564 191.48 985.204 189.28 983.004 187.68C980.844 186.08 978.164 185.28 974.964 185.28C972.564 185.28 970.384 185.82 968.424 186.9C966.464 187.94 964.884 189.56 963.684 191.76C962.524 193.92 961.944 196.56 961.944 199.68C961.944 202.84 962.524 205.5 963.684 207.66C964.884 209.82 966.464 211.44 968.424 212.52C970.384 213.6 972.564 214.14 974.964 214.14C978.164 214.14 980.844 213.34 983.004 211.74C985.204 210.14 986.564 207.94 987.084 205.14H989.904C989.264 208.54 987.624 211.28 984.984 213.36C982.344 215.44 979.004 216.48 974.964 216.48C971.884 216.48 969.144 215.8 966.744 214.44C964.384 213.08 962.524 211.14 961.164 208.62C959.844 206.06 959.184 203.08 959.184 199.68ZM995.249 199.68C995.249 196.32 995.909 193.38 997.229 190.86C998.589 188.34 1000.45 186.4 1002.81 185.04C1005.21 183.68 1007.93 183 1010.97 183C1014.41 183 1017.33 183.84 1019.73 185.52C1022.13 187.2 1023.81 189.34 1024.77 191.94V183.42H1027.47V216H1024.77V207.42C1023.81 210.06 1022.11 212.24 1019.67 213.96C1017.27 215.64 1014.37 216.48 1010.97 216.48C1007.93 216.48 1005.21 215.8 1002.81 214.44C1000.45 213.04 998.589 211.08 997.229 208.56C995.909 206 995.249 203.04 995.249 199.68ZM1024.77 199.68C1024.77 196.84 1024.17 194.34 1022.97 192.18C1021.81 189.98 1020.21 188.3 1018.17 187.14C1016.13 185.94 1013.85 185.34 1011.33 185.34C1008.69 185.34 1006.37 185.92 1004.37 187.08C1002.37 188.2 1000.81 189.84 999.689 192C998.569 194.16 998.009 196.72 998.009 199.68C998.009 202.64 998.569 205.2 999.689 207.36C1000.81 209.52 1002.37 211.18 1004.37 212.34C1006.41 213.5 1008.73 214.08 1011.33 214.08C1013.85 214.08 1016.13 213.5 1018.17 212.34C1020.25 211.14 1021.87 209.46 1023.03 207.3C1024.19 205.1 1024.77 202.56 1024.77 199.68ZM1040.12 185.76V207.3C1040.12 209.7 1040.56 211.36 1041.44 212.28C1042.32 213.16 1043.88 213.6 1046.12 213.6H1049.78V216H1045.7C1042.86 216 1040.76 215.34 1039.4 214.02C1038.08 212.66 1037.42 210.42 1037.42 207.3V185.76H1032.5V183.42H1037.42V175.14H1040.12V183.42H1049.78V185.76H1040.12ZM1057.08 176.16C1056.44 176.16 1055.9 175.96 1055.46 175.56C1055.02 175.12 1054.8 174.54 1054.8 173.82C1054.8 173.14 1055.02 172.58 1055.46 172.14C1055.9 171.7 1056.44 171.48 1057.08 171.48C1057.72 171.48 1058.26 171.7 1058.7 172.14C1059.14 172.58 1059.36 173.14 1059.36 173.82C1059.36 174.54 1059.14 175.12 1058.7 175.56C1058.26 175.96 1057.72 176.16 1057.08 176.16ZM1058.4 183.42V216H1055.7V183.42H1058.4ZM1081.44 216.48C1078.4 216.48 1075.66 215.8 1073.22 214.44C1070.78 213.08 1068.86 211.14 1067.46 208.62C1066.1 206.06 1065.42 203.08 1065.42 199.68C1065.42 196.32 1066.12 193.38 1067.52 190.86C1068.92 188.3 1070.84 186.36 1073.28 185.04C1075.76 183.68 1078.52 183 1081.56 183C1084.6 183 1087.34 183.68 1089.78 185.04C1092.22 186.36 1094.12 188.28 1095.48 190.8C1096.88 193.32 1097.58 196.28 1097.58 199.68C1097.58 203.08 1096.88 206.06 1095.48 208.62C1094.08 211.14 1092.14 213.08 1089.66 214.44C1087.22 215.8 1084.48 216.48 1081.44 216.48ZM1081.44 214.08C1083.8 214.08 1086 213.56 1088.04 212.52C1090.12 211.44 1091.78 209.82 1093.02 207.66C1094.26 205.5 1094.88 202.84 1094.88 199.68C1094.88 196.56 1094.26 193.92 1093.02 191.76C1091.78 189.6 1090.14 188 1088.1 186.96C1086.06 185.88 1083.86 185.34 1081.5 185.34C1079.14 185.34 1076.94 185.88 1074.9 186.96C1072.9 188 1071.28 189.6 1070.04 191.76C1068.8 193.92 1068.18 196.56 1068.18 199.68C1068.18 202.84 1068.78 205.5 1069.98 207.66C1071.22 209.82 1072.84 211.44 1074.84 212.52C1076.88 213.56 1079.08 214.08 1081.44 214.08ZM1119.27 182.76C1123.15 182.76 1126.31 183.96 1128.75 186.36C1131.19 188.72 1132.41 192.24 1132.41 196.92V216H1129.77V197.1C1129.77 193.22 1128.79 190.26 1126.83 188.22C1124.87 186.14 1122.21 185.1 1118.85 185.1C1115.33 185.1 1112.51 186.22 1110.39 188.46C1108.31 190.7 1107.27 194.02 1107.27 198.42V216H1104.57V183.42H1107.27V190.32C1108.19 187.88 1109.71 186.02 1111.83 184.74C1113.99 183.42 1116.47 182.76 1119.27 182.76Z" fill="#404040"/>
<rect x="660" y="260" width="600" height="3" fill="url(#paint0_linear_51_7)"/>
<rect x="660" y="260" width="600" height="3" fill="white" fill-opacity="0.4"/>
<path d="M265.203 632.906V635.555H275.516V632.906H277.344V641.227H271.25V643.453H279.828V644.977H260.844V643.453H269.422V641.227H263.375V632.906H265.203ZM263.305 652.453V646.641H265.156V650.906H277.719V652.453H263.305ZM265.203 639.75H275.516V637.008H265.203V639.75ZM288.09 637.664C288.09 641.332 290.516 645.117 293.481 646.57L292.356 648.047C290.059 646.852 288.137 644.379 287.211 641.484C286.286 644.555 284.317 647.191 281.973 648.445L280.801 646.969C283.848 645.469 286.262 641.473 286.286 637.664V633.867H288.09V637.664ZM295.403 652.898V632.062H297.231V640.523H300.723V642.117H297.231V652.898H295.403ZM318.22 638.391V639.867H303.946V632.836H305.774V638.391H318.22ZM301.345 644.203V642.703H320.423V644.203H301.345ZM303.829 652.383V646.336H305.657V650.859H318.337V652.383H303.829ZM332.752 633.68C335.822 633.691 338.002 636.516 338.025 640.945C338.002 645.387 335.822 648.199 332.752 648.188C329.658 648.199 327.49 645.387 327.502 640.945C327.49 636.516 329.658 633.691 332.752 633.68ZM329.236 640.945C329.248 644.332 330.689 646.559 332.752 646.547C334.838 646.559 336.244 644.332 336.244 640.945C336.244 637.559 334.838 635.332 332.752 635.32C330.689 635.332 329.248 637.559 329.236 640.945ZM341.471 652.898V632.062H343.299V640.383H346.791V641.977H343.299V652.898H341.471ZM355.944 634.336V641.625H349.92V646.359C352.323 646.348 354.584 646.254 357.28 645.797L357.444 647.297C354.479 647.812 352.123 647.906 349.498 647.906H348.139V640.102H354.162V635.883H348.092V634.336H355.944ZM358.733 651.82V632.531H360.42V640.312H363.491V632.062H365.248V652.898H363.491V641.836H360.42V651.82H358.733ZM374.518 633.586C377.788 633.598 380.108 635.59 380.12 638.484C380.108 641.391 377.788 643.371 374.518 643.383C371.225 643.371 368.882 641.391 368.893 638.484C368.882 635.59 371.225 633.598 374.518 633.586ZM367.815 646.781C371.659 646.793 376.968 646.758 381.573 646.078L381.714 647.438C376.944 648.328 371.823 648.352 368.073 648.352L367.815 646.781ZM370.698 638.484C370.686 640.43 372.292 641.766 374.518 641.766C376.722 641.766 378.327 640.43 378.315 638.484C378.327 636.551 376.722 635.203 374.518 635.203C372.292 635.203 370.686 636.551 370.698 638.484ZM382.956 652.945V632.062H384.784V652.945H382.956ZM400.746 635.906C400.746 638.613 402.832 641.203 405.879 642.258L404.918 643.711C402.574 642.867 400.758 641.121 399.867 638.977C398.965 641.367 397.031 643.289 394.558 644.203L393.598 642.75C396.668 641.648 398.894 638.871 398.894 635.93V635.016H394.183V633.516H405.41V635.016H400.746V635.906ZM396.762 647.18V645.656H410.777V652.898H408.926V647.18H396.762ZM404.754 639.07V637.523H408.926V632.062H410.777V644.555H408.926V639.07H404.754ZM424.758 633.492C424.758 634.301 424.664 635.074 424.5 635.812H429.188V632.086H431.039V644.508H429.188V641.742H423.657V640.219H429.188V637.336H423.996C422.59 640.617 419.321 642.996 414.821 644.227L414.094 642.75C419.18 641.344 422.403 638.555 422.778 634.992H415.149V633.492H424.758ZM417.024 646.898V645.422H431.039V652.875H429.188V646.898H417.024ZM441.2 635.344C441.177 638.32 443.298 640.934 446.356 641.977L445.325 643.406C443.028 642.551 441.223 640.852 440.321 638.66C439.43 641.156 437.532 643.09 435.012 644.039L434.005 642.539C437.216 641.414 439.348 638.648 439.372 635.414V633.258H441.2V635.344ZM437.403 648.961C437.391 646.453 440.052 645.012 444.387 645.023C448.712 645.012 451.372 646.453 451.372 648.961C451.372 651.445 448.712 652.852 444.387 652.852C440.052 652.852 437.391 651.445 437.403 648.961ZM439.231 648.961C439.22 650.473 441.188 651.387 444.387 651.375C447.575 651.387 449.544 650.473 449.544 648.961C449.544 647.402 447.575 646.477 444.387 646.477C441.188 646.477 439.22 647.402 439.231 648.961ZM444.809 638.062V636.539H449.45V632.062H451.302V644.414H449.45V638.062H444.809ZM471.529 633.656V635.18H469.396V641.848C470.357 641.777 471.306 641.695 472.209 641.578L472.303 642.984C468.236 643.605 463.502 643.676 460.115 643.664L459.881 642.117C460.713 642.117 461.615 642.117 462.576 642.105V635.18H460.467V633.656H471.529ZM463.209 649.102C463.197 646.723 465.834 645.363 470.193 645.375C474.553 645.363 477.178 646.723 477.178 649.102C477.178 651.48 474.553 652.852 470.193 652.852C465.834 652.852 463.197 651.48 463.209 649.102ZM464.357 642.07C465.424 642.047 466.525 642.012 467.615 641.953V635.18H464.357V642.07ZM465.037 649.102C465.025 650.555 466.982 651.398 470.193 651.398C473.392 651.398 475.349 650.555 475.349 649.102C475.349 647.672 473.392 646.805 470.193 646.805C466.982 646.805 465.025 647.672 465.037 649.102ZM471.74 641.062V639.539H475.256V637.336H471.74V635.812H475.256V632.062H477.107V644.93H475.256V641.062H471.74ZM496.221 632.062V640.547H499.596V642.094H496.221V652.898H494.393V632.062H496.221ZM480.237 647.484C485.615 644.812 488.545 640.793 488.967 635.859H481.197V634.312H490.83C490.819 640.207 488.053 645.586 481.268 648.938L480.237 647.484ZM519.413 641.742V643.195H500.335V641.742H519.413ZM502.632 646.242V644.859H517.022V649.289H504.507V651.281H517.702V652.617H502.655V648.023H515.194V646.242H502.632ZM502.749 634.031V632.695H516.952V637.008H504.647V638.836H517.327V640.172H502.819V635.742H515.1V634.031H502.749ZM533.664 636.539C533.675 639.352 535.89 641.883 539.008 642.867L538.07 644.344C535.644 643.512 533.722 641.801 532.773 639.609C531.871 641.977 529.914 643.852 527.429 644.766L526.468 643.289C529.597 642.199 531.8 639.492 531.812 636.539V635.32H526.937V633.82H538.468V635.32H533.664V636.539ZM529.914 652.453V645.914H531.742V650.906H544.023V652.453H529.914ZM541.539 647.367V632.086H543.367V647.367H541.539ZM564.121 632.062V645.258H562.363V639.281H559.574V644.508H557.84V632.484H559.574V637.758H562.363V632.062H564.121ZM546.309 636.047V634.57H550.762V632.227H552.59V634.57H556.996V636.047H546.309ZM547.223 640.734C547.211 638.555 549.051 637.16 551.676 637.172C554.313 637.16 556.141 638.555 556.152 640.734C556.141 642.879 554.313 644.273 551.676 644.273C549.051 644.273 547.211 642.879 547.223 640.734ZM548.863 640.734C548.863 642.012 550.012 642.891 551.676 642.891C553.34 642.891 554.488 642.012 554.488 640.734C554.488 639.41 553.34 638.531 551.676 638.531C550.012 638.531 548.863 639.41 548.863 640.734ZM550.246 649.266C550.223 646.922 552.836 645.609 557.231 645.609C561.613 645.609 564.227 646.922 564.238 649.266C564.227 651.551 561.613 652.852 557.231 652.852C552.836 652.852 550.223 651.551 550.246 649.266ZM552.074 649.266C552.051 650.613 553.985 651.434 557.231 651.422C560.465 651.434 562.387 650.613 562.41 649.266C562.387 647.836 560.465 647.039 557.231 647.062C553.985 647.039 552.051 647.836 552.074 649.266ZM582.977 632.062V637.406H586.118V638.977H582.977V644.18H581.149V632.062H582.977ZM566.735 635.742V634.219H572.032V631.875H573.86V634.219H579.157V635.742H566.735ZM567.93 640.359C567.919 638.133 569.922 636.715 572.946 636.703C575.934 636.715 577.938 638.133 577.962 640.359C577.938 642.586 575.934 644.027 572.946 644.016C569.922 644.027 567.919 642.586 567.93 640.359ZM569.688 640.359C569.676 641.719 570.977 642.609 572.946 642.609C574.891 642.609 576.204 641.719 576.227 640.359C576.204 639.012 574.891 638.109 572.946 638.133C570.977 638.109 569.676 639.012 569.688 640.359ZM569.805 652.617V645.094H571.633V647.32H581.149V645.094H582.977V652.617H569.805ZM571.633 651.141H581.149V648.773H571.633V651.141ZM604.13 632.062V652.898H602.302V632.062H604.13ZM588.31 647.531V634.125H590.114V645.938C593.302 645.914 596.583 645.668 600.075 644.93L600.333 646.5C596.63 647.273 593.337 647.531 589.997 647.531H588.31ZM623.337 632.062V640.312H626.83V641.859H623.337V652.945H621.509V632.062H623.337ZM608.127 647.719V634.102H617.853V635.625H609.955V646.172C613.728 646.16 616.388 645.996 619.494 645.422L619.728 647.016C616.459 647.602 613.728 647.719 609.767 647.719H608.127ZM629.678 651.141C628.858 651.129 628.154 650.449 628.178 649.617C628.154 648.797 628.858 648.117 629.678 648.117C630.51 648.117 631.19 648.797 631.178 649.617C631.19 650.449 630.51 651.129 629.678 651.141Z" fill="#1E1E1E"/>
<defs>
<linearGradient id="paint0_linear_51_7" x1="660" y1="260" x2="1260" y2="260" gradientUnits="userSpaceOnUse">
<stop stop-color="#00F3C7"/>
<stop offset="0.29" stop-color="#42C8FF"/>
<stop offset="1" stop-color="#7737FF"/>
</linearGradient>
</defs>
</svg>
