<svg width="1336" height="121" viewBox="0 0 1336 121" fill="none" xmlns="http://www.w3.org/2000/svg">
<rect width="1336" height="121" fill="white"/>
<rect x="129" y="17" width="677.177" height="88" rx="24" fill="white" fill-opacity="0.1"/>
<path d="M174.609 58.5C174.173 56.0531 172.219 54.6469 169.744 54.6469C166.411 54.6469 164.048 57.2062 164.063 61.8187C164.048 66.5016 166.425 68.9906 169.744 68.9906C172.163 68.9906 174.117 67.6406 174.609 65.25H178.294C177.731 69.1594 174.511 72.2813 169.688 72.2813C164.316 72.2813 160.364 68.3859 160.378 61.8187C160.364 55.2375 164.358 51.3562 169.688 51.3562C174.188 51.3562 177.661 53.9719 178.294 58.5H174.609ZM184.299 63.0562V72H180.699V51.6375H184.215V59.3156H184.412C185.101 57.5859 186.591 56.5312 188.94 56.5312C192.104 56.5312 194.199 58.5844 194.199 62.2687V72H190.627V62.8312C190.613 60.75 189.502 59.5547 187.618 59.5687C185.677 59.5547 184.299 60.8344 184.299 63.0562ZM203.804 72.3094C199.206 72.3094 196.379 69.2437 196.379 64.4625C196.379 59.7375 199.248 56.5312 203.607 56.5312C207.348 56.5312 210.582 58.8797 210.582 64.2375V65.3625H199.923C199.979 67.9641 201.512 69.5109 203.832 69.4969C205.407 69.5109 206.462 68.8359 206.926 67.9219H210.442C209.795 70.5656 207.348 72.3094 203.804 72.3094ZM199.937 62.9156H207.151C207.137 60.8344 205.731 59.3156 203.664 59.3156C201.512 59.3156 200.064 60.975 199.937 62.9156ZM212.791 72V56.7281H216.222V59.3156H216.419C217.052 57.5719 218.585 56.5312 220.61 56.5312C222.677 56.5312 224.167 57.5859 224.744 59.3156H224.913C225.574 57.6281 227.275 56.5312 229.497 56.5312C232.295 56.5312 234.264 58.3312 234.25 61.7344V72H230.678V62.2969C230.678 60.3984 229.525 59.5406 228.063 59.5406C226.305 59.5406 225.278 60.7359 225.278 62.4656V72H221.791V62.1562C221.777 60.5672 220.736 59.5406 219.203 59.5406C217.656 59.5406 216.391 60.8203 216.391 62.7187V72H212.791ZM237.105 72V56.7281H240.705V72H237.105ZM236.852 52.5937C236.852 51.525 237.794 50.6531 238.934 50.6531C240.073 50.6531 241.015 51.525 241.015 52.5937C241.015 53.6766 240.073 54.5484 238.934 54.5625C237.794 54.5484 236.852 53.6766 236.852 52.5937ZM250.226 72.3094C245.67 72.3094 242.914 69.0469 242.914 64.4344C242.914 59.7516 245.754 56.5312 250.226 56.5312C253.925 56.5312 256.526 58.6969 256.779 61.9875H253.348C253.067 60.525 251.998 59.4141 250.254 59.4C248.033 59.4141 246.542 61.2703 246.542 64.35C246.542 67.5 248.004 69.3703 250.254 69.3844C251.843 69.3703 253.025 68.4422 253.348 66.7969H256.779C256.512 70.0172 254.065 72.3094 250.226 72.3094ZM258.2 67.6969C258.2 64.2656 261.055 63.2672 263.882 63.0844C264.95 63 267.13 62.9016 267.805 62.8734L267.791 61.65C267.791 60.1312 266.821 59.2594 265.035 59.2594C263.432 59.2594 262.447 59.9906 262.166 61.0875H258.707C258.96 58.4859 261.294 56.5312 265.119 56.5312C268.016 56.5312 271.363 57.7266 271.363 61.7906V72H267.932V69.8906H267.819C267.144 71.1844 265.724 72.3094 263.319 72.3094C260.408 72.3094 258.2 70.7203 258.2 67.6969ZM261.66 67.6687C261.66 68.9906 262.742 69.6656 264.247 69.6656C266.427 69.6656 267.819 68.2312 267.819 66.5156L267.805 65.2641C267.158 65.2922 265.161 65.4187 264.444 65.475C262.742 65.6156 261.66 66.3328 261.66 67.6687ZM277.762 51.6375V72H274.162V51.6375H277.762ZM290.7 51.6375V72H287.044V51.6375H290.7ZM297.353 63.0562V72H293.753V56.7281H297.184V59.3156H297.381C298.07 57.6141 299.631 56.5312 301.909 56.5312C305.073 56.5312 307.154 58.6125 307.14 62.2687V72H303.568V62.8312C303.568 60.7781 302.457 59.5547 300.587 59.5687C298.688 59.5547 297.353 60.8344 297.353 63.0562ZM315.677 72.2813C312.091 72.2672 309.377 69.3984 309.377 64.3781C309.377 59.2875 312.161 56.5312 315.705 56.5312C318.391 56.5312 319.516 58.1484 320.064 59.2312H320.205V51.6375H323.777V72H320.261V69.5812H320.064C319.487 70.7062 318.32 72.2672 315.677 72.2813ZM313.033 64.35C313.033 67.2328 314.298 69.3281 316.661 69.3281C318.981 69.3281 320.289 67.3312 320.289 64.35C320.289 61.3828 318.995 59.4703 316.661 59.4562C314.27 59.4703 313.033 61.5094 313.033 64.35ZM326.829 72V56.7281H330.429V72H326.829ZM326.576 52.5937C326.576 51.525 327.518 50.6531 328.657 50.6531C329.796 50.6531 330.738 51.525 330.738 52.5937C330.738 53.6766 329.796 54.5484 328.657 54.5625C327.518 54.5484 326.576 53.6766 326.576 52.5937ZM339.95 72.3094C335.393 72.3094 332.637 69.0469 332.637 64.4344C332.637 59.7516 335.478 56.5312 339.95 56.5312C343.648 56.5312 346.25 58.6969 346.503 61.9875H343.071C342.79 60.525 341.721 59.4141 339.978 59.4C337.756 59.4141 336.265 61.2703 336.265 64.35C336.265 67.5 337.728 69.3703 339.978 69.3844C341.567 69.3703 342.748 68.4422 343.071 66.7969H346.503C346.235 70.0172 343.789 72.3094 339.95 72.3094ZM347.924 67.6969C347.924 64.2656 350.778 63.2672 353.605 63.0844C354.674 63 356.853 62.9016 357.528 62.8734L357.514 61.65C357.514 60.1312 356.544 59.2594 354.758 59.2594C353.155 59.2594 352.17 59.9906 351.889 61.0875H348.43C348.683 58.4859 351.017 56.5312 354.842 56.5312C357.739 56.5312 361.086 57.7266 361.086 61.7906V72H357.655V69.8906H357.542C356.867 71.1844 355.447 72.3094 353.042 72.3094C350.131 72.3094 347.924 70.7203 347.924 67.6969ZM351.383 67.6687C351.383 68.9906 352.466 69.6656 353.97 69.6656C356.15 69.6656 357.542 68.2312 357.542 66.5156L357.528 65.2641C356.881 65.2922 354.884 65.4187 354.167 65.475C352.466 65.6156 351.383 66.3328 351.383 67.6687ZM371.507 56.7281V59.4844H368.498V67.4156C368.498 68.8781 369.229 69.1734 370.129 69.1875C370.551 69.2016 371.254 69.1594 371.704 69.1312V72.0563C371.282 72.1266 370.593 72.2109 369.679 72.1969C366.979 72.2109 364.898 70.875 364.926 68.0062V59.4844H362.732V56.7281H364.926V53.0719H368.498V56.7281H371.507ZM380.184 72.3094C375.726 72.3094 372.872 69.1453 372.872 64.4344C372.872 59.6812 375.726 56.5312 380.184 56.5312C384.656 56.5312 387.511 59.6812 387.497 64.4344C387.511 69.1453 384.656 72.3094 380.184 72.3094ZM376.5 64.4062C376.5 67.2047 377.723 69.4406 380.212 69.4406C382.659 69.4406 383.882 67.2047 383.868 64.4062C383.882 61.6078 382.659 59.3578 380.212 59.3719C377.723 59.3578 376.5 61.6078 376.5 64.4062ZM389.705 72V56.7281H393.192V59.2594H393.361C393.91 57.5016 395.372 56.5031 397.13 56.5031C397.524 56.5031 398.086 56.5453 398.424 56.5875V59.9062C398.1 59.7937 397.355 59.6953 396.764 59.6812C394.767 59.6953 393.305 61.0734 393.305 63V72H389.705ZM408.648 61.0875C408.423 59.9344 407.466 59.1891 405.948 59.2031C404.415 59.1891 403.29 59.9625 403.304 61.0031C403.29 61.7906 403.923 62.3812 405.47 62.7469L408.057 63.2812C410.94 63.9141 412.346 65.25 412.36 67.4437C412.346 70.3125 409.829 72.3094 405.835 72.3094C401.954 72.3094 399.662 70.5656 399.282 67.6406H402.938C403.149 68.9484 404.162 69.5953 405.835 69.5812C407.565 69.5953 408.69 68.8922 408.704 67.7531C408.69 66.8672 408.001 66.3047 406.482 65.9812L404.035 65.4469C401.195 64.8703 399.718 63.3797 399.732 61.2C399.718 58.3734 402.165 56.5312 405.891 56.5312C409.534 56.5312 411.784 58.3172 412.051 61.0875H408.648ZM436.675 60.8906V62.6344H413.781V60.8906H436.675ZM416.537 66.2906V64.6312H433.806V69.9469H418.787V72.3375H434.622V73.9406H416.565V68.4281H431.612V66.2906H416.537ZM416.678 51.6375V50.0344H433.722V55.2094H418.956V57.4031H434.172V59.0062H416.762V53.6906H431.5V51.6375H416.678ZM467.557 62.55V64.35H444.748V62.55H455.042V60.075H447.785V50.0062H464.717V51.8062H450.007V54.1406H464.042V55.8281H450.007V58.3031H464.857V60.075H457.235V62.55H467.557ZM447.532 70.2281C447.518 67.6266 450.626 66.2062 456.167 66.2344C461.651 66.2062 464.745 67.6266 464.773 70.2281C464.745 72.8578 461.651 74.2219 456.167 74.2219C450.626 74.2219 447.518 72.8578 447.532 70.2281ZM449.754 70.2281C449.726 71.7469 452.032 72.5344 456.167 72.5063C460.259 72.5344 462.537 71.7469 462.551 70.2281C462.537 68.7375 460.259 67.9078 456.167 67.8937C452.032 67.9078 449.726 68.7375 449.754 70.2281ZM488.637 49.3031V57.5437H492.406V59.4H488.637V68.0344H486.444V49.3031H488.637ZM469.147 54.1687V52.3687H475.503V49.3031H477.697V52.3687H484.053V54.1687H469.147ZM470.581 60.2156C470.567 57.375 472.986 55.5469 476.6 55.5469C480.172 55.5469 482.591 57.375 482.619 60.2156C482.591 63.0281 480.172 64.8422 476.6 64.8281C472.986 64.8422 470.567 63.0281 470.581 60.2156ZM472.691 60.2156C472.676 61.9734 474.237 63.1125 476.6 63.0844C478.934 63.1125 480.509 61.9734 480.537 60.2156C480.509 58.4297 478.934 57.2766 476.6 57.2906C474.237 57.2766 472.676 58.4297 472.691 60.2156ZM473 73.7438V66.5437H475.166V71.8875H489.791V73.7438H473ZM505.064 72L499.495 51.6375H502.054L506.301 68.1187H506.498L510.801 51.6375H513.642L517.973 68.1187H518.142L522.389 51.6375H524.948L519.379 72H516.764L512.32 55.8844H512.151L507.679 72H505.064ZM531.544 72.3094C527.381 72.3234 524.569 69.1734 524.569 64.4344C524.569 59.6672 527.381 56.5312 531.544 56.5312C535.692 56.5312 538.477 59.6672 538.463 64.4344C538.477 69.1734 535.692 72.3234 531.544 72.3094ZM526.988 64.4344C527.002 67.4859 528.436 70.1719 531.544 70.1719C534.623 70.1719 536.044 67.4859 536.044 64.4344C536.044 61.3969 534.623 58.6687 531.544 58.6687C528.436 58.6687 527.002 61.3969 526.988 64.4344ZM541.065 72V56.7281H543.399V59.0625H543.568C544.116 57.5156 545.705 56.4891 547.505 56.475C547.871 56.4891 548.49 56.5031 548.771 56.5312V58.9781C548.588 58.9359 547.941 58.8094 547.308 58.8094C545.115 58.8094 543.483 60.3281 543.483 62.3812V72H541.065ZM559.051 60.6937C558.714 59.4281 557.743 58.5984 555.957 58.5844C554.073 58.5984 552.737 59.6109 552.723 60.8906C552.737 61.9031 553.553 62.5922 555.339 63.0281L557.617 63.5906C560.345 64.2375 561.681 65.6016 561.695 67.725C561.681 70.3687 559.529 72.3234 555.704 72.3094C552.273 72.3234 550.234 70.7906 549.826 68.0062H552.357C552.639 69.4969 553.721 70.2141 555.648 70.2C557.828 70.2141 559.192 69.3 559.192 67.8656C559.192 66.7828 558.418 66.0797 556.689 65.6719L554.382 65.1375C551.725 64.5187 550.304 63.0703 550.304 61.0312C550.304 58.4156 552.596 56.5312 555.957 56.5312C559.121 56.5312 561.104 58.2187 561.414 60.6937H559.051ZM570.935 56.7281V58.7531H567.728V67.6125C567.714 69.5672 568.699 69.8906 569.725 69.8906C570.161 69.8906 570.808 69.8484 571.16 69.8344V72.0844C570.78 72.1406 570.189 72.1969 569.472 72.1969C567.433 72.1969 565.295 70.9312 565.281 68.2312V58.7531H562.975V56.7281H565.281V53.0719H567.728V56.7281H570.935ZM580.442 72V51.6375H587.361C592.128 51.6375 594.308 54.4781 594.308 58.1062C594.308 61.7203 592.128 64.6031 587.389 64.6031H582.973V72H580.442ZM582.973 62.3531H587.276C590.525 62.3531 591.79 60.525 591.804 58.1062C591.79 55.6734 590.525 53.8875 587.248 53.8875H582.973V62.3531ZM603.041 72.3094C598.878 72.3234 596.066 69.1734 596.066 64.4344C596.066 59.6672 598.878 56.5312 603.041 56.5312C607.189 56.5312 609.974 59.6672 609.96 64.4344C609.974 69.1734 607.189 72.3234 603.041 72.3094ZM598.485 64.4344C598.499 67.4859 599.933 70.1719 603.041 70.1719C606.121 70.1719 607.541 67.4859 607.541 64.4344C607.541 61.3969 606.121 58.6687 603.041 58.6687C599.933 58.6687 598.499 61.3969 598.485 64.4344ZM621.056 60.6937C620.718 59.4281 619.748 58.5984 617.962 58.5844C616.077 58.5984 614.741 59.6109 614.727 60.8906C614.741 61.9031 615.557 62.5922 617.343 63.0281L619.621 63.5906C622.349 64.2375 623.685 65.6016 623.699 67.725C623.685 70.3687 621.534 72.3234 617.709 72.3094C614.277 72.3234 612.238 70.7906 611.831 68.0062H614.362C614.643 69.4969 615.726 70.2141 617.652 70.2C619.832 70.2141 621.196 69.3 621.196 67.8656C621.196 66.7828 620.423 66.0797 618.693 65.6719L616.387 65.1375C613.729 64.5187 612.309 63.0703 612.309 61.0312C612.309 58.4156 614.601 56.5312 617.962 56.5312C621.126 56.5312 623.109 58.2187 623.418 60.6937H621.056ZM626.273 72V56.7281H628.692V72H626.273ZM625.795 52.5937C625.781 51.6937 626.555 50.9766 627.483 50.9906C628.411 50.9766 629.184 51.6937 629.198 52.5937C629.184 53.4797 628.411 54.1969 627.483 54.1969C626.555 54.1969 625.781 53.4797 625.795 52.5937ZM638.635 56.7281V58.7531H635.429V67.6125C635.414 69.5672 636.399 69.8906 637.425 69.8906C637.861 69.8906 638.508 69.8484 638.86 69.8344V72.0844C638.48 72.1406 637.889 72.1969 637.172 72.1969C635.133 72.1969 632.996 70.9312 632.982 68.2312V58.7531H630.675V56.7281H632.982V53.0719H635.429V56.7281H638.635ZM641.181 72V56.7281H643.599V72H641.181ZM640.703 52.5937C640.688 51.6937 641.462 50.9766 642.39 50.9906C643.318 50.9766 644.092 51.6937 644.106 52.5937C644.092 53.4797 643.318 54.1969 642.39 54.1969C641.462 54.1969 640.688 53.4797 640.703 52.5937ZM653.12 72.3094C648.958 72.3234 646.145 69.1734 646.145 64.4344C646.145 59.6672 648.958 56.5312 653.12 56.5312C657.269 56.5312 660.053 59.6672 660.039 64.4344C660.053 69.1734 657.269 72.3234 653.12 72.3094ZM648.564 64.4344C648.578 67.4859 650.012 70.1719 653.12 70.1719C656.2 70.1719 657.62 67.4859 657.62 64.4344C657.62 61.3969 656.2 58.6687 653.12 58.6687C650.012 58.6687 648.578 61.3969 648.564 64.4344ZM665.06 62.8312V72H662.641V56.7281H664.976V59.1187H665.172C665.89 57.5578 667.324 56.5312 669.644 56.5312C672.738 56.5312 674.805 58.4156 674.791 62.2969V72H672.372V62.4656C672.372 60.1031 671.079 58.6969 668.913 58.6969C666.691 58.6969 665.06 60.1875 665.06 62.8312ZM692.37 54C692.37 57.4875 694.902 60.7781 698.558 62.1L697.32 63.8156C694.578 62.7328 692.384 60.5672 691.316 57.8391C690.261 60.8625 687.983 63.2531 685.03 64.4344L683.849 62.6344C687.603 61.2562 690.191 57.7547 690.205 53.9156V50.8219H692.37V54ZM688.377 73.7438V65.8969H690.599V71.8875H705.111V73.7438H688.377ZM696.758 57.0375V55.1812H702.327V49.3031H704.549V68.0344H702.327V57.0375H696.758ZM728.863 49.275V64.1812H726.641V57.6281H721.607V55.8H726.641V49.275H728.863ZM708.247 62.1844C711.96 60.8484 714.604 57.4594 714.604 53.8875V52.9594H708.951V51.1031H722.422V52.9594H716.826V53.8594C716.826 57.1219 719.329 60.2297 722.985 61.4812L721.832 63.2531C719.033 62.2406 716.854 60.1312 715.771 57.5578C714.702 60.4828 712.382 62.8172 709.401 63.9562L708.247 62.1844ZM712.185 69.6094C712.171 66.6703 715.363 64.9547 720.566 64.9687C725.755 64.9547 728.947 66.6703 728.947 69.6094C728.947 72.5625 725.755 74.25 720.566 74.2781C715.363 74.25 712.171 72.5625 712.185 69.6094ZM714.379 69.6094C714.365 71.4234 716.727 72.5203 720.566 72.5063C724.391 72.5203 726.754 71.4234 726.754 69.6094C726.754 67.7812 724.391 66.6844 720.566 66.6844C716.727 66.6844 714.365 67.7812 714.379 69.6094Z" fill="#7737FF"/>
<path d="M758.326 54.6476C759.522 53.2746 761.655 53.2746 762.851 54.6476L771.849 64.9796C773.539 66.9208 772.16 69.9498 769.586 69.9498H751.591C749.017 69.9498 747.638 66.9208 749.328 64.9796L758.326 54.6476Z" fill="#7737FF" fill-opacity="0.5"/>
<rect x="61" y="27" width="68" height="68" rx="16" fill="#7737FF"/>
<path d="M89.9656 57.2344C89.7828 55.4766 88.3063 54.4641 86.1125 54.4781C83.7922 54.4641 82.4141 55.5891 82.4 57.1219C82.3859 58.8375 84.2 59.5406 85.8875 59.9344L87.8 60.4406C90.8375 61.1437 93.7625 62.7469 93.7625 66.2906C93.7625 69.8625 90.9359 72.3094 86.0563 72.3094C81.3172 72.3094 78.3078 70.0312 78.1531 66.0094H81.7531C81.9219 68.1328 83.7078 69.1734 86.0281 69.1875C88.4328 69.1734 90.0922 68.0062 90.1063 66.2625C90.0922 64.6594 88.6297 63.9844 86.4219 63.4219L84.1156 62.8312C80.7688 61.9594 78.6875 60.2719 78.6875 57.3469C78.6875 53.7469 81.8797 51.3562 86.1688 51.3562C90.4859 51.3562 93.425 53.7891 93.4813 57.2344H89.9656ZM103.424 72.2813C99.0787 72.2813 95.9709 69.9187 95.8865 66.4875H99.5709C99.6693 68.1187 101.301 69.2016 103.424 69.1875C105.66 69.2016 107.277 67.9641 107.277 66.15C107.277 64.3219 105.702 63.0141 103.058 63H101.23V60.1875H103.058C105.224 60.1875 106.729 58.9781 106.715 57.2062C106.729 55.4906 105.435 54.3375 103.452 54.3375C101.54 54.3375 99.8943 55.4062 99.824 57.1219H96.3084C96.3928 53.7047 99.5006 51.3562 103.48 51.3562C107.615 51.3562 110.287 53.8875 110.258 57.0094C110.287 59.2875 108.768 60.9328 106.546 61.3969V61.5656C109.415 61.9453 111.046 63.7875 111.018 66.3469C111.046 69.7922 107.826 72.2813 103.424 72.2813Z" fill="white"/>
</svg>
