<svg width="1336" height="121" viewBox="0 0 1336 121" fill="none" xmlns="http://www.w3.org/2000/svg">
<rect width="1336" height="121" fill="white"/>
<rect x="129" y="17" width="574.177" height="88" rx="24" fill="white" fill-opacity="0.1"/>
<path d="M181.078 49.0781V74.5031H177.928V49.0781H181.078ZM160.013 67.5C166.678 64.3359 169.744 60.0328 170.306 54.2531H161.306V51.7781H173.484C173.484 59.3437 170.545 65.7703 161.644 70.0031L160.013 67.5ZM207.362 64.0969V66.5437H201.765V74.5031H198.615V66.5437H192.905V74.5031H189.783V66.5437H184.13V64.0969H207.362ZM186.858 52.4812V49.9219H204.662V57.0375H190.065V59.4562H205.224V61.9875H186.915V54.7031H201.455V52.4812H186.858ZM236.669 49.0781V74.5031H233.66V61.5937H231.128V73.2094H228.175V49.5562H231.128V59.0344H233.66V49.0781H236.669ZM214.45 65.925C215.153 65.925 215.955 65.925 216.813 65.925V54.6187H214.956V52.0875H226.713V54.6187H224.885V65.5734C225.644 65.5172 226.361 65.4328 227.05 65.3344L227.219 67.6125C223.253 68.4281 218.008 68.5266 214.816 68.5125L214.45 65.925ZM219.625 65.8687C220.427 65.8406 221.228 65.8125 222.044 65.7703V54.6187H219.625V65.8687ZM260.337 49.1062V67.8937H257.215V58.5844H252.659V56.0531H257.215V49.1062H260.337ZM240.284 64.2937V51.0469H251.843V53.5781H243.405V56.3344H251.084V58.7812H243.405V61.7062C247.427 61.7062 249.944 61.5937 252.912 61.0875L253.165 63.5906C249.888 64.1672 247.034 64.2937 242.224 64.2937H240.284ZM243.63 73.9969V66.2625H246.78V71.4656H260.984V73.9969H243.63ZM274.92 49.4719C280.714 49.4859 284.075 51.0187 284.089 53.8312C284.075 56.6719 280.714 58.2047 274.92 58.2187C269.14 58.2047 265.751 56.6719 265.751 53.8312C265.751 51.0187 269.14 49.4859 274.92 49.4719ZM263.361 62.0719V59.5687H286.536V62.0719H263.361ZM266.089 66.0937V63.7875H283.639V70.0031H269.183V71.8875H284.342V74.2781H266.117V67.7812H280.573V66.0937H266.089ZM269.042 53.8312C269.028 55.2375 271.053 55.8844 274.92 55.8844C278.843 55.8844 280.854 55.2375 280.854 53.8312C280.854 52.5234 278.843 51.7781 274.92 51.7781C271.053 51.7781 269.028 52.5234 269.042 53.8312ZM307.096 50.625C307.082 57.1781 302.765 61.7766 295.368 63.8437L294.102 61.3969C299.798 59.85 303.173 56.8687 303.749 53.1562H295.481V50.625H307.096ZM298.49 74.1656V64.4344H315.224V74.1656H298.49ZM301.556 71.6906H312.131V66.9094H301.556V71.6906ZM307.209 57.8812V55.3219H312.102V49.1062H315.224V63.4219H312.102V57.8812H307.209ZM341.423 60.9187V63.45H318.248V60.9187H341.423ZM319.373 57.3187C324.084 56.8547 327.15 54.9703 327.628 52.8469H320.358V50.2875H339.342V52.8469H332.001C332.465 54.9422 335.503 56.8547 340.326 57.3187L339.23 59.7937C334.603 59.3156 331.186 57.4734 329.808 54.9C328.43 57.4734 325.055 59.3156 320.442 59.7937L319.373 57.3187ZM320.948 69.8062C320.948 66.8531 324.281 65.1375 329.808 65.1375C335.292 65.1375 338.597 66.8531 338.611 69.8062C338.597 72.8016 335.292 74.475 329.808 74.475C324.281 74.475 320.948 72.8016 320.948 69.8062ZM324.126 69.8062C324.112 71.2828 326.109 72.0141 329.808 72.0281C333.45 72.0141 335.461 71.2828 335.489 69.8062C335.461 68.3297 333.45 67.5844 329.808 67.5844C326.109 67.5844 324.112 68.3297 324.126 69.8062ZM362.082 49.275V59.5969H366.272V61.425H362.082V74.2781H359.888V49.275H362.082ZM342.591 55.125V53.2969H349.032V49.5844H351.225V53.2969H357.469V55.125H342.591ZM344.025 62.9437C344.011 59.5687 346.599 57.2062 350.157 57.2062C353.686 57.2062 356.26 59.5687 356.288 62.9437C356.26 66.3328 353.686 68.6812 350.157 68.6812C346.599 68.6812 344.011 66.3328 344.025 62.9437ZM346.135 62.9437C346.121 65.2219 347.822 66.825 350.157 66.7969C352.463 66.825 354.15 65.2219 354.179 62.9437C354.15 60.6797 352.463 59.0484 350.157 59.0625C347.822 59.0484 346.121 60.6797 346.135 62.9437ZM373.768 51.2156C376.06 51.2297 377.931 52.5656 379.013 54.8719H385.581V49.275H387.774V74.3344H385.581V64.6312H379.168C378.128 67.1625 376.187 68.6391 373.768 68.625C370.07 68.6391 367.482 65.2641 367.496 59.9344C367.482 54.6187 370.07 51.2297 373.768 51.2156ZM369.606 59.9344C369.62 63.9984 371.307 66.6703 373.768 66.6562C376.215 66.6703 377.931 63.9984 377.931 59.9344C377.931 55.8703 376.215 53.1984 373.768 53.1844C371.307 53.1984 369.62 55.8703 369.606 59.9344ZM379.646 56.7281C379.885 57.6984 380.012 58.7672 380.012 59.9344C380.012 60.9609 379.913 61.9312 379.731 62.8031H385.581V56.7281H379.646ZM403.019 72L397.451 51.6375H400.01L404.257 68.1187H404.454L408.757 51.6375H411.597L415.929 68.1187H416.097L420.344 51.6375H422.904L417.335 72H414.719L410.276 55.8844H410.107L405.635 72H403.019ZM429.5 72.3094C425.337 72.3234 422.525 69.1734 422.525 64.4344C422.525 59.6672 425.337 56.5312 429.5 56.5312C433.648 56.5312 436.432 59.6672 436.418 64.4344C436.432 69.1734 433.648 72.3234 429.5 72.3094ZM424.943 64.4344C424.957 67.4859 426.392 70.1719 429.5 70.1719C432.579 70.1719 434 67.4859 434 64.4344C434 61.3969 432.579 58.6687 429.5 58.6687C426.392 58.6687 424.957 61.3969 424.943 64.4344ZM439.02 72V56.7281H441.355V59.0625H441.524C442.072 57.5156 443.661 56.4891 445.461 56.475C445.827 56.4891 446.445 56.5031 446.727 56.5312V58.9781C446.544 58.9359 445.897 58.8094 445.264 58.8094C443.07 58.8094 441.439 60.3281 441.439 62.3812V72H439.02ZM457.007 60.6937C456.669 59.4281 455.699 58.5984 453.913 58.5844C452.029 58.5984 450.693 59.6109 450.679 60.8906C450.693 61.9031 451.508 62.5922 453.294 63.0281L455.573 63.5906C458.301 64.2375 459.637 65.6016 459.651 67.725C459.637 70.3687 457.485 72.3234 453.66 72.3094C450.229 72.3234 448.19 70.7906 447.782 68.0062H450.313C450.594 69.4969 451.677 70.2141 453.604 70.2C455.783 70.2141 457.148 69.3 457.148 67.8656C457.148 66.7828 456.374 66.0797 454.644 65.6719L452.338 65.1375C449.68 64.5187 448.26 63.0703 448.26 61.0312C448.26 58.4156 450.552 56.5312 453.913 56.5312C457.077 56.5312 459.06 58.2187 459.369 60.6937H457.007ZM468.89 56.7281V58.7531H465.684V67.6125C465.67 69.5672 466.654 69.8906 467.681 69.8906C468.117 69.8906 468.764 69.8484 469.115 69.8344V72.0844C468.736 72.1406 468.145 72.1969 467.428 72.1969C465.389 72.1969 463.251 70.9312 463.237 68.2312V58.7531H460.931V56.7281H463.237V53.0719H465.684V56.7281H468.89ZM478.398 72V51.6375H485.316C490.084 51.6375 492.263 54.4781 492.263 58.1062C492.263 61.7203 490.084 64.6031 485.345 64.6031H480.929V72H478.398ZM480.929 62.3531H485.232C488.48 62.3531 489.746 60.525 489.76 58.1062C489.746 55.6734 488.48 53.8875 485.204 53.8875H480.929V62.3531ZM500.997 72.3094C496.834 72.3234 494.022 69.1734 494.022 64.4344C494.022 59.6672 496.834 56.5312 500.997 56.5312C505.145 56.5312 507.929 59.6672 507.915 64.4344C507.929 69.1734 505.145 72.3234 500.997 72.3094ZM496.44 64.4344C496.454 67.4859 497.889 70.1719 500.997 70.1719C504.076 70.1719 505.497 67.4859 505.497 64.4344C505.497 61.3969 504.076 58.6687 500.997 58.6687C497.889 58.6687 496.454 61.3969 496.44 64.4344ZM519.011 60.6937C518.674 59.4281 517.703 58.5984 515.918 58.5844C514.033 58.5984 512.697 59.6109 512.683 60.8906C512.697 61.9031 513.513 62.5922 515.299 63.0281L517.577 63.5906C520.305 64.2375 521.641 65.6016 521.655 67.725C521.641 70.3687 519.489 72.3234 515.664 72.3094C512.233 72.3234 510.194 70.7906 509.786 68.0062H512.318C512.599 69.4969 513.682 70.2141 515.608 70.2C517.788 70.2141 519.152 69.3 519.152 67.8656C519.152 66.7828 518.378 66.0797 516.649 65.6719L514.343 65.1375C511.685 64.5187 510.264 63.0703 510.264 61.0312C510.264 58.4156 512.557 56.5312 515.918 56.5312C519.082 56.5312 521.064 58.2187 521.374 60.6937H519.011ZM524.229 72V56.7281H526.648V72H524.229ZM523.751 52.5937C523.737 51.6937 524.51 50.9766 525.438 50.9906C526.367 50.9766 527.14 51.6937 527.154 52.5937C527.14 53.4797 526.367 54.1969 525.438 54.1969C524.51 54.1969 523.737 53.4797 523.751 52.5937ZM536.591 56.7281V58.7531H533.384V67.6125C533.37 69.5672 534.355 69.8906 535.381 69.8906C535.817 69.8906 536.464 69.8484 536.816 69.8344V72.0844C536.436 72.1406 535.845 72.1969 535.128 72.1969C533.089 72.1969 530.951 70.9312 530.937 68.2312V58.7531H528.631V56.7281H530.937V53.0719H533.384V56.7281H536.591ZM539.136 72V56.7281H541.555V72H539.136ZM538.658 52.5937C538.644 51.6937 539.418 50.9766 540.346 50.9906C541.274 50.9766 542.047 51.6937 542.061 52.5937C542.047 53.4797 541.274 54.1969 540.346 54.1969C539.418 54.1969 538.644 53.4797 538.658 52.5937ZM551.076 72.3094C546.914 72.3234 544.101 69.1734 544.101 64.4344C544.101 59.6672 546.914 56.5312 551.076 56.5312C555.224 56.5312 558.009 59.6672 557.995 64.4344C558.009 69.1734 555.224 72.3234 551.076 72.3094ZM546.52 64.4344C546.534 67.4859 547.968 70.1719 551.076 70.1719C554.156 70.1719 555.576 67.4859 555.576 64.4344C555.576 61.3969 554.156 58.6687 551.076 58.6687C547.968 58.6687 546.534 61.3969 546.52 64.4344ZM563.016 62.8312V72H560.597V56.7281H562.931V59.1187H563.128C563.845 57.5578 565.28 56.5312 567.6 56.5312C570.694 56.5312 572.761 58.4156 572.747 62.2969V72H570.328V62.4656C570.328 60.1031 569.034 58.6969 566.869 58.6969C564.647 58.6969 563.016 60.1875 563.016 62.8312ZM590.326 54C590.326 57.4875 592.857 60.7781 596.514 62.1L595.276 63.8156C592.534 62.7328 590.34 60.5672 589.271 57.8391C588.217 60.8625 585.939 63.2531 582.986 64.4344L581.804 62.6344C585.559 61.2562 588.146 57.7547 588.161 53.9156V50.8219H590.326V54ZM586.332 73.7438V65.8969H588.554V71.8875H603.067V73.7438H586.332ZM594.714 57.0375V55.1812H600.282V49.3031H602.504V68.0344H600.282V57.0375H594.714ZM626.819 49.275V64.1812H624.597V57.6281H619.563V55.8H624.597V49.275H626.819ZM606.203 62.1844C609.916 60.8484 612.56 57.4594 612.56 53.8875V52.9594H606.906V51.1031H620.378V52.9594H614.781V53.8594C614.781 57.1219 617.285 60.2297 620.941 61.4812L619.788 63.2531C616.989 62.2406 614.81 60.1312 613.727 57.5578C612.658 60.4828 610.338 62.8172 607.356 63.9562L606.203 62.1844ZM610.141 69.6094C610.127 66.6703 613.319 64.9547 618.522 64.9687C623.711 64.9547 626.903 66.6703 626.903 69.6094C626.903 72.5625 623.711 74.25 618.522 74.2781C613.319 74.25 610.127 72.5625 610.141 69.6094ZM612.335 69.6094C612.32 71.4234 614.683 72.5203 618.522 72.5063C622.347 72.5203 624.71 71.4234 624.71 69.6094C624.71 67.7812 622.347 66.6844 618.522 66.6844C614.683 66.6844 612.32 67.7812 612.335 69.6094Z" fill="#7737FF"/>
<path d="M655.326 54.6476C656.522 53.2746 658.655 53.2746 659.851 54.6476L668.849 64.9796C670.539 66.9208 669.16 69.9498 666.586 69.9498H648.591C646.017 69.9498 644.638 66.9208 646.328 64.9796L655.326 54.6476Z" fill="#7737FF" fill-opacity="0.5"/>
<rect x="61" y="27" width="68" height="68" rx="16" fill="#7737FF"/>
<path d="M92.4656 57.2344C92.2828 55.4766 90.8063 54.4641 88.6125 54.4781C86.2922 54.4641 84.9141 55.5891 84.9 57.1219C84.8859 58.8375 86.7 59.5406 88.3875 59.9344L90.3 60.4406C93.3375 61.1437 96.2625 62.7469 96.2625 66.2906C96.2625 69.8625 93.4359 72.3094 88.5563 72.3094C83.8172 72.3094 80.8078 70.0312 80.6531 66.0094H84.2531C84.4219 68.1328 86.2078 69.1734 88.5281 69.1875C90.9328 69.1734 92.5922 68.0062 92.6063 66.2625C92.5922 64.6594 91.1297 63.9844 88.9219 63.4219L86.6156 62.8312C83.2688 61.9594 81.1875 60.2719 81.1875 57.3469C81.1875 53.7469 84.3797 51.3562 88.6688 51.3562C92.9859 51.3562 95.925 53.7891 95.9813 57.2344H92.4656ZM106.796 51.6375V72H103.112V55.2094H102.999L98.2459 58.2469V54.9L103.28 51.6375H106.796Z" fill="white"/>
</svg>
