<svg width="1336" height="121" viewBox="0 0 1336 121" fill="none" xmlns="http://www.w3.org/2000/svg">
<rect width="1336" height="121" fill="white"/>
<rect x="129" y="19" width="574.177" height="88" rx="24" fill="white" fill-opacity="0.1"/>
<path d="M181.078 51.0781V76.5031H177.928V51.0781H181.078ZM160.013 69.5C166.678 66.3359 169.744 62.0328 170.306 56.2531H161.306V53.7781H173.484C173.484 61.3437 170.545 67.7703 161.644 72.0031L160.013 69.5ZM207.362 66.0969V68.5437H201.765V76.5031H198.615V68.5437H192.905V76.5031H189.783V68.5437H184.13V66.0969H207.362ZM186.858 54.4812V51.9219H204.662V59.0375H190.065V61.4562H205.224V63.9875H186.915V56.7031H201.455V54.4812H186.858ZM236.669 51.0781V76.5031H233.66V63.5937H231.128V75.2094H228.175V51.5562H231.128V61.0344H233.66V51.0781H236.669ZM214.45 67.925C215.153 67.925 215.955 67.925 216.813 67.925V56.6187H214.956V54.0875H226.713V56.6187H224.885V67.5734C225.644 67.5172 226.361 67.4328 227.05 67.3344L227.219 69.6125C223.253 70.4281 218.008 70.5266 214.816 70.5125L214.45 67.925ZM219.625 67.8687C220.427 67.8406 221.228 67.8125 222.044 67.7703V56.6187H219.625V67.8687ZM260.337 51.1062V69.8937H257.215V60.5844H252.659V58.0531H257.215V51.1062H260.337ZM240.284 66.2937V53.0469H251.843V55.5781H243.405V58.3344H251.084V60.7812H243.405V63.7062C247.427 63.7062 249.944 63.5937 252.912 63.0875L253.165 65.5906C249.888 66.1672 247.034 66.2937 242.224 66.2937H240.284ZM243.63 75.9969V68.2625H246.78V73.4656H260.984V75.9969H243.63ZM274.92 51.4719C280.714 51.4859 284.075 53.0187 284.089 55.8312C284.075 58.6719 280.714 60.2047 274.92 60.2187C269.14 60.2047 265.751 58.6719 265.751 55.8312C265.751 53.0187 269.14 51.4859 274.92 51.4719ZM263.361 64.0719V61.5687H286.536V64.0719H263.361ZM266.089 68.0937V65.7875H283.639V72.0031H269.183V73.8875H284.342V76.2781H266.117V69.7812H280.573V68.0937H266.089ZM269.042 55.8312C269.028 57.2375 271.053 57.8844 274.92 57.8844C278.843 57.8844 280.854 57.2375 280.854 55.8312C280.854 54.5234 278.843 53.7781 274.92 53.7781C271.053 53.7781 269.028 54.5234 269.042 55.8312ZM307.096 52.625C307.082 59.1781 302.765 63.7766 295.368 65.8437L294.102 63.3969C299.798 61.85 303.173 58.8687 303.749 55.1562H295.481V52.625H307.096ZM298.49 76.1656V66.4344H315.224V76.1656H298.49ZM301.556 73.6906H312.131V68.9094H301.556V73.6906ZM307.209 59.8812V57.3219H312.102V51.1062H315.224V65.4219H312.102V59.8812H307.209ZM341.423 62.9187V65.45H318.248V62.9187H341.423ZM319.373 59.3187C324.084 58.8547 327.15 56.9703 327.628 54.8469H320.358V52.2875H339.342V54.8469H332.001C332.465 56.9422 335.503 58.8547 340.326 59.3187L339.23 61.7937C334.603 61.3156 331.186 59.4734 329.808 56.9C328.43 59.4734 325.055 61.3156 320.442 61.7937L319.373 59.3187ZM320.948 71.8062C320.948 68.8531 324.281 67.1375 329.808 67.1375C335.292 67.1375 338.597 68.8531 338.611 71.8062C338.597 74.8016 335.292 76.475 329.808 76.475C324.281 76.475 320.948 74.8016 320.948 71.8062ZM324.126 71.8062C324.112 73.2828 326.109 74.0141 329.808 74.0281C333.45 74.0141 335.461 73.2828 335.489 71.8062C335.461 70.3297 333.45 69.5844 329.808 69.5844C326.109 69.5844 324.112 70.3297 324.126 71.8062ZM362.082 51.275V61.5969H366.272V63.425H362.082V76.2781H359.888V51.275H362.082ZM342.591 57.125V55.2969H349.032V51.5844H351.225V55.2969H357.469V57.125H342.591ZM344.025 64.9437C344.011 61.5687 346.599 59.2062 350.157 59.2062C353.686 59.2062 356.26 61.5687 356.288 64.9437C356.26 68.3328 353.686 70.6812 350.157 70.6812C346.599 70.6812 344.011 68.3328 344.025 64.9437ZM346.135 64.9437C346.121 67.2219 347.822 68.825 350.157 68.7969C352.463 68.825 354.15 67.2219 354.179 64.9437C354.15 62.6797 352.463 61.0484 350.157 61.0625C347.822 61.0484 346.121 62.6797 346.135 64.9437ZM373.768 53.2156C376.06 53.2297 377.931 54.5656 379.013 56.8719H385.581V51.275H387.774V76.3344H385.581V66.6312H379.168C378.128 69.1625 376.187 70.6391 373.768 70.625C370.07 70.6391 367.482 67.2641 367.496 61.9344C367.482 56.6187 370.07 53.2297 373.768 53.2156ZM369.606 61.9344C369.62 65.9984 371.307 68.6703 373.768 68.6562C376.215 68.6703 377.931 65.9984 377.931 61.9344C377.931 57.8703 376.215 55.1984 373.768 55.1844C371.307 55.1984 369.62 57.8703 369.606 61.9344ZM379.646 58.7281C379.885 59.6984 380.012 60.7672 380.012 61.9344C380.012 62.9609 379.913 63.9312 379.731 64.8031H385.581V58.7281H379.646ZM403.019 74L397.451 53.6375H400.01L404.257 70.1187H404.454L408.757 53.6375H411.597L415.929 70.1187H416.097L420.344 53.6375H422.904L417.335 74H414.719L410.276 57.8844H410.107L405.635 74H403.019ZM429.5 74.3094C425.337 74.3234 422.525 71.1734 422.525 66.4344C422.525 61.6672 425.337 58.5312 429.5 58.5312C433.648 58.5312 436.432 61.6672 436.418 66.4344C436.432 71.1734 433.648 74.3234 429.5 74.3094ZM424.943 66.4344C424.957 69.4859 426.392 72.1719 429.5 72.1719C432.579 72.1719 434 69.4859 434 66.4344C434 63.3969 432.579 60.6687 429.5 60.6687C426.392 60.6687 424.957 63.3969 424.943 66.4344ZM439.02 74V58.7281H441.355V61.0625H441.524C442.072 59.5156 443.661 58.4891 445.461 58.475C445.827 58.4891 446.445 58.5031 446.727 58.5312V60.9781C446.544 60.9359 445.897 60.8094 445.264 60.8094C443.07 60.8094 441.439 62.3281 441.439 64.3812V74H439.02ZM457.007 62.6937C456.669 61.4281 455.699 60.5984 453.913 60.5844C452.029 60.5984 450.693 61.6109 450.679 62.8906C450.693 63.9031 451.508 64.5922 453.294 65.0281L455.573 65.5906C458.301 66.2375 459.637 67.6016 459.651 69.725C459.637 72.3687 457.485 74.3234 453.66 74.3094C450.229 74.3234 448.19 72.7906 447.782 70.0062H450.313C450.594 71.4969 451.677 72.2141 453.604 72.2C455.783 72.2141 457.148 71.3 457.148 69.8656C457.148 68.7828 456.374 68.0797 454.644 67.6719L452.338 67.1375C449.68 66.5187 448.26 65.0703 448.26 63.0312C448.26 60.4156 450.552 58.5312 453.913 58.5312C457.077 58.5312 459.06 60.2187 459.369 62.6937H457.007ZM468.89 58.7281V60.7531H465.684V69.6125C465.67 71.5672 466.654 71.8906 467.681 71.8906C468.117 71.8906 468.764 71.8484 469.115 71.8344V74.0844C468.736 74.1406 468.145 74.1969 467.428 74.1969C465.389 74.1969 463.251 72.9312 463.237 70.2312V60.7531H460.931V58.7281H463.237V55.0719H465.684V58.7281H468.89ZM478.398 74V53.6375H485.316C490.084 53.6375 492.263 56.4781 492.263 60.1062C492.263 63.7203 490.084 66.6031 485.345 66.6031H480.929V74H478.398ZM480.929 64.3531H485.232C488.48 64.3531 489.746 62.525 489.76 60.1062C489.746 57.6734 488.48 55.8875 485.204 55.8875H480.929V64.3531ZM500.997 74.3094C496.834 74.3234 494.022 71.1734 494.022 66.4344C494.022 61.6672 496.834 58.5312 500.997 58.5312C505.145 58.5312 507.929 61.6672 507.915 66.4344C507.929 71.1734 505.145 74.3234 500.997 74.3094ZM496.44 66.4344C496.454 69.4859 497.889 72.1719 500.997 72.1719C504.076 72.1719 505.497 69.4859 505.497 66.4344C505.497 63.3969 504.076 60.6687 500.997 60.6687C497.889 60.6687 496.454 63.3969 496.44 66.4344ZM519.011 62.6937C518.674 61.4281 517.703 60.5984 515.918 60.5844C514.033 60.5984 512.697 61.6109 512.683 62.8906C512.697 63.9031 513.513 64.5922 515.299 65.0281L517.577 65.5906C520.305 66.2375 521.641 67.6016 521.655 69.725C521.641 72.3687 519.489 74.3234 515.664 74.3094C512.233 74.3234 510.194 72.7906 509.786 70.0062H512.318C512.599 71.4969 513.682 72.2141 515.608 72.2C517.788 72.2141 519.152 71.3 519.152 69.8656C519.152 68.7828 518.378 68.0797 516.649 67.6719L514.343 67.1375C511.685 66.5187 510.264 65.0703 510.264 63.0312C510.264 60.4156 512.557 58.5312 515.918 58.5312C519.082 58.5312 521.064 60.2187 521.374 62.6937H519.011ZM524.229 74V58.7281H526.648V74H524.229ZM523.751 54.5937C523.737 53.6937 524.51 52.9766 525.438 52.9906C526.367 52.9766 527.14 53.6937 527.154 54.5937C527.14 55.4797 526.367 56.1969 525.438 56.1969C524.51 56.1969 523.737 55.4797 523.751 54.5937ZM536.591 58.7281V60.7531H533.384V69.6125C533.37 71.5672 534.355 71.8906 535.381 71.8906C535.817 71.8906 536.464 71.8484 536.816 71.8344V74.0844C536.436 74.1406 535.845 74.1969 535.128 74.1969C533.089 74.1969 530.951 72.9312 530.937 70.2312V60.7531H528.631V58.7281H530.937V55.0719H533.384V58.7281H536.591ZM539.136 74V58.7281H541.555V74H539.136ZM538.658 54.5937C538.644 53.6937 539.418 52.9766 540.346 52.9906C541.274 52.9766 542.047 53.6937 542.061 54.5937C542.047 55.4797 541.274 56.1969 540.346 56.1969C539.418 56.1969 538.644 55.4797 538.658 54.5937ZM551.076 74.3094C546.914 74.3234 544.101 71.1734 544.101 66.4344C544.101 61.6672 546.914 58.5312 551.076 58.5312C555.224 58.5312 558.009 61.6672 557.995 66.4344C558.009 71.1734 555.224 74.3234 551.076 74.3094ZM546.52 66.4344C546.534 69.4859 547.968 72.1719 551.076 72.1719C554.156 72.1719 555.576 69.4859 555.576 66.4344C555.576 63.3969 554.156 60.6687 551.076 60.6687C547.968 60.6687 546.534 63.3969 546.52 66.4344ZM563.016 64.8312V74H560.597V58.7281H562.931V61.1187H563.128C563.845 59.5578 565.28 58.5312 567.6 58.5312C570.694 58.5312 572.761 60.4156 572.747 64.2969V74H570.328V64.4656C570.328 62.1031 569.034 60.6969 566.869 60.6969C564.647 60.6969 563.016 62.1875 563.016 64.8312ZM590.326 56C590.326 59.4875 592.857 62.7781 596.514 64.1L595.276 65.8156C592.534 64.7328 590.34 62.5672 589.271 59.8391C588.217 62.8625 585.939 65.2531 582.986 66.4344L581.804 64.6344C585.559 63.2562 588.146 59.7547 588.161 55.9156V52.8219H590.326V56ZM586.332 75.7438V67.8969H588.554V73.8875H603.067V75.7438H586.332ZM594.714 59.0375V57.1812H600.282V51.3031H602.504V70.0344H600.282V59.0375H594.714ZM626.819 51.275V66.1812H624.597V59.6281H619.563V57.8H624.597V51.275H626.819ZM606.203 64.1844C609.916 62.8484 612.56 59.4594 612.56 55.8875V54.9594H606.906V53.1031H620.378V54.9594H614.781V55.8594C614.781 59.1219 617.285 62.2297 620.941 63.4812L619.788 65.2531C616.989 64.2406 614.81 62.1312 613.727 59.5578C612.658 62.4828 610.338 64.8172 607.356 65.9562L606.203 64.1844ZM610.141 71.6094C610.127 68.6703 613.319 66.9547 618.522 66.9687C623.711 66.9547 626.903 68.6703 626.903 71.6094C626.903 74.5625 623.711 76.25 618.522 76.2781C613.319 76.25 610.127 74.5625 610.141 71.6094ZM612.335 71.6094C612.32 73.4234 614.683 74.5203 618.522 74.5063C622.347 74.5203 624.71 73.4234 624.71 71.6094C624.71 69.7812 622.347 68.6844 618.522 68.6844C614.683 68.6844 612.32 69.7812 612.335 71.6094Z" fill="#7737FF"/>
<path d="M655.326 69.3524C656.522 70.7254 658.655 70.7254 659.851 69.3524L668.849 59.0204C670.539 57.0792 669.16 54.0502 666.586 54.0502H648.591C646.017 54.0502 644.638 57.0792 646.328 59.0204L655.326 69.3524Z" fill="#7737FF"/>
<rect x="61" y="29" width="68" height="68" rx="16" fill="#7737FF"/>
<path d="M92.4656 59.2344C92.2828 57.4766 90.8063 56.4641 88.6125 56.4781C86.2922 56.4641 84.9141 57.5891 84.9 59.1219C84.8859 60.8375 86.7 61.5406 88.3875 61.9344L90.3 62.4406C93.3375 63.1437 96.2625 64.7469 96.2625 68.2906C96.2625 71.8625 93.4359 74.3094 88.5563 74.3094C83.8172 74.3094 80.8078 72.0312 80.6531 68.0094H84.2531C84.4219 70.1328 86.2078 71.1734 88.5281 71.1875C90.9328 71.1734 92.5922 70.0062 92.6063 68.2625C92.5922 66.6594 91.1297 65.9844 88.9219 65.4219L86.6156 64.8312C83.2688 63.9594 81.1875 62.2719 81.1875 59.3469C81.1875 55.7469 84.3797 53.3562 88.6688 53.3562C92.9859 53.3562 95.925 55.7891 95.9813 59.2344H92.4656ZM106.796 53.6375V74H103.112V57.2094H102.999L98.2459 60.2469V56.9L103.28 53.6375H106.796Z" fill="white"/>
</svg>
