<svg width="1336" height="121" viewBox="0 0 1336 121" fill="none" xmlns="http://www.w3.org/2000/svg">
<rect width="1336" height="121" fill="white"/>
<rect x="129" y="17" width="526.177" height="88" rx="24" fill="white" fill-opacity="0.1"/>
<path d="M183.019 62.325V64.8562H159.844V62.325H169.828V60.075C165.173 59.7375 162.234 57.8812 162.234 54.9281C162.234 51.7359 165.848 49.7812 171.403 49.7812C176.944 49.7812 180.558 51.7359 180.572 54.9281C180.558 57.8812 177.619 59.7375 172.978 60.075V62.325H183.019ZM162.713 73.9969V66.6H165.834V71.4656H180.403V73.9969H162.713ZM165.497 54.9281C165.469 56.6859 167.705 57.6141 171.403 57.6C175.116 57.6141 177.338 56.6859 177.338 54.9281C177.338 53.2547 175.116 52.2703 171.403 52.2562C167.705 52.2703 165.469 53.2547 165.497 54.9281ZM204.802 60.6375V63.1125H197.265V68.9344H207.39V71.4937H184.158V68.9344H194.171V63.1125H186.971V50.9625H204.605V53.4656H190.093V60.6375H204.802ZM237.906 61.7625V64.2656H214.731V61.7625H237.906ZM215.828 58.275C221.158 57.9094 224.153 56.1375 224.505 53.9719H217.01V51.525H224.744V49.1344H227.838V51.525H235.628V53.9719H228.063C228.4 56.1375 231.395 57.9094 236.753 58.275L235.769 60.6656C231.227 60.2859 227.866 58.8797 226.291 56.6719C224.688 58.8797 221.327 60.2859 216.813 60.6656L215.828 58.275ZM217.291 68.9344V66.4594H235.066V74.5031H231.944V68.9344H217.291ZM260.337 49.0781V64.1812H257.215V57.9656H252.884V55.4062H257.215V49.0781H260.337ZM238.962 61.65C243.054 60.2437 245.205 56.8266 245.205 53.4656V53.2687H239.918V50.7375H253.643V53.2687H248.384V53.4375C248.384 56.5312 250.437 59.6531 254.374 60.975L252.799 63.45C249.973 62.4937 247.976 60.5531 246.851 58.1625C245.74 60.8625 243.616 63.0562 240.593 64.125L238.962 61.65ZM243.096 69.6656C243.068 66.6141 246.373 64.8281 251.73 64.8281C257.116 64.8281 260.407 66.6141 260.421 69.6656C260.407 72.7172 257.116 74.4891 251.73 74.5031C246.373 74.4891 243.068 72.7172 243.096 69.6656ZM246.19 69.6656C246.176 71.2406 248.201 72.0984 251.73 72.0844C255.288 72.0984 257.299 71.2406 257.299 69.6656C257.299 68.0766 255.288 67.2187 251.73 67.2187C248.201 67.2187 246.176 68.0766 246.19 69.6656ZM274.92 49.725C280.475 49.725 283.737 51.2578 283.751 54.0281C283.737 56.8687 280.475 58.4016 274.92 58.4156C269.337 58.4016 266.061 56.8687 266.061 54.0281C266.061 51.2578 269.337 49.725 274.92 49.725ZM263.529 61.9031V60.1031H286.311V61.9031H263.529ZM266.286 65.7562V64.0687H283.386V69.6656H268.536V72.2531H284.145V73.9969H266.342V68.0344H281.22V65.7562H266.286ZM268.367 54.0281C268.339 55.7719 270.772 56.7281 274.92 56.7281C279.068 56.7281 281.487 55.7719 281.501 54.0281C281.487 52.3828 279.068 51.3984 274.92 51.3844C270.772 51.3984 268.339 52.3828 268.367 54.0281ZM317.277 62.55V64.35H294.468V62.55H304.762V60.075H297.506V50.0062H314.437V51.8062H299.727V54.1406H313.762V55.8281H299.727V58.3031H314.577V60.075H306.956V62.55H317.277ZM297.252 70.2281C297.238 67.6266 300.346 66.2062 305.887 66.2344C311.371 66.2062 314.465 67.6266 314.493 70.2281C314.465 72.8578 311.371 74.2219 305.887 74.2219C300.346 74.2219 297.238 72.8578 297.252 70.2281ZM299.474 70.2281C299.446 71.7469 301.752 72.5344 305.887 72.5063C309.979 72.5344 312.257 71.7469 312.271 70.2281C312.257 68.7375 309.979 67.9078 305.887 67.8937C301.752 67.9078 299.446 68.7375 299.474 70.2281ZM338.358 49.3031V57.5437H342.126V59.4H338.358V68.0344H336.164V49.3031H338.358ZM318.867 54.1687V52.3687H325.223V49.3031H327.417V52.3687H333.773V54.1687H318.867ZM320.301 60.2156C320.287 57.375 322.706 55.5469 326.32 55.5469C329.892 55.5469 332.311 57.375 332.339 60.2156C332.311 63.0281 329.892 64.8422 326.32 64.8281C322.706 64.8422 320.287 63.0281 320.301 60.2156ZM322.411 60.2156C322.397 61.9734 323.958 63.1125 326.32 63.0844C328.655 63.1125 330.23 61.9734 330.258 60.2156C330.23 58.4297 328.655 57.2766 326.32 57.2906C323.958 57.2766 322.397 58.4297 322.411 60.2156ZM322.72 73.7438V66.5437H324.886V71.8875H339.511V73.7438H322.72ZM354.784 72L349.215 51.6375H351.774L356.021 68.1187H356.218L360.521 51.6375H363.362L367.693 68.1187H367.862L372.109 51.6375H374.668L369.099 72H366.484L362.04 55.8844H361.871L357.399 72H354.784ZM381.264 72.3094C377.102 72.3234 374.289 69.1734 374.289 64.4344C374.289 59.6672 377.102 56.5312 381.264 56.5312C385.412 56.5312 388.197 59.6672 388.183 64.4344C388.197 69.1734 385.412 72.3234 381.264 72.3094ZM376.708 64.4344C376.722 67.4859 378.156 70.1719 381.264 70.1719C384.344 70.1719 385.764 67.4859 385.764 64.4344C385.764 61.3969 384.344 58.6687 381.264 58.6687C378.156 58.6687 376.722 61.3969 376.708 64.4344ZM390.785 72V56.7281H393.119V59.0625H393.288C393.836 57.5156 395.426 56.4891 397.226 56.475C397.591 56.4891 398.21 56.5031 398.491 56.5312V58.9781C398.308 58.9359 397.661 58.8094 397.029 58.8094C394.835 58.8094 393.204 60.3281 393.204 62.3812V72H390.785ZM408.771 60.6937C408.434 59.4281 407.464 58.5984 405.678 58.5844C403.793 58.5984 402.457 59.6109 402.443 60.8906C402.457 61.9031 403.273 62.5922 405.059 63.0281L407.337 63.5906C410.065 64.2375 411.401 65.6016 411.415 67.725C411.401 70.3687 409.25 72.3234 405.425 72.3094C401.993 72.3234 399.954 70.7906 399.546 68.0062H402.078C402.359 69.4969 403.442 70.2141 405.368 70.2C407.548 70.2141 408.912 69.3 408.912 67.8656C408.912 66.7828 408.139 66.0797 406.409 65.6719L404.103 65.1375C401.445 64.5187 400.025 63.0703 400.025 61.0312C400.025 58.4156 402.317 56.5312 405.678 56.5312C408.842 56.5312 410.825 58.2187 411.134 60.6937H408.771ZM420.655 56.7281V58.7531H417.449V67.6125C417.434 69.5672 418.419 69.8906 419.445 69.8906C419.881 69.8906 420.528 69.8484 420.88 69.8344V72.0844C420.5 72.1406 419.909 72.1969 419.192 72.1969C417.153 72.1969 415.016 70.9312 415.002 68.2312V58.7531H412.695V56.7281H415.002V53.0719H417.449V56.7281H420.655ZM430.162 72V51.6375H437.081C441.848 51.6375 444.028 54.4781 444.028 58.1062C444.028 61.7203 441.848 64.6031 437.109 64.6031H432.693V72H430.162ZM432.693 62.3531H436.997C440.245 62.3531 441.511 60.525 441.525 58.1062C441.511 55.6734 440.245 53.8875 436.968 53.8875H432.693V62.3531ZM452.761 72.3094C448.599 72.3234 445.786 69.1734 445.786 64.4344C445.786 59.6672 448.599 56.5312 452.761 56.5312C456.91 56.5312 459.694 59.6672 459.68 64.4344C459.694 69.1734 456.91 72.3234 452.761 72.3094ZM448.205 64.4344C448.219 67.4859 449.653 70.1719 452.761 70.1719C455.841 70.1719 457.261 67.4859 457.261 64.4344C457.261 61.3969 455.841 58.6687 452.761 58.6687C449.653 58.6687 448.219 61.3969 448.205 64.4344ZM470.776 60.6937C470.438 59.4281 469.468 58.5984 467.682 58.5844C465.798 58.5984 464.462 59.6109 464.448 60.8906C464.462 61.9031 465.277 62.5922 467.063 63.0281L469.341 63.5906C472.07 64.2375 473.405 65.6016 473.42 67.725C473.405 70.3687 471.254 72.3234 467.429 72.3094C463.998 72.3234 461.959 70.7906 461.551 68.0062H464.082C464.363 69.4969 465.446 70.2141 467.373 70.2C469.552 70.2141 470.916 69.3 470.916 67.8656C470.916 66.7828 470.143 66.0797 468.413 65.6719L466.107 65.1375C463.449 64.5187 462.029 63.0703 462.029 61.0312C462.029 58.4156 464.321 56.5312 467.682 56.5312C470.846 56.5312 472.829 58.2187 473.138 60.6937H470.776ZM475.994 72V56.7281H478.412V72H475.994ZM475.515 52.5937C475.501 51.6937 476.275 50.9766 477.203 50.9906C478.131 50.9766 478.904 51.6937 478.919 52.5937C478.904 53.4797 478.131 54.1969 477.203 54.1969C476.275 54.1969 475.501 53.4797 475.515 52.5937ZM488.355 56.7281V58.7531H485.149V67.6125C485.135 69.5672 486.119 69.8906 487.146 69.8906C487.582 69.8906 488.228 69.8484 488.58 69.8344V72.0844C488.2 72.1406 487.61 72.1969 486.893 72.1969C484.853 72.1969 482.716 70.9312 482.702 68.2312V58.7531H480.396V56.7281H482.702V53.0719H485.149V56.7281H488.355ZM490.901 72V56.7281H493.32V72H490.901ZM490.423 52.5937C490.409 51.6937 491.182 50.9766 492.11 50.9906C493.038 50.9766 493.812 51.6937 493.826 52.5937C493.812 53.4797 493.038 54.1969 492.11 54.1969C491.182 54.1969 490.409 53.4797 490.423 52.5937ZM502.841 72.3094C498.678 72.3234 495.866 69.1734 495.866 64.4344C495.866 59.6672 498.678 56.5312 502.841 56.5312C506.989 56.5312 509.773 59.6672 509.759 64.4344C509.773 69.1734 506.989 72.3234 502.841 72.3094ZM498.284 64.4344C498.298 67.4859 499.733 70.1719 502.841 70.1719C505.92 70.1719 507.341 67.4859 507.341 64.4344C507.341 61.3969 505.92 58.6687 502.841 58.6687C499.733 58.6687 498.298 61.3969 498.284 64.4344ZM514.78 62.8312V72H512.361V56.7281H514.696V59.1187H514.893C515.61 57.5578 517.044 56.5312 519.365 56.5312C522.458 56.5312 524.525 58.4156 524.511 62.2969V72H522.093V62.4656C522.093 60.1031 520.799 58.6969 518.633 58.6969C516.411 58.6969 514.78 60.1875 514.78 62.8312ZM542.091 54C542.091 57.4875 544.622 60.7781 548.278 62.1L547.041 63.8156C544.298 62.7328 542.105 60.5672 541.036 57.8391C539.981 60.8625 537.703 63.2531 534.75 64.4344L533.569 62.6344C537.323 61.2562 539.911 57.7547 539.925 53.9156V50.8219H542.091V54ZM538.097 73.7438V65.8969H540.319V71.8875H554.831V73.7438H538.097ZM546.478 57.0375V55.1812H552.047V49.3031H554.269V68.0344H552.047V57.0375H546.478ZM578.583 49.275V64.1812H576.362V57.6281H571.327V55.8H576.362V49.275H578.583ZM557.968 62.1844C561.68 60.8484 564.324 57.4594 564.324 53.8875V52.9594H558.671V51.1031H572.143V52.9594H566.546V53.8594C566.546 57.1219 569.049 60.2297 572.705 61.4812L571.552 63.2531C568.754 62.2406 566.574 60.1312 565.491 57.5578C564.422 60.4828 562.102 62.8172 559.121 63.9562L557.968 62.1844ZM561.905 69.6094C561.891 66.6703 565.083 64.9547 570.287 64.9687C575.476 64.9547 578.668 66.6703 578.668 69.6094C578.668 72.5625 575.476 74.25 570.287 74.2781C565.083 74.25 561.891 72.5625 561.905 69.6094ZM564.099 69.6094C564.085 71.4234 566.447 72.5203 570.287 72.5063C574.112 72.5203 576.474 71.4234 576.474 69.6094C576.474 67.7812 574.112 66.6844 570.287 66.6844C566.447 66.6844 564.085 67.7812 564.099 69.6094Z" fill="#7737FF"/>
<path d="M607.326 67.3524C608.522 68.7254 610.655 68.7254 611.851 67.3524L620.849 57.0204C622.539 55.0792 621.16 52.0502 618.586 52.0502H600.591C598.017 52.0502 596.638 55.0792 598.328 57.0204L607.326 67.3524Z" fill="#7737FF"/>
<rect x="61" y="27" width="68" height="68" rx="16" fill="#7737FF"/>
<path d="M90.4656 57.2344C90.2828 55.4766 88.8063 54.4641 86.6125 54.4781C84.2922 54.4641 82.9141 55.5891 82.9 57.1219C82.8859 58.8375 84.7 59.5406 86.3875 59.9344L88.3 60.4406C91.3375 61.1437 94.2625 62.7469 94.2625 66.2906C94.2625 69.8625 91.4359 72.3094 86.5563 72.3094C81.8172 72.3094 78.8078 70.0312 78.6531 66.0094H82.2531C82.4219 68.1328 84.2078 69.1734 86.5281 69.1875C88.9328 69.1734 90.5922 68.0062 90.6063 66.2625C90.5922 64.6594 89.1297 63.9844 86.9219 63.4219L84.6156 62.8312C81.2688 61.9594 79.1875 60.2719 79.1875 57.3469C79.1875 53.7469 82.3797 51.3562 86.6688 51.3562C90.9859 51.3562 93.925 53.7891 93.9813 57.2344H90.4656ZM96.5271 72V69.3562L103.727 62.4094C105.78 60.3562 106.849 59.1469 106.849 57.4312C106.849 55.5328 105.344 54.3375 103.362 54.3375C101.266 54.3375 99.9162 55.6453 99.9303 57.7125H96.4428C96.4287 53.8594 99.3256 51.3562 103.39 51.3562C107.552 51.3562 110.351 53.8453 110.365 57.2625C110.351 59.5547 109.254 61.4109 105.246 65.1937L101.618 68.7937V68.9344H110.674V72H96.5271Z" fill="white"/>
</svg>
