<svg width="1336" height="121" viewBox="0 0 1336 121" fill="none" xmlns="http://www.w3.org/2000/svg">
<rect width="1336" height="121" fill="white"/>
<rect x="129" y="17" width="680.177" height="88" rx="24" fill="white" fill-opacity="0.1"/>
<path d="M160.884 72V51.6375H168.675C173.091 51.6375 175.27 53.8875 175.284 56.925C175.27 59.4 173.709 60.7781 171.713 61.2562V61.4531C173.878 61.5656 176.072 63.3656 176.072 66.4594C176.072 69.6234 173.78 72 169.125 72H160.884ZM164.541 68.9344H168.563C171.234 68.9344 172.345 67.7953 172.359 66.1781C172.345 64.35 170.925 62.9578 168.647 62.9437H164.541V68.9344ZM164.541 60.3H168.225C170.152 60.3 171.614 59.1891 171.628 57.375C171.614 55.8141 170.489 54.675 168.309 54.675H164.541V60.3ZM178.308 72V56.7281H181.908V72H178.308ZM178.055 52.5937C178.055 51.525 178.997 50.6531 180.137 50.6531C181.276 50.6531 182.218 51.525 182.218 52.5937C182.218 53.6766 181.276 54.5484 180.137 54.5625C178.997 54.5484 178.055 53.6766 178.055 52.5937ZM191.429 72.3094C186.971 72.3094 184.117 69.1453 184.117 64.4344C184.117 59.6812 186.971 56.5312 191.429 56.5312C195.901 56.5312 198.756 59.6812 198.742 64.4344C198.756 69.1453 195.901 72.3094 191.429 72.3094ZM187.745 64.4062C187.745 67.2047 188.968 69.4406 191.457 69.4406C193.904 69.4406 195.128 67.2047 195.114 64.4062C195.128 61.6078 193.904 59.3578 191.457 59.3719C188.968 59.3578 187.745 61.6078 187.745 64.4062ZM204.55 51.6375V72H200.95V51.6375H204.55ZM214.071 72.3094C209.613 72.3094 206.759 69.1453 206.759 64.4344C206.759 59.6812 209.613 56.5312 214.071 56.5312C218.543 56.5312 221.398 59.6812 221.384 64.4344C221.398 69.1453 218.543 72.3094 214.071 72.3094ZM210.387 64.4062C210.387 67.2047 211.61 69.4406 214.099 69.4406C216.546 69.4406 217.769 67.2047 217.755 64.4062C217.769 61.6078 216.546 59.3578 214.099 59.3719C211.61 59.3578 210.387 61.6078 210.387 64.4062ZM230.258 78.0469C226.208 78.0469 223.634 76.2469 223.395 73.3781H226.967C227.22 74.7141 228.472 75.3328 230.314 75.3469C232.465 75.3328 233.858 74.4047 233.858 72.1688V69.2437H233.689C233.126 70.3687 231.903 71.775 229.273 71.775C225.743 71.775 222.973 69.2156 222.973 64.2375C222.973 59.2172 225.758 56.5312 229.301 56.5312C231.987 56.5312 233.126 58.1484 233.689 59.2312H233.858V56.7281H237.401V72.2531C237.401 76.1625 234.378 78.0469 230.258 78.0469ZM226.629 64.2937C226.629 67.1062 227.895 68.9625 230.258 68.9625C232.578 68.9625 233.886 67.2187 233.886 64.2937C233.886 61.3828 232.592 59.4703 230.258 59.4562C227.867 59.4703 226.629 61.5094 226.629 64.2937ZM240.257 72V56.7281H243.857V72H240.257ZM240.003 52.5937C240.003 51.525 240.946 50.6531 242.085 50.6531C243.224 50.6531 244.166 51.525 244.166 52.5937C244.166 53.6766 243.224 54.5484 242.085 54.5625C240.946 54.5484 240.003 53.6766 240.003 52.5937ZM253.377 72.3094C248.821 72.3094 246.065 69.0469 246.065 64.4344C246.065 59.7516 248.906 56.5312 253.377 56.5312C257.076 56.5312 259.677 58.6969 259.931 61.9875H256.499C256.218 60.525 255.149 59.4141 253.406 59.4C251.184 59.4141 249.693 61.2703 249.693 64.35C249.693 67.5 251.156 69.3703 253.406 69.3844C254.995 69.3703 256.176 68.4422 256.499 66.7969H259.931C259.663 70.0172 257.216 72.3094 253.377 72.3094ZM261.351 67.6969C261.351 64.2656 264.206 63.2672 267.033 63.0844C268.101 63 270.281 62.9016 270.956 62.8734L270.942 61.65C270.942 60.1312 269.972 59.2594 268.186 59.2594C266.583 59.2594 265.598 59.9906 265.317 61.0875H261.858C262.111 58.4859 264.445 56.5312 268.27 56.5312C271.167 56.5312 274.514 57.7266 274.514 61.7906V72H271.083V69.8906H270.97C270.295 71.1844 268.875 72.3094 266.47 72.3094C263.559 72.3094 261.351 70.7203 261.351 67.6969ZM264.811 67.6687C264.811 68.9906 265.894 69.6656 267.398 69.6656C269.578 69.6656 270.97 68.2312 270.97 66.5156L270.956 65.2641C270.309 65.2922 268.312 65.4187 267.595 65.475C265.894 65.6156 264.811 66.3328 264.811 67.6687ZM280.913 51.6375V72H277.313V51.6375H280.913ZM293.852 51.6375V72H290.195V51.6375H293.852ZM300.504 63.0562V72H296.904V56.7281H300.335V59.3156H300.532C301.221 57.6141 302.782 56.5312 305.06 56.5312C308.224 56.5312 310.305 58.6125 310.291 62.2687V72H306.719V62.8312C306.719 60.7781 305.608 59.5547 303.738 59.5687C301.84 59.5547 300.504 60.8344 300.504 63.0562ZM318.828 72.2813C315.242 72.2672 312.528 69.3984 312.528 64.3781C312.528 59.2875 315.312 56.5312 318.856 56.5312C321.542 56.5312 322.667 58.1484 323.215 59.2312H323.356V51.6375H326.928V72H323.412V69.5812H323.215C322.639 70.7062 321.471 72.2672 318.828 72.2813ZM316.184 64.35C316.184 67.2328 317.45 69.3281 319.812 69.3281C322.132 69.3281 323.44 67.3312 323.44 64.35C323.44 61.3828 322.146 59.4703 319.812 59.4562C317.421 59.4703 316.184 61.5094 316.184 64.35ZM329.98 72V56.7281H333.58V72H329.98ZM329.727 52.5937C329.727 51.525 330.669 50.6531 331.808 50.6531C332.947 50.6531 333.889 51.525 333.889 52.5937C333.889 53.6766 332.947 54.5484 331.808 54.5625C330.669 54.5484 329.727 53.6766 329.727 52.5937ZM343.101 72.3094C338.544 72.3094 335.788 69.0469 335.788 64.4344C335.788 59.7516 338.629 56.5312 343.101 56.5312C346.799 56.5312 349.401 58.6969 349.654 61.9875H346.223C345.941 60.525 344.873 59.4141 343.129 59.4C340.907 59.4141 339.416 61.2703 339.416 64.35C339.416 67.5 340.879 69.3703 343.129 69.3844C344.718 69.3703 345.899 68.4422 346.223 66.7969H349.654C349.387 70.0172 346.94 72.3094 343.101 72.3094ZM351.075 67.6969C351.075 64.2656 353.929 63.2672 356.756 63.0844C357.825 63 360.004 62.9016 360.679 62.8734L360.665 61.65C360.665 60.1312 359.695 59.2594 357.909 59.2594C356.306 59.2594 355.322 59.9906 355.04 61.0875H351.581C351.834 58.4859 354.168 56.5312 357.993 56.5312C360.89 56.5312 364.237 57.7266 364.237 61.7906V72H360.806V69.8906H360.693C360.018 71.1844 358.598 72.3094 356.193 72.3094C353.282 72.3094 351.075 70.7203 351.075 67.6969ZM354.534 67.6687C354.534 68.9906 355.617 69.6656 357.122 69.6656C359.301 69.6656 360.693 68.2312 360.693 66.5156L360.679 65.2641C360.032 65.2922 358.036 65.4187 357.318 65.475C355.617 65.6156 354.534 66.3328 354.534 67.6687ZM374.658 56.7281V59.4844H371.649V67.4156C371.649 68.8781 372.38 69.1734 373.28 69.1875C373.702 69.2016 374.405 69.1594 374.855 69.1312V72.0563C374.433 72.1266 373.744 72.2109 372.83 72.1969C370.13 72.2109 368.049 70.875 368.077 68.0062V59.4844H365.883V56.7281H368.077V53.0719H371.649V56.7281H374.658ZM383.335 72.3094C378.877 72.3094 376.023 69.1453 376.023 64.4344C376.023 59.6812 378.877 56.5312 383.335 56.5312C387.807 56.5312 390.662 59.6812 390.648 64.4344C390.662 69.1453 387.807 72.3094 383.335 72.3094ZM379.651 64.4062C379.651 67.2047 380.874 69.4406 383.363 69.4406C385.81 69.4406 387.034 67.2047 387.02 64.4062C387.034 61.6078 385.81 59.3578 383.363 59.3719C380.874 59.3578 379.651 61.6078 379.651 64.4062ZM392.856 72V56.7281H396.344V59.2594H396.512C397.061 57.5016 398.523 56.5031 400.281 56.5031C400.675 56.5031 401.237 56.5453 401.575 56.5875V59.9062C401.251 59.7937 400.506 59.6953 399.915 59.6812C397.919 59.6953 396.456 61.0734 396.456 63V72H392.856ZM411.799 61.0875C411.574 59.9344 410.618 59.1891 409.099 59.2031C407.566 59.1891 406.441 59.9625 406.455 61.0031C406.441 61.7906 407.074 62.3812 408.621 62.7469L411.208 63.2812C414.091 63.9141 415.497 65.25 415.511 67.4437C415.497 70.3125 412.98 72.3094 408.986 72.3094C405.105 72.3094 402.813 70.5656 402.433 67.6406H406.089C406.3 68.9484 407.313 69.5953 408.986 69.5812C410.716 69.5953 411.841 68.8922 411.855 67.7531C411.841 66.8672 411.152 66.3047 409.633 65.9812L407.186 65.4469C404.346 64.8703 402.869 63.3797 402.883 61.2C402.869 58.3734 405.316 56.5312 409.043 56.5312C412.685 56.5312 414.935 58.3172 415.202 61.0875H411.799ZM439.826 60.8906V62.6344H416.932V60.8906H439.826ZM419.688 66.2906V64.6312H436.957V69.9469H421.938V72.3375H437.773V73.9406H419.717V68.4281H434.763V66.2906H419.688ZM419.829 51.6375V50.0344H436.873V55.2094H422.107V57.4031H437.323V59.0062H419.913V53.6906H434.651V51.6375H419.829ZM470.708 62.55V64.35H447.899V62.55H458.193V60.075H450.936V50.0062H467.868V51.8062H453.158V54.1406H467.193V55.8281H453.158V58.3031H468.008V60.075H460.386V62.55H470.708ZM450.683 70.2281C450.669 67.6266 453.777 66.2062 459.318 66.2344C464.802 66.2062 467.896 67.6266 467.924 70.2281C467.896 72.8578 464.802 74.2219 459.318 74.2219C453.777 74.2219 450.669 72.8578 450.683 70.2281ZM452.905 70.2281C452.877 71.7469 455.183 72.5344 459.318 72.5063C463.41 72.5344 465.688 71.7469 465.702 70.2281C465.688 68.7375 463.41 67.9078 459.318 67.8937C455.183 67.9078 452.877 68.7375 452.905 70.2281ZM491.789 49.3031V57.5437H495.557V59.4H491.789V68.0344H489.595V49.3031H491.789ZM472.298 54.1687V52.3687H478.654V49.3031H480.848V52.3687H487.204V54.1687H472.298ZM473.732 60.2156C473.718 57.375 476.137 55.5469 479.751 55.5469C483.323 55.5469 485.742 57.375 485.77 60.2156C485.742 63.0281 483.323 64.8422 479.751 64.8281C476.137 64.8422 473.718 63.0281 473.732 60.2156ZM475.842 60.2156C475.828 61.9734 477.389 63.1125 479.751 63.0844C482.085 63.1125 483.66 61.9734 483.689 60.2156C483.66 58.4297 482.085 57.2766 479.751 57.2906C477.389 57.2766 475.828 58.4297 475.842 60.2156ZM476.151 73.7438V66.5437H478.317V71.8875H492.942V73.7438H476.151ZM508.215 72L502.646 51.6375H505.205L509.452 68.1187H509.649L513.952 51.6375H516.793L521.124 68.1187H521.293L525.54 51.6375H528.099L522.53 72H519.915L515.471 55.8844H515.302L510.83 72H508.215ZM534.695 72.3094C530.532 72.3234 527.72 69.1734 527.72 64.4344C527.72 59.6672 530.532 56.5312 534.695 56.5312C538.843 56.5312 541.628 59.6672 541.614 64.4344C541.628 69.1734 538.843 72.3234 534.695 72.3094ZM530.139 64.4344C530.153 67.4859 531.587 70.1719 534.695 70.1719C537.775 70.1719 539.195 67.4859 539.195 64.4344C539.195 61.3969 537.775 58.6687 534.695 58.6687C531.587 58.6687 530.153 61.3969 530.139 64.4344ZM544.216 72V56.7281H546.55V59.0625H546.719C547.267 57.5156 548.856 56.4891 550.656 56.475C551.022 56.4891 551.641 56.5031 551.922 56.5312V58.9781C551.739 58.9359 551.092 58.8094 550.46 58.8094C548.266 58.8094 546.635 60.3281 546.635 62.3812V72H544.216ZM562.202 60.6937C561.865 59.4281 560.894 58.5984 559.109 58.5844C557.224 58.5984 555.888 59.6109 555.874 60.8906C555.888 61.9031 556.704 62.5922 558.49 63.0281L560.768 63.5906C563.496 64.2375 564.832 65.6016 564.846 67.725C564.832 70.3687 562.68 72.3234 558.855 72.3094C555.424 72.3234 553.385 70.7906 552.977 68.0062H555.509C555.79 69.4969 556.873 70.2141 558.799 70.2C560.979 70.2141 562.343 69.3 562.343 67.8656C562.343 66.7828 561.569 66.0797 559.84 65.6719L557.534 65.1375C554.876 64.5187 553.455 63.0703 553.455 61.0312C553.455 58.4156 555.748 56.5312 559.109 56.5312C562.273 56.5312 564.255 58.2187 564.565 60.6937H562.202ZM574.086 56.7281V58.7531H570.879V67.6125C570.865 69.5672 571.85 69.8906 572.876 69.8906C573.312 69.8906 573.959 69.8484 574.311 69.8344V72.0844C573.931 72.1406 573.34 72.1969 572.623 72.1969C570.584 72.1969 568.447 70.9312 568.433 68.2312V58.7531H566.126V56.7281H568.433V53.0719H570.879V56.7281H574.086ZM583.593 72V51.6375H590.512C595.279 51.6375 597.459 54.4781 597.459 58.1062C597.459 61.7203 595.279 64.6031 590.54 64.6031H586.124V72H583.593ZM586.124 62.3531H590.427C593.676 62.3531 594.941 60.525 594.956 58.1062C594.941 55.6734 593.676 53.8875 590.399 53.8875H586.124V62.3531ZM606.192 72.3094C602.03 72.3234 599.217 69.1734 599.217 64.4344C599.217 59.6672 602.03 56.5312 606.192 56.5312C610.34 56.5312 613.125 59.6672 613.111 64.4344C613.125 69.1734 610.34 72.3234 606.192 72.3094ZM601.636 64.4344C601.65 67.4859 603.084 70.1719 606.192 70.1719C609.272 70.1719 610.692 67.4859 610.692 64.4344C610.692 61.3969 609.272 58.6687 606.192 58.6687C603.084 58.6687 601.65 61.3969 601.636 64.4344ZM624.207 60.6937C623.869 59.4281 622.899 58.5984 621.113 58.5844C619.229 58.5984 617.893 59.6109 617.879 60.8906C617.893 61.9031 618.708 62.5922 620.494 63.0281L622.772 63.5906C625.5 64.2375 626.836 65.6016 626.85 67.725C626.836 70.3687 624.685 72.3234 620.86 72.3094C617.429 72.3234 615.389 70.7906 614.982 68.0062H617.513C617.794 69.4969 618.877 70.2141 620.804 70.2C622.983 70.2141 624.347 69.3 624.347 67.8656C624.347 66.7828 623.574 66.0797 621.844 65.6719L619.538 65.1375C616.88 64.5187 615.46 63.0703 615.46 61.0312C615.46 58.4156 617.752 56.5312 621.113 56.5312C624.277 56.5312 626.26 58.2187 626.569 60.6937H624.207ZM629.424 72V56.7281H631.843V72H629.424ZM628.946 52.5937C628.932 51.6937 629.706 50.9766 630.634 50.9906C631.562 50.9766 632.335 51.6937 632.349 52.5937C632.335 53.4797 631.562 54.1969 630.634 54.1969C629.706 54.1969 628.932 53.4797 628.946 52.5937ZM641.786 56.7281V58.7531H638.58V67.6125C638.566 69.5672 639.55 69.8906 640.577 69.8906C641.012 69.8906 641.659 69.8484 642.011 69.8344V72.0844C641.631 72.1406 641.041 72.1969 640.323 72.1969C638.284 72.1969 636.147 70.9312 636.133 68.2312V58.7531H633.827V56.7281H636.133V53.0719H638.58V56.7281H641.786ZM644.332 72V56.7281H646.751V72H644.332ZM643.854 52.5937C643.84 51.6937 644.613 50.9766 645.541 50.9906C646.469 50.9766 647.243 51.6937 647.257 52.5937C647.243 53.4797 646.469 54.1969 645.541 54.1969C644.613 54.1969 643.84 53.4797 643.854 52.5937ZM656.271 72.3094C652.109 72.3234 649.296 69.1734 649.296 64.4344C649.296 59.6672 652.109 56.5312 656.271 56.5312C660.42 56.5312 663.204 59.6672 663.19 64.4344C663.204 69.1734 660.42 72.3234 656.271 72.3094ZM651.715 64.4344C651.729 67.4859 653.164 70.1719 656.271 70.1719C659.351 70.1719 660.771 67.4859 660.771 64.4344C660.771 61.3969 659.351 58.6687 656.271 58.6687C653.164 58.6687 651.729 61.3969 651.715 64.4344ZM668.211 62.8312V72H665.792V56.7281H668.127V59.1187H668.324C669.041 57.5578 670.475 56.5312 672.795 56.5312C675.889 56.5312 677.956 58.4156 677.942 62.2969V72H675.524V62.4656C675.524 60.1031 674.23 58.6969 672.064 58.6969C669.842 58.6969 668.211 60.1875 668.211 62.8312ZM695.522 54C695.522 57.4875 698.053 60.7781 701.709 62.1L700.472 63.8156C697.729 62.7328 695.536 60.5672 694.467 57.8391C693.412 60.8625 691.134 63.2531 688.181 64.4344L687 62.6344C690.754 61.2562 693.342 57.7547 693.356 53.9156V50.8219H695.522V54ZM691.528 73.7438V65.8969H693.75V71.8875H708.262V73.7438H691.528ZM699.909 57.0375V55.1812H705.478V49.3031H707.7V68.0344H705.478V57.0375H699.909ZM732.014 49.275V64.1812H729.792V57.6281H724.758V55.8H729.792V49.275H732.014ZM711.399 62.1844C715.111 60.8484 717.755 57.4594 717.755 53.8875V52.9594H712.102V51.1031H725.574V52.9594H719.977V53.8594C719.977 57.1219 722.48 60.2297 726.136 61.4812L724.983 63.2531C722.185 62.2406 720.005 60.1312 718.922 57.5578C717.853 60.4828 715.533 62.8172 712.552 63.9562L711.399 62.1844ZM715.336 69.6094C715.322 66.6703 718.514 64.9547 723.717 64.9687C728.906 64.9547 732.099 66.6703 732.099 69.6094C732.099 72.5625 728.906 74.25 723.717 74.2781C718.514 74.25 715.322 72.5625 715.336 69.6094ZM717.53 69.6094C717.516 71.4234 719.878 72.5203 723.717 72.5063C727.542 72.5203 729.905 71.4234 729.905 69.6094C729.905 67.7812 727.542 66.6844 723.717 66.6844C719.878 66.6844 717.516 67.7812 717.53 69.6094Z" fill="#7737FF"/>
<path d="M761.326 67.3524C762.522 68.7254 764.655 68.7254 765.851 67.3524L774.849 57.0204C776.539 55.0792 775.16 52.0502 772.586 52.0502H754.591C752.017 52.0502 750.638 55.0792 752.328 57.0204L761.326 67.3524Z" fill="#7737FF"/>
<rect x="61" y="27" width="68" height="68" rx="16" fill="#7737FF"/>
<path d="M89.9656 57.2344C89.7828 55.4766 88.3063 54.4641 86.1125 54.4781C83.7922 54.4641 82.4141 55.5891 82.4 57.1219C82.3859 58.8375 84.2 59.5406 85.8875 59.9344L87.8 60.4406C90.8375 61.1437 93.7625 62.7469 93.7625 66.2906C93.7625 69.8625 90.9359 72.3094 86.0563 72.3094C81.3172 72.3094 78.3078 70.0312 78.1531 66.0094H81.7531C81.9219 68.1328 83.7078 69.1734 86.0281 69.1875C88.4328 69.1734 90.0922 68.0062 90.1063 66.2625C90.0922 64.6594 88.6297 63.9844 86.4219 63.4219L84.1156 62.8312C80.7688 61.9594 78.6875 60.2719 78.6875 57.3469C78.6875 53.7469 81.8797 51.3562 86.1688 51.3562C90.4859 51.3562 93.425 53.7891 93.4813 57.2344H89.9656ZM95.6615 68.2031V65.2781L104.465 51.6375H109.021V65.1937H111.693V68.2031H109.021V72H105.533V68.2031H95.6615ZM99.4021 65.1937H105.59V55.8H105.365L99.4021 65.0531V65.1937Z" fill="white"/>
</svg>
