<svg width="643" height="88" viewBox="0 0 643 88" fill="none" xmlns="http://www.w3.org/2000/svg">
<rect x="68" width="574.177" height="88" rx="24" fill="white" fill-opacity="0.1"/>
<path d="M120.078 32.0781V57.5031H116.928V32.0781H120.078ZM99.0125 50.5C105.678 47.3359 108.744 43.0328 109.306 37.2531H100.306V34.7781H112.484C112.484 42.3437 109.545 48.7703 100.644 53.0031L99.0125 50.5ZM146.362 47.0969V49.5437H140.765V57.5031H137.615V49.5437H131.905V57.5031H128.783V49.5437H123.13V47.0969H146.362ZM125.858 35.4812V32.9219H143.662V40.0375H129.065V42.4562H144.224V44.9875H125.915V37.7031H140.455V35.4812H125.858ZM175.669 32.0781V57.5031H172.66V44.5937H170.128V56.2094H167.175V32.5562H170.128V42.0344H172.66V32.0781H175.669ZM153.45 48.925C154.153 48.925 154.955 48.925 155.813 48.925V37.6187H153.956V35.0875H165.713V37.6187H163.885V48.5734C164.644 48.5172 165.361 48.4328 166.05 48.3344L166.219 50.6125C162.253 51.4281 157.008 51.5266 153.816 51.5125L153.45 48.925ZM158.625 48.8687C159.427 48.8406 160.228 48.8125 161.044 48.7703V37.6187H158.625V48.8687ZM199.337 32.1062V50.8937H196.215V41.5844H191.659V39.0531H196.215V32.1062H199.337ZM179.284 47.2937V34.0469H190.843V36.5781H182.405V39.3344H190.084V41.7812H182.405V44.7062C186.427 44.7062 188.944 44.5937 191.912 44.0875L192.165 46.5906C188.888 47.1672 186.034 47.2937 181.224 47.2937H179.284ZM182.63 56.9969V49.2625H185.78V54.4656H199.984V56.9969H182.63ZM213.92 32.4719C219.714 32.4859 223.075 34.0187 223.089 36.8312C223.075 39.6719 219.714 41.2047 213.92 41.2187C208.14 41.2047 204.751 39.6719 204.751 36.8312C204.751 34.0187 208.14 32.4859 213.92 32.4719ZM202.361 45.0719V42.5687H225.536V45.0719H202.361ZM205.089 49.0937V46.7875H222.639V53.0031H208.183V54.8875H223.342V57.2781H205.117V50.7812H219.573V49.0937H205.089ZM208.042 36.8312C208.028 38.2375 210.053 38.8844 213.92 38.8844C217.843 38.8844 219.854 38.2375 219.854 36.8312C219.854 35.5234 217.843 34.7781 213.92 34.7781C210.053 34.7781 208.028 35.5234 208.042 36.8312ZM246.096 33.625C246.082 40.1781 241.765 44.7766 234.368 46.8437L233.102 44.3969C238.798 42.85 242.173 39.8687 242.749 36.1562H234.481V33.625H246.096ZM237.49 57.1656V47.4344H254.224V57.1656H237.49ZM240.556 54.6906H251.131V49.9094H240.556V54.6906ZM246.209 40.8812V38.3219H251.102V32.1062H254.224V46.4219H251.102V40.8812H246.209ZM280.423 43.9187V46.45H257.248V43.9187H280.423ZM258.373 40.3187C263.084 39.8547 266.15 37.9703 266.628 35.8469H259.358V33.2875H278.342V35.8469H271.001C271.465 37.9422 274.503 39.8547 279.326 40.3187L278.23 42.7937C273.603 42.3156 270.186 40.4734 268.808 37.9C267.43 40.4734 264.055 42.3156 259.442 42.7937L258.373 40.3187ZM259.948 52.8062C259.948 49.8531 263.281 48.1375 268.808 48.1375C274.292 48.1375 277.597 49.8531 277.611 52.8062C277.597 55.8016 274.292 57.475 268.808 57.475C263.281 57.475 259.948 55.8016 259.948 52.8062ZM263.126 52.8062C263.112 54.2828 265.109 55.0141 268.808 55.0281C272.45 55.0141 274.461 54.2828 274.489 52.8062C274.461 51.3297 272.45 50.5844 268.808 50.5844C265.109 50.5844 263.112 51.3297 263.126 52.8062ZM301.082 32.275V42.5969H305.272V44.425H301.082V57.2781H298.888V32.275H301.082ZM281.591 38.125V36.2969H288.032V32.5844H290.225V36.2969H296.469V38.125H281.591ZM283.025 45.9437C283.011 42.5687 285.599 40.2062 289.157 40.2062C292.686 40.2062 295.26 42.5687 295.288 45.9437C295.26 49.3328 292.686 51.6812 289.157 51.6812C285.599 51.6812 283.011 49.3328 283.025 45.9437ZM285.135 45.9437C285.121 48.2219 286.822 49.825 289.157 49.7969C291.463 49.825 293.15 48.2219 293.179 45.9437C293.15 43.6797 291.463 42.0484 289.157 42.0625C286.822 42.0484 285.121 43.6797 285.135 45.9437ZM312.768 34.2156C315.06 34.2297 316.931 35.5656 318.013 37.8719H324.581V32.275H326.774V57.3344H324.581V47.6312H318.168C317.128 50.1625 315.187 51.6391 312.768 51.625C309.07 51.6391 306.482 48.2641 306.496 42.9344C306.482 37.6187 309.07 34.2297 312.768 34.2156ZM308.606 42.9344C308.62 46.9984 310.307 49.6703 312.768 49.6562C315.215 49.6703 316.931 46.9984 316.931 42.9344C316.931 38.8703 315.215 36.1984 312.768 36.1844C310.307 36.1984 308.62 38.8703 308.606 42.9344ZM318.646 39.7281C318.885 40.6984 319.012 41.7672 319.012 42.9344C319.012 43.9609 318.913 44.9312 318.731 45.8031H324.581V39.7281H318.646ZM342.019 55L336.451 34.6375H339.01L343.257 51.1187H343.454L347.757 34.6375H350.597L354.929 51.1187H355.097L359.344 34.6375H361.904L356.335 55H353.719L349.276 38.8844H349.107L344.635 55H342.019ZM368.5 55.3094C364.337 55.3234 361.525 52.1734 361.525 47.4344C361.525 42.6672 364.337 39.5312 368.5 39.5312C372.648 39.5312 375.432 42.6672 375.418 47.4344C375.432 52.1734 372.648 55.3234 368.5 55.3094ZM363.943 47.4344C363.957 50.4859 365.392 53.1719 368.5 53.1719C371.579 53.1719 373 50.4859 373 47.4344C373 44.3969 371.579 41.6687 368.5 41.6687C365.392 41.6687 363.957 44.3969 363.943 47.4344ZM378.02 55V39.7281H380.355V42.0625H380.524C381.072 40.5156 382.661 39.4891 384.461 39.475C384.827 39.4891 385.445 39.5031 385.727 39.5312V41.9781C385.544 41.9359 384.897 41.8094 384.264 41.8094C382.07 41.8094 380.439 43.3281 380.439 45.3812V55H378.02ZM396.007 43.6937C395.669 42.4281 394.699 41.5984 392.913 41.5844C391.029 41.5984 389.693 42.6109 389.679 43.8906C389.693 44.9031 390.508 45.5922 392.294 46.0281L394.573 46.5906C397.301 47.2375 398.637 48.6016 398.651 50.725C398.637 53.3687 396.485 55.3234 392.66 55.3094C389.229 55.3234 387.19 53.7906 386.782 51.0062H389.313C389.594 52.4969 390.677 53.2141 392.604 53.2C394.783 53.2141 396.148 52.3 396.148 50.8656C396.148 49.7828 395.374 49.0797 393.644 48.6719L391.338 48.1375C388.68 47.5187 387.26 46.0703 387.26 44.0312C387.26 41.4156 389.552 39.5312 392.913 39.5312C396.077 39.5312 398.06 41.2187 398.369 43.6937H396.007ZM407.89 39.7281V41.7531H404.684V50.6125C404.67 52.5672 405.654 52.8906 406.681 52.8906C407.117 52.8906 407.764 52.8484 408.115 52.8344V55.0844C407.736 55.1406 407.145 55.1969 406.428 55.1969C404.389 55.1969 402.251 53.9312 402.237 51.2312V41.7531H399.931V39.7281H402.237V36.0719H404.684V39.7281H407.89ZM417.398 55V34.6375H424.316C429.084 34.6375 431.263 37.4781 431.263 41.1062C431.263 44.7203 429.084 47.6031 424.345 47.6031H419.929V55H417.398ZM419.929 45.3531H424.232C427.48 45.3531 428.746 43.525 428.76 41.1062C428.746 38.6734 427.48 36.8875 424.204 36.8875H419.929V45.3531ZM439.997 55.3094C435.834 55.3234 433.022 52.1734 433.022 47.4344C433.022 42.6672 435.834 39.5312 439.997 39.5312C444.145 39.5312 446.929 42.6672 446.915 47.4344C446.929 52.1734 444.145 55.3234 439.997 55.3094ZM435.44 47.4344C435.454 50.4859 436.889 53.1719 439.997 53.1719C443.076 53.1719 444.497 50.4859 444.497 47.4344C444.497 44.3969 443.076 41.6687 439.997 41.6687C436.889 41.6687 435.454 44.3969 435.44 47.4344ZM458.011 43.6937C457.674 42.4281 456.703 41.5984 454.918 41.5844C453.033 41.5984 451.697 42.6109 451.683 43.8906C451.697 44.9031 452.513 45.5922 454.299 46.0281L456.577 46.5906C459.305 47.2375 460.641 48.6016 460.655 50.725C460.641 53.3687 458.489 55.3234 454.664 55.3094C451.233 55.3234 449.194 53.7906 448.786 51.0062H451.318C451.599 52.4969 452.682 53.2141 454.608 53.2C456.788 53.2141 458.152 52.3 458.152 50.8656C458.152 49.7828 457.378 49.0797 455.649 48.6719L453.343 48.1375C450.685 47.5187 449.264 46.0703 449.264 44.0312C449.264 41.4156 451.557 39.5312 454.918 39.5312C458.082 39.5312 460.064 41.2187 460.374 43.6937H458.011ZM463.229 55V39.7281H465.648V55H463.229ZM462.751 35.5937C462.737 34.6937 463.51 33.9766 464.438 33.9906C465.367 33.9766 466.14 34.6937 466.154 35.5937C466.14 36.4797 465.367 37.1969 464.438 37.1969C463.51 37.1969 462.737 36.4797 462.751 35.5937ZM475.591 39.7281V41.7531H472.384V50.6125C472.37 52.5672 473.355 52.8906 474.381 52.8906C474.817 52.8906 475.464 52.8484 475.816 52.8344V55.0844C475.436 55.1406 474.845 55.1969 474.128 55.1969C472.089 55.1969 469.951 53.9312 469.937 51.2312V41.7531H467.631V39.7281H469.937V36.0719H472.384V39.7281H475.591ZM478.136 55V39.7281H480.555V55H478.136ZM477.658 35.5937C477.644 34.6937 478.418 33.9766 479.346 33.9906C480.274 33.9766 481.047 34.6937 481.061 35.5937C481.047 36.4797 480.274 37.1969 479.346 37.1969C478.418 37.1969 477.644 36.4797 477.658 35.5937ZM490.076 55.3094C485.914 55.3234 483.101 52.1734 483.101 47.4344C483.101 42.6672 485.914 39.5312 490.076 39.5312C494.224 39.5312 497.009 42.6672 496.995 47.4344C497.009 52.1734 494.224 55.3234 490.076 55.3094ZM485.52 47.4344C485.534 50.4859 486.968 53.1719 490.076 53.1719C493.156 53.1719 494.576 50.4859 494.576 47.4344C494.576 44.3969 493.156 41.6687 490.076 41.6687C486.968 41.6687 485.534 44.3969 485.52 47.4344ZM502.016 45.8312V55H499.597V39.7281H501.931V42.1187H502.128C502.845 40.5578 504.28 39.5312 506.6 39.5312C509.694 39.5312 511.761 41.4156 511.747 45.2969V55H509.328V45.4656C509.328 43.1031 508.034 41.6969 505.869 41.6969C503.647 41.6969 502.016 43.1875 502.016 45.8312ZM529.326 37C529.326 40.4875 531.857 43.7781 535.514 45.1L534.276 46.8156C531.534 45.7328 529.34 43.5672 528.271 40.8391C527.217 43.8625 524.939 46.2531 521.986 47.4344L520.804 45.6344C524.559 44.2562 527.146 40.7547 527.161 36.9156V33.8219H529.326V37ZM525.332 56.7438V48.8969H527.554V54.8875H542.067V56.7438H525.332ZM533.714 40.0375V38.1812H539.282V32.3031H541.504V51.0344H539.282V40.0375H533.714ZM565.819 32.275V47.1812H563.597V40.6281H558.563V38.8H563.597V32.275H565.819ZM545.203 45.1844C548.916 43.8484 551.56 40.4594 551.56 36.8875V35.9594H545.906V34.1031H559.378V35.9594H553.781V36.8594C553.781 40.1219 556.285 43.2297 559.941 44.4812L558.788 46.2531C555.989 45.2406 553.81 43.1312 552.727 40.5578C551.658 43.4828 549.338 45.8172 546.356 46.9562L545.203 45.1844ZM549.141 52.6094C549.127 49.6703 552.319 47.9547 557.522 47.9687C562.711 47.9547 565.903 49.6703 565.903 52.6094C565.903 55.5625 562.711 57.25 557.522 57.2781C552.319 57.25 549.127 55.5625 549.141 52.6094ZM551.335 52.6094C551.32 54.4234 553.683 55.5203 557.522 55.5063C561.347 55.5203 563.71 54.4234 563.71 52.6094C563.71 50.7812 561.347 49.6844 557.522 49.6844C553.683 49.6844 551.32 50.7812 551.335 52.6094Z" fill="#7737FF"/>
<path d="M594.326 50.3524C595.522 51.7254 597.655 51.7254 598.851 50.3524L607.849 40.0204C609.539 38.0792 608.16 35.0502 605.586 35.0502H587.591C585.017 35.0502 583.638 38.0792 585.328 40.0204L594.326 50.3524Z" fill="#7737FF"/>
<rect y="10" width="68" height="68" rx="16" fill="#7737FF"/>
<path d="M31.4656 40.2344C31.2828 38.4766 29.8063 37.4641 27.6125 37.4781C25.2922 37.4641 23.9141 38.5891 23.9 40.1219C23.8859 41.8375 25.7 42.5406 27.3875 42.9344L29.3 43.4406C32.3375 44.1437 35.2625 45.7469 35.2625 49.2906C35.2625 52.8625 32.4359 55.3094 27.5563 55.3094C22.8172 55.3094 19.8078 53.0312 19.6531 49.0094H23.2531C23.4219 51.1328 25.2078 52.1734 27.5281 52.1875C29.9328 52.1734 31.5922 51.0062 31.6063 49.2625C31.5922 47.6594 30.1297 46.9844 27.9219 46.4219L25.6156 45.8312C22.2688 44.9594 20.1875 43.2719 20.1875 40.3469C20.1875 36.7469 23.3797 34.3562 27.6688 34.3562C31.9859 34.3562 34.925 36.7891 34.9813 40.2344H31.4656ZM45.7959 34.6375V55H42.1115V38.2094H41.999L37.2459 41.2469V37.9L42.2803 34.6375H45.7959Z" fill="white"/>
</svg>
