<svg width="749" height="88" viewBox="0 0 749 88" fill="none" xmlns="http://www.w3.org/2000/svg">
<rect x="68" width="680.177" height="88" rx="24" fill="white" fill-opacity="0.1"/>
<path d="M99.8844 55V34.6375H107.675C112.091 34.6375 114.27 36.8875 114.284 39.925C114.27 42.4 112.709 43.7781 110.713 44.2562V44.4531C112.878 44.5656 115.072 46.3656 115.072 49.4594C115.072 52.6234 112.78 55 108.125 55H99.8844ZM103.541 51.9344H107.563C110.234 51.9344 111.345 50.7953 111.359 49.1781C111.345 47.35 109.925 45.9578 107.647 45.9437H103.541V51.9344ZM103.541 43.3H107.225C109.152 43.3 110.614 42.1891 110.628 40.375C110.614 38.8141 109.489 37.675 107.309 37.675H103.541V43.3ZM117.308 55V39.7281H120.908V55H117.308ZM117.055 35.5937C117.055 34.525 117.997 33.6531 119.137 33.6531C120.276 33.6531 121.218 34.525 121.218 35.5937C121.218 36.6766 120.276 37.5484 119.137 37.5625C117.997 37.5484 117.055 36.6766 117.055 35.5937ZM130.429 55.3094C125.971 55.3094 123.117 52.1453 123.117 47.4344C123.117 42.6812 125.971 39.5312 130.429 39.5312C134.901 39.5312 137.756 42.6812 137.742 47.4344C137.756 52.1453 134.901 55.3094 130.429 55.3094ZM126.745 47.4062C126.745 50.2047 127.968 52.4406 130.457 52.4406C132.904 52.4406 134.128 50.2047 134.114 47.4062C134.128 44.6078 132.904 42.3578 130.457 42.3719C127.968 42.3578 126.745 44.6078 126.745 47.4062ZM143.55 34.6375V55H139.95V34.6375H143.55ZM153.071 55.3094C148.613 55.3094 145.759 52.1453 145.759 47.4344C145.759 42.6812 148.613 39.5312 153.071 39.5312C157.543 39.5312 160.398 42.6812 160.384 47.4344C160.398 52.1453 157.543 55.3094 153.071 55.3094ZM149.387 47.4062C149.387 50.2047 150.61 52.4406 153.099 52.4406C155.546 52.4406 156.769 50.2047 156.755 47.4062C156.769 44.6078 155.546 42.3578 153.099 42.3719C150.61 42.3578 149.387 44.6078 149.387 47.4062ZM169.258 61.0469C165.208 61.0469 162.634 59.2469 162.395 56.3781H165.967C166.22 57.7141 167.472 58.3328 169.314 58.3469C171.465 58.3328 172.858 57.4047 172.858 55.1688V52.2437H172.689C172.126 53.3687 170.903 54.775 168.273 54.775C164.743 54.775 161.973 52.2156 161.973 47.2375C161.973 42.2172 164.758 39.5312 168.301 39.5312C170.987 39.5312 172.126 41.1484 172.689 42.2312H172.858V39.7281H176.401V55.2531C176.401 59.1625 173.378 61.0469 169.258 61.0469ZM165.629 47.2937C165.629 50.1062 166.895 51.9625 169.258 51.9625C171.578 51.9625 172.886 50.2187 172.886 47.2937C172.886 44.3828 171.592 42.4703 169.258 42.4562C166.867 42.4703 165.629 44.5094 165.629 47.2937ZM179.257 55V39.7281H182.857V55H179.257ZM179.003 35.5937C179.003 34.525 179.946 33.6531 181.085 33.6531C182.224 33.6531 183.166 34.525 183.166 35.5937C183.166 36.6766 182.224 37.5484 181.085 37.5625C179.946 37.5484 179.003 36.6766 179.003 35.5937ZM192.377 55.3094C187.821 55.3094 185.065 52.0469 185.065 47.4344C185.065 42.7516 187.906 39.5312 192.377 39.5312C196.076 39.5312 198.677 41.6969 198.931 44.9875H195.499C195.218 43.525 194.149 42.4141 192.406 42.4C190.184 42.4141 188.693 44.2703 188.693 47.35C188.693 50.5 190.156 52.3703 192.406 52.3844C193.995 52.3703 195.176 51.4422 195.499 49.7969H198.931C198.663 53.0172 196.216 55.3094 192.377 55.3094ZM200.351 50.6969C200.351 47.2656 203.206 46.2672 206.033 46.0844C207.101 46 209.281 45.9016 209.956 45.8734L209.942 44.65C209.942 43.1312 208.972 42.2594 207.186 42.2594C205.583 42.2594 204.598 42.9906 204.317 44.0875H200.858C201.111 41.4859 203.445 39.5312 207.27 39.5312C210.167 39.5312 213.514 40.7266 213.514 44.7906V55H210.083V52.8906H209.97C209.295 54.1844 207.875 55.3094 205.47 55.3094C202.559 55.3094 200.351 53.7203 200.351 50.6969ZM203.811 50.6687C203.811 51.9906 204.894 52.6656 206.398 52.6656C208.578 52.6656 209.97 51.2312 209.97 49.5156L209.956 48.2641C209.309 48.2922 207.312 48.4187 206.595 48.475C204.894 48.6156 203.811 49.3328 203.811 50.6687ZM219.913 34.6375V55H216.313V34.6375H219.913ZM232.852 34.6375V55H229.195V34.6375H232.852ZM239.504 46.0562V55H235.904V39.7281H239.335V42.3156H239.532C240.221 40.6141 241.782 39.5312 244.06 39.5312C247.224 39.5312 249.305 41.6125 249.291 45.2687V55H245.719V45.8312C245.719 43.7781 244.608 42.5547 242.738 42.5687C240.84 42.5547 239.504 43.8344 239.504 46.0562ZM257.828 55.2813C254.242 55.2672 251.528 52.3984 251.528 47.3781C251.528 42.2875 254.312 39.5312 257.856 39.5312C260.542 39.5312 261.667 41.1484 262.215 42.2312H262.356V34.6375H265.928V55H262.412V52.5812H262.215C261.639 53.7062 260.471 55.2672 257.828 55.2813ZM255.184 47.35C255.184 50.2328 256.45 52.3281 258.812 52.3281C261.132 52.3281 262.44 50.3312 262.44 47.35C262.44 44.3828 261.146 42.4703 258.812 42.4562C256.421 42.4703 255.184 44.5094 255.184 47.35ZM268.98 55V39.7281H272.58V55H268.98ZM268.727 35.5937C268.727 34.525 269.669 33.6531 270.808 33.6531C271.947 33.6531 272.889 34.525 272.889 35.5937C272.889 36.6766 271.947 37.5484 270.808 37.5625C269.669 37.5484 268.727 36.6766 268.727 35.5937ZM282.101 55.3094C277.544 55.3094 274.788 52.0469 274.788 47.4344C274.788 42.7516 277.629 39.5312 282.101 39.5312C285.799 39.5312 288.401 41.6969 288.654 44.9875H285.223C284.941 43.525 283.873 42.4141 282.129 42.4C279.907 42.4141 278.416 44.2703 278.416 47.35C278.416 50.5 279.879 52.3703 282.129 52.3844C283.718 52.3703 284.899 51.4422 285.223 49.7969H288.654C288.387 53.0172 285.94 55.3094 282.101 55.3094ZM290.075 50.6969C290.075 47.2656 292.929 46.2672 295.756 46.0844C296.825 46 299.004 45.9016 299.679 45.8734L299.665 44.65C299.665 43.1312 298.695 42.2594 296.909 42.2594C295.306 42.2594 294.322 42.9906 294.04 44.0875H290.581C290.834 41.4859 293.168 39.5312 296.993 39.5312C299.89 39.5312 303.237 40.7266 303.237 44.7906V55H299.806V52.8906H299.693C299.018 54.1844 297.598 55.3094 295.193 55.3094C292.282 55.3094 290.075 53.7203 290.075 50.6969ZM293.534 50.6687C293.534 51.9906 294.617 52.6656 296.122 52.6656C298.301 52.6656 299.693 51.2312 299.693 49.5156L299.679 48.2641C299.032 48.2922 297.036 48.4187 296.318 48.475C294.617 48.6156 293.534 49.3328 293.534 50.6687ZM313.658 39.7281V42.4844H310.649V50.4156C310.649 51.8781 311.38 52.1734 312.28 52.1875C312.702 52.2016 313.405 52.1594 313.855 52.1312V55.0563C313.433 55.1266 312.744 55.2109 311.83 55.1969C309.13 55.2109 307.049 53.875 307.077 51.0062V42.4844H304.883V39.7281H307.077V36.0719H310.649V39.7281H313.658ZM322.335 55.3094C317.877 55.3094 315.023 52.1453 315.023 47.4344C315.023 42.6812 317.877 39.5312 322.335 39.5312C326.807 39.5312 329.662 42.6812 329.648 47.4344C329.662 52.1453 326.807 55.3094 322.335 55.3094ZM318.651 47.4062C318.651 50.2047 319.874 52.4406 322.363 52.4406C324.81 52.4406 326.034 50.2047 326.02 47.4062C326.034 44.6078 324.81 42.3578 322.363 42.3719C319.874 42.3578 318.651 44.6078 318.651 47.4062ZM331.856 55V39.7281H335.344V42.2594H335.512C336.061 40.5016 337.523 39.5031 339.281 39.5031C339.675 39.5031 340.237 39.5453 340.575 39.5875V42.9062C340.251 42.7937 339.506 42.6953 338.915 42.6812C336.919 42.6953 335.456 44.0734 335.456 46V55H331.856ZM350.799 44.0875C350.574 42.9344 349.618 42.1891 348.099 42.2031C346.566 42.1891 345.441 42.9625 345.455 44.0031C345.441 44.7906 346.074 45.3812 347.621 45.7469L350.208 46.2812C353.091 46.9141 354.497 48.25 354.511 50.4437C354.497 53.3125 351.98 55.3094 347.986 55.3094C344.105 55.3094 341.813 53.5656 341.433 50.6406H345.089C345.3 51.9484 346.313 52.5953 347.986 52.5812C349.716 52.5953 350.841 51.8922 350.855 50.7531C350.841 49.8672 350.152 49.3047 348.633 48.9812L346.186 48.4469C343.346 47.8703 341.869 46.3797 341.883 44.2C341.869 41.3734 344.316 39.5312 348.043 39.5312C351.685 39.5312 353.935 41.3172 354.202 44.0875H350.799ZM378.826 43.8906V45.6344H355.932V43.8906H378.826ZM358.688 49.2906V47.6312H375.957V52.9469H360.938V55.3375H376.773V56.9406H358.717V51.4281H373.763V49.2906H358.688ZM358.829 34.6375V33.0344H375.873V38.2094H361.107V40.4031H376.323V42.0062H358.913V36.6906H373.651V34.6375H358.829ZM409.708 45.55V47.35H386.899V45.55H397.193V43.075H389.936V33.0062H406.868V34.8062H392.158V37.1406H406.193V38.8281H392.158V41.3031H407.008V43.075H399.386V45.55H409.708ZM389.683 53.2281C389.669 50.6266 392.777 49.2062 398.318 49.2344C403.802 49.2062 406.896 50.6266 406.924 53.2281C406.896 55.8578 403.802 57.2219 398.318 57.2219C392.777 57.2219 389.669 55.8578 389.683 53.2281ZM391.905 53.2281C391.877 54.7469 394.183 55.5344 398.318 55.5063C402.41 55.5344 404.688 54.7469 404.702 53.2281C404.688 51.7375 402.41 50.9078 398.318 50.8937C394.183 50.9078 391.877 51.7375 391.905 53.2281ZM430.789 32.3031V40.5437H434.557V42.4H430.789V51.0344H428.595V32.3031H430.789ZM411.298 37.1687V35.3687H417.654V32.3031H419.848V35.3687H426.204V37.1687H411.298ZM412.732 43.2156C412.718 40.375 415.137 38.5469 418.751 38.5469C422.323 38.5469 424.742 40.375 424.77 43.2156C424.742 46.0281 422.323 47.8422 418.751 47.8281C415.137 47.8422 412.718 46.0281 412.732 43.2156ZM414.842 43.2156C414.828 44.9734 416.389 46.1125 418.751 46.0844C421.085 46.1125 422.66 44.9734 422.689 43.2156C422.66 41.4297 421.085 40.2766 418.751 40.2906C416.389 40.2766 414.828 41.4297 414.842 43.2156ZM415.151 56.7438V49.5437H417.317V54.8875H431.942V56.7438H415.151ZM447.215 55L441.646 34.6375H444.205L448.452 51.1187H448.649L452.952 34.6375H455.793L460.124 51.1187H460.293L464.54 34.6375H467.099L461.53 55H458.915L454.471 38.8844H454.302L449.83 55H447.215ZM473.695 55.3094C469.532 55.3234 466.72 52.1734 466.72 47.4344C466.72 42.6672 469.532 39.5312 473.695 39.5312C477.843 39.5312 480.628 42.6672 480.614 47.4344C480.628 52.1734 477.843 55.3234 473.695 55.3094ZM469.139 47.4344C469.153 50.4859 470.587 53.1719 473.695 53.1719C476.775 53.1719 478.195 50.4859 478.195 47.4344C478.195 44.3969 476.775 41.6687 473.695 41.6687C470.587 41.6687 469.153 44.3969 469.139 47.4344ZM483.216 55V39.7281H485.55V42.0625H485.719C486.267 40.5156 487.856 39.4891 489.656 39.475C490.022 39.4891 490.641 39.5031 490.922 39.5312V41.9781C490.739 41.9359 490.092 41.8094 489.46 41.8094C487.266 41.8094 485.635 43.3281 485.635 45.3812V55H483.216ZM501.202 43.6937C500.865 42.4281 499.894 41.5984 498.109 41.5844C496.224 41.5984 494.888 42.6109 494.874 43.8906C494.888 44.9031 495.704 45.5922 497.49 46.0281L499.768 46.5906C502.496 47.2375 503.832 48.6016 503.846 50.725C503.832 53.3687 501.68 55.3234 497.855 55.3094C494.424 55.3234 492.385 53.7906 491.977 51.0062H494.509C494.79 52.4969 495.873 53.2141 497.799 53.2C499.979 53.2141 501.343 52.3 501.343 50.8656C501.343 49.7828 500.569 49.0797 498.84 48.6719L496.534 48.1375C493.876 47.5187 492.455 46.0703 492.455 44.0312C492.455 41.4156 494.748 39.5312 498.109 39.5312C501.273 39.5312 503.255 41.2187 503.565 43.6937H501.202ZM513.086 39.7281V41.7531H509.879V50.6125C509.865 52.5672 510.85 52.8906 511.876 52.8906C512.312 52.8906 512.959 52.8484 513.311 52.8344V55.0844C512.931 55.1406 512.34 55.1969 511.623 55.1969C509.584 55.1969 507.447 53.9312 507.433 51.2312V41.7531H505.126V39.7281H507.433V36.0719H509.879V39.7281H513.086ZM522.593 55V34.6375H529.512C534.279 34.6375 536.459 37.4781 536.459 41.1062C536.459 44.7203 534.279 47.6031 529.54 47.6031H525.124V55H522.593ZM525.124 45.3531H529.427C532.676 45.3531 533.941 43.525 533.956 41.1062C533.941 38.6734 532.676 36.8875 529.399 36.8875H525.124V45.3531ZM545.192 55.3094C541.03 55.3234 538.217 52.1734 538.217 47.4344C538.217 42.6672 541.03 39.5312 545.192 39.5312C549.34 39.5312 552.125 42.6672 552.111 47.4344C552.125 52.1734 549.34 55.3234 545.192 55.3094ZM540.636 47.4344C540.65 50.4859 542.084 53.1719 545.192 53.1719C548.272 53.1719 549.692 50.4859 549.692 47.4344C549.692 44.3969 548.272 41.6687 545.192 41.6687C542.084 41.6687 540.65 44.3969 540.636 47.4344ZM563.207 43.6937C562.869 42.4281 561.899 41.5984 560.113 41.5844C558.229 41.5984 556.893 42.6109 556.879 43.8906C556.893 44.9031 557.708 45.5922 559.494 46.0281L561.772 46.5906C564.5 47.2375 565.836 48.6016 565.85 50.725C565.836 53.3687 563.685 55.3234 559.86 55.3094C556.429 55.3234 554.389 53.7906 553.982 51.0062H556.513C556.794 52.4969 557.877 53.2141 559.804 53.2C561.983 53.2141 563.347 52.3 563.347 50.8656C563.347 49.7828 562.574 49.0797 560.844 48.6719L558.538 48.1375C555.88 47.5187 554.46 46.0703 554.46 44.0312C554.46 41.4156 556.752 39.5312 560.113 39.5312C563.277 39.5312 565.26 41.2187 565.569 43.6937H563.207ZM568.424 55V39.7281H570.843V55H568.424ZM567.946 35.5937C567.932 34.6937 568.706 33.9766 569.634 33.9906C570.562 33.9766 571.335 34.6937 571.349 35.5937C571.335 36.4797 570.562 37.1969 569.634 37.1969C568.706 37.1969 567.932 36.4797 567.946 35.5937ZM580.786 39.7281V41.7531H577.58V50.6125C577.566 52.5672 578.55 52.8906 579.577 52.8906C580.012 52.8906 580.659 52.8484 581.011 52.8344V55.0844C580.631 55.1406 580.041 55.1969 579.323 55.1969C577.284 55.1969 575.147 53.9312 575.133 51.2312V41.7531H572.827V39.7281H575.133V36.0719H577.58V39.7281H580.786ZM583.332 55V39.7281H585.751V55H583.332ZM582.854 35.5937C582.84 34.6937 583.613 33.9766 584.541 33.9906C585.469 33.9766 586.243 34.6937 586.257 35.5937C586.243 36.4797 585.469 37.1969 584.541 37.1969C583.613 37.1969 582.84 36.4797 582.854 35.5937ZM595.271 55.3094C591.109 55.3234 588.296 52.1734 588.296 47.4344C588.296 42.6672 591.109 39.5312 595.271 39.5312C599.42 39.5312 602.204 42.6672 602.19 47.4344C602.204 52.1734 599.42 55.3234 595.271 55.3094ZM590.715 47.4344C590.729 50.4859 592.164 53.1719 595.271 53.1719C598.351 53.1719 599.771 50.4859 599.771 47.4344C599.771 44.3969 598.351 41.6687 595.271 41.6687C592.164 41.6687 590.729 44.3969 590.715 47.4344ZM607.211 45.8312V55H604.792V39.7281H607.127V42.1187H607.324C608.041 40.5578 609.475 39.5312 611.795 39.5312C614.889 39.5312 616.956 41.4156 616.942 45.2969V55H614.524V45.4656C614.524 43.1031 613.23 41.6969 611.064 41.6969C608.842 41.6969 607.211 43.1875 607.211 45.8312ZM634.522 37C634.522 40.4875 637.053 43.7781 640.709 45.1L639.472 46.8156C636.729 45.7328 634.536 43.5672 633.467 40.8391C632.412 43.8625 630.134 46.2531 627.181 47.4344L626 45.6344C629.754 44.2562 632.342 40.7547 632.356 36.9156V33.8219H634.522V37ZM630.528 56.7438V48.8969H632.75V54.8875H647.262V56.7438H630.528ZM638.909 40.0375V38.1812H644.478V32.3031H646.7V51.0344H644.478V40.0375H638.909ZM671.014 32.275V47.1812H668.792V40.6281H663.758V38.8H668.792V32.275H671.014ZM650.399 45.1844C654.111 43.8484 656.755 40.4594 656.755 36.8875V35.9594H651.102V34.1031H664.574V35.9594H658.977V36.8594C658.977 40.1219 661.48 43.2297 665.136 44.4812L663.983 46.2531C661.185 45.2406 659.005 43.1312 657.922 40.5578C656.853 43.4828 654.533 45.8172 651.552 46.9562L650.399 45.1844ZM654.336 52.6094C654.322 49.6703 657.514 47.9547 662.717 47.9687C667.906 47.9547 671.099 49.6703 671.099 52.6094C671.099 55.5625 667.906 57.25 662.717 57.2781C657.514 57.25 654.322 55.5625 654.336 52.6094ZM656.53 52.6094C656.516 54.4234 658.878 55.5203 662.717 55.5063C666.542 55.5203 668.905 54.4234 668.905 52.6094C668.905 50.7812 666.542 49.6844 662.717 49.6844C658.878 49.6844 656.516 50.7812 656.53 52.6094Z" fill="#7737FF"/>
<path d="M700.326 50.3524C701.522 51.7254 703.655 51.7254 704.851 50.3524L713.849 40.0204C715.539 38.0792 714.16 35.0502 711.586 35.0502H693.591C691.017 35.0502 689.638 38.0792 691.328 40.0204L700.326 50.3524Z" fill="#7737FF"/>
<rect y="10" width="68" height="68" rx="16" fill="#7737FF"/>
<path d="M28.9656 40.2344C28.7828 38.4766 27.3063 37.4641 25.1125 37.4781C22.7922 37.4641 21.4141 38.5891 21.4 40.1219C21.3859 41.8375 23.2 42.5406 24.8875 42.9344L26.8 43.4406C29.8375 44.1437 32.7625 45.7469 32.7625 49.2906C32.7625 52.8625 29.9359 55.3094 25.0563 55.3094C20.3172 55.3094 17.3078 53.0312 17.1531 49.0094H20.7531C20.9219 51.1328 22.7078 52.1734 25.0281 52.1875C27.4328 52.1734 29.0922 51.0062 29.1063 49.2625C29.0922 47.6594 27.6297 46.9844 25.4219 46.4219L23.1156 45.8312C19.7688 44.9594 17.6875 43.2719 17.6875 40.3469C17.6875 36.7469 20.8797 34.3562 25.1688 34.3562C29.4859 34.3562 32.425 36.7891 32.4813 40.2344H28.9656ZM34.6615 51.2031V48.2781L43.4646 34.6375H48.0209V48.1937H50.6928V51.2031H48.0209V55H44.5334V51.2031H34.6615ZM38.4021 48.1937H44.5896V38.8H44.3646L38.4021 48.0531V48.1937Z" fill="white"/>
</svg>
