<svg width="595" height="88" viewBox="0 0 595 88" fill="none" xmlns="http://www.w3.org/2000/svg">
<rect x="68" width="526.177" height="88" rx="24" fill="white" fill-opacity="0.1"/>
<path d="M122.019 45.325V47.8562H98.8438V45.325H108.828V43.075C104.173 42.7375 101.234 40.8812 101.234 37.9281C101.234 34.7359 104.848 32.7812 110.403 32.7812C115.944 32.7812 119.558 34.7359 119.572 37.9281C119.558 40.8812 116.619 42.7375 111.978 43.075V45.325H122.019ZM101.713 56.9969V49.6H104.834V54.4656H119.403V56.9969H101.713ZM104.497 37.9281C104.469 39.6859 106.705 40.6141 110.403 40.6C114.116 40.6141 116.338 39.6859 116.338 37.9281C116.338 36.2547 114.116 35.2703 110.403 35.2562C106.705 35.2703 104.469 36.2547 104.497 37.9281ZM143.802 43.6375V46.1125H136.265V51.9344H146.39V54.4937H123.158V51.9344H133.171V46.1125H125.971V33.9625H143.605V36.4656H129.093V43.6375H143.802ZM176.906 44.7625V47.2656H153.731V44.7625H176.906ZM154.828 41.275C160.158 40.9094 163.153 39.1375 163.505 36.9719H156.01V34.525H163.744V32.1344H166.838V34.525H174.628V36.9719H167.063C167.4 39.1375 170.395 40.9094 175.753 41.275L174.769 43.6656C170.227 43.2859 166.866 41.8797 165.291 39.6719C163.688 41.8797 160.327 43.2859 155.813 43.6656L154.828 41.275ZM156.291 51.9344V49.4594H174.066V57.5031H170.944V51.9344H156.291ZM199.337 32.0781V47.1812H196.215V40.9656H191.884V38.4062H196.215V32.0781H199.337ZM177.962 44.65C182.054 43.2437 184.205 39.8266 184.205 36.4656V36.2687H178.918V33.7375H192.643V36.2687H187.384V36.4375C187.384 39.5312 189.437 42.6531 193.374 43.975L191.799 46.45C188.973 45.4937 186.976 43.5531 185.851 41.1625C184.74 43.8625 182.616 46.0562 179.593 47.125L177.962 44.65ZM182.096 52.6656C182.068 49.6141 185.373 47.8281 190.73 47.8281C196.116 47.8281 199.407 49.6141 199.421 52.6656C199.407 55.7172 196.116 57.4891 190.73 57.5031C185.373 57.4891 182.068 55.7172 182.096 52.6656ZM185.19 52.6656C185.176 54.2406 187.201 55.0984 190.73 55.0844C194.288 55.0984 196.299 54.2406 196.299 52.6656C196.299 51.0766 194.288 50.2187 190.73 50.2187C187.201 50.2187 185.176 51.0766 185.19 52.6656ZM213.92 32.725C219.475 32.725 222.737 34.2578 222.751 37.0281C222.737 39.8687 219.475 41.4016 213.92 41.4156C208.337 41.4016 205.061 39.8687 205.061 37.0281C205.061 34.2578 208.337 32.725 213.92 32.725ZM202.529 44.9031V43.1031H225.311V44.9031H202.529ZM205.286 48.7562V47.0687H222.386V52.6656H207.536V55.2531H223.145V56.9969H205.342V51.0344H220.22V48.7562H205.286ZM207.367 37.0281C207.339 38.7719 209.772 39.7281 213.92 39.7281C218.068 39.7281 220.487 38.7719 220.501 37.0281C220.487 35.3828 218.068 34.3984 213.92 34.3844C209.772 34.3984 207.339 35.3828 207.367 37.0281ZM256.277 45.55V47.35H233.468V45.55H243.762V43.075H236.506V33.0062H253.437V34.8062H238.727V37.1406H252.762V38.8281H238.727V41.3031H253.577V43.075H245.956V45.55H256.277ZM236.252 53.2281C236.238 50.6266 239.346 49.2062 244.887 49.2344C250.371 49.2062 253.465 50.6266 253.493 53.2281C253.465 55.8578 250.371 57.2219 244.887 57.2219C239.346 57.2219 236.238 55.8578 236.252 53.2281ZM238.474 53.2281C238.446 54.7469 240.752 55.5344 244.887 55.5063C248.979 55.5344 251.257 54.7469 251.271 53.2281C251.257 51.7375 248.979 50.9078 244.887 50.8937C240.752 50.9078 238.446 51.7375 238.474 53.2281ZM277.358 32.3031V40.5437H281.126V42.4H277.358V51.0344H275.164V32.3031H277.358ZM257.867 37.1687V35.3687H264.223V32.3031H266.417V35.3687H272.773V37.1687H257.867ZM259.301 43.2156C259.287 40.375 261.706 38.5469 265.32 38.5469C268.892 38.5469 271.311 40.375 271.339 43.2156C271.311 46.0281 268.892 47.8422 265.32 47.8281C261.706 47.8422 259.287 46.0281 259.301 43.2156ZM261.411 43.2156C261.397 44.9734 262.958 46.1125 265.32 46.0844C267.655 46.1125 269.23 44.9734 269.258 43.2156C269.23 41.4297 267.655 40.2766 265.32 40.2906C262.958 40.2766 261.397 41.4297 261.411 43.2156ZM261.72 56.7438V49.5437H263.886V54.8875H278.511V56.7438H261.72ZM293.784 55L288.215 34.6375H290.774L295.021 51.1187H295.218L299.521 34.6375H302.362L306.693 51.1187H306.862L311.109 34.6375H313.668L308.099 55H305.484L301.04 38.8844H300.871L296.399 55H293.784ZM320.264 55.3094C316.102 55.3234 313.289 52.1734 313.289 47.4344C313.289 42.6672 316.102 39.5312 320.264 39.5312C324.412 39.5312 327.197 42.6672 327.183 47.4344C327.197 52.1734 324.412 55.3234 320.264 55.3094ZM315.708 47.4344C315.722 50.4859 317.156 53.1719 320.264 53.1719C323.344 53.1719 324.764 50.4859 324.764 47.4344C324.764 44.3969 323.344 41.6687 320.264 41.6687C317.156 41.6687 315.722 44.3969 315.708 47.4344ZM329.785 55V39.7281H332.119V42.0625H332.288C332.836 40.5156 334.426 39.4891 336.226 39.475C336.591 39.4891 337.21 39.5031 337.491 39.5312V41.9781C337.308 41.9359 336.661 41.8094 336.029 41.8094C333.835 41.8094 332.204 43.3281 332.204 45.3812V55H329.785ZM347.771 43.6937C347.434 42.4281 346.464 41.5984 344.678 41.5844C342.793 41.5984 341.457 42.6109 341.443 43.8906C341.457 44.9031 342.273 45.5922 344.059 46.0281L346.337 46.5906C349.065 47.2375 350.401 48.6016 350.415 50.725C350.401 53.3687 348.25 55.3234 344.425 55.3094C340.993 55.3234 338.954 53.7906 338.546 51.0062H341.078C341.359 52.4969 342.442 53.2141 344.368 53.2C346.548 53.2141 347.912 52.3 347.912 50.8656C347.912 49.7828 347.139 49.0797 345.409 48.6719L343.103 48.1375C340.445 47.5187 339.025 46.0703 339.025 44.0312C339.025 41.4156 341.317 39.5312 344.678 39.5312C347.842 39.5312 349.825 41.2187 350.134 43.6937H347.771ZM359.655 39.7281V41.7531H356.449V50.6125C356.434 52.5672 357.419 52.8906 358.445 52.8906C358.881 52.8906 359.528 52.8484 359.88 52.8344V55.0844C359.5 55.1406 358.909 55.1969 358.192 55.1969C356.153 55.1969 354.016 53.9312 354.002 51.2312V41.7531H351.695V39.7281H354.002V36.0719H356.449V39.7281H359.655ZM369.162 55V34.6375H376.081C380.848 34.6375 383.028 37.4781 383.028 41.1062C383.028 44.7203 380.848 47.6031 376.109 47.6031H371.693V55H369.162ZM371.693 45.3531H375.997C379.245 45.3531 380.511 43.525 380.525 41.1062C380.511 38.6734 379.245 36.8875 375.968 36.8875H371.693V45.3531ZM391.761 55.3094C387.599 55.3234 384.786 52.1734 384.786 47.4344C384.786 42.6672 387.599 39.5312 391.761 39.5312C395.91 39.5312 398.694 42.6672 398.68 47.4344C398.694 52.1734 395.91 55.3234 391.761 55.3094ZM387.205 47.4344C387.219 50.4859 388.653 53.1719 391.761 53.1719C394.841 53.1719 396.261 50.4859 396.261 47.4344C396.261 44.3969 394.841 41.6687 391.761 41.6687C388.653 41.6687 387.219 44.3969 387.205 47.4344ZM409.776 43.6937C409.438 42.4281 408.468 41.5984 406.682 41.5844C404.798 41.5984 403.462 42.6109 403.448 43.8906C403.462 44.9031 404.277 45.5922 406.063 46.0281L408.341 46.5906C411.07 47.2375 412.405 48.6016 412.42 50.725C412.405 53.3687 410.254 55.3234 406.429 55.3094C402.998 55.3234 400.959 53.7906 400.551 51.0062H403.082C403.363 52.4969 404.446 53.2141 406.373 53.2C408.552 53.2141 409.916 52.3 409.916 50.8656C409.916 49.7828 409.143 49.0797 407.413 48.6719L405.107 48.1375C402.449 47.5187 401.029 46.0703 401.029 44.0312C401.029 41.4156 403.321 39.5312 406.682 39.5312C409.846 39.5312 411.829 41.2187 412.138 43.6937H409.776ZM414.994 55V39.7281H417.412V55H414.994ZM414.515 35.5937C414.501 34.6937 415.275 33.9766 416.203 33.9906C417.131 33.9766 417.904 34.6937 417.919 35.5937C417.904 36.4797 417.131 37.1969 416.203 37.1969C415.275 37.1969 414.501 36.4797 414.515 35.5937ZM427.355 39.7281V41.7531H424.149V50.6125C424.135 52.5672 425.119 52.8906 426.146 52.8906C426.582 52.8906 427.228 52.8484 427.58 52.8344V55.0844C427.2 55.1406 426.61 55.1969 425.893 55.1969C423.853 55.1969 421.716 53.9312 421.702 51.2312V41.7531H419.396V39.7281H421.702V36.0719H424.149V39.7281H427.355ZM429.901 55V39.7281H432.32V55H429.901ZM429.423 35.5937C429.409 34.6937 430.182 33.9766 431.11 33.9906C432.038 33.9766 432.812 34.6937 432.826 35.5937C432.812 36.4797 432.038 37.1969 431.11 37.1969C430.182 37.1969 429.409 36.4797 429.423 35.5937ZM441.841 55.3094C437.678 55.3234 434.866 52.1734 434.866 47.4344C434.866 42.6672 437.678 39.5312 441.841 39.5312C445.989 39.5312 448.773 42.6672 448.759 47.4344C448.773 52.1734 445.989 55.3234 441.841 55.3094ZM437.284 47.4344C437.298 50.4859 438.733 53.1719 441.841 53.1719C444.92 53.1719 446.341 50.4859 446.341 47.4344C446.341 44.3969 444.92 41.6687 441.841 41.6687C438.733 41.6687 437.298 44.3969 437.284 47.4344ZM453.78 45.8312V55H451.361V39.7281H453.696V42.1187H453.893C454.61 40.5578 456.044 39.5312 458.365 39.5312C461.458 39.5312 463.525 41.4156 463.511 45.2969V55H461.093V45.4656C461.093 43.1031 459.799 41.6969 457.633 41.6969C455.411 41.6969 453.78 43.1875 453.78 45.8312ZM481.091 37C481.091 40.4875 483.622 43.7781 487.278 45.1L486.041 46.8156C483.298 45.7328 481.105 43.5672 480.036 40.8391C478.981 43.8625 476.703 46.2531 473.75 47.4344L472.569 45.6344C476.323 44.2562 478.911 40.7547 478.925 36.9156V33.8219H481.091V37ZM477.097 56.7438V48.8969H479.319V54.8875H493.831V56.7438H477.097ZM485.478 40.0375V38.1812H491.047V32.3031H493.269V51.0344H491.047V40.0375H485.478ZM517.583 32.275V47.1812H515.362V40.6281H510.327V38.8H515.362V32.275H517.583ZM496.968 45.1844C500.68 43.8484 503.324 40.4594 503.324 36.8875V35.9594H497.671V34.1031H511.143V35.9594H505.546V36.8594C505.546 40.1219 508.049 43.2297 511.705 44.4812L510.552 46.2531C507.754 45.2406 505.574 43.1312 504.491 40.5578C503.422 43.4828 501.102 45.8172 498.121 46.9562L496.968 45.1844ZM500.905 52.6094C500.891 49.6703 504.083 47.9547 509.287 47.9687C514.476 47.9547 517.668 49.6703 517.668 52.6094C517.668 55.5625 514.476 57.25 509.287 57.2781C504.083 57.25 500.891 55.5625 500.905 52.6094ZM503.099 52.6094C503.085 54.4234 505.447 55.5203 509.287 55.5063C513.112 55.5203 515.474 54.4234 515.474 52.6094C515.474 50.7812 513.112 49.6844 509.287 49.6844C505.447 49.6844 503.085 50.7812 503.099 52.6094Z" fill="#7737FF"/>
<path d="M546.326 50.3524C547.522 51.7254 549.655 51.7254 550.851 50.3524L559.849 40.0204C561.539 38.0792 560.16 35.0502 557.586 35.0502H539.591C537.017 35.0502 535.638 38.0792 537.328 40.0204L546.326 50.3524Z" fill="#7737FF"/>
<rect y="10" width="68" height="68" rx="16" fill="#7737FF"/>
<path d="M29.4656 40.2344C29.2828 38.4766 27.8063 37.4641 25.6125 37.4781C23.2922 37.4641 21.9141 38.5891 21.9 40.1219C21.8859 41.8375 23.7 42.5406 25.3875 42.9344L27.3 43.4406C30.3375 44.1437 33.2625 45.7469 33.2625 49.2906C33.2625 52.8625 30.4359 55.3094 25.5563 55.3094C20.8172 55.3094 17.8078 53.0312 17.6531 49.0094H21.2531C21.4219 51.1328 23.2078 52.1734 25.5281 52.1875C27.9328 52.1734 29.5922 51.0062 29.6063 49.2625C29.5922 47.6594 28.1297 46.9844 25.9219 46.4219L23.6156 45.8312C20.2688 44.9594 18.1875 43.2719 18.1875 40.3469C18.1875 36.7469 21.3797 34.3562 25.6688 34.3562C29.9859 34.3562 32.925 36.7891 32.9813 40.2344H29.4656ZM35.5271 55V52.3562L42.7271 45.4094C44.7803 43.3562 45.849 42.1469 45.849 40.4312C45.849 38.5328 44.3443 37.3375 42.3615 37.3375C40.2662 37.3375 38.9162 38.6453 38.9303 40.7125H35.4428C35.4287 36.8594 38.3256 34.3562 42.3896 34.3562C46.5521 34.3562 49.3506 36.8453 49.3646 40.2625C49.3506 42.5547 48.2537 44.4109 44.2459 48.1937L40.6178 51.7937V51.9344H49.674V55H35.5271Z" fill="white"/>
</svg>
