<svg width="746" height="88" viewBox="0 0 746 88" fill="none" xmlns="http://www.w3.org/2000/svg">
<rect x="68" width="677.177" height="88" rx="24" fill="white" fill-opacity="0.1"/>
<path d="M113.609 41.5C113.173 39.0531 111.219 37.6469 108.744 37.6469C105.411 37.6469 103.048 40.2062 103.063 44.8187C103.048 49.5016 105.425 51.9906 108.744 51.9906C111.163 51.9906 113.117 50.6406 113.609 48.25H117.294C116.731 52.1594 113.511 55.2813 108.688 55.2813C103.316 55.2813 99.3641 51.3859 99.3781 44.8187C99.3641 38.2375 103.358 34.3562 108.688 34.3562C113.188 34.3562 116.661 36.9719 117.294 41.5H113.609ZM123.299 46.0562V55H119.699V34.6375H123.215V42.3156H123.412C124.101 40.5859 125.591 39.5312 127.94 39.5312C131.104 39.5312 133.199 41.5844 133.199 45.2687V55H129.627V45.8312C129.613 43.75 128.502 42.5547 126.618 42.5687C124.677 42.5547 123.299 43.8344 123.299 46.0562ZM142.804 55.3094C138.206 55.3094 135.379 52.2437 135.379 47.4625C135.379 42.7375 138.248 39.5312 142.607 39.5312C146.348 39.5312 149.582 41.8797 149.582 47.2375V48.3625H138.923C138.979 50.9641 140.512 52.5109 142.832 52.4969C144.407 52.5109 145.462 51.8359 145.926 50.9219H149.442C148.795 53.5656 146.348 55.3094 142.804 55.3094ZM138.937 45.9156H146.151C146.137 43.8344 144.731 42.3156 142.664 42.3156C140.512 42.3156 139.064 43.975 138.937 45.9156ZM151.791 55V39.7281H155.222V42.3156H155.419C156.052 40.5719 157.585 39.5312 159.61 39.5312C161.677 39.5312 163.167 40.5859 163.744 42.3156H163.913C164.574 40.6281 166.275 39.5312 168.497 39.5312C171.295 39.5312 173.264 41.3312 173.25 44.7344V55H169.678V45.2969C169.678 43.3984 168.525 42.5406 167.063 42.5406C165.305 42.5406 164.278 43.7359 164.278 45.4656V55H160.791V45.1562C160.777 43.5672 159.736 42.5406 158.203 42.5406C156.656 42.5406 155.391 43.8203 155.391 45.7187V55H151.791ZM176.105 55V39.7281H179.705V55H176.105ZM175.852 35.5937C175.852 34.525 176.794 33.6531 177.934 33.6531C179.073 33.6531 180.015 34.525 180.015 35.5937C180.015 36.6766 179.073 37.5484 177.934 37.5625C176.794 37.5484 175.852 36.6766 175.852 35.5937ZM189.226 55.3094C184.67 55.3094 181.914 52.0469 181.914 47.4344C181.914 42.7516 184.754 39.5312 189.226 39.5312C192.925 39.5312 195.526 41.6969 195.779 44.9875H192.348C192.067 43.525 190.998 42.4141 189.254 42.4C187.033 42.4141 185.542 44.2703 185.542 47.35C185.542 50.5 187.004 52.3703 189.254 52.3844C190.843 52.3703 192.025 51.4422 192.348 49.7969H195.779C195.512 53.0172 193.065 55.3094 189.226 55.3094ZM197.2 50.6969C197.2 47.2656 200.055 46.2672 202.882 46.0844C203.95 46 206.13 45.9016 206.805 45.8734L206.791 44.65C206.791 43.1312 205.821 42.2594 204.035 42.2594C202.432 42.2594 201.447 42.9906 201.166 44.0875H197.707C197.96 41.4859 200.294 39.5312 204.119 39.5312C207.016 39.5312 210.363 40.7266 210.363 44.7906V55H206.932V52.8906H206.819C206.144 54.1844 204.724 55.3094 202.319 55.3094C199.408 55.3094 197.2 53.7203 197.2 50.6969ZM200.66 50.6687C200.66 51.9906 201.742 52.6656 203.247 52.6656C205.427 52.6656 206.819 51.2312 206.819 49.5156L206.805 48.2641C206.158 48.2922 204.161 48.4187 203.444 48.475C201.742 48.6156 200.66 49.3328 200.66 50.6687ZM216.762 34.6375V55H213.162V34.6375H216.762ZM229.7 34.6375V55H226.044V34.6375H229.7ZM236.353 46.0562V55H232.753V39.7281H236.184V42.3156H236.381C237.07 40.6141 238.631 39.5312 240.909 39.5312C244.073 39.5312 246.154 41.6125 246.14 45.2687V55H242.568V45.8312C242.568 43.7781 241.457 42.5547 239.587 42.5687C237.688 42.5547 236.353 43.8344 236.353 46.0562ZM254.677 55.2813C251.091 55.2672 248.377 52.3984 248.377 47.3781C248.377 42.2875 251.161 39.5312 254.705 39.5312C257.391 39.5312 258.516 41.1484 259.064 42.2312H259.205V34.6375H262.777V55H259.261V52.5812H259.064C258.487 53.7062 257.32 55.2672 254.677 55.2813ZM252.033 47.35C252.033 50.2328 253.298 52.3281 255.661 52.3281C257.981 52.3281 259.289 50.3312 259.289 47.35C259.289 44.3828 257.995 42.4703 255.661 42.4562C253.27 42.4703 252.033 44.5094 252.033 47.35ZM265.829 55V39.7281H269.429V55H265.829ZM265.576 35.5937C265.576 34.525 266.518 33.6531 267.657 33.6531C268.796 33.6531 269.738 34.525 269.738 35.5937C269.738 36.6766 268.796 37.5484 267.657 37.5625C266.518 37.5484 265.576 36.6766 265.576 35.5937ZM278.95 55.3094C274.393 55.3094 271.637 52.0469 271.637 47.4344C271.637 42.7516 274.478 39.5312 278.95 39.5312C282.648 39.5312 285.25 41.6969 285.503 44.9875H282.071C281.79 43.525 280.721 42.4141 278.978 42.4C276.756 42.4141 275.265 44.2703 275.265 47.35C275.265 50.5 276.728 52.3703 278.978 52.3844C280.567 52.3703 281.748 51.4422 282.071 49.7969H285.503C285.235 53.0172 282.789 55.3094 278.95 55.3094ZM286.924 50.6969C286.924 47.2656 289.778 46.2672 292.605 46.0844C293.674 46 295.853 45.9016 296.528 45.8734L296.514 44.65C296.514 43.1312 295.544 42.2594 293.758 42.2594C292.155 42.2594 291.17 42.9906 290.889 44.0875H287.43C287.683 41.4859 290.017 39.5312 293.842 39.5312C296.739 39.5312 300.086 40.7266 300.086 44.7906V55H296.655V52.8906H296.542C295.867 54.1844 294.447 55.3094 292.042 55.3094C289.131 55.3094 286.924 53.7203 286.924 50.6969ZM290.383 50.6687C290.383 51.9906 291.466 52.6656 292.97 52.6656C295.15 52.6656 296.542 51.2312 296.542 49.5156L296.528 48.2641C295.881 48.2922 293.884 48.4187 293.167 48.475C291.466 48.6156 290.383 49.3328 290.383 50.6687ZM310.507 39.7281V42.4844H307.498V50.4156C307.498 51.8781 308.229 52.1734 309.129 52.1875C309.551 52.2016 310.254 52.1594 310.704 52.1312V55.0563C310.282 55.1266 309.593 55.2109 308.679 55.1969C305.979 55.2109 303.898 53.875 303.926 51.0062V42.4844H301.732V39.7281H303.926V36.0719H307.498V39.7281H310.507ZM319.184 55.3094C314.726 55.3094 311.872 52.1453 311.872 47.4344C311.872 42.6812 314.726 39.5312 319.184 39.5312C323.656 39.5312 326.511 42.6812 326.497 47.4344C326.511 52.1453 323.656 55.3094 319.184 55.3094ZM315.5 47.4062C315.5 50.2047 316.723 52.4406 319.212 52.4406C321.659 52.4406 322.882 50.2047 322.868 47.4062C322.882 44.6078 321.659 42.3578 319.212 42.3719C316.723 42.3578 315.5 44.6078 315.5 47.4062ZM328.705 55V39.7281H332.192V42.2594H332.361C332.91 40.5016 334.372 39.5031 336.13 39.5031C336.524 39.5031 337.086 39.5453 337.424 39.5875V42.9062C337.1 42.7937 336.355 42.6953 335.764 42.6812C333.767 42.6953 332.305 44.0734 332.305 46V55H328.705ZM347.648 44.0875C347.423 42.9344 346.466 42.1891 344.948 42.2031C343.415 42.1891 342.29 42.9625 342.304 44.0031C342.29 44.7906 342.923 45.3812 344.47 45.7469L347.057 46.2812C349.94 46.9141 351.346 48.25 351.36 50.4437C351.346 53.3125 348.829 55.3094 344.835 55.3094C340.954 55.3094 338.662 53.5656 338.282 50.6406H341.938C342.149 51.9484 343.162 52.5953 344.835 52.5812C346.565 52.5953 347.69 51.8922 347.704 50.7531C347.69 49.8672 347.001 49.3047 345.482 48.9812L343.035 48.4469C340.195 47.8703 338.718 46.3797 338.732 44.2C338.718 41.3734 341.165 39.5312 344.891 39.5312C348.534 39.5312 350.784 41.3172 351.051 44.0875H347.648ZM375.675 43.8906V45.6344H352.781V43.8906H375.675ZM355.537 49.2906V47.6312H372.806V52.9469H357.787V55.3375H373.622V56.9406H355.565V51.4281H370.612V49.2906H355.537ZM355.678 34.6375V33.0344H372.722V38.2094H357.956V40.4031H373.172V42.0062H355.762V36.6906H370.5V34.6375H355.678ZM406.557 45.55V47.35H383.748V45.55H394.042V43.075H386.785V33.0062H403.717V34.8062H389.007V37.1406H403.042V38.8281H389.007V41.3031H403.857V43.075H396.235V45.55H406.557ZM386.532 53.2281C386.518 50.6266 389.626 49.2062 395.167 49.2344C400.651 49.2062 403.745 50.6266 403.773 53.2281C403.745 55.8578 400.651 57.2219 395.167 57.2219C389.626 57.2219 386.518 55.8578 386.532 53.2281ZM388.754 53.2281C388.726 54.7469 391.032 55.5344 395.167 55.5063C399.259 55.5344 401.537 54.7469 401.551 53.2281C401.537 51.7375 399.259 50.9078 395.167 50.8937C391.032 50.9078 388.726 51.7375 388.754 53.2281ZM427.637 32.3031V40.5437H431.406V42.4H427.637V51.0344H425.444V32.3031H427.637ZM408.147 37.1687V35.3687H414.503V32.3031H416.697V35.3687H423.053V37.1687H408.147ZM409.581 43.2156C409.567 40.375 411.986 38.5469 415.6 38.5469C419.172 38.5469 421.591 40.375 421.619 43.2156C421.591 46.0281 419.172 47.8422 415.6 47.8281C411.986 47.8422 409.567 46.0281 409.581 43.2156ZM411.691 43.2156C411.676 44.9734 413.237 46.1125 415.6 46.0844C417.934 46.1125 419.509 44.9734 419.537 43.2156C419.509 41.4297 417.934 40.2766 415.6 40.2906C413.237 40.2766 411.676 41.4297 411.691 43.2156ZM412 56.7438V49.5437H414.166V54.8875H428.791V56.7438H412ZM444.064 55L438.495 34.6375H441.054L445.301 51.1187H445.498L449.801 34.6375H452.642L456.973 51.1187H457.142L461.389 34.6375H463.948L458.379 55H455.764L451.32 38.8844H451.151L446.679 55H444.064ZM470.544 55.3094C466.381 55.3234 463.569 52.1734 463.569 47.4344C463.569 42.6672 466.381 39.5312 470.544 39.5312C474.692 39.5312 477.477 42.6672 477.463 47.4344C477.477 52.1734 474.692 55.3234 470.544 55.3094ZM465.988 47.4344C466.002 50.4859 467.436 53.1719 470.544 53.1719C473.623 53.1719 475.044 50.4859 475.044 47.4344C475.044 44.3969 473.623 41.6687 470.544 41.6687C467.436 41.6687 466.002 44.3969 465.988 47.4344ZM480.065 55V39.7281H482.399V42.0625H482.568C483.116 40.5156 484.705 39.4891 486.505 39.475C486.871 39.4891 487.49 39.5031 487.771 39.5312V41.9781C487.588 41.9359 486.941 41.8094 486.308 41.8094C484.115 41.8094 482.483 43.3281 482.483 45.3812V55H480.065ZM498.051 43.6937C497.714 42.4281 496.743 41.5984 494.957 41.5844C493.073 41.5984 491.737 42.6109 491.723 43.8906C491.737 44.9031 492.553 45.5922 494.339 46.0281L496.617 46.5906C499.345 47.2375 500.681 48.6016 500.695 50.725C500.681 53.3687 498.529 55.3234 494.704 55.3094C491.273 55.3234 489.234 53.7906 488.826 51.0062H491.357C491.639 52.4969 492.721 53.2141 494.648 53.2C496.828 53.2141 498.192 52.3 498.192 50.8656C498.192 49.7828 497.418 49.0797 495.689 48.6719L493.382 48.1375C490.725 47.5187 489.304 46.0703 489.304 44.0312C489.304 41.4156 491.596 39.5312 494.957 39.5312C498.121 39.5312 500.104 41.2187 500.414 43.6937H498.051ZM509.935 39.7281V41.7531H506.728V50.6125C506.714 52.5672 507.699 52.8906 508.725 52.8906C509.161 52.8906 509.808 52.8484 510.16 52.8344V55.0844C509.78 55.1406 509.189 55.1969 508.472 55.1969C506.433 55.1969 504.295 53.9312 504.281 51.2312V41.7531H501.975V39.7281H504.281V36.0719H506.728V39.7281H509.935ZM519.442 55V34.6375H526.361C531.128 34.6375 533.308 37.4781 533.308 41.1062C533.308 44.7203 531.128 47.6031 526.389 47.6031H521.973V55H519.442ZM521.973 45.3531H526.276C529.525 45.3531 530.79 43.525 530.804 41.1062C530.79 38.6734 529.525 36.8875 526.248 36.8875H521.973V45.3531ZM542.041 55.3094C537.878 55.3234 535.066 52.1734 535.066 47.4344C535.066 42.6672 537.878 39.5312 542.041 39.5312C546.189 39.5312 548.974 42.6672 548.96 47.4344C548.974 52.1734 546.189 55.3234 542.041 55.3094ZM537.485 47.4344C537.499 50.4859 538.933 53.1719 542.041 53.1719C545.121 53.1719 546.541 50.4859 546.541 47.4344C546.541 44.3969 545.121 41.6687 542.041 41.6687C538.933 41.6687 537.499 44.3969 537.485 47.4344ZM560.056 43.6937C559.718 42.4281 558.748 41.5984 556.962 41.5844C555.077 41.5984 553.741 42.6109 553.727 43.8906C553.741 44.9031 554.557 45.5922 556.343 46.0281L558.621 46.5906C561.349 47.2375 562.685 48.6016 562.699 50.725C562.685 53.3687 560.534 55.3234 556.709 55.3094C553.277 55.3234 551.238 53.7906 550.831 51.0062H553.362C553.643 52.4969 554.726 53.2141 556.652 53.2C558.832 53.2141 560.196 52.3 560.196 50.8656C560.196 49.7828 559.423 49.0797 557.693 48.6719L555.387 48.1375C552.729 47.5187 551.309 46.0703 551.309 44.0312C551.309 41.4156 553.601 39.5312 556.962 39.5312C560.126 39.5312 562.109 41.2187 562.418 43.6937H560.056ZM565.273 55V39.7281H567.692V55H565.273ZM564.795 35.5937C564.781 34.6937 565.555 33.9766 566.483 33.9906C567.411 33.9766 568.184 34.6937 568.198 35.5937C568.184 36.4797 567.411 37.1969 566.483 37.1969C565.555 37.1969 564.781 36.4797 564.795 35.5937ZM577.635 39.7281V41.7531H574.429V50.6125C574.414 52.5672 575.399 52.8906 576.425 52.8906C576.861 52.8906 577.508 52.8484 577.86 52.8344V55.0844C577.48 55.1406 576.889 55.1969 576.172 55.1969C574.133 55.1969 571.996 53.9312 571.982 51.2312V41.7531H569.675V39.7281H571.982V36.0719H574.429V39.7281H577.635ZM580.181 55V39.7281H582.599V55H580.181ZM579.703 35.5937C579.688 34.6937 580.462 33.9766 581.39 33.9906C582.318 33.9766 583.092 34.6937 583.106 35.5937C583.092 36.4797 582.318 37.1969 581.39 37.1969C580.462 37.1969 579.688 36.4797 579.703 35.5937ZM592.12 55.3094C587.958 55.3234 585.145 52.1734 585.145 47.4344C585.145 42.6672 587.958 39.5312 592.12 39.5312C596.269 39.5312 599.053 42.6672 599.039 47.4344C599.053 52.1734 596.269 55.3234 592.12 55.3094ZM587.564 47.4344C587.578 50.4859 589.012 53.1719 592.12 53.1719C595.2 53.1719 596.62 50.4859 596.62 47.4344C596.62 44.3969 595.2 41.6687 592.12 41.6687C589.012 41.6687 587.578 44.3969 587.564 47.4344ZM604.06 45.8312V55H601.641V39.7281H603.976V42.1187H604.172C604.89 40.5578 606.324 39.5312 608.644 39.5312C611.738 39.5312 613.805 41.4156 613.791 45.2969V55H611.372V45.4656C611.372 43.1031 610.079 41.6969 607.913 41.6969C605.691 41.6969 604.06 43.1875 604.06 45.8312ZM631.37 37C631.37 40.4875 633.902 43.7781 637.558 45.1L636.32 46.8156C633.578 45.7328 631.384 43.5672 630.316 40.8391C629.261 43.8625 626.983 46.2531 624.03 47.4344L622.849 45.6344C626.603 44.2562 629.191 40.7547 629.205 36.9156V33.8219H631.37V37ZM627.377 56.7438V48.8969H629.599V54.8875H644.111V56.7438H627.377ZM635.758 40.0375V38.1812H641.327V32.3031H643.549V51.0344H641.327V40.0375H635.758ZM667.863 32.275V47.1812H665.641V40.6281H660.607V38.8H665.641V32.275H667.863ZM647.247 45.1844C650.96 43.8484 653.604 40.4594 653.604 36.8875V35.9594H647.951V34.1031H661.422V35.9594H655.826V36.8594C655.826 40.1219 658.329 43.2297 661.985 44.4812L660.832 46.2531C658.033 45.2406 655.854 43.1312 654.771 40.5578C653.702 43.4828 651.382 45.8172 648.401 46.9562L647.247 45.1844ZM651.185 52.6094C651.171 49.6703 654.363 47.9547 659.566 47.9687C664.755 47.9547 667.947 49.6703 667.947 52.6094C667.947 55.5625 664.755 57.25 659.566 57.2781C654.363 57.25 651.171 55.5625 651.185 52.6094ZM653.379 52.6094C653.365 54.4234 655.727 55.5203 659.566 55.5063C663.391 55.5203 665.754 54.4234 665.754 52.6094C665.754 50.7812 663.391 49.6844 659.566 49.6844C655.727 49.6844 653.365 50.7812 653.379 52.6094Z" fill="#7737FF"/>
<path d="M697.326 50.3524C698.522 51.7254 700.655 51.7254 701.851 50.3524L710.849 40.0204C712.539 38.0792 711.16 35.0502 708.586 35.0502H690.591C688.017 35.0502 686.638 38.0792 688.328 40.0204L697.326 50.3524Z" fill="#7737FF"/>
<rect y="10" width="68" height="68" rx="16" fill="#7737FF"/>
<path d="M28.9656 40.2344C28.7828 38.4766 27.3063 37.4641 25.1125 37.4781C22.7922 37.4641 21.4141 38.5891 21.4 40.1219C21.3859 41.8375 23.2 42.5406 24.8875 42.9344L26.8 43.4406C29.8375 44.1437 32.7625 45.7469 32.7625 49.2906C32.7625 52.8625 29.9359 55.3094 25.0563 55.3094C20.3172 55.3094 17.3078 53.0312 17.1531 49.0094H20.7531C20.9219 51.1328 22.7078 52.1734 25.0281 52.1875C27.4328 52.1734 29.0922 51.0062 29.1063 49.2625C29.0922 47.6594 27.6297 46.9844 25.4219 46.4219L23.1156 45.8312C19.7688 44.9594 17.6875 43.2719 17.6875 40.3469C17.6875 36.7469 20.8797 34.3562 25.1688 34.3562C29.4859 34.3562 32.425 36.7891 32.4813 40.2344H28.9656ZM42.424 55.2813C38.0787 55.2813 34.9709 52.9187 34.8865 49.4875H38.5709C38.6693 51.1187 40.3006 52.2016 42.424 52.1875C44.6599 52.2016 46.2771 50.9641 46.2771 49.15C46.2771 47.3219 44.7021 46.0141 42.0584 46H40.2303V43.1875H42.0584C44.224 43.1875 45.7287 41.9781 45.7146 40.2062C45.7287 38.4906 44.4349 37.3375 42.4521 37.3375C40.5396 37.3375 38.8943 38.4062 38.824 40.1219H35.3084C35.3928 36.7047 38.5006 34.3562 42.4803 34.3562C46.6146 34.3562 49.2865 36.8875 49.2584 40.0094C49.2865 42.2875 47.7678 43.9328 45.5459 44.3969V44.5656C48.4146 44.9453 50.0459 46.7875 50.0178 49.3469C50.0459 52.7922 46.8256 55.2813 42.424 55.2813Z" fill="white"/>
</svg>
