<svg width="603" height="460" viewBox="0 0 603 460" fill="none" xmlns="http://www.w3.org/2000/svg">
<rect x="42.4785" y="357.137" width="560.026" height="56.242" fill="#F4F5FA"/>
<rect x="42.4775" y="244.652" width="560.026" height="56.242" fill="#F4F5FA"/>
<rect x="42.4775" y="19.6846" width="560.026" height="56.242" fill="#F4F5FA"/>
<rect x="42.4775" y="132.168" width="560.026" height="56.242" fill="#F4F5FA"/>
<path d="M45.3252 400.968H51.0188L56.7125 400.717L62.4061 400.467L67.872 400.216L73.5656 399.966L79.2593 399.715H84.9529L90.6466 399.465L96.3402 399.214L101.806 398.964L107.5 398.714L113.193 398.463L118.887 398.213H124.581L130.274 397.962L135.74 397.712L141.434 397.461L147.127 397.211H152.821L158.515 396.96L164.208 396.71H169.674L175.368 396.46L181.062 396.209H186.755L192.449 395.959L198.142 395.708H203.608L209.302 395.458L214.996 395.207H220.689L226.383 394.957L232.077 394.706H237.542H243.236L248.93 394.456L254.623 394.206H260.317H266.011L271.477 393.955L277.17 393.705H282.864H288.557L294.251 393.454H299.945L305.411 393.204H311.104L316.798 392.953H322.491L328.185 392.703H333.879H339.345L345.038 392.453H350.732L356.426 392.202H362.119H367.813L373.506 391.952L378.972 393.204L384.666 394.706L390.36 395.458L396.053 396.209L401.747 396.71L407.441 397.211L412.906 397.712L418.6 397.962L424.294 398.213L429.987 398.463L435.681 398.714L441.375 398.964L446.841 399.214H452.534L458.228 399.465H463.921L469.615 399.715H475.309H480.775L486.468 399.966H492.162H497.856L503.549 400.216H509.243H514.709H520.402H526.096L531.79 400.467H537.483H543.177H548.643H554.336L560.03 400.717H565.724H571.417H577.111H582.577H588.27H593.964H599.658" stroke="#FF5E98" stroke-width="2.39327" stroke-linecap="round" stroke-linejoin="round"/>
<path d="M45.3252 387.443H51.0188L56.7125 387.694L62.4061 387.944L67.872 388.696L73.5656 388.946L79.2593 390.449L84.9529 391.2L90.6466 392.703L96.3402 394.456H101.806L107.5 394.706H113.193H118.887L124.581 388.696L130.274 386.943H135.74L141.434 383.937L147.127 380.181L152.821 393.204L158.515 373.168L164.208 370.664L169.674 368.41L175.368 366.657L181.062 364.904L186.755 363.652L192.449 362.399L198.142 361.398L203.608 360.646L209.302 359.895L214.996 359.144L220.689 358.142L226.383 357.39L232.077 356.89L237.542 356.639H243.236H248.93H254.623H260.317H266.011H271.477H277.17H282.864H288.557H294.251H299.945H305.411H311.104H316.798H322.491H328.185H333.879H339.345H345.038H350.732H356.426L362.119 357.14L367.813 356.89H373.506H378.972H384.666H390.36L396.053 357.641L401.747 358.392L407.441 359.144L412.906 359.895L418.6 360.646L424.294 361.147L429.987 361.898L435.681 367.408L441.375 371.165L446.841 372.918L452.534 374.921L458.228 371.666L463.921 379.68L469.615 381.683L475.309 383.186L480.775 384.438L486.468 385.44L492.162 385.941L497.856 386.442L503.549 386.943L509.243 387.443H514.709L520.402 387.694L526.096 387.944L531.79 388.195H537.483H543.177H548.643H554.336L560.03 388.445H565.724L571.417 388.195H577.111H582.577H588.27H593.964H599.658" stroke="#7EDF88" stroke-width="2.39327" stroke-linecap="round" stroke-linejoin="round"/>
<path d="M45.3252 412.238H51.0188H56.7125H62.4061H67.872H73.5656H79.2593H84.9529H90.6466H96.3402H101.806H107.5H113.193H118.887L124.581 383.938L130.274 348.125L135.74 309.557L141.434 286.266L147.127 244.943L152.821 226.41L158.515 218.146L164.208 212.636L169.674 208.128L175.368 201.366L181.062 188.093L186.755 184.587L192.449 175.07L198.142 167.807L203.608 166.304L209.302 154.534L214.996 147.772L220.689 144.516L226.383 139.006L232.077 137.253L237.542 130.491L243.236 129.49L248.93 122.227L254.623 117.719L260.317 115.465L266.011 113.712L271.477 112.209L277.17 109.204L282.864 107.2H288.557L294.251 104.195L299.945 101.941L305.411 100.438H311.104H316.798L322.491 98.6852H328.185L333.879 98.1844L339.345 97.6835H345.038L350.732 99.1861L356.426 100.438L362.119 96.4313L367.813 91.9233L373.506 101.941L378.972 123.729L384.666 142.262L390.36 157.289L396.053 169.56L401.747 177.324L407.441 184.587L412.906 190.848L418.6 195.856L424.294 200.865L429.987 205.874L435.681 185.839L441.375 215.892L446.841 269.987L452.534 351.631L458.228 380.432L463.921 393.955L469.615 399.966L475.309 404.474L480.775 405.726L486.468 407.98L492.162 412.238H497.856H503.549H509.243H514.709H520.402H526.096H531.79H537.483H543.177H548.643H554.336H560.03H565.724H571.417H577.111H582.577H588.27H593.964H599.658" stroke="#767BFF" stroke-width="2.39327" stroke-linecap="round" stroke-linejoin="round"/>
<path d="M8.14852 345.259V357.712H6.58333V346.876H6.51453L3.48737 348.888V347.323L6.58333 345.259H8.14852ZM15.1922 357.884C12.4316 357.884 10.832 355.562 10.8406 351.486C10.832 347.444 12.4488 345.087 15.1922 345.087C17.927 345.087 19.5437 347.444 19.5437 351.486C19.5437 355.562 17.9528 357.884 15.1922 357.884ZM12.337 351.486C12.3456 354.711 13.3862 356.508 15.1922 356.508C16.9896 356.508 18.0388 354.711 18.0302 351.486C18.0388 348.261 16.981 346.437 15.1922 346.429C13.4034 346.437 12.3456 348.261 12.337 351.486ZM25.3318 357.884C22.5712 357.884 20.9717 355.562 20.9803 351.486C20.9717 347.444 22.5884 345.087 25.3318 345.087C28.0666 345.087 29.6834 347.444 29.6834 351.486C29.6834 355.562 28.0924 357.884 25.3318 357.884ZM22.4767 351.486C22.4853 354.711 23.5258 356.508 25.3318 356.508C27.1292 356.508 28.1784 354.711 28.1698 351.486C28.1784 348.261 27.1206 346.437 25.3318 346.429C23.543 346.437 22.4853 348.261 22.4767 351.486Z" fill="#1E1E1E"/>
<path d="M2.43808 302.284L2.42088 301.149L6.66923 296.677C8.13982 295.111 8.84501 294.269 8.85361 293.116C8.84501 291.835 7.77862 291.009 6.37684 291.001C4.88905 291.009 3.96026 291.947 3.95166 293.34H2.48968C2.47248 291.138 4.17526 289.659 6.42844 289.659C8.69021 289.659 10.2898 291.181 10.2984 293.116C10.2898 294.509 9.6448 295.593 7.44323 297.863L4.58806 300.805V300.908H10.522V302.284H2.43808ZM16.4993 302.456C13.7387 302.456 12.1391 300.134 12.1477 296.057C12.1391 292.015 13.7559 289.659 16.4993 289.659C19.234 289.659 20.8508 292.015 20.8508 296.057C20.8508 300.134 19.2598 302.456 16.4993 302.456ZM13.6441 296.057C13.6527 299.282 14.6933 301.08 16.4993 301.08C18.2967 301.08 19.3458 299.282 19.3372 296.057C19.3458 292.832 18.2881 291.009 16.4993 291.001C14.7105 291.009 13.6527 292.832 13.6441 296.057ZM26.6389 302.456C23.8783 302.456 22.2788 300.134 22.2874 296.057C22.2788 292.015 23.8955 289.659 26.6389 289.659C29.3737 289.659 30.9905 292.015 30.9905 296.057C30.9905 300.134 29.3995 302.456 26.6389 302.456ZM23.7837 296.057C23.7923 299.282 24.8329 301.08 26.6389 301.08C28.4363 301.08 29.4855 299.282 29.4769 296.057C29.4855 292.832 28.4277 291.009 26.6389 291.001C24.8501 291.009 23.7923 292.832 23.7837 296.057Z" fill="#1E1E1E"/>
<path d="M5.95332 245.992C3.47655 245.992 1.69637 244.667 1.61897 242.689H3.18415C3.27015 243.876 4.44834 244.616 5.93612 244.616C7.57871 244.616 8.76549 243.73 8.77409 242.431C8.76549 241.073 7.6819 240.118 5.74693 240.109H4.73214V238.751H5.74693C7.26051 238.751 8.3183 237.899 8.3097 236.618C8.3183 235.371 7.40671 234.545 5.98772 234.537C4.65474 234.545 3.44215 235.276 3.37335 236.498H1.87697C1.95437 234.52 3.79475 233.195 6.00492 233.195C8.3785 233.195 9.82328 234.752 9.80608 236.532C9.82328 237.951 8.99769 238.983 7.6905 239.353V239.439C9.31589 239.688 10.2963 240.849 10.2877 242.431C10.2963 244.478 8.4387 245.992 5.95332 245.992ZM16.2478 245.992C13.4872 245.992 11.8876 243.67 11.8962 239.593C11.8876 235.552 13.5044 233.195 16.2478 233.195C18.9825 233.195 20.5993 235.552 20.5993 239.593C20.5993 243.67 19.0083 245.992 16.2478 245.992ZM13.3926 239.593C13.4012 242.818 14.4418 244.616 16.2478 244.616C18.0451 244.616 19.0943 242.818 19.0857 239.593C19.0943 236.369 18.0365 234.545 16.2478 234.537C14.459 234.545 13.4012 236.369 13.3926 239.593ZM26.3874 245.992C23.6268 245.992 22.0272 243.67 22.0358 239.593C22.0272 235.552 23.644 233.195 26.3874 233.195C29.1222 233.195 30.7389 235.552 30.7389 239.593C30.7389 243.67 29.148 245.992 26.3874 245.992ZM23.5322 239.593C23.5408 242.818 24.5814 244.616 26.3874 244.616C28.1848 244.616 29.234 242.818 29.2254 239.593C29.234 236.369 28.1762 234.545 26.3874 234.537C24.5986 234.545 23.5408 236.369 23.5322 239.593Z" fill="#1E1E1E"/>
<path d="M1.28357 185.774V184.501L6.89071 175.867H8.79989V184.415H10.5371V185.774H8.79989V188.32H7.32071V185.774H1.28357ZM2.95196 184.415H7.32071V177.828H7.16591L2.95196 184.312V184.415ZM16.308 188.492C13.5474 188.492 11.9478 186.17 11.9564 182.093C11.9478 178.052 13.5646 175.695 16.308 175.695C19.0427 175.695 20.6595 178.052 20.6595 182.093C20.6595 186.17 19.0685 188.492 16.308 188.492ZM13.4528 182.093C13.4614 185.318 14.502 187.116 16.308 187.116C18.1053 187.116 19.1545 185.318 19.1459 182.093C19.1545 178.869 18.0967 177.045 16.308 177.037C14.5192 177.045 13.4614 178.869 13.4528 182.093ZM26.4476 188.492C23.687 188.492 22.0874 186.17 22.096 182.093C22.0874 178.052 23.7042 175.695 26.4476 175.695C29.1824 175.695 30.7991 178.052 30.7991 182.093C30.7991 186.17 29.2082 188.492 26.4476 188.492ZM23.5924 182.093C23.601 185.318 24.6416 187.116 26.4476 187.116C28.245 187.116 29.2942 185.318 29.2856 182.093C29.2942 178.869 28.2364 177.045 26.4476 177.037C24.6588 177.045 23.601 178.869 23.5924 182.093Z" fill="#1E1E1E"/>
<path d="M6.41124 132.028C4.16666 132.028 2.46388 130.643 2.36928 128.726H3.86567C3.97746 129.835 5.06105 130.661 6.41124 130.669C8.02802 130.661 9.19761 129.482 9.19761 127.917C9.19761 126.3 7.98502 125.105 6.30804 125.096C5.25885 125.079 4.44186 125.406 3.98606 126.214H2.48968L3.36687 119.403H10.1092V120.779H4.65686L4.19246 124.426H4.31286C4.87185 123.996 5.70605 123.703 6.58324 123.703C8.95681 123.703 10.7026 125.458 10.7112 127.883C10.7026 130.291 8.89661 132.028 6.41124 132.028ZM16.5853 132.028C13.8247 132.028 12.2251 129.706 12.2337 125.63C12.2251 121.588 13.8419 119.231 16.5853 119.231C19.32 119.231 20.9368 121.588 20.9368 125.63C20.9368 129.706 19.3458 132.028 16.5853 132.028ZM13.7301 125.63C13.7387 128.855 14.7793 130.652 16.5853 130.652C18.3827 130.652 19.4318 128.855 19.4232 125.63C19.4318 122.405 18.3741 120.581 16.5853 120.573C14.7965 120.581 13.7387 122.405 13.7301 125.63ZM26.7249 132.028C23.9643 132.028 22.3648 129.706 22.3734 125.63C22.3648 121.588 23.9815 119.231 26.7249 119.231C29.4597 119.231 31.0765 121.588 31.0765 125.63C31.0765 129.706 29.4855 132.028 26.7249 132.028ZM23.8697 125.63C23.8783 128.855 24.9189 130.652 26.7249 130.652C28.5223 130.652 29.5715 128.855 29.5629 125.63C29.5715 122.405 28.5137 120.581 26.7249 120.573C24.9361 120.581 23.8783 122.405 23.8697 125.63Z" fill="#1E1E1E"/>
<path d="M6.54024 76.5997C4.38166 76.5739 1.99949 75.2925 1.99949 70.683C1.99949 66.2712 3.80547 63.8031 6.72944 63.8031C8.92241 63.8031 10.4532 65.1533 10.7714 67.1054H9.24061C8.95681 66.0046 8.11402 65.1791 6.72944 65.1791C4.68266 65.1791 3.45287 66.9248 3.46147 69.9262H3.61627C4.33006 68.8856 5.47385 68.275 6.81543 68.275C9.02561 68.275 10.8746 69.995 10.8746 72.403C10.8746 74.7508 9.16321 76.6255 6.54024 76.5997ZM3.66787 72.4374C3.67647 73.8994 4.87185 75.2323 6.54024 75.2409C8.14842 75.2323 9.36961 73.9682 9.37821 72.4202C9.36961 70.8894 8.20002 69.6424 6.57464 69.6338C4.94065 69.6424 3.68507 70.9668 3.66787 72.4374ZM16.7315 76.5997C13.9709 76.5997 12.3713 74.2778 12.3799 70.2014C12.3713 66.1594 13.9881 63.8031 16.7315 63.8031C19.4662 63.8031 21.083 66.1594 21.083 70.2014C21.083 74.2778 19.492 76.5997 16.7315 76.5997ZM13.8763 70.2014C13.8849 73.4264 14.9255 75.2237 16.7315 75.2237C18.5289 75.2237 19.578 73.4264 19.5694 70.2014C19.578 66.9764 18.5203 65.1533 16.7315 65.1447C14.9427 65.1533 13.8849 66.9764 13.8763 70.2014ZM26.8711 76.5997C24.1105 76.5997 22.511 74.2778 22.5196 70.2014C22.511 66.1594 24.1277 63.8031 26.8711 63.8031C29.6059 63.8031 31.2227 66.1594 31.2227 70.2014C31.2227 74.2778 29.6317 76.5997 26.8711 76.5997ZM24.0159 70.2014C24.0245 73.4264 25.0651 75.2237 26.8711 75.2237C28.6685 75.2237 29.7177 73.4264 29.7091 70.2014C29.7177 66.9764 28.6599 65.1533 26.8711 65.1447C25.0823 65.1533 24.0245 66.9764 24.0159 70.2014Z" fill="#1E1E1E"/>
<path d="M2.76285 21L8.47319 10.0093V9.92332H1.88566V8.54733H10.0728V9.99212L4.37964 21H2.76285ZM15.5341 21.172C12.7735 21.172 11.1739 18.85 11.1825 14.7737C11.1739 10.7317 12.7907 8.37533 15.5341 8.37533C18.2688 8.37533 19.8856 10.7317 19.8856 14.7737C19.8856 18.85 18.2946 21.172 15.5341 21.172ZM12.6789 14.7737C12.6875 17.9986 13.7281 19.796 15.5341 19.796C17.3314 19.796 18.3806 17.9986 18.372 14.7737C18.3806 11.5487 17.3228 9.72552 15.5341 9.71692C13.7453 9.72552 12.6875 11.5487 12.6789 14.7737ZM25.6737 21.172C22.9131 21.172 21.3135 18.85 21.3221 14.7737C21.3135 10.7317 22.9303 8.37533 25.6737 8.37533C28.4085 8.37533 30.0253 10.7317 30.0253 14.7737C30.0253 18.85 28.4343 21.172 25.6737 21.172ZM22.8185 14.7737C22.8271 17.9986 23.8677 19.796 25.6737 19.796C27.4711 19.796 28.5203 17.9986 28.5117 14.7737C28.5203 11.5487 27.4625 9.72552 25.6737 9.71692C23.8849 9.72552 22.8271 11.5487 22.8185 14.7737Z" fill="#1E1E1E"/>
<circle cx="116.036" cy="445.491" r="11.3964" fill="#FF5E98"/>
<path d="M152.538 446.246V447.364H138.606V446.246H144.901V444.646C141.969 444.492 140.154 443.391 140.154 441.585C140.154 439.701 142.253 438.566 145.572 438.558C148.857 438.566 150.964 439.701 150.973 441.585C150.964 443.391 149.141 444.492 146.243 444.646V446.246H152.538ZM140.412 453.057V448.602H141.771V451.922H150.99V453.057H140.412ZM141.547 441.585C141.539 442.832 143.104 443.546 145.572 443.546C148.023 443.546 149.588 442.832 149.597 441.585C149.588 440.415 148.023 439.658 145.572 439.658C143.104 439.658 141.539 440.415 141.547 441.585ZM165.825 445.266V446.366H161.095V450.322H167.476V451.458H153.476V450.322H159.771V446.366H155.265V439.349H165.671V440.45H156.623V445.266H165.825ZM173.686 454.536V438.97H177.333V440.192H175.097V453.298H177.333V454.536H173.686ZM181.212 445.042C179.655 445.042 178.408 443.795 178.408 442.256C178.408 440.69 179.655 439.435 181.212 439.435C182.76 439.435 184.015 440.69 184.015 442.256C184.015 443.795 182.76 445.042 181.212 445.042ZM179.629 442.256C179.638 443.116 180.343 443.821 181.212 443.821C182.08 443.821 182.768 443.116 182.777 442.256C182.768 441.37 182.08 440.682 181.212 440.673C180.343 440.682 179.638 441.37 179.629 442.256ZM189.631 452.18C186.982 452.189 185.366 450.168 185.366 447.364C185.366 444.526 187.06 442.531 189.597 442.531C191.583 442.531 193.08 443.709 193.312 445.472H191.833C191.618 444.621 190.878 443.838 189.631 443.838C187.963 443.838 186.853 445.214 186.845 447.312C186.853 449.471 187.937 450.856 189.631 450.856C190.732 450.856 191.575 450.262 191.833 449.239H193.312C193.08 450.907 191.704 452.189 189.631 452.18ZM197.672 438.953V454.519H194.026V453.298H196.262V440.192H194.026V438.953H197.672Z" fill="#1E1E1E" fill-opacity="0.7"/>
<circle cx="241.396" cy="445.491" r="11.3964" fill="#7EDF88"/>
<path d="M266.986 447.278V449.067H274.623V447.278H275.982V453.178H265.644V447.278H266.986ZM263.873 446.194V445.076H277.805V446.194H263.873ZM264.664 442.909C267.39 442.539 270.151 440.931 270.151 438.988V438.265H271.544V438.988C271.535 440.871 274.322 442.565 277.014 442.909L276.515 443.993C274.15 443.64 271.819 442.436 270.847 440.725C269.876 442.445 267.536 443.64 265.18 443.993L264.664 442.909ZM266.986 452.094H274.623V450.133H266.986V452.094ZM291.092 445.266V446.366H286.362V450.322H292.743V451.458H278.742V450.322H285.038V446.366H280.531V439.349H290.937V440.45H281.89V445.266H291.092ZM298.953 454.536V438.97H302.599V440.192H300.363V453.298H302.599V454.536H298.953ZM310.228 448.998C310.228 447.639 311.105 446.478 312.67 446.487C314.253 446.478 315.095 447.639 315.095 448.998V449.652C315.095 451.019 314.227 452.171 312.67 452.18C311.079 452.171 310.228 451.019 310.228 449.652V448.998ZM304.019 442.531V441.877C304.01 440.51 304.904 439.349 306.461 439.349C308.052 439.349 308.878 440.51 308.886 441.877V442.531C308.878 443.89 308.026 445.042 306.461 445.042C304.861 445.042 304.01 443.89 304.019 442.531ZM304.483 451.991L313.049 439.538H314.442L305.876 451.991H304.483ZM305.274 442.531C305.274 443.27 305.592 443.976 306.461 443.976C307.312 443.976 307.613 443.27 307.613 442.531V441.877C307.613 441.129 307.33 440.424 306.461 440.415C305.618 440.424 305.274 441.129 305.274 441.877V442.531ZM311.501 449.652C311.492 450.4 311.802 451.105 312.67 451.096C313.513 451.105 313.831 450.4 313.823 449.652V448.998C313.831 448.258 313.539 447.553 312.67 447.553C311.819 447.553 311.492 448.258 311.501 448.998V449.652ZM320.127 438.953V454.519H316.48V453.298H318.716V440.192H316.48V438.953H320.127Z" fill="#1E1E1E" fill-opacity="0.7"/>
<circle cx="363.648" cy="445.491" r="11.3964" fill="#767BFF"/>
<path d="M394.584 439.796V440.587C394.576 441.8 394.576 443.821 394.137 446.659L392.778 446.538C393.2 443.976 393.234 442.118 393.226 440.897H386.81V439.796H394.584ZM385.95 448.895C386.956 448.886 388.074 448.878 389.252 448.852V444.165H390.577V448.809C392.271 448.749 394.008 448.637 395.599 448.448L395.668 449.462C392.452 449.961 388.857 450.03 386.122 450.013L385.95 448.895ZM396.562 453.384V438.093H397.904V444.492H400.381V445.661H397.904V453.384H396.562ZM406.117 440.983C406.109 443.09 407.7 445.033 409.953 445.816L409.265 446.9C407.528 446.263 406.177 444.973 405.498 443.356C404.853 445.18 403.468 446.581 401.662 447.278L400.923 446.194C403.253 445.377 404.784 443.305 404.793 440.931V439.039H406.117V440.983ZM403.382 453.057V448.31H404.758V451.922H413.633V453.057H403.382ZM411.587 449.394V438.093H412.928V442.789H415.233V443.941H412.928V449.394H411.587ZM427.712 438.093V444.612H430.154V445.747H427.712V453.384H426.353V438.093H427.712ZM415.655 449.308C416.902 449.308 418.355 449.299 419.869 449.256V447.57C418.089 447.364 416.928 446.315 416.945 444.801C416.928 443.073 418.39 441.955 420.557 441.963C422.69 441.955 424.177 443.073 424.186 444.801C424.177 446.323 422.999 447.364 421.228 447.57V449.204C422.647 449.136 424.091 449.015 425.424 448.826L425.51 449.858C422.174 450.426 418.562 450.46 415.878 450.46L415.655 449.308ZM415.93 441.069V439.968H419.869V438.128H421.228V439.968H425.149V441.069H415.93ZM418.2 444.801C418.209 445.859 419.138 446.556 420.557 446.538C421.95 446.556 422.887 445.859 422.896 444.801C422.887 443.735 421.95 443.012 420.557 443.012C419.138 443.012 418.209 443.735 418.2 444.801ZM438.385 439.521C438.393 441.679 441.197 443.537 443.957 443.924L443.407 445.025C441.033 444.629 438.677 443.313 437.697 441.439C436.716 443.331 434.369 444.629 431.986 445.025L431.436 443.924C434.197 443.537 436.992 441.714 436.992 439.521V438.644H438.385V439.521ZM430.714 447.846V446.71H444.645V447.846H438.316V453.384H436.992V447.846H430.714ZM459.584 450.271V451.389H445.583V450.271H451.844V446.521H453.168V450.271H459.584ZM446.134 445.575C448.808 445.119 451.784 442.883 451.792 440.312V439.142H453.203V440.312C453.211 442.866 456.23 445.119 458.896 445.575L458.294 446.693C455.963 446.212 453.504 444.638 452.515 442.436C451.509 444.629 449.075 446.212 446.736 446.693L446.134 445.575ZM472.802 442.376V443.494H468.089V445.506H474.402V446.642H460.453V445.506H466.765V443.494H462.362V438.403H463.704V442.376H472.802ZM462.138 450.58C462.13 448.8 464.116 447.794 467.419 447.794C470.695 447.794 472.665 448.8 472.682 450.58C472.665 452.343 470.695 453.35 467.419 453.35C464.116 453.35 462.13 452.343 462.138 450.58ZM463.514 450.58C463.497 451.638 464.968 452.283 467.419 452.283C469.844 452.283 471.314 451.638 471.323 450.58C471.314 449.488 469.844 448.869 467.419 448.86C464.968 448.869 463.497 449.488 463.514 450.58ZM487.672 445.266V446.366H482.942V450.322H489.323V451.458H475.322V450.322H481.617V446.366H477.111V439.349H487.517V440.45H478.47V445.266H487.672ZM495.533 454.536V438.97H499.179V440.192H496.943V453.298H499.179V454.536H495.533ZM500.478 455.499V442.651H501.906V444.13H502.078C502.396 443.632 502.963 442.531 504.778 442.531C507.126 442.531 508.751 444.388 508.751 447.347C508.751 450.314 507.126 452.189 504.795 452.18C503.015 452.189 502.396 451.079 502.078 450.563H501.957V455.499H500.478ZM501.923 447.312C501.931 449.411 502.869 450.856 504.589 450.856C506.36 450.856 507.272 449.299 507.272 447.312C507.272 445.36 506.386 443.855 504.589 443.855C502.843 443.855 501.931 445.24 501.923 447.312ZM510.325 455.499V442.651H511.753V444.13H511.925C512.243 443.632 512.811 442.531 514.625 442.531C516.973 442.531 518.598 444.388 518.598 447.347C518.598 450.314 516.973 452.189 514.642 452.18C512.862 452.189 512.243 451.079 511.925 450.563H511.805V455.499H510.325ZM511.77 447.312C511.779 449.411 512.716 450.856 514.436 450.856C516.208 450.856 517.119 449.299 517.119 447.312C517.119 445.36 516.233 443.855 514.436 443.855C512.69 443.855 511.779 445.24 511.77 447.312ZM520.173 451.991V442.651H521.6V444.113H521.721C522.108 443.116 523.011 442.531 524.232 442.531C525.453 442.531 526.287 443.116 526.726 444.113H526.829C527.302 443.15 528.291 442.531 529.632 442.531C531.292 442.531 532.488 443.546 532.488 445.747V451.991H531.008V445.764C531 444.388 530.14 443.855 529.116 443.855C527.818 443.855 527.078 444.732 527.07 445.919V451.991H525.573V445.61C525.582 444.56 524.825 443.855 523.75 443.855C522.632 443.855 521.652 444.801 521.652 446.16V451.991H520.173ZM537.399 438.953V454.519H533.752V453.298H535.988V440.192H533.752V438.953H537.399Z" fill="#1E1E1E" fill-opacity="0.7"/>
</svg>
