<svg width="1920" height="1612" viewBox="0 0 1920 1612" fill="none" xmlns="http://www.w3.org/2000/svg">
<rect width="1920" height="1612" fill="white"/>
<path d="M471 1259L471 1218" stroke="url(#paint0_linear_36_147)" stroke-width="2" stroke-linecap="round"/>
<circle cx="471" cy="1117" r="100" fill="#F5F8FF" stroke="#799EFF" stroke-width="2"/>
<path d="M458.402 1114.4C457.769 1112.39 456.234 1111.15 453.996 1111.16C451.136 1111.15 448.945 1113.4 448.933 1117.52C448.945 1121.62 451.113 1123.88 454.113 1123.87C456.82 1123.88 458.613 1122.16 458.66 1119.44H454.488V1117.3H461.167V1119.23C461.167 1123.53 458.214 1126.23 454.089 1126.23C449.496 1126.23 446.378 1122.89 446.378 1117.52C446.378 1112.1 449.589 1108.8 453.972 1108.8C457.64 1108.8 460.476 1111.08 461.05 1114.4H458.402ZM463.664 1109.03H466.805L472.172 1122.18H472.383L477.75 1109.03H480.891V1126H478.43V1113.74H478.266L473.297 1125.98H471.258L466.266 1113.72H466.125V1126H463.664V1109.03ZM483.879 1126V1109.03H489.926C493.875 1109.03 495.809 1111.4 495.809 1114.54C495.809 1117.67 493.864 1120.05 489.926 1120.05H486.458V1126H483.879ZM486.458 1117.84H489.668C492.165 1117.86 493.208 1116.45 493.208 1114.54C493.208 1112.62 492.165 1111.25 489.668 1111.23H486.458V1117.84Z" fill="#404040"/>
<ellipse cx="574.45" cy="1389" rx="90.45" ry="90.9" fill="#F5F8FF"/>
<path d="M664 1389C664 1438.71 623.903 1479 574.45 1479C524.997 1479 484.9 1438.71 484.9 1389C484.9 1339.29 524.997 1299 574.45 1299C623.903 1299 664 1339.29 664 1389Z" stroke="#799EFF" stroke-opacity="0.5" stroke-width="1.8"/>
<path d="M527.654 1363.73L531.893 1376.15H532.062L536.302 1363.73H538.812L533.307 1379H530.628L525.143 1363.73H527.654ZM540.321 1379V1363.73H542.641V1370.35H550.235V1363.73H552.555V1379H550.235V1372.33H542.641V1379H540.321ZM555.245 1379V1363.73H560.687C564.242 1363.73 565.982 1365.86 565.982 1368.69C565.982 1371.5 564.231 1373.64 560.687 1373.64H557.565V1379H555.245ZM557.565 1371.66H560.455C562.702 1371.67 563.64 1370.4 563.64 1368.69C563.64 1366.96 562.702 1365.72 560.455 1365.71H557.565V1371.66ZM583.174 1368.71C582.805 1366.73 581.17 1365.64 579.229 1365.65C576.593 1365.64 574.642 1367.66 574.631 1371.36C574.642 1375.09 576.603 1377.09 579.229 1377.08C581.149 1377.09 582.773 1376.02 583.174 1374.06L585.515 1374.09C585.03 1377.1 582.573 1379.21 579.208 1379.21C575.232 1379.21 572.332 1376.25 572.332 1371.36C572.332 1366.48 575.253 1363.52 579.208 1363.52C582.436 1363.52 584.999 1365.43 585.515 1368.71H583.174ZM588.859 1383.3C588.395 1383.29 587.942 1383.28 587.657 1383.24V1381.36C587.91 1381.38 588.353 1381.39 588.669 1381.4C589.365 1381.39 589.946 1381.35 590.483 1379.91L590.758 1379.15L586.56 1367.55H588.965L591.855 1376.43H591.981L594.871 1367.55H597.297L592.572 1380.52C591.907 1382.33 590.747 1383.29 588.859 1383.3ZM603.151 1379.23C599.807 1379.23 597.782 1376.77 597.793 1373.33C597.782 1369.83 599.881 1367.4 603.108 1367.4C605.724 1367.4 607.612 1368.94 607.855 1371.26H605.661C605.429 1370.18 604.574 1369.29 603.151 1369.28C601.294 1369.29 600.05 1370.83 600.05 1373.26C600.05 1375.77 601.263 1377.32 603.151 1377.31C604.427 1377.32 605.376 1376.61 605.661 1375.37H607.855C607.612 1377.6 605.851 1379.23 603.151 1379.23ZM611.81 1363.73V1379H609.553V1363.73H611.81ZM619.056 1379.23C615.681 1379.23 613.603 1376.9 613.614 1373.35C613.603 1369.82 615.713 1367.4 618.909 1367.4C621.514 1367.4 623.992 1369.01 623.992 1373.16V1373.96H615.85C615.913 1376.14 617.2 1377.38 619.077 1377.38C620.353 1377.38 621.187 1376.83 621.566 1376.13H623.844C623.338 1377.99 621.577 1379.23 619.056 1379.23ZM615.86 1372.27H621.777C621.777 1370.53 620.649 1369.24 618.93 1369.25C617.126 1369.24 615.955 1370.66 615.86 1372.27ZM518.245 1415H513.288V1399.73H518.393C522.897 1399.73 525.575 1402.59 525.586 1407.34C525.575 1412.11 522.897 1415 518.245 1415ZM515.609 1412.98H518.119C521.578 1412.96 523.287 1410.95 523.287 1407.34C523.287 1403.75 521.578 1401.75 518.245 1401.75H515.609V1412.98ZM532.516 1415.23C529.141 1415.23 527.063 1412.9 527.074 1409.35C527.063 1405.82 529.172 1403.4 532.368 1403.4C534.973 1403.4 537.452 1405.01 537.452 1409.16V1409.96H529.309C529.373 1412.14 530.659 1413.38 532.537 1413.38C533.813 1413.38 534.646 1412.83 535.026 1412.13H537.304C536.798 1413.99 535.036 1415.23 532.516 1415.23ZM529.32 1408.27H535.237C535.237 1406.53 534.108 1405.24 532.389 1405.25C530.586 1405.24 529.415 1406.66 529.32 1408.27ZM548.727 1403.55L544.571 1415H542.145L537.99 1403.55H540.416L543.306 1412.34H543.411L546.301 1403.55H548.727ZM554.665 1415.23C551.29 1415.23 549.212 1412.9 549.223 1409.35C549.212 1405.82 551.322 1403.4 554.517 1403.4C557.122 1403.4 559.601 1405.01 559.601 1409.16V1409.96H551.459C551.522 1412.14 552.809 1413.38 554.686 1413.38C555.962 1413.38 556.795 1412.83 557.175 1412.13H559.453C558.947 1413.99 557.186 1415.23 554.665 1415.23ZM551.469 1408.27H557.386C557.386 1406.53 556.258 1405.24 554.538 1405.25C552.735 1405.24 551.564 1406.66 551.469 1408.27ZM563.662 1399.73V1415H561.405V1399.73H563.662ZM570.824 1415.23C567.575 1415.23 565.455 1412.87 565.466 1409.33C565.455 1405.76 567.575 1403.4 570.824 1403.4C574.051 1403.4 576.16 1405.76 576.16 1409.33C576.16 1412.87 574.051 1415.23 570.824 1415.23ZM567.723 1409.33C567.723 1411.51 568.725 1413.35 570.824 1413.35C572.891 1413.35 573.882 1411.51 573.882 1409.33C573.882 1407.13 572.891 1405.27 570.824 1405.25C568.725 1405.27 567.723 1407.13 567.723 1409.33ZM577.943 1419.3V1403.55H580.137V1405.4H580.327C580.728 1404.69 581.497 1403.4 583.617 1403.4C586.391 1403.4 588.427 1405.57 588.427 1409.3C588.427 1413 586.412 1415.22 583.639 1415.23C581.561 1415.22 580.738 1413.96 580.327 1413.21H580.2V1419.3H577.943ZM580.158 1409.26C580.158 1411.67 581.213 1413.3 583.132 1413.31C585.115 1413.3 586.149 1411.56 586.149 1409.26C586.149 1407.01 585.147 1405.31 583.132 1405.32C581.192 1405.31 580.158 1406.88 580.158 1409.26ZM590.231 1415V1403.55H592.403V1405.42H592.53C593.015 1404.15 594.144 1403.4 595.652 1403.4C597.181 1403.4 598.246 1404.15 598.732 1405.42H598.858C599.396 1404.19 600.64 1403.4 602.296 1403.4C604.364 1403.4 605.83 1404.7 605.84 1407.32V1415H603.583V1407.53C603.583 1405.98 602.613 1405.34 601.432 1405.34C599.987 1405.34 599.153 1406.33 599.153 1407.7V1415H596.917V1407.41C596.917 1406.15 596.063 1405.34 594.829 1405.34C593.564 1405.34 592.488 1406.39 592.488 1407.93V1415H590.231ZM613.065 1415.23C609.69 1415.23 607.612 1412.9 607.623 1409.35C607.612 1405.82 609.722 1403.4 612.917 1403.4C615.523 1403.4 618.001 1405.01 618.001 1409.16V1409.96H609.859C609.922 1412.14 611.209 1413.38 613.086 1413.38C614.362 1413.38 615.196 1412.83 615.575 1412.13H617.853C617.347 1413.99 615.586 1415.23 613.065 1415.23ZM609.869 1408.27H615.786C615.786 1406.53 614.658 1405.24 612.939 1405.25C611.135 1405.24 609.964 1406.66 609.869 1408.27ZM622.062 1408.21V1415H619.805V1403.55H621.978V1405.42H622.104C622.642 1404.19 623.771 1403.4 625.479 1403.4C627.831 1403.4 629.392 1404.89 629.382 1407.72V1415H627.146V1408C627.135 1406.33 626.239 1405.34 624.72 1405.34C623.169 1405.34 622.062 1406.38 622.062 1408.21ZM637.05 1403.55V1405.34H634.708V1411.63C634.719 1412.92 635.352 1413.15 636.079 1413.16C636.406 1413.16 636.902 1413.13 637.218 1413.1V1415.06C636.912 1415.11 636.427 1415.15 635.805 1415.15C634.044 1415.15 632.451 1414.18 632.472 1412.09V1405.34H630.785V1403.55H632.472V1400.8H634.708V1403.55H637.05Z" fill="#404040"/>
<circle cx="367.9" cy="1389" r="90.9" fill="#F5F8FF"/>
<circle cx="367.9" cy="1389" r="90" stroke="#799EFF" stroke-opacity="0.5" stroke-width="1.8"/>
<path d="M323.882 1381.73L328.121 1394.15H328.29L332.53 1381.73H335.04L329.535 1397H326.856L321.371 1381.73H323.882ZM334.692 1393.77C334.682 1391.16 336.907 1390.48 338.975 1390.33C339.734 1390.29 341.453 1390.2 341.98 1390.18L341.97 1389.26C341.98 1387.96 341.179 1387.21 339.65 1387.21C338.321 1387.21 337.519 1387.82 337.287 1388.67H335.051C335.251 1386.77 337.023 1385.4 339.734 1385.4C341.558 1385.4 344.216 1386.06 344.227 1389.39V1397H342.033V1395.44H341.949C341.506 1396.29 340.451 1397.25 338.553 1397.25C336.38 1397.25 334.682 1396.01 334.692 1393.77ZM336.886 1393.79C336.886 1394.89 337.793 1395.45 339.059 1395.46C340.894 1395.45 341.991 1394.23 341.991 1392.87L341.98 1391.82C341.464 1391.85 339.829 1391.97 339.291 1392C337.814 1392.11 336.886 1392.67 336.886 1393.79ZM348.773 1381.73V1397H346.516V1381.73H348.773ZM351.083 1397V1385.55H353.34V1397H351.083ZM350.788 1382.45C350.798 1381.71 351.442 1381.12 352.222 1381.12C352.992 1381.12 353.636 1381.71 353.636 1382.45C353.636 1383.18 352.992 1383.78 352.222 1383.77C351.442 1383.78 350.798 1383.18 350.788 1382.45ZM359.932 1397.23C357.169 1397.22 355.144 1395 355.144 1391.3C355.144 1387.57 357.201 1385.4 359.953 1385.4C362.084 1385.4 362.854 1386.69 363.265 1387.4H363.371V1381.73H365.628V1397H363.434V1395.21H363.265C362.843 1395.96 362.021 1397.22 359.932 1397.23ZM357.443 1391.26C357.433 1393.56 358.466 1395.3 360.439 1395.31C362.358 1395.3 363.434 1393.67 363.434 1391.26C363.434 1388.88 362.379 1387.31 360.439 1387.32C358.445 1387.31 357.433 1389.01 357.443 1391.26ZM367.6 1393.77C367.59 1391.16 369.815 1390.48 371.882 1390.33C372.642 1390.29 374.361 1390.2 374.888 1390.18L374.878 1389.26C374.888 1387.96 374.087 1387.21 372.557 1387.21C371.229 1387.21 370.427 1387.82 370.195 1388.67H367.959C368.159 1386.77 369.931 1385.4 372.642 1385.4C374.466 1385.4 377.124 1386.06 377.135 1389.39V1397H374.941V1395.44H374.857C374.414 1396.29 373.359 1397.25 371.461 1397.25C369.288 1397.25 367.59 1396.01 367.6 1393.77ZM369.794 1393.79C369.794 1394.89 370.701 1395.45 371.967 1395.46C373.802 1395.45 374.899 1394.23 374.899 1392.87L374.888 1391.82C374.371 1391.85 372.737 1391.97 372.199 1392C370.722 1392.11 369.794 1392.67 369.794 1393.79ZM384.782 1385.55V1387.34H382.44V1393.63C382.451 1394.92 383.084 1395.15 383.811 1395.16C384.138 1395.16 384.634 1395.13 384.95 1395.1V1397.06C384.645 1397.11 384.159 1397.15 383.537 1397.15C381.776 1397.15 380.183 1396.18 380.204 1394.09V1387.34H378.517V1385.55H380.204V1382.8H382.44V1385.55H384.782ZM386.543 1397V1385.55H388.8V1397H386.543ZM386.248 1382.45C386.259 1381.71 386.902 1381.12 387.682 1381.12C388.452 1381.12 389.096 1381.71 389.096 1382.45C389.096 1383.18 388.452 1383.78 387.682 1383.77C386.902 1383.78 386.259 1383.18 386.248 1382.45ZM395.962 1397.23C392.714 1397.23 390.594 1394.87 390.604 1391.33C390.594 1387.76 392.714 1385.4 395.962 1385.4C399.19 1385.4 401.299 1387.76 401.299 1391.33C401.299 1394.87 399.19 1397.23 395.962 1397.23ZM392.861 1391.33C392.861 1393.51 393.863 1395.35 395.962 1395.35C398.029 1395.35 399.021 1393.51 399.021 1391.33C399.021 1389.13 398.029 1387.27 395.962 1387.25C393.863 1387.27 392.861 1389.13 392.861 1391.33ZM405.339 1390.21V1397H403.082V1385.55H405.254V1387.42H405.381C405.919 1386.19 407.047 1385.4 408.756 1385.4C411.108 1385.4 412.669 1386.89 412.658 1389.72V1397H410.422V1390C410.412 1388.33 409.515 1387.34 407.997 1387.34C406.446 1387.34 405.339 1388.38 405.339 1390.21Z" fill="#404040"/>
<path d="M1059.3 1117C1059.3 1172.23 1014.75 1217 959.8 1217C904.852 1217 860.3 1172.23 860.3 1117C860.3 1061.77 904.852 1017 959.8 1017C1014.75 1017 1059.3 1061.77 1059.3 1117Z" fill="#F5F8FF" stroke="#799EFF" stroke-width="2"/>
<path d="M905.068 1112.34C905.044 1116.17 907.365 1120.04 910.623 1121.48L909.287 1123.23C906.873 1122.09 904.962 1119.73 903.978 1116.86C903.005 1119.94 901.072 1122.47 898.552 1123.7L897.193 1121.83C900.498 1120.36 902.818 1116.34 902.818 1112.34V1108.75H905.068V1112.34ZM912.521 1128.04V1106.99H914.748V1128.04H912.521ZM928.283 1109.97C928.283 1113.39 931.928 1116.62 935.971 1117.35L934.939 1119.2C931.576 1118.48 928.494 1116.27 927.135 1113.32C925.752 1116.26 922.67 1118.45 919.307 1119.2L918.322 1117.35C922.307 1116.6 925.928 1113.39 925.939 1109.97V1108.38H928.283V1109.97ZM917.619 1125.23V1123.38H936.838V1125.23H917.619ZM946.811 1108.33V1110.16H940.952V1112.43H945.991V1114.16H940.952V1116.67C943.729 1116.65 945.545 1116.54 947.702 1116.16L947.913 1117.91C945.499 1118.37 943.495 1118.45 940.178 1118.45H938.819V1108.33H946.811ZM941.749 1127.73V1120.54H955.788V1127.73H941.749ZM943.975 1125.93H953.608V1122.3H943.975V1125.93ZM946.952 1114V1112.2H949.553V1107.34H951.663V1119.44H949.553V1114H946.952ZM953.678 1119.6V1106.99H955.788V1119.6H953.678ZM970.812 1112.34C970.789 1116.05 972.957 1119.86 976.085 1121.38L974.703 1123.16C972.417 1121.97 970.648 1119.62 969.722 1116.82C968.785 1119.8 966.945 1122.32 964.554 1123.56L963.171 1121.76C966.394 1120.21 968.574 1116.18 968.585 1112.34V1108.75H970.812V1112.34ZM977.656 1127.99V1106.99H979.882V1115.36H983.257V1117.26H979.882V1127.99H977.656ZM989.598 1107.95C992.363 1107.93 994.508 1109.54 994.965 1111.89H999.066V1106.99H1001.29V1118.27H999.066V1113.72H994.977C994.543 1116.13 992.387 1117.75 989.598 1117.75C986.387 1117.75 984.078 1115.72 984.09 1112.83C984.078 1109.97 986.387 1107.93 989.598 1107.95ZM986.223 1112.83C986.211 1114.62 987.617 1115.88 989.598 1115.88C991.543 1115.88 992.926 1114.62 992.926 1112.83C992.926 1111.02 991.543 1109.79 989.598 1109.8C987.617 1109.79 986.211 1111.02 986.223 1112.83ZM987.605 1127.73V1119.27H989.809V1121.71H999.066V1119.27H1001.29V1127.73H987.605ZM989.809 1125.91H999.066V1123.47H989.809V1125.91ZM1023.24 1119.34V1121.1H1014.66V1127.99H1012.48V1121.1H1004.02V1119.34H1023.24ZM1006.41 1116.95V1107.84H1008.62V1110.58H1018.6V1107.84H1020.83V1116.95H1006.41ZM1008.62 1115.17H1018.6V1112.36H1008.62V1115.17Z" fill="#404040"/>
<ellipse cx="1062.35" cy="1389" rx="90.45" ry="90.9" fill="#F5F8FF"/>
<path d="M1151.9 1389C1151.9 1438.71 1111.8 1479 1062.35 1479C1012.9 1479 972.8 1438.71 972.8 1389C972.8 1339.29 1012.9 1299 1062.35 1299C1111.8 1299 1151.9 1339.29 1151.9 1389Z" stroke="#799EFF" stroke-opacity="0.5" stroke-width="1.8"/>
<path d="M1042.03 1397V1381.73H1051.61V1383.73H1044.35V1388.35H1051.1V1390.33H1044.35V1395H1051.69V1397H1042.03ZM1054.03 1381.73H1056.85L1061.68 1393.56H1061.87L1066.7 1381.73H1069.53V1397H1067.31V1385.97H1067.17L1062.7 1396.98H1060.86L1056.37 1385.95H1056.24V1397H1054.03V1381.73ZM1080.53 1385.76C1080.38 1384.33 1079.14 1383.52 1077.39 1383.52C1075.52 1383.52 1074.34 1384.48 1074.33 1385.78C1074.33 1387.22 1075.9 1387.79 1077.11 1388.08L1078.59 1388.48C1080.54 1388.95 1082.99 1390.02 1083 1392.78C1082.99 1395.37 1080.93 1397.25 1077.32 1397.25C1073.91 1397.25 1071.76 1395.54 1071.61 1392.76H1073.93C1074.07 1394.43 1075.54 1395.22 1077.32 1395.23C1079.28 1395.22 1080.69 1394.24 1080.7 1392.74C1080.69 1391.41 1079.42 1390.87 1077.81 1390.44L1076 1389.95C1073.54 1389.28 1072.02 1388.04 1072.01 1385.9C1072.02 1383.27 1074.36 1381.52 1077.45 1381.52C1080.55 1381.52 1082.71 1383.29 1082.79 1385.76H1080.53Z" fill="#404040"/>
<circle cx="855.8" cy="1389" r="90.9" fill="#F5F8FF"/>
<circle cx="855.8" cy="1389" r="90" stroke="#799EFF" stroke-opacity="0.5" stroke-width="1.8"/>
<path d="M824.069 1385.46C824.058 1388.45 826.03 1391.78 828.899 1393.14L827.76 1394.7C825.64 1393.69 823.953 1391.56 823.098 1389.09C822.233 1391.78 820.462 1394.11 818.31 1395.19L817.129 1393.6C819.997 1392.22 822.075 1388.66 822.086 1385.46V1383.46H817.825V1381.79H828.182V1383.46H824.069V1385.46ZM830.207 1398.79V1379.89H832.211V1387.38H835.248V1389.07H832.211V1398.79H830.207ZM852.978 1389.09V1390.69H835.723V1389.09H843.38V1387.09H837.875V1380.76H850.848V1382.34H839.858V1385.48H850.974V1387.09H845.321V1389.09H852.978ZM837.769 1395.35C837.769 1393.16 840.227 1391.93 844.33 1391.92C848.401 1391.93 850.837 1393.16 850.848 1395.35C850.837 1397.55 848.401 1398.78 844.33 1398.79C840.227 1398.78 837.769 1397.55 837.769 1395.35ZM839.794 1395.35C839.784 1396.57 841.44 1397.23 844.33 1397.21C847.177 1397.23 848.844 1396.57 848.844 1395.35C848.844 1394.16 847.177 1393.48 844.33 1393.48C841.44 1393.48 839.784 1394.16 839.794 1395.35ZM875.022 1379.89V1398.79H873.102V1379.89H875.022ZM858.526 1393.58C861.205 1391.97 862.566 1388.53 862.576 1385.17V1383.65H859.096V1382.02H867.744V1383.65H864.496V1385.17C864.496 1388.39 865.804 1391.63 868.462 1393.16L867.259 1394.64C865.456 1393.56 864.222 1391.63 863.557 1389.35C862.882 1391.82 861.596 1393.93 859.75 1395.08L858.526 1393.58ZM866.352 1388.23V1386.58H869.284V1380.29H871.183V1397.84H869.284V1388.23H866.352ZM882.162 1381.31C884.736 1381.32 886.603 1383.49 886.909 1386.98H890.811V1379.89H892.794V1398.84H890.811V1388.6H886.93C886.708 1392.3 884.799 1394.58 882.162 1394.57C879.346 1394.58 877.353 1392.01 877.374 1387.93C877.353 1383.89 879.346 1381.32 882.162 1381.31ZM879.273 1387.93C879.283 1390.94 880.454 1392.78 882.162 1392.78C883.871 1392.78 885.042 1390.94 885.052 1387.93C885.042 1384.97 883.871 1383.11 882.162 1383.1C880.454 1383.11 879.283 1384.97 879.273 1387.93Z" fill="#404040"/>
<ellipse cx="1551.15" cy="1389" rx="90.45" ry="90.9" fill="#F5F8FF"/>
<path d="M1640.7 1389C1640.7 1438.71 1600.6 1479 1551.15 1479C1501.7 1479 1461.6 1438.71 1461.6 1389C1461.6 1339.29 1501.7 1299 1551.15 1299C1600.6 1299 1640.7 1339.29 1640.7 1389Z" stroke="#799EFF" stroke-opacity="0.5" stroke-width="1.8"/>
<path d="M1528.76 1379.91V1393.65H1526.76V1379.91H1528.76ZM1513.47 1385.86C1513.48 1383.13 1515.65 1381.19 1518.51 1381.18C1521.36 1381.19 1523.53 1383.13 1523.53 1385.86C1523.53 1388.64 1521.36 1390.57 1518.51 1390.57C1515.65 1390.57 1513.48 1388.64 1513.47 1385.86ZM1515.43 1385.86C1515.42 1387.64 1516.75 1388.82 1518.51 1388.82C1520.24 1388.82 1521.57 1387.64 1521.57 1385.86C1521.57 1384.12 1520.24 1382.93 1518.51 1382.93C1516.75 1382.93 1515.42 1384.12 1515.43 1385.86ZM1516.4 1398.39V1392.25H1518.42V1396.77H1529.33V1398.39H1516.4ZM1537.88 1384.7C1537.86 1388.05 1539.81 1391.47 1542.63 1392.84L1541.38 1394.45C1539.33 1393.37 1537.74 1391.26 1536.9 1388.74C1536.06 1391.42 1534.4 1393.69 1532.25 1394.81L1531.01 1393.18C1533.91 1391.79 1535.87 1388.16 1535.88 1384.7V1381.48H1537.88V1384.7ZM1544.04 1398.79V1379.89H1546.05V1387.42H1549.08V1389.13H1546.05V1398.79H1544.04ZM1571.63 1389.58V1391.2H1554.4V1389.58H1562.02V1387.4H1564V1389.58H1571.63ZM1555.31 1386.79C1559.05 1386.48 1561.65 1385.11 1561.89 1383.29H1556.13V1381.69H1562.02V1379.87H1564V1381.69H1569.9V1383.29H1564.12C1564.35 1385.11 1566.95 1386.48 1570.71 1386.79L1570.09 1388.33C1566.82 1388.02 1564.18 1386.93 1563.01 1385.17C1561.83 1386.93 1559.19 1388.02 1555.94 1388.33L1555.31 1386.79ZM1556.45 1395.61C1556.45 1393.56 1558.87 1392.44 1563.01 1392.44C1567.12 1392.44 1569.51 1393.56 1569.52 1395.61C1569.51 1397.65 1567.12 1398.76 1563.01 1398.75C1558.87 1398.76 1556.45 1397.65 1556.45 1395.61ZM1558.47 1395.61C1558.46 1396.68 1560.09 1397.25 1563.01 1397.23C1565.89 1397.25 1567.52 1396.68 1567.52 1395.61C1567.52 1394.53 1565.89 1393.94 1563.01 1393.94C1560.09 1393.94 1558.46 1394.53 1558.47 1395.61ZM1589.91 1390.74V1392.36H1582.19V1398.77H1580.23V1392.36H1572.62V1390.74H1589.91ZM1574.79 1388.33V1380.91H1587.74V1388.33H1574.79ZM1576.75 1386.77H1585.74V1382.51H1576.75V1386.77Z" fill="#404040"/>
<circle cx="1343.7" cy="1389" r="90.9" fill="#F5F8FF"/>
<circle cx="1343.7" cy="1389" r="90" stroke="#799EFF" stroke-opacity="0.5" stroke-width="1.8"/>
<path d="M1342.37 1379.89V1398.79H1340.45V1389.09H1338.19V1397.86H1336.3V1380.25H1338.19V1387.4H1340.45V1379.89H1342.37ZM1325.79 1393.46C1328.55 1391.91 1329.84 1388.65 1329.84 1384.89V1383.67H1326.3V1382.04H1335.07V1383.67H1331.78V1384.89C1331.78 1388.29 1333.06 1391.37 1335.81 1392.78L1334.63 1394.32C1332.77 1393.31 1331.53 1391.55 1330.85 1389.37C1330.21 1391.85 1328.97 1393.84 1327.04 1394.98L1325.79 1393.46ZM1360.04 1379.91V1391.09H1358.03V1388.79H1353.27V1387.15H1358.03V1384.85H1353.47C1352.24 1387.89 1349.41 1390.03 1345.31 1391.2L1344.51 1389.64C1348.98 1388.36 1351.6 1385.96 1351.96 1382.91H1345.48V1381.26H1354.13C1354.13 1381.96 1354.06 1382.64 1353.93 1383.27H1358.03V1379.91H1360.04ZM1347.44 1395C1347.44 1392.71 1349.93 1391.32 1353.81 1391.3C1357.64 1391.32 1360.15 1392.71 1360.16 1395C1360.15 1397.3 1357.64 1398.71 1353.81 1398.71C1349.93 1398.71 1347.44 1397.3 1347.44 1395ZM1349.43 1395C1349.43 1396.33 1351.11 1397.09 1353.81 1397.11C1356.46 1397.09 1358.15 1396.33 1358.16 1395C1358.15 1393.65 1356.46 1392.88 1353.81 1392.89C1351.11 1392.88 1349.43 1393.65 1349.43 1395Z" fill="#404040"/>
<circle cx="1447.7" cy="1119" r="100" fill="#F5F8FF" stroke="#799EFF" stroke-width="2"/>
<path d="M1423.03 1109.02V1121.44H1420.8V1118.88H1415.5V1117.05H1420.8V1114.5H1415.73C1414.37 1117.88 1411.21 1120.25 1406.67 1121.55L1405.78 1119.82C1410.75 1118.4 1413.65 1115.73 1414.05 1112.34H1406.86V1110.52H1416.46C1416.46 1111.29 1416.38 1112.04 1416.24 1112.74H1420.8V1109.02H1423.03ZM1409.03 1125.77C1409.03 1123.23 1411.8 1121.68 1416.11 1121.67C1420.37 1121.68 1423.16 1123.23 1423.17 1125.77C1423.16 1128.33 1420.37 1129.9 1416.11 1129.9C1411.8 1129.9 1409.03 1128.33 1409.03 1125.77ZM1411.24 1125.77C1411.24 1127.25 1413.11 1128.11 1416.11 1128.12C1419.05 1128.11 1420.93 1127.25 1420.94 1125.77C1420.93 1124.27 1419.05 1123.42 1416.11 1123.43C1413.11 1123.42 1411.24 1124.27 1411.24 1125.77ZM1431.59 1110.21C1433.34 1110.2 1434.83 1110.86 1435.81 1111.95H1441.06V1108.99H1443.29V1121.39H1441.06V1118.55H1435.8C1434.82 1119.63 1433.33 1120.28 1431.59 1120.27C1428.43 1120.28 1426.07 1118.18 1426.09 1115.25C1426.07 1112.29 1428.43 1110.2 1431.59 1110.21ZM1428.22 1115.25C1428.21 1117.09 1429.63 1118.39 1431.59 1118.37C1433.5 1118.39 1434.92 1117.09 1434.92 1115.25C1434.92 1113.36 1433.5 1112.11 1431.59 1112.13C1429.63 1112.11 1428.21 1113.36 1428.22 1115.25ZM1429.16 1125.91C1429.14 1123.35 1431.86 1121.85 1436.26 1121.86C1440.63 1121.85 1443.35 1123.35 1443.36 1125.91C1443.35 1128.47 1440.63 1129.96 1436.26 1129.95C1431.86 1129.96 1429.14 1128.47 1429.16 1125.91ZM1431.34 1125.91C1431.32 1127.36 1433.18 1128.2 1436.26 1128.19C1439.34 1128.2 1441.18 1127.36 1441.18 1125.91C1441.18 1124.41 1439.34 1123.58 1436.26 1123.57C1433.18 1123.58 1431.32 1124.41 1431.34 1125.91ZM1436.83 1113.73C1436.97 1114.2 1437.05 1114.71 1437.05 1115.25C1437.05 1115.77 1436.97 1116.27 1436.83 1116.73H1441.06V1113.73H1436.83ZM1459.16 1115.18C1459.15 1118.7 1461.45 1122.33 1464.69 1123.71L1463.47 1125.45C1461 1124.36 1459.03 1122.04 1458.06 1119.23C1457.08 1122.23 1455.11 1124.79 1452.67 1125.98L1451.38 1124.23C1454.54 1122.74 1456.88 1118.8 1456.91 1115.18V1112.95H1452.1V1111.1H1463.94V1112.95H1459.16V1115.18ZM1466.59 1129.99V1108.99H1468.81V1129.99H1466.59ZM1489.15 1109.02V1124.93H1486.92V1122.91H1482.7V1121.34H1486.92V1109.02H1489.15ZM1471.59 1118.6C1475.47 1118.57 1480.71 1118.53 1485.19 1117.97L1485.33 1119.56C1483.53 1119.87 1481.65 1120.05 1479.79 1120.18V1124.27H1477.57V1120.3C1475.53 1120.38 1473.57 1120.38 1471.87 1120.38L1471.59 1118.6ZM1473.23 1113.52C1473.22 1111.29 1475.34 1109.81 1478.46 1109.81C1481.53 1109.81 1483.66 1111.29 1483.66 1113.52C1483.66 1115.75 1481.53 1117.17 1478.46 1117.17C1475.35 1117.17 1473.22 1115.75 1473.23 1113.52ZM1474.5 1129.55V1123.38H1476.7V1127.74H1489.66V1129.55H1474.5ZM1475.34 1113.52C1475.33 1114.76 1476.6 1115.53 1478.46 1115.53C1480.25 1115.53 1481.54 1114.76 1481.55 1113.52C1481.54 1112.26 1480.25 1111.45 1478.46 1111.48C1476.6 1111.45 1475.33 1112.26 1475.34 1113.52Z" fill="#404040"/>
<path d="M958 1016L958 664" stroke="url(#paint1_linear_36_147)" stroke-width="2" stroke-linecap="round"/>
<path d="M471 1018V1018C471 989.833 493.833 967 522 967H958V1018" stroke="#D1D7E7" stroke-width="2"/>
<path d="M370 1298V1298C370 1276.46 387.461 1259 409 1259H533C554.539 1259 572 1276.46 572 1298V1298" stroke="#D1D7E7" stroke-width="2"/>
<path d="M958 1259L958 1218" stroke="url(#paint2_linear_36_147)" stroke-width="2" stroke-linecap="round"/>
<path d="M857 1298V1298C857 1276.46 874.461 1259 896 1259H1020C1041.54 1259 1059 1276.46 1059 1298V1298" stroke="#D1D7E7" stroke-width="2"/>
<path d="M1448 1259L1448 1218" stroke="url(#paint3_linear_36_147)" stroke-width="2" stroke-linecap="round"/>
<path d="M1347 1298V1298C1347 1276.46 1364.46 1259 1386 1259H1510C1531.54 1259 1549 1276.46 1549 1298V1298" stroke="#D1D7E7" stroke-width="2"/>
<path d="M958 1016V814H1358C1407.71 814 1448 854.294 1448 904V1016" stroke="#D1D7E7" stroke-width="2"/>
<circle cx="9" cy="9" r="9" transform="matrix(1 0 0 -1 949 1027)" fill="#799EFF"/>
<circle cx="9" cy="9" r="9" transform="matrix(1 0 0 -1 1439 1027)" fill="#799EFF"/>
<circle cx="9" cy="9" r="9" transform="matrix(1 0 0 -1 462 1027)" fill="#799EFF"/>
<circle cx="958" cy="543" r="113" fill="#799EFF"/>
<circle cx="958" cy="543" r="121" stroke="#799EFF" stroke-width="2"/>
<path d="M928.897 529.531V557.781H925.585V543.375H922.397V556.344H919.21V530.062H922.397V540.594H925.585V529.531H928.897ZM905.46 551.188V532.875H916.022V535.688H908.96V548.25C912.022 548.219 914.554 548.062 917.429 547.531L917.679 550.375C914.257 551.062 911.304 551.156 907.366 551.188H905.46ZM957.414 551.719V554.531H931.601V551.719H938.289V545.906H933.82V543.094H937.789V534.719H933.726V531.938H955.164V534.719H951.039V543.094H955.07V545.906H950.601V551.719H957.414ZM941.257 543.094H947.601V534.719H941.257V543.094ZM941.757 551.719H947.132V545.906H941.757V551.719ZM982.118 529.531V557.812H978.618V529.531H982.118ZM959.524 541.562C959.508 535.469 962.618 531.594 966.899 531.594C971.133 531.594 974.258 535.469 974.274 541.562C974.258 547.703 971.133 551.562 966.899 551.562C962.618 551.562 959.508 547.703 959.524 541.562ZM962.868 541.562C962.868 545.906 964.508 548.422 966.899 548.438C969.274 548.422 970.899 545.906 970.899 541.562C970.899 537.25 969.274 534.719 966.899 534.719C964.508 534.719 962.868 537.25 962.868 541.562ZM995.728 536.312C995.696 541.359 998.228 546.453 1002.6 548.562L1000.48 551.344C997.415 549.797 995.212 546.812 994.009 543.219C992.774 547.062 990.462 550.25 987.228 551.875L985.103 549.094C989.649 546.938 992.243 541.531 992.259 536.312V531.812H995.728V536.312ZM1004.29 557.781V529.531H1007.76V540.594H1012.1V543.562H1007.76V557.781H1004.29Z" fill="white"/>
<ellipse cx="1202.5" cy="814" rx="100.5" ry="101" fill="#799EFF"/>
<path d="M1199.23 801.824V807.594H1202.79V809.754H1199.23V815.66H1196.64V801.824H1199.23ZM1179.87 813.938C1185.74 812.393 1189.18 809.316 1189.66 805.488H1181.02V803.355H1192.48C1192.47 809.631 1188.21 814.047 1180.91 816.016L1179.87 813.938ZM1183.54 825.996V816.699H1199.23V825.996H1183.54ZM1186.14 823.918H1196.66V818.859H1186.14V823.918ZM1212.13 808.059C1212.1 812.393 1214.63 816.836 1218.28 818.613L1216.67 820.691C1214 819.297 1211.93 816.562 1210.85 813.295C1209.76 816.768 1207.61 819.707 1204.83 821.156L1203.21 819.051C1206.97 817.246 1209.51 812.543 1209.53 808.059V803.875H1212.13V808.059ZM1220.11 826.324V801.824H1222.71V811.586H1226.65V813.801H1222.71V826.324H1220.11Z" fill="white"/>
<path d="M713.904 216.48C710.024 216.48 706.524 215.58 703.404 213.78C700.284 211.94 697.844 209.38 696.084 206.1C694.324 202.82 693.444 199.12 693.444 195C693.444 190.84 694.324 187.14 696.084 183.9C697.844 180.62 700.284 178.08 703.404 176.28C706.524 174.44 710.024 173.52 713.904 173.52C717.784 173.52 721.284 174.44 724.404 176.28C727.524 178.08 729.964 180.62 731.724 183.9C733.484 187.14 734.364 190.84 734.364 195C734.364 199.12 733.484 202.82 731.724 206.1C729.964 209.38 727.524 211.94 724.404 213.78C721.284 215.58 717.784 216.48 713.904 216.48ZM713.904 214.08C717.224 214.08 720.224 213.3 722.904 211.74C725.584 210.18 727.684 207.96 729.204 205.08C730.764 202.2 731.544 198.84 731.544 195C731.544 191.12 730.764 187.74 729.204 184.86C727.684 181.98 725.584 179.76 722.904 178.2C720.224 176.64 717.224 175.86 713.904 175.86C710.584 175.86 707.584 176.64 704.904 178.2C702.224 179.76 700.104 181.98 698.544 184.86C696.984 187.74 696.204 191.12 696.204 195C696.204 198.84 696.984 202.2 698.544 205.08C700.104 207.96 702.224 210.18 704.904 211.74C707.584 213.3 710.584 214.08 713.904 214.08ZM744.026 190.14C744.826 187.74 746.246 185.92 748.286 184.68C750.326 183.4 752.926 182.76 756.086 182.76V185.58H755.186C751.986 185.58 749.326 186.5 747.206 188.34C745.086 190.14 744.026 193.1 744.026 197.22V216H741.326V183.42H744.026V190.14ZM775.143 183C778.583 183 781.503 183.84 783.903 185.52C786.303 187.16 787.983 189.28 788.943 191.88V183.42H791.643V217.02C791.643 220.02 790.983 222.64 789.663 224.88C788.343 227.16 786.563 228.9 784.323 230.1C782.083 231.34 779.583 231.96 776.823 231.96C772.743 231.96 769.363 230.98 766.683 229.02C764.003 227.06 762.243 224.42 761.403 221.1H764.103C764.903 223.7 766.403 225.76 768.603 227.28C770.803 228.84 773.543 229.62 776.823 229.62C779.103 229.62 781.163 229.1 783.003 228.06C784.843 227.06 786.283 225.6 787.323 223.68C788.403 221.8 788.943 219.58 788.943 217.02V207.48C787.983 210.08 786.283 212.24 783.843 213.96C781.443 215.64 778.543 216.48 775.143 216.48C772.103 216.48 769.383 215.8 766.983 214.44C764.623 213.04 762.763 211.08 761.403 208.56C760.083 206 759.423 203.04 759.423 199.68C759.423 196.32 760.083 193.38 761.403 190.86C762.763 188.34 764.623 186.4 766.983 185.04C769.383 183.68 772.103 183 775.143 183ZM788.943 199.68C788.943 196.84 788.343 194.34 787.143 192.18C785.983 189.98 784.383 188.3 782.343 187.14C780.303 185.94 778.023 185.34 775.503 185.34C772.863 185.34 770.543 185.92 768.543 187.08C766.543 188.2 764.983 189.84 763.863 192C762.743 194.16 762.183 196.72 762.183 199.68C762.183 202.64 762.743 205.2 763.863 207.36C764.983 209.52 766.543 211.18 768.543 212.34C770.583 213.5 772.903 214.08 775.503 214.08C778.023 214.08 780.303 213.5 782.343 212.34C784.423 211.14 786.043 209.46 787.203 207.3C788.363 205.1 788.943 202.56 788.943 199.68ZM798.594 199.68C798.594 196.32 799.254 193.38 800.574 190.86C801.934 188.34 803.794 186.4 806.154 185.04C808.554 183.68 811.274 183 814.314 183C817.754 183 820.674 183.84 823.074 185.52C825.474 187.2 827.154 189.34 828.114 191.94V183.42H830.814V216H828.114V207.42C827.154 210.06 825.454 212.24 823.014 213.96C820.614 215.64 817.714 216.48 814.314 216.48C811.274 216.48 808.554 215.8 806.154 214.44C803.794 213.04 801.934 211.08 800.574 208.56C799.254 206 798.594 203.04 798.594 199.68ZM828.114 199.68C828.114 196.84 827.514 194.34 826.314 192.18C825.154 189.98 823.554 188.3 821.514 187.14C819.474 185.94 817.194 185.34 814.674 185.34C812.034 185.34 809.714 185.92 807.714 187.08C805.714 188.2 804.154 189.84 803.034 192C801.914 194.16 801.354 196.72 801.354 199.68C801.354 202.64 801.914 205.2 803.034 207.36C804.154 209.52 805.714 211.18 807.714 212.34C809.754 213.5 812.074 214.08 814.674 214.08C817.194 214.08 819.474 213.5 821.514 212.34C823.594 211.14 825.214 209.46 826.374 207.3C827.534 205.1 828.114 202.56 828.114 199.68ZM854.145 182.76C858.025 182.76 861.185 183.96 863.625 186.36C866.065 188.72 867.285 192.24 867.285 196.92V216H864.645V197.1C864.645 193.22 863.665 190.26 861.705 188.22C859.745 186.14 857.085 185.1 853.725 185.1C850.205 185.1 847.385 186.22 845.265 188.46C843.185 190.7 842.145 194.02 842.145 198.42V216H839.445V183.42H842.145V190.32C843.065 187.88 844.585 186.02 846.705 184.74C848.865 183.42 851.345 182.76 854.145 182.76ZM877.008 176.16C876.368 176.16 875.828 175.96 875.388 175.56C874.948 175.12 874.728 174.54 874.728 173.82C874.728 173.14 874.948 172.58 875.388 172.14C875.828 171.7 876.368 171.48 877.008 171.48C877.648 171.48 878.188 171.7 878.628 172.14C879.068 172.58 879.288 173.14 879.288 173.82C879.288 174.54 879.068 175.12 878.628 175.56C878.188 175.96 877.648 176.16 877.008 176.16ZM878.328 183.42V216H875.628V183.42H878.328ZM887.145 213.72H905.505V216H884.145V213.72L902.025 185.7H884.565V183.42H905.085V185.7L887.145 213.72ZM909.575 199.68C909.575 196.32 910.235 193.38 911.555 190.86C912.915 188.34 914.775 186.4 917.135 185.04C919.535 183.68 922.255 183 925.295 183C928.735 183 931.655 183.84 934.055 185.52C936.455 187.2 938.135 189.34 939.095 191.94V183.42H941.795V216H939.095V207.42C938.135 210.06 936.435 212.24 933.995 213.96C931.595 215.64 928.695 216.48 925.295 216.48C922.255 216.48 919.535 215.8 917.135 214.44C914.775 213.04 912.915 211.08 911.555 208.56C910.235 206 909.575 203.04 909.575 199.68ZM939.095 199.68C939.095 196.84 938.495 194.34 937.295 192.18C936.135 189.98 934.535 188.3 932.495 187.14C930.455 185.94 928.175 185.34 925.655 185.34C923.015 185.34 920.695 185.92 918.695 187.08C916.695 188.2 915.135 189.84 914.015 192C912.895 194.16 912.335 196.72 912.335 199.68C912.335 202.64 912.895 205.2 914.015 207.36C915.135 209.52 916.695 211.18 918.695 212.34C920.735 213.5 923.055 214.08 925.655 214.08C928.175 214.08 930.455 213.5 932.495 212.34C934.575 211.14 936.195 209.46 937.355 207.3C938.515 205.1 939.095 202.56 939.095 199.68ZM954.446 185.76V207.3C954.446 209.7 954.886 211.36 955.766 212.28C956.646 213.16 958.206 213.6 960.446 213.6H964.106V216H960.026C957.186 216 955.086 215.34 953.726 214.02C952.406 212.66 951.746 210.42 951.746 207.3V185.76H946.826V183.42H951.746V175.14H954.446V183.42H964.106V185.76H954.446ZM971.407 176.16C970.767 176.16 970.227 175.96 969.787 175.56C969.347 175.12 969.127 174.54 969.127 173.82C969.127 173.14 969.347 172.58 969.787 172.14C970.227 171.7 970.767 171.48 971.407 171.48C972.047 171.48 972.587 171.7 973.027 172.14C973.467 172.58 973.687 173.14 973.687 173.82C973.687 174.54 973.467 175.12 973.027 175.56C972.587 175.96 972.047 176.16 971.407 176.16ZM972.727 183.42V216H970.027V183.42H972.727ZM995.765 216.48C992.725 216.48 989.985 215.8 987.545 214.44C985.105 213.08 983.185 211.14 981.785 208.62C980.425 206.06 979.745 203.08 979.745 199.68C979.745 196.32 980.445 193.38 981.845 190.86C983.245 188.3 985.165 186.36 987.605 185.04C990.085 183.68 992.845 183 995.885 183C998.925 183 1001.66 183.68 1004.1 185.04C1006.54 186.36 1008.44 188.28 1009.8 190.8C1011.2 193.32 1011.9 196.28 1011.9 199.68C1011.9 203.08 1011.2 206.06 1009.8 208.62C1008.4 211.14 1006.46 213.08 1003.98 214.44C1001.54 215.8 998.805 216.48 995.765 216.48ZM995.765 214.08C998.125 214.08 1000.32 213.56 1002.36 212.52C1004.44 211.44 1006.1 209.82 1007.34 207.66C1008.58 205.5 1009.2 202.84 1009.2 199.68C1009.2 196.56 1008.58 193.92 1007.34 191.76C1006.1 189.6 1004.46 188 1002.42 186.96C1000.38 185.88 998.185 185.34 995.825 185.34C993.465 185.34 991.265 185.88 989.225 186.96C987.225 188 985.605 189.6 984.365 191.76C983.125 193.92 982.505 196.56 982.505 199.68C982.505 202.84 983.105 205.5 984.305 207.66C985.545 209.82 987.165 211.44 989.165 212.52C991.205 213.56 993.405 214.08 995.765 214.08ZM1033.6 182.76C1037.48 182.76 1040.64 183.96 1043.08 186.36C1045.52 188.72 1046.74 192.24 1046.74 196.92V216H1044.1V197.1C1044.1 193.22 1043.12 190.26 1041.16 188.22C1039.2 186.14 1036.54 185.1 1033.18 185.1C1029.66 185.1 1026.84 186.22 1024.72 188.46C1022.64 190.7 1021.6 194.02 1021.6 198.42V216H1018.9V183.42H1021.6V190.32C1022.52 187.88 1024.04 186.02 1026.16 184.74C1028.32 183.42 1030.8 182.76 1033.6 182.76ZM1069.13 195C1069.13 190.84 1069.99 187.14 1071.71 183.9C1073.47 180.62 1075.87 178.06 1078.91 176.22C1081.99 174.38 1085.43 173.46 1089.23 173.46C1094.03 173.46 1098.07 174.58 1101.35 176.82C1104.63 179.06 1107.03 182.2 1108.55 186.24H1105.43C1104.23 183.04 1102.23 180.52 1099.43 178.68C1096.67 176.8 1093.27 175.86 1089.23 175.86C1085.99 175.86 1083.05 176.64 1080.41 178.2C1077.77 179.72 1075.69 181.94 1074.17 184.86C1072.65 187.74 1071.89 191.12 1071.89 195C1071.89 198.84 1072.65 202.2 1074.17 205.08C1075.69 207.92 1077.77 210.12 1080.41 211.68C1083.05 213.24 1085.99 214.02 1089.23 214.02C1093.27 214.02 1096.67 213.1 1099.43 211.26C1102.23 209.38 1104.23 206.84 1105.43 203.64H1108.55C1107.03 207.68 1104.63 210.82 1101.35 213.06C1098.07 215.3 1094.03 216.42 1089.23 216.42C1085.43 216.42 1081.99 215.52 1078.91 213.72C1075.87 211.88 1073.47 209.34 1071.71 206.1C1069.99 202.82 1069.13 199.12 1069.13 195ZM1130.54 182.76C1134.38 182.76 1137.52 183.96 1139.96 186.36C1142.4 188.72 1143.62 192.24 1143.62 196.92V216H1140.98V197.1C1140.98 193.22 1140 190.26 1138.04 188.22C1136.08 186.14 1133.42 185.1 1130.06 185.1C1126.54 185.1 1123.72 186.22 1121.6 188.46C1119.52 190.7 1118.48 194.02 1118.48 198.42V216H1115.78V171.6H1118.48V190.32C1119.4 187.88 1120.94 186.02 1123.1 184.74C1125.26 183.42 1127.74 182.76 1130.54 182.76ZM1150.29 199.68C1150.29 196.32 1150.95 193.38 1152.27 190.86C1153.63 188.34 1155.49 186.4 1157.85 185.04C1160.25 183.68 1162.97 183 1166.01 183C1169.45 183 1172.37 183.84 1174.77 185.52C1177.17 187.2 1178.85 189.34 1179.81 191.94V183.42H1182.51V216H1179.81V207.42C1178.85 210.06 1177.15 212.24 1174.71 213.96C1172.31 215.64 1169.41 216.48 1166.01 216.48C1162.97 216.48 1160.25 215.8 1157.85 214.44C1155.49 213.04 1153.63 211.08 1152.27 208.56C1150.95 206 1150.29 203.04 1150.29 199.68ZM1179.81 199.68C1179.81 196.84 1179.21 194.34 1178.01 192.18C1176.85 189.98 1175.25 188.3 1173.21 187.14C1171.17 185.94 1168.89 185.34 1166.37 185.34C1163.73 185.34 1161.41 185.92 1159.41 187.08C1157.41 188.2 1155.85 189.84 1154.73 192C1153.61 194.16 1153.05 196.72 1153.05 199.68C1153.05 202.64 1153.61 205.2 1154.73 207.36C1155.85 209.52 1157.41 211.18 1159.41 212.34C1161.45 213.5 1163.77 214.08 1166.37 214.08C1168.89 214.08 1171.17 213.5 1173.21 212.34C1175.29 211.14 1176.91 209.46 1178.07 207.3C1179.23 205.1 1179.81 202.56 1179.81 199.68ZM1193.84 190.14C1194.64 187.74 1196.06 185.92 1198.1 184.68C1200.14 183.4 1202.74 182.76 1205.9 182.76V185.58H1205C1201.8 185.58 1199.14 186.5 1197.02 188.34C1194.9 190.14 1193.84 193.1 1193.84 197.22V216H1191.14V183.42H1193.84V190.14ZM1214.94 185.76V207.3C1214.94 209.7 1215.38 211.36 1216.26 212.28C1217.14 213.16 1218.7 213.6 1220.94 213.6H1224.6V216H1220.52C1217.68 216 1215.58 215.34 1214.22 214.02C1212.9 212.66 1212.24 210.42 1212.24 207.3V185.76H1207.32V183.42H1212.24V175.14H1214.94V183.42H1224.6V185.76H1214.94Z" fill="#404040"/>
<rect x="658" y="260" width="600" height="3" fill="url(#paint4_linear_36_147)"/>
<rect x="658" y="260" width="600" height="3" fill="white" fill-opacity="0.4"/>
<defs>
<linearGradient id="paint0_linear_36_147" x1="470.999" y1="1217.01" x2="470.999" y2="1259" gradientUnits="userSpaceOnUse">
<stop stop-color="#799EFF"/>
<stop offset="0.47" stop-color="#D1D7E7"/>
</linearGradient>
<linearGradient id="paint1_linear_36_147" x1="957.999" y1="655.484" x2="958.002" y2="1016" gradientUnits="userSpaceOnUse">
<stop stop-color="#799EFF"/>
<stop offset="0.47" stop-color="#D1D7E7"/>
</linearGradient>
<linearGradient id="paint2_linear_36_147" x1="957.999" y1="1217.01" x2="957.999" y2="1259" gradientUnits="userSpaceOnUse">
<stop stop-color="#799EFF"/>
<stop offset="0.47" stop-color="#D1D7E7"/>
</linearGradient>
<linearGradient id="paint3_linear_36_147" x1="1448" y1="1217.01" x2="1448" y2="1259" gradientUnits="userSpaceOnUse">
<stop stop-color="#799EFF"/>
<stop offset="0.47" stop-color="#D1D7E7"/>
</linearGradient>
<linearGradient id="paint4_linear_36_147" x1="658" y1="260" x2="1258" y2="260" gradientUnits="userSpaceOnUse">
<stop stop-color="#00F3C7"/>
<stop offset="0.29" stop-color="#42C8FF"/>
<stop offset="1" stop-color="#7737FF"/>
</linearGradient>
</defs>
</svg>
