<svg width="1920" height="1612" viewBox="0 0 1920 1612" fill="none" xmlns="http://www.w3.org/2000/svg">
<rect width="1920" height="1612" fill="white"/>
<path d="M471 1272L471 1231" stroke="url(#paint0_linear_21_329)" stroke-width="2" stroke-linecap="round"/>
<circle cx="471" cy="1130" r="100" fill="#F5F8FF" stroke="#799EFF" stroke-width="2"/>
<path d="M458.402 1127.4C457.769 1125.39 456.234 1124.15 453.996 1124.16C451.136 1124.15 448.945 1126.4 448.933 1130.52C448.945 1134.62 451.113 1136.88 454.113 1136.87C456.82 1136.88 458.613 1135.16 458.66 1132.44H454.488V1130.3H461.167V1132.23C461.167 1136.53 458.214 1139.23 454.089 1139.23C449.496 1139.23 446.378 1135.89 446.378 1130.52C446.378 1125.1 449.589 1121.8 453.972 1121.8C457.64 1121.8 460.476 1124.08 461.05 1127.4H458.402ZM463.664 1122.03H466.805L472.172 1135.18H472.383L477.75 1122.03H480.891V1139H478.43V1126.74H478.266L473.297 1138.98H471.258L466.266 1126.72H466.125V1139H463.664V1122.03ZM483.879 1139V1122.03H489.926C493.875 1122.03 495.809 1124.4 495.809 1127.54C495.809 1130.67 493.864 1133.05 489.926 1133.05H486.458V1139H483.879ZM486.458 1130.84H489.668C492.165 1130.86 493.208 1129.45 493.208 1127.54C493.208 1125.62 492.165 1124.25 489.668 1124.23H486.458V1130.84Z" fill="#404040"/>
<ellipse cx="574.45" cy="1402" rx="90.45" ry="90.9" fill="#F5F8FF"/>
<path d="M664 1402C664 1451.71 623.903 1492 574.45 1492C524.997 1492 484.9 1451.71 484.9 1402C484.9 1352.29 524.997 1312 574.45 1312C623.903 1312 664 1352.29 664 1402Z" stroke="#799EFF" stroke-opacity="0.5" stroke-width="1.8"/>
<path d="M527.654 1376.73L531.893 1389.15H532.062L536.302 1376.73H538.812L533.307 1392H530.628L525.143 1376.73H527.654ZM540.321 1392V1376.73H542.641V1383.35H550.235V1376.73H552.555V1392H550.235V1385.33H542.641V1392H540.321ZM555.245 1392V1376.73H560.687C564.242 1376.73 565.982 1378.86 565.982 1381.69C565.982 1384.5 564.231 1386.64 560.687 1386.64H557.565V1392H555.245ZM557.565 1384.66H560.455C562.702 1384.67 563.64 1383.4 563.64 1381.69C563.64 1379.96 562.702 1378.72 560.455 1378.71H557.565V1384.66ZM583.174 1381.71C582.805 1379.73 581.17 1378.64 579.229 1378.65C576.593 1378.64 574.642 1380.66 574.631 1384.36C574.642 1388.09 576.603 1390.09 579.229 1390.08C581.149 1390.09 582.773 1389.02 583.174 1387.06L585.515 1387.09C585.03 1390.1 582.573 1392.21 579.208 1392.21C575.232 1392.21 572.332 1389.25 572.332 1384.36C572.332 1379.48 575.253 1376.52 579.208 1376.52C582.436 1376.52 584.999 1378.43 585.515 1381.71H583.174ZM588.859 1396.3C588.395 1396.29 587.942 1396.28 587.657 1396.24V1394.36C587.91 1394.38 588.353 1394.39 588.669 1394.4C589.365 1394.39 589.946 1394.35 590.483 1392.91L590.758 1392.15L586.56 1380.55H588.965L591.855 1389.43H591.981L594.871 1380.55H597.297L592.572 1393.52C591.907 1395.33 590.747 1396.29 588.859 1396.3ZM603.151 1392.23C599.807 1392.23 597.782 1389.77 597.793 1386.33C597.782 1382.83 599.881 1380.4 603.108 1380.4C605.724 1380.4 607.612 1381.94 607.855 1384.26H605.661C605.429 1383.18 604.574 1382.29 603.151 1382.28C601.294 1382.29 600.05 1383.83 600.05 1386.26C600.05 1388.77 601.263 1390.32 603.151 1390.31C604.427 1390.32 605.376 1389.61 605.661 1388.37H607.855C607.612 1390.6 605.851 1392.23 603.151 1392.23ZM611.81 1376.73V1392H609.553V1376.73H611.81ZM619.056 1392.23C615.681 1392.23 613.603 1389.9 613.614 1386.35C613.603 1382.82 615.713 1380.4 618.909 1380.4C621.514 1380.4 623.992 1382.01 623.992 1386.16V1386.96H615.85C615.913 1389.14 617.2 1390.38 619.077 1390.38C620.353 1390.38 621.187 1389.83 621.566 1389.13H623.844C623.338 1390.99 621.577 1392.23 619.056 1392.23ZM615.86 1385.27H621.777C621.777 1383.53 620.649 1382.24 618.93 1382.25C617.126 1382.24 615.955 1383.66 615.86 1385.27ZM518.245 1428H513.288V1412.73H518.393C522.897 1412.73 525.575 1415.59 525.586 1420.34C525.575 1425.11 522.897 1428 518.245 1428ZM515.609 1425.98H518.119C521.578 1425.96 523.287 1423.95 523.287 1420.34C523.287 1416.75 521.578 1414.75 518.245 1414.75H515.609V1425.98ZM532.516 1428.23C529.141 1428.23 527.063 1425.9 527.074 1422.35C527.063 1418.82 529.172 1416.4 532.368 1416.4C534.973 1416.4 537.452 1418.01 537.452 1422.16V1422.96H529.309C529.373 1425.14 530.659 1426.38 532.537 1426.38C533.813 1426.38 534.646 1425.83 535.026 1425.13H537.304C536.798 1426.99 535.036 1428.23 532.516 1428.23ZM529.32 1421.27H535.237C535.237 1419.53 534.108 1418.24 532.389 1418.25C530.586 1418.24 529.415 1419.66 529.32 1421.27ZM548.727 1416.55L544.571 1428H542.145L537.99 1416.55H540.416L543.306 1425.34H543.411L546.301 1416.55H548.727ZM554.665 1428.23C551.29 1428.23 549.212 1425.9 549.223 1422.35C549.212 1418.82 551.322 1416.4 554.517 1416.4C557.122 1416.4 559.601 1418.01 559.601 1422.16V1422.96H551.459C551.522 1425.14 552.809 1426.38 554.686 1426.38C555.962 1426.38 556.795 1425.83 557.175 1425.13H559.453C558.947 1426.99 557.186 1428.23 554.665 1428.23ZM551.469 1421.27H557.386C557.386 1419.53 556.258 1418.24 554.538 1418.25C552.735 1418.24 551.564 1419.66 551.469 1421.27ZM563.662 1412.73V1428H561.405V1412.73H563.662ZM570.824 1428.23C567.575 1428.23 565.455 1425.87 565.466 1422.33C565.455 1418.76 567.575 1416.4 570.824 1416.4C574.051 1416.4 576.16 1418.76 576.16 1422.33C576.16 1425.87 574.051 1428.23 570.824 1428.23ZM567.723 1422.33C567.723 1424.51 568.725 1426.35 570.824 1426.35C572.891 1426.35 573.882 1424.51 573.882 1422.33C573.882 1420.13 572.891 1418.27 570.824 1418.25C568.725 1418.27 567.723 1420.13 567.723 1422.33ZM577.943 1432.3V1416.55H580.137V1418.4H580.327C580.728 1417.69 581.497 1416.4 583.617 1416.4C586.391 1416.4 588.427 1418.57 588.427 1422.3C588.427 1426 586.412 1428.22 583.639 1428.23C581.561 1428.22 580.738 1426.96 580.327 1426.21H580.2V1432.3H577.943ZM580.158 1422.26C580.158 1424.67 581.213 1426.3 583.132 1426.31C585.115 1426.3 586.149 1424.56 586.149 1422.26C586.149 1420.01 585.147 1418.31 583.132 1418.32C581.192 1418.31 580.158 1419.88 580.158 1422.26ZM590.231 1428V1416.55H592.403V1418.42H592.53C593.015 1417.15 594.144 1416.4 595.652 1416.4C597.181 1416.4 598.246 1417.15 598.732 1418.42H598.858C599.396 1417.19 600.64 1416.4 602.296 1416.4C604.364 1416.4 605.83 1417.7 605.84 1420.32V1428H603.583V1420.53C603.583 1418.98 602.613 1418.34 601.432 1418.34C599.987 1418.34 599.153 1419.33 599.153 1420.7V1428H596.917V1420.41C596.917 1419.15 596.063 1418.34 594.829 1418.34C593.564 1418.34 592.488 1419.39 592.488 1420.93V1428H590.231ZM613.065 1428.23C609.69 1428.23 607.612 1425.9 607.623 1422.35C607.612 1418.82 609.722 1416.4 612.917 1416.4C615.523 1416.4 618.001 1418.01 618.001 1422.16V1422.96H609.859C609.922 1425.14 611.209 1426.38 613.086 1426.38C614.362 1426.38 615.196 1425.83 615.575 1425.13H617.853C617.347 1426.99 615.586 1428.23 613.065 1428.23ZM609.869 1421.27H615.786C615.786 1419.53 614.658 1418.24 612.939 1418.25C611.135 1418.24 609.964 1419.66 609.869 1421.27ZM622.062 1421.21V1428H619.805V1416.55H621.978V1418.42H622.104C622.642 1417.19 623.771 1416.4 625.479 1416.4C627.831 1416.4 629.392 1417.89 629.382 1420.72V1428H627.146V1421C627.135 1419.33 626.239 1418.34 624.72 1418.34C623.169 1418.34 622.062 1419.38 622.062 1421.21ZM637.05 1416.55V1418.34H634.708V1424.63C634.719 1425.92 635.352 1426.15 636.079 1426.16C636.406 1426.16 636.902 1426.13 637.218 1426.1V1428.06C636.912 1428.11 636.427 1428.15 635.805 1428.15C634.044 1428.15 632.451 1427.18 632.472 1425.09V1418.34H630.785V1416.55H632.472V1413.8H634.708V1416.55H637.05Z" fill="#404040"/>
<circle cx="367.9" cy="1402" r="90.9" fill="#F5F8FF"/>
<circle cx="367.9" cy="1402" r="90" stroke="#799EFF" stroke-opacity="0.5" stroke-width="1.8"/>
<path d="M323.882 1394.73L328.121 1407.15H328.29L332.53 1394.73H335.04L329.535 1410H326.856L321.371 1394.73H323.882ZM334.692 1406.77C334.682 1404.16 336.907 1403.48 338.975 1403.33C339.734 1403.29 341.453 1403.2 341.98 1403.18L341.97 1402.26C341.98 1400.96 341.179 1400.21 339.65 1400.21C338.321 1400.21 337.519 1400.82 337.287 1401.67H335.051C335.251 1399.77 337.023 1398.4 339.734 1398.4C341.558 1398.4 344.216 1399.06 344.227 1402.39V1410H342.033V1408.44H341.949C341.506 1409.29 340.451 1410.25 338.553 1410.25C336.38 1410.25 334.682 1409.01 334.692 1406.77ZM336.886 1406.79C336.886 1407.89 337.793 1408.45 339.059 1408.46C340.894 1408.45 341.991 1407.23 341.991 1405.87L341.98 1404.82C341.464 1404.85 339.829 1404.97 339.291 1405C337.814 1405.11 336.886 1405.67 336.886 1406.79ZM348.773 1394.73V1410H346.516V1394.73H348.773ZM351.083 1410V1398.55H353.34V1410H351.083ZM350.788 1395.45C350.798 1394.71 351.442 1394.12 352.222 1394.12C352.992 1394.12 353.636 1394.71 353.636 1395.45C353.636 1396.18 352.992 1396.78 352.222 1396.77C351.442 1396.78 350.798 1396.18 350.788 1395.45ZM359.932 1410.23C357.169 1410.22 355.144 1408 355.144 1404.3C355.144 1400.57 357.201 1398.4 359.953 1398.4C362.084 1398.4 362.854 1399.69 363.265 1400.4H363.371V1394.73H365.628V1410H363.434V1408.21H363.265C362.843 1408.96 362.021 1410.22 359.932 1410.23ZM357.443 1404.26C357.433 1406.56 358.466 1408.3 360.439 1408.31C362.358 1408.3 363.434 1406.67 363.434 1404.26C363.434 1401.88 362.379 1400.31 360.439 1400.32C358.445 1400.31 357.433 1402.01 357.443 1404.26ZM367.6 1406.77C367.59 1404.16 369.815 1403.48 371.882 1403.33C372.642 1403.29 374.361 1403.2 374.888 1403.18L374.878 1402.26C374.888 1400.96 374.087 1400.21 372.557 1400.21C371.229 1400.21 370.427 1400.82 370.195 1401.67H367.959C368.159 1399.77 369.931 1398.4 372.642 1398.4C374.466 1398.4 377.124 1399.06 377.135 1402.39V1410H374.941V1408.44H374.857C374.414 1409.29 373.359 1410.25 371.461 1410.25C369.288 1410.25 367.59 1409.01 367.6 1406.77ZM369.794 1406.79C369.794 1407.89 370.701 1408.45 371.967 1408.46C373.802 1408.45 374.899 1407.23 374.899 1405.87L374.888 1404.82C374.371 1404.85 372.737 1404.97 372.199 1405C370.722 1405.11 369.794 1405.67 369.794 1406.79ZM384.782 1398.55V1400.34H382.44V1406.63C382.451 1407.92 383.084 1408.15 383.811 1408.16C384.138 1408.16 384.634 1408.13 384.95 1408.1V1410.06C384.645 1410.11 384.159 1410.15 383.537 1410.15C381.776 1410.15 380.183 1409.18 380.204 1407.09V1400.34H378.517V1398.55H380.204V1395.8H382.44V1398.55H384.782ZM386.543 1410V1398.55H388.8V1410H386.543ZM386.248 1395.45C386.259 1394.71 386.902 1394.12 387.682 1394.12C388.452 1394.12 389.096 1394.71 389.096 1395.45C389.096 1396.18 388.452 1396.78 387.682 1396.77C386.902 1396.78 386.259 1396.18 386.248 1395.45ZM395.962 1410.23C392.714 1410.23 390.594 1407.87 390.604 1404.33C390.594 1400.76 392.714 1398.4 395.962 1398.4C399.19 1398.4 401.299 1400.76 401.299 1404.33C401.299 1407.87 399.19 1410.23 395.962 1410.23ZM392.861 1404.33C392.861 1406.51 393.863 1408.35 395.962 1408.35C398.029 1408.35 399.021 1406.51 399.021 1404.33C399.021 1402.13 398.029 1400.27 395.962 1400.25C393.863 1400.27 392.861 1402.13 392.861 1404.33ZM405.339 1403.21V1410H403.082V1398.55H405.254V1400.42H405.381C405.919 1399.19 407.047 1398.4 408.756 1398.4C411.108 1398.4 412.669 1399.89 412.658 1402.72V1410H410.422V1403C410.412 1401.33 409.515 1400.34 407.997 1400.34C406.446 1400.34 405.339 1401.38 405.339 1403.21Z" fill="#404040"/>
<path d="M1059.3 1130C1059.3 1185.23 1014.75 1230 959.8 1230C904.852 1230 860.3 1185.23 860.3 1130C860.3 1074.77 904.852 1030 959.8 1030C1014.75 1030 1059.3 1074.77 1059.3 1130Z" fill="#F5F8FF" stroke="#799EFF" stroke-width="2"/>
<path d="M905.068 1125.34C905.044 1129.17 907.365 1133.04 910.623 1134.48L909.287 1136.23C906.873 1135.09 904.962 1132.73 903.978 1129.86C903.005 1132.94 901.072 1135.47 898.552 1136.7L897.193 1134.83C900.498 1133.36 902.818 1129.34 902.818 1125.34V1121.75H905.068V1125.34ZM912.521 1141.04V1119.99H914.748V1141.04H912.521ZM928.283 1122.97C928.283 1126.39 931.928 1129.62 935.971 1130.35L934.939 1132.2C931.576 1131.48 928.494 1129.27 927.135 1126.32C925.752 1129.26 922.67 1131.45 919.307 1132.2L918.322 1130.35C922.307 1129.6 925.928 1126.39 925.939 1122.97V1121.38H928.283V1122.97ZM917.619 1138.23V1136.38H936.838V1138.23H917.619ZM946.811 1121.33V1123.16H940.952V1125.43H945.991V1127.16H940.952V1129.67C943.729 1129.65 945.545 1129.54 947.702 1129.16L947.913 1130.91C945.499 1131.37 943.495 1131.45 940.178 1131.45H938.819V1121.33H946.811ZM941.749 1140.73V1133.54H955.788V1140.73H941.749ZM943.975 1138.93H953.608V1135.3H943.975V1138.93ZM946.952 1127V1125.2H949.553V1120.34H951.663V1132.44H949.553V1127H946.952ZM953.678 1132.6V1119.99H955.788V1132.6H953.678ZM970.812 1125.34C970.789 1129.05 972.957 1132.86 976.085 1134.38L974.703 1136.16C972.417 1134.97 970.648 1132.62 969.722 1129.82C968.785 1132.8 966.945 1135.32 964.554 1136.56L963.171 1134.76C966.394 1133.21 968.574 1129.18 968.585 1125.34V1121.75H970.812V1125.34ZM977.656 1140.99V1119.99H979.882V1128.36H983.257V1130.26H979.882V1140.99H977.656ZM989.598 1120.95C992.363 1120.93 994.508 1122.54 994.965 1124.89H999.066V1119.99H1001.29V1131.27H999.066V1126.72H994.977C994.543 1129.13 992.387 1130.75 989.598 1130.75C986.387 1130.75 984.078 1128.72 984.09 1125.83C984.078 1122.97 986.387 1120.93 989.598 1120.95ZM986.223 1125.83C986.211 1127.62 987.617 1128.88 989.598 1128.88C991.543 1128.88 992.926 1127.62 992.926 1125.83C992.926 1124.02 991.543 1122.79 989.598 1122.8C987.617 1122.79 986.211 1124.02 986.223 1125.83ZM987.605 1140.73V1132.27H989.809V1134.71H999.066V1132.27H1001.29V1140.73H987.605ZM989.809 1138.91H999.066V1136.47H989.809V1138.91ZM1023.24 1132.34V1134.1H1014.66V1140.99H1012.48V1134.1H1004.02V1132.34H1023.24ZM1006.41 1129.95V1120.84H1008.62V1123.58H1018.6V1120.84H1020.83V1129.95H1006.41ZM1008.62 1128.17H1018.6V1125.36H1008.62V1128.17Z" fill="#404040"/>
<ellipse cx="1062.35" cy="1402" rx="90.45" ry="90.9" fill="#F5F8FF"/>
<path d="M1151.9 1402C1151.9 1451.71 1111.8 1492 1062.35 1492C1012.9 1492 972.8 1451.71 972.8 1402C972.8 1352.29 1012.9 1312 1062.35 1312C1111.8 1312 1151.9 1352.29 1151.9 1402Z" stroke="#799EFF" stroke-opacity="0.5" stroke-width="1.8"/>
<path d="M1042.03 1410V1394.73H1051.61V1396.73H1044.35V1401.35H1051.1V1403.33H1044.35V1408H1051.69V1410H1042.03ZM1054.03 1394.73H1056.85L1061.68 1406.56H1061.87L1066.7 1394.73H1069.53V1410H1067.31V1398.97H1067.17L1062.7 1409.98H1060.86L1056.37 1398.95H1056.24V1410H1054.03V1394.73ZM1080.53 1398.76C1080.38 1397.33 1079.14 1396.52 1077.39 1396.52C1075.52 1396.52 1074.34 1397.48 1074.33 1398.78C1074.33 1400.22 1075.9 1400.79 1077.11 1401.08L1078.59 1401.48C1080.54 1401.95 1082.99 1403.02 1083 1405.78C1082.99 1408.37 1080.93 1410.25 1077.32 1410.25C1073.91 1410.25 1071.76 1408.54 1071.61 1405.76H1073.93C1074.07 1407.43 1075.54 1408.22 1077.32 1408.23C1079.28 1408.22 1080.69 1407.24 1080.7 1405.74C1080.69 1404.41 1079.42 1403.87 1077.81 1403.44L1076 1402.95C1073.54 1402.28 1072.02 1401.04 1072.01 1398.9C1072.02 1396.27 1074.36 1394.52 1077.45 1394.52C1080.55 1394.52 1082.71 1396.29 1082.79 1398.76H1080.53Z" fill="#404040"/>
<circle cx="855.8" cy="1402" r="90.9" fill="#F5F8FF"/>
<circle cx="855.8" cy="1402" r="90" stroke="#799EFF" stroke-opacity="0.5" stroke-width="1.8"/>
<path d="M824.069 1398.46C824.058 1401.45 826.03 1404.78 828.899 1406.14L827.76 1407.7C825.64 1406.69 823.953 1404.56 823.098 1402.09C822.233 1404.78 820.462 1407.11 818.31 1408.19L817.129 1406.6C819.997 1405.22 822.075 1401.66 822.086 1398.46V1396.46H817.825V1394.79H828.182V1396.46H824.069V1398.46ZM830.207 1411.79V1392.89H832.211V1400.38H835.248V1402.07H832.211V1411.79H830.207ZM852.978 1402.09V1403.69H835.723V1402.09H843.38V1400.09H837.875V1393.76H850.848V1395.34H839.858V1398.48H850.974V1400.09H845.321V1402.09H852.978ZM837.769 1408.35C837.769 1406.16 840.227 1404.93 844.33 1404.92C848.401 1404.93 850.837 1406.16 850.848 1408.35C850.837 1410.55 848.401 1411.78 844.33 1411.79C840.227 1411.78 837.769 1410.55 837.769 1408.35ZM839.794 1408.35C839.784 1409.57 841.44 1410.23 844.33 1410.21C847.177 1410.23 848.844 1409.57 848.844 1408.35C848.844 1407.16 847.177 1406.48 844.33 1406.48C841.44 1406.48 839.784 1407.16 839.794 1408.35ZM875.022 1392.89V1411.79H873.102V1392.89H875.022ZM858.526 1406.58C861.205 1404.97 862.566 1401.53 862.576 1398.17V1396.65H859.096V1395.02H867.744V1396.65H864.496V1398.17C864.496 1401.39 865.804 1404.63 868.462 1406.16L867.259 1407.64C865.456 1406.56 864.222 1404.63 863.557 1402.35C862.882 1404.82 861.596 1406.93 859.75 1408.08L858.526 1406.58ZM866.352 1401.23V1399.58H869.284V1393.29H871.183V1410.84H869.284V1401.23H866.352ZM882.162 1394.31C884.736 1394.32 886.603 1396.49 886.909 1399.98H890.811V1392.89H892.794V1411.84H890.811V1401.6H886.93C886.708 1405.3 884.799 1407.58 882.162 1407.57C879.346 1407.58 877.353 1405.01 877.374 1400.93C877.353 1396.89 879.346 1394.32 882.162 1394.31ZM879.273 1400.93C879.283 1403.94 880.454 1405.78 882.162 1405.78C883.871 1405.78 885.042 1403.94 885.052 1400.93C885.042 1397.97 883.871 1396.11 882.162 1396.1C880.454 1396.11 879.283 1397.97 879.273 1400.93Z" fill="#404040"/>
<ellipse cx="1551.15" cy="1402" rx="90.45" ry="90.9" fill="#F5F8FF"/>
<path d="M1640.7 1402C1640.7 1451.71 1600.6 1492 1551.15 1492C1501.7 1492 1461.6 1451.71 1461.6 1402C1461.6 1352.29 1501.7 1312 1551.15 1312C1600.6 1312 1640.7 1352.29 1640.7 1402Z" stroke="#799EFF" stroke-opacity="0.5" stroke-width="1.8"/>
<path d="M1528.76 1392.91V1406.65H1526.76V1392.91H1528.76ZM1513.47 1398.86C1513.48 1396.13 1515.65 1394.19 1518.51 1394.18C1521.36 1394.19 1523.53 1396.13 1523.53 1398.86C1523.53 1401.64 1521.36 1403.57 1518.51 1403.57C1515.65 1403.57 1513.48 1401.64 1513.47 1398.86ZM1515.43 1398.86C1515.42 1400.64 1516.75 1401.82 1518.51 1401.82C1520.24 1401.82 1521.57 1400.64 1521.57 1398.86C1521.57 1397.12 1520.24 1395.93 1518.51 1395.93C1516.75 1395.93 1515.42 1397.12 1515.43 1398.86ZM1516.4 1411.39V1405.25H1518.42V1409.77H1529.33V1411.39H1516.4ZM1537.88 1397.7C1537.86 1401.05 1539.81 1404.47 1542.63 1405.84L1541.38 1407.45C1539.33 1406.37 1537.74 1404.26 1536.9 1401.74C1536.06 1404.42 1534.4 1406.69 1532.25 1407.81L1531.01 1406.18C1533.91 1404.79 1535.87 1401.16 1535.88 1397.7V1394.48H1537.88V1397.7ZM1544.04 1411.79V1392.89H1546.05V1400.42H1549.08V1402.13H1546.05V1411.79H1544.04ZM1571.63 1402.58V1404.2H1554.4V1402.58H1562.02V1400.4H1564V1402.58H1571.63ZM1555.31 1399.79C1559.05 1399.48 1561.65 1398.11 1561.89 1396.29H1556.13V1394.69H1562.02V1392.87H1564V1394.69H1569.9V1396.29H1564.12C1564.35 1398.11 1566.95 1399.48 1570.71 1399.79L1570.09 1401.33C1566.82 1401.02 1564.18 1399.93 1563.01 1398.17C1561.83 1399.93 1559.19 1401.02 1555.94 1401.33L1555.31 1399.79ZM1556.45 1408.61C1556.45 1406.56 1558.87 1405.44 1563.01 1405.44C1567.12 1405.44 1569.51 1406.56 1569.52 1408.61C1569.51 1410.65 1567.12 1411.76 1563.01 1411.75C1558.87 1411.76 1556.45 1410.65 1556.45 1408.61ZM1558.47 1408.61C1558.46 1409.68 1560.09 1410.25 1563.01 1410.23C1565.89 1410.25 1567.52 1409.68 1567.52 1408.61C1567.52 1407.53 1565.89 1406.94 1563.01 1406.94C1560.09 1406.94 1558.46 1407.53 1558.47 1408.61ZM1589.91 1403.74V1405.36H1582.19V1411.77H1580.23V1405.36H1572.62V1403.74H1589.91ZM1574.79 1401.33V1393.91H1587.74V1401.33H1574.79ZM1576.75 1399.77H1585.74V1395.51H1576.75V1399.77Z" fill="#404040"/>
<circle cx="1343.7" cy="1402" r="90.9" fill="#F5F8FF"/>
<circle cx="1343.7" cy="1402" r="90" stroke="#799EFF" stroke-opacity="0.5" stroke-width="1.8"/>
<path d="M1342.37 1392.89V1411.79H1340.45V1402.09H1338.19V1410.86H1336.3V1393.25H1338.19V1400.4H1340.45V1392.89H1342.37ZM1325.79 1406.46C1328.55 1404.91 1329.84 1401.65 1329.84 1397.89V1396.67H1326.3V1395.04H1335.07V1396.67H1331.78V1397.89C1331.78 1401.29 1333.06 1404.37 1335.81 1405.78L1334.63 1407.32C1332.77 1406.31 1331.53 1404.55 1330.85 1402.37C1330.21 1404.85 1328.97 1406.84 1327.04 1407.98L1325.79 1406.46ZM1360.04 1392.91V1404.09H1358.03V1401.79H1353.27V1400.15H1358.03V1397.85H1353.47C1352.24 1400.89 1349.41 1403.03 1345.31 1404.2L1344.51 1402.64C1348.98 1401.36 1351.6 1398.96 1351.96 1395.91H1345.48V1394.26H1354.13C1354.13 1394.96 1354.06 1395.64 1353.93 1396.27H1358.03V1392.91H1360.04ZM1347.44 1408C1347.44 1405.71 1349.93 1404.32 1353.81 1404.3C1357.64 1404.32 1360.15 1405.71 1360.16 1408C1360.15 1410.3 1357.64 1411.71 1353.81 1411.71C1349.93 1411.71 1347.44 1410.3 1347.44 1408ZM1349.43 1408C1349.43 1409.33 1351.11 1410.09 1353.81 1410.11C1356.46 1410.09 1358.15 1409.33 1358.16 1408C1358.15 1406.65 1356.46 1405.88 1353.81 1405.89C1351.11 1405.88 1349.43 1406.65 1349.43 1408Z" fill="#404040"/>
<circle cx="1447.7" cy="1132" r="100" fill="#F5F8FF" stroke="#799EFF" stroke-width="2"/>
<path d="M1423.03 1122.02V1134.44H1420.8V1131.88H1415.5V1130.05H1420.8V1127.5H1415.73C1414.37 1130.88 1411.21 1133.25 1406.67 1134.55L1405.78 1132.82C1410.75 1131.4 1413.65 1128.73 1414.05 1125.34H1406.86V1123.52H1416.46C1416.46 1124.29 1416.38 1125.04 1416.24 1125.74H1420.8V1122.02H1423.03ZM1409.03 1138.77C1409.03 1136.23 1411.8 1134.68 1416.11 1134.67C1420.37 1134.68 1423.16 1136.23 1423.17 1138.77C1423.16 1141.33 1420.37 1142.9 1416.11 1142.9C1411.8 1142.9 1409.03 1141.33 1409.03 1138.77ZM1411.24 1138.77C1411.24 1140.25 1413.11 1141.11 1416.11 1141.12C1419.05 1141.11 1420.93 1140.25 1420.94 1138.77C1420.93 1137.27 1419.05 1136.42 1416.11 1136.43C1413.11 1136.42 1411.24 1137.27 1411.24 1138.77ZM1431.59 1123.21C1433.34 1123.2 1434.83 1123.86 1435.81 1124.95H1441.06V1121.99H1443.29V1134.39H1441.06V1131.55H1435.8C1434.82 1132.63 1433.33 1133.28 1431.59 1133.27C1428.43 1133.28 1426.07 1131.18 1426.09 1128.25C1426.07 1125.29 1428.43 1123.2 1431.59 1123.21ZM1428.22 1128.25C1428.21 1130.09 1429.63 1131.39 1431.59 1131.37C1433.5 1131.39 1434.92 1130.09 1434.92 1128.25C1434.92 1126.36 1433.5 1125.11 1431.59 1125.13C1429.63 1125.11 1428.21 1126.36 1428.22 1128.25ZM1429.16 1138.91C1429.14 1136.35 1431.86 1134.85 1436.26 1134.86C1440.63 1134.85 1443.35 1136.35 1443.36 1138.91C1443.35 1141.47 1440.63 1142.96 1436.26 1142.95C1431.86 1142.96 1429.14 1141.47 1429.16 1138.91ZM1431.34 1138.91C1431.32 1140.36 1433.18 1141.2 1436.26 1141.19C1439.34 1141.2 1441.18 1140.36 1441.18 1138.91C1441.18 1137.41 1439.34 1136.58 1436.26 1136.57C1433.18 1136.58 1431.32 1137.41 1431.34 1138.91ZM1436.83 1126.73C1436.97 1127.2 1437.05 1127.71 1437.05 1128.25C1437.05 1128.77 1436.97 1129.27 1436.83 1129.73H1441.06V1126.73H1436.83ZM1459.16 1128.18C1459.15 1131.7 1461.45 1135.33 1464.69 1136.71L1463.47 1138.45C1461 1137.36 1459.03 1135.04 1458.06 1132.23C1457.08 1135.23 1455.11 1137.79 1452.67 1138.98L1451.38 1137.23C1454.54 1135.74 1456.88 1131.8 1456.91 1128.18V1125.95H1452.1V1124.1H1463.94V1125.95H1459.16V1128.18ZM1466.59 1142.99V1121.99H1468.81V1142.99H1466.59ZM1489.15 1122.02V1137.93H1486.92V1135.91H1482.7V1134.34H1486.92V1122.02H1489.15ZM1471.59 1131.6C1475.47 1131.57 1480.71 1131.53 1485.19 1130.97L1485.33 1132.56C1483.53 1132.87 1481.65 1133.05 1479.79 1133.18V1137.27H1477.57V1133.3C1475.53 1133.38 1473.57 1133.38 1471.87 1133.38L1471.59 1131.6ZM1473.23 1126.52C1473.22 1124.29 1475.34 1122.81 1478.46 1122.81C1481.53 1122.81 1483.66 1124.29 1483.66 1126.52C1483.66 1128.75 1481.53 1130.17 1478.46 1130.17C1475.35 1130.17 1473.22 1128.75 1473.23 1126.52ZM1474.5 1142.55V1136.38H1476.7V1140.74H1489.66V1142.55H1474.5ZM1475.34 1126.52C1475.33 1127.76 1476.6 1128.53 1478.46 1128.53C1480.25 1128.53 1481.54 1127.76 1481.55 1126.52C1481.54 1125.26 1480.25 1124.45 1478.46 1124.48C1476.6 1124.45 1475.33 1125.26 1475.34 1126.52Z" fill="#404040"/>
<path d="M958 1029L958 677" stroke="url(#paint1_linear_21_329)" stroke-width="2" stroke-linecap="round"/>
<path d="M471 1031V1031C471 1002.83 493.833 980 522 980H958V1031" stroke="#D1D7E7" stroke-width="2"/>
<path d="M370 1311V1311C370 1289.46 387.461 1272 409 1272H533C554.539 1272 572 1289.46 572 1311V1311" stroke="#D1D7E7" stroke-width="2"/>
<path d="M958 1272L958 1231" stroke="url(#paint2_linear_21_329)" stroke-width="2" stroke-linecap="round"/>
<path d="M857 1311V1311C857 1289.46 874.461 1272 896 1272H1020C1041.54 1272 1059 1289.46 1059 1311V1311" stroke="#D1D7E7" stroke-width="2"/>
<path d="M1448 1272L1448 1231" stroke="url(#paint3_linear_21_329)" stroke-width="2" stroke-linecap="round"/>
<path d="M1347 1311V1311C1347 1289.46 1364.46 1272 1386 1272H1510C1531.54 1272 1549 1289.46 1549 1311V1311" stroke="#D1D7E7" stroke-width="2"/>
<path d="M958 1029V827H1358C1407.71 827 1448 867.294 1448 917V1029" stroke="#D1D7E7" stroke-width="2"/>
<circle cx="9" cy="9" r="9" transform="matrix(1 0 0 -1 949 1040)" fill="#799EFF"/>
<circle cx="9" cy="9" r="9" transform="matrix(1 0 0 -1 1439 1040)" fill="#799EFF"/>
<circle cx="9" cy="9" r="9" transform="matrix(1 0 0 -1 462 1040)" fill="#799EFF"/>
<circle cx="958" cy="556" r="113" fill="#799EFF"/>
<circle cx="958" cy="556" r="121" stroke="#799EFF" stroke-width="2"/>
<path d="M928.897 542.531V570.781H925.585V556.375H922.397V569.344H919.21V543.062H922.397V553.594H925.585V542.531H928.897ZM905.46 564.188V545.875H916.022V548.688H908.96V561.25C912.022 561.219 914.554 561.062 917.429 560.531L917.679 563.375C914.257 564.062 911.304 564.156 907.366 564.188H905.46ZM957.414 564.719V567.531H931.601V564.719H938.289V558.906H933.82V556.094H937.789V547.719H933.726V544.938H955.164V547.719H951.039V556.094H955.07V558.906H950.601V564.719H957.414ZM941.257 556.094H947.601V547.719H941.257V556.094ZM941.757 564.719H947.132V558.906H941.757V564.719ZM982.118 542.531V570.812H978.618V542.531H982.118ZM959.524 554.562C959.508 548.469 962.618 544.594 966.899 544.594C971.133 544.594 974.258 548.469 974.274 554.562C974.258 560.703 971.133 564.562 966.899 564.562C962.618 564.562 959.508 560.703 959.524 554.562ZM962.868 554.562C962.868 558.906 964.508 561.422 966.899 561.438C969.274 561.422 970.899 558.906 970.899 554.562C970.899 550.25 969.274 547.719 966.899 547.719C964.508 547.719 962.868 550.25 962.868 554.562ZM995.728 549.312C995.696 554.359 998.228 559.453 1002.6 561.562L1000.48 564.344C997.415 562.797 995.212 559.812 994.009 556.219C992.774 560.062 990.462 563.25 987.228 564.875L985.103 562.094C989.649 559.938 992.243 554.531 992.259 549.312V544.812H995.728V549.312ZM1004.29 570.781V542.531H1007.76V553.594H1012.1V556.562H1007.76V570.781H1004.29Z" fill="white"/>
<ellipse cx="1202.5" cy="827" rx="100.5" ry="101" fill="#799EFF"/>
<path d="M1199.23 814.824V820.594H1202.79V822.754H1199.23V828.66H1196.64V814.824H1199.23ZM1179.87 826.938C1185.74 825.393 1189.18 822.316 1189.66 818.488H1181.02V816.355H1192.48C1192.47 822.631 1188.21 827.047 1180.91 829.016L1179.87 826.938ZM1183.54 838.996V829.699H1199.23V838.996H1183.54ZM1186.14 836.918H1196.66V831.859H1186.14V836.918ZM1212.13 821.059C1212.1 825.393 1214.63 829.836 1218.28 831.613L1216.67 833.691C1214 832.297 1211.93 829.562 1210.85 826.295C1209.76 829.768 1207.61 832.707 1204.83 834.156L1203.21 832.051C1206.97 830.246 1209.51 825.543 1209.53 821.059V816.875H1212.13V821.059ZM1220.11 839.324V814.824H1222.71V824.586H1226.65V826.801H1222.71V839.324H1220.11Z" fill="white"/>
<path d="M713.904 229.48C710.024 229.48 706.524 228.58 703.404 226.78C700.284 224.94 697.844 222.38 696.084 219.1C694.324 215.82 693.444 212.12 693.444 208C693.444 203.84 694.324 200.14 696.084 196.9C697.844 193.62 700.284 191.08 703.404 189.28C706.524 187.44 710.024 186.52 713.904 186.52C717.784 186.52 721.284 187.44 724.404 189.28C727.524 191.08 729.964 193.62 731.724 196.9C733.484 200.14 734.364 203.84 734.364 208C734.364 212.12 733.484 215.82 731.724 219.1C729.964 222.38 727.524 224.94 724.404 226.78C721.284 228.58 717.784 229.48 713.904 229.48ZM713.904 227.08C717.224 227.08 720.224 226.3 722.904 224.74C725.584 223.18 727.684 220.96 729.204 218.08C730.764 215.2 731.544 211.84 731.544 208C731.544 204.12 730.764 200.74 729.204 197.86C727.684 194.98 725.584 192.76 722.904 191.2C720.224 189.64 717.224 188.86 713.904 188.86C710.584 188.86 707.584 189.64 704.904 191.2C702.224 192.76 700.104 194.98 698.544 197.86C696.984 200.74 696.204 204.12 696.204 208C696.204 211.84 696.984 215.2 698.544 218.08C700.104 220.96 702.224 223.18 704.904 224.74C707.584 226.3 710.584 227.08 713.904 227.08ZM744.026 203.14C744.826 200.74 746.246 198.92 748.286 197.68C750.326 196.4 752.926 195.76 756.086 195.76V198.58H755.186C751.986 198.58 749.326 199.5 747.206 201.34C745.086 203.14 744.026 206.1 744.026 210.22V229H741.326V196.42H744.026V203.14ZM775.143 196C778.583 196 781.503 196.84 783.903 198.52C786.303 200.16 787.983 202.28 788.943 204.88V196.42H791.643V230.02C791.643 233.02 790.983 235.64 789.663 237.88C788.343 240.16 786.563 241.9 784.323 243.1C782.083 244.34 779.583 244.96 776.823 244.96C772.743 244.96 769.363 243.98 766.683 242.02C764.003 240.06 762.243 237.42 761.403 234.1H764.103C764.903 236.7 766.403 238.76 768.603 240.28C770.803 241.84 773.543 242.62 776.823 242.62C779.103 242.62 781.163 242.1 783.003 241.06C784.843 240.06 786.283 238.6 787.323 236.68C788.403 234.8 788.943 232.58 788.943 230.02V220.48C787.983 223.08 786.283 225.24 783.843 226.96C781.443 228.64 778.543 229.48 775.143 229.48C772.103 229.48 769.383 228.8 766.983 227.44C764.623 226.04 762.763 224.08 761.403 221.56C760.083 219 759.423 216.04 759.423 212.68C759.423 209.32 760.083 206.38 761.403 203.86C762.763 201.34 764.623 199.4 766.983 198.04C769.383 196.68 772.103 196 775.143 196ZM788.943 212.68C788.943 209.84 788.343 207.34 787.143 205.18C785.983 202.98 784.383 201.3 782.343 200.14C780.303 198.94 778.023 198.34 775.503 198.34C772.863 198.34 770.543 198.92 768.543 200.08C766.543 201.2 764.983 202.84 763.863 205C762.743 207.16 762.183 209.72 762.183 212.68C762.183 215.64 762.743 218.2 763.863 220.36C764.983 222.52 766.543 224.18 768.543 225.34C770.583 226.5 772.903 227.08 775.503 227.08C778.023 227.08 780.303 226.5 782.343 225.34C784.423 224.14 786.043 222.46 787.203 220.3C788.363 218.1 788.943 215.56 788.943 212.68ZM798.594 212.68C798.594 209.32 799.254 206.38 800.574 203.86C801.934 201.34 803.794 199.4 806.154 198.04C808.554 196.68 811.274 196 814.314 196C817.754 196 820.674 196.84 823.074 198.52C825.474 200.2 827.154 202.34 828.114 204.94V196.42H830.814V229H828.114V220.42C827.154 223.06 825.454 225.24 823.014 226.96C820.614 228.64 817.714 229.48 814.314 229.48C811.274 229.48 808.554 228.8 806.154 227.44C803.794 226.04 801.934 224.08 800.574 221.56C799.254 219 798.594 216.04 798.594 212.68ZM828.114 212.68C828.114 209.84 827.514 207.34 826.314 205.18C825.154 202.98 823.554 201.3 821.514 200.14C819.474 198.94 817.194 198.34 814.674 198.34C812.034 198.34 809.714 198.92 807.714 200.08C805.714 201.2 804.154 202.84 803.034 205C801.914 207.16 801.354 209.72 801.354 212.68C801.354 215.64 801.914 218.2 803.034 220.36C804.154 222.52 805.714 224.18 807.714 225.34C809.754 226.5 812.074 227.08 814.674 227.08C817.194 227.08 819.474 226.5 821.514 225.34C823.594 224.14 825.214 222.46 826.374 220.3C827.534 218.1 828.114 215.56 828.114 212.68ZM854.145 195.76C858.025 195.76 861.185 196.96 863.625 199.36C866.065 201.72 867.285 205.24 867.285 209.92V229H864.645V210.1C864.645 206.22 863.665 203.26 861.705 201.22C859.745 199.14 857.085 198.1 853.725 198.1C850.205 198.1 847.385 199.22 845.265 201.46C843.185 203.7 842.145 207.02 842.145 211.42V229H839.445V196.42H842.145V203.32C843.065 200.88 844.585 199.02 846.705 197.74C848.865 196.42 851.345 195.76 854.145 195.76ZM877.008 189.16C876.368 189.16 875.828 188.96 875.388 188.56C874.948 188.12 874.728 187.54 874.728 186.82C874.728 186.14 874.948 185.58 875.388 185.14C875.828 184.7 876.368 184.48 877.008 184.48C877.648 184.48 878.188 184.7 878.628 185.14C879.068 185.58 879.288 186.14 879.288 186.82C879.288 187.54 879.068 188.12 878.628 188.56C878.188 188.96 877.648 189.16 877.008 189.16ZM878.328 196.42V229H875.628V196.42H878.328ZM887.145 226.72H905.505V229H884.145V226.72L902.025 198.7H884.565V196.42H905.085V198.7L887.145 226.72ZM909.575 212.68C909.575 209.32 910.235 206.38 911.555 203.86C912.915 201.34 914.775 199.4 917.135 198.04C919.535 196.68 922.255 196 925.295 196C928.735 196 931.655 196.84 934.055 198.52C936.455 200.2 938.135 202.34 939.095 204.94V196.42H941.795V229H939.095V220.42C938.135 223.06 936.435 225.24 933.995 226.96C931.595 228.64 928.695 229.48 925.295 229.48C922.255 229.48 919.535 228.8 917.135 227.44C914.775 226.04 912.915 224.08 911.555 221.56C910.235 219 909.575 216.04 909.575 212.68ZM939.095 212.68C939.095 209.84 938.495 207.34 937.295 205.18C936.135 202.98 934.535 201.3 932.495 200.14C930.455 198.94 928.175 198.34 925.655 198.34C923.015 198.34 920.695 198.92 918.695 200.08C916.695 201.2 915.135 202.84 914.015 205C912.895 207.16 912.335 209.72 912.335 212.68C912.335 215.64 912.895 218.2 914.015 220.36C915.135 222.52 916.695 224.18 918.695 225.34C920.735 226.5 923.055 227.08 925.655 227.08C928.175 227.08 930.455 226.5 932.495 225.34C934.575 224.14 936.195 222.46 937.355 220.3C938.515 218.1 939.095 215.56 939.095 212.68ZM954.446 198.76V220.3C954.446 222.7 954.886 224.36 955.766 225.28C956.646 226.16 958.206 226.6 960.446 226.6H964.106V229H960.026C957.186 229 955.086 228.34 953.726 227.02C952.406 225.66 951.746 223.42 951.746 220.3V198.76H946.826V196.42H951.746V188.14H954.446V196.42H964.106V198.76H954.446ZM971.407 189.16C970.767 189.16 970.227 188.96 969.787 188.56C969.347 188.12 969.127 187.54 969.127 186.82C969.127 186.14 969.347 185.58 969.787 185.14C970.227 184.7 970.767 184.48 971.407 184.48C972.047 184.48 972.587 184.7 973.027 185.14C973.467 185.58 973.687 186.14 973.687 186.82C973.687 187.54 973.467 188.12 973.027 188.56C972.587 188.96 972.047 189.16 971.407 189.16ZM972.727 196.42V229H970.027V196.42H972.727ZM995.765 229.48C992.725 229.48 989.985 228.8 987.545 227.44C985.105 226.08 983.185 224.14 981.785 221.62C980.425 219.06 979.745 216.08 979.745 212.68C979.745 209.32 980.445 206.38 981.845 203.86C983.245 201.3 985.165 199.36 987.605 198.04C990.085 196.68 992.845 196 995.885 196C998.925 196 1001.66 196.68 1004.1 198.04C1006.54 199.36 1008.44 201.28 1009.8 203.8C1011.2 206.32 1011.9 209.28 1011.9 212.68C1011.9 216.08 1011.2 219.06 1009.8 221.62C1008.4 224.14 1006.46 226.08 1003.98 227.44C1001.54 228.8 998.805 229.48 995.765 229.48ZM995.765 227.08C998.125 227.08 1000.32 226.56 1002.36 225.52C1004.44 224.44 1006.1 222.82 1007.34 220.66C1008.58 218.5 1009.2 215.84 1009.2 212.68C1009.2 209.56 1008.58 206.92 1007.34 204.76C1006.1 202.6 1004.46 201 1002.42 199.96C1000.38 198.88 998.185 198.34 995.825 198.34C993.465 198.34 991.265 198.88 989.225 199.96C987.225 201 985.605 202.6 984.365 204.76C983.125 206.92 982.505 209.56 982.505 212.68C982.505 215.84 983.105 218.5 984.305 220.66C985.545 222.82 987.165 224.44 989.165 225.52C991.205 226.56 993.405 227.08 995.765 227.08ZM1033.6 195.76C1037.48 195.76 1040.64 196.96 1043.08 199.36C1045.52 201.72 1046.74 205.24 1046.74 209.92V229H1044.1V210.1C1044.1 206.22 1043.12 203.26 1041.16 201.22C1039.2 199.14 1036.54 198.1 1033.18 198.1C1029.66 198.1 1026.84 199.22 1024.72 201.46C1022.64 203.7 1021.6 207.02 1021.6 211.42V229H1018.9V196.42H1021.6V203.32C1022.52 200.88 1024.04 199.02 1026.16 197.74C1028.32 196.42 1030.8 195.76 1033.6 195.76ZM1069.13 208C1069.13 203.84 1069.99 200.14 1071.71 196.9C1073.47 193.62 1075.87 191.06 1078.91 189.22C1081.99 187.38 1085.43 186.46 1089.23 186.46C1094.03 186.46 1098.07 187.58 1101.35 189.82C1104.63 192.06 1107.03 195.2 1108.55 199.24H1105.43C1104.23 196.04 1102.23 193.52 1099.43 191.68C1096.67 189.8 1093.27 188.86 1089.23 188.86C1085.99 188.86 1083.05 189.64 1080.41 191.2C1077.77 192.72 1075.69 194.94 1074.17 197.86C1072.65 200.74 1071.89 204.12 1071.89 208C1071.89 211.84 1072.65 215.2 1074.17 218.08C1075.69 220.92 1077.77 223.12 1080.41 224.68C1083.05 226.24 1085.99 227.02 1089.23 227.02C1093.27 227.02 1096.67 226.1 1099.43 224.26C1102.23 222.38 1104.23 219.84 1105.43 216.64H1108.55C1107.03 220.68 1104.63 223.82 1101.35 226.06C1098.07 228.3 1094.03 229.42 1089.23 229.42C1085.43 229.42 1081.99 228.52 1078.91 226.72C1075.87 224.88 1073.47 222.34 1071.71 219.1C1069.99 215.82 1069.13 212.12 1069.13 208ZM1130.54 195.76C1134.38 195.76 1137.52 196.96 1139.96 199.36C1142.4 201.72 1143.62 205.24 1143.62 209.92V229H1140.98V210.1C1140.98 206.22 1140 203.26 1138.04 201.22C1136.08 199.14 1133.42 198.1 1130.06 198.1C1126.54 198.1 1123.72 199.22 1121.6 201.46C1119.52 203.7 1118.48 207.02 1118.48 211.42V229H1115.78V184.6H1118.48V203.32C1119.4 200.88 1120.94 199.02 1123.1 197.74C1125.26 196.42 1127.74 195.76 1130.54 195.76ZM1150.29 212.68C1150.29 209.32 1150.95 206.38 1152.27 203.86C1153.63 201.34 1155.49 199.4 1157.85 198.04C1160.25 196.68 1162.97 196 1166.01 196C1169.45 196 1172.37 196.84 1174.77 198.52C1177.17 200.2 1178.85 202.34 1179.81 204.94V196.42H1182.51V229H1179.81V220.42C1178.85 223.06 1177.15 225.24 1174.71 226.96C1172.31 228.64 1169.41 229.48 1166.01 229.48C1162.97 229.48 1160.25 228.8 1157.85 227.44C1155.49 226.04 1153.63 224.08 1152.27 221.56C1150.95 219 1150.29 216.04 1150.29 212.68ZM1179.81 212.68C1179.81 209.84 1179.21 207.34 1178.01 205.18C1176.85 202.98 1175.25 201.3 1173.21 200.14C1171.17 198.94 1168.89 198.34 1166.37 198.34C1163.73 198.34 1161.41 198.92 1159.41 200.08C1157.41 201.2 1155.85 202.84 1154.73 205C1153.61 207.16 1153.05 209.72 1153.05 212.68C1153.05 215.64 1153.61 218.2 1154.73 220.36C1155.85 222.52 1157.41 224.18 1159.41 225.34C1161.45 226.5 1163.77 227.08 1166.37 227.08C1168.89 227.08 1171.17 226.5 1173.21 225.34C1175.29 224.14 1176.91 222.46 1178.07 220.3C1179.23 218.1 1179.81 215.56 1179.81 212.68ZM1193.84 203.14C1194.64 200.74 1196.06 198.92 1198.1 197.68C1200.14 196.4 1202.74 195.76 1205.9 195.76V198.58H1205C1201.8 198.58 1199.14 199.5 1197.02 201.34C1194.9 203.14 1193.84 206.1 1193.84 210.22V229H1191.14V196.42H1193.84V203.14ZM1214.94 198.76V220.3C1214.94 222.7 1215.38 224.36 1216.26 225.28C1217.14 226.16 1218.7 226.6 1220.94 226.6H1224.6V229H1220.52C1217.68 229 1215.58 228.34 1214.22 227.02C1212.9 225.66 1212.24 223.42 1212.24 220.3V198.76H1207.32V196.42H1212.24V188.14H1214.94V196.42H1224.6V198.76H1214.94Z" fill="#404040"/>
<rect x="658" y="273" width="600" height="3" fill="url(#paint4_linear_21_329)"/>
<rect x="658" y="273" width="600" height="3" fill="white" fill-opacity="0.4"/>
<defs>
<linearGradient id="paint0_linear_21_329" x1="470.999" y1="1230.01" x2="470.999" y2="1272" gradientUnits="userSpaceOnUse">
<stop stop-color="#799EFF"/>
<stop offset="0.47" stop-color="#D1D7E7"/>
</linearGradient>
<linearGradient id="paint1_linear_21_329" x1="957.999" y1="668.484" x2="958.002" y2="1029" gradientUnits="userSpaceOnUse">
<stop stop-color="#799EFF"/>
<stop offset="0.47" stop-color="#D1D7E7"/>
</linearGradient>
<linearGradient id="paint2_linear_21_329" x1="957.999" y1="1230.01" x2="957.999" y2="1272" gradientUnits="userSpaceOnUse">
<stop stop-color="#799EFF"/>
<stop offset="0.47" stop-color="#D1D7E7"/>
</linearGradient>
<linearGradient id="paint3_linear_21_329" x1="1448" y1="1230.01" x2="1448" y2="1272" gradientUnits="userSpaceOnUse">
<stop stop-color="#799EFF"/>
<stop offset="0.47" stop-color="#D1D7E7"/>
</linearGradient>
<linearGradient id="paint4_linear_21_329" x1="658" y1="273" x2="1258" y2="273" gradientUnits="userSpaceOnUse">
<stop stop-color="#00F3C7"/>
<stop offset="0.29" stop-color="#42C8FF"/>
<stop offset="1" stop-color="#7737FF"/>
</linearGradient>
</defs>
</svg>
