<svg width="126" height="44" viewBox="0 0 126 44" fill="none" xmlns="http://www.w3.org/2000/svg">
<rect x="105.95" y="5.63837" width="65.6103" height="5.63838" transform="rotate(-180 105.95 5.63837)" fill="white" fill-opacity="0.6"/>
<path d="M116.808 33.1743C114.949 33.1743 113.282 32.8463 111.806 32.1902C110.329 31.5067 109.154 30.5909 108.279 29.4427C107.432 28.2946 106.967 27.0234 106.885 25.6291H112.667C112.776 26.5039 113.2 27.2284 113.938 27.8025C114.703 28.3766 115.646 28.6636 116.767 28.6636C117.861 28.6636 118.708 28.4449 119.31 28.0075C119.938 27.5701 120.253 27.0097 120.253 26.3262C120.253 25.5881 119.87 25.0414 119.105 24.686C118.367 24.3033 117.177 23.8932 115.537 23.4558C113.842 23.0457 112.448 22.622 111.354 22.1846C110.288 21.7472 109.359 21.0774 108.566 20.1753C107.801 19.2731 107.418 18.0566 107.418 16.5257C107.418 15.2682 107.773 14.12 108.484 13.0812C109.222 12.0423 110.261 11.2222 111.601 10.6208C112.967 10.0193 114.567 9.71863 116.398 9.71863C119.105 9.71863 121.264 10.4021 122.877 11.769C124.49 13.1085 125.379 14.9264 125.543 17.2228H120.048C119.966 16.3207 119.583 15.6099 118.9 15.0905C118.244 14.5437 117.355 14.2703 116.234 14.2703C115.195 14.2703 114.389 14.4617 113.815 14.8444C113.268 15.2272 112.995 15.7602 112.995 16.4437C112.995 17.2091 113.377 17.7969 114.143 18.207C114.908 18.5897 116.098 18.9861 117.71 19.3961C119.351 19.8062 120.704 20.2299 121.77 20.6674C122.836 21.1048 123.752 21.7882 124.518 22.7177C125.31 23.6198 125.72 24.8227 125.748 26.3262C125.748 27.6385 125.379 28.814 124.641 29.8528C123.93 30.8916 122.891 31.7118 121.524 32.3132C120.185 32.8873 118.613 33.1743 116.808 33.1743Z" fill="white"/>
<path d="M78.8467 21.3645C78.8467 19.0681 79.2978 17.0314 80.1999 15.2545C81.1294 13.4776 82.3732 12.1107 83.9315 11.1539C85.5171 10.197 87.2803 9.71863 89.2213 9.71863C90.9162 9.71863 92.3925 10.0603 93.65 10.7438C94.9349 11.4272 95.96 12.2884 96.7255 13.3272V10.0877H102.507V32.8053H96.7255V29.4837C95.9874 30.5499 94.9622 31.4384 93.65 32.1492C92.3651 32.8326 90.8752 33.1743 89.1803 33.1743C87.2667 33.1743 85.5171 32.6822 83.9315 31.6981C82.3732 30.7139 81.1294 29.3334 80.1999 27.5564C79.2978 25.7522 78.8467 23.6882 78.8467 21.3645ZM96.7255 21.4465C96.7255 20.0523 96.4521 18.8631 95.9054 17.8789C95.3586 16.8674 94.6205 16.102 93.691 15.5826C92.7615 15.0358 91.7637 14.7624 90.6976 14.7624C89.6314 14.7624 88.6472 15.0221 87.7451 15.5415C86.8429 16.061 86.1048 16.8264 85.5307 17.8379C84.984 18.8221 84.7106 19.9976 84.7106 21.3645C84.7106 22.7313 84.984 23.9342 85.5307 24.973C86.1048 25.9845 86.8429 26.7636 87.7451 27.3104C88.6746 27.8571 89.6587 28.1305 90.6976 28.1305C91.7637 28.1305 92.7615 27.8708 93.691 27.3514C94.6205 26.8047 95.3586 26.0392 95.9054 25.055C96.4521 24.0435 96.7255 22.8407 96.7255 21.4465Z" fill="white"/>
<path d="M61.4303 9.71863C63.1252 9.71863 64.6151 10.0603 65.9 10.7438C67.1849 11.3999 68.1964 12.261 68.9345 13.3272V10.0877H74.7164V32.9693C74.7164 35.0743 74.2927 36.9469 73.4452 38.5872C72.5977 40.2548 71.3265 41.567 69.6316 42.5238C67.9367 43.5079 65.8863 44 63.4806 44C60.2548 44 57.603 43.2482 55.5254 41.7447C53.475 40.2411 52.3132 38.1908 52.0398 35.5937H57.7397C58.0404 36.6325 58.6829 37.4527 59.667 38.0541C60.6785 38.6829 61.895 38.9972 63.3166 38.9972C64.9842 38.9972 66.3374 38.4915 67.3762 37.48C68.4151 36.4958 68.9345 34.9923 68.9345 32.9693V29.4427C68.1964 30.5089 67.1712 31.3974 65.859 32.1082C64.5741 32.8189 63.0979 33.1743 61.4303 33.1743C59.5167 33.1743 57.7671 32.6822 56.1815 31.6981C54.5959 30.7139 53.3384 29.3334 52.4089 27.5564C51.5067 25.7522 51.0557 23.6882 51.0557 21.3645C51.0557 19.0681 51.5067 17.0314 52.4089 15.2545C53.3384 13.4776 54.5822 12.1107 56.1405 11.1539C57.726 10.197 59.4893 9.71863 61.4303 9.71863ZM68.9345 21.4465C68.9345 20.0523 68.6611 18.8631 68.1143 17.8789C67.5676 16.8674 66.8295 16.102 65.9 15.5826C64.9705 15.0358 63.9727 14.7624 62.9065 14.7624C61.8404 14.7624 60.8562 15.0221 59.9541 15.5415C59.0519 16.061 58.3138 16.8264 57.7397 17.8379C57.193 18.8221 56.9196 19.9976 56.9196 21.3645C56.9196 22.7313 57.193 23.9342 57.7397 24.973C58.3138 25.9845 59.0519 26.7636 59.9541 27.3104C60.8835 27.8571 61.8677 28.1305 62.9065 28.1305C63.9727 28.1305 64.9705 27.8708 65.9 27.3514C66.8295 26.8047 67.5676 26.0392 68.1143 25.055C68.6611 24.0435 68.9345 22.8407 68.9345 21.4465Z" fill="white"/>
<path d="M48.3416 20.9544C48.3416 21.7745 48.287 22.5126 48.1776 23.1687H31.57C31.7067 24.809 32.2808 26.0939 33.2923 27.0234C34.3038 27.9528 35.5476 28.4176 37.0238 28.4176C39.1562 28.4176 40.6734 27.5018 41.5756 25.6701H47.7675C47.1114 27.8572 45.8539 29.6614 43.9949 31.083C42.136 32.4772 39.8533 33.1743 37.1469 33.1743C34.9599 33.1743 32.9915 32.6959 31.2419 31.7391C29.5197 30.7549 28.1665 29.3744 27.1823 27.5974C26.2255 25.8205 25.7471 23.7702 25.7471 21.4465C25.7471 19.0954 26.2255 17.0314 27.1823 15.2545C28.1391 13.4776 29.4787 12.1107 31.2009 11.1539C32.9232 10.197 34.9052 9.71863 37.1469 9.71863C39.3065 9.71863 41.2338 10.1834 42.9288 11.1128C44.651 12.0423 45.9769 13.3682 46.9064 15.0905C47.8632 16.7854 48.3416 18.74 48.3416 20.9544ZM42.3957 19.3141C42.3684 17.8379 41.8353 16.6624 40.7964 15.7876C39.7576 14.8854 38.4864 14.4344 36.9828 14.4344C35.5613 14.4344 34.3584 14.8718 33.3743 15.7466C32.4175 16.594 31.8297 17.7832 31.611 19.3141H42.3957Z" fill="white"/>
<path d="M11.8919 27.5155L21.6719 0H27.7818L15.3364 32.8053H8.36532L0 10.0878H6.15097L11.8919 27.5155Z" fill="white"/>
<rect x="88.5225" y="5.63837" width="65.6103" height="5.63838" transform="rotate(-180 88.5225 5.63837)" fill="white"/>
</svg>
