<svg width="170" height="66" viewBox="0 0 170 66" fill="none" xmlns="http://www.w3.org/2000/svg">
<ellipse cx="8.96219" cy="8.96218" rx="8.96219" ry="8.96218" transform="matrix(0.823298 -0.567609 -0.567611 -0.823297 43.4531 66)" fill="white"/>
<path d="M41.3309 42.7904C45.817 42.0058 49.0589 37.8853 48.6955 33.223C48.3107 28.2856 44.0285 24.6104 39.1309 25.0141C34.5272 25.3936 31.0185 29.2421 30.9336 33.8035C30.542 37.6199 27.8129 40.7713 24.1373 41.6913C19.6016 42.4335 16.3108 46.5795 16.6768 51.275C17.0615 56.2124 21.3438 59.8876 26.2413 59.4839C30.8215 59.1064 34.3178 55.2952 34.4371 50.7645C34.7801 46.997 37.4273 43.8303 41.0707 42.8597L41.3309 42.7904Z" fill="white"/>
<path d="M22.7175 10.1243C23.113 15.0581 19.434 19.3785 14.5002 19.774C9.56631 20.1696 5.24597 16.4906 4.85041 11.5567C4.45485 6.6229 8.13387 2.30256 13.0677 1.90701C18.0016 1.51145 22.3219 5.19046 22.7175 10.1243Z" fill="white"/>
<path d="M35.4939 22.9851C40.0189 22.2077 43.283 18.0912 42.9087 13.4269C42.5123 8.48744 38.1857 4.80401 33.245 5.19977C28.6006 5.57178 25.0668 9.41574 24.9887 13.9783C24.5998 17.7953 21.8515 20.9431 18.1445 21.8574C13.5694 22.5923 10.256 26.7342 10.6329 31.4317C11.0293 36.3712 15.3559 40.0546 20.2967 39.6588C24.9172 39.2887 28.4386 35.4821 28.5515 30.9503C28.8914 27.1821 31.557 24.0189 35.2315 23.054L35.4939 22.9851Z" fill="white"/>
<path d="M161.388 41.7022C159.798 41.7022 158.372 41.4217 157.11 40.8606C155.847 40.2761 154.842 39.4929 154.094 38.511C153.369 37.5291 152.972 36.442 152.901 35.2497H157.846C157.939 35.9978 158.302 36.6174 158.933 37.1083C159.588 37.5993 160.394 37.8447 161.353 37.8447C162.288 37.8447 163.013 37.6577 163.527 37.2837C164.065 36.9096 164.334 36.4303 164.334 35.8459C164.334 35.2146 164.006 34.7471 163.352 34.4431C162.72 34.1158 161.703 33.7652 160.301 33.3911C158.851 33.0404 157.659 32.678 156.724 32.304C155.812 31.9299 155.017 31.3572 154.339 30.5857C153.685 29.8142 153.357 28.7738 153.357 27.4646C153.357 26.3892 153.661 25.4073 154.269 24.5189C154.9 23.6305 155.789 22.9291 156.934 22.4148C158.103 21.9005 159.471 21.6433 161.037 21.6433C163.352 21.6433 165.199 22.2278 166.578 23.3967C167.957 24.5423 168.717 26.0969 168.857 28.0608H164.158C164.088 27.2893 163.761 26.6814 163.176 26.2372C162.615 25.7696 161.855 25.5359 160.897 25.5359C160.009 25.5359 159.319 25.6995 158.828 26.0268C158.36 26.3541 158.127 26.81 158.127 27.3945C158.127 28.0491 158.454 28.5517 159.108 28.9024C159.763 29.2297 160.78 29.5687 162.159 29.9194C163.562 30.27 164.719 30.6324 165.631 31.0065C166.543 31.3805 167.326 31.965 167.981 32.7599C168.659 33.5314 169.009 34.56 169.033 35.8459C169.033 36.968 168.717 37.9733 168.086 38.8617C167.478 39.7501 166.59 40.4515 165.421 40.9658C164.275 41.4567 162.931 41.7022 161.388 41.7022Z" fill="white"/>
<path d="M129.726 31.6027C129.726 29.6389 130.111 27.8972 130.883 26.3776C131.678 24.8579 132.741 23.689 134.074 22.8708C135.43 22.0525 136.938 21.6434 138.598 21.6434C140.047 21.6434 141.31 21.9356 142.385 22.5201C143.484 23.1045 144.361 23.841 145.015 24.7294V21.959H149.96V41.3867H145.015V38.5462C144.384 39.4579 143.507 40.2177 142.385 40.8256C141.286 41.41 140.012 41.7023 138.563 41.7023C136.926 41.7023 135.43 41.2815 134.074 40.4398C132.741 39.5982 131.678 38.4176 130.883 36.898C130.111 35.355 129.726 33.5899 129.726 31.6027ZM145.015 31.6728C145.015 30.4805 144.781 29.4635 144.314 28.6219C143.846 27.7569 143.215 27.1023 142.42 26.6581C141.625 26.1905 140.772 25.9567 139.86 25.9567C138.948 25.9567 138.107 26.1788 137.335 26.623C136.564 27.0672 135.933 27.7218 135.442 28.5868C134.974 29.4285 134.74 30.4338 134.74 31.6027C134.74 32.7716 134.974 33.8003 135.442 34.6887C135.933 35.5537 136.564 36.22 137.335 36.6876C138.13 37.1551 138.972 37.3889 139.86 37.3889C140.772 37.3889 141.625 37.1668 142.42 36.7226C143.215 36.255 143.846 35.6004 144.314 34.7588C144.781 33.8938 145.015 32.8651 145.015 31.6728Z" fill="white"/>
<path d="M114.831 21.6434C116.281 21.6434 117.555 21.9356 118.654 22.5201C119.752 23.0812 120.617 23.8176 121.249 24.7294V21.959H126.193V41.5269C126.193 43.3271 125.831 44.9285 125.106 46.3313C124.381 47.7574 123.294 48.8795 121.845 49.6978C120.395 50.5394 118.642 50.9602 116.585 50.9602C113.826 50.9602 111.558 50.3173 109.781 49.0315C108.028 47.7457 107.034 45.9923 106.801 43.7713H111.675C111.932 44.6597 112.482 45.361 113.323 45.8754C114.188 46.4131 115.229 46.6819 116.444 46.6819C117.87 46.6819 119.028 46.2494 119.916 45.3844C120.804 44.5428 121.249 43.257 121.249 41.5269V38.5111C120.617 39.4229 119.741 40.1827 118.619 40.7905C117.52 41.3984 116.257 41.7023 114.831 41.7023C113.195 41.7023 111.698 41.2815 110.342 40.4398C108.987 39.5982 107.911 38.4176 107.116 36.898C106.345 35.355 105.959 33.5899 105.959 31.6027C105.959 29.6389 106.345 27.8972 107.116 26.3776C107.911 24.8579 108.975 23.689 110.307 22.8708C111.663 22.0525 113.171 21.6434 114.831 21.6434ZM121.249 31.6728C121.249 30.4805 121.015 29.4635 120.547 28.6219C120.08 27.7569 119.449 27.1023 118.654 26.6581C117.859 26.1905 117.005 25.9567 116.094 25.9567C115.182 25.9567 114.34 26.1788 113.569 26.623C112.797 27.0672 112.166 27.7218 111.675 28.5868C111.208 29.4285 110.974 30.4338 110.974 31.6027C110.974 32.7716 111.208 33.8003 111.675 34.6887C112.166 35.5537 112.797 36.22 113.569 36.6876C114.364 37.1551 115.205 37.3889 116.094 37.3889C117.005 37.3889 117.859 37.1668 118.654 36.7226C119.449 36.255 120.08 35.6004 120.547 34.7588C121.015 33.8938 121.249 32.8651 121.249 31.6728Z" fill="white"/>
<path d="M103.637 31.2519C103.637 31.9533 103.59 32.5845 103.497 33.1456H89.2941C89.411 34.5483 89.902 35.6471 90.767 36.442C91.632 37.2369 92.6957 37.6343 93.9582 37.6343C95.7817 37.6343 97.0792 36.8511 97.8507 35.2848H103.146C102.585 37.1551 101.51 38.6981 99.9198 39.9137C98.33 41.1061 96.3779 41.7022 94.0634 41.7022C92.1931 41.7022 90.5098 41.2931 89.0136 40.4748C87.5407 39.6332 86.3835 38.4526 85.5418 36.933C84.7236 35.4134 84.3145 33.66 84.3145 31.6728C84.3145 29.6622 84.7236 27.8971 85.5418 26.3775C86.3601 24.8579 87.5057 23.6889 88.9785 22.8707C90.4514 22.0524 92.1463 21.6433 94.0634 21.6433C95.9103 21.6433 97.5585 22.0407 99.008 22.8356C100.481 23.6305 101.615 24.7644 102.41 26.2372C103.228 27.6867 103.637 29.3583 103.637 31.2519ZM98.5521 29.8492C98.5287 28.5868 98.0728 27.5815 97.1844 26.8334C96.2961 26.0619 95.2089 25.6761 93.9231 25.6761C92.7074 25.6761 91.6788 26.0502 90.8371 26.7983C90.0189 27.523 89.5162 28.54 89.3292 29.8492H98.5521Z" fill="white"/>
<path d="M72.6854 36.863L77.5949 21.9591H82.8201L75.6311 41.3868H69.6695L62.5156 21.9591H67.7758L72.6854 36.863Z" fill="white"/>
</svg>
