<svg width="765" height="342" viewBox="0 0 765 342" fill="none" xmlns="http://www.w3.org/2000/svg">
<g filter="url(#filter0_d_662_43)">
<path d="M101.973 177.411L127.097 258.722H128.011L153.135 177.411H182.066L144.76 287.653H110.348L72.89 177.411H101.973ZM217.178 287.653V177.411H293.464V198.577H243.064V221.873H289.505V243.039H243.064V266.488H293.616V287.653H217.178ZM405.929 213.346C403.34 204.058 395.879 198.729 385.068 198.729C368.928 198.729 358.574 210.91 358.574 232.38C358.574 254.002 368.319 266.335 385.068 266.335C399.762 266.335 408.06 258.646 408.365 246.693H386.134V227.66H433.337V242.125C433.337 271.513 413.085 289.176 384.916 289.176C353.397 289.176 332.079 267.554 332.079 232.684C332.079 196.597 355.224 175.889 384.459 175.889C409.888 175.889 429.53 191.42 432.271 213.346H405.929ZM491.747 287.653H463.729L501.187 177.411H535.599L572.905 287.653H545.04L537.579 264.051H499.208L491.747 287.653ZM505.451 244.257H531.336L518.85 204.667H517.936L505.451 244.257ZM664.204 210.149C663.595 202.079 657.657 197.358 646.998 197.358C636.492 197.358 631.162 201.926 631.01 208.169C630.858 215.021 637.557 218.371 647.455 220.503L657.048 222.787C678.213 227.507 690.546 238.014 690.699 255.677C690.546 276.537 674.406 289.176 646.998 289.176C619.59 289.176 601.775 276.69 601.318 251.413H626.29C626.899 262.072 634.817 267.554 646.694 267.554C657.657 267.554 664.204 262.681 664.357 255.677C664.204 249.282 658.57 245.932 646.389 243.191L634.817 240.45C615.783 236.034 604.211 226.594 604.211 209.997C604.059 189.593 622.179 175.889 647.15 175.889C672.579 175.889 688.872 189.745 689.176 210.149H664.204Z" fill="white"/>
</g>
<path d="M6.19806 93.6324V51.2106H8.13165V91.7574H29.1082V93.6324H6.19806ZM36.5801 93.6324V51.2106H59.7246V53.027H38.5137V71.484H58.4356V73.359H38.5137V91.7574H60.252V93.6324H36.5801ZM65.8488 93.6324H63.7981L78.9738 51.2106H81.3762L96.6106 93.6324H94.5598L89.5793 79.6871H70.8293L65.8488 93.6324ZM71.4738 77.8121H88.9348L80.3215 53.6715H80.0871L71.4738 77.8121ZM113.809 93.6324H102.383V51.2106H114.805C126.641 51.2106 133.672 59.0621 133.614 72.2457C133.614 85.7809 126.348 93.6324 113.809 93.6324ZM104.317 91.7574H113.809C125.352 91.7574 131.739 84.4918 131.739 72.2457C131.68 60.234 125.586 53.027 114.805 53.027H104.317V91.7574ZM143.605 51.2106V93.6324H141.671V51.2106H143.605ZM186.057 51.2106V93.6324H184.182L156.116 54.7848H155.882V93.6324H153.948V51.2106H155.882L183.948 90.0582H184.182V51.2106H186.057ZM226.342 64.4528C225.17 58.7106 220.189 52.4996 211.869 52.4996C202.494 52.4996 196.049 60.3512 196.049 72.4215C196.049 84.3746 202.377 92.3434 212.045 92.3434C220.541 92.3434 226.635 86.191 226.693 75.9371H212.572V74.0621H228.627V75.9371C228.627 87.3629 221.654 94.2184 212.045 94.2184C201.205 94.2184 194.115 85.4879 194.115 72.4215C194.115 59.2965 201.264 50.6246 211.869 50.6246C221.654 50.6246 227.221 58.066 228.275 64.4528H226.342ZM281.422 51.2106V93.6324H279.547L251.481 54.7848H251.246V93.6324H249.313V51.2106H251.246L279.313 90.0582H279.547V51.2106H281.422ZM291.765 93.6324V51.2106H314.91V53.027H293.699V71.484H313.621V73.359H293.699V91.7574H315.437V93.6324H291.765ZM330.409 93.6324L318.749 51.2106H320.741L331.522 90.6442H331.698L342.186 51.2106H344.647L355.136 90.6442H355.37L366.093 51.2106H368.143L356.483 93.6324H354.081L343.534 54.316H343.358L332.811 93.6324H330.409ZM382.97 53.027V51.2106H412.15V53.027H398.556V93.6324H396.622V53.027H382.97ZM419.504 93.6324V51.2106H442.649V53.027H421.438V71.484H441.36V73.359H421.438V91.7574H443.176V93.6324H419.504ZM481.117 64.4528C480.004 58.8278 474.906 52.4996 466.703 52.4996C458.207 52.4996 450.882 59.5895 450.882 72.4215C450.882 85.3707 458.207 92.3434 466.703 92.3434C474.906 92.3434 480.004 86.0739 481.117 80.3903H483.109C481.996 86.777 476.488 94.2184 466.703 94.2184C456.214 94.2184 448.949 85.4879 448.949 72.4215C448.949 59.3551 456.214 50.6246 466.703 50.6246C476.488 50.6246 481.996 58.0074 483.109 64.4528H481.117ZM490.991 93.6324V51.2106H492.925V71.484H519.292V51.2106H521.225V93.6324H519.292V73.359H492.925V93.6324H490.991ZM563.619 51.2106V93.6324H561.744L533.678 54.7848H533.443V93.6324H531.51V51.2106H533.443L561.51 90.0582H561.744V51.2106H563.619ZM607.185 72.4215C607.185 85.4293 599.978 94.2184 589.431 94.2184C578.884 94.2184 571.677 85.4293 571.677 72.4215C571.677 59.4137 578.943 50.6246 589.431 50.6246C599.978 50.6246 607.185 59.3551 607.185 72.4215ZM605.31 72.4215C605.251 60.4098 598.806 52.4996 589.431 52.4996C580.114 52.4996 573.611 60.3512 573.611 72.4215C573.611 84.316 579.997 92.3434 589.431 92.3434C598.806 92.3434 605.31 84.4332 605.31 72.4215ZM615.243 93.6324V51.2106H617.176V91.7574H638.153V93.6324H615.243ZM677.148 72.4215C677.148 85.4293 669.941 94.2184 659.394 94.2184C648.847 94.2184 641.64 85.4293 641.64 72.4215C641.64 59.4137 648.906 50.6246 659.394 50.6246C669.941 50.6246 677.148 59.3551 677.148 72.4215ZM675.273 72.4215C675.214 60.4098 668.769 52.4996 659.394 52.4996C650.078 52.4996 643.574 60.3512 643.574 72.4215C643.574 84.316 649.961 92.3434 659.394 92.3434C668.769 92.3434 675.273 84.4332 675.273 72.4215ZM715.147 64.4528C713.975 58.7106 708.995 52.4996 700.675 52.4996C691.3 52.4996 684.854 60.3512 684.854 72.4215C684.854 84.3746 691.182 92.3434 700.85 92.3434C709.346 92.3434 715.44 86.191 715.499 75.9371H701.378V74.0621H717.432V75.9371C717.432 87.3629 710.46 94.2184 700.85 94.2184C690.011 94.2184 682.921 85.4879 682.921 72.4215C682.921 59.2965 690.069 50.6246 700.675 50.6246C710.46 50.6246 716.026 58.066 717.081 64.4528H715.147ZM720.1 51.2106H722.443L736.213 71.8356H736.447L750.217 51.2106H752.561L737.268 73.9449V93.6324H735.334V73.9449L720.1 51.2106ZM758.743 90.7614L754.993 104.414H753.411L756.751 90.7614H758.743Z" fill="white" fill-opacity="0.9"/>
<defs>
<filter id="filter0_d_662_43" x="20.9158" y="123.915" width="721.757" height="217.235" filterUnits="userSpaceOnUse" color-interpolation-filters="sRGB">
<feFlood flood-opacity="0" result="BackgroundImageFix"/>
<feColorMatrix in="SourceAlpha" type="matrix" values="0 0 0 0 0 0 0 0 0 0 0 0 0 0 0 0 0 0 127 0" result="hardAlpha"/>
<feOffset/>
<feGaussianBlur stdDeviation="25.9869"/>
<feComposite in2="hardAlpha" operator="out"/>
<feColorMatrix type="matrix" values="0 0 0 0 0 0 0 0 0 0.46 0 0 0 0 1 0 0 0 1 0"/>
<feBlend mode="normal" in2="BackgroundImageFix" result="effect1_dropShadow_662_43"/>
<feBlend mode="normal" in="SourceGraphic" in2="effect1_dropShadow_662_43" result="shape"/>
</filter>
</defs>
</svg>
