<svg width="538" height="112" viewBox="0 0 538 112" fill="none" xmlns="http://www.w3.org/2000/svg">
<rect width="537.492" height="112" rx="20" fill="#757AFF"/>
<path d="M145.016 43.8613V47.248C145.016 51.2656 145.016 55.3994 143.92 61.7246L140.168 61.3926C141.33 55.499 141.33 51.1494 141.33 47.248V46.8496H124.032V43.8613H145.016ZM121.143 66.8379V63.8164H148.502V66.8379H121.143ZM174.783 40.9727V63.0527H171.131V40.9727H174.783ZM151.375 45.9531V42.998H165.221V52.2617H155.061V56.0469C160.489 56.0469 164.075 55.8809 168.209 55.1172L168.607 58.0723C164.075 58.9189 160.141 59.0684 153.998 59.0684H151.441V49.4727H161.568V45.9531H151.375ZM154.795 70.3574V61.2598H158.514V67.3691H175.613V70.3574H154.795ZM191.269 44.1934V51.9961H194.756V41.4707H198.275V69.4941H194.756V54.9844H191.269V63.2188H179.482V44.1934H191.269ZM182.935 60.2969H187.816V47.1152H182.935V60.2969ZM200.898 70.9551V40.9395H204.451V70.9551H200.898ZM222.531 42.2344V45.1895H212.171V47.5137H221.933V50.3027H212.171V52.8262C217.5 52.8262 220.655 52.71 224.423 52.1621L224.755 55.0176C220.638 55.6816 217.118 55.7812 210.876 55.7812H208.486V42.2344H222.531ZM211.308 60.6289V57.7402H230.931V65.4434H214.993V67.834H231.861V70.6895H211.341V62.7539H227.245V60.6289H211.308ZM227.245 56.4453V40.9395H230.931V47.082H235.115V50.0703H230.931V56.4453H227.245ZM266.858 40.9395V52.3613H271.473V55.4824H266.858V70.9551H263.173V40.9395H266.858ZM244.413 63.916V43.3965H248.065V50.9004H255.137V43.3965H258.823V63.916H244.413ZM248.065 60.8945H255.137V53.7891H248.065V60.8945ZM299.481 64.4141V67.4688H272.055V64.4141H283.875V59.5332H275.309V49.7051H292.575V45.9863H275.243V42.998H296.227V52.627H278.994V56.5117H296.924V59.5332H287.528V64.4141H299.481ZM324.268 40.9395V52.6602H328.717V55.748H324.268V70.8887H320.582V40.9395H324.268ZM300.594 62.6875C307.898 59.0352 311.85 53.9551 312.58 47.1152H302.221V44.0605H316.332C316.315 52.876 312.663 60.6289 302.686 65.543L300.594 62.6875ZM354.533 40.9395V70.9551H350.814V40.9395H354.533ZM329.664 62.6875C337.533 58.9521 341.152 53.8721 341.816 47.0488H331.191V44.127H345.568C345.568 53.0586 342.098 60.6455 331.59 65.6426L329.664 62.6875Z" fill="white"/>
<path d="M408.194 51.3511L408.194 69.9478M408.194 69.9478L389.597 69.9478M408.194 69.9478L380.299 42.0527" stroke="white" stroke-width="3" stroke-linecap="round" stroke-linejoin="round"/>
</svg>
