<svg width="1920" height="961" viewBox="0 0 1920 961" fill="none" xmlns="http://www.w3.org/2000/svg">
<rect width="1920" height="961" fill="white"/>
<path d="M674.289 420.484V423.688H663.43V433.062H659.484V423.688H648.742V420.484H674.289ZM641.633 419.859C641.633 412.965 643.117 407.223 646.008 402.32H649.758C647.531 405.953 645.773 413.297 645.773 419.859C645.773 426.402 647.531 433.766 649.758 437.398H646.008C643.117 432.496 641.633 426.754 641.633 419.859ZM649.992 415.758C655.734 415.094 658.801 412.301 659.211 409.625H651.047V406.539H672.023V409.625H663.898C664.289 412.301 667.297 415.094 673.078 415.758L671.633 418.883C666.711 418.219 663.234 416.148 661.535 413.297C659.836 416.148 656.359 418.219 651.477 418.883L649.992 415.758ZM673.312 437.398C675.52 433.766 677.277 426.402 677.258 419.859C677.277 413.297 675.52 405.953 673.312 402.32H677.023C679.934 407.223 681.418 412.965 681.398 419.859C681.418 426.754 679.934 432.496 677.023 437.398H673.312ZM713.528 405.602V409.586C713.528 414.312 713.528 419.176 712.239 426.617L707.825 426.227C709.192 419.293 709.192 414.176 709.192 409.586V409.117H688.841V405.602H713.528ZM685.442 432.633V429.078H717.63V432.633H685.442ZM748.548 402.203V428.18H744.252V402.203H748.548ZM721.009 408.062V404.586H737.298V415.484H725.345V419.938C731.732 419.938 735.951 419.742 740.814 418.844L741.283 422.32C735.951 423.316 731.322 423.492 724.095 423.492H721.088V412.203H733.002V408.062H721.009ZM725.033 436.773V426.07H729.408V433.258H749.525V436.773H725.033ZM767.944 405.992V415.172H772.045V402.789H776.186V435.758H772.045V418.688H767.944V428.375H754.077V405.992H767.944ZM758.139 424.938H763.881V409.43H758.139V424.938ZM779.272 437.477V402.164H783.452V437.477H779.272ZM804.722 403.688V407.164H792.534V409.898H804.019V413.18H792.534V416.148C798.804 416.148 802.515 416.012 806.948 415.367L807.339 418.727C802.495 419.508 798.355 419.625 791.011 419.625H788.198V403.688H804.722ZM791.519 425.328V421.93H814.605V430.992H795.855V433.805H815.698V437.164H791.558V427.828H810.269V425.328H791.519ZM810.269 420.406V402.164H814.605V409.391H819.527V412.906H814.605V420.406H810.269ZM859.684 402.438V437.164H856.755V402.438H859.684ZM829.567 427.906C834.411 425.016 837.243 418.668 837.223 412.359V409.078H830.544V406.539H846.559V409.078H840.192V412.359C840.192 418.355 842.907 424.352 847.692 427.125L845.817 429.391C842.399 427.34 839.977 423.59 838.766 419.176C837.516 423.961 834.997 428.043 831.52 430.211L829.567 427.906ZM843.903 417.477V414.977H849.762V403.297H852.653V435.367H849.762V417.477H843.903ZM895.408 419.234V421.773H881.072V425.875H891.541V436.695H867.634V425.875H878.064V421.773H863.767V419.234H895.408ZM866.736 406.109V403.57H892.4V406.109H887.048V413.414H892.283V415.953H866.853V413.414H872.087V406.109H866.736ZM870.681 434.195H888.533V428.297H870.681V434.195ZM875.134 413.414H884.002V406.109H875.134V413.414ZM909.745 434H906.073L916.425 405.719H920.136L930.487 434H926.777L923.945 426.031H912.577L909.745 434ZM913.652 422.945H922.87L918.378 410.289H918.144L913.652 422.945ZM942.578 412.789V415.602H937.891V434H934.492V415.602H931.094V412.789H934.492V409.898C934.512 406.461 936.797 404.391 940.547 404.391C941.367 404.391 942.344 404.488 943.047 404.625V407.633C942.324 407.516 941.719 407.477 941.289 407.477C938.926 407.477 937.871 408.453 937.891 410.641V412.789H942.578ZM955.02 412.789V415.602H950.567V427.906C950.548 430.621 951.915 431.07 953.341 431.07C953.946 431.07 954.845 431.012 955.333 430.992V434.117C954.805 434.195 953.985 434.273 952.989 434.273C950.157 434.273 947.188 432.516 947.169 428.766V415.602H943.966V412.789H947.169V407.711H950.567V412.789H955.02ZM967.228 434.43C961.095 434.449 957.306 430.074 957.306 423.57C957.306 417.047 961.154 412.516 966.916 412.516C971.369 412.516 976.076 415.25 976.056 423.102V424.508H960.666C960.841 429 963.459 431.461 967.228 431.461C969.767 431.461 971.369 430.348 972.15 429.039H975.744C974.748 432.262 971.603 434.449 967.228 434.43ZM960.685 421.656H972.658C972.638 418.121 970.412 415.484 966.916 415.484C963.244 415.484 960.92 418.375 960.685 421.656ZM979.631 434V412.789H982.873V416.031H983.108C983.87 413.883 986.077 412.457 988.577 412.438C989.084 412.457 989.944 412.477 990.334 412.516V415.914C990.08 415.855 989.182 415.68 988.303 415.68C985.256 415.68 982.991 417.789 982.991 420.641V434H979.631ZM1017.91 412.828C1017.62 410.055 1015.04 408.453 1011.66 408.453C1007.91 408.453 1005.47 410.406 1005.45 413.102C1005.47 416.07 1008.77 417.184 1010.92 417.711L1013.73 418.492C1016.76 419.273 1021.74 421.012 1021.74 426.305C1021.74 430.914 1018.03 434.488 1011.47 434.508C1005.38 434.488 1001.61 431.344 1001.27 426.656H1004.87C1005.16 429.82 1008.11 431.324 1011.47 431.305C1015.38 431.324 1018.3 429.312 1018.3 426.227C1018.3 423.473 1015.69 422.418 1012.72 421.578L1009.24 420.641C1004.81 419.352 1002.04 417.086 1002.05 413.258C1002.04 408.473 1006.29 405.328 1011.78 405.328C1017.27 405.328 1021.21 408.531 1021.35 412.828H1017.91ZM1034.46 434.43C1028.33 434.449 1024.54 430.074 1024.54 423.57C1024.54 417.047 1028.38 412.516 1034.15 412.516C1038.6 412.516 1043.31 415.25 1043.29 423.102V424.508H1027.9C1028.07 429 1030.69 431.461 1034.46 431.461C1037 431.461 1038.6 430.348 1039.38 429.039H1042.97C1041.98 432.262 1038.83 434.449 1034.46 434.43ZM1027.91 421.656H1039.89C1039.87 418.121 1037.64 415.484 1034.15 415.484C1030.47 415.484 1028.15 418.375 1027.91 421.656ZM1046.86 434V412.789H1050.1V416.031H1050.34C1051.1 413.883 1053.31 412.457 1055.81 412.438C1056.31 412.457 1057.17 412.477 1057.56 412.516V415.914C1057.31 415.855 1056.41 415.68 1055.53 415.68C1052.49 415.68 1050.22 417.789 1050.22 420.641V434H1046.86ZM1078.17 412.789L1070.32 434H1066.84L1059.03 412.789H1062.7L1068.48 429.625H1068.72L1074.5 412.789H1078.17ZM1081.08 434V412.789H1084.44V434H1081.08ZM1080.42 407.047C1080.4 405.797 1081.47 404.801 1082.76 404.82C1084.05 404.801 1085.12 405.797 1085.14 407.047C1085.12 408.277 1084.05 409.273 1082.76 409.273C1081.47 409.273 1080.4 408.277 1080.42 407.047ZM1097.66 434.43C1091.65 434.449 1087.98 429.859 1087.98 423.492C1087.98 417.047 1091.82 412.516 1097.59 412.516C1102.1 412.516 1105.5 415.191 1106.02 419.195H1102.66C1102.18 417.262 1100.5 415.484 1097.66 415.484C1093.88 415.484 1091.36 418.609 1091.34 423.375C1091.36 428.277 1093.82 431.422 1097.66 431.422C1100.16 431.422 1102.08 430.074 1102.66 427.75H1106.02C1105.5 431.539 1102.37 434.449 1097.66 434.43ZM1118.27 434.43C1112.14 434.449 1108.35 430.074 1108.35 423.57C1108.35 417.047 1112.2 412.516 1117.96 412.516C1122.41 412.516 1127.12 415.25 1127.1 423.102V424.508H1111.71C1111.88 429 1114.5 431.461 1118.27 431.461C1120.81 431.461 1122.41 430.348 1123.19 429.039H1126.79C1125.79 432.262 1122.65 434.449 1118.27 434.43ZM1111.73 421.656H1123.7C1123.68 418.121 1121.45 415.484 1117.96 415.484C1114.29 415.484 1111.96 418.375 1111.73 421.656ZM1151.05 413.102C1151.06 419 1155.34 424.996 1160.46 427.203L1158.74 429.625C1154.68 427.789 1151.18 423.785 1149.56 418.98C1147.94 424.078 1144.42 428.492 1140.46 430.484L1138.62 428.062C1143.6 425.68 1147.94 419.117 1147.96 413.102V408.57H1139.76V406.031H1159.33V408.57H1151.05V413.102ZM1164.17 437.164V402.438H1167.26V437.164H1164.17ZM1201.18 402.438V423.141H1198.1V414.039H1191.1V411.5H1198.1V402.438H1201.18ZM1172.55 420.367C1177.71 418.512 1181.38 413.805 1181.38 408.844V407.555H1173.53V404.977H1192.24V407.555H1184.46V408.805C1184.46 413.336 1187.94 417.652 1193.02 419.391L1191.42 421.852C1187.53 420.445 1184.5 417.516 1183 413.941C1181.51 418.004 1178.29 421.246 1174.15 422.828L1172.55 420.367ZM1178.02 430.68C1178 426.598 1182.43 424.215 1189.66 424.234C1196.87 424.215 1201.3 426.598 1201.3 430.68C1201.3 434.781 1196.87 437.125 1189.66 437.164C1182.43 437.125 1178 434.781 1178.02 430.68ZM1181.07 430.68C1181.05 433.199 1184.33 434.723 1189.66 434.703C1194.97 434.723 1198.25 433.199 1198.25 430.68C1198.25 428.141 1194.97 426.617 1189.66 426.617C1184.33 426.617 1181.05 428.141 1181.07 430.68ZM1243.88 402.438V437.164H1240.83V402.438H1243.88ZM1215.6 427.906C1218.57 427.887 1221.97 427.867 1225.48 427.75V423.961C1221.3 423.531 1218.61 421.148 1218.65 417.672C1218.61 413.746 1221.95 411.207 1226.97 411.227C1231.99 411.207 1235.38 413.746 1235.36 417.672C1235.38 421.109 1232.69 423.492 1228.57 423.961V427.633C1231.93 427.477 1235.33 427.242 1238.53 426.812L1238.76 429.156C1231.01 430.406 1222.51 430.523 1216.07 430.523L1215.6 427.906ZM1216.34 409.234V406.734H1225.48V402.477H1228.57V406.734H1237.63V409.234H1216.34ZM1221.5 417.672C1221.48 420.074 1223.74 421.656 1226.97 421.617C1230.21 421.656 1232.45 420.074 1232.43 417.672C1232.45 415.25 1230.21 413.609 1226.97 413.609C1223.74 413.609 1221.48 415.25 1221.5 417.672ZM1260.81 411.773C1260.81 417.887 1264.86 424.195 1269.8 426.617L1267.92 429.078C1264.1 427.086 1260.89 422.965 1259.35 418.141C1257.81 423.258 1254.53 427.652 1250.62 429.742L1248.67 427.281C1253.74 424.781 1257.77 418.121 1257.81 411.773V405.445H1260.81V411.773ZM1273 437.164V402.438H1276.05V416.539H1281.87V419.195H1276.05V437.164H1273Z" fill="#1E1E1E"/>
<path d="M796.93 205.2H776.95L772.93 216H769.99L785.47 174.84H788.47L803.89 216H800.95L796.93 205.2ZM796.09 202.92L786.97 178.38L777.79 202.92H796.09ZM831.187 173.88V176.16H812.167V193.74H828.787V196.02H812.167V216H809.467V173.88H831.187ZM860.434 173.88V176.16H848.434V216H845.734V176.16H833.734V173.88H860.434ZM868.361 176.16V193.74H885.161V196.02H868.361V213.72H886.961V216H865.661V173.88H886.961V176.16H868.361ZM916.673 216L905.873 198.06H905.633H896.633V216H893.933V173.88H905.513C910.193 173.88 913.693 174.98 916.013 177.18C918.373 179.38 919.553 182.3 919.553 185.94C919.553 189.18 918.633 191.86 916.793 193.98C914.993 196.06 912.353 197.34 908.873 197.82L919.913 216H916.673ZM896.633 195.78H905.633C909.353 195.78 912.133 194.88 913.973 193.08C915.813 191.28 916.733 188.9 916.733 185.94C916.733 179.5 912.993 176.28 905.513 176.28H896.633V195.78ZM954.28 216.42C951.56 216.42 949.18 215.94 947.14 214.98C945.1 214.02 943.5 212.72 942.34 211.08C941.22 209.44 940.58 207.62 940.42 205.62H943.24C943.56 207.82 944.58 209.78 946.3 211.5C948.06 213.22 950.72 214.08 954.28 214.08C956.36 214.08 958.16 213.7 959.68 212.94C961.24 212.18 962.44 211.14 963.28 209.82C964.12 208.5 964.54 207.04 964.54 205.44C964.54 203.4 964.04 201.78 963.04 200.58C962.08 199.38 960.86 198.48 959.38 197.88C957.94 197.28 955.98 196.64 953.5 195.96C950.78 195.24 948.58 194.52 946.9 193.8C945.26 193.08 943.86 191.98 942.7 190.5C941.58 188.98 941.02 186.92 941.02 184.32C941.02 182.32 941.54 180.5 942.58 178.86C943.66 177.18 945.18 175.86 947.14 174.9C949.1 173.94 951.36 173.46 953.92 173.46C957.64 173.46 960.64 174.38 962.92 176.22C965.2 178.06 966.56 180.32 967 183H964.12C963.88 181.92 963.34 180.82 962.5 179.7C961.7 178.58 960.54 177.66 959.02 176.94C957.54 176.18 955.76 175.8 953.68 175.8C950.88 175.8 948.52 176.58 946.6 178.14C944.68 179.66 943.72 181.7 943.72 184.26C943.72 186.3 944.22 187.94 945.22 189.18C946.22 190.38 947.44 191.3 948.88 191.94C950.36 192.54 952.34 193.16 954.82 193.8C957.58 194.56 959.76 195.3 961.36 196.02C963 196.7 964.38 197.8 965.5 199.32C966.66 200.8 967.24 202.82 967.24 205.38C967.24 207.26 966.74 209.04 965.74 210.72C964.74 212.4 963.26 213.78 961.3 214.86C959.38 215.9 957.04 216.42 954.28 216.42ZM976.822 176.16V193.74H993.622V196.02H976.822V213.72H995.422V216H974.122V173.88H995.422V176.16H976.822ZM1025.13 216L1014.33 198.06H1014.09H1005.09V216H1002.39V173.88H1013.97C1018.65 173.88 1022.15 174.98 1024.47 177.18C1026.83 179.38 1028.01 182.3 1028.01 185.94C1028.01 189.18 1027.09 191.86 1025.25 193.98C1023.45 196.06 1020.81 197.34 1017.33 197.82L1028.37 216H1025.13ZM1005.09 195.78H1014.09C1017.81 195.78 1020.59 194.88 1022.43 193.08C1024.27 191.28 1025.19 188.9 1025.19 185.94C1025.19 179.5 1021.45 176.28 1013.97 176.28H1005.09V195.78ZM1066.63 173.88L1050.55 216H1047.55L1031.53 173.88H1034.47L1049.05 212.82L1063.75 173.88H1066.63ZM1074.65 173.88V216H1071.95V173.88H1074.65ZM1081.67 195C1081.67 190.84 1082.53 187.14 1084.25 183.9C1086.01 180.62 1088.41 178.06 1091.45 176.22C1094.53 174.38 1097.97 173.46 1101.77 173.46C1106.57 173.46 1110.61 174.58 1113.89 176.82C1117.17 179.06 1119.57 182.2 1121.09 186.24H1117.97C1116.77 183.04 1114.77 180.52 1111.97 178.68C1109.21 176.8 1105.81 175.86 1101.77 175.86C1098.53 175.86 1095.59 176.64 1092.95 178.2C1090.31 179.72 1088.23 181.94 1086.71 184.86C1085.19 187.74 1084.43 191.12 1084.43 195C1084.43 198.84 1085.19 202.2 1086.71 205.08C1088.23 207.92 1090.31 210.12 1092.95 211.68C1095.59 213.24 1098.53 214.02 1101.77 214.02C1105.81 214.02 1109.21 213.1 1111.97 211.26C1114.77 209.38 1116.77 206.84 1117.97 203.64H1121.09C1119.57 207.68 1117.17 210.82 1113.89 213.06C1110.61 215.3 1106.57 216.42 1101.77 216.42C1097.97 216.42 1094.53 215.52 1091.45 213.72C1088.41 211.88 1086.01 209.34 1084.25 206.1C1082.53 202.82 1081.67 199.12 1081.67 195ZM1131.02 176.16V193.74H1147.82V196.02H1131.02V213.72H1149.62V216H1128.32V173.88H1149.62V176.16H1131.02Z" fill="#404040"/>
<rect x="660" y="260" width="600" height="3" fill="url(#paint0_linear_153_513)"/>
<rect x="660" y="260" width="600" height="3" fill="white" fill-opacity="0.4"/>
<rect x="446.5" y="518.5" width="497" height="179" rx="18.5" fill="url(#paint1_linear_153_513)" fill-opacity="0.1" stroke="#757AFF" stroke-width="3"/>
<path d="M701.375 574.75L712 585.375M712 585.375L701.375 596M712 585.375L689.687 585.375C683.233 585.375 678 580.142 678 573.688V573.688C678 567.233 683.233 562 689.687 562L701.375 562" stroke="#5200FF" stroke-width="4" stroke-linecap="round" stroke-linejoin="round"/>
<path d="M659.629 631.072V660.822H656.607V631.072H659.629ZM633.664 652.621C637.881 650.081 640.022 644.669 640.039 639.373V636.982H634.561V634.426H648.174V636.982H643.061V639.373C643.061 644.453 645.119 649.55 649.303 651.957L647.41 654.281C644.571 652.588 642.629 649.55 641.583 645.964C640.521 649.849 638.495 653.169 635.59 654.979L633.664 652.621ZM645.982 644.188V641.598H650.598V631.703H653.586V659.328H650.598V644.188H645.982ZM689.927 645.316V647.84H677.908V651.027H686.607V660.457H666.054V651.027H674.787V647.84H662.8V645.316H689.927ZM665.291 634.559V632.002H687.371V634.559H683.054V640.236H687.238V642.793H665.424V640.236H669.64V634.559H665.291ZM669.175 657.9H683.552V653.518H669.175V657.9ZM672.761 640.236H679.9V634.559H672.761V640.236ZM714.366 633.695C714.35 637.646 719.181 641.349 725.024 642.129L723.796 644.719C718.932 643.938 714.665 641.415 712.723 637.912C710.78 641.415 706.514 643.938 701.683 644.719L700.421 642.129C706.248 641.349 711.063 637.696 711.079 633.695V632.068H714.366V633.695ZM699.126 650.23V647.641H726.253V650.23H714.167V660.822H711.079V650.23H699.126ZM752.534 631.072V660.889H749.38V631.072H752.534ZM729.491 636.318V633.762H743.436V644.619H732.745V651.127C737.576 651.11 741.776 650.878 746.757 650.064L747.055 652.654C741.793 653.534 737.31 653.733 732.048 653.75H729.524V642.096H740.216V636.318H729.491Z" fill="#1E1E1E"/>
<rect x="976.5" y="518.5" width="497" height="179" rx="18.5" fill="url(#paint2_linear_153_513)" fill-opacity="0.1" stroke="#757AFF" stroke-width="3"/>
<path d="M1161.63 631.072V660.822H1158.61V631.072H1161.63ZM1135.66 652.621C1139.88 650.081 1142.02 644.669 1142.04 639.373V636.982H1136.56V634.426H1150.17V636.982H1145.06V639.373C1145.06 644.453 1147.12 649.55 1151.3 651.957L1149.41 654.281C1146.57 652.588 1144.63 649.55 1143.58 645.964C1142.52 649.849 1140.5 653.169 1137.59 654.979L1135.66 652.621ZM1147.98 644.188V641.598H1152.6V631.703H1155.59V659.328H1152.6V644.188H1147.98ZM1191.93 645.316V647.84H1179.91V651.027H1188.61V660.457H1168.05V651.027H1176.79V647.84H1164.8V645.316H1191.93ZM1167.29 634.559V632.002H1189.37V634.559H1185.05V640.236H1189.24V642.793H1167.42V640.236H1171.64V634.559H1167.29ZM1171.18 657.9H1185.55V653.518H1171.18V657.9ZM1174.76 640.236H1181.9V634.559H1174.76V640.236ZM1209.36 632.434C1213.28 632.4 1216.32 634.675 1216.96 638.012H1222.77V631.072H1225.93V647.043H1222.77V640.602H1216.98C1216.37 644.021 1213.31 646.312 1209.36 646.312C1204.81 646.312 1201.54 643.44 1201.56 639.34C1201.54 635.289 1204.81 632.4 1209.36 632.434ZM1204.58 639.34C1204.56 641.88 1206.55 643.656 1209.36 643.656C1212.12 643.656 1214.08 641.88 1214.08 639.34C1214.08 636.783 1212.12 635.04 1209.36 635.057C1206.55 635.04 1204.56 636.783 1204.58 639.34ZM1206.54 660.457V648.471H1209.66V651.924H1222.77V648.471H1225.93V660.457H1206.54ZM1209.66 657.867H1222.77V654.414H1209.66V657.867ZM1255.4 631.072V660.822H1252.34V631.072H1255.4ZM1230.89 653.816V634.625H1242.18V637.215H1233.98V651.193C1237.87 651.16 1240.49 650.994 1243.58 650.33L1243.84 652.986C1240.44 653.667 1237.5 653.816 1232.85 653.816H1230.89ZM1240.16 644.885V642.262H1246.27V631.703H1249.25V659.328H1246.27V644.885H1240.16ZM1283.17 631.072V660.889H1280.02V631.072H1283.17ZM1259.56 643.723C1259.56 637.364 1262.77 633.313 1267.27 633.297C1271.68 633.313 1274.94 637.364 1274.94 643.723C1274.94 650.147 1271.68 654.198 1267.27 654.182C1262.77 654.198 1259.56 650.147 1259.56 643.723ZM1262.62 643.723C1262.6 648.454 1264.5 651.359 1267.27 651.359C1269.99 651.359 1271.88 648.454 1271.88 643.723C1271.88 639.058 1269.99 636.136 1267.27 636.119C1264.5 636.136 1262.6 639.058 1262.62 643.723ZM1311.38 646.91V649.434H1290.66V633.529H1311.08V636.086H1293.85V640.104H1310.45V642.594H1293.85V646.91H1311.38ZM1287.24 657.07V654.48H1314.47V657.07H1287.24Z" fill="#1E1E1E"/>
<circle cx="1224.88" cy="578.505" r="2.05049" fill="#5200FF"/>
<path d="M1233.39 578.505C1233.39 583.954 1232.28 588.801 1230.57 592.221C1228.81 595.746 1226.7 597.26 1224.88 597.26C1223.07 597.26 1220.96 595.746 1219.2 592.221C1217.49 588.801 1216.38 583.954 1216.38 578.505C1216.38 573.055 1217.49 568.208 1219.2 564.788C1220.96 561.264 1223.07 559.75 1224.88 559.75C1226.7 559.75 1228.81 561.264 1230.57 564.788C1232.28 568.208 1233.39 573.055 1233.39 578.505Z" stroke="#5200FF" stroke-width="3.5"/>
<path d="M1229.14 585.868C1224.42 588.592 1219.66 590.056 1215.85 590.285C1211.91 590.522 1209.55 589.45 1208.64 587.882C1207.74 586.313 1207.99 583.728 1210.16 580.44C1212.27 577.249 1215.91 573.866 1220.63 571.141C1225.35 568.416 1230.1 566.952 1233.92 566.723C1237.85 566.487 1240.22 567.558 1241.13 569.127C1242.03 570.695 1241.78 573.28 1239.61 576.569C1237.5 579.76 1233.85 583.143 1229.14 585.868Z" stroke="#5200FF" stroke-width="3.5"/>
<path d="M1229.14 571.142C1224.42 568.417 1219.66 566.953 1215.85 566.724C1211.91 566.488 1209.55 567.559 1208.64 569.128C1207.74 570.696 1207.99 573.281 1210.16 576.57C1212.27 579.761 1215.91 583.144 1220.63 585.869C1225.35 588.593 1230.1 590.057 1233.92 590.286C1237.85 590.523 1240.22 589.451 1241.13 587.883C1242.03 586.314 1241.78 583.729 1239.61 580.441C1237.5 577.25 1233.85 573.867 1229.14 571.142Z" stroke="#5200FF" stroke-width="3.5"/>
<rect x="446.5" y="730.5" width="497" height="179" rx="18.5" fill="url(#paint3_linear_153_513)" fill-opacity="0.1" stroke="#757AFF" stroke-width="3"/>
<path d="M707.167 774V774C709.833 774 711.167 774 712.027 774.788C712.091 774.847 712.153 774.909 712.212 774.973C713 775.833 713 777.167 713 779.833L713 784.667C713 785.138 713 785.374 712.854 785.52C712.707 785.667 712.471 785.667 712 785.667L701.333 785.667M707.167 774V774C704.5 774 703.167 774 702.307 774.788C702.242 774.847 702.18 774.909 702.121 774.973C701.333 775.833 701.333 777.167 701.333 779.833L701.333 785.667M707.167 774L682 774C680.114 774 679.172 774 678.586 774.586C678 775.172 678 776.114 678 778L678 804.042C678 804.754 678 805.11 678.049 805.377C678.339 806.961 679.827 808.034 681.421 807.808C681.691 807.77 682.028 807.657 682.703 807.432V807.432C682.883 807.372 682.972 807.343 683.061 807.319C683.567 807.184 684.099 807.184 684.605 807.319C684.694 807.343 684.784 807.372 684.963 807.432L687.769 808.368C688.71 808.681 689.18 808.838 689.667 808.838C690.153 808.838 690.624 808.681 691.564 808.368L694.37 807.432C694.549 807.372 694.639 807.343 694.728 807.319C695.234 807.184 695.766 807.184 696.272 807.319C696.361 807.343 696.451 807.372 696.63 807.432V807.432C697.305 807.657 697.643 807.77 697.912 807.808C699.506 808.034 700.995 806.961 701.284 805.377C701.333 805.11 701.333 804.754 701.333 804.042L701.333 785.667" stroke="#5200FF" stroke-width="4"/>
<path d="M685.777 781.777L693.555 781.777" stroke="#5200FF" stroke-width="4" stroke-linecap="round"/>
<path d="M687.723 789.556H685.778" stroke="#5200FF" stroke-width="4" stroke-linecap="round"/>
<path d="M685.777 797.333L691.611 797.333" stroke="#5200FF" stroke-width="4" stroke-linecap="round"/>
<path d="M658.708 845.928V849.115C658.674 852.851 658.674 856.769 657.612 862.463L654.524 862.131C655.57 856.752 655.57 852.768 655.553 849.115V848.484H637.325V845.928H658.708ZM634.536 868.805V866.182H640.944V856.553H644.098V866.182H648.381V856.553H651.469V866.182H661.663V868.805H634.536ZM688.043 843.072V860.77H684.889V853.232H679.344V850.643H684.889V843.072H688.043ZM663.241 858.08C667.856 856.47 670.695 852.452 670.678 848.352V847.688H664.237V845.131H680.274V847.688H673.899V848.318C673.882 852.087 676.572 855.756 681.071 857.283L679.444 859.773C676.107 858.628 673.65 856.237 672.355 853.299C671.06 856.619 668.453 859.292 664.901 860.604L663.241 858.08ZM668.022 867.211C668.005 863.675 671.824 861.616 678.082 861.6C684.308 861.616 688.126 863.675 688.143 867.211C688.126 870.747 684.308 872.806 678.082 872.822C671.824 872.806 668.005 870.747 668.022 867.211ZM671.143 867.211C671.126 869.22 673.716 870.365 678.082 870.332C682.415 870.365 685.005 869.22 685.022 867.211C685.005 865.186 682.415 864.04 678.082 864.057C673.716 864.04 671.126 865.186 671.143 867.211ZM724.336 843.072V859.275H721.215V852.701H715.636V850.111H721.215V843.072H724.336ZM699.599 857.283C704.165 855.689 707.02 851.788 707.004 847.688V847.289H700.562V844.732H716.599V847.289H710.224V847.721C710.208 851.406 712.897 855.142 717.396 856.652L715.769 859.109C712.416 857.914 709.959 855.557 708.664 852.635C707.369 855.905 704.762 858.528 701.226 859.773L699.599 857.283ZM704.978 872.457V860.604H708.099V864.023H721.215V860.604H724.336V872.457H704.978ZM708.099 869.9H721.215V866.48H708.099V869.9ZM743.511 845.695C743.494 849.646 748.326 853.349 754.169 854.129L752.941 856.719C748.077 855.938 743.81 853.415 741.868 849.912C739.925 853.415 735.659 855.938 730.827 856.719L729.566 854.129C735.393 853.349 740.207 849.696 740.224 845.695V844.068H743.511V845.695ZM728.271 862.23V859.641H755.398V862.23H743.312V872.822H740.224V862.23H728.271Z" fill="#1E1E1E"/>
<rect x="976.5" y="730.5" width="497" height="179" rx="18.5" fill="url(#paint4_linear_153_513)" fill-opacity="0.1" stroke="#757AFF" stroke-width="3"/>
<path d="M1222.35 843.072V860.404H1219.2V852.934H1213.62V850.311H1219.2V843.072H1222.35ZM1197.58 857.748C1202.15 856.188 1205.01 852.22 1204.99 848.152V847.455H1198.55V844.865H1214.58V847.455H1208.21V848.152C1208.19 851.854 1210.88 855.557 1215.38 857.117L1213.75 859.607C1210.42 858.445 1207.94 856.055 1206.65 853.1C1205.35 856.387 1202.75 858.993 1199.21 860.238L1197.58 857.748ZM1202.73 872.457V861.799H1222.35V872.457H1202.73ZM1205.85 869.9H1219.27V864.289H1205.85V869.9ZM1241.63 844.932C1241.63 852.502 1236.43 857.864 1227.82 860.305L1226.52 857.848C1233.39 855.922 1237.64 852.22 1238.26 847.521H1228.08V844.932H1241.63ZM1231.6 872.424V861.168H1251.06V872.424H1231.6ZM1234.69 869.9H1247.94V863.691H1234.69V869.9ZM1241.76 853.166V850.543H1247.9V843.105H1251.06V859.939H1247.9V853.166H1241.76Z" fill="#1E1E1E"/>
<path d="M1230.7 773.909C1231.35 773.474 1231.68 773.256 1232.03 773.292C1232.39 773.327 1232.67 773.604 1233.22 774.159L1241.84 782.778C1242.4 783.333 1242.67 783.611 1242.71 783.966C1242.74 784.322 1242.53 784.649 1242.09 785.302L1236.01 794.429C1235.13 795.741 1234.69 796.398 1234.39 797.122C1234.09 797.846 1233.94 798.619 1233.63 800.166L1232.66 805.015C1232.39 806.363 1232.26 807.037 1231.75 807.239C1231.25 807.441 1230.69 807.05 1229.56 806.267L1228.31 805.401C1223.09 801.788 1220.48 799.982 1218.25 797.751C1216.02 795.519 1214.21 792.91 1210.6 787.692L1209.73 786.44C1208.95 785.31 1208.56 784.745 1208.76 784.245C1208.96 783.745 1209.64 783.61 1210.98 783.341L1215.83 782.371C1217.38 782.061 1218.15 781.907 1218.88 781.607C1219.6 781.307 1220.26 780.869 1221.57 779.994L1230.7 773.909Z" stroke="#5200FF" stroke-width="4"/>
<path d="M1208 808L1217.85 798.156" stroke="#5200FF" stroke-width="4" stroke-linecap="round"/>
<defs>
<linearGradient id="paint0_linear_153_513" x1="660" y1="260" x2="1260" y2="260" gradientUnits="userSpaceOnUse">
<stop stop-color="#00F3C7"/>
<stop offset="0.29" stop-color="#42C8FF"/>
<stop offset="1" stop-color="#7737FF"/>
</linearGradient>
<linearGradient id="paint1_linear_153_513" x1="695" y1="517" x2="905.5" y2="727.5" gradientUnits="userSpaceOnUse">
<stop stop-color="#757AFF"/>
<stop offset="1" stop-color="#757AFF" stop-opacity="0"/>
</linearGradient>
<linearGradient id="paint2_linear_153_513" x1="1225" y1="517" x2="1435.5" y2="727.5" gradientUnits="userSpaceOnUse">
<stop stop-color="#757AFF"/>
<stop offset="1" stop-color="#757AFF" stop-opacity="0"/>
</linearGradient>
<linearGradient id="paint3_linear_153_513" x1="695" y1="729" x2="905.5" y2="939.5" gradientUnits="userSpaceOnUse">
<stop stop-color="#757AFF"/>
<stop offset="1" stop-color="#757AFF" stop-opacity="0"/>
</linearGradient>
<linearGradient id="paint4_linear_153_513" x1="1225" y1="729" x2="1435.5" y2="939.5" gradientUnits="userSpaceOnUse">
<stop stop-color="#757AFF"/>
<stop offset="1" stop-color="#757AFF" stop-opacity="0"/>
</linearGradient>
</defs>
</svg>
