<svg width="542" height="70" viewBox="0 0 542 70" fill="none" xmlns="http://www.w3.org/2000/svg">
<path d="M79.5547 29.8633C79.2617 27.0898 76.6836 25.4883 73.3047 25.4883C69.5547 25.4883 67.1133 27.4414 67.0938 30.1367C67.1133 33.1055 70.4141 34.2188 72.5625 34.7461L75.375 35.5273C78.4023 36.3086 83.3828 38.0469 83.3828 43.3398C83.3828 47.9492 79.6719 51.5234 73.1094 51.543C67.0156 51.5234 63.2461 48.3789 62.9141 43.6914H66.5078C66.8008 46.8555 69.75 48.3594 73.1094 48.3398C77.0156 48.3594 79.9453 46.3477 79.9453 43.2617C79.9453 40.5078 77.3281 39.4531 74.3594 38.6133L70.8828 37.6758C66.4492 36.3867 63.6758 34.1211 63.6953 30.293C63.6758 25.5078 67.9336 22.3633 73.4219 22.3633C78.9102 22.3633 82.8555 25.5664 82.9922 29.8633H79.5547ZM95.8641 51.4648C89.8484 51.4844 86.1766 46.8945 86.1766 40.5273C86.1766 34.082 90.0242 29.5508 95.7859 29.5508C100.298 29.5508 103.696 32.2266 104.223 36.2305H100.864C100.376 34.2969 98.6961 32.5195 95.8641 32.5195C92.075 32.5195 89.5555 35.6445 89.5359 40.4102C89.5555 45.3125 92.0164 48.457 95.8641 48.457C98.3641 48.457 100.278 47.1094 100.864 44.7852H104.223C103.696 48.5742 100.571 51.4844 95.8641 51.4648ZM110.923 38.3008V51.0352H107.564V22.7539H110.923V33.1445H111.197C112.193 30.957 114.088 29.5508 117.447 29.5508C121.783 29.5508 124.673 32.1094 124.673 37.5586V51.0352H121.314V37.793C121.314 34.4531 119.478 32.5586 116.431 32.5586C113.267 32.5586 110.923 34.6289 110.923 38.3008ZM132.623 38.3008V51.0352H129.264V29.8242H132.506V33.1445H132.78C133.776 30.9766 135.768 29.5508 138.991 29.5508C143.287 29.5508 146.159 32.168 146.139 37.5586V51.0352H142.78V37.793C142.78 34.5117 140.983 32.5586 137.975 32.5586C134.889 32.5586 132.623 34.6289 132.623 38.3008ZM159.636 51.4648C153.503 51.4844 149.714 47.1094 149.714 40.6055C149.714 34.082 153.562 29.5508 159.323 29.5508C163.777 29.5508 168.484 32.2852 168.464 40.1367V41.543H153.073C153.249 46.0352 155.866 48.4961 159.636 48.4961C162.175 48.4961 163.777 47.3828 164.558 46.0742H168.152C167.155 49.2969 164.011 51.4844 159.636 51.4648ZM153.093 38.6914H165.066C165.046 35.1562 162.82 32.5195 159.323 32.5195C155.652 32.5195 153.327 35.4102 153.093 38.6914ZM172.039 51.0352V29.8242H175.398V51.0352H172.039ZM171.375 24.082C171.355 22.832 172.43 21.8359 173.719 21.8555C175.008 21.8359 176.082 22.832 176.102 24.082C176.082 25.3125 175.008 26.3086 173.719 26.3086C172.43 26.3086 171.355 25.3125 171.375 24.082ZM187.958 51.4648C182.665 51.4844 178.934 47.2266 178.934 40.4883C178.934 33.7695 182.665 29.5508 187.997 29.5508C192.118 29.5508 193.407 32.0508 194.13 33.1836H194.364V22.7539H197.762V51.0352H194.481V47.793H194.13C193.387 48.9648 192.001 51.4844 187.958 51.4648ZM182.333 40.4102C182.333 44.9219 184.403 48.457 188.427 48.457C192.313 48.457 194.462 45.1758 194.481 40.4102C194.462 35.7031 192.372 32.5586 188.427 32.5586C184.345 32.5586 182.333 35.9766 182.333 40.4102ZM211.689 51.4648C205.556 51.4844 201.767 47.1094 201.767 40.6055C201.767 34.082 205.615 29.5508 211.377 29.5508C215.83 29.5508 220.537 32.2852 220.517 40.1367V41.543H205.127C205.302 46.0352 207.92 48.4961 211.689 48.4961C214.228 48.4961 215.83 47.3828 216.611 46.0742H220.205C219.209 49.2969 216.064 51.4844 211.689 51.4648ZM205.146 38.6914H217.119C217.099 35.1562 214.873 32.5195 211.377 32.5195C207.705 32.5195 205.38 35.4102 205.146 38.6914ZM224.092 51.0352V29.8242H227.334V33.0664H227.569C228.33 30.918 230.538 29.4922 233.038 29.4727C233.545 29.4922 234.405 29.5117 234.795 29.5508V32.9492C234.541 32.8906 233.643 32.7148 232.764 32.7148C229.717 32.7148 227.452 34.8242 227.452 37.6758V51.0352H224.092ZM246.945 51.0352V22.7539H256.867C262.805 22.7539 265.598 26.0938 265.578 30.2539C265.598 33.8867 263.43 35.5078 260.969 36.1914V36.4648C263.605 36.6211 266.691 39.043 266.711 43.5352C266.691 47.7734 263.898 51.0352 257.219 51.0352H246.945ZM250.461 47.9102H257.18C261.613 47.9102 263.332 45.957 263.312 43.4961C263.332 40.625 261.008 38.1836 257.375 38.1836H250.461V47.9102ZM250.461 35.1367H256.75C259.816 35.1562 262.219 33.2422 262.219 30.293C262.219 27.832 260.559 25.8789 256.867 25.8789H250.461V35.1367ZM273.841 22.7539V51.0352H270.481V22.7539H273.841ZM291.791 42.3242V29.8242H295.111V51.0352H291.791V47.4414H291.556C290.56 49.5898 288.451 51.3086 285.267 51.3086C281.244 51.3086 278.373 48.6914 278.392 43.3008V29.8242H281.752V43.0664C281.752 46.1133 283.646 48.0859 286.361 48.0664C288.763 48.0859 291.771 46.2891 291.791 42.3242ZM308.608 51.4648C302.475 51.4844 298.686 47.1094 298.686 40.6055C298.686 34.082 302.534 29.5508 308.295 29.5508C312.748 29.5508 317.455 32.2852 317.436 40.1367V41.543H302.045C302.221 46.0352 304.838 48.4961 308.608 48.4961C311.147 48.4961 312.748 47.3828 313.53 46.0742H317.123C316.127 49.2969 312.983 51.4844 308.608 51.4648ZM302.065 38.6914H314.038C314.018 35.1562 311.791 32.5195 308.295 32.5195C304.623 32.5195 302.299 35.4102 302.065 38.6914ZM354.586 36.8945C354.605 45.8398 349.332 51.4258 342.086 51.4258C334.82 51.4258 329.566 45.8398 329.586 36.8945C329.566 27.9492 334.82 22.3633 342.086 22.3633C349.332 22.3633 354.605 27.9492 354.586 36.8945ZM332.984 36.8945C333.004 44.1797 336.969 48.125 342.086 48.1445C347.203 48.125 351.168 44.1797 351.188 36.8945C351.168 29.5898 347.203 25.6445 342.086 25.6445C336.969 25.6445 333.004 29.5898 332.984 36.8945ZM358.513 59.0039V29.8242H361.755V33.1836H362.145C362.868 32.0508 364.157 29.5508 368.278 29.5508C373.61 29.5508 377.302 33.7695 377.302 40.4883C377.302 47.2266 373.61 51.4844 368.317 51.4648C364.274 51.4844 362.868 48.9648 362.145 47.793H361.872V59.0039H358.513ZM361.794 40.4102C361.813 45.1758 363.942 48.457 367.848 48.457C371.872 48.457 373.942 44.9219 373.942 40.4102C373.942 35.9766 371.93 32.5586 367.848 32.5586C363.884 32.5586 361.813 35.7031 361.794 40.4102ZM389.783 51.4648C383.65 51.4844 379.861 47.1094 379.861 40.6055C379.861 34.082 383.709 29.5508 389.47 29.5508C393.923 29.5508 398.63 32.2852 398.611 40.1367V41.543H383.22C383.396 46.0352 386.013 48.4961 389.783 48.4961C392.322 48.4961 393.923 47.3828 394.705 46.0742H398.298C397.302 49.2969 394.158 51.4844 389.783 51.4648ZM383.24 38.6914H395.212C395.193 35.1562 392.966 32.5195 389.47 32.5195C385.798 32.5195 383.474 35.4102 383.24 38.6914ZM405.545 38.3008V51.0352H402.186V29.8242H405.428V33.1445H405.702C406.698 30.9766 408.69 29.5508 411.913 29.5508C416.209 29.5508 419.08 32.168 419.061 37.5586V51.0352H415.702V37.793C415.702 34.5117 413.905 32.5586 410.897 32.5586C407.811 32.5586 405.545 34.6289 405.545 38.3008ZM448.75 29.8633C448.457 27.0898 445.879 25.4883 442.5 25.4883C438.75 25.4883 436.309 27.4414 436.289 30.1367C436.309 33.1055 439.609 34.2188 441.758 34.7461L444.57 35.5273C447.598 36.3086 452.578 38.0469 452.578 43.3398C452.578 47.9492 448.867 51.5234 442.305 51.543C436.211 51.5234 432.441 48.3789 432.109 43.6914H435.703C435.996 46.8555 438.945 48.3594 442.305 48.3398C446.211 48.3594 449.141 46.3477 449.141 43.2617C449.141 40.5078 446.523 39.4531 443.555 38.6133L440.078 37.6758C435.645 36.3867 432.871 34.1211 432.891 30.293C432.871 25.5078 437.129 22.3633 442.617 22.3633C448.105 22.3633 452.051 25.5664 452.188 29.8633H448.75ZM465.645 29.8242V32.6367H461.192V44.9414C461.173 47.6562 462.54 48.1055 463.966 48.1055C464.571 48.1055 465.47 48.0469 465.958 48.0273V51.1523C465.43 51.2305 464.61 51.3086 463.614 51.3086C460.782 51.3086 457.813 49.5508 457.794 45.8008V32.6367H454.591V29.8242H457.794V24.7461H461.192V29.8242H465.645ZM482.58 42.3242V29.8242H485.9V51.0352H482.58V47.4414H482.345C481.349 49.5898 479.24 51.3086 476.056 51.3086C472.033 51.3086 469.162 48.6914 469.181 43.3008V29.8242H472.541V43.0664C472.541 46.1133 474.435 48.0859 477.15 48.0664C479.552 48.0859 482.56 46.2891 482.58 42.3242ZM498.498 51.4648C493.205 51.4844 489.475 47.2266 489.475 40.4883C489.475 33.7695 493.205 29.5508 498.538 29.5508C502.659 29.5508 503.948 32.0508 504.67 33.1836H504.905V22.7539H508.303V51.0352H505.022V47.793H504.67C503.928 48.9648 502.541 51.4844 498.498 51.4648ZM492.873 40.4102C492.873 44.9219 494.944 48.457 498.967 48.457C502.854 48.457 505.002 45.1758 505.022 40.4102C505.002 35.7031 502.913 32.5586 498.967 32.5586C494.885 32.5586 492.873 35.9766 492.873 40.4102ZM513.323 51.0352V29.8242H516.683V51.0352H513.323ZM512.659 24.082C512.64 22.832 513.714 21.8359 515.003 21.8555C516.292 21.8359 517.366 22.832 517.386 24.082C517.366 25.3125 516.292 26.3086 515.003 26.3086C513.714 26.3086 512.64 25.3125 512.659 24.082ZM529.906 51.4648C524.125 51.4844 520.219 47.1094 520.219 40.5273C520.219 33.9062 524.125 29.5508 529.906 29.5508C535.668 29.5508 539.535 33.9062 539.516 40.5273C539.535 47.1094 535.668 51.4844 529.906 51.4648ZM523.578 40.5273C523.598 44.7656 525.59 48.4961 529.906 48.4961C534.184 48.4961 536.156 44.7656 536.156 40.5273C536.156 36.3086 534.184 32.5195 529.906 32.5195C525.59 32.5195 523.598 36.3086 523.578 40.5273Z" fill="#1E1E1E"/>
<circle cx="21" cy="21.0352" r="15" stroke="#7737FF" stroke-width="12"/>
</svg>
