<svg width="1920" height="70" viewBox="0 0 1920 70" fill="none" xmlns="http://www.w3.org/2000/svg">
<rect width="1920" height="69" fill="white"/>
<path d="M339.555 29.8633C339.262 27.0898 336.684 25.4883 333.305 25.4883C329.555 25.4883 327.113 27.4414 327.094 30.1367C327.113 33.1055 330.414 34.2188 332.562 34.7461L335.375 35.5273C338.402 36.3086 343.383 38.0469 343.383 43.3398C343.383 47.9492 339.672 51.5234 333.109 51.543C327.016 51.5234 323.246 48.3789 322.914 43.6914H326.508C326.801 46.8555 329.75 48.3594 333.109 48.3398C337.016 48.3594 339.945 46.3477 339.945 43.2617C339.945 40.5078 337.328 39.4531 334.359 38.6133L330.883 37.6758C326.449 36.3867 323.676 34.1211 323.695 30.293C323.676 25.5078 327.934 22.3633 333.422 22.3633C338.91 22.3633 342.855 25.5664 342.992 29.8633H339.555ZM355.864 51.4648C349.848 51.4844 346.177 46.8945 346.177 40.5273C346.177 34.082 350.024 29.5508 355.786 29.5508C360.298 29.5508 363.696 32.2266 364.223 36.2305H360.864C360.376 34.2969 358.696 32.5195 355.864 32.5195C352.075 32.5195 349.555 35.6445 349.536 40.4102C349.555 45.3125 352.016 48.457 355.864 48.457C358.364 48.457 360.278 47.1094 360.864 44.7852H364.223C363.696 48.5742 360.571 51.4844 355.864 51.4648ZM370.923 38.3008V51.0352H367.564V22.7539H370.923V33.1445H371.197C372.193 30.957 374.088 29.5508 377.447 29.5508C381.783 29.5508 384.673 32.1094 384.673 37.5586V51.0352H381.314V37.793C381.314 34.4531 379.478 32.5586 376.431 32.5586C373.267 32.5586 370.923 34.6289 370.923 38.3008ZM392.623 38.3008V51.0352H389.264V29.8242H392.506V33.1445H392.78C393.776 30.9766 395.768 29.5508 398.991 29.5508C403.287 29.5508 406.159 32.168 406.139 37.5586V51.0352H402.78V37.793C402.78 34.5117 400.983 32.5586 397.975 32.5586C394.889 32.5586 392.623 34.6289 392.623 38.3008ZM419.636 51.4648C413.503 51.4844 409.714 47.1094 409.714 40.6055C409.714 34.082 413.562 29.5508 419.323 29.5508C423.777 29.5508 428.484 32.2852 428.464 40.1367V41.543H413.073C413.249 46.0352 415.866 48.4961 419.636 48.4961C422.175 48.4961 423.777 47.3828 424.558 46.0742H428.152C427.155 49.2969 424.011 51.4844 419.636 51.4648ZM413.093 38.6914H425.066C425.046 35.1562 422.82 32.5195 419.323 32.5195C415.652 32.5195 413.327 35.4102 413.093 38.6914ZM432.039 51.0352V29.8242H435.398V51.0352H432.039ZM431.375 24.082C431.355 22.832 432.43 21.8359 433.719 21.8555C435.008 21.8359 436.082 22.832 436.102 24.082C436.082 25.3125 435.008 26.3086 433.719 26.3086C432.43 26.3086 431.355 25.3125 431.375 24.082ZM447.958 51.4648C442.665 51.4844 438.934 47.2266 438.934 40.4883C438.934 33.7695 442.665 29.5508 447.997 29.5508C452.118 29.5508 453.407 32.0508 454.13 33.1836H454.364V22.7539H457.762V51.0352H454.481V47.793H454.13C453.387 48.9648 452.001 51.4844 447.958 51.4648ZM442.333 40.4102C442.333 44.9219 444.403 48.457 448.427 48.457C452.313 48.457 454.462 45.1758 454.481 40.4102C454.462 35.7031 452.372 32.5586 448.427 32.5586C444.345 32.5586 442.333 35.9766 442.333 40.4102ZM471.689 51.4648C465.556 51.4844 461.767 47.1094 461.767 40.6055C461.767 34.082 465.615 29.5508 471.377 29.5508C475.83 29.5508 480.537 32.2852 480.517 40.1367V41.543H465.127C465.302 46.0352 467.92 48.4961 471.689 48.4961C474.228 48.4961 475.83 47.3828 476.611 46.0742H480.205C479.209 49.2969 476.064 51.4844 471.689 51.4648ZM465.146 38.6914H477.119C477.099 35.1562 474.873 32.5195 471.377 32.5195C467.705 32.5195 465.38 35.4102 465.146 38.6914ZM484.092 51.0352V29.8242H487.334V33.0664H487.569C488.33 30.918 490.538 29.4922 493.038 29.4727C493.545 29.4922 494.405 29.5117 494.795 29.5508V32.9492C494.541 32.8906 493.643 32.7148 492.764 32.7148C489.717 32.7148 487.452 34.8242 487.452 37.6758V51.0352H484.092ZM506.945 51.0352V22.7539H516.867C522.805 22.7539 525.598 26.0938 525.578 30.2539C525.598 33.8867 523.43 35.5078 520.969 36.1914V36.4648C523.605 36.6211 526.691 39.043 526.711 43.5352C526.691 47.7734 523.898 51.0352 517.219 51.0352H506.945ZM510.461 47.9102H517.18C521.613 47.9102 523.332 45.957 523.312 43.4961C523.332 40.625 521.008 38.1836 517.375 38.1836H510.461V47.9102ZM510.461 35.1367H516.75C519.816 35.1562 522.219 33.2422 522.219 30.293C522.219 27.832 520.559 25.8789 516.867 25.8789H510.461V35.1367ZM533.841 22.7539V51.0352H530.481V22.7539H533.841ZM551.791 42.3242V29.8242H555.111V51.0352H551.791V47.4414H551.556C550.56 49.5898 548.451 51.3086 545.267 51.3086C541.244 51.3086 538.373 48.6914 538.392 43.3008V29.8242H541.752V43.0664C541.752 46.1133 543.646 48.0859 546.361 48.0664C548.763 48.0859 551.771 46.2891 551.791 42.3242ZM568.608 51.4648C562.475 51.4844 558.686 47.1094 558.686 40.6055C558.686 34.082 562.534 29.5508 568.295 29.5508C572.748 29.5508 577.455 32.2852 577.436 40.1367V41.543H562.045C562.221 46.0352 564.838 48.4961 568.608 48.4961C571.147 48.4961 572.748 47.3828 573.53 46.0742H577.123C576.127 49.2969 572.983 51.4844 568.608 51.4648ZM562.065 38.6914H574.038C574.018 35.1562 571.791 32.5195 568.295 32.5195C564.623 32.5195 562.299 35.4102 562.065 38.6914ZM614.586 36.8945C614.605 45.8398 609.332 51.4258 602.086 51.4258C594.82 51.4258 589.566 45.8398 589.586 36.8945C589.566 27.9492 594.82 22.3633 602.086 22.3633C609.332 22.3633 614.605 27.9492 614.586 36.8945ZM592.984 36.8945C593.004 44.1797 596.969 48.125 602.086 48.1445C607.203 48.125 611.168 44.1797 611.188 36.8945C611.168 29.5898 607.203 25.6445 602.086 25.6445C596.969 25.6445 593.004 29.5898 592.984 36.8945ZM618.513 59.0039V29.8242H621.755V33.1836H622.145C622.868 32.0508 624.157 29.5508 628.278 29.5508C633.61 29.5508 637.302 33.7695 637.302 40.4883C637.302 47.2266 633.61 51.4844 628.317 51.4648C624.274 51.4844 622.868 48.9648 622.145 47.793H621.872V59.0039H618.513ZM621.794 40.4102C621.813 45.1758 623.942 48.457 627.848 48.457C631.872 48.457 633.942 44.9219 633.942 40.4102C633.942 35.9766 631.93 32.5586 627.848 32.5586C623.884 32.5586 621.813 35.7031 621.794 40.4102ZM649.783 51.4648C643.65 51.4844 639.861 47.1094 639.861 40.6055C639.861 34.082 643.709 29.5508 649.47 29.5508C653.923 29.5508 658.63 32.2852 658.611 40.1367V41.543H643.22C643.396 46.0352 646.013 48.4961 649.783 48.4961C652.322 48.4961 653.923 47.3828 654.705 46.0742H658.298C657.302 49.2969 654.158 51.4844 649.783 51.4648ZM643.24 38.6914H655.212C655.193 35.1562 652.966 32.5195 649.47 32.5195C645.798 32.5195 643.474 35.4102 643.24 38.6914ZM665.545 38.3008V51.0352H662.186V29.8242H665.428V33.1445H665.702C666.698 30.9766 668.69 29.5508 671.913 29.5508C676.209 29.5508 679.08 32.168 679.061 37.5586V51.0352H675.702V37.793C675.702 34.5117 673.905 32.5586 670.897 32.5586C667.811 32.5586 665.545 34.6289 665.545 38.3008ZM708.75 29.8633C708.457 27.0898 705.879 25.4883 702.5 25.4883C698.75 25.4883 696.309 27.4414 696.289 30.1367C696.309 33.1055 699.609 34.2188 701.758 34.7461L704.57 35.5273C707.598 36.3086 712.578 38.0469 712.578 43.3398C712.578 47.9492 708.867 51.5234 702.305 51.543C696.211 51.5234 692.441 48.3789 692.109 43.6914H695.703C695.996 46.8555 698.945 48.3594 702.305 48.3398C706.211 48.3594 709.141 46.3477 709.141 43.2617C709.141 40.5078 706.523 39.4531 703.555 38.6133L700.078 37.6758C695.645 36.3867 692.871 34.1211 692.891 30.293C692.871 25.5078 697.129 22.3633 702.617 22.3633C708.105 22.3633 712.051 25.5664 712.188 29.8633H708.75ZM725.645 29.8242V32.6367H721.192V44.9414C721.173 47.6562 722.54 48.1055 723.966 48.1055C724.571 48.1055 725.47 48.0469 725.958 48.0273V51.1523C725.43 51.2305 724.61 51.3086 723.614 51.3086C720.782 51.3086 717.813 49.5508 717.794 45.8008V32.6367H714.591V29.8242H717.794V24.7461H721.192V29.8242H725.645ZM742.58 42.3242V29.8242H745.9V51.0352H742.58V47.4414H742.345C741.349 49.5898 739.24 51.3086 736.056 51.3086C732.033 51.3086 729.162 48.6914 729.181 43.3008V29.8242H732.541V43.0664C732.541 46.1133 734.435 48.0859 737.15 48.0664C739.552 48.0859 742.56 46.2891 742.58 42.3242ZM758.498 51.4648C753.205 51.4844 749.475 47.2266 749.475 40.4883C749.475 33.7695 753.205 29.5508 758.538 29.5508C762.659 29.5508 763.948 32.0508 764.67 33.1836H764.905V22.7539H768.303V51.0352H765.022V47.793H764.67C763.928 48.9648 762.541 51.4844 758.498 51.4648ZM752.873 40.4102C752.873 44.9219 754.944 48.457 758.967 48.457C762.854 48.457 765.002 45.1758 765.022 40.4102C765.002 35.7031 762.913 32.5586 758.967 32.5586C754.885 32.5586 752.873 35.9766 752.873 40.4102ZM773.323 51.0352V29.8242H776.683V51.0352H773.323ZM772.659 24.082C772.64 22.832 773.714 21.8359 775.003 21.8555C776.292 21.8359 777.366 22.832 777.386 24.082C777.366 25.3125 776.292 26.3086 775.003 26.3086C773.714 26.3086 772.64 25.3125 772.659 24.082ZM789.906 51.4648C784.125 51.4844 780.219 47.1094 780.219 40.5273C780.219 33.9062 784.125 29.5508 789.906 29.5508C795.668 29.5508 799.535 33.9062 799.516 40.5273C799.535 47.1094 795.668 51.4844 789.906 51.4648ZM783.578 40.5273C783.598 44.7656 785.59 48.4961 789.906 48.4961C794.184 48.4961 796.156 44.7656 796.156 40.5273C796.156 36.3086 794.184 32.5195 789.906 32.5195C785.59 32.5195 783.598 36.3086 783.578 40.5273Z" fill="#1E1E1E"/>
<circle cx="281" cy="21.0352" r="15" stroke="#7737FF" stroke-width="12"/>
</svg>
