<svg width="1920" height="364" viewBox="0 0 1920 364" fill="none" xmlns="http://www.w3.org/2000/svg">
<rect width="1920" height="364" fill="white"/>
<path d="M324.125 58.7188H328.344L337.875 82H338.227L347.758 58.7188H351.977V87H348.656V65.6328H348.383L339.594 87H336.469L327.68 65.6328H327.445V87H324.125V58.7188ZM381.333 72.8594C381.352 81.8047 376.079 87.3906 368.833 87.3906C361.567 87.3906 356.313 81.8047 356.333 72.8594C356.313 63.9141 361.567 58.3281 368.833 58.3281C376.079 58.3281 381.352 63.9141 381.333 72.8594ZM359.731 72.8594C359.751 80.1445 363.716 84.0898 368.833 84.1094C373.95 84.0898 377.915 80.1445 377.934 72.8594C377.915 65.5547 373.95 61.6094 368.833 61.6094C363.716 61.6094 359.751 65.5547 359.731 72.8594ZM394.478 87H385.689V58.7188H394.83C403.091 58.7188 407.955 64.0117 407.955 72.8203C407.955 81.6484 403.091 87 394.478 87ZM389.205 83.875H394.244C401.177 83.875 404.517 79.6758 404.517 72.8203C404.517 65.9844 401.177 61.8438 394.595 61.8438H389.205V83.875ZM412.311 87V58.7188H429.459V61.8438H415.827V71.2969H428.561V74.3828H415.827V83.875H429.655V87H412.311ZM434.206 87V58.7188H437.722V83.875H450.847V87H434.206Z" fill="#1E1E1E"/>
<circle cx="281" cy="57" r="15" stroke="#7737FF" stroke-width="12"/>
<rect x="321" y="135" width="205" height="69" rx="34.5" fill="#7737FF"/>
<path d="M354.485 158.789L360.726 176.572H360.96L367.229 158.789H370.013L362.249 180H359.466L351.702 158.789H354.485ZM383.856 164.121C383.636 162.041 381.703 160.84 379.169 160.84C376.356 160.84 374.525 162.305 374.51 164.326C374.525 166.553 377.001 167.388 378.612 167.783L380.721 168.369C382.992 168.955 386.727 170.259 386.727 174.229C386.727 177.686 383.944 180.366 379.022 180.381C374.452 180.366 371.625 178.008 371.376 174.492H374.071C374.291 176.865 376.503 177.993 379.022 177.979C381.952 177.993 384.149 176.484 384.149 174.17C384.149 172.104 382.186 171.313 379.96 170.684L377.352 169.98C374.027 169.014 371.947 167.314 371.962 164.443C371.947 160.854 375.14 158.496 379.256 158.496C383.373 158.496 386.332 160.898 386.434 164.121H383.856ZM404.379 165.469C403.764 162.539 401.259 160.957 398.461 160.957C394.623 160.957 391.65 163.916 391.635 169.395C391.65 174.858 394.623 177.817 398.461 177.832C401.259 177.817 403.749 176.25 404.379 173.35H407.016C406.254 177.686 402.768 180.293 398.461 180.293C393.012 180.293 389.071 176.104 389.086 169.395C389.071 162.686 393.012 158.496 398.461 158.496C402.753 158.496 406.225 161.06 407.016 165.469H404.379ZM422.496 168.252V170.566H413.209V168.252H422.496ZM428.367 180L428.338 178.066L435.574 170.449C438.079 167.783 439.28 166.348 439.295 164.385C439.28 162.202 437.464 160.796 435.076 160.781C432.542 160.796 430.96 162.393 430.946 164.766H428.455C428.426 161.016 431.326 158.496 435.164 158.496C439.017 158.496 441.741 161.089 441.756 164.385C441.741 166.758 440.643 168.604 436.893 172.471L432.029 177.48V177.656H442.137V180H428.367ZM452.289 180.293C448.466 180.293 445.565 177.935 445.404 174.668H447.953C448.143 176.558 449.989 177.964 452.289 177.979C455.043 177.964 457.035 175.957 457.035 173.291C457.035 170.537 454.97 168.501 452.113 168.486C450.326 168.457 448.934 169.014 448.158 170.391H445.609L447.103 158.789H458.588V161.133H449.301L448.51 167.344H448.715C449.667 166.611 451.088 166.113 452.582 166.113C456.625 166.113 459.598 169.102 459.613 173.232C459.598 177.334 456.522 180.293 452.289 180.293ZM469.619 180.293C464.916 180.293 462.192 176.338 462.206 169.395C462.192 162.51 464.946 158.496 469.619 158.496C474.277 158.496 477.031 162.51 477.031 169.395C477.031 176.338 474.321 180.293 469.619 180.293ZM464.755 169.395C464.77 174.888 466.542 177.949 469.619 177.949C472.68 177.949 474.467 174.888 474.453 169.395C474.467 163.901 472.665 160.796 469.619 160.781C466.572 160.796 464.77 163.901 464.755 169.395ZM486.89 180.293C482.188 180.293 479.463 176.338 479.478 169.395C479.463 162.51 482.217 158.496 486.89 158.496C491.548 158.496 494.302 162.51 494.302 169.395C494.302 176.338 491.592 180.293 486.89 180.293ZM482.026 169.395C482.041 174.888 483.813 177.949 486.89 177.949C489.951 177.949 491.738 174.888 491.724 169.395C491.738 163.901 489.937 160.796 486.89 160.781C483.843 160.796 482.041 163.901 482.026 169.395Z" fill="white"/>
<path d="M560.481 158.906V165.293H566.165V158.906H568.274V166.23H572.2V156.914H574.397V181.084H572.2V168.164H568.274V175.84H558.284V158.906H560.481ZM560.481 173.906H566.165V167.168H560.481V173.906ZM577.415 182.373V156.328H579.642V182.373H577.415ZM602.801 156.328V166.934H607.02V168.867H602.801V182.373H600.516V156.328H602.801ZM582.821 175.605C589.545 172.266 593.207 167.241 593.734 161.074H584.022V159.141H596.063C596.048 166.509 592.591 173.232 584.11 177.422L582.821 175.605ZM620.951 160.166C620.966 164.634 626.064 168.604 630.59 169.453L629.535 171.387C625.595 170.479 621.464 167.681 619.779 163.857C618.08 167.681 613.964 170.464 610.024 171.387L608.969 169.453C613.481 168.589 618.534 164.648 618.549 160.166V158.174H620.951V160.166ZM607.973 178.828V176.924H631.821V178.828H607.973ZM662.466 156.328V182.373H660.21V168.75H656.607V181.084H654.41V157.031H656.607V166.846H660.21V156.328H662.466ZM640.259 175.166C646.309 171.782 648.799 167.021 649.195 161.631H641.255V159.727H651.451C651.421 166.348 649.092 172.603 641.607 176.777L640.259 175.166ZM668.927 157.441V161.191H676.515V157.441H678.8V168.779H666.671V157.441H668.927ZM668.927 166.904H676.515V162.979H668.927V166.904ZM669.308 172.881V171.035H685.919V177.334H671.622V180.205H686.886V182.08H669.366V175.576H683.634V172.881H669.308ZM683.634 169.805V156.328H685.919V161.982H689.845V163.916H685.919V169.805H683.634ZM707.072 163.33C707.058 168.091 710.295 172.866 714.133 174.609L712.727 176.426C709.753 174.99 707.19 171.899 705.945 168.193C704.743 172.119 702.18 175.415 699.133 176.953L697.668 175.02C701.55 173.247 704.758 168.267 704.787 163.33V158.584H707.072V163.33ZM716.975 182.432V156.328H719.289V182.432H716.975ZM736.121 160.166C736.136 164.634 741.233 168.604 745.76 169.453L744.705 171.387C740.764 170.479 736.634 167.681 734.949 163.857C733.25 167.681 729.134 170.464 725.193 171.387L724.138 169.453C728.65 168.589 733.704 164.648 733.719 160.166V158.174H736.121V160.166ZM723.142 178.828V176.924H746.99V178.828H723.142ZM759.632 158.027V159.961H751.898V163.184H758.548V165H751.898V168.545C755.677 168.53 758.006 168.384 760.804 167.871L761.038 169.717C758.021 170.288 755.56 170.405 751.341 170.42H749.701V158.027H759.632ZM753.392 182.021V173.232H770.589V182.021H753.392ZM755.648 180.146H768.333V175.107H755.648V180.146ZM759.779 164.795V162.891H763.294V156.797H765.521V171.797H763.294V164.795H759.779ZM768.392 172.031V156.328H770.589V172.031H768.392ZM796.475 161.279C796.489 164.692 799.038 167.739 802.862 168.984L801.778 170.801C798.775 169.805 796.504 167.739 795.376 165.117C794.263 168.105 791.861 170.435 788.74 171.562L787.569 169.717C791.465 168.398 794.19 165.044 794.219 161.279V160.166H788.272V158.262H802.334V160.166H796.475V161.279ZM791.026 177.51C791.04 174.507 794.307 172.764 799.668 172.764C805.015 172.764 808.252 174.507 808.252 177.51C808.252 180.557 805.015 182.314 799.668 182.314C794.307 182.314 791.04 180.557 791.026 177.51ZM793.34 177.51C793.311 179.385 795.742 180.483 799.668 180.469C803.609 180.483 806.011 179.385 806.026 177.51C806.011 175.693 803.609 174.609 799.668 174.609C795.742 174.609 793.311 175.693 793.34 177.51ZM805.733 172.061V156.328H808.018V162.979H811.944V164.912H808.018V172.061H805.733ZM834.459 156.328V182.432H832.144V156.328H834.459ZM814.508 176.133V158.555H816.793V165.439H824.556V158.555H826.812V176.133H814.508ZM816.793 174.199H824.556V167.285H816.793V174.199ZM846.163 158.027C850.163 158.057 853.092 160.518 853.107 164.15C853.092 167.417 850.719 169.731 847.335 170.171V174.595C849.767 174.492 852.213 174.316 854.484 174.023L854.63 175.752C849.108 176.689 842.955 176.748 838.371 176.719L837.99 174.785C840.084 174.771 842.501 174.756 845.021 174.683V170.171C841.564 169.761 839.205 167.432 839.22 164.15C839.205 160.518 842.091 158.057 846.163 158.027ZM841.476 164.15C841.447 166.597 843.424 168.296 846.163 168.281C848.859 168.296 850.822 166.597 850.851 164.15C850.822 161.704 848.859 160.034 846.163 160.02C843.424 160.034 841.447 161.704 841.476 164.15ZM856.154 182.373V156.328H858.439V167.08H862.687V169.072H858.439V182.373H856.154ZM879.006 158.789V180H876.34V161.543H876.223L871.067 164.971V162.305L876.34 158.789H879.006ZM885.877 180.176C884.852 180.161 883.973 179.312 884.002 178.271C883.973 177.246 884.852 176.396 885.877 176.396C886.917 176.396 887.767 177.246 887.752 178.271C887.767 179.312 886.917 180.161 885.877 180.176ZM884.031 166.494C884.002 165.469 884.881 164.619 885.906 164.619C886.946 164.619 887.796 165.469 887.781 166.494C887.796 167.534 886.946 168.384 885.906 168.398C884.881 168.384 884.002 167.534 884.031 166.494ZM898.578 158.789V180H895.912V161.543H895.795L890.638 164.971V162.305L895.912 158.789H898.578ZM931.216 156.357V175.605H928.901V168.574H922.163C920.962 170.112 919.028 171.035 916.802 171.035C912.905 171.035 910.02 168.34 910.034 164.531C910.02 160.708 912.905 158.013 916.802 157.998C919.014 158.013 920.918 158.921 922.134 160.43H928.901V156.357H931.216ZM912.231 164.531C912.231 167.139 914.136 168.999 916.802 168.984C919.365 168.999 921.313 167.139 921.313 164.531C921.313 161.938 919.365 160.063 916.802 160.049C914.136 160.063 912.231 161.938 912.231 164.531ZM914.487 181.816V173.584H916.802V179.883H931.948V181.816H914.487ZM923.174 162.334C923.408 163.008 923.54 163.74 923.54 164.531C923.54 165.293 923.408 166.011 923.188 166.67H928.901V162.334H923.174ZM958.712 169.219V171.064H934.952V169.219H945.704V166.172H937.969V157.559H955.753V159.404H940.225V164.297H955.928V166.172H947.93V169.219H958.712ZM937.823 177.656C937.808 174.683 941.192 172.983 946.817 172.969C952.398 172.983 955.753 174.683 955.782 177.656C955.753 180.659 952.398 182.344 946.817 182.373C941.192 182.344 937.808 180.659 937.823 177.656ZM940.167 177.656C940.137 179.487 942.642 180.542 946.817 180.527C950.948 180.542 953.453 179.487 953.467 177.656C953.453 175.854 950.948 174.785 946.817 174.785C942.642 174.785 940.137 175.854 940.167 177.656ZM976.467 163.33C976.452 168.091 979.689 172.866 983.527 174.609L982.121 176.426C979.147 174.99 976.584 171.899 975.339 168.193C974.138 172.119 971.574 175.415 968.527 176.953L967.062 175.02C970.944 173.247 974.152 168.267 974.181 163.33V158.584H976.467V163.33ZM986.369 182.432V156.328H988.683V182.432H986.369ZM1005.52 160.166C1005.53 164.634 1010.63 168.604 1015.15 169.453L1014.1 171.387C1010.16 170.479 1006.03 167.681 1004.34 163.857C1002.64 167.681 998.528 170.464 994.587 171.387L993.533 169.453C998.044 168.589 1003.1 164.648 1003.11 160.166V158.174H1005.52V160.166ZM992.537 178.828V176.924H1016.38V178.828H992.537ZM1029.03 158.027V159.961H1021.29V163.184H1027.94V165H1021.29V168.545C1025.07 168.53 1027.4 168.384 1030.2 167.871L1030.43 169.717C1027.42 170.288 1024.95 170.405 1020.74 170.42H1019.09V158.027H1029.03ZM1022.79 182.021V173.232H1039.98V182.021H1022.79ZM1025.04 180.146H1037.73V175.107H1025.04V180.146ZM1029.17 164.795V162.891H1032.69V156.797H1034.92V171.797H1032.69V164.795H1029.17ZM1037.79 172.031V156.328H1039.98V172.031H1037.79Z" fill="#5420C3"/>
<rect x="321" y="224" width="207" height="69" rx="34.5" fill="#7737FF"/>
<path d="M354.724 247.789L360.964 265.572H361.198L367.468 247.789H370.251L362.487 269H359.704L351.94 247.789H354.724ZM384.094 253.121C383.875 251.041 381.941 249.84 379.407 249.84C376.594 249.84 374.763 251.305 374.749 253.326C374.763 255.553 377.239 256.388 378.85 256.783L380.96 257.369C383.23 257.955 386.965 259.259 386.965 263.229C386.965 266.686 384.182 269.366 379.26 269.381C374.69 269.366 371.863 267.008 371.614 263.492H374.309C374.529 265.865 376.741 266.993 379.26 266.979C382.19 266.993 384.387 265.484 384.387 263.17C384.387 261.104 382.424 260.313 380.198 259.684L377.59 258.98C374.265 258.014 372.185 256.314 372.2 253.443C372.185 249.854 375.379 247.496 379.495 247.496C383.611 247.496 386.57 249.898 386.672 253.121H384.094ZM404.617 254.469C404.002 251.539 401.497 249.957 398.699 249.957C394.862 249.957 391.888 252.916 391.873 258.395C391.888 263.858 394.862 266.817 398.699 266.832C401.497 266.817 403.987 265.25 404.617 262.35H407.254C406.492 266.686 403.006 269.293 398.699 269.293C393.25 269.293 389.31 265.104 389.324 258.395C389.31 251.686 393.25 247.496 398.699 247.496C402.991 247.496 406.463 250.06 407.254 254.469H404.617ZM422.735 257.252V259.566H413.447V257.252H422.735ZM436.574 269.293C432.356 269.293 429.323 267.037 429.192 263.668H431.858C432.004 265.689 434.011 266.949 436.545 266.949C439.343 266.949 441.364 265.44 441.379 263.229C441.364 260.914 439.519 259.288 436.223 259.273H434.494V256.959H436.223C438.801 256.959 440.603 255.509 440.588 253.326C440.603 251.202 439.05 249.796 436.633 249.781C434.363 249.796 432.297 251.041 432.18 253.121H429.631C429.763 249.752 432.898 247.496 436.662 247.496C440.705 247.496 443.166 250.147 443.137 253.18C443.166 255.597 441.76 257.354 439.533 257.984V258.131C442.302 258.556 443.972 260.533 443.957 263.229C443.972 266.715 440.808 269.293 436.574 269.293ZM454.109 269.293C449.407 269.293 446.682 265.338 446.697 258.395C446.682 251.51 449.436 247.496 454.109 247.496C458.767 247.496 461.521 251.51 461.521 258.395C461.521 265.338 458.811 269.293 454.109 269.293ZM449.246 258.395C449.261 263.888 451.033 266.949 454.109 266.949C457.171 266.949 458.958 263.888 458.943 258.395C458.958 252.901 457.156 249.796 454.109 249.781C451.062 249.796 449.261 252.901 449.246 258.395ZM471.38 269.293C466.678 269.293 463.954 265.338 463.968 258.395C463.954 251.51 466.707 247.496 471.38 247.496C476.038 247.496 478.792 251.51 478.792 258.395C478.792 265.338 476.082 269.293 471.38 269.293ZM466.517 258.395C466.532 263.888 468.304 266.949 471.38 266.949C474.442 266.949 476.229 263.888 476.214 258.395C476.229 252.901 474.427 249.796 471.38 249.781C468.333 249.796 466.532 252.901 466.517 258.395ZM488.651 269.293C483.949 269.293 481.225 265.338 481.239 258.395C481.225 251.51 483.979 247.496 488.651 247.496C493.31 247.496 496.063 251.51 496.063 258.395C496.063 265.338 493.354 269.293 488.651 269.293ZM483.788 258.395C483.803 263.888 485.575 266.949 488.651 266.949C491.713 266.949 493.5 263.888 493.485 258.395C493.5 252.901 491.698 249.796 488.651 249.781C485.604 249.796 483.803 252.901 483.788 258.395Z" fill="white"/>
<path d="M562.292 247.906V254.293H567.976V247.906H570.085V255.23H574.011V245.914H576.208V270.084H574.011V257.164H570.085V264.84H560.095V247.906H562.292ZM562.292 262.906H567.976V256.168H562.292V262.906ZM579.226 271.373V245.328H581.452V271.373H579.226ZM604.612 245.328V255.934H608.831V257.867H604.612V271.373H602.327V245.328H604.612ZM584.631 264.605C591.355 261.266 595.017 256.241 595.545 250.074H585.833V248.141H597.874C597.859 255.509 594.402 262.232 585.921 266.422L584.631 264.605ZM622.762 249.166C622.777 253.634 627.874 257.604 632.401 258.453L631.346 260.387C627.405 259.479 623.275 256.681 621.59 252.857C619.891 256.681 615.775 259.464 611.834 260.387L610.779 258.453C615.291 257.589 620.345 253.648 620.36 249.166V247.174H622.762V249.166ZM609.783 267.828V265.924H633.631V267.828H609.783ZM664.277 245.328V271.373H662.021V257.75H658.417V270.084H656.22V246.031H658.417V255.846H662.021V245.328H664.277ZM642.07 264.166C648.12 260.782 650.61 256.021 651.005 250.631H643.066V248.727H653.261C653.232 255.348 650.903 261.603 643.417 265.777L642.07 264.166ZM670.737 246.441V250.191H678.325V246.441H680.61V257.779H668.481V246.441H670.737ZM670.737 255.904H678.325V251.979H670.737V255.904ZM671.118 261.881V260.035H687.729V266.334H673.433V269.205H688.696V271.08H671.177V264.576H685.444V261.881H671.118ZM685.444 258.805V245.328H687.729V250.982H691.655V252.916H687.729V258.805H685.444ZM708.883 252.33C708.868 257.091 712.106 261.866 715.944 263.609L714.537 265.426C711.564 263.99 709 260.899 707.755 257.193C706.554 261.119 703.99 264.415 700.944 265.953L699.479 264.02C703.361 262.247 706.569 257.267 706.598 252.33V247.584H708.883V252.33ZM718.785 271.432V245.328H721.1V271.432H718.785ZM737.931 249.166C737.946 253.634 743.044 257.604 747.57 258.453L746.515 260.387C742.575 259.479 738.444 256.681 736.76 252.857C735.06 256.681 730.944 259.464 727.004 260.387L725.949 258.453C730.461 257.589 735.514 253.648 735.529 249.166V247.174H737.931V249.166ZM724.953 267.828V265.924H748.801V267.828H724.953ZM761.443 247.027V248.961H753.708V252.184H760.359V254H753.708V257.545C757.488 257.53 759.817 257.384 762.615 256.871L762.849 258.717C759.831 259.288 757.371 259.405 753.152 259.42H751.511V247.027H761.443ZM755.203 271.021V262.232H772.4V271.021H755.203ZM757.458 269.146H770.144V264.107H757.458V269.146ZM761.589 253.795V251.891H765.105V245.797H767.331V260.797H765.105V253.795H761.589ZM770.203 261.031V245.328H772.4V261.031H770.203ZM798.285 250.279C798.3 253.692 800.849 256.739 804.672 257.984L803.588 259.801C800.585 258.805 798.315 256.739 797.187 254.117C796.073 257.105 793.671 259.435 790.551 260.562L789.379 258.717C793.276 257.398 796 254.044 796.029 250.279V249.166H790.082V247.262H804.145V249.166H798.285V250.279ZM792.836 266.51C792.851 263.507 796.117 261.764 801.479 261.764C806.825 261.764 810.063 263.507 810.063 266.51C810.063 269.557 806.825 271.314 801.479 271.314C796.117 271.314 792.851 269.557 792.836 266.51ZM795.151 266.51C795.121 268.385 797.553 269.483 801.479 269.469C805.419 269.483 807.821 268.385 807.836 266.51C807.821 264.693 805.419 263.609 801.479 263.609C797.553 263.609 795.121 264.693 795.151 266.51ZM807.543 261.061V245.328H809.828V251.979H813.754V253.912H809.828V261.061H807.543ZM836.269 245.328V271.432H833.955V245.328H836.269ZM816.318 265.133V247.555H818.603V254.439H826.367V247.555H828.623V265.133H816.318ZM818.603 263.199H826.367V256.285H818.603V263.199ZM847.974 247.027C851.973 247.057 854.903 249.518 854.917 253.15C854.903 256.417 852.53 258.731 849.146 259.171V263.595C851.578 263.492 854.024 263.316 856.294 263.023L856.441 264.752C850.918 265.689 844.766 265.748 840.181 265.719L839.8 263.785C841.895 263.771 844.312 263.756 846.831 263.683V259.171C843.374 258.761 841.016 256.432 841.031 253.15C841.016 249.518 843.902 247.057 847.974 247.027ZM843.287 253.15C843.257 255.597 845.235 257.296 847.974 257.281C850.669 257.296 852.632 255.597 852.662 253.15C852.632 250.704 850.669 249.034 847.974 249.02C845.235 249.034 843.257 250.704 843.287 253.15ZM857.964 271.373V245.328H860.249V256.08H864.497V258.072H860.249V271.373H857.964ZM880.817 247.789V269H878.151V250.543H878.034L872.878 253.971V251.305L878.151 247.789H880.817ZM887.688 269.176C886.662 269.161 885.783 268.312 885.813 267.271C885.783 266.246 886.662 265.396 887.688 265.396C888.728 265.396 889.577 266.246 889.563 267.271C889.577 268.312 888.728 269.161 887.688 269.176ZM885.842 255.494C885.813 254.469 886.692 253.619 887.717 253.619C888.757 253.619 889.607 254.469 889.592 255.494C889.607 256.534 888.757 257.384 887.717 257.398C886.692 257.384 885.813 256.534 885.842 255.494ZM910.086 247.789V269H907.566L896.082 252.477H895.877V269H893.24V247.789H895.789L907.273 264.342H907.478V247.789H910.086ZM941.405 245.357V264.605H939.091V257.574H932.353C931.151 259.112 929.218 260.035 926.991 260.035C923.095 260.035 920.209 257.34 920.224 253.531C920.209 249.708 923.095 247.013 926.991 246.998C929.203 247.013 931.107 247.921 932.323 249.43H939.091V245.357H941.405ZM922.421 253.531C922.421 256.139 924.325 257.999 926.991 257.984C929.555 257.999 931.503 256.139 931.503 253.531C931.503 250.938 929.555 249.063 926.991 249.049C924.325 249.063 922.421 250.938 922.421 253.531ZM924.677 270.816V262.584H926.991V268.883H942.138V270.816H924.677ZM933.363 251.334C933.598 252.008 933.729 252.74 933.729 253.531C933.729 254.293 933.598 255.011 933.378 255.67H939.091V251.334H933.363ZM968.901 258.219V260.064H945.141V258.219H955.893V255.172H948.159V246.559H965.942V248.404H950.415V253.297H966.118V255.172H958.12V258.219H968.901ZM948.012 266.656C947.998 263.683 951.381 261.983 957.006 261.969C962.587 261.983 965.942 263.683 965.971 266.656C965.942 269.659 962.587 271.344 957.006 271.373C951.381 271.344 947.998 269.659 948.012 266.656ZM950.356 266.656C950.327 268.487 952.832 269.542 957.006 269.527C961.137 269.542 963.642 268.487 963.657 266.656C963.642 264.854 961.137 263.785 957.006 263.785C952.832 263.785 950.327 264.854 950.356 266.656ZM986.656 252.33C986.641 257.091 989.879 261.866 993.717 263.609L992.31 265.426C989.337 263.99 986.773 260.899 985.528 257.193C984.327 261.119 981.763 264.415 978.717 265.953L977.252 264.02C981.134 262.247 984.342 257.267 984.371 252.33V247.584H986.656V252.33ZM996.558 271.432V245.328H998.873V271.432H996.558ZM1015.7 249.166C1015.72 253.634 1020.82 257.604 1025.34 258.453L1024.29 260.387C1020.35 259.479 1016.22 256.681 1014.53 252.857C1012.83 256.681 1008.72 259.464 1004.78 260.387L1003.72 258.453C1008.23 257.589 1013.29 253.648 1013.3 249.166V247.174H1015.7V249.166ZM1002.73 267.828V265.924H1026.57V267.828H1002.73ZM1039.22 247.027V248.961H1031.48V252.184H1038.13V254H1031.48V257.545C1035.26 257.53 1037.59 257.384 1040.39 256.871L1040.62 258.717C1037.6 259.288 1035.14 259.405 1030.92 259.42H1029.28V247.027H1039.22ZM1032.98 271.021V262.232H1050.17V271.021H1032.98ZM1035.23 269.146H1047.92V264.107H1035.23V269.146ZM1039.36 253.795V251.891H1042.88V245.797H1045.1V260.797H1042.88V253.795H1039.36ZM1047.98 261.031V245.328H1050.17V261.031H1047.98Z" fill="#5420C3"/>
</svg>
