<svg width="1920" height="70" viewBox="0 0 1920 70" fill="none" xmlns="http://www.w3.org/2000/svg">
<rect width="1920" height="69" fill="white"/>
<path d="M339.555 29.8633C339.262 27.0898 336.684 25.4883 333.305 25.4883C329.555 25.4883 327.113 27.4414 327.094 30.1367C327.113 33.1055 330.414 34.2188 332.562 34.7461L335.375 35.5273C338.402 36.3086 343.383 38.0469 343.383 43.3398C343.383 47.9492 339.672 51.5234 333.109 51.543C327.016 51.5234 323.246 48.3789 322.914 43.6914H326.508C326.801 46.8555 329.75 48.3594 333.109 48.3398C337.016 48.3594 339.945 46.3477 339.945 43.2617C339.945 40.5078 337.328 39.4531 334.359 38.6133L330.883 37.6758C326.449 36.3867 323.676 34.1211 323.695 30.293C323.676 25.5078 327.934 22.3633 333.422 22.3633C338.91 22.3633 342.855 25.5664 342.992 29.8633H339.555ZM355.864 51.4648C349.848 51.4844 346.177 46.8945 346.177 40.5273C346.177 34.082 350.024 29.5508 355.786 29.5508C360.298 29.5508 363.696 32.2266 364.223 36.2305H360.864C360.376 34.2969 358.696 32.5195 355.864 32.5195C352.075 32.5195 349.555 35.6445 349.536 40.4102C349.555 45.3125 352.016 48.457 355.864 48.457C358.364 48.457 360.278 47.1094 360.864 44.7852H364.223C363.696 48.5742 360.571 51.4844 355.864 51.4648ZM370.923 38.3008V51.0352H367.564V22.7539H370.923V33.1445H371.197C372.193 30.957 374.088 29.5508 377.447 29.5508C381.783 29.5508 384.673 32.1094 384.673 37.5586V51.0352H381.314V37.793C381.314 34.4531 379.478 32.5586 376.431 32.5586C373.267 32.5586 370.923 34.6289 370.923 38.3008ZM392.623 38.3008V51.0352H389.264V29.8242H392.506V33.1445H392.78C393.776 30.9766 395.768 29.5508 398.991 29.5508C403.287 29.5508 406.159 32.168 406.139 37.5586V51.0352H402.78V37.793C402.78 34.5117 400.983 32.5586 397.975 32.5586C394.889 32.5586 392.623 34.6289 392.623 38.3008ZM419.636 51.4648C413.503 51.4844 409.714 47.1094 409.714 40.6055C409.714 34.082 413.562 29.5508 419.323 29.5508C423.777 29.5508 428.484 32.2852 428.464 40.1367V41.543H413.073C413.249 46.0352 415.866 48.4961 419.636 48.4961C422.175 48.4961 423.777 47.3828 424.558 46.0742H428.152C427.155 49.2969 424.011 51.4844 419.636 51.4648ZM413.093 38.6914H425.066C425.046 35.1562 422.82 32.5195 419.323 32.5195C415.652 32.5195 413.327 35.4102 413.093 38.6914ZM432.039 51.0352V29.8242H435.398V51.0352H432.039ZM431.375 24.082C431.355 22.832 432.43 21.8359 433.719 21.8555C435.008 21.8359 436.082 22.832 436.102 24.082C436.082 25.3125 435.008 26.3086 433.719 26.3086C432.43 26.3086 431.355 25.3125 431.375 24.082ZM447.958 51.4648C442.665 51.4844 438.934 47.2266 438.934 40.4883C438.934 33.7695 442.665 29.5508 447.997 29.5508C452.118 29.5508 453.407 32.0508 454.13 33.1836H454.364V22.7539H457.762V51.0352H454.481V47.793H454.13C453.387 48.9648 452.001 51.4844 447.958 51.4648ZM442.333 40.4102C442.333 44.9219 444.403 48.457 448.427 48.457C452.313 48.457 454.462 45.1758 454.481 40.4102C454.462 35.7031 452.372 32.5586 448.427 32.5586C444.345 32.5586 442.333 35.9766 442.333 40.4102ZM471.689 51.4648C465.556 51.4844 461.767 47.1094 461.767 40.6055C461.767 34.082 465.615 29.5508 471.377 29.5508C475.83 29.5508 480.537 32.2852 480.517 40.1367V41.543H465.127C465.302 46.0352 467.92 48.4961 471.689 48.4961C474.228 48.4961 475.83 47.3828 476.611 46.0742H480.205C479.209 49.2969 476.064 51.4844 471.689 51.4648ZM465.146 38.6914H477.119C477.099 35.1562 474.873 32.5195 471.377 32.5195C467.705 32.5195 465.38 35.4102 465.146 38.6914ZM484.092 51.0352V29.8242H487.334V33.0664H487.569C488.33 30.918 490.538 29.4922 493.038 29.4727C493.545 29.4922 494.405 29.5117 494.795 29.5508V32.9492C494.541 32.8906 493.643 32.7148 492.764 32.7148C489.717 32.7148 487.452 34.8242 487.452 37.6758V51.0352H484.092ZM510.461 22.7539V51.0352H506.945V22.7539H510.461ZM518.841 38.3008V51.0352H515.481V29.8242H518.723V33.1445H518.997C519.993 30.9766 521.985 29.5508 525.208 29.5508C529.505 29.5508 532.376 32.168 532.356 37.5586V51.0352H528.997V37.793C528.997 34.5117 527.2 32.5586 524.192 32.5586C521.106 32.5586 518.841 34.6289 518.841 38.3008ZM546.205 29.8242V32.6367H541.752V44.9414C541.732 47.6562 543.099 48.1055 544.525 48.1055C545.13 48.1055 546.029 48.0469 546.517 48.0273V51.1523C545.99 51.2305 545.17 51.3086 544.173 51.3086C541.341 51.3086 538.373 49.5508 538.353 45.8008V32.6367H535.15V29.8242H538.353V24.7461H541.752V29.8242H546.205ZM558.178 51.4648C552.397 51.4844 548.491 47.1094 548.491 40.5273C548.491 33.9062 552.397 29.5508 558.178 29.5508C563.94 29.5508 567.807 33.9062 567.788 40.5273C567.807 47.1094 563.94 51.4844 558.178 51.4648ZM551.85 40.5273C551.87 44.7656 553.862 48.4961 558.178 48.4961C562.455 48.4961 564.428 44.7656 564.428 40.5273C564.428 36.3086 562.455 32.5195 558.178 32.5195C553.862 32.5195 551.87 36.3086 551.85 40.5273ZM584.8 42.3242V29.8242H588.12V51.0352H584.8V47.4414H584.566C583.57 49.5898 581.46 51.3086 578.277 51.3086C574.253 51.3086 571.382 48.6914 571.402 43.3008V29.8242H574.761V43.0664C574.761 46.1133 576.655 48.0859 579.37 48.0664C581.773 48.0859 584.78 46.2891 584.8 42.3242ZM601.383 51.4648C595.367 51.4844 591.695 46.8945 591.695 40.5273C591.695 34.082 595.543 29.5508 601.305 29.5508C605.816 29.5508 609.215 32.2266 609.742 36.2305H606.383C605.895 34.2969 604.215 32.5195 601.383 32.5195C597.594 32.5195 595.074 35.6445 595.055 40.4102C595.074 45.3125 597.535 48.457 601.383 48.457C603.883 48.457 605.797 47.1094 606.383 44.7852H609.742C609.215 48.5742 606.09 51.4844 601.383 51.4648ZM616.442 38.3008V51.0352H613.083V22.7539H616.442V33.1445H616.716C617.712 30.957 619.606 29.5508 622.966 29.5508C627.302 29.5508 630.192 32.1094 630.192 37.5586V51.0352H626.833V37.793C626.833 34.4531 624.997 32.5586 621.95 32.5586C618.786 32.5586 616.442 34.6289 616.442 38.3008Z" fill="#1E1E1E"/>
<circle cx="281" cy="21.0352" r="15" stroke="#7737FF" stroke-width="12"/>
</svg>
