<svg width="373" height="70" viewBox="0 0 373 70" fill="none" xmlns="http://www.w3.org/2000/svg">
<path d="M79.5547 29.8633C79.2617 27.0898 76.6836 25.4883 73.3047 25.4883C69.5547 25.4883 67.1133 27.4414 67.0938 30.1367C67.1133 33.1055 70.4141 34.2188 72.5625 34.7461L75.375 35.5273C78.4023 36.3086 83.3828 38.0469 83.3828 43.3398C83.3828 47.9492 79.6719 51.5234 73.1094 51.543C67.0156 51.5234 63.2461 48.3789 62.9141 43.6914H66.5078C66.8008 46.8555 69.75 48.3594 73.1094 48.3398C77.0156 48.3594 79.9453 46.3477 79.9453 43.2617C79.9453 40.5078 77.3281 39.4531 74.3594 38.6133L70.8828 37.6758C66.4492 36.3867 63.6758 34.1211 63.6953 30.293C63.6758 25.5078 67.9336 22.3633 73.4219 22.3633C78.9102 22.3633 82.8555 25.5664 82.9922 29.8633H79.5547ZM95.8641 51.4648C89.8484 51.4844 86.1766 46.8945 86.1766 40.5273C86.1766 34.082 90.0242 29.5508 95.7859 29.5508C100.298 29.5508 103.696 32.2266 104.223 36.2305H100.864C100.376 34.2969 98.6961 32.5195 95.8641 32.5195C92.075 32.5195 89.5555 35.6445 89.5359 40.4102C89.5555 45.3125 92.0164 48.457 95.8641 48.457C98.3641 48.457 100.278 47.1094 100.864 44.7852H104.223C103.696 48.5742 100.571 51.4844 95.8641 51.4648ZM110.923 38.3008V51.0352H107.564V22.7539H110.923V33.1445H111.197C112.193 30.957 114.088 29.5508 117.447 29.5508C121.783 29.5508 124.673 32.1094 124.673 37.5586V51.0352H121.314V37.793C121.314 34.4531 119.478 32.5586 116.431 32.5586C113.267 32.5586 110.923 34.6289 110.923 38.3008ZM132.623 38.3008V51.0352H129.264V29.8242H132.506V33.1445H132.78C133.776 30.9766 135.768 29.5508 138.991 29.5508C143.287 29.5508 146.159 32.168 146.139 37.5586V51.0352H142.78V37.793C142.78 34.5117 140.983 32.5586 137.975 32.5586C134.889 32.5586 132.623 34.6289 132.623 38.3008ZM159.636 51.4648C153.503 51.4844 149.714 47.1094 149.714 40.6055C149.714 34.082 153.562 29.5508 159.323 29.5508C163.777 29.5508 168.484 32.2852 168.464 40.1367V41.543H153.073C153.249 46.0352 155.866 48.4961 159.636 48.4961C162.175 48.4961 163.777 47.3828 164.558 46.0742H168.152C167.155 49.2969 164.011 51.4844 159.636 51.4648ZM153.093 38.6914H165.066C165.046 35.1562 162.82 32.5195 159.323 32.5195C155.652 32.5195 153.327 35.4102 153.093 38.6914ZM172.039 51.0352V29.8242H175.398V51.0352H172.039ZM171.375 24.082C171.355 22.832 172.43 21.8359 173.719 21.8555C175.008 21.8359 176.082 22.832 176.102 24.082C176.082 25.3125 175.008 26.3086 173.719 26.3086C172.43 26.3086 171.355 25.3125 171.375 24.082ZM187.958 51.4648C182.665 51.4844 178.934 47.2266 178.934 40.4883C178.934 33.7695 182.665 29.5508 187.997 29.5508C192.118 29.5508 193.407 32.0508 194.13 33.1836H194.364V22.7539H197.762V51.0352H194.481V47.793H194.13C193.387 48.9648 192.001 51.4844 187.958 51.4648ZM182.333 40.4102C182.333 44.9219 184.403 48.457 188.427 48.457C192.313 48.457 194.462 45.1758 194.481 40.4102C194.462 35.7031 192.372 32.5586 188.427 32.5586C184.345 32.5586 182.333 35.9766 182.333 40.4102ZM211.689 51.4648C205.556 51.4844 201.767 47.1094 201.767 40.6055C201.767 34.082 205.615 29.5508 211.377 29.5508C215.83 29.5508 220.537 32.2852 220.517 40.1367V41.543H205.127C205.302 46.0352 207.92 48.4961 211.689 48.4961C214.228 48.4961 215.83 47.3828 216.611 46.0742H220.205C219.209 49.2969 216.064 51.4844 211.689 51.4648ZM205.146 38.6914H217.119C217.099 35.1562 214.873 32.5195 211.377 32.5195C207.705 32.5195 205.38 35.4102 205.146 38.6914ZM224.092 51.0352V29.8242H227.334V33.0664H227.569C228.33 30.918 230.538 29.4922 233.038 29.4727C233.545 29.4922 234.405 29.5117 234.795 29.5508V32.9492C234.541 32.8906 233.643 32.7148 232.764 32.7148C229.717 32.7148 227.452 34.8242 227.452 37.6758V51.0352H224.092ZM250.461 22.7539V51.0352H246.945V22.7539H250.461ZM258.841 38.3008V51.0352H255.481V29.8242H258.723V33.1445H258.997C259.993 30.9766 261.985 29.5508 265.208 29.5508C269.505 29.5508 272.376 32.168 272.356 37.5586V51.0352H268.997V37.793C268.997 34.5117 267.2 32.5586 264.192 32.5586C261.106 32.5586 258.841 34.6289 258.841 38.3008ZM286.205 29.8242V32.6367H281.752V44.9414C281.732 47.6562 283.099 48.1055 284.525 48.1055C285.13 48.1055 286.029 48.0469 286.517 48.0273V51.1523C285.99 51.2305 285.17 51.3086 284.173 51.3086C281.341 51.3086 278.373 49.5508 278.353 45.8008V32.6367H275.15V29.8242H278.353V24.7461H281.752V29.8242H286.205ZM298.178 51.4648C292.397 51.4844 288.491 47.1094 288.491 40.5273C288.491 33.9062 292.397 29.5508 298.178 29.5508C303.94 29.5508 307.807 33.9062 307.788 40.5273C307.807 47.1094 303.94 51.4844 298.178 51.4648ZM291.85 40.5273C291.87 44.7656 293.862 48.4961 298.178 48.4961C302.455 48.4961 304.428 44.7656 304.428 40.5273C304.428 36.3086 302.455 32.5195 298.178 32.5195C293.862 32.5195 291.87 36.3086 291.85 40.5273ZM324.8 42.3242V29.8242H328.12V51.0352H324.8V47.4414H324.566C323.57 49.5898 321.46 51.3086 318.277 51.3086C314.253 51.3086 311.382 48.6914 311.402 43.3008V29.8242H314.761V43.0664C314.761 46.1133 316.655 48.0859 319.37 48.0664C321.773 48.0859 324.78 46.2891 324.8 42.3242ZM341.383 51.4648C335.367 51.4844 331.695 46.8945 331.695 40.5273C331.695 34.082 335.543 29.5508 341.305 29.5508C345.816 29.5508 349.215 32.2266 349.742 36.2305H346.383C345.895 34.2969 344.215 32.5195 341.383 32.5195C337.594 32.5195 335.074 35.6445 335.055 40.4102C335.074 45.3125 337.535 48.457 341.383 48.457C343.883 48.457 345.797 47.1094 346.383 44.7852H349.742C349.215 48.5742 346.09 51.4844 341.383 51.4648ZM356.442 38.3008V51.0352H353.083V22.7539H356.442V33.1445H356.716C357.712 30.957 359.606 29.5508 362.966 29.5508C367.302 29.5508 370.192 32.1094 370.192 37.5586V51.0352H366.833V37.793C366.833 34.4531 364.997 32.5586 361.95 32.5586C358.786 32.5586 356.442 34.6289 356.442 38.3008Z" fill="#1E1E1E"/>
<circle cx="21" cy="21.0352" r="15" stroke="#7737FF" stroke-width="12"/>
</svg>
