<svg width="325" height="70" viewBox="0 0 325 70" fill="none" xmlns="http://www.w3.org/2000/svg">
<path d="M79.5547 29.8633C79.2617 27.0898 76.6836 25.4883 73.3047 25.4883C69.5547 25.4883 67.1133 27.4414 67.0938 30.1367C67.1133 33.1055 70.4141 34.2188 72.5625 34.7461L75.375 35.5273C78.4023 36.3086 83.3828 38.0469 83.3828 43.3398C83.3828 47.9492 79.6719 51.5234 73.1094 51.543C67.0156 51.5234 63.2461 48.3789 62.9141 43.6914H66.5078C66.8008 46.8555 69.75 48.3594 73.1094 48.3398C77.0156 48.3594 79.9453 46.3477 79.9453 43.2617C79.9453 40.5078 77.3281 39.4531 74.3594 38.6133L70.8828 37.6758C66.4492 36.3867 63.6758 34.1211 63.6953 30.293C63.6758 25.5078 67.9336 22.3633 73.4219 22.3633C78.9102 22.3633 82.8555 25.5664 82.9922 29.8633H79.5547ZM87.1922 51.0352V29.8242H90.5516V51.0352H87.1922ZM86.5281 24.082C86.5086 22.832 87.5828 21.8359 88.8719 21.8555C90.1609 21.8359 91.2352 22.832 91.2547 24.082C91.2352 25.3125 90.1609 26.3086 88.8719 26.3086C87.5828 26.3086 86.5086 25.3125 86.5281 24.082ZM104.009 51.4648C97.8766 51.4844 94.0875 47.1094 94.0875 40.6055C94.0875 34.082 97.9352 29.5508 103.697 29.5508C108.15 29.5508 112.857 32.2852 112.837 40.1367V41.543H97.4469C97.6227 46.0352 100.24 48.4961 104.009 48.4961C106.548 48.4961 108.15 47.3828 108.931 46.0742H112.525C111.529 49.2969 108.384 51.4844 104.009 51.4648ZM97.4664 38.6914H109.439C109.42 35.1562 107.193 32.5195 103.697 32.5195C100.025 32.5195 97.7008 35.4102 97.4664 38.6914ZM116.412 51.0352V29.8242H119.655V33.1445H119.928C120.807 30.8789 122.858 29.5508 125.631 29.5508C128.405 29.5508 130.299 30.8789 131.295 33.1445H131.53C132.604 30.957 134.85 29.5508 137.897 29.5508C141.666 29.5508 144.381 31.8555 144.381 36.8555V51.0352H141.022V36.8945C141.002 33.7695 139.049 32.5586 136.725 32.5586C133.776 32.5586 132.096 34.5508 132.077 37.2461V51.0352H128.678V36.543C128.698 34.1602 126.979 32.5586 124.537 32.5586C121.998 32.5586 119.772 34.707 119.772 37.793V51.0352H116.412ZM157.878 51.4648C151.745 51.4844 147.956 47.1094 147.956 40.6055C147.956 34.082 151.804 29.5508 157.566 29.5508C162.019 29.5508 166.726 32.2852 166.706 40.1367V41.543H151.316C151.491 46.0352 154.109 48.4961 157.878 48.4961C160.417 48.4961 162.019 47.3828 162.8 46.0742H166.394C165.398 49.2969 162.253 51.4844 157.878 51.4648ZM151.335 38.6914H163.308C163.288 35.1562 161.062 32.5195 157.566 32.5195C153.894 32.5195 151.57 35.4102 151.335 38.6914ZM173.641 38.3008V51.0352H170.281V29.8242H173.523V33.1445H173.797C174.793 30.9766 176.785 29.5508 180.008 29.5508C184.305 29.5508 187.176 32.168 187.156 37.5586V51.0352H183.797V37.793C183.797 34.5117 182 32.5586 178.992 32.5586C175.906 32.5586 173.641 34.6289 173.641 38.3008ZM203.544 35.332C203.075 33.5742 201.727 32.4219 199.247 32.4023C196.63 32.4219 194.774 33.8281 194.755 35.6055C194.774 37.0117 195.907 37.9688 198.387 38.5742L201.552 39.3555C205.341 40.2539 207.196 42.1484 207.216 45.0977C207.196 48.7695 204.208 51.4844 198.895 51.4648C194.13 51.4844 191.298 49.3555 190.731 45.4883H194.247C194.637 47.5586 196.141 48.5547 198.817 48.5352C201.845 48.5547 203.739 47.2852 203.739 45.293C203.739 43.7891 202.665 42.8125 200.262 42.2461L197.059 41.5039C193.368 40.6445 191.395 38.6328 191.395 35.8008C191.395 32.168 194.579 29.5508 199.247 29.5508C203.641 29.5508 206.395 31.8945 206.825 35.332H203.544ZM225.694 51.0352L217.959 22.7539H221.514L227.413 45.6445H227.686L233.663 22.7539H237.608L243.623 45.6445H243.858L249.756 22.7539H253.311L245.577 51.0352H241.944L235.772 28.6523H235.538L229.327 51.0352H225.694ZM255.831 51.0352V29.8242H259.191V51.0352H255.831ZM255.167 24.082C255.148 22.832 256.222 21.8359 257.511 21.8555C258.8 21.8359 259.874 22.832 259.894 24.082C259.874 25.3125 258.8 26.3086 257.511 26.3086C256.222 26.3086 255.148 25.3125 255.167 24.082ZM267.102 38.3008V51.0352H263.742V29.8242H266.984V33.1445H267.258C268.254 30.9766 270.246 29.5508 273.469 29.5508C277.766 29.5508 280.637 32.168 280.617 37.5586V51.0352H277.258V37.793C277.258 34.5117 275.461 32.5586 272.453 32.5586C269.367 32.5586 267.102 34.6289 267.102 38.3008ZM293.88 51.4648C287.864 51.4844 284.192 46.8945 284.192 40.5273C284.192 34.082 288.04 29.5508 293.802 29.5508C298.313 29.5508 301.712 32.2266 302.239 36.2305H298.88C298.391 34.2969 296.712 32.5195 293.88 32.5195C290.091 32.5195 287.571 35.6445 287.552 40.4102C287.571 45.3125 290.032 48.457 293.88 48.457C296.38 48.457 298.294 47.1094 298.88 44.7852H302.239C301.712 48.5742 298.587 51.4844 293.88 51.4648ZM314.252 51.4648C308.236 51.4844 304.564 46.8945 304.564 40.5273C304.564 34.082 308.412 29.5508 314.173 29.5508C318.685 29.5508 322.084 32.2266 322.611 36.2305H319.252C318.763 34.2969 317.084 32.5195 314.252 32.5195C310.462 32.5195 307.943 35.6445 307.923 40.4102C307.943 45.3125 310.404 48.457 314.252 48.457C316.752 48.457 318.666 47.1094 319.252 44.7852H322.611C322.084 48.5742 318.959 51.4844 314.252 51.4648Z" fill="#1E1E1E"/>
<circle cx="21" cy="21.0352" r="15" stroke="#7737FF" stroke-width="12"/>
</svg>
