<svg width="1920" height="70" viewBox="0 0 1920 70" fill="none" xmlns="http://www.w3.org/2000/svg">
<rect width="1920" height="69" fill="white"/>
<path d="M339.555 29.8633C339.262 27.0898 336.684 25.4883 333.305 25.4883C329.555 25.4883 327.113 27.4414 327.094 30.1367C327.113 33.1055 330.414 34.2188 332.562 34.7461L335.375 35.5273C338.402 36.3086 343.383 38.0469 343.383 43.3398C343.383 47.9492 339.672 51.5234 333.109 51.543C327.016 51.5234 323.246 48.3789 322.914 43.6914H326.508C326.801 46.8555 329.75 48.3594 333.109 48.3398C337.016 48.3594 339.945 46.3477 339.945 43.2617C339.945 40.5078 337.328 39.4531 334.359 38.6133L330.883 37.6758C326.449 36.3867 323.676 34.1211 323.695 30.293C323.676 25.5078 327.934 22.3633 333.422 22.3633C338.91 22.3633 342.855 25.5664 342.992 29.8633H339.555ZM347.192 51.0352V29.8242H350.552V51.0352H347.192ZM346.528 24.082C346.509 22.832 347.583 21.8359 348.872 21.8555C350.161 21.8359 351.235 22.832 351.255 24.082C351.235 25.3125 350.161 26.3086 348.872 26.3086C347.583 26.3086 346.509 25.3125 346.528 24.082ZM364.009 51.4648C357.877 51.4844 354.087 47.1094 354.087 40.6055C354.087 34.082 357.935 29.5508 363.697 29.5508C368.15 29.5508 372.857 32.2852 372.837 40.1367V41.543H357.447C357.623 46.0352 360.24 48.4961 364.009 48.4961C366.548 48.4961 368.15 47.3828 368.931 46.0742H372.525C371.529 49.2969 368.384 51.4844 364.009 51.4648ZM357.466 38.6914H369.439C369.42 35.1562 367.193 32.5195 363.697 32.5195C360.025 32.5195 357.701 35.4102 357.466 38.6914ZM376.412 51.0352V29.8242H379.655V33.1445H379.928C380.807 30.8789 382.858 29.5508 385.631 29.5508C388.405 29.5508 390.299 30.8789 391.295 33.1445H391.53C392.604 30.957 394.85 29.5508 397.897 29.5508C401.666 29.5508 404.381 31.8555 404.381 36.8555V51.0352H401.022V36.8945C401.002 33.7695 399.049 32.5586 396.725 32.5586C393.776 32.5586 392.096 34.5508 392.077 37.2461V51.0352H388.678V36.543C388.698 34.1602 386.979 32.5586 384.537 32.5586C381.998 32.5586 379.772 34.707 379.772 37.793V51.0352H376.412ZM417.878 51.4648C411.745 51.4844 407.956 47.1094 407.956 40.6055C407.956 34.082 411.804 29.5508 417.566 29.5508C422.019 29.5508 426.726 32.2852 426.706 40.1367V41.543H411.316C411.491 46.0352 414.109 48.4961 417.878 48.4961C420.417 48.4961 422.019 47.3828 422.8 46.0742H426.394C425.398 49.2969 422.253 51.4844 417.878 51.4648ZM411.335 38.6914H423.308C423.288 35.1562 421.062 32.5195 417.566 32.5195C413.894 32.5195 411.57 35.4102 411.335 38.6914ZM433.641 38.3008V51.0352H430.281V29.8242H433.523V33.1445H433.797C434.793 30.9766 436.785 29.5508 440.008 29.5508C444.305 29.5508 447.176 32.168 447.156 37.5586V51.0352H443.797V37.793C443.797 34.5117 442 32.5586 438.992 32.5586C435.906 32.5586 433.641 34.6289 433.641 38.3008ZM463.544 35.332C463.075 33.5742 461.727 32.4219 459.247 32.4023C456.63 32.4219 454.774 33.8281 454.755 35.6055C454.774 37.0117 455.907 37.9688 458.387 38.5742L461.552 39.3555C465.341 40.2539 467.196 42.1484 467.216 45.0977C467.196 48.7695 464.208 51.4844 458.895 51.4648C454.13 51.4844 451.298 49.3555 450.731 45.4883H454.247C454.637 47.5586 456.141 48.5547 458.817 48.5352C461.845 48.5547 463.739 47.2852 463.739 45.293C463.739 43.7891 462.665 42.8125 460.262 42.2461L457.059 41.5039C453.368 40.6445 451.395 38.6328 451.395 35.8008C451.395 32.168 454.579 29.5508 459.247 29.5508C463.641 29.5508 466.395 31.8945 466.825 35.332H463.544ZM485.694 51.0352L477.959 22.7539H481.514L487.413 45.6445H487.686L493.663 22.7539H497.608L503.623 45.6445H503.858L509.756 22.7539H513.311L505.577 51.0352H501.944L495.772 28.6523H495.538L489.327 51.0352H485.694ZM515.831 51.0352V29.8242H519.191V51.0352H515.831ZM515.167 24.082C515.148 22.832 516.222 21.8359 517.511 21.8555C518.8 21.8359 519.874 22.832 519.894 24.082C519.874 25.3125 518.8 26.3086 517.511 26.3086C516.222 26.3086 515.148 25.3125 515.167 24.082ZM527.102 38.3008V51.0352H523.742V29.8242H526.984V33.1445H527.258C528.254 30.9766 530.246 29.5508 533.469 29.5508C537.766 29.5508 540.637 32.168 540.617 37.5586V51.0352H537.258V37.793C537.258 34.5117 535.461 32.5586 532.453 32.5586C529.367 32.5586 527.102 34.6289 527.102 38.3008ZM553.88 51.4648C547.864 51.4844 544.192 46.8945 544.192 40.5273C544.192 34.082 548.04 29.5508 553.802 29.5508C558.313 29.5508 561.712 32.2266 562.239 36.2305H558.88C558.391 34.2969 556.712 32.5195 553.88 32.5195C550.091 32.5195 547.571 35.6445 547.552 40.4102C547.571 45.3125 550.032 48.457 553.88 48.457C556.38 48.457 558.294 47.1094 558.88 44.7852H562.239C561.712 48.5742 558.587 51.4844 553.88 51.4648ZM574.252 51.4648C568.236 51.4844 564.564 46.8945 564.564 40.5273C564.564 34.082 568.412 29.5508 574.173 29.5508C578.685 29.5508 582.084 32.2266 582.611 36.2305H579.252C578.763 34.2969 577.084 32.5195 574.252 32.5195C570.462 32.5195 567.943 35.6445 567.923 40.4102C567.943 45.3125 570.404 48.457 574.252 48.457C576.752 48.457 578.666 47.1094 579.252 44.7852H582.611C582.084 48.5742 578.959 51.4844 574.252 51.4648Z" fill="#1E1E1E"/>
<circle cx="281" cy="21.0352" r="15" stroke="#7737FF" stroke-width="12"/>
</svg>
