<svg width="719" height="606" viewBox="0 0 719 606" fill="none" xmlns="http://www.w3.org/2000/svg">
<rect width="720" height="606" fill="white"/>
<path d="M228.144 116.16H212.16L208.944 124.8H206.592L218.976 91.8718H221.376L233.712 124.8H231.36L228.144 116.16ZM227.472 114.336L220.176 94.7038L212.832 114.336H227.472ZM255.549 91.1038V92.9278H240.333V106.992H253.629V108.816H240.333V124.8H238.173V91.1038H255.549ZM278.947 91.1038V92.9278H269.347V124.8H267.187V92.9278H257.587V91.1038H278.947ZM285.288 92.9278V106.992H298.728V108.816H285.288V122.976H300.168V124.8H283.128V91.1038H300.168V92.9278H285.288ZM323.939 124.8L315.299 110.448H315.107H307.907V124.8H305.747V91.1038H315.011C318.755 91.1038 321.555 91.9838 323.411 93.7438C325.299 95.5038 326.243 97.8398 326.243 100.752C326.243 103.344 325.507 105.488 324.035 107.184C322.595 108.848 320.483 109.872 317.699 110.256L326.531 124.8H323.939ZM307.907 108.624H315.107C318.083 108.624 320.307 107.904 321.779 106.464C323.251 105.024 323.987 103.12 323.987 100.752C323.987 95.5998 320.995 93.0238 315.011 93.0238H307.907V108.624ZM354.024 125.136C351.848 125.136 349.944 124.752 348.312 123.984C346.68 123.216 345.4 122.176 344.472 120.864C343.576 119.552 343.064 118.096 342.936 116.496H345.192C345.448 118.256 346.264 119.824 347.64 121.2C349.048 122.576 351.176 123.264 354.024 123.264C355.688 123.264 357.128 122.96 358.344 122.352C359.592 121.744 360.552 120.912 361.224 119.856C361.896 118.8 362.232 117.632 362.232 116.352C362.232 114.72 361.832 113.424 361.032 112.464C360.264 111.504 359.288 110.784 358.104 110.304C356.952 109.824 355.384 109.312 353.4 108.768C351.224 108.192 349.464 107.616 348.12 107.04C346.808 106.464 345.688 105.584 344.76 104.4C343.864 103.184 343.416 101.536 343.416 99.4558C343.416 97.8558 343.832 96.3998 344.664 95.0878C345.528 93.7438 346.744 92.6878 348.312 91.9198C349.88 91.1518 351.688 90.7678 353.736 90.7678C356.712 90.7678 359.112 91.5038 360.936 92.9758C362.76 94.4478 363.848 96.2558 364.2 98.3998H361.896C361.704 97.5358 361.272 96.6558 360.6 95.7598C359.96 94.8638 359.032 94.1278 357.816 93.5518C356.632 92.9438 355.208 92.6398 353.544 92.6398C351.304 92.6398 349.416 93.2638 347.88 94.5118C346.344 95.7278 345.576 97.3598 345.576 99.4078C345.576 101.04 345.976 102.352 346.776 103.344C347.576 104.304 348.552 105.04 349.704 105.552C350.888 106.032 352.472 106.528 354.456 107.04C356.664 107.648 358.408 108.24 359.688 108.816C361 109.36 362.104 110.24 363 111.456C363.928 112.64 364.392 114.256 364.392 116.304C364.392 117.808 363.992 119.232 363.192 120.576C362.392 121.92 361.208 123.024 359.64 123.888C358.104 124.72 356.232 125.136 354.024 125.136ZM372.058 92.9278V106.992H385.498V108.816H372.058V122.976H386.938V124.8H369.898V91.1038H386.938V92.9278H372.058ZM410.708 124.8L402.068 110.448H401.876H394.676V124.8H392.516V91.1038H401.78C405.524 91.1038 408.324 91.9838 410.18 93.7438C412.068 95.5038 413.012 97.8398 413.012 100.752C413.012 103.344 412.276 105.488 410.804 107.184C409.364 108.848 407.252 109.872 404.468 110.256L413.3 124.8H410.708ZM394.676 108.624H401.876C404.852 108.624 407.076 107.904 408.548 106.464C410.02 105.024 410.756 103.12 410.756 100.752C410.756 95.5998 407.764 93.0238 401.78 93.0238H394.676V108.624ZM443.902 91.1038L431.038 124.8H428.638L415.822 91.1038H418.174L429.838 122.256L441.598 91.1038H443.902ZM450.318 91.1038V124.8H448.158V91.1038H450.318ZM455.933 108C455.933 104.672 456.621 101.712 457.997 99.1198C459.405 96.4958 461.325 94.4478 463.757 92.9758C466.221 91.5038 468.973 90.7678 472.013 90.7678C475.853 90.7678 479.085 91.6638 481.709 93.4558C484.333 95.2478 486.253 97.7598 487.469 100.992H484.973C484.013 98.4318 482.413 96.4158 480.173 94.9438C477.965 93.4398 475.245 92.6878 472.013 92.6878C469.421 92.6878 467.069 93.3118 464.957 94.5598C462.845 95.7758 461.181 97.5518 459.965 99.8878C458.749 102.192 458.141 104.896 458.141 108C458.141 111.072 458.749 113.76 459.965 116.064C461.181 118.336 462.845 120.096 464.957 121.344C467.069 122.592 469.421 123.216 472.013 123.216C475.245 123.216 477.965 122.48 480.173 121.008C482.413 119.504 484.013 117.472 484.973 114.912H487.469C486.253 118.144 484.333 120.656 481.709 122.448C479.085 124.24 475.853 125.136 472.013 125.136C468.973 125.136 466.221 124.416 463.757 122.976C461.325 121.504 459.405 119.472 457.997 116.88C456.621 114.256 455.933 111.296 455.933 108ZM495.414 92.9278V106.992H508.854V108.816H495.414V122.976H510.294V124.8H493.254V91.1038H510.294V92.9278H495.414Z" fill="#404040"/>
<rect x="119" y="160.8" width="480" height="2.4" fill="url(#paint0_linear_771_116)"/>
<rect x="119" y="160.8" width="480" height="2.4" fill="white" fill-opacity="0.4"/>
<path d="M130.296 270.388V272.95H121.609V280.45H118.453V272.95H109.859V270.388H130.296ZM104.171 269.888C104.171 264.372 105.359 259.778 107.671 255.856H110.671C108.89 258.763 107.484 264.638 107.484 269.888C107.484 275.122 108.89 281.013 110.671 283.919H107.671C105.359 279.997 104.171 275.403 104.171 269.888ZM110.859 266.606C115.453 266.075 117.906 263.841 118.234 261.7H111.703V259.231H128.484V261.7H121.984C122.296 263.841 124.703 266.075 129.328 266.606L128.171 269.106C124.234 268.575 121.453 266.919 120.093 264.638C118.734 266.919 115.953 268.575 112.046 269.106L110.859 266.606ZM129.515 283.919C131.281 281.013 132.687 275.122 132.671 269.888C132.687 264.638 131.281 258.763 129.515 255.856H132.484C134.812 259.778 135.999 264.372 135.984 269.888C135.999 275.403 134.812 279.997 132.484 283.919H129.515ZM161.688 258.481V261.669C161.688 265.45 161.688 269.341 160.656 275.294L157.125 274.981C158.219 269.435 158.219 265.341 158.219 261.669V261.294H141.938V258.481H161.688ZM139.219 280.106V277.263H164.969V280.106H139.219ZM189.704 255.763V276.544H186.266V255.763H189.704ZM167.673 260.45V257.669H180.704V266.388H171.141V269.95C176.251 269.95 179.626 269.794 183.516 269.075L183.891 271.856C179.626 272.653 175.923 272.794 170.141 272.794H167.735V263.763H177.266V260.45H167.673ZM170.891 283.419V274.856H174.391V280.606H190.485V283.419H170.891ZM205.22 258.794V266.138H208.501V256.231H211.814V282.606H208.501V268.95H205.22V276.7H194.126V258.794H205.22ZM197.376 273.95H201.97V261.544H197.376V273.95ZM214.283 283.981V255.731H217.626V283.981H214.283ZM234.643 256.95V259.731H224.893V261.919H234.08V264.544H224.893V266.919C229.908 266.919 232.877 266.81 236.424 266.294L236.736 268.981C232.861 269.606 229.549 269.7 223.674 269.7H221.424V256.95H234.643ZM224.08 274.263V271.544H242.549V278.794H227.549V281.044H243.424V283.731H224.111V276.263H239.08V274.263H224.08ZM239.08 270.325V255.731H242.549V261.513H246.486V264.325H242.549V270.325H239.08ZM278.613 255.95V283.731H276.269V255.95H278.613ZM254.519 276.325C258.394 274.013 260.659 268.935 260.644 263.888V261.263H255.3V259.231H268.113V261.263H263.019V263.888C263.019 268.685 265.191 273.481 269.019 275.7L267.519 277.513C264.784 275.872 262.847 272.872 261.878 269.341C260.878 273.169 258.863 276.435 256.081 278.169L254.519 276.325ZM265.988 267.981V265.981H270.675V256.638H272.988V282.294H270.675V267.981H265.988ZM307.191 269.388V271.419H295.723V274.7H304.098V283.356H284.973V274.7H293.316V271.419H281.879V269.388H307.191ZM284.254 258.888V256.856H304.785V258.888H300.504V264.731H304.691V266.763H284.348V264.731H288.535V258.888H284.254ZM287.41 281.356H301.691V276.638H287.41V281.356ZM290.973 264.731H298.066V258.888H290.973V264.731ZM318.661 281.2H315.724L324.005 258.575H326.974L335.255 281.2H332.286L330.021 274.825H320.927L318.661 281.2ZM321.786 272.356H329.161L325.568 262.231H325.38L321.786 272.356ZM344.928 264.231V266.481H341.178V281.2H338.459V266.481H335.74V264.231H338.459V261.919C338.474 259.169 340.303 257.513 343.303 257.513C343.959 257.513 344.74 257.591 345.303 257.7V260.106C344.724 260.013 344.24 259.981 343.896 259.981C342.006 259.981 341.162 260.763 341.178 262.513V264.231H344.928ZM354.881 264.231V266.481H351.319V276.325C351.303 278.497 352.397 278.856 353.538 278.856C354.022 278.856 354.741 278.81 355.131 278.794V281.294C354.709 281.356 354.053 281.419 353.256 281.419C350.991 281.419 348.616 280.013 348.6 277.013V266.481H346.038V264.231H348.6V260.169H351.319V264.231H354.881ZM364.648 281.544C359.741 281.56 356.71 278.06 356.71 272.856C356.71 267.638 359.788 264.013 364.398 264.013C367.96 264.013 371.726 266.2 371.71 272.481V273.606H359.398C359.538 277.2 361.632 279.169 364.648 279.169C366.679 279.169 367.96 278.278 368.585 277.231H371.46C370.663 279.81 368.148 281.56 364.648 281.544ZM359.413 271.325H368.991C368.976 268.497 367.194 266.388 364.398 266.388C361.46 266.388 359.601 268.7 359.413 271.325ZM374.57 281.2V264.231H377.164V266.825H377.351C377.961 265.106 379.726 263.966 381.726 263.95C382.133 263.966 382.82 263.981 383.133 264.013V266.731C382.929 266.685 382.211 266.544 381.508 266.544C379.07 266.544 377.258 268.231 377.258 270.513V281.2H374.57ZM405.196 264.263C404.962 262.044 402.899 260.763 400.196 260.763C397.196 260.763 395.243 262.325 395.228 264.481C395.243 266.856 397.884 267.747 399.603 268.169L401.853 268.794C404.274 269.419 408.259 270.81 408.259 275.044C408.259 278.731 405.29 281.591 400.04 281.606C395.165 281.591 392.149 279.075 391.884 275.325H394.759C394.993 277.856 397.353 279.06 400.04 279.044C403.165 279.06 405.509 277.45 405.509 274.981C405.509 272.778 403.415 271.935 401.04 271.263L398.259 270.513C394.712 269.481 392.493 267.669 392.509 264.606C392.493 260.778 395.899 258.263 400.29 258.263C404.681 258.263 407.837 260.825 407.946 264.263H405.196ZM418.431 281.544C413.525 281.56 410.494 278.06 410.494 272.856C410.494 267.638 413.572 264.013 418.181 264.013C421.744 264.013 425.509 266.2 425.494 272.481V273.606H413.181C413.322 277.2 415.416 279.169 418.431 279.169C420.463 279.169 421.744 278.278 422.369 277.231H425.244C424.447 279.81 421.931 281.56 418.431 281.544ZM413.197 271.325H422.775C422.759 268.497 420.978 266.388 418.181 266.388C415.244 266.388 413.384 268.7 413.197 271.325ZM428.354 281.2V264.231H430.948V266.825H431.135C431.744 265.106 433.51 263.966 435.51 263.95C435.916 263.966 436.604 263.981 436.916 264.013V266.731C436.713 266.685 435.994 266.544 435.291 266.544C432.854 266.544 431.041 268.231 431.041 270.513V281.2H428.354ZM453.401 264.231L447.12 281.2H444.339L438.089 264.231H441.026L445.651 277.7H445.839L450.464 264.231H453.401ZM455.73 281.2V264.231H458.418V281.2H455.73ZM455.199 259.638C455.183 258.638 456.043 257.841 457.074 257.856C458.105 257.841 458.964 258.638 458.98 259.638C458.964 260.622 458.105 261.419 457.074 261.419C456.043 261.419 455.183 260.622 455.199 259.638ZM468.996 281.544C464.184 281.56 461.246 277.888 461.246 272.794C461.246 267.638 464.324 264.013 468.934 264.013C472.543 264.013 475.262 266.153 475.684 269.356H472.996C472.606 267.81 471.262 266.388 468.996 266.388C465.965 266.388 463.949 268.888 463.934 272.7C463.949 276.622 465.918 279.138 468.996 279.138C470.996 279.138 472.528 278.06 472.996 276.2H475.684C475.262 279.231 472.762 281.56 468.996 281.544ZM485.481 281.544C480.575 281.56 477.544 278.06 477.544 272.856C477.544 267.638 480.622 264.013 485.231 264.013C488.794 264.013 492.559 266.2 492.544 272.481V273.606H480.231C480.372 277.2 482.466 279.169 485.481 279.169C487.513 279.169 488.794 278.278 489.419 277.231H492.294C491.497 279.81 488.981 281.56 485.481 281.544ZM480.247 271.325H489.825C489.809 268.497 488.028 266.388 485.231 266.388C482.294 266.388 480.434 268.7 480.247 271.325ZM511.701 264.481C511.717 269.2 515.139 273.997 519.233 275.763L517.858 277.7C514.608 276.231 511.811 273.028 510.514 269.185C509.217 273.263 506.404 276.794 503.233 278.388L501.764 276.45C505.748 274.544 509.217 269.294 509.233 264.481V260.856H502.67V258.825H518.326V260.856H511.701V264.481ZM522.201 283.731V255.95H524.67V283.731H522.201ZM551.811 255.95V272.513H549.343V265.231H543.749V263.2H549.343V255.95H551.811ZM528.905 270.294C533.03 268.81 535.968 265.044 535.968 261.075V260.044H529.686V257.981H544.655V260.044H538.436V261.044C538.436 264.669 541.218 268.122 545.28 269.513L543.999 271.481C540.889 270.356 538.468 268.013 537.264 265.153C536.077 268.403 533.499 270.997 530.186 272.263L528.905 270.294ZM533.28 278.544C533.264 275.278 536.811 273.372 542.593 273.388C548.358 273.372 551.905 275.278 551.905 278.544C551.905 281.825 548.358 283.7 542.593 283.731C536.811 283.7 533.264 281.825 533.28 278.544ZM535.718 278.544C535.702 280.56 538.327 281.778 542.593 281.763C546.843 281.778 549.468 280.56 549.468 278.544C549.468 276.513 546.843 275.294 542.593 275.294C538.327 275.294 535.702 276.513 535.718 278.544ZM585.969 255.95V283.731H583.531V255.95H585.969ZM563.344 276.325C565.719 276.31 568.438 276.294 571.25 276.2V273.169C567.906 272.825 565.75 270.919 565.781 268.138C565.75 264.997 568.422 262.966 572.438 262.981C576.453 262.966 579.172 264.997 579.156 268.138C579.172 270.888 577.016 272.794 573.719 273.169V276.106C576.406 275.981 579.125 275.794 581.688 275.45L581.875 277.325C575.672 278.325 568.875 278.419 563.719 278.419L563.344 276.325ZM563.938 261.388V259.388H571.25V255.981H573.719V259.388H580.969V261.388H563.938ZM568.062 268.138C568.047 270.06 569.859 271.325 572.438 271.294C575.031 271.325 576.828 270.06 576.812 268.138C576.828 266.2 575.031 264.888 572.438 264.888C569.859 264.888 568.047 266.2 568.062 268.138ZM599.516 263.419C599.516 268.31 602.751 273.356 606.704 275.294L605.204 277.263C602.141 275.669 599.579 272.372 598.344 268.513C597.11 272.606 594.485 276.122 591.36 277.794L589.798 275.825C593.86 273.825 597.079 268.497 597.11 263.419V258.356H599.516V263.419ZM609.266 283.731V255.95H611.704V267.231H616.36V269.356H611.704V283.731H609.266Z" fill="#1E1E1E"/>
<rect x="39.932" y="347.132" width="308.816" height="111.223" rx="11.4951" fill="url(#paint1_linear_771_116)" fill-opacity="0.1" stroke="#757AFF" stroke-width="1.86408"/>
<path d="M198.301 382.083L204.903 388.685M204.903 388.685L198.301 395.287M204.903 388.685L191.039 388.685C187.028 388.685 183.777 385.434 183.777 381.423V381.423C183.777 377.413 187.028 374.161 191.039 374.161L198.301 374.161" stroke="#5200FF" stroke-width="2.48544" stroke-linecap="round" stroke-linejoin="round"/>
<path d="M172.362 417.225V435.711H170.484V417.225H172.362ZM156.228 430.615C158.848 429.037 160.179 425.674 160.189 422.383V420.898H156.785V419.309H165.244V420.898H162.067V422.383C162.067 425.54 163.346 428.706 165.945 430.202L164.769 431.646C163.005 430.594 161.798 428.706 161.149 426.478C160.488 428.892 159.23 430.955 157.425 432.08L156.228 430.615ZM163.882 425.375V423.765H166.75V417.617H168.607V434.782H166.75V425.375H163.882ZM191.188 426.076V427.644H183.719V429.625H189.125V435.484H176.354V429.625H181.78V427.644H174.332V426.076H191.188ZM175.88 419.391V417.803H189.599V419.391H186.917V422.919H189.517V424.508H175.962V422.919H178.582V419.391H175.88ZM178.293 433.895H187.227V431.172H178.293V433.895ZM180.522 422.919H184.957V419.391H180.522V422.919ZM206.373 418.855C206.363 421.31 209.365 423.611 212.996 424.095L212.232 425.705C209.21 425.22 206.559 423.652 205.352 421.475C204.145 423.652 201.494 425.22 198.492 425.705L197.708 424.095C201.329 423.611 204.32 421.341 204.331 418.855V417.844H206.373V418.855ZM196.903 429.129V427.52H213.759V429.129H206.249V435.711H204.331V429.129H196.903ZM230.089 417.225V435.752H228.129V417.225H230.089ZM215.771 420.485V418.896H224.436V425.643H217.793V429.686C220.795 429.676 223.404 429.532 226.499 429.026L226.685 430.635C223.415 431.182 220.63 431.306 217.36 431.316H215.792V424.075H222.435V420.485H215.771Z" fill="#1E1E1E"/>
<rect x="369.252" y="347.132" width="308.816" height="111.223" rx="11.4951" fill="url(#paint2_linear_771_116)" fill-opacity="0.1" stroke="#757AFF" stroke-width="1.86408"/>
<path d="M484.284 417.225V435.711H482.407V417.225H484.284ZM468.151 430.615C470.771 429.037 472.102 425.674 472.112 422.383V420.898H468.708V419.309H477.167V420.898H473.989V422.383C473.989 425.54 475.269 428.706 477.868 430.202L476.692 431.646C474.928 430.594 473.721 428.706 473.071 426.478C472.411 428.892 471.153 430.955 469.348 432.08L468.151 430.615ZM475.805 425.375V423.765H478.673V417.617H480.53V434.782H478.673V425.375H475.805ZM503.111 426.076V427.644H495.642V429.625H501.048V435.484H488.277V429.625H493.703V427.644H486.255V426.076H503.111ZM487.802 419.391V417.803H501.522V419.391H498.84V422.919H501.44V424.508H487.885V422.919H490.505V419.391H487.802ZM490.216 433.895H499.149V431.172H490.216V433.895ZM492.444 422.919H496.88V419.391H492.444V422.919ZM513.943 418.071C516.377 418.05 518.265 419.464 518.667 421.537H522.278V417.225H524.238V427.149H522.278V423.146H518.678C518.296 425.271 516.398 426.695 513.943 426.695C511.116 426.695 509.084 424.91 509.094 422.362C509.084 419.845 511.116 418.05 513.943 418.071ZM510.972 422.362C510.962 423.941 512.199 425.044 513.943 425.044C515.655 425.044 516.872 423.941 516.872 422.362C516.872 420.774 515.655 419.691 513.943 419.701C512.199 419.691 510.962 420.774 510.972 422.362ZM512.189 435.484V428.036H514.128V430.182H522.278V428.036H524.238V435.484H512.189ZM514.128 433.875H522.278V431.729H514.128V433.875ZM542.548 417.225V435.711H540.65V417.225H542.548ZM527.322 431.358V419.433H534.337V421.042H529.241V429.728C531.655 429.707 533.285 429.604 535.204 429.191L535.369 430.842C533.254 431.265 531.428 431.358 528.54 431.358H527.322ZM533.079 425.808V424.178H536.875V417.617H538.731V434.782H536.875V425.808H533.079ZM559.806 417.225V435.752H557.847V417.225H559.806ZM545.138 425.086C545.138 421.135 547.129 418.618 549.924 418.608C552.668 418.618 554.69 421.135 554.69 425.086C554.69 429.078 552.668 431.595 549.924 431.584C547.129 431.595 545.138 429.078 545.138 425.086ZM547.036 425.086C547.026 428.026 548.202 429.831 549.924 429.831C551.616 429.831 552.792 428.026 552.792 425.086C552.792 422.187 551.616 420.371 549.924 420.361C548.202 420.371 547.026 422.187 547.036 425.086ZM577.333 427.066V428.634H564.459V418.752H577.147V420.341H566.44V422.837H576.755V424.384H566.44V427.066H577.333ZM562.334 433.379V431.77H579.252V433.379H562.334Z" fill="#1E1E1E"/>
<circle cx="523.589" cy="384.417" r="1.27409" fill="#5200FF"/>
<path d="M528.871 384.417C528.871 387.803 528.183 390.815 527.12 392.94C526.025 395.13 524.714 396.07 523.588 396.07C522.463 396.07 521.151 395.13 520.056 392.94C518.994 390.815 518.305 387.803 518.305 384.417C518.305 381.031 518.994 378.019 520.056 375.894C521.151 373.704 522.463 372.763 523.588 372.763C524.714 372.763 526.025 373.704 527.12 375.894C528.183 378.019 528.871 381.031 528.871 384.417Z" stroke="#5200FF" stroke-width="2.17476"/>
<path d="M526.23 388.992C523.298 390.685 520.345 391.595 517.974 391.737C515.53 391.884 514.059 391.218 513.497 390.243C512.934 389.269 513.093 387.663 514.442 385.619C515.751 383.637 518.015 381.534 520.947 379.841C523.88 378.148 526.832 377.239 529.204 377.096C531.648 376.95 533.118 377.615 533.681 378.59C534.244 379.565 534.085 381.171 532.736 383.214C531.427 385.197 529.163 387.299 526.23 388.992Z" stroke="#5200FF" stroke-width="2.17476"/>
<path d="M526.23 379.842C523.298 378.149 520.345 377.239 517.974 377.097C515.53 376.95 514.059 377.616 513.497 378.591C512.934 379.565 513.093 381.171 514.442 383.215C515.751 385.197 518.015 387.299 520.947 388.993C523.88 390.686 526.832 391.595 529.204 391.738C531.648 391.884 533.118 391.219 533.681 390.244C534.244 389.269 534.085 387.663 532.736 385.62C531.427 383.637 529.163 381.535 526.23 379.842Z" stroke="#5200FF" stroke-width="2.17476"/>
<rect x="39.932" y="478.861" width="308.816" height="111.223" rx="11.4951" fill="url(#paint3_linear_771_116)" fill-opacity="0.1" stroke="#757AFF" stroke-width="1.86408"/>
<path d="M201.899 505.89V505.89C203.556 505.89 204.385 505.89 204.919 506.38C204.959 506.417 204.998 506.455 205.034 506.495C205.524 507.029 205.524 507.858 205.524 509.515L205.524 512.518C205.524 512.811 205.524 512.957 205.433 513.048C205.342 513.139 205.195 513.139 204.903 513.139L198.275 513.139M201.899 505.89V505.89C200.242 505.89 199.414 505.89 198.879 506.38C198.839 506.417 198.801 506.455 198.764 506.495C198.275 507.029 198.275 507.858 198.275 509.515L198.275 513.139M201.899 505.89L186.262 505.89C185.09 505.89 184.504 505.89 184.14 506.254C183.776 506.618 183.776 507.204 183.776 508.376L183.776 524.557C183.776 524.999 183.776 525.22 183.807 525.387C183.987 526.371 184.912 527.038 185.902 526.897C186.07 526.873 186.279 526.803 186.699 526.664V526.664C186.81 526.626 186.866 526.608 186.921 526.593C187.236 526.509 187.566 526.509 187.881 526.593C187.936 526.608 187.992 526.626 188.103 526.664L189.847 527.245C190.431 527.439 190.723 527.537 191.026 527.537C191.328 527.537 191.62 527.439 192.205 527.245L193.948 526.664C194.059 526.626 194.115 526.608 194.17 526.593C194.485 526.509 194.816 526.509 195.13 526.593C195.185 526.608 195.241 526.626 195.352 526.664V526.664C195.772 526.803 195.982 526.873 196.149 526.897C197.14 527.038 198.064 526.371 198.244 525.387C198.275 525.22 198.275 524.999 198.275 524.557L198.275 513.139" stroke="#5200FF" stroke-width="2.48544"/>
<path d="M188.609 510.723L193.442 510.723" stroke="#5200FF" stroke-width="2.48544" stroke-linecap="round"/>
<path d="M189.817 515.556H188.609" stroke="#5200FF" stroke-width="2.48544" stroke-linecap="round"/>
<path d="M188.609 520.388L192.234 520.388" stroke="#5200FF" stroke-width="2.48544" stroke-linecap="round"/>
<path d="M171.765 550.728V552.709C171.744 555.03 171.744 557.464 171.084 561.002L169.165 560.796C169.815 557.454 169.815 554.978 169.805 552.709V552.317H158.478V550.728H171.765ZM156.745 564.943V563.313H160.727V557.33H162.687V563.313H165.349V557.33H167.267V563.313H173.601V564.943H156.745ZM189.993 548.954V559.95H188.033V555.267H184.587V553.658H188.033V548.954H189.993ZM174.581 558.279C177.449 557.278 179.213 554.782 179.203 552.234V551.821H175.2V550.233H185.165V551.821H181.204V552.213C181.194 554.555 182.865 556.835 185.66 557.784L184.649 559.331C182.576 558.619 181.049 557.134 180.245 555.308C179.44 557.371 177.82 559.032 175.613 559.847L174.581 558.279ZM177.552 563.953C177.542 561.755 179.915 560.476 183.803 560.466C187.672 560.476 190.044 561.755 190.055 563.953C190.044 566.15 187.672 567.429 183.803 567.439C179.915 567.429 177.542 566.15 177.552 563.953ZM179.492 563.953C179.481 565.201 181.091 565.912 183.803 565.892C186.496 565.912 188.105 565.201 188.115 563.953C188.105 562.694 186.496 561.982 183.803 561.993C181.091 561.982 179.481 562.694 179.492 563.953ZM212.543 548.954V559.022H210.604V554.937H207.138V553.328H210.604V548.954H212.543ZM197.173 557.784C200.01 556.794 201.784 554.369 201.774 551.821V551.574H197.772V549.985H207.736V551.574H203.775V551.842C203.765 554.132 205.436 556.453 208.231 557.392L207.221 558.919C205.137 558.176 203.61 556.711 202.806 554.895C202.001 556.928 200.381 558.558 198.184 559.331L197.173 557.784ZM200.515 567.212V559.847H202.455V561.972H210.604V559.847H212.543V567.212H200.515ZM202.455 565.624H210.604V563.499H202.455V565.624ZM224.458 550.584C224.448 553.039 227.45 555.339 231.081 555.824L230.317 557.433C227.295 556.948 224.644 555.38 223.437 553.204C222.23 555.38 219.579 556.948 216.577 557.433L215.793 555.824C219.414 555.339 222.405 553.07 222.416 550.584V549.573H224.458V550.584ZM214.989 560.858V559.249H231.844V560.858H224.334V567.439H222.416V560.858H214.989Z" fill="#1E1E1E"/>
<rect x="369.252" y="478.861" width="308.816" height="111.223" rx="11.4951" fill="url(#paint4_linear_771_116)" fill-opacity="0.1" stroke="#757AFF" stroke-width="1.86408"/>
<path d="M522.186 548.954V559.723H520.226V555.081H516.76V553.451H520.226V548.954H522.186ZM506.795 558.073C509.632 557.103 511.406 554.638 511.396 552.11V551.677H507.393V550.068H517.358V551.677H513.397V552.11C513.386 554.411 515.058 556.711 517.853 557.681L516.842 559.228C514.769 558.506 513.232 557.02 512.427 555.184C511.623 557.227 510.003 558.846 507.806 559.62L506.795 558.073ZM509.993 567.212V560.59H522.186V567.212H509.993ZM511.932 565.624H520.267V562.137H511.932V565.624ZM534.162 550.109C534.162 554.813 530.934 558.145 525.58 559.661L524.775 558.135C529.046 556.938 531.687 554.638 532.068 551.718H525.745V550.109H534.162ZM527.932 567.192V560.198H540.022V567.192H527.932ZM529.85 565.624H538.082V561.766H529.85V565.624ZM534.245 555.226V553.596H538.062V548.974H540.022V559.434H538.062V555.226H534.245Z" fill="#1E1E1E"/>
<path d="M527.2 505.834C527.606 505.563 527.809 505.428 528.03 505.45C528.251 505.472 528.424 505.644 528.769 505.989L534.124 511.344C534.469 511.689 534.641 511.862 534.663 512.083C534.685 512.304 534.55 512.507 534.279 512.912L530.498 518.584C529.955 519.399 529.683 519.807 529.496 520.257C529.31 520.707 529.214 521.187 529.022 522.149L528.419 525.162C528.252 525.999 528.168 526.418 527.857 526.543C527.546 526.669 527.195 526.426 526.493 525.94L525.715 525.401C522.473 523.156 520.852 522.034 519.465 520.648C518.079 519.261 516.956 517.64 514.712 514.398L514.173 513.62C513.687 512.918 513.444 512.567 513.57 512.256C513.695 511.945 514.114 511.861 514.951 511.694L517.964 511.091C518.925 510.899 519.406 510.803 519.856 510.616C520.306 510.43 520.714 510.158 521.529 509.615L527.2 505.834Z" stroke="#5200FF" stroke-width="2.48544"/>
<path d="M513.1 527.016L519.217 520.899" stroke="#5200FF" stroke-width="2.48544" stroke-linecap="round"/>
<defs>
<linearGradient id="paint0_linear_771_116" x1="119" y1="160.8" x2="599" y2="160.799" gradientUnits="userSpaceOnUse">
<stop stop-color="#00F3C7"/>
<stop offset="0.29" stop-color="#42C8FF"/>
<stop offset="1" stop-color="#7737FF"/>
</linearGradient>
<linearGradient id="paint1_linear_771_116" x1="194.34" y1="346.2" x2="325.136" y2="476.996" gradientUnits="userSpaceOnUse">
<stop stop-color="#757AFF"/>
<stop offset="1" stop-color="#757AFF" stop-opacity="0"/>
</linearGradient>
<linearGradient id="paint2_linear_771_116" x1="523.66" y1="346.2" x2="654.456" y2="476.996" gradientUnits="userSpaceOnUse">
<stop stop-color="#757AFF"/>
<stop offset="1" stop-color="#757AFF" stop-opacity="0"/>
</linearGradient>
<linearGradient id="paint3_linear_771_116" x1="194.34" y1="477.929" x2="325.136" y2="608.725" gradientUnits="userSpaceOnUse">
<stop stop-color="#757AFF"/>
<stop offset="1" stop-color="#757AFF" stop-opacity="0"/>
</linearGradient>
<linearGradient id="paint4_linear_771_116" x1="523.66" y1="477.929" x2="654.456" y2="608.725" gradientUnits="userSpaceOnUse">
<stop stop-color="#757AFF"/>
<stop offset="1" stop-color="#757AFF" stop-opacity="0"/>
</linearGradient>
</defs>
</svg>
