<svg width="720" height="237" viewBox="0 0 720 237" fill="none" xmlns="http://www.w3.org/2000/svg">
<rect y="3" width="720" height="234" fill="white"/>
<path d="M182.75 104.915C182.5 102.696 180.469 101.415 177.75 101.415C174.75 101.415 172.781 102.978 172.781 105.134C172.781 107.509 175.438 108.384 177.156 108.821L179.406 109.446C181.844 110.071 185.812 111.478 185.812 115.696C185.812 119.384 182.844 122.259 177.594 122.259C172.719 122.259 169.688 119.728 169.438 115.978H172.312C172.562 118.509 174.906 119.696 177.594 119.696C180.719 119.696 183.062 118.103 183.062 115.634C183.062 113.446 180.969 112.603 178.594 111.915L175.812 111.165C172.25 110.134 170.062 108.321 170.062 105.259C170.062 101.446 173.469 98.915 177.844 98.915C182.219 98.915 185.375 101.478 185.5 104.915H182.75ZM195.798 122.196C190.985 122.196 188.048 118.54 188.048 113.446C188.048 108.29 191.11 104.665 195.735 104.665C199.36 104.665 202.048 106.79 202.485 110.009H199.798C199.423 108.446 198.048 107.04 195.798 107.04C192.766 107.04 190.735 109.54 190.735 113.353C190.735 117.29 192.704 119.79 195.798 119.79C197.798 119.79 199.329 118.728 199.798 116.853H202.485C202.048 119.884 199.579 122.196 195.798 122.196ZM207.845 111.665V121.853H205.158V99.2275H207.845V107.54H208.064C208.845 105.79 210.376 104.665 213.064 104.665C216.533 104.665 218.845 106.728 218.845 111.071V121.853H216.158V111.259C216.158 108.603 214.689 107.071 212.251 107.071C209.72 107.071 207.845 108.728 207.845 111.665ZM225.205 111.665V121.853H222.518V104.884H225.111V107.54H225.33C226.143 105.821 227.705 104.665 230.299 104.665C233.736 104.665 236.018 106.759 236.018 111.071V121.853H233.33V111.259C233.33 108.634 231.893 107.071 229.486 107.071C227.018 107.071 225.205 108.728 225.205 111.665ZM246.815 122.196C241.909 122.196 238.878 118.728 238.878 113.509C238.878 108.29 241.94 104.665 246.565 104.665C250.128 104.665 253.878 106.853 253.878 113.134V114.259H241.565C241.69 117.853 243.784 119.821 246.815 119.821C248.846 119.821 250.128 118.946 250.753 117.884H253.628C252.815 120.446 250.315 122.196 246.815 122.196ZM241.596 111.978H251.159C251.159 109.134 249.346 107.04 246.565 107.04C243.628 107.04 241.753 109.353 241.596 111.978ZM256.738 121.853V104.884H259.425V121.853H256.738ZM258.081 102.071C257.05 102.071 256.206 101.29 256.206 100.29C256.206 99.29 257.05 98.5088 258.081 98.5088C259.113 98.5088 259.988 99.29 259.988 100.29C259.988 101.29 259.113 102.071 258.081 102.071ZM269.473 122.196C265.254 122.196 262.254 118.79 262.254 113.415C262.254 108.04 265.254 104.665 269.504 104.665C272.785 104.665 273.848 106.665 274.41 107.571H274.598V99.2275H277.316V121.853H274.691V119.259H274.41C273.816 120.196 272.723 122.196 269.473 122.196ZM269.848 119.79C272.941 119.79 274.691 117.165 274.691 113.353C274.691 109.603 273.004 107.071 269.848 107.071C266.598 107.071 264.973 109.821 264.973 113.353C264.973 116.978 266.629 119.79 269.848 119.79ZM288.457 122.196C283.551 122.196 280.52 118.728 280.52 113.509C280.52 108.29 283.582 104.665 288.207 104.665C291.77 104.665 295.52 106.853 295.52 113.134V114.259H283.207C283.332 117.853 285.426 119.821 288.457 119.821C290.489 119.821 291.77 118.946 292.395 117.884H295.27C294.457 120.446 291.957 122.196 288.457 122.196ZM283.239 111.978H292.801C292.801 109.134 290.989 107.04 288.207 107.04C285.27 107.04 283.395 109.353 283.239 111.978ZM298.38 121.853V104.884H300.974V107.478H301.161C301.786 105.759 303.536 104.603 305.536 104.603C305.943 104.603 306.63 104.634 306.943 104.665V107.384C306.755 107.321 306.005 107.196 305.318 107.196C302.88 107.196 301.068 108.884 301.068 111.165V121.853H298.38ZM316.663 121.853V99.2275H324.6C329.35 99.2275 331.569 101.884 331.569 105.228C331.569 108.134 329.85 109.446 327.881 109.978V110.196C329.975 110.321 332.475 112.259 332.475 115.853C332.475 119.259 330.225 121.853 324.881 121.853H316.663ZM324.85 119.353C328.381 119.353 329.756 117.79 329.756 115.821C329.756 113.509 327.913 111.571 325.006 111.571H319.475V119.353H324.85ZM324.506 109.134C326.944 109.134 328.881 107.634 328.881 105.259C328.881 103.29 327.569 101.728 324.6 101.728H319.475V109.134H324.506ZM338.179 99.2275V121.853H335.491V99.2275H338.179ZM352.539 114.884V104.884H355.195V121.853H352.539V118.978H352.351C351.539 120.696 349.883 122.071 347.32 122.071C344.101 122.071 341.82 119.978 341.82 115.665V104.884H344.508V115.478C344.508 117.915 346.039 119.478 348.195 119.478C350.101 119.478 352.539 118.04 352.539 114.884ZM365.992 122.196C361.086 122.196 358.055 118.728 358.055 113.509C358.055 108.29 361.117 104.665 365.742 104.665C369.305 104.665 373.055 106.853 373.055 113.134V114.259H360.742C360.867 117.853 362.961 119.821 365.992 119.821C368.024 119.821 369.305 118.946 369.93 117.884H372.805C371.992 120.446 369.492 122.196 365.992 122.196ZM360.774 111.978H370.336C370.336 109.134 368.524 107.04 365.742 107.04C362.805 107.04 360.93 109.353 360.774 111.978ZM402.775 110.54C402.775 117.696 398.556 122.165 392.775 122.165C386.962 122.165 382.775 117.696 382.775 110.54C382.775 103.384 386.962 98.915 392.775 98.915C398.556 98.915 402.775 103.384 402.775 110.54ZM400.056 110.54C400.056 104.696 396.869 101.54 392.775 101.54C388.681 101.54 385.494 104.696 385.494 110.54C385.494 116.384 388.681 119.54 392.775 119.54C396.869 119.54 400.056 116.384 400.056 110.54ZM405.916 128.228V104.884H408.51V107.571H408.822C409.385 106.665 410.447 104.665 413.729 104.665C417.979 104.665 420.947 108.04 420.947 113.415C420.947 118.79 417.979 122.196 413.76 122.196C410.51 122.196 409.385 120.196 408.822 119.259H408.604V128.228H405.916ZM408.541 113.353C408.541 117.165 410.26 119.79 413.385 119.79C416.604 119.79 418.26 116.978 418.26 113.353C418.26 109.821 416.635 107.071 413.385 107.071C410.197 107.071 408.541 109.603 408.541 113.353ZM430.932 122.196C426.026 122.196 422.995 118.728 422.995 113.509C422.995 108.29 426.057 104.665 430.682 104.665C434.245 104.665 437.995 106.853 437.995 113.134V114.259H425.682C425.807 117.853 427.901 119.821 430.932 119.821C432.964 119.821 434.245 118.946 434.87 117.884H437.745C436.932 120.446 434.432 122.196 430.932 122.196ZM425.714 111.978H435.276C435.276 109.134 433.464 107.04 430.682 107.04C427.745 107.04 425.87 109.353 425.714 111.978ZM443.543 111.665V121.853H440.855V104.884H443.449V107.54H443.668C444.48 105.821 446.043 104.665 448.636 104.665C452.074 104.665 454.355 106.759 454.355 111.071V121.853H451.668V111.259C451.668 108.634 450.23 107.071 447.824 107.071C445.355 107.071 443.543 108.728 443.543 111.665ZM478.106 104.915C477.856 102.696 475.825 101.415 473.106 101.415C470.106 101.415 468.138 102.978 468.138 105.134C468.138 107.509 470.794 108.384 472.513 108.821L474.763 109.446C477.2 110.071 481.169 111.478 481.169 115.696C481.169 119.384 478.2 122.259 472.95 122.259C468.075 122.259 465.044 119.728 464.794 115.978H467.669C467.919 118.509 470.263 119.696 472.95 119.696C476.075 119.696 478.419 118.103 478.419 115.634C478.419 113.446 476.325 112.603 473.95 111.915L471.169 111.165C467.606 110.134 465.419 108.321 465.419 105.259C465.419 101.446 468.825 98.915 473.2 98.915C477.575 98.915 480.731 101.478 480.856 104.915H478.106ZM491.622 104.884V107.134H488.06V116.978C488.06 119.165 489.122 119.509 490.279 119.509C490.779 119.509 491.466 119.478 491.872 119.446V121.946C491.466 122.009 490.779 122.071 489.997 122.071C487.747 122.071 485.341 120.665 485.341 117.665V107.134H482.779V104.884H485.341V100.821H488.06V104.884H491.622ZM505.17 114.884V104.884H507.826V121.853H505.17V118.978H504.983C504.17 120.696 502.514 122.071 499.951 122.071C496.733 122.071 494.451 119.978 494.451 115.665V104.884H497.139V115.478C497.139 117.915 498.67 119.478 500.826 119.478C502.733 119.478 505.17 118.04 505.17 114.884ZM517.905 122.196C513.686 122.196 510.686 118.79 510.686 113.415C510.686 108.04 513.686 104.665 517.936 104.665C521.217 104.665 522.28 106.665 522.842 107.571H523.03V99.2275H525.749V121.853H523.124V119.259H522.842C522.249 120.196 521.155 122.196 517.905 122.196ZM518.28 119.79C521.374 119.79 523.124 117.165 523.124 113.353C523.124 109.603 521.436 107.071 518.28 107.071C515.03 107.071 513.405 109.821 513.405 113.353C513.405 116.978 515.061 119.79 518.28 119.79ZM529.765 121.853V104.884H532.453V121.853H529.765ZM531.109 102.071C530.078 102.071 529.234 101.29 529.234 100.29C529.234 99.29 530.078 98.5088 531.109 98.5088C532.14 98.5088 533.015 99.29 533.015 100.29C533.015 101.29 532.14 102.071 531.109 102.071ZM543.031 122.196C538.406 122.196 535.281 118.728 535.281 113.446C535.281 108.165 538.406 104.665 543.031 104.665C547.625 104.665 550.719 108.165 550.719 113.446C550.719 118.728 547.625 122.196 543.031 122.196ZM543.031 119.821C546.438 119.821 548.031 116.821 548.031 113.446C548.031 110.071 546.438 107.04 543.031 107.04C539.562 107.04 537.969 110.071 537.969 113.446C537.969 116.821 539.562 119.821 543.031 119.821Z" fill="#1E1E1E"/>
<circle cx="360" cy="194.853" r="12.8571" stroke="#7737FF" stroke-width="10.2857"/>
<line x1="40" y1="2.04004" x2="680" y2="2.04004" stroke="#F4F5FA" stroke-width="3"/>
<line x1="40" y1="1.5" x2="680" y2="1.5" stroke="#F4F5FA" stroke-width="3"/>
</svg>
