<svg width="720" height="458" viewBox="0 0 720 458" fill="none" xmlns="http://www.w3.org/2000/svg">
<rect width="720" height="458" fill="white"/>
<path d="M309.838 95.8169H313.213L320.838 114.442H321.119L328.744 95.8169H332.119V118.442H329.463V101.348H329.244L322.213 118.442H319.713L312.681 101.348H312.494V118.442H309.838V95.8169ZM355.604 107.129C355.619 114.286 351.401 118.754 345.604 118.754C339.791 118.754 335.588 114.286 335.604 107.129C335.588 99.9731 339.791 95.5044 345.604 95.5044C351.401 95.5044 355.619 99.9731 355.604 107.129ZM338.323 107.129C338.338 112.958 341.51 116.114 345.604 116.129C349.698 116.114 352.869 112.958 352.885 107.129C352.869 101.286 349.698 98.1294 345.604 98.1294C341.51 98.1294 338.338 101.286 338.323 107.129ZM366.12 118.442H359.089V95.8169H366.401C373.011 95.8169 376.901 100.051 376.901 107.098C376.901 114.161 373.011 118.442 366.12 118.442ZM361.901 115.942H365.933C371.479 115.942 374.151 112.583 374.151 107.098C374.151 101.629 371.479 98.3169 366.214 98.3169H361.901V115.942ZM380.386 118.442V95.8169H394.105V98.3169H383.199V105.879H393.386V108.348H383.199V115.942H394.261V118.442H380.386ZM397.903 118.442V95.8169H400.715V115.942H411.215V118.442H397.903Z" fill="#1E1E1E"/>
<circle cx="359.901" cy="191.442" r="12.8571" stroke="#7737FF" stroke-width="10.2857"/>
<rect x="60" y="249.442" width="165.482" height="56.1606" rx="28.0803" fill="#7737FF"/>
<path d="M86.9754 269.383L92.0177 283.752H92.2071L97.273 269.383H99.5219L93.2487 286.522H90.9998L84.7265 269.383H86.9754ZM110.708 273.691C110.53 272.011 108.968 271.04 106.92 271.04C104.648 271.04 103.168 272.224 103.156 273.857C103.168 275.656 105.168 276.331 106.47 276.65L108.175 277.124C110.009 277.597 113.028 278.651 113.028 281.858C113.028 284.652 110.779 286.818 106.802 286.83C103.109 286.818 100.824 284.912 100.623 282.072H102.801C102.979 283.989 104.766 284.9 106.802 284.889C109.169 284.9 110.944 283.681 110.944 281.811C110.944 280.142 109.358 279.503 107.559 278.994L105.452 278.426C102.766 277.645 101.085 276.272 101.097 273.952C101.085 271.052 103.665 269.146 106.991 269.146C110.317 269.146 112.708 271.087 112.791 273.691H110.708ZM127.291 274.78C126.794 272.413 124.77 271.135 122.509 271.135C119.408 271.135 117.005 273.526 116.993 277.952C117.005 282.367 119.408 284.758 122.509 284.77C124.77 284.758 126.782 283.492 127.291 281.148H129.422C128.806 284.652 125.989 286.759 122.509 286.759C118.106 286.759 114.922 283.374 114.934 277.952C114.922 272.531 118.106 269.146 122.509 269.146C125.977 269.146 128.782 271.218 129.422 274.78H127.291ZM141.93 277.029V278.899H134.426V277.029H141.93ZM146.674 286.522L146.651 284.96L152.498 278.805C154.522 276.65 155.492 275.49 155.504 273.904C155.492 272.141 154.025 271.005 152.095 270.993C150.048 271.005 148.769 272.295 148.757 274.212H146.745C146.722 271.182 149.065 269.146 152.166 269.146C155.279 269.146 157.481 271.241 157.493 273.904C157.481 275.822 156.593 277.313 153.563 280.438L149.633 284.486V284.628H157.8V286.522H146.674ZM166.003 286.759C162.914 286.759 160.571 284.853 160.44 282.214H162.5C162.654 283.74 164.145 284.877 166.003 284.889C168.229 284.877 169.838 283.255 169.838 281.101C169.838 278.876 168.169 277.23 165.861 277.219C164.417 277.195 163.293 277.645 162.666 278.757H160.606L161.813 269.383H171.093V271.277H163.589L162.95 276.295H163.115C163.885 275.704 165.033 275.301 166.24 275.301C169.507 275.301 171.91 277.716 171.922 281.054C171.91 284.368 169.424 286.759 166.003 286.759ZM180.006 286.759C176.207 286.759 174.005 283.563 174.017 277.952C174.005 272.389 176.231 269.146 180.006 269.146C183.77 269.146 185.996 272.389 185.996 277.952C185.996 283.563 183.806 286.759 180.006 286.759ZM176.077 277.952C176.088 282.391 177.521 284.865 180.006 284.865C182.48 284.865 183.924 282.391 183.912 277.952C183.924 273.514 182.468 271.005 180.006 270.993C177.544 271.005 176.088 273.514 176.077 277.952ZM193.962 286.759C190.162 286.759 187.961 283.563 187.973 277.952C187.961 272.389 190.186 269.146 193.962 269.146C197.726 269.146 199.951 272.389 199.951 277.952C199.951 283.563 197.761 286.759 193.962 286.759ZM190.032 277.952C190.044 282.391 191.476 284.865 193.962 284.865C196.436 284.865 197.88 282.391 197.868 277.952C197.88 273.514 196.424 271.005 193.962 270.993C191.5 271.005 190.044 273.514 190.032 277.952Z" fill="white"/>
<path d="M253.589 269.478V274.638H258.181V269.478H259.886V275.396H263.058V267.868H264.833V287.398H263.058V276.958H259.886V283.16H251.813V269.478H253.589ZM253.589 281.598H258.181V276.153H253.589V281.598ZM267.272 288.439V267.394H269.071V288.439H267.272ZM287.785 267.394V275.964H291.193V277.526H287.785V288.439H285.938V267.394H287.785ZM271.64 282.971C277.073 280.272 280.032 276.213 280.458 271.229H272.61V269.667H282.34C282.328 275.621 279.535 281.054 272.681 284.439L271.64 282.971ZM302.45 270.496C302.462 274.106 306.581 277.313 310.239 278L309.386 279.562C306.202 278.828 302.865 276.568 301.503 273.478C300.13 276.568 296.804 278.817 293.62 279.562L292.768 278C296.414 277.301 300.497 274.117 300.509 270.496V268.886H302.45V270.496ZM291.963 285.575V284.036H311.233V285.575H291.963ZM335.995 267.394V288.439H334.173V277.432H331.261V287.398H329.485V267.963H331.261V275.893H334.173V267.394H335.995ZM318.052 282.616C322.94 279.882 324.952 276.035 325.272 271.679H318.856V270.14H327.094C327.071 275.49 325.189 280.545 319.14 283.918L318.052 282.616ZM341.216 268.294V271.324H347.347V268.294H349.193V277.455H339.393V268.294H341.216ZM341.216 275.94H347.347V272.768H341.216V275.94ZM341.523 280.77V279.278H354.946V284.368H343.394V286.688H355.727V288.203H341.571V282.947H353.099V280.77H341.523ZM353.099 278.284V267.394H354.946V271.963H358.118V273.526H354.946V278.284H353.099ZM372.039 273.052C372.027 276.899 374.643 280.758 377.744 282.166L376.607 283.634C374.205 282.474 372.133 279.976 371.127 276.982C370.157 280.154 368.085 282.817 365.623 284.06L364.44 282.498C367.576 281.065 370.168 277.041 370.192 273.052V269.217H372.039V273.052ZM380.04 288.487V267.394H381.91V288.487H380.04ZM395.511 270.496C395.522 274.106 399.641 277.313 403.299 278L402.447 279.562C399.263 278.828 395.925 276.568 394.564 273.478C393.191 276.568 389.865 278.817 386.681 279.562L385.828 278C389.474 277.301 393.558 274.117 393.569 270.496V268.886H395.511V270.496ZM385.024 285.575V284.036H404.293V285.575H385.024ZM414.508 268.767V270.33H408.259V272.934H413.632V274.402H408.259V277.266C411.313 277.254 413.195 277.136 415.455 276.721L415.645 278.213C413.206 278.674 411.218 278.769 407.809 278.781H406.483V268.767H414.508ZM409.466 288.155V281.054H423.362V288.155H409.466ZM411.289 286.64H421.539V282.569H411.289V286.64ZM414.627 274.236V272.697H417.467V267.773H419.267V279.894H417.467V274.236H414.627ZM421.586 280.083V267.394H423.362V280.083H421.586ZM444.278 271.395C444.29 274.153 446.35 276.615 449.439 277.621L448.563 279.089C446.137 278.284 444.302 276.615 443.39 274.496C442.491 276.911 440.55 278.793 438.029 279.704L437.082 278.213C440.23 277.148 442.432 274.437 442.455 271.395V270.496H437.65V268.957H449.013V270.496H444.278V271.395ZM439.875 284.51C439.887 282.083 442.526 280.675 446.859 280.675C451.179 280.675 453.795 282.083 453.795 284.51C453.795 286.972 451.179 288.392 446.859 288.392C442.526 288.392 439.887 286.972 439.875 284.51ZM441.745 284.51C441.722 286.025 443.686 286.913 446.859 286.901C450.043 286.913 451.984 286.025 451.996 284.51C451.984 283.042 450.043 282.166 446.859 282.166C443.686 282.166 441.722 283.042 441.745 284.51ZM451.759 280.107V267.394H453.605V272.768H456.777V274.331H453.605V280.107H451.759ZM474.97 267.394V288.487H473.1V267.394H474.97ZM458.849 283.397V269.194H460.696V274.757H466.969V269.194H468.792V283.397H458.849ZM460.696 281.835H466.969V276.248H460.696V281.835ZM484.428 268.767C487.659 268.791 490.027 270.78 490.039 273.715C490.027 276.355 488.109 278.225 485.375 278.58V282.154C487.34 282.072 489.316 281.929 491.151 281.693L491.269 283.089C486.807 283.847 481.836 283.894 478.131 283.871L477.823 282.308C479.516 282.296 481.469 282.285 483.505 282.225V278.58C480.711 278.248 478.806 276.366 478.818 273.715C478.806 270.78 481.138 268.791 484.428 268.767ZM480.64 273.715C480.617 275.692 482.215 277.065 484.428 277.053C486.606 277.065 488.192 275.692 488.216 273.715C488.192 271.738 486.606 270.389 484.428 270.377C482.215 270.389 480.617 271.738 480.64 273.715ZM492.5 288.439V267.394H494.347V276.082H497.779V277.692H494.347V288.439H492.5ZM510.966 269.383V286.522H508.812V271.608H508.717L504.551 274.378V272.224L508.812 269.383H510.966ZM516.518 286.664C515.689 286.652 514.979 285.966 515.003 285.125C514.979 284.297 515.689 283.61 516.518 283.61C517.358 283.61 518.045 284.297 518.033 285.125C518.045 285.966 517.358 286.652 516.518 286.664ZM515.027 275.609C515.003 274.78 515.713 274.094 516.542 274.094C517.382 274.094 518.068 274.78 518.057 275.609C518.068 276.449 517.382 277.136 516.542 277.148C515.713 277.136 515.003 276.449 515.027 275.609ZM526.78 269.383V286.522H524.626V271.608H524.532L520.365 274.378V272.224L524.626 269.383H526.78ZM553.153 267.418V282.971H551.283V277.29H545.838C544.867 278.532 543.305 279.278 541.506 279.278C538.357 279.278 536.026 277.1 536.037 274.023C536.026 270.933 538.357 268.756 541.506 268.744C543.293 268.756 544.832 269.489 545.814 270.709H551.283V267.418H553.153ZM537.813 274.023C537.813 276.13 539.352 277.633 541.506 277.621C543.577 277.633 545.151 276.13 545.151 274.023C545.151 271.928 543.577 270.413 541.506 270.401C539.352 270.413 537.813 271.928 537.813 274.023ZM539.636 287.99V281.338H541.506V286.427H553.745V287.99H539.636ZM546.655 272.247C546.844 272.792 546.951 273.384 546.951 274.023C546.951 274.638 546.844 275.218 546.667 275.751H551.283V272.247H546.655ZM575.37 277.81V279.302H556.172V277.81H564.859V275.348H558.61V268.389H572.979V269.88H560.433V273.833H573.121V275.348H566.659V277.81H575.37ZM558.491 284.628C558.48 282.225 561.214 280.852 565.759 280.841C570.269 280.852 572.979 282.225 573.003 284.628C572.979 287.055 570.269 288.416 565.759 288.439C561.214 288.416 558.48 287.055 558.491 284.628ZM560.385 284.628C560.362 286.108 562.386 286.96 565.759 286.948C569.097 286.96 571.121 286.108 571.133 284.628C571.121 283.172 569.097 282.308 565.759 282.308C562.386 282.308 560.362 283.172 560.385 284.628ZM589.717 273.052C589.705 276.899 592.321 280.758 595.422 282.166L594.286 283.634C591.883 282.474 589.811 279.976 588.805 276.982C587.835 280.154 585.763 282.817 583.301 284.06L582.118 282.498C585.254 281.065 587.847 277.041 587.87 273.052V269.217H589.717V273.052ZM597.718 288.487V267.394H599.588V288.487H597.718ZM613.189 270.496C613.201 274.106 617.32 277.313 620.977 278L620.125 279.562C616.941 278.828 613.603 276.568 612.242 273.478C610.869 276.568 607.543 278.817 604.359 279.562L603.507 278C607.152 277.301 611.236 274.117 611.248 270.496V268.886H613.189V270.496ZM602.702 285.575V284.036H621.971V285.575H602.702ZM632.187 268.767V270.33H625.937V272.934H631.311V274.402H625.937V277.266C628.991 277.254 630.873 277.136 633.133 276.721L633.323 278.213C630.885 278.674 628.896 278.769 625.487 278.781H624.161V268.767H632.187ZM627.144 288.155V281.054H641.04V288.155H627.144ZM628.967 286.64H639.217V282.569H628.967V286.64ZM632.305 274.236V272.697H635.146V267.773H636.945V279.894H635.146V274.236H632.305ZM639.265 280.083V267.394H641.04V280.083H639.265Z" fill="#5420C3"/>
<rect x="60" y="321.356" width="167.482" height="56.1606" rx="28.0803" fill="#7737FF"/>
<path d="M87.3599 341.297L92.4022 355.667H92.5916L97.6575 341.297H99.9064L93.6332 358.437H91.3843L85.111 341.297H87.3599ZM111.092 345.606C110.915 343.925 109.352 342.955 107.305 342.955C105.032 342.955 103.553 344.138 103.541 345.772C103.553 347.571 105.553 348.245 106.855 348.565L108.559 349.038C110.394 349.512 113.412 350.565 113.412 353.773C113.412 356.566 111.163 358.732 107.186 358.744C103.493 358.732 101.209 356.827 101.008 353.986H103.186C103.363 355.904 105.15 356.815 107.186 356.803C109.554 356.815 111.329 355.596 111.329 353.726C111.329 352.057 109.743 351.418 107.944 350.909L105.837 350.34C103.15 349.559 101.469 348.186 101.481 345.866C101.469 342.966 104.05 341.061 107.376 341.061C110.702 341.061 113.093 343.002 113.175 345.606H111.092ZM127.675 346.695C127.178 344.328 125.154 343.049 122.894 343.049C119.792 343.049 117.39 345.44 117.378 349.867C117.39 354.282 119.792 356.673 122.894 356.685C125.154 356.673 127.167 355.406 127.675 353.063H129.806C129.191 356.566 126.373 358.673 122.894 358.673C118.49 358.673 115.306 355.288 115.318 349.867C115.306 344.446 118.49 341.061 122.894 341.061C126.362 341.061 129.167 343.132 129.806 346.695H127.675ZM142.315 348.944V350.814H134.81V348.944H142.315ZM153.498 358.673C150.089 358.673 147.639 356.85 147.532 354.128H149.686C149.805 355.762 151.426 356.779 153.474 356.779C155.735 356.779 157.368 355.56 157.38 353.773C157.368 351.903 155.877 350.589 153.214 350.577H151.817V348.707H153.214C155.297 348.707 156.753 347.535 156.741 345.772C156.753 344.055 155.498 342.919 153.545 342.907C151.71 342.919 150.041 343.925 149.947 345.606H147.887C147.994 342.884 150.527 341.061 153.569 341.061C156.836 341.061 158.824 343.203 158.8 345.653C158.824 347.606 157.688 349.027 155.889 349.536V349.654C158.126 349.997 159.475 351.595 159.463 353.773C159.475 356.59 156.918 358.673 153.498 358.673ZM167.666 358.673C163.867 358.673 161.665 355.477 161.677 349.867C161.665 344.304 163.89 341.061 167.666 341.061C171.43 341.061 173.655 344.304 173.655 349.867C173.655 355.477 171.466 358.673 167.666 358.673ZM163.737 349.867C163.748 354.306 165.181 356.779 167.666 356.779C170.14 356.779 171.584 354.306 171.572 349.867C171.584 345.428 170.128 342.919 167.666 342.907C165.204 342.919 163.748 345.428 163.737 349.867ZM181.622 358.673C177.822 358.673 175.621 355.477 175.633 349.867C175.621 344.304 177.846 341.061 181.622 341.061C185.386 341.061 187.611 344.304 187.611 349.867C187.611 355.477 185.421 358.673 181.622 358.673ZM177.692 349.867C177.704 354.306 179.136 356.779 181.622 356.779C184.096 356.779 185.54 354.306 185.528 349.867C185.54 345.428 184.084 342.919 181.622 342.907C179.16 342.919 177.704 345.428 177.692 349.867ZM195.577 358.673C191.778 358.673 189.576 355.477 189.588 349.867C189.576 344.304 191.802 341.061 195.577 341.061C199.341 341.061 201.567 344.304 201.567 349.867C201.567 355.477 199.377 358.673 195.577 358.673ZM191.648 349.867C191.66 354.306 193.092 356.779 195.577 356.779C198.051 356.779 199.495 354.306 199.483 349.867C199.495 345.428 198.039 342.919 195.577 342.907C193.115 342.919 191.66 345.428 191.648 349.867Z" fill="white"/>
<path d="M255.204 341.392V346.553H259.796V341.392H261.501V347.31H264.673V339.782H266.448V359.312H264.673V348.873H261.501V355.075H253.428V341.392H255.204ZM255.204 353.513H259.796V348.068H255.204V353.513ZM268.886 360.354V339.309H270.686V360.354H268.886ZM289.399 339.309V347.878H292.808V349.441H289.399V360.354H287.553V339.309H289.399ZM273.255 354.886C278.687 352.187 281.647 348.127 282.073 343.144H274.225V341.582H283.955C283.943 347.535 281.149 352.968 274.296 356.353L273.255 354.886ZM304.065 342.41C304.077 346.02 308.196 349.228 311.853 349.914L311.001 351.477C307.817 350.743 304.479 348.482 303.118 345.393C301.745 348.482 298.419 350.731 295.235 351.477L294.383 349.914C298.029 349.216 302.112 346.032 302.124 342.41V340.8H304.065V342.41ZM293.578 357.49V355.951H312.848V357.49H293.578ZM337.61 339.309V360.354H335.787V349.346H332.876V359.312H331.1V339.877H332.876V347.807H335.787V339.309H337.61ZM319.666 354.531C324.555 351.796 326.567 347.95 326.886 343.594H320.471V342.055H328.709C328.686 347.405 326.804 352.459 320.755 355.833L319.666 354.531ZM342.831 340.209V343.239H348.962V340.209H350.808V349.37H341.008V340.209H342.831ZM342.831 347.855H348.962V344.683H342.831V347.855ZM343.138 352.684V351.193H356.561V356.282H345.008V358.602H357.342V360.117H343.186V354.862H354.714V352.684H343.138ZM354.714 350.198V339.309H356.561V343.878H359.733V345.44H356.561V350.198H354.714ZM373.653 344.967C373.642 348.814 376.257 352.672 379.358 354.081L378.222 355.548C375.819 354.388 373.748 351.891 372.742 348.896C371.771 352.069 369.7 354.732 367.238 355.975L366.054 354.412C369.191 352.98 371.783 348.956 371.807 344.967V341.132H373.653V344.967ZM381.655 360.401V339.309H383.525V360.401H381.655ZM397.125 342.41C397.137 346.02 401.256 349.228 404.914 349.914L404.061 351.477C400.877 350.743 397.54 348.482 396.178 345.393C394.805 348.482 391.479 350.731 388.295 351.477L387.443 349.914C391.089 349.216 395.172 346.032 395.184 342.41V340.8H397.125V342.41ZM386.638 357.49V355.951H405.908V357.49H386.638ZM416.123 340.682V342.244H409.874V344.848H415.247V346.316H409.874V349.18C412.927 349.169 414.809 349.05 417.07 348.636L417.259 350.127C414.821 350.589 412.833 350.684 409.424 350.696H408.098V340.682H416.123ZM411.081 360.07V352.968H424.977V360.07H411.081ZM412.904 358.555H423.154V354.483H412.904V358.555ZM416.242 346.15V344.612H419.082V339.688H420.881V351.808H419.082V346.15H416.242ZM423.201 351.998V339.309H424.977V351.998H423.201ZM445.893 343.31C445.905 346.068 447.964 348.529 451.054 349.536L450.178 351.003C447.751 350.198 445.917 348.529 445.005 346.411C444.106 348.825 442.165 350.707 439.643 351.619L438.697 350.127C441.845 349.062 444.047 346.352 444.07 343.31V342.41H439.265V340.871H450.628V342.41H445.893V343.31ZM441.49 356.424C441.502 353.998 444.141 352.589 448.473 352.589C452.794 352.589 455.409 353.998 455.409 356.424C455.409 358.886 452.794 360.307 448.473 360.307C444.141 360.307 441.502 358.886 441.49 356.424ZM443.36 356.424C443.336 357.939 445.301 358.827 448.473 358.815C451.657 358.827 453.598 357.939 453.61 356.424C453.598 354.957 451.657 354.081 448.473 354.081C445.301 354.081 443.336 354.957 443.36 356.424ZM453.374 352.021V339.309H455.22V344.683H458.392V346.245H455.22V352.021H453.374ZM476.585 339.309V360.401H474.715V339.309H476.585ZM460.464 355.312V341.108H462.311V346.671H468.584V341.108H470.407V355.312H460.464ZM462.311 353.749H468.584V348.163H462.311V353.749ZM486.043 340.682C489.274 340.706 491.641 342.694 491.653 345.63C491.641 348.269 489.724 350.139 486.99 350.494V354.069C488.955 353.986 490.931 353.844 492.766 353.607L492.884 355.004C488.422 355.762 483.451 355.809 479.746 355.785L479.438 354.223C481.131 354.211 483.084 354.199 485.12 354.14V350.494C482.326 350.163 480.421 348.281 480.432 345.63C480.421 342.694 482.752 340.706 486.043 340.682ZM482.255 345.63C482.232 347.606 483.829 348.979 486.043 348.967C488.221 348.979 489.807 347.606 489.831 345.63C489.807 343.653 488.221 342.304 486.043 342.292C483.829 342.304 482.232 343.653 482.255 345.63ZM494.115 360.354V339.309H495.962V347.997H499.394V349.607H495.962V360.354H494.115ZM512.581 341.297V358.437H510.427V343.523H510.332L506.166 346.292V344.138L510.427 341.297H512.581ZM518.133 358.579C517.304 358.567 516.594 357.88 516.618 357.04C516.594 356.211 517.304 355.525 518.133 355.525C518.973 355.525 519.66 356.211 519.648 357.04C519.66 357.88 518.973 358.567 518.133 358.579ZM516.641 347.523C516.618 346.695 517.328 346.008 518.156 346.008C518.997 346.008 519.683 346.695 519.671 347.523C519.683 348.364 518.997 349.05 518.156 349.062C517.328 349.05 516.618 348.364 516.641 347.523ZM536.231 341.297V358.437H534.195L524.915 345.085H524.75V358.437H522.619V341.297H524.679L533.958 354.673H534.124V341.297H536.231ZM561.538 339.333V354.886H559.668V349.204H554.223C553.253 350.447 551.69 351.193 549.891 351.193C546.743 351.193 544.411 349.015 544.423 345.937C544.411 342.848 546.743 340.67 549.891 340.658C551.678 340.67 553.217 341.404 554.199 342.623H559.668V339.333H561.538ZM546.198 345.937C546.198 348.044 547.737 349.547 549.891 349.536C551.962 349.547 553.537 348.044 553.537 345.937C553.537 343.842 551.962 342.327 549.891 342.315C547.737 342.327 546.198 343.842 546.198 345.937ZM548.021 359.904V353.252H549.891V358.342H562.13V359.904H548.021ZM555.04 344.162C555.229 344.706 555.336 345.298 555.336 345.937C555.336 346.553 555.229 347.133 555.052 347.665H559.668V344.162H555.04ZM583.755 349.725V351.216H564.557V349.725H573.245V347.263H566.995V340.303H581.364V341.795H568.818V345.748H581.506V347.263H575.044V349.725H583.755ZM566.877 356.543C566.865 354.14 569.599 352.767 574.144 352.755C578.654 352.767 581.364 354.14 581.388 356.543C581.364 358.969 578.654 360.33 574.144 360.354C569.599 360.33 566.865 358.969 566.877 356.543ZM568.77 356.543C568.747 358.022 570.771 358.874 574.144 358.863C577.482 358.874 579.506 358.022 579.518 356.543C579.506 355.087 577.482 354.223 574.144 354.223C570.771 354.223 568.747 355.087 568.77 356.543ZM598.102 344.967C598.09 348.814 600.706 352.672 603.807 354.081L602.671 355.548C600.268 354.388 598.197 351.891 597.191 348.896C596.22 352.069 594.149 354.732 591.687 355.975L590.503 354.412C593.64 352.98 596.232 348.956 596.255 344.967V341.132H598.102V344.967ZM606.103 360.401V339.309H607.973V360.401H606.103ZM621.574 342.41C621.586 346.02 625.705 349.228 629.362 349.914L628.51 351.477C625.326 350.743 621.988 348.482 620.627 345.393C619.254 348.482 615.928 350.731 612.744 351.477L611.892 349.914C615.537 349.216 619.621 346.032 619.633 342.41V340.8H621.574V342.41ZM611.087 357.49V355.951H630.356V357.49H611.087ZM640.572 340.682V342.244H634.322V344.848H639.696V346.316H634.322V349.18C637.376 349.169 639.258 349.05 641.519 348.636L641.708 350.127C639.27 350.589 637.281 350.684 633.872 350.696H632.547V340.682H640.572ZM635.529 360.07V352.968H649.425V360.07H635.529ZM637.352 358.555H647.603V354.483H637.352V358.555ZM640.69 346.15V344.612H643.531V339.688H645.33V351.808H643.531V346.15H640.69ZM647.65 351.998V339.309H649.425V351.998H647.65Z" fill="#5420C3"/>
<line x1="40" y1="456.017" x2="680" y2="456.017" stroke="#F4F5FA" stroke-width="3"/>
</svg>
