<svg width="720" height="239" viewBox="0 0 720 239" fill="none" xmlns="http://www.w3.org/2000/svg">
<rect y="5" width="720" height="234" fill="white"/>
<path d="M250.089 104.915C249.854 102.696 247.792 101.415 245.089 101.415C242.089 101.415 240.136 102.978 240.12 105.134C240.136 107.509 242.776 108.399 244.495 108.821L246.745 109.446C249.167 110.071 253.151 111.462 253.151 115.696C253.151 119.384 250.183 122.243 244.933 122.259C240.058 122.243 237.042 119.728 236.776 115.978H239.651C239.886 118.509 242.245 119.712 244.933 119.696C248.058 119.712 250.401 118.103 250.401 115.634C250.401 113.431 248.308 112.587 245.933 111.915L243.151 111.165C239.604 110.134 237.386 108.321 237.401 105.259C237.386 101.431 240.792 98.915 245.183 98.915C249.573 98.915 252.729 101.478 252.839 104.915H250.089ZM263.136 122.196C258.324 122.212 255.386 118.54 255.386 113.446C255.386 108.29 258.464 104.665 263.074 104.665C266.683 104.665 269.402 106.806 269.824 110.009H267.136C266.746 108.462 265.402 107.04 263.136 107.04C260.105 107.04 258.089 109.54 258.074 113.353C258.089 117.274 260.058 119.79 263.136 119.79C265.136 119.79 266.668 118.712 267.136 116.853H269.824C269.402 119.884 266.902 122.212 263.136 122.196ZM275.184 111.665V121.853H272.496V99.2275H275.184V107.54H275.403C276.199 105.79 277.715 104.665 280.403 104.665C283.871 104.665 286.184 106.712 286.184 111.071V121.853H283.496V111.259C283.496 108.587 282.028 107.071 279.59 107.071C277.059 107.071 275.184 108.728 275.184 111.665ZM292.544 111.665V121.853H289.856V104.884H292.45V107.54H292.669C293.466 105.806 295.059 104.665 297.638 104.665C301.075 104.665 303.372 106.759 303.356 111.071V121.853H300.669V111.259C300.669 108.634 299.231 107.071 296.825 107.071C294.356 107.071 292.544 108.728 292.544 111.665ZM314.154 122.196C309.248 122.212 306.216 118.712 306.216 113.509C306.216 108.29 309.294 104.665 313.904 104.665C317.466 104.665 321.232 106.853 321.216 113.134V114.259H308.904C309.044 117.853 311.138 119.821 314.154 119.821C316.185 119.821 317.466 118.931 318.091 117.884H320.966C320.169 120.462 317.654 122.212 314.154 122.196ZM308.919 111.978H318.498C318.482 109.149 316.701 107.04 313.904 107.04C310.966 107.04 309.107 109.353 308.919 111.978ZM324.076 121.853V104.884H326.764V121.853H324.076ZM323.545 100.29C323.529 99.29 324.389 98.4932 325.42 98.5088C326.451 98.4932 327.311 99.29 327.326 100.29C327.311 101.274 326.451 102.071 325.42 102.071C324.389 102.071 323.529 101.274 323.545 100.29ZM336.811 122.196C332.577 122.212 329.593 118.806 329.593 113.415C329.593 108.04 332.577 104.665 336.843 104.665C340.139 104.665 341.171 106.665 341.749 107.571H341.936V99.2275H344.655V121.853H342.03V119.259H341.749C341.155 120.196 340.046 122.212 336.811 122.196ZM332.311 113.353C332.311 116.962 333.968 119.79 337.186 119.79C340.296 119.79 342.014 117.165 342.03 113.353C342.014 109.587 340.343 107.071 337.186 107.071C333.921 107.071 332.311 109.806 332.311 113.353ZM355.796 122.196C350.89 122.212 347.859 118.712 347.859 113.509C347.859 108.29 350.937 104.665 355.546 104.665C359.109 104.665 362.874 106.853 362.859 113.134V114.259H350.546C350.687 117.853 352.781 119.821 355.796 119.821C357.827 119.821 359.109 118.931 359.734 117.884H362.609C361.812 120.462 359.296 122.212 355.796 122.196ZM350.562 111.978H360.14C360.124 109.149 358.343 107.04 355.546 107.04C352.609 107.04 350.749 109.353 350.562 111.978ZM365.719 121.853V104.884H368.312V107.478H368.5C369.109 105.759 370.875 104.618 372.875 104.603C373.281 104.618 373.969 104.634 374.281 104.665V107.384C374.078 107.337 373.359 107.196 372.656 107.196C370.219 107.196 368.406 108.884 368.406 111.165V121.853H365.719ZM386.814 99.2275V121.853H384.001V99.2275H386.814ZM393.518 111.665V121.853H390.83V104.884H393.424V107.54H393.643C394.439 105.806 396.033 104.665 398.611 104.665C402.049 104.665 404.346 106.759 404.33 111.071V121.853H401.643V111.259C401.643 108.634 400.205 107.071 397.799 107.071C395.33 107.071 393.518 108.728 393.518 111.665ZM415.409 104.884V107.134H411.846V116.978C411.831 119.149 412.924 119.509 414.065 119.509C414.549 119.509 415.268 119.462 415.659 119.446V121.946C415.237 122.009 414.581 122.071 413.784 122.071C411.518 122.071 409.143 120.665 409.128 117.665V107.134H406.565V104.884H409.128V100.821H411.846V104.884H415.409ZM424.987 122.196C420.362 122.212 417.237 118.712 417.237 113.446C417.237 108.149 420.362 104.665 424.987 104.665C429.597 104.665 432.691 108.149 432.675 113.446C432.691 118.712 429.597 122.212 424.987 122.196ZM419.925 113.446C419.941 116.837 421.534 119.821 424.987 119.821C428.409 119.821 429.987 116.837 429.987 113.446C429.987 110.071 428.409 107.04 424.987 107.04C421.534 107.04 419.941 110.071 419.925 113.446ZM446.285 114.884V104.884H448.941V121.853H446.285V118.978H446.098C445.301 120.696 443.613 122.071 441.066 122.071C437.848 122.071 435.551 119.978 435.566 115.665V104.884H438.254V115.478C438.254 117.915 439.769 119.493 441.941 119.478C443.863 119.493 446.269 118.056 446.285 114.884ZM459.551 122.196C454.739 122.212 451.801 118.54 451.801 113.446C451.801 108.29 454.879 104.665 459.489 104.665C463.098 104.665 465.817 106.806 466.239 110.009H463.551C463.161 108.462 461.817 107.04 459.551 107.04C456.52 107.04 454.504 109.54 454.489 113.353C454.504 117.274 456.473 119.79 459.551 119.79C461.551 119.79 463.082 118.712 463.551 116.853H466.239C465.817 119.884 463.317 122.212 459.551 122.196ZM471.599 111.665V121.853H468.911V99.2275H471.599V107.54H471.818C472.614 105.79 474.13 104.665 476.818 104.665C480.286 104.665 482.599 106.712 482.599 111.071V121.853H479.911V111.259C479.911 108.587 478.443 107.071 476.005 107.071C473.474 107.071 471.599 108.728 471.599 111.665Z" fill="#1E1E1E"/>
<circle cx="360" cy="194.853" r="12.8571" stroke="#7737FF" stroke-width="10.2857"/>
<line x1="40" y1="2.04004" x2="680" y2="2.04004" stroke="#F4F5FA" stroke-width="3"/>
<line x1="40" y1="1.5" x2="680" y2="1.5" stroke="#F4F5FA" stroke-width="3"/>
</svg>
