<svg width="720" height="234" viewBox="0 0 720 234" fill="none" xmlns="http://www.w3.org/2000/svg">
<rect width="720" height="234" fill="white"/>
<path d="M269.621 100.915C269.387 98.6963 267.324 97.415 264.621 97.415C261.621 97.415 259.668 98.9775 259.652 101.134C259.668 103.509 262.309 104.399 264.027 104.821L266.277 105.446C268.699 106.071 272.684 107.462 272.684 111.696C272.684 115.384 269.715 118.243 264.465 118.259C259.59 118.243 256.574 115.728 256.309 111.978H259.184C259.418 114.509 261.777 115.712 264.465 115.696C267.59 115.712 269.934 114.103 269.934 111.634C269.934 109.431 267.84 108.587 265.465 107.915L262.684 107.165C259.137 106.134 256.918 104.321 256.934 101.259C256.918 97.4307 260.324 94.915 264.715 94.915C269.106 94.915 272.262 97.4775 272.371 100.915H269.621ZM275.731 117.853V100.884H278.419V117.853H275.731ZM275.2 96.29C275.184 95.29 276.044 94.4932 277.075 94.5088C278.106 94.4932 278.966 95.29 278.981 96.29C278.966 97.2744 278.106 98.0713 277.075 98.0713C276.044 98.0713 275.184 97.2744 275.2 96.29ZM289.185 118.196C284.279 118.212 281.247 114.712 281.247 109.509C281.247 104.29 284.326 100.665 288.935 100.665C292.497 100.665 296.263 102.853 296.247 109.134V110.259H283.935C284.076 113.853 286.169 115.821 289.185 115.821C291.216 115.821 292.497 114.931 293.122 113.884H295.997C295.201 116.462 292.685 118.212 289.185 118.196ZM283.951 107.978H293.529C293.513 105.149 291.732 103.04 288.935 103.04C285.997 103.04 284.138 105.353 283.951 107.978ZM299.107 117.853V100.884H301.701V103.54H301.92C302.623 101.728 304.264 100.665 306.482 100.665C308.701 100.665 310.217 101.728 311.014 103.54H311.201C312.061 101.79 313.857 100.665 316.295 100.665C319.311 100.665 321.482 102.509 321.482 106.509V117.853H318.795V106.54C318.779 104.04 317.217 103.071 315.357 103.071C312.998 103.071 311.654 104.665 311.639 106.821V117.853H308.92V106.259C308.936 104.353 307.561 103.071 305.607 103.071C303.576 103.071 301.795 104.79 301.795 107.259V117.853H299.107ZM332.28 118.196C327.374 118.212 324.342 114.712 324.342 109.509C324.342 104.29 327.421 100.665 332.03 100.665C335.592 100.665 339.358 102.853 339.342 109.134V110.259H327.03C327.171 113.853 329.264 115.821 332.28 115.821C334.311 115.821 335.592 114.931 336.217 113.884H339.092C338.296 116.462 335.78 118.212 332.28 118.196ZM327.046 107.978H336.624C336.608 105.149 334.827 103.04 332.03 103.04C329.092 103.04 327.233 105.353 327.046 107.978ZM344.89 107.665V117.853H342.202V100.884H344.796V103.54H345.015C345.812 101.806 347.406 100.665 349.984 100.665C353.421 100.665 355.718 102.759 355.702 107.071V117.853H353.015V107.259C353.015 104.634 351.577 103.071 349.171 103.071C346.702 103.071 344.89 104.728 344.89 107.665ZM368.812 105.29C368.438 103.884 367.359 102.962 365.375 102.946C363.281 102.962 361.797 104.087 361.781 105.509C361.797 106.634 362.703 107.399 364.688 107.884L367.219 108.509C370.25 109.228 371.734 110.743 371.75 113.103C371.734 116.04 369.344 118.212 365.094 118.196C361.281 118.212 359.016 116.509 358.562 113.415H361.375C361.688 115.071 362.891 115.868 365.031 115.853C367.453 115.868 368.969 114.853 368.969 113.259C368.969 112.056 368.109 111.274 366.188 110.821L363.625 110.228C360.672 109.54 359.094 107.931 359.094 105.665C359.094 102.759 361.641 100.665 365.375 100.665C368.891 100.665 371.094 102.54 371.438 105.29H368.812ZM386.532 117.853L380.345 95.2275H383.189L387.907 113.54H388.126L392.907 95.2275H396.064L400.876 113.54H401.064L405.782 95.2275H408.626L402.439 117.853H399.532L394.595 99.9463H394.407L389.439 117.853H386.532ZM410.643 117.853V100.884H413.33V117.853H410.643ZM410.111 96.29C410.096 95.29 410.955 94.4932 411.986 94.5088C413.018 94.4932 413.877 95.29 413.893 96.29C413.877 97.2744 413.018 98.0713 411.986 98.0713C410.955 98.0713 410.096 97.2744 410.111 96.29ZM419.659 107.665V117.853H416.971V100.884H419.565V103.54H419.784C420.581 101.806 422.174 100.665 424.753 100.665C428.19 100.665 430.487 102.759 430.471 107.071V117.853H427.784V107.259C427.784 104.634 426.346 103.071 423.94 103.071C421.471 103.071 419.659 104.728 419.659 107.665ZM441.081 118.196C436.269 118.212 433.331 114.54 433.331 109.446C433.331 104.29 436.409 100.665 441.019 100.665C444.628 100.665 447.347 102.806 447.769 106.009H445.081C444.691 104.462 443.347 103.04 441.081 103.04C438.05 103.04 436.034 105.54 436.019 109.353C436.034 113.274 438.003 115.79 441.081 115.79C443.081 115.79 444.613 114.712 445.081 112.853H447.769C447.347 115.884 444.847 118.212 441.081 118.196ZM457.379 118.196C452.566 118.212 449.629 114.54 449.629 109.446C449.629 104.29 452.707 100.665 457.316 100.665C460.926 100.665 463.644 102.806 464.066 106.009H461.379C460.988 104.462 459.644 103.04 457.379 103.04C454.348 103.04 452.332 105.54 452.316 109.353C452.332 113.274 454.301 115.79 457.379 115.79C459.379 115.79 460.91 114.712 461.379 112.853H464.066C463.644 115.884 461.144 118.212 457.379 118.196Z" fill="#1E1E1E"/>
<circle cx="360" cy="190.853" r="12.8571" stroke="#7737FF" stroke-width="10.2857"/>
</svg>
