<svg width="720" height="206" viewBox="0 0 720 206" fill="none" xmlns="http://www.w3.org/2000/svg">
<rect width="720" height="206" fill="white"/>
<path d="M71.0072 71.7266V73.25H62.5228V77.5156H60.6947V73.25H51.9291V71.7266H71.0072ZM54.3666 81.4531V75.4531H56.2181V79.9062H68.8744V81.4531H54.3666ZM54.4135 69.3359V62.0938H68.5228V69.3359H54.4135ZM56.2181 67.8594H66.6947V63.5469H56.2181V67.8594ZM79.035 62.5859C82.3045 62.5977 84.6249 64.5898 84.6366 67.4844C84.6249 70.3906 82.3045 72.3711 79.035 72.3828C75.742 72.3711 73.3983 70.3906 73.41 67.4844C73.3983 64.5898 75.742 62.5977 79.035 62.5859ZM72.3319 75.7812C76.1756 75.793 81.4842 75.7578 86.0897 75.0781L86.2303 76.4375C81.4608 77.3281 76.3397 77.3516 72.5897 77.3516L72.3319 75.7812ZM75.2147 67.4844C75.203 69.4297 76.8085 70.7656 79.035 70.7656C81.2381 70.7656 82.8436 69.4297 82.8319 67.4844C82.8436 65.5508 81.2381 64.2031 79.035 64.2031C76.8085 64.2031 75.203 65.5508 75.2147 67.4844ZM87.4725 81.9453V61.0625H89.3006V81.9453H87.4725ZM102.883 64.6719V66.1719H92.43V64.6719H96.766V61.6953H98.5941V64.6719H102.883ZM93.18 72.3125C93.18 69.5469 95.0667 67.5898 97.6566 67.5781C100.282 67.5898 102.157 69.5469 102.18 72.3125C102.157 75.1133 100.282 77.082 97.6566 77.0938C95.0667 77.082 93.18 75.1133 93.18 72.3125ZM94.8206 72.3125C94.8206 74.1641 96.0042 75.4883 97.6566 75.4766C99.3206 75.4883 100.539 74.1641 100.539 72.3125C100.539 70.4844 99.3206 69.1484 97.6566 69.125C96.0042 69.1484 94.8206 70.4844 94.8206 72.3125ZM103.961 80.8672V61.5781H105.696V69.8516H108.461V61.0625H110.219V81.8984H108.461V71.375H105.696V80.8672H103.961ZM123.263 64.0156C123.251 66.8047 126.966 69.1719 130.598 69.7109L129.919 71.1641C126.673 70.6133 123.497 68.8789 122.231 66.3711C120.966 68.8789 117.79 70.6133 114.591 71.1641L113.864 69.7109C117.485 69.1719 121.188 66.8047 121.2 64.0156V63.875H114.52V62.375H129.919V63.875H123.263V64.0156ZM112.739 74.4688V72.9453H131.723V74.4688H123.098V81.8984H121.294V74.4688H112.739ZM150.204 61.0859V76.3672H148.376V61.0859H150.204ZM133.212 71.9141C136.365 70.6836 138.509 67.6367 138.509 64.3438V62.2578H140.384V64.3438C140.361 67.5195 142.529 70.3672 145.634 71.4922L144.673 72.9688C142.259 72.043 140.384 70.168 139.458 67.7656C138.556 70.3203 136.658 72.3711 134.22 73.3438L133.212 71.9141ZM136.751 81.4531V74.9609H138.579V79.9062H150.861V81.4531H136.751ZM176.596 61.0625V81.8984H174.791V71.1172H171.791V80.8203H170.057V61.5312H171.791V69.5469H174.791V61.0625H176.596ZM159.862 76.5078V63.6172H161.69V74.8672C163.752 74.8555 165.979 74.7031 168.51 74.1875L168.744 75.8281C165.838 76.3555 163.448 76.5078 161.151 76.5078H159.862ZM198.053 71.375V72.8984H179.069V71.375H183.78V68.4336C182.116 67.7891 181.178 66.7344 181.178 65.3281C181.178 62.8789 183.991 61.4727 188.561 61.4609C193.096 61.4727 195.909 62.8789 195.921 65.3281C195.909 66.7227 194.983 67.7773 193.343 68.4336V71.375H198.053ZM181.366 78.1719C181.354 75.793 184.038 74.4805 188.561 74.4922C193.026 74.4805 195.71 75.793 195.733 78.1719C195.71 80.5508 193.026 81.8516 188.561 81.8516C184.038 81.8516 181.354 80.5508 181.366 78.1719ZM183.077 65.3281C183.065 66.8516 185.151 67.7305 188.561 67.7422C191.936 67.7305 194.034 66.8516 194.046 65.3281C194.034 63.8281 191.936 62.9141 188.561 62.9141C185.151 62.9141 183.065 63.8281 183.077 65.3281ZM183.241 78.1719C183.218 79.5898 185.221 80.4336 188.561 80.4219C191.866 80.4336 193.87 79.5898 193.882 78.1719C193.87 76.7539 191.866 75.9219 188.561 75.8984C185.221 75.9219 183.218 76.7539 183.241 78.1719ZM185.608 71.375H191.514V68.9258C190.635 69.0898 189.651 69.1719 188.561 69.1719C187.471 69.1719 186.487 69.0898 185.608 68.9375V71.375ZM218.316 72.0547V73.5547H199.331V72.0547H218.316ZM201.441 65.9375C201.441 63.3242 204.3 61.7891 208.823 61.8125C213.3 61.7891 216.171 63.3242 216.183 65.9375C216.171 68.5273 213.3 70.0859 208.823 70.0859C204.3 70.0859 201.441 68.5273 201.441 65.9375ZM201.792 81.4531V75.3828H203.644V79.9062H216.206V81.4531H201.792ZM203.339 65.9375C203.327 67.5898 205.46 68.5859 208.823 68.5859C212.163 68.5859 214.296 67.5898 214.308 65.9375C214.296 64.3086 212.163 63.2891 208.823 63.2891C205.46 63.2891 203.327 64.3086 203.339 65.9375ZM241.426 61.0625V66.1719H244.567V67.7188H241.426V72.8984H239.598V61.0625H241.426ZM226.121 71.6562V62.4922H235.356V63.9922H227.949V70.1328C232.133 70.1562 234.512 69.9922 237.301 69.4531L237.535 70.9531C234.606 71.5508 232.121 71.668 227.738 71.6562H226.121ZM228.278 81.6172V73.9766H241.426V81.6172H228.278ZM230.082 80.1172H239.598V75.4766H230.082V80.1172ZM261.712 61.0625V66.5H264.829V68.0469H261.712V73.5078H259.86V61.0625H261.712ZM246.36 71.7969V62.6562H255.618V64.1797H248.165V70.2969C252.383 70.2734 254.809 70.1445 257.61 69.5703L257.798 71.0938C254.88 71.6797 252.383 71.7969 247.977 71.7969H246.36ZM248.094 77.8672C248.106 75.3711 250.755 73.918 255.008 73.9062C259.262 73.918 261.876 75.3711 261.876 77.8672C261.876 80.3984 259.262 81.8516 255.008 81.8516C250.755 81.8516 248.106 80.3984 248.094 77.8672ZM249.899 77.8672C249.911 79.4141 251.868 80.3633 255.008 80.375C258.126 80.3633 260.106 79.4141 260.094 77.8672C260.106 76.332 258.126 75.4062 255.008 75.4297C251.868 75.4062 249.911 76.332 249.899 77.8672ZM272.716 67.4609C272.693 70.8008 275.107 74.4805 278.13 75.9219L277.075 77.375C274.732 76.2266 272.751 73.7656 271.814 70.9414C270.853 74 268.767 76.6953 266.435 77.8906L265.31 76.4375C268.31 74.9727 270.888 71.0117 270.911 67.4609V64.7422H266.06V63.2188H277.403V64.7422H272.716V67.4609ZM279.958 81.8984V61.0625H281.786V69.5H285.278V71.0703H281.786V81.8984H279.958ZM307.733 61.0859V67.3906H310.85V68.9375H307.733V75.0547H305.881V61.0859H307.733ZM291.373 72.9219C293.037 72.9219 294.983 72.9219 297.022 72.8633V71.3281C294.596 71.1055 293.025 69.9922 293.037 68.2578C293.025 66.3594 294.983 65.1875 297.912 65.1875C300.865 65.1875 302.787 66.3594 302.811 68.2578C302.787 69.9805 301.264 71.0938 298.85 71.3281V72.793C300.795 72.6992 302.764 72.5352 304.592 72.2656L304.756 73.6016C300.233 74.3984 295.252 74.4336 291.584 74.4219L291.373 72.9219ZM291.889 64.3906V62.9844H297.022V60.8984H298.85V62.9844H303.959V64.3906H291.889ZM293.928 77.5625V76.0859H307.733V81.8984H305.881V77.5625H293.928ZM294.795 68.2578C294.783 69.3477 295.99 70.0859 297.912 70.0625C299.834 70.0859 301.053 69.3477 301.053 68.2578C301.053 67.1562 299.834 66.4766 297.912 66.5C295.99 66.4766 294.783 67.1562 294.795 68.2578ZM328.932 61.0859V76.3203H327.104V61.0859H328.932ZM312.221 67.6484C312.21 64.6484 314.565 62.5508 317.682 62.5391C320.799 62.5508 323.131 64.6484 323.143 67.6484C323.131 70.6836 320.799 72.793 317.682 72.7812C314.565 72.793 312.21 70.6836 312.221 67.6484ZM314.026 67.6484C314.003 69.7227 315.573 71.1641 317.682 71.1641C319.756 71.1641 321.338 69.7227 321.338 67.6484C321.338 65.6094 319.756 64.1562 317.682 64.1562C315.573 64.1562 314.003 65.6094 314.026 67.6484ZM315.479 81.4531V74.7734H317.307V79.9062H329.588V81.4531H315.479ZM355.418 63.4531V64.9766H338.519V63.4531H346.113V60.9453H347.918V63.4531H355.418ZM337.535 76.0859V74.5625H356.613V76.0859H347.918V81.9453H346.113V76.0859H337.535ZM340.23 69.6641C340.207 67.4141 342.761 66.1719 347.027 66.1719C351.257 66.1719 353.812 67.4141 353.824 69.6641C353.812 71.8672 351.257 73.1094 347.027 73.1328C342.761 73.1094 340.207 71.8672 340.23 69.6641ZM342.128 69.6641C342.105 70.9531 343.921 71.7148 347.027 71.7031C350.097 71.7148 351.902 70.9531 351.925 69.6641C351.902 68.3516 350.097 67.5898 347.027 67.5781C343.921 67.5898 342.105 68.3516 342.128 69.6641ZM380.028 61.0625V69.2188H382.864V70.7891H380.028V81.8984H378.2V61.0625H380.028ZM363.762 76.8594V63.0078H365.356V68.3984H367.981V63.0078H369.551V76.8594H363.762ZM365.356 75.3125H367.981V69.875H365.356V75.3125ZM370.676 76.8594V63.0078H372.247V68.3984H374.801V63.0078H376.372V76.8594H370.676ZM372.247 75.3125H374.801V69.875H372.247V75.3125ZM402.657 72.6172V74.1406H383.579V72.6172H402.657ZM385.993 63.2656V61.7891H400.196V66.9219H387.892V69.2422H400.642V70.6953H386.063V65.5391H398.345V63.2656H385.993ZM386.11 81.4531V75.7812H387.962V79.9062H400.642V81.4531H386.11ZM416.814 66.6641C416.803 70.4727 419.393 74.293 422.463 75.6875L421.338 77.1406C418.959 75.9922 416.908 73.5195 415.912 70.5547C414.951 73.6953 412.9 76.332 410.463 77.5625L409.291 76.0156C412.396 74.5977 414.963 70.6133 414.986 66.6641V62.8672H416.814V66.6641ZM424.736 81.9453V61.0625H426.588V81.9453H424.736ZM435.577 61.8359C438.694 61.8477 440.955 63.7461 440.967 66.4531C440.955 69.1719 438.694 71.0469 435.577 71.0469C432.424 71.0469 430.151 69.1719 430.163 66.4531C430.151 63.7461 432.424 61.8477 435.577 61.8359ZM431.967 66.4531C431.944 68.2812 433.479 69.5469 435.577 69.5469C437.639 69.5469 439.186 68.2812 439.186 66.4531C439.186 64.6484 437.639 63.3711 435.577 63.3828C433.479 63.3711 431.944 64.6484 431.967 66.4531ZM433.327 74.2578V72.7812H446.873V77.7969H435.178V80.1406H447.623V81.6172H433.373V76.4141H445.045V74.2578H433.327ZM445.045 71.7734V61.0625H446.873V71.7734H445.045ZM473.265 61.0625V81.8984H471.46V71.1172H468.46V80.8203H466.726V61.5312H468.46V69.5469H471.46V61.0625H473.265ZM456.531 76.5078V63.6172H458.359V74.8672C460.421 74.8555 462.648 74.7031 465.179 74.1875L465.413 75.8281C462.507 76.3555 460.117 76.5078 457.82 76.5078H456.531ZM493.598 61.0625V81.8984H491.816V61.0625H493.598ZM475.996 70.0625C476.008 65.6328 477.765 62.832 480.473 62.8203C483.004 62.832 484.715 65.2695 484.949 69.1953H487.644V61.5078H489.402V80.8438H487.644V70.7188H484.961C484.785 74.7734 483.039 77.3164 480.473 77.3047C477.765 77.3164 476.008 74.4922 475.996 70.0625ZM477.73 70.0625C477.707 73.4375 478.785 75.5703 480.473 75.5469C482.172 75.5703 483.25 73.4375 483.238 70.0625C483.25 66.6758 482.172 64.5547 480.473 64.5547C478.785 64.5547 477.707 66.6758 477.73 70.0625ZM518.63 61.0625V81.8984H516.802V61.0625H518.63ZM501.661 76.3438C503.442 76.332 505.481 76.3203 507.591 76.25V73.9766C505.083 73.7188 503.466 72.2891 503.489 70.2031C503.466 67.8477 505.47 66.3242 508.481 66.3359C511.493 66.3242 513.532 67.8477 513.52 70.2031C513.532 72.2656 511.915 73.6953 509.442 73.9766V76.1797C511.458 76.0859 513.497 75.9453 515.419 75.6875L515.559 77.0938C510.907 77.8438 505.809 77.9141 501.942 77.9141L501.661 76.3438ZM502.106 65.1406V63.6406H507.591V61.0859H509.442V63.6406H514.88V65.1406H502.106ZM505.2 70.2031C505.188 71.6445 506.548 72.5938 508.481 72.5703C510.427 72.5938 511.774 71.6445 511.763 70.2031C511.774 68.75 510.427 67.7656 508.481 67.7656C506.548 67.7656 505.188 68.75 505.2 70.2031ZM539.009 61.0859V76.3672H537.181V61.0859H539.009ZM522.017 71.9141C525.169 70.6836 527.314 67.6367 527.314 64.3438V62.2578H529.189V64.3438C529.165 67.5195 531.333 70.3672 534.439 71.4922L533.478 72.9688C531.064 72.043 529.189 70.168 528.263 67.7656C527.361 70.3203 525.462 72.3711 523.025 73.3438L522.017 71.9141ZM525.556 81.4531V74.9609H527.384V79.9062H539.665V81.4531H525.556ZM558.896 71.0938V72.6172H544.506V63.0078H558.685V64.5312H546.334V71.0938H558.896ZM542.068 79.0625V77.5156H561.146V79.0625H542.068ZM579.533 61.0625V81.9453H577.705V61.0625H579.533ZM563.502 64.5312V63.0078H573.205V70.4141H565.424V75.3359C568.881 75.3477 571.963 75.1836 575.69 74.5859L575.877 76.1328C572.045 76.7305 568.881 76.8828 565.283 76.8828H563.549V68.9141H571.354V64.5312H563.502ZM591.827 62.6094C591.827 64.2148 591.534 65.6797 590.96 67.0156H594.335V61.5312H596.093V72.8047H594.335V68.5391H590.139C588.78 70.625 586.635 72.3008 583.764 73.5312L582.803 72.1719C587.081 70.4258 589.553 67.6602 589.928 64.1328H583.694V62.6094H591.827ZM583.835 80.4688C586.46 79.5195 588.1 77.2461 588.1 75.2422V73.8359H589.858V75.2422C589.835 77.1172 590.831 79.0625 592.8 80.1992C594.803 78.9453 595.823 76.8242 595.835 75.2422V73.8359H597.616V75.2422C597.616 77.3984 599.198 79.5898 601.882 80.4688L600.968 81.8281C598.882 81.0898 597.417 79.625 596.702 77.8672C596.069 79.5664 594.803 81.1836 592.858 82.0156C590.819 81.2188 589.553 79.6602 588.944 77.9023C588.194 79.6016 586.753 81.0664 584.772 81.8281L583.835 80.4688ZM598.53 73.1328V61.0859H600.288V73.1328H598.53ZM607.097 73.5781V76.0156H617.503V73.5781H619.355V81.6172H605.269V73.5781H607.097ZM602.855 72.1016V70.5781H621.839V72.1016H602.855ZM603.933 67.625C607.648 67.1211 611.409 64.9297 611.409 62.2812V61.2969H613.308V62.2812C613.296 64.8477 617.093 67.1562 620.761 67.625L620.081 69.1016C616.859 68.6211 613.683 66.9805 612.359 64.6484C611.034 66.9922 607.847 68.6211 604.636 69.1016L603.933 67.625ZM607.097 80.1406H617.503V77.4688H607.097V80.1406ZM640.297 61.0625V81.8984H638.468V61.0625H640.297ZM624.476 76.5312V63.125H626.281V74.9375C629.468 74.9141 632.75 74.668 636.242 73.9297L636.5 75.5C632.797 76.2734 629.504 76.5312 626.164 76.5312H624.476ZM659.504 61.0625V69.3125H662.996V70.8594H659.504V81.9453H657.676V61.0625H659.504ZM644.293 76.7188V63.1016H654.02V64.625H646.121V75.1719C649.895 75.1602 652.555 74.9961 655.66 74.4219L655.895 76.0156C652.625 76.6016 649.895 76.7188 645.934 76.7188H644.293ZM665.844 80.1406C665.024 80.1289 664.321 79.4492 664.344 78.6172C664.321 77.7969 665.024 77.1172 665.844 77.1172C666.676 77.1172 667.356 77.7969 667.344 78.6172C667.356 79.4492 666.676 80.1289 665.844 80.1406Z" fill="#1E1E1E"/>
<path d="M323.43 107.062V112.172H326.571V113.695H323.43V118.898H321.602V107.062H323.43ZM307.118 117.633C312.239 116.25 315.368 113.473 315.755 109.945H308.055V108.422H317.735C317.712 113.672 314.044 117.434 307.868 119.109L307.118 117.633ZM310.235 127.617V119.859H323.43V127.617H310.235ZM312.063 126.117H321.602V121.383H312.063V126.117ZM334.388 112.664C334.388 116.332 336.814 120.117 339.779 121.57L338.654 123.047C336.357 121.852 334.435 119.379 333.509 116.484C332.583 119.555 330.615 122.191 328.271 123.445L327.099 121.969C330.146 120.469 332.56 116.473 332.583 112.664V108.867H334.388V112.664ZM341.7 127.898V107.062H343.529V115.523H347.021V117.117H343.529V127.898H341.7ZM363.955 107.062V112.406H367.095V113.977H363.955V119.18H362.127V107.062H363.955ZM347.713 110.742V109.219H353.01V106.875H354.838V109.219H360.135V110.742H347.713ZM348.908 115.359C348.896 113.133 350.9 111.715 353.924 111.703C356.912 111.715 358.916 113.133 358.939 115.359C358.916 117.586 356.912 119.027 353.924 119.016C350.9 119.027 348.896 117.586 348.908 115.359ZM350.666 115.359C350.654 116.719 351.955 117.609 353.924 117.609C355.869 117.609 357.181 116.719 357.205 115.359C357.181 114.012 355.869 113.109 353.924 113.133C351.955 113.109 350.654 114.012 350.666 115.359ZM350.783 127.617V120.094H352.611V122.32H362.127V120.094H363.955V127.617H350.783ZM352.611 126.141H362.127V123.773H352.611V126.141ZM385.108 107.062V127.898H383.28V107.062H385.108ZM369.287 122.531V109.125H371.092V120.938C374.28 120.914 377.561 120.668 381.053 119.93L381.311 121.5C377.608 122.273 374.315 122.531 370.975 122.531H369.287ZM404.315 107.062V115.312H407.807V116.859H404.315V127.945H402.487V107.062H404.315ZM389.104 122.719V109.102H398.831V110.625H390.932V121.172C394.706 121.16 397.366 120.996 400.471 120.422L400.706 122.016C397.436 122.602 394.706 122.719 390.745 122.719H389.104ZM410.655 126.141C409.835 126.129 409.132 125.449 409.155 124.617C409.132 123.797 409.835 123.117 410.655 123.117C411.488 123.117 412.167 123.797 412.155 124.617C412.167 125.449 411.488 126.129 410.655 126.141Z" fill="#1E1E1E"/>
</svg>
