<svg width="720" height="214" viewBox="0 0 720 214" fill="none" xmlns="http://www.w3.org/2000/svg">
<rect width="720" height="214" fill="white"/>
<path d="M254.953 108C254.953 104.672 255.641 101.712 257.017 99.1198C258.425 96.4958 260.345 94.4478 262.777 92.9758C265.241 91.5038 267.993 90.7678 271.033 90.7678C274.873 90.7678 278.105 91.6638 280.729 93.4558C283.353 95.2478 285.273 97.7598 286.489 100.992H283.993C283.033 98.4318 281.433 96.4158 279.193 94.9438C276.985 93.4398 274.265 92.6878 271.033 92.6878C268.441 92.6878 266.089 93.3118 263.977 94.5598C261.865 95.7758 260.201 97.5518 258.985 99.8878C257.769 102.192 257.161 104.896 257.161 108C257.161 111.072 257.769 113.76 258.985 116.064C260.201 118.336 261.865 120.096 263.977 121.344C266.089 122.592 268.441 123.216 271.033 123.216C274.265 123.216 276.985 122.48 279.193 121.008C281.433 119.504 283.033 117.472 283.993 114.912H286.489C285.273 118.144 283.353 120.656 280.729 122.448C278.105 124.24 274.873 125.136 271.033 125.136C267.993 125.136 265.241 124.416 262.777 122.976C260.345 121.504 258.425 119.472 257.017 116.88C255.641 114.256 254.953 111.296 254.953 108ZM307.299 125.184C304.195 125.184 301.395 124.464 298.899 123.024C296.403 121.552 294.451 119.504 293.043 116.88C291.635 114.256 290.931 111.296 290.931 108C290.931 104.672 291.635 101.712 293.043 99.1198C294.451 96.4958 296.403 94.4638 298.899 93.0238C301.395 91.5518 304.195 90.8158 307.299 90.8158C310.403 90.8158 313.203 91.5518 315.699 93.0238C318.195 94.4638 320.147 96.4958 321.555 99.1198C322.963 101.712 323.667 104.672 323.667 108C323.667 111.296 322.963 114.256 321.555 116.88C320.147 119.504 318.195 121.552 315.699 123.024C313.203 124.464 310.403 125.184 307.299 125.184ZM307.299 123.264C309.955 123.264 312.355 122.64 314.499 121.392C316.643 120.144 318.323 118.368 319.539 116.064C320.787 113.76 321.411 111.072 321.411 108C321.411 104.896 320.787 102.192 319.539 99.8878C318.323 97.5838 316.643 95.8078 314.499 94.5598C312.355 93.3118 309.955 92.6878 307.299 92.6878C304.643 92.6878 302.243 93.3118 300.099 94.5598C297.955 95.8078 296.259 97.5838 295.011 99.8878C293.763 102.192 293.139 104.896 293.139 108C293.139 111.072 293.763 113.76 295.011 116.064C296.259 118.368 297.955 120.144 300.099 121.392C302.243 122.64 304.643 123.264 307.299 123.264ZM353.333 124.8H351.173L331.397 94.6558V124.8H329.237V91.1518H331.397L351.173 121.2V91.1518H353.333V124.8ZM378.916 91.1038V92.9278H369.316V124.8H367.156V92.9278H357.556V91.1038H378.916ZM402.202 116.16H386.218L383.002 124.8H380.65L393.034 91.8718H395.434L407.77 124.8H405.418L402.202 116.16ZM401.53 114.336L394.234 94.7038L386.89 114.336H401.53ZM410.888 108C410.888 104.672 411.576 101.712 412.952 99.1198C414.36 96.4958 416.28 94.4478 418.712 92.9758C421.176 91.5038 423.928 90.7678 426.968 90.7678C430.808 90.7678 434.04 91.6638 436.664 93.4558C439.288 95.2478 441.208 97.7598 442.424 100.992H439.928C438.968 98.4318 437.368 96.4158 435.128 94.9438C432.92 93.4398 430.2 92.6878 426.968 92.6878C424.376 92.6878 422.024 93.3118 419.912 94.5598C417.8 95.7758 416.136 97.5518 414.92 99.8878C413.704 102.192 413.096 104.896 413.096 108C413.096 111.072 413.704 113.76 414.92 116.064C416.136 118.336 417.8 120.096 419.912 121.344C422.024 122.592 424.376 123.216 426.968 123.216C430.2 123.216 432.92 122.48 435.128 121.008C437.368 119.504 438.968 117.472 439.928 114.912H442.424C441.208 118.144 439.288 120.656 436.664 122.448C434.04 124.24 430.808 125.136 426.968 125.136C423.928 125.136 421.176 124.416 418.712 122.976C416.28 121.504 414.36 119.472 412.952 116.88C411.576 114.256 410.888 111.296 410.888 108ZM466.833 91.1038V92.9278H457.233V124.8H455.073V92.9278H445.473V91.1038H466.833Z" fill="#404040"/>
<rect x="120" y="160.8" width="480" height="2.4" fill="url(#paint0_linear_771_184)"/>
<rect x="120" y="160.8" width="480" height="2.4" fill="white" fill-opacity="0.4"/>
<defs>
<linearGradient id="paint0_linear_771_184" x1="120" y1="160.8" x2="600" y2="160.799" gradientUnits="userSpaceOnUse">
<stop stop-color="#00F3C7"/>
<stop offset="0.29" stop-color="#42C8FF"/>
<stop offset="1" stop-color="#7737FF"/>
</linearGradient>
</defs>
</svg>
