<svg width="1920" height="361" viewBox="0 0 1920 361" fill="none" xmlns="http://www.w3.org/2000/svg">
<rect width="1920" height="361" fill="white"/>
<path d="M828.442 194C828.442 189.84 829.302 186.14 831.022 182.9C832.782 179.62 835.182 177.06 838.222 175.22C841.302 173.38 844.742 172.46 848.542 172.46C853.342 172.46 857.382 173.58 860.662 175.82C863.942 178.06 866.342 181.2 867.862 185.24H864.742C863.542 182.04 861.542 179.52 858.742 177.68C855.982 175.8 852.582 174.86 848.542 174.86C845.302 174.86 842.362 175.64 839.722 177.2C837.082 178.72 835.002 180.94 833.482 183.86C831.962 186.74 831.202 190.12 831.202 194C831.202 197.84 831.962 201.2 833.482 204.08C835.002 206.92 837.082 209.12 839.722 210.68C842.362 212.24 845.302 213.02 848.542 213.02C852.582 213.02 855.982 212.1 858.742 210.26C861.542 208.38 863.542 205.84 864.742 202.64H867.862C866.342 206.68 863.942 209.82 860.662 212.06C857.382 214.3 853.342 215.42 848.542 215.42C844.742 215.42 841.302 214.52 838.222 212.72C835.182 210.88 832.782 208.34 831.022 205.1C829.302 201.82 828.442 198.12 828.442 194ZM893.873 215.48C889.993 215.48 886.493 214.58 883.373 212.78C880.253 210.94 877.813 208.38 876.053 205.1C874.293 201.82 873.413 198.12 873.413 194C873.413 189.84 874.293 186.14 876.053 182.9C877.813 179.62 880.253 177.08 883.373 175.28C886.493 173.44 889.993 172.52 893.873 172.52C897.753 172.52 901.253 173.44 904.373 175.28C907.493 177.08 909.933 179.62 911.693 182.9C913.453 186.14 914.333 189.84 914.333 194C914.333 198.12 913.453 201.82 911.693 205.1C909.933 208.38 907.493 210.94 904.373 212.78C901.253 214.58 897.753 215.48 893.873 215.48ZM893.873 213.08C897.193 213.08 900.193 212.3 902.873 210.74C905.553 209.18 907.653 206.96 909.173 204.08C910.733 201.2 911.513 197.84 911.513 194C911.513 190.12 910.733 186.74 909.173 183.86C907.653 180.98 905.553 178.76 902.873 177.2C900.193 175.64 897.193 174.86 893.873 174.86C890.553 174.86 887.553 175.64 884.873 177.2C882.193 178.76 880.073 180.98 878.513 183.86C876.953 186.74 876.173 190.12 876.173 194C876.173 197.84 876.953 201.2 878.513 204.08C880.073 206.96 882.193 209.18 884.873 210.74C887.553 212.3 890.553 213.08 893.873 213.08ZM951.416 215H948.716L923.996 177.32V215H921.296V172.94H923.996L948.716 210.5V172.94H951.416V215ZM983.395 172.88V175.16H971.395V215H968.695V175.16H956.695V172.88H983.395ZM1012.5 204.2H992.522L988.502 215H985.562L1001.04 173.84H1004.04L1019.46 215H1016.52L1012.5 204.2ZM1011.66 201.92L1002.54 177.38L993.362 201.92H1011.66ZM1023.36 194C1023.36 189.84 1024.22 186.14 1025.94 182.9C1027.7 179.62 1030.1 177.06 1033.14 175.22C1036.22 173.38 1039.66 172.46 1043.46 172.46C1048.26 172.46 1052.3 173.58 1055.58 175.82C1058.86 178.06 1061.26 181.2 1062.78 185.24H1059.66C1058.46 182.04 1056.46 179.52 1053.66 177.68C1050.9 175.8 1047.5 174.86 1043.46 174.86C1040.22 174.86 1037.28 175.64 1034.64 177.2C1032 178.72 1029.92 180.94 1028.4 183.86C1026.88 186.74 1026.12 190.12 1026.12 194C1026.12 197.84 1026.88 201.2 1028.4 204.08C1029.92 206.92 1032 209.12 1034.64 210.68C1037.28 212.24 1040.22 213.02 1043.46 213.02C1047.5 213.02 1050.9 212.1 1053.66 210.26C1056.46 208.38 1058.46 205.84 1059.66 202.64H1062.78C1061.26 206.68 1058.86 209.82 1055.58 212.06C1052.3 214.3 1048.26 215.42 1043.46 215.42C1039.66 215.42 1036.22 214.52 1033.14 212.72C1030.1 210.88 1027.7 208.34 1025.94 205.1C1024.22 201.82 1023.36 198.12 1023.36 194ZM1093.29 172.88V175.16H1081.29V215H1078.59V175.16H1066.59V172.88H1093.29Z" fill="#404040"/>
<rect x="660" y="259" width="600" height="3" fill="url(#paint0_linear_74_185)"/>
<rect x="660" y="259" width="600" height="3" fill="white" fill-opacity="0.4"/>
<defs>
<linearGradient id="paint0_linear_74_185" x1="660" y1="259" x2="1260" y2="259" gradientUnits="userSpaceOnUse">
<stop stop-color="#00F3C7"/>
<stop offset="0.29" stop-color="#42C8FF"/>
<stop offset="1" stop-color="#7737FF"/>
</linearGradient>
</defs>
</svg>
