<svg width="1920" height="292" viewBox="0 0 1920 292" fill="none" xmlns="http://www.w3.org/2000/svg">
<rect width="1920" height="292" fill="white"/>
<path d="M676.507 135.727V137.25H668.023V141.516H666.195V137.25H657.429V135.727H676.507ZM659.867 145.453V139.453H661.718V143.906H674.374V145.453H659.867ZM659.913 133.336V126.094H674.023V133.336H659.913ZM661.718 131.859H672.195V127.547H661.718V131.859ZM684.535 126.586C687.805 126.598 690.125 128.59 690.137 131.484C690.125 134.391 687.805 136.371 684.535 136.383C681.242 136.371 678.898 134.391 678.91 131.484C678.898 128.59 681.242 126.598 684.535 126.586ZM677.832 139.781C681.676 139.793 686.984 139.758 691.59 139.078L691.73 140.438C686.961 141.328 681.84 141.352 678.09 141.352L677.832 139.781ZM680.715 131.484C680.703 133.43 682.308 134.766 684.535 134.766C686.738 134.766 688.344 133.43 688.332 131.484C688.344 129.551 686.738 128.203 684.535 128.203C682.308 128.203 680.703 129.551 680.715 131.484ZM692.973 145.945V125.062H694.801V145.945H692.973ZM708.383 128.672V130.172H697.93V128.672H702.266V125.695H704.094V128.672H708.383ZM698.68 136.312C698.68 133.547 700.567 131.59 703.157 131.578C705.782 131.59 707.657 133.547 707.68 136.312C707.657 139.113 705.782 141.082 703.157 141.094C700.567 141.082 698.68 139.113 698.68 136.312ZM700.321 136.312C700.321 138.164 701.504 139.488 703.157 139.477C704.821 139.488 706.039 138.164 706.039 136.312C706.039 134.484 704.821 133.148 703.157 133.125C701.504 133.148 700.321 134.484 700.321 136.312ZM709.461 144.867V125.578H711.196V133.852H713.961V125.062H715.719V145.898H713.961V135.375H711.196V144.867H709.461ZM728.763 128.016C728.751 130.805 732.466 133.172 736.098 133.711L735.419 135.164C732.173 134.613 728.997 132.879 727.731 130.371C726.466 132.879 723.29 134.613 720.091 135.164L719.364 133.711C722.985 133.172 726.688 130.805 726.7 128.016V127.875H720.02V126.375H735.419V127.875H728.763V128.016ZM718.239 138.469V136.945H737.223V138.469H728.598V145.898H726.794V138.469H718.239ZM755.704 125.086V140.367H753.876V125.086H755.704ZM738.712 135.914C741.865 134.684 744.009 131.637 744.009 128.344V126.258H745.884V128.344C745.861 131.52 748.029 134.367 751.134 135.492L750.173 136.969C747.759 136.043 745.884 134.168 744.958 131.766C744.056 134.32 742.158 136.371 739.72 137.344L738.712 135.914ZM742.251 145.453V138.961H744.079V143.906H756.361V145.453H742.251ZM782.096 125.062V145.898H780.291V135.117H777.291V144.82H775.557V125.531H777.291V133.547H780.291V125.062H782.096ZM765.362 140.508V127.617H767.19V138.867C769.252 138.855 771.479 138.703 774.01 138.188L774.244 139.828C771.338 140.355 768.948 140.508 766.651 140.508H765.362ZM803.553 135.375V136.898H784.569V135.375H789.28V132.434C787.616 131.789 786.678 130.734 786.678 129.328C786.678 126.879 789.491 125.473 794.061 125.461C798.596 125.473 801.409 126.879 801.421 129.328C801.409 130.723 800.483 131.777 798.843 132.434V135.375H803.553ZM786.866 142.172C786.854 139.793 789.538 138.48 794.061 138.492C798.526 138.48 801.21 139.793 801.233 142.172C801.21 144.551 798.526 145.852 794.061 145.852C789.538 145.852 786.854 144.551 786.866 142.172ZM788.577 129.328C788.565 130.852 790.651 131.73 794.061 131.742C797.436 131.73 799.534 130.852 799.546 129.328C799.534 127.828 797.436 126.914 794.061 126.914C790.651 126.914 788.565 127.828 788.577 129.328ZM788.741 142.172C788.718 143.59 790.721 144.434 794.061 144.422C797.366 144.434 799.37 143.59 799.382 142.172C799.37 140.754 797.366 139.922 794.061 139.898C790.721 139.922 788.718 140.754 788.741 142.172ZM791.108 135.375H797.014V132.926C796.135 133.09 795.151 133.172 794.061 133.172C792.971 133.172 791.987 133.09 791.108 132.938V135.375ZM823.816 136.055V137.555H804.831V136.055H823.816ZM806.941 129.938C806.941 127.324 809.8 125.789 814.323 125.812C818.8 125.789 821.671 127.324 821.683 129.938C821.671 132.527 818.8 134.086 814.323 134.086C809.8 134.086 806.941 132.527 806.941 129.938ZM807.292 145.453V139.383H809.144V143.906H821.706V145.453H807.292ZM808.839 129.938C808.827 131.59 810.96 132.586 814.323 132.586C817.663 132.586 819.796 131.59 819.808 129.938C819.796 128.309 817.663 127.289 814.323 127.289C810.96 127.289 808.827 128.309 808.839 129.938ZM846.926 125.062V130.172H850.067V131.719H846.926V136.898H845.098V125.062H846.926ZM831.621 135.656V126.492H840.856V127.992H833.449V134.133C837.633 134.156 840.012 133.992 842.801 133.453L843.035 134.953C840.106 135.551 837.621 135.668 833.238 135.656H831.621ZM833.778 145.617V137.977H846.926V145.617H833.778ZM835.582 144.117H845.098V139.477H835.582V144.117ZM867.212 125.062V130.5H870.329V132.047H867.212V137.508H865.36V125.062H867.212ZM851.86 135.797V126.656H861.118V128.18H853.665V134.297C857.883 134.273 860.309 134.145 863.11 133.57L863.298 135.094C860.38 135.68 857.883 135.797 853.477 135.797H851.86ZM853.594 141.867C853.606 139.371 856.255 137.918 860.508 137.906C864.762 137.918 867.376 139.371 867.376 141.867C867.376 144.398 864.762 145.852 860.508 145.852C856.255 145.852 853.606 144.398 853.594 141.867ZM855.399 141.867C855.411 143.414 857.368 144.363 860.508 144.375C863.626 144.363 865.606 143.414 865.594 141.867C865.606 140.332 863.626 139.406 860.508 139.43C857.368 139.406 855.411 140.332 855.399 141.867ZM878.216 131.461C878.193 134.801 880.607 138.48 883.63 139.922L882.575 141.375C880.232 140.227 878.251 137.766 877.314 134.941C876.353 138 874.267 140.695 871.935 141.891L870.81 140.438C873.81 138.973 876.388 135.012 876.411 131.461V128.742H871.56V127.219H882.903V128.742H878.216V131.461ZM885.458 145.898V125.062H887.286V133.5H890.778V135.07H887.286V145.898H885.458ZM913.233 125.086V131.391H916.35V132.938H913.233V139.055H911.381V125.086H913.233ZM896.873 136.922C898.537 136.922 900.483 136.922 902.522 136.863V135.328C900.096 135.105 898.526 133.992 898.537 132.258C898.526 130.359 900.483 129.188 903.412 129.188C906.365 129.188 908.287 130.359 908.311 132.258C908.287 133.98 906.764 135.094 904.35 135.328V136.793C906.295 136.699 908.264 136.535 910.092 136.266L910.256 137.602C905.733 138.398 900.752 138.434 897.084 138.422L896.873 136.922ZM897.389 128.391V126.984H902.522V124.898H904.35V126.984H909.459V128.391H897.389ZM899.428 141.562V140.086H913.233V145.898H911.381V141.562H899.428ZM900.295 132.258C900.283 133.348 901.49 134.086 903.412 134.062C905.334 134.086 906.553 133.348 906.553 132.258C906.553 131.156 905.334 130.477 903.412 130.5C901.49 130.477 900.283 131.156 900.295 132.258ZM934.432 125.086V140.32H932.604V125.086H934.432ZM917.721 131.648C917.71 128.648 920.065 126.551 923.182 126.539C926.299 126.551 928.631 128.648 928.643 131.648C928.631 134.684 926.299 136.793 923.182 136.781C920.065 136.793 917.71 134.684 917.721 131.648ZM919.526 131.648C919.503 133.723 921.073 135.164 923.182 135.164C925.256 135.164 926.838 133.723 926.838 131.648C926.838 129.609 925.256 128.156 923.182 128.156C921.073 128.156 919.503 129.609 919.526 131.648ZM920.979 145.453V138.773H922.807V143.906H935.088V145.453H920.979ZM960.917 127.453V128.977H944.019V127.453H951.613V124.945H953.417V127.453H960.917ZM943.035 140.086V138.562H962.113V140.086H953.417V145.945H951.613V140.086H943.035ZM945.73 133.664C945.707 131.414 948.261 130.172 952.527 130.172C956.757 130.172 959.312 131.414 959.324 133.664C959.312 135.867 956.757 137.109 952.527 137.133C948.261 137.109 945.707 135.867 945.73 133.664ZM947.628 133.664C947.605 134.953 949.421 135.715 952.527 135.703C955.597 135.715 957.402 134.953 957.425 133.664C957.402 132.352 955.597 131.59 952.527 131.578C949.421 131.59 947.605 132.352 947.628 133.664ZM985.528 125.062V133.219H988.364V134.789H985.528V145.898H983.7V125.062H985.528ZM969.262 140.859V127.008H970.856V132.398H973.481V127.008H975.051V140.859H969.262ZM970.856 139.312H973.481V133.875H970.856V139.312ZM976.176 140.859V127.008H977.747V132.398H980.301V127.008H981.872V140.859H976.176ZM977.747 139.312H980.301V133.875H977.747V139.312ZM1008.16 136.617V138.141H989.079V136.617H1008.16ZM991.493 127.266V125.789H1005.7V130.922H993.392V133.242H1006.14V134.695H991.563V129.539H1003.84V127.266H991.493ZM991.61 145.453V139.781H993.462V143.906H1006.14V145.453H991.61ZM1022.31 130.664C1022.3 134.473 1024.89 138.293 1027.96 139.688L1026.84 141.141C1024.46 139.992 1022.41 137.52 1021.41 134.555C1020.45 137.695 1018.4 140.332 1015.96 141.562L1014.79 140.016C1017.9 138.598 1020.46 134.613 1020.49 130.664V126.867H1022.31V130.664ZM1030.24 145.945V125.062H1032.09V145.945H1030.24ZM1041.08 125.836C1044.19 125.848 1046.46 127.746 1046.47 130.453C1046.46 133.172 1044.19 135.047 1041.08 135.047C1037.92 135.047 1035.65 133.172 1035.66 130.453C1035.65 127.746 1037.92 125.848 1041.08 125.836ZM1037.47 130.453C1037.44 132.281 1038.98 133.547 1041.08 133.547C1043.14 133.547 1044.69 132.281 1044.69 130.453C1044.69 128.648 1043.14 127.371 1041.08 127.383C1038.98 127.371 1037.44 128.648 1037.47 130.453ZM1038.83 138.258V136.781H1052.37V141.797H1040.68V144.141H1053.12V145.617H1038.87V140.414H1050.55V138.258H1038.83ZM1050.55 135.773V125.062H1052.37V135.773H1050.55ZM1078.77 125.062V145.898H1076.96V135.117H1073.96V144.82H1072.23V125.531H1073.96V133.547H1076.96V125.062H1078.77ZM1062.03 140.508V127.617H1063.86V138.867C1065.92 138.855 1068.15 138.703 1070.68 138.188L1070.91 139.828C1068.01 140.355 1065.62 140.508 1063.32 140.508H1062.03ZM1099.1 125.062V145.898H1097.32V125.062H1099.1ZM1081.5 134.062C1081.51 129.633 1083.27 126.832 1085.97 126.82C1088.5 126.832 1090.21 129.27 1090.45 133.195H1093.14V125.508H1094.9V144.844H1093.14V134.719H1090.46C1090.29 138.773 1088.54 141.316 1085.97 141.305C1083.27 141.316 1081.51 138.492 1081.5 134.062ZM1083.23 134.062C1083.21 137.438 1084.29 139.57 1085.97 139.547C1087.67 139.57 1088.75 137.438 1088.74 134.062C1088.75 130.676 1087.67 128.555 1085.97 128.555C1084.29 128.555 1083.21 130.676 1083.23 134.062ZM1124.13 125.062V145.898H1122.3V125.062H1124.13ZM1107.16 140.344C1108.94 140.332 1110.98 140.32 1113.09 140.25V137.977C1110.58 137.719 1108.97 136.289 1108.99 134.203C1108.97 131.848 1110.97 130.324 1113.98 130.336C1116.99 130.324 1119.03 131.848 1119.02 134.203C1119.03 136.266 1117.41 137.695 1114.94 137.977V140.18C1116.96 140.086 1119 139.945 1120.92 139.688L1121.06 141.094C1116.41 141.844 1111.31 141.914 1107.44 141.914L1107.16 140.344ZM1107.61 129.141V127.641H1113.09V125.086H1114.94V127.641H1120.38V129.141H1107.61ZM1110.7 134.203C1110.69 135.645 1112.05 136.594 1113.98 136.57C1115.93 136.594 1117.27 135.645 1117.26 134.203C1117.27 132.75 1115.93 131.766 1113.98 131.766C1112.05 131.766 1110.69 132.75 1110.7 134.203ZM1144.51 125.086V140.367H1142.68V125.086H1144.51ZM1127.52 135.914C1130.67 134.684 1132.81 131.637 1132.81 128.344V126.258H1134.69V128.344C1134.67 131.52 1136.83 134.367 1139.94 135.492L1138.98 136.969C1136.56 136.043 1134.69 134.168 1133.76 131.766C1132.86 134.32 1130.96 136.371 1128.52 137.344L1127.52 135.914ZM1131.06 145.453V138.961H1132.88V143.906H1145.17V145.453H1131.06ZM1164.4 135.094V136.617H1150.01V127.008H1164.19V128.531H1151.83V135.094H1164.4ZM1147.57 143.062V141.516H1166.65V143.062H1147.57ZM1185.03 125.062V145.945H1183.21V125.062H1185.03ZM1169 128.531V127.008H1178.71V134.414H1170.92V139.336C1174.38 139.348 1177.46 139.184 1181.19 138.586L1181.38 140.133C1177.55 140.73 1174.38 140.883 1170.78 140.883H1169.05V132.914H1176.85V128.531H1169ZM1197.33 126.609C1197.33 128.215 1197.03 129.68 1196.46 131.016H1199.83V125.531H1201.59V136.805H1199.83V132.539H1195.64C1194.28 134.625 1192.14 136.301 1189.26 137.531L1188.3 136.172C1192.58 134.426 1195.05 131.66 1195.43 128.133H1189.19V126.609H1197.33ZM1189.33 144.469C1191.96 143.52 1193.6 141.246 1193.6 139.242V137.836H1195.36V139.242C1195.33 141.117 1196.33 143.062 1198.3 144.199C1200.3 142.945 1201.32 140.824 1201.33 139.242V137.836H1203.12V139.242C1203.12 141.398 1204.7 143.59 1207.38 144.469L1206.47 145.828C1204.38 145.09 1202.92 143.625 1202.2 141.867C1201.57 143.566 1200.3 145.184 1198.36 146.016C1196.32 145.219 1195.05 143.66 1194.44 141.902C1193.69 143.602 1192.25 145.066 1190.27 145.828L1189.33 144.469ZM1204.03 137.133V125.086H1205.79V137.133H1204.03ZM1212.6 137.578V140.016H1223V137.578H1224.85V145.617H1210.77V137.578H1212.6ZM1208.35 136.102V134.578H1227.34V136.102H1208.35ZM1209.43 131.625C1213.15 131.121 1216.91 128.93 1216.91 126.281V125.297H1218.81V126.281C1218.8 128.848 1222.59 131.156 1226.26 131.625L1225.58 133.102C1222.36 132.621 1219.18 130.98 1217.86 128.648C1216.53 130.992 1213.35 132.621 1210.14 133.102L1209.43 131.625ZM1212.6 144.141H1223V141.469H1212.6V144.141ZM1245.8 125.062V145.898H1243.97V125.062H1245.8ZM1229.98 140.531V127.125H1231.78V138.938C1234.97 138.914 1238.25 138.668 1241.74 137.93L1242 139.5C1238.3 140.273 1235 140.531 1231.66 140.531H1229.98ZM1265 125.062V133.312H1268.5V134.859H1265V145.945H1263.18V125.062H1265ZM1249.79 140.719V127.102H1259.52V128.625H1251.62V139.172C1255.39 139.16 1258.05 138.996 1261.16 138.422L1261.39 140.016C1258.13 140.602 1255.39 140.719 1251.43 140.719H1249.79ZM1271.34 144.141C1270.52 144.129 1269.82 143.449 1269.84 142.617C1269.82 141.797 1270.52 141.117 1271.34 141.117C1272.18 141.117 1272.86 141.797 1272.84 142.617C1272.86 143.449 1272.18 144.129 1271.34 144.141Z" fill="#1E1E1E"/>
<path d="M928.93 171.062V176.172H932.071V177.695H928.93V182.898H927.102V171.062H928.93ZM912.618 181.633C917.739 180.25 920.868 177.473 921.255 173.945H913.555V172.422H923.235C923.212 177.672 919.544 181.434 913.368 183.109L912.618 181.633ZM915.735 191.617V183.859H928.93V191.617H915.735ZM917.563 190.117H927.102V185.383H917.563V190.117ZM939.888 176.664C939.888 180.332 942.314 184.117 945.279 185.57L944.154 187.047C941.857 185.852 939.935 183.379 939.009 180.484C938.083 183.555 936.115 186.191 933.771 187.445L932.599 185.969C935.646 184.469 938.06 180.473 938.083 176.664V172.867H939.888V176.664ZM947.2 191.898V171.062H949.029V179.523H952.521V181.117H949.029V191.898H947.2ZM969.455 171.062V176.406H972.595V177.977H969.455V183.18H967.627V171.062H969.455ZM953.213 174.742V173.219H958.51V170.875H960.338V173.219H965.635V174.742H953.213ZM954.408 179.359C954.396 177.133 956.4 175.715 959.424 175.703C962.412 175.715 964.416 177.133 964.439 179.359C964.416 181.586 962.412 183.027 959.424 183.016C956.4 183.027 954.396 181.586 954.408 179.359ZM956.166 179.359C956.154 180.719 957.455 181.609 959.424 181.609C961.369 181.609 962.681 180.719 962.705 179.359C962.681 178.012 961.369 177.109 959.424 177.133C957.455 177.109 956.154 178.012 956.166 179.359ZM956.283 191.617V184.094H958.111V186.32H967.627V184.094H969.455V191.617H956.283ZM958.111 190.141H967.627V187.773H958.111V190.141ZM990.608 171.062V191.898H988.78V171.062H990.608ZM974.787 186.531V173.125H976.592V184.938C979.78 184.914 983.061 184.668 986.553 183.93L986.811 185.5C983.108 186.273 979.815 186.531 976.475 186.531H974.787ZM1009.82 171.062V179.312H1013.31V180.859H1009.82V191.945H1007.99V171.062H1009.82ZM994.604 186.719V173.102H1004.33V174.625H996.432V185.172C1000.21 185.16 1002.87 184.996 1005.97 184.422L1006.21 186.016C1002.94 186.602 1000.21 186.719 996.245 186.719H994.604ZM1016.16 190.141C1015.34 190.129 1014.63 189.449 1014.66 188.617C1014.63 187.797 1015.34 187.117 1016.16 187.117C1016.99 187.117 1017.67 187.797 1017.66 188.617C1017.67 189.449 1016.99 190.129 1016.16 190.141Z" fill="#1E1E1E"/>
</svg>
