<svg width="1920" height="1035" viewBox="0 0 1920 1035" fill="none" xmlns="http://www.w3.org/2000/svg">
<rect width="1920" height="1035" fill="white"/>
<path d="M828.442 194C828.442 189.84 829.302 186.14 831.022 182.9C832.782 179.62 835.182 177.06 838.222 175.22C841.302 173.38 844.742 172.46 848.542 172.46C853.342 172.46 857.382 173.58 860.662 175.82C863.942 178.06 866.342 181.2 867.862 185.24H864.742C863.542 182.04 861.542 179.52 858.742 177.68C855.982 175.8 852.582 174.86 848.542 174.86C845.302 174.86 842.362 175.64 839.722 177.2C837.082 178.72 835.002 180.94 833.482 183.86C831.962 186.74 831.202 190.12 831.202 194C831.202 197.84 831.962 201.2 833.482 204.08C835.002 206.92 837.082 209.12 839.722 210.68C842.362 212.24 845.302 213.02 848.542 213.02C852.582 213.02 855.982 212.1 858.742 210.26C861.542 208.38 863.542 205.84 864.742 202.64H867.862C866.342 206.68 863.942 209.82 860.662 212.06C857.382 214.3 853.342 215.42 848.542 215.42C844.742 215.42 841.302 214.52 838.222 212.72C835.182 210.88 832.782 208.34 831.022 205.1C829.302 201.82 828.442 198.12 828.442 194ZM893.873 215.48C889.993 215.48 886.493 214.58 883.373 212.78C880.253 210.94 877.813 208.38 876.053 205.1C874.293 201.82 873.413 198.12 873.413 194C873.413 189.84 874.293 186.14 876.053 182.9C877.813 179.62 880.253 177.08 883.373 175.28C886.493 173.44 889.993 172.52 893.873 172.52C897.753 172.52 901.253 173.44 904.373 175.28C907.493 177.08 909.933 179.62 911.693 182.9C913.453 186.14 914.333 189.84 914.333 194C914.333 198.12 913.453 201.82 911.693 205.1C909.933 208.38 907.493 210.94 904.373 212.78C901.253 214.58 897.753 215.48 893.873 215.48ZM893.873 213.08C897.193 213.08 900.193 212.3 902.873 210.74C905.553 209.18 907.653 206.96 909.173 204.08C910.733 201.2 911.513 197.84 911.513 194C911.513 190.12 910.733 186.74 909.173 183.86C907.653 180.98 905.553 178.76 902.873 177.2C900.193 175.64 897.193 174.86 893.873 174.86C890.553 174.86 887.553 175.64 884.873 177.2C882.193 178.76 880.073 180.98 878.513 183.86C876.953 186.74 876.173 190.12 876.173 194C876.173 197.84 876.953 201.2 878.513 204.08C880.073 206.96 882.193 209.18 884.873 210.74C887.553 212.3 890.553 213.08 893.873 213.08ZM951.416 215H948.716L923.996 177.32V215H921.296V172.94H923.996L948.716 210.5V172.94H951.416V215ZM983.395 172.88V175.16H971.395V215H968.695V175.16H956.695V172.88H983.395ZM1012.5 204.2H992.522L988.502 215H985.562L1001.04 173.84H1004.04L1019.46 215H1016.52L1012.5 204.2ZM1011.66 201.92L1002.54 177.38L993.362 201.92H1011.66ZM1023.36 194C1023.36 189.84 1024.22 186.14 1025.94 182.9C1027.7 179.62 1030.1 177.06 1033.14 175.22C1036.22 173.38 1039.66 172.46 1043.46 172.46C1048.26 172.46 1052.3 173.58 1055.58 175.82C1058.86 178.06 1061.26 181.2 1062.78 185.24H1059.66C1058.46 182.04 1056.46 179.52 1053.66 177.68C1050.9 175.8 1047.5 174.86 1043.46 174.86C1040.22 174.86 1037.28 175.64 1034.64 177.2C1032 178.72 1029.92 180.94 1028.4 183.86C1026.88 186.74 1026.12 190.12 1026.12 194C1026.12 197.84 1026.88 201.2 1028.4 204.08C1029.92 206.92 1032 209.12 1034.64 210.68C1037.28 212.24 1040.22 213.02 1043.46 213.02C1047.5 213.02 1050.9 212.1 1053.66 210.26C1056.46 208.38 1058.46 205.84 1059.66 202.64H1062.78C1061.26 206.68 1058.86 209.82 1055.58 212.06C1052.3 214.3 1048.26 215.42 1043.46 215.42C1039.66 215.42 1036.22 214.52 1033.14 212.72C1030.1 210.88 1027.7 208.34 1025.94 205.1C1024.22 201.82 1023.36 198.12 1023.36 194ZM1093.29 172.88V175.16H1081.29V215H1078.59V175.16H1066.59V172.88H1093.29Z" fill="#404040"/>
<rect x="660" y="259" width="600" height="3" fill="url(#paint0_linear_73_167)"/>
<rect x="660" y="259" width="600" height="3" fill="white" fill-opacity="0.4"/>
<path d="M671.507 849.727V851.25H663.023V855.516H661.195V851.25H652.429V849.727H671.507ZM654.867 859.453V853.453H656.718V857.906H669.374V859.453H654.867ZM654.913 847.336V840.094H669.023V847.336H654.913ZM656.718 845.859H667.195V841.547H656.718V845.859ZM679.535 840.586C682.805 840.598 685.125 842.59 685.137 845.484C685.125 848.391 682.805 850.371 679.535 850.383C676.242 850.371 673.898 848.391 673.91 845.484C673.898 842.59 676.242 840.598 679.535 840.586ZM672.832 853.781C676.676 853.793 681.984 853.758 686.59 853.078L686.73 854.438C681.961 855.328 676.84 855.352 673.09 855.352L672.832 853.781ZM675.715 845.484C675.703 847.43 677.308 848.766 679.535 848.766C681.738 848.766 683.344 847.43 683.332 845.484C683.344 843.551 681.738 842.203 679.535 842.203C677.308 842.203 675.703 843.551 675.715 845.484ZM687.973 859.945V839.062H689.801V859.945H687.973ZM703.383 842.672V844.172H692.93V842.672H697.266V839.695H699.094V842.672H703.383ZM693.68 850.312C693.68 847.547 695.567 845.59 698.157 845.578C700.782 845.59 702.657 847.547 702.68 850.312C702.657 853.113 700.782 855.082 698.157 855.094C695.567 855.082 693.68 853.113 693.68 850.312ZM695.321 850.312C695.321 852.164 696.504 853.488 698.157 853.477C699.821 853.488 701.039 852.164 701.039 850.312C701.039 848.484 699.821 847.148 698.157 847.125C696.504 847.148 695.321 848.484 695.321 850.312ZM704.461 858.867V839.578H706.196V847.852H708.961V839.062H710.719V859.898H708.961V849.375H706.196V858.867H704.461ZM723.763 842.016C723.751 844.805 727.466 847.172 731.098 847.711L730.419 849.164C727.173 848.613 723.997 846.879 722.731 844.371C721.466 846.879 718.29 848.613 715.091 849.164L714.364 847.711C717.985 847.172 721.688 844.805 721.7 842.016V841.875H715.02V840.375H730.419V841.875H723.763V842.016ZM713.239 852.469V850.945H732.223V852.469H723.598V859.898H721.794V852.469H713.239ZM750.704 839.086V854.367H748.876V839.086H750.704ZM733.712 849.914C736.865 848.684 739.009 845.637 739.009 842.344V840.258H740.884V842.344C740.861 845.52 743.029 848.367 746.134 849.492L745.173 850.969C742.759 850.043 740.884 848.168 739.958 845.766C739.056 848.32 737.158 850.371 734.72 851.344L733.712 849.914ZM737.251 859.453V852.961H739.079V857.906H751.361V859.453H737.251ZM777.096 839.062V859.898H775.291V849.117H772.291V858.82H770.557V839.531H772.291V847.547H775.291V839.062H777.096ZM760.362 854.508V841.617H762.19V852.867C764.252 852.855 766.479 852.703 769.01 852.188L769.244 853.828C766.338 854.355 763.948 854.508 761.651 854.508H760.362ZM798.553 849.375V850.898H779.569V849.375H784.28V846.434C782.616 845.789 781.678 844.734 781.678 843.328C781.678 840.879 784.491 839.473 789.061 839.461C793.596 839.473 796.409 840.879 796.421 843.328C796.409 844.723 795.483 845.777 793.843 846.434V849.375H798.553ZM781.866 856.172C781.854 853.793 784.538 852.48 789.061 852.492C793.526 852.48 796.21 853.793 796.233 856.172C796.21 858.551 793.526 859.852 789.061 859.852C784.538 859.852 781.854 858.551 781.866 856.172ZM783.577 843.328C783.565 844.852 785.651 845.73 789.061 845.742C792.436 845.73 794.534 844.852 794.546 843.328C794.534 841.828 792.436 840.914 789.061 840.914C785.651 840.914 783.565 841.828 783.577 843.328ZM783.741 856.172C783.718 857.59 785.721 858.434 789.061 858.422C792.366 858.434 794.37 857.59 794.382 856.172C794.37 854.754 792.366 853.922 789.061 853.898C785.721 853.922 783.718 854.754 783.741 856.172ZM786.108 849.375H792.014V846.926C791.135 847.09 790.151 847.172 789.061 847.172C787.971 847.172 786.987 847.09 786.108 846.938V849.375ZM818.816 850.055V851.555H799.831V850.055H818.816ZM801.941 843.938C801.941 841.324 804.8 839.789 809.323 839.812C813.8 839.789 816.671 841.324 816.683 843.938C816.671 846.527 813.8 848.086 809.323 848.086C804.8 848.086 801.941 846.527 801.941 843.938ZM802.292 859.453V853.383H804.144V857.906H816.706V859.453H802.292ZM803.839 843.938C803.827 845.59 805.96 846.586 809.323 846.586C812.663 846.586 814.796 845.59 814.808 843.938C814.796 842.309 812.663 841.289 809.323 841.289C805.96 841.289 803.827 842.309 803.839 843.938ZM841.926 839.062V844.172H845.067V845.719H841.926V850.898H840.098V839.062H841.926ZM826.621 849.656V840.492H835.856V841.992H828.449V848.133C832.633 848.156 835.012 847.992 837.801 847.453L838.035 848.953C835.106 849.551 832.621 849.668 828.238 849.656H826.621ZM828.778 859.617V851.977H841.926V859.617H828.778ZM830.582 858.117H840.098V853.477H830.582V858.117ZM862.212 839.062V844.5H865.329V846.047H862.212V851.508H860.36V839.062H862.212ZM846.86 849.797V840.656H856.118V842.18H848.665V848.297C852.883 848.273 855.309 848.145 858.11 847.57L858.298 849.094C855.38 849.68 852.883 849.797 848.477 849.797H846.86ZM848.594 855.867C848.606 853.371 851.255 851.918 855.508 851.906C859.762 851.918 862.376 853.371 862.376 855.867C862.376 858.398 859.762 859.852 855.508 859.852C851.255 859.852 848.606 858.398 848.594 855.867ZM850.399 855.867C850.411 857.414 852.368 858.363 855.508 858.375C858.626 858.363 860.606 857.414 860.594 855.867C860.606 854.332 858.626 853.406 855.508 853.43C852.368 853.406 850.411 854.332 850.399 855.867ZM873.216 845.461C873.193 848.801 875.607 852.48 878.63 853.922L877.575 855.375C875.232 854.227 873.251 851.766 872.314 848.941C871.353 852 869.267 854.695 866.935 855.891L865.81 854.438C868.81 852.973 871.388 849.012 871.411 845.461V842.742H866.56V841.219H877.903V842.742H873.216V845.461ZM880.458 859.898V839.062H882.286V847.5H885.778V849.07H882.286V859.898H880.458ZM908.233 839.086V845.391H911.35V846.938H908.233V853.055H906.381V839.086H908.233ZM891.873 850.922C893.537 850.922 895.483 850.922 897.522 850.863V849.328C895.096 849.105 893.526 847.992 893.537 846.258C893.526 844.359 895.483 843.188 898.412 843.188C901.365 843.188 903.287 844.359 903.311 846.258C903.287 847.98 901.764 849.094 899.35 849.328V850.793C901.295 850.699 903.264 850.535 905.092 850.266L905.256 851.602C900.733 852.398 895.752 852.434 892.084 852.422L891.873 850.922ZM892.389 842.391V840.984H897.522V838.898H899.35V840.984H904.459V842.391H892.389ZM894.428 855.562V854.086H908.233V859.898H906.381V855.562H894.428ZM895.295 846.258C895.283 847.348 896.49 848.086 898.412 848.062C900.334 848.086 901.553 847.348 901.553 846.258C901.553 845.156 900.334 844.477 898.412 844.5C896.49 844.477 895.283 845.156 895.295 846.258ZM929.432 839.086V854.32H927.604V839.086H929.432ZM912.721 845.648C912.71 842.648 915.065 840.551 918.182 840.539C921.299 840.551 923.631 842.648 923.643 845.648C923.631 848.684 921.299 850.793 918.182 850.781C915.065 850.793 912.71 848.684 912.721 845.648ZM914.526 845.648C914.503 847.723 916.073 849.164 918.182 849.164C920.256 849.164 921.838 847.723 921.838 845.648C921.838 843.609 920.256 842.156 918.182 842.156C916.073 842.156 914.503 843.609 914.526 845.648ZM915.979 859.453V852.773H917.807V857.906H930.088V859.453H915.979ZM955.917 841.453V842.977H939.019V841.453H946.613V838.945H948.417V841.453H955.917ZM938.035 854.086V852.562H957.113V854.086H948.417V859.945H946.613V854.086H938.035ZM940.73 847.664C940.707 845.414 943.261 844.172 947.527 844.172C951.757 844.172 954.312 845.414 954.324 847.664C954.312 849.867 951.757 851.109 947.527 851.133C943.261 851.109 940.707 849.867 940.73 847.664ZM942.628 847.664C942.605 848.953 944.421 849.715 947.527 849.703C950.597 849.715 952.402 848.953 952.425 847.664C952.402 846.352 950.597 845.59 947.527 845.578C944.421 845.59 942.605 846.352 942.628 847.664ZM980.528 839.062V847.219H983.364V848.789H980.528V859.898H978.7V839.062H980.528ZM964.262 854.859V841.008H965.856V846.398H968.481V841.008H970.051V854.859H964.262ZM965.856 853.312H968.481V847.875H965.856V853.312ZM971.176 854.859V841.008H972.747V846.398H975.301V841.008H976.872V854.859H971.176ZM972.747 853.312H975.301V847.875H972.747V853.312ZM1003.16 850.617V852.141H984.079V850.617H1003.16ZM986.493 841.266V839.789H1000.7V844.922H988.392V847.242H1001.14V848.695H986.563V843.539H998.845V841.266H986.493ZM986.61 859.453V853.781H988.462V857.906H1001.14V859.453H986.61ZM1017.31 844.664C1017.3 848.473 1019.89 852.293 1022.96 853.688L1021.84 855.141C1019.46 853.992 1017.41 851.52 1016.41 848.555C1015.45 851.695 1013.4 854.332 1010.96 855.562L1009.79 854.016C1012.9 852.598 1015.46 848.613 1015.49 844.664V840.867H1017.31V844.664ZM1025.24 859.945V839.062H1027.09V859.945H1025.24ZM1036.08 839.836C1039.19 839.848 1041.46 841.746 1041.47 844.453C1041.46 847.172 1039.19 849.047 1036.08 849.047C1032.92 849.047 1030.65 847.172 1030.66 844.453C1030.65 841.746 1032.92 839.848 1036.08 839.836ZM1032.47 844.453C1032.44 846.281 1033.98 847.547 1036.08 847.547C1038.14 847.547 1039.69 846.281 1039.69 844.453C1039.69 842.648 1038.14 841.371 1036.08 841.383C1033.98 841.371 1032.44 842.648 1032.47 844.453ZM1033.83 852.258V850.781H1047.37V855.797H1035.68V858.141H1048.12V859.617H1033.87V854.414H1045.55V852.258H1033.83ZM1045.55 849.773V839.062H1047.37V849.773H1045.55ZM1073.77 839.062V859.898H1071.96V849.117H1068.96V858.82H1067.23V839.531H1068.96V847.547H1071.96V839.062H1073.77ZM1057.03 854.508V841.617H1058.86V852.867C1060.92 852.855 1063.15 852.703 1065.68 852.188L1065.91 853.828C1063.01 854.355 1060.62 854.508 1058.32 854.508H1057.03ZM1094.1 839.062V859.898H1092.32V839.062H1094.1ZM1076.5 848.062C1076.51 843.633 1078.27 840.832 1080.97 840.82C1083.5 840.832 1085.21 843.27 1085.45 847.195H1088.14V839.508H1089.9V858.844H1088.14V848.719H1085.46C1085.29 852.773 1083.54 855.316 1080.97 855.305C1078.27 855.316 1076.51 852.492 1076.5 848.062ZM1078.23 848.062C1078.21 851.438 1079.29 853.57 1080.97 853.547C1082.67 853.57 1083.75 851.438 1083.74 848.062C1083.75 844.676 1082.67 842.555 1080.97 842.555C1079.29 842.555 1078.21 844.676 1078.23 848.062ZM1119.13 839.062V859.898H1117.3V839.062H1119.13ZM1102.16 854.344C1103.94 854.332 1105.98 854.32 1108.09 854.25V851.977C1105.58 851.719 1103.97 850.289 1103.99 848.203C1103.97 845.848 1105.97 844.324 1108.98 844.336C1111.99 844.324 1114.03 845.848 1114.02 848.203C1114.03 850.266 1112.41 851.695 1109.94 851.977V854.18C1111.96 854.086 1114 853.945 1115.92 853.688L1116.06 855.094C1111.41 855.844 1106.31 855.914 1102.44 855.914L1102.16 854.344ZM1102.61 843.141V841.641H1108.09V839.086H1109.94V841.641H1115.38V843.141H1102.61ZM1105.7 848.203C1105.69 849.645 1107.05 850.594 1108.98 850.57C1110.93 850.594 1112.27 849.645 1112.26 848.203C1112.27 846.75 1110.93 845.766 1108.98 845.766C1107.05 845.766 1105.69 846.75 1105.7 848.203ZM1139.51 839.086V854.367H1137.68V839.086H1139.51ZM1122.52 849.914C1125.67 848.684 1127.81 845.637 1127.81 842.344V840.258H1129.69V842.344C1129.67 845.52 1131.83 848.367 1134.94 849.492L1133.98 850.969C1131.56 850.043 1129.69 848.168 1128.76 845.766C1127.86 848.32 1125.96 850.371 1123.52 851.344L1122.52 849.914ZM1126.06 859.453V852.961H1127.88V857.906H1140.17V859.453H1126.06ZM1159.4 849.094V850.617H1145.01V841.008H1159.19V842.531H1146.83V849.094H1159.4ZM1142.57 857.062V855.516H1161.65V857.062H1142.57ZM1180.03 839.062V859.945H1178.21V839.062H1180.03ZM1164 842.531V841.008H1173.71V848.414H1165.92V853.336C1169.38 853.348 1172.46 853.184 1176.19 852.586L1176.38 854.133C1172.55 854.73 1169.38 854.883 1165.78 854.883H1164.05V846.914H1171.85V842.531H1164ZM1192.33 840.609C1192.33 842.215 1192.03 843.68 1191.46 845.016H1194.83V839.531H1196.59V850.805H1194.83V846.539H1190.64C1189.28 848.625 1187.14 850.301 1184.26 851.531L1183.3 850.172C1187.58 848.426 1190.05 845.66 1190.43 842.133H1184.19V840.609H1192.33ZM1184.33 858.469C1186.96 857.52 1188.6 855.246 1188.6 853.242V851.836H1190.36V853.242C1190.33 855.117 1191.33 857.062 1193.3 858.199C1195.3 856.945 1196.32 854.824 1196.33 853.242V851.836H1198.12V853.242C1198.12 855.398 1199.7 857.59 1202.38 858.469L1201.47 859.828C1199.38 859.09 1197.92 857.625 1197.2 855.867C1196.57 857.566 1195.3 859.184 1193.36 860.016C1191.32 859.219 1190.05 857.66 1189.44 855.902C1188.69 857.602 1187.25 859.066 1185.27 859.828L1184.33 858.469ZM1199.03 851.133V839.086H1200.79V851.133H1199.03ZM1207.6 851.578V854.016H1218V851.578H1219.85V859.617H1205.77V851.578H1207.6ZM1203.35 850.102V848.578H1222.34V850.102H1203.35ZM1204.43 845.625C1208.15 845.121 1211.91 842.93 1211.91 840.281V839.297H1213.81V840.281C1213.8 842.848 1217.59 845.156 1221.26 845.625L1220.58 847.102C1217.36 846.621 1214.18 844.98 1212.86 842.648C1211.53 844.992 1208.35 846.621 1205.14 847.102L1204.43 845.625ZM1207.6 858.141H1218V855.469H1207.6V858.141ZM1240.8 839.062V859.898H1238.97V839.062H1240.8ZM1224.98 854.531V841.125H1226.78V852.938C1229.97 852.914 1233.25 852.668 1236.74 851.93L1237 853.5C1233.3 854.273 1230 854.531 1226.66 854.531H1224.98ZM1260 839.062V847.312H1263.5V848.859H1260V859.945H1258.18V839.062H1260ZM1244.79 854.719V841.102H1254.52V842.625H1246.62V853.172C1250.39 853.16 1253.05 852.996 1256.16 852.422L1256.39 854.016C1253.13 854.602 1250.39 854.719 1246.43 854.719H1244.79ZM1266.34 858.141C1265.52 858.129 1264.82 857.449 1264.84 856.617C1264.82 855.797 1265.52 855.117 1266.34 855.117C1267.18 855.117 1267.86 855.797 1267.84 856.617C1267.86 857.449 1267.18 858.129 1266.34 858.141Z" fill="#1E1E1E"/>
<path d="M923.93 885.062V890.172H927.071V891.695H923.93V896.898H922.102V885.062H923.93ZM907.618 895.633C912.739 894.25 915.868 891.473 916.255 887.945H908.555V886.422H918.235C918.212 891.672 914.544 895.434 908.368 897.109L907.618 895.633ZM910.735 905.617V897.859H923.93V905.617H910.735ZM912.563 904.117H922.102V899.383H912.563V904.117ZM934.888 890.664C934.888 894.332 937.314 898.117 940.279 899.57L939.154 901.047C936.857 899.852 934.935 897.379 934.009 894.484C933.083 897.555 931.115 900.191 928.771 901.445L927.599 899.969C930.646 898.469 933.06 894.473 933.083 890.664V886.867H934.888V890.664ZM942.2 905.898V885.062H944.029V893.523H947.521V895.117H944.029V905.898H942.2ZM964.455 885.062V890.406H967.595V891.977H964.455V897.18H962.627V885.062H964.455ZM948.213 888.742V887.219H953.51V884.875H955.338V887.219H960.635V888.742H948.213ZM949.408 893.359C949.396 891.133 951.4 889.715 954.424 889.703C957.412 889.715 959.416 891.133 959.439 893.359C959.416 895.586 957.412 897.027 954.424 897.016C951.4 897.027 949.396 895.586 949.408 893.359ZM951.166 893.359C951.154 894.719 952.455 895.609 954.424 895.609C956.369 895.609 957.681 894.719 957.705 893.359C957.681 892.012 956.369 891.109 954.424 891.133C952.455 891.109 951.154 892.012 951.166 893.359ZM951.283 905.617V898.094H953.111V900.32H962.627V898.094H964.455V905.617H951.283ZM953.111 904.141H962.627V901.773H953.111V904.141ZM985.608 885.062V905.898H983.78V885.062H985.608ZM969.787 900.531V887.125H971.592V898.938C974.78 898.914 978.061 898.668 981.553 897.93L981.811 899.5C978.108 900.273 974.815 900.531 971.475 900.531H969.787ZM1004.82 885.062V893.312H1008.31V894.859H1004.82V905.945H1002.99V885.062H1004.82ZM989.604 900.719V887.102H999.331V888.625H991.432V899.172C995.206 899.16 997.866 898.996 1000.97 898.422L1001.21 900.016C997.936 900.602 995.206 900.719 991.245 900.719H989.604ZM1011.16 904.141C1010.34 904.129 1009.63 903.449 1009.66 902.617C1009.63 901.797 1010.34 901.117 1011.16 901.117C1011.99 901.117 1012.67 901.797 1012.66 902.617C1012.67 903.449 1011.99 904.129 1011.16 904.141Z" fill="#1E1E1E"/>
<rect x="650" y="428" width="610" height="113" rx="17" fill="#F5F6F8"/>
<path d="M728.121 490.121L736.066 498.066C737.134 499.134 737.134 500.866 736.066 501.934C730.29 507.71 721.146 508.36 714.612 503.459L709.886 499.914C704.655 495.991 700.009 491.345 696.086 486.114L692.541 481.388C687.64 474.854 688.29 465.71 694.066 459.934C695.134 458.866 696.866 458.866 697.934 459.934L705.879 467.879C707.05 469.05 707.05 470.95 705.879 472.121L702.815 475.185C702.328 475.672 702.208 476.415 702.516 477.031C706.076 484.151 711.849 489.924 718.969 493.484C719.585 493.792 720.328 493.672 720.815 493.185L723.879 490.121C725.05 488.95 726.95 488.95 728.121 490.121Z" stroke="#7737FF" stroke-width="4"/>
<rect x="650" y="571" width="610" height="113" rx="17" fill="#F5F6F8"/>
<rect x="687" y="610" width="48" height="36" rx="6" stroke="#7737FF" stroke-width="4"/>
<path d="M687 619L708.317 629.658C710.006 630.503 711.994 630.503 713.683 629.658L735 619" stroke="#7737FF" stroke-width="4"/>
<defs>
<linearGradient id="paint0_linear_73_167" x1="660" y1="259" x2="1260" y2="259" gradientUnits="userSpaceOnUse">
<stop stop-color="#00F3C7"/>
<stop offset="0.29" stop-color="#42C8FF"/>
<stop offset="1" stop-color="#7737FF"/>
</linearGradient>
</defs>
</svg>
