<svg width="189" height="18" viewBox="0 0 189 18" fill="none" xmlns="http://www.w3.org/2000/svg">
<path d="M0.688 7.416C0.688 6.328 0.933333 5.352 1.424 4.488C1.91467 3.61333 2.58133 2.93067 3.424 2.44C4.27733 1.94933 5.22133 1.704 6.256 1.704C7.472 1.704 8.53333 1.99733 9.44 2.584C10.3467 3.17067 11.008 4.00267 11.424 5.08H9.68C9.37067 4.408 8.92267 3.89067 8.336 3.528C7.76 3.16533 7.06667 2.984 6.256 2.984C5.47733 2.984 4.77867 3.16533 4.16 3.528C3.54133 3.89067 3.056 4.408 2.704 5.08C2.352 5.74133 2.176 6.52 2.176 7.416C2.176 8.30133 2.352 9.08 2.704 9.752C3.056 10.4133 3.54133 10.9253 4.16 11.288C4.77867 11.6507 5.47733 11.832 6.256 11.832C7.06667 11.832 7.76 11.656 8.336 11.304C8.92267 10.9413 9.37067 10.424 9.68 9.752H11.424C11.008 10.8187 10.3467 11.6453 9.44 12.232C8.53333 12.808 7.472 13.096 6.256 13.096C5.22133 13.096 4.27733 12.856 3.424 12.376C2.58133 11.8853 1.91467 11.208 1.424 10.344C0.933333 9.48 0.688 8.504 0.688 7.416ZM17.8954 13.144C17.074 13.144 16.3274 12.9573 15.6554 12.584C14.994 12.2107 14.4714 11.6827 14.0874 11C13.714 10.3067 13.5274 9.50667 13.5274 8.6C13.5274 7.704 13.7194 6.91467 14.1034 6.232C14.498 5.53867 15.0314 5.01067 15.7034 4.648C16.3754 4.27467 17.1274 4.088 17.9594 4.088C18.7914 4.088 19.5434 4.27467 20.2154 4.648C20.8874 5.01067 21.4154 5.53333 21.7994 6.216C22.194 6.89867 22.3914 7.69333 22.3914 8.6C22.3914 9.50667 22.1887 10.3067 21.7834 11C21.3887 11.6827 20.85 12.2107 20.1674 12.584C19.4847 12.9573 18.7274 13.144 17.8954 13.144ZM17.8954 11.864C18.418 11.864 18.9087 11.7413 19.3674 11.496C19.826 11.2507 20.194 10.8827 20.4714 10.392C20.7594 9.90133 20.9034 9.304 20.9034 8.6C20.9034 7.896 20.7647 7.29867 20.4874 6.808C20.21 6.31733 19.8474 5.95467 19.3994 5.72C18.9514 5.47467 18.466 5.352 17.9434 5.352C17.41 5.352 16.9194 5.47467 16.4714 5.72C16.034 5.95467 15.682 6.31733 15.4154 6.808C15.1487 7.29867 15.0154 7.896 15.0154 8.6C15.0154 9.31467 15.1434 9.91733 15.3994 10.408C15.666 10.8987 16.018 11.2667 16.4554 11.512C16.8927 11.7467 17.3727 11.864 17.8954 11.864ZM26.2417 5.848C26.5297 5.34667 26.9564 4.93067 27.5217 4.6C28.0977 4.25867 28.7644 4.088 29.5217 4.088C30.3004 4.088 31.0044 4.27467 31.6337 4.648C32.2737 5.02133 32.7751 5.54933 33.1377 6.232C33.5004 6.904 33.6817 7.688 33.6817 8.584C33.6817 9.46933 33.5004 10.2587 33.1377 10.952C32.7751 11.6453 32.2737 12.184 31.6337 12.568C31.0044 12.952 30.3004 13.144 29.5217 13.144C28.7751 13.144 28.1137 12.9787 27.5377 12.648C26.9724 12.3067 26.5404 11.8853 26.2417 11.384V17.16H24.7857V4.232H26.2417V5.848ZM32.1937 8.584C32.1937 7.92267 32.0604 7.34667 31.7937 6.856C31.5271 6.36533 31.1644 5.992 30.7057 5.736C30.2577 5.48 29.7617 5.352 29.2177 5.352C28.6844 5.352 28.1884 5.48533 27.7297 5.752C27.2817 6.008 26.9191 6.38667 26.6417 6.888C26.3751 7.37867 26.2417 7.94933 26.2417 8.6C26.2417 9.26133 26.3751 9.84267 26.6417 10.344C26.9191 10.8347 27.2817 11.2133 27.7297 11.48C28.1884 11.736 28.6844 11.864 29.2177 11.864C29.7617 11.864 30.2577 11.736 30.7057 11.48C31.1644 11.2133 31.5271 10.8347 31.7937 10.344C32.0604 9.84267 32.1937 9.256 32.1937 8.584ZM43.6302 4.232L38.3502 17.128H36.8462L38.5742 12.904L35.0382 4.232H36.6542L39.4062 11.336L42.1262 4.232H43.6302ZM47.0299 5.656C47.2859 5.15467 47.6485 4.76533 48.1179 4.488C48.5979 4.21067 49.1792 4.072 49.8619 4.072V5.576H49.4779C47.8459 5.576 47.0299 6.46133 47.0299 8.232V13H45.5739V4.232H47.0299V5.656ZM52.7746 2.808C52.4973 2.808 52.2626 2.712 52.0706 2.52C51.8786 2.328 51.7826 2.09333 51.7826 1.816C51.7826 1.53867 51.8786 1.304 52.0706 1.112C52.2626 0.919999 52.4973 0.823999 52.7746 0.823999C53.0413 0.823999 53.2653 0.919999 53.4466 1.112C53.6386 1.304 53.7346 1.53867 53.7346 1.816C53.7346 2.09333 53.6386 2.328 53.4466 2.52C53.2653 2.712 53.0413 2.808 52.7746 2.808ZM53.4786 4.232V13H52.0226V4.232H53.4786ZM60.0561 4.088C60.8135 4.088 61.4748 4.25333 62.0401 4.584C62.6161 4.91467 63.0428 5.33067 63.3201 5.832V4.232H64.7921V13.192C64.7921 13.992 64.6215 14.7013 64.2801 15.32C63.9388 15.9493 63.4481 16.44 62.8081 16.792C62.1788 17.144 61.4428 17.32 60.6001 17.32C59.4481 17.32 58.4881 17.048 57.7201 16.504C56.9521 15.96 56.4988 15.2187 56.3601 14.28H57.8001C57.9601 14.8133 58.2908 15.24 58.7921 15.56C59.2935 15.8907 59.8961 16.056 60.6001 16.056C61.4001 16.056 62.0508 15.8053 62.5521 15.304C63.0641 14.8027 63.3201 14.0987 63.3201 13.192V11.352C63.0321 11.864 62.6055 12.2907 62.0401 12.632C61.4748 12.9733 60.8135 13.144 60.0561 13.144C59.2775 13.144 58.5681 12.952 57.9281 12.568C57.2988 12.184 56.8028 11.6453 56.4401 10.952C56.0775 10.2587 55.8961 9.46933 55.8961 8.584C55.8961 7.688 56.0775 6.904 56.4401 6.232C56.8028 5.54933 57.2988 5.02133 57.9281 4.648C58.5681 4.27467 59.2775 4.088 60.0561 4.088ZM63.3201 8.6C63.3201 7.93867 63.1868 7.36267 62.9201 6.872C62.6535 6.38133 62.2908 6.008 61.8321 5.752C61.3841 5.48533 60.8881 5.352 60.3441 5.352C59.8001 5.352 59.3041 5.48 58.8561 5.736C58.4081 5.992 58.0508 6.36533 57.7841 6.856C57.5175 7.34667 57.3841 7.92267 57.3841 8.584C57.3841 9.256 57.5175 9.84267 57.7841 10.344C58.0508 10.8347 58.4081 11.2133 58.8561 11.48C59.3041 11.736 59.8001 11.864 60.3441 11.864C60.8881 11.864 61.3841 11.736 61.8321 11.48C62.2908 11.2133 62.6535 10.8347 62.9201 10.344C63.1868 9.84267 63.3201 9.26133 63.3201 8.6ZM72.0846 4.072C72.746 4.072 73.3433 4.216 73.8766 4.504C74.41 4.78133 74.826 5.20267 75.1246 5.768C75.434 6.33333 75.5886 7.02133 75.5886 7.832V13H74.1486V8.04C74.1486 7.16533 73.93 6.49867 73.4926 6.04C73.0553 5.57067 72.458 5.336 71.7006 5.336C70.9326 5.336 70.3193 5.576 69.8606 6.056C69.4126 6.536 69.1886 7.23467 69.1886 8.152V13H67.7326V1.16H69.1886V5.48C69.4766 5.032 69.8713 4.68533 70.3726 4.44C70.8846 4.19467 71.4553 4.072 72.0846 4.072ZM80.223 5.432V10.6C80.223 11.0267 80.3137 11.3307 80.495 11.512C80.6763 11.6827 80.991 11.768 81.439 11.768H82.511V13H81.199C80.3883 13 79.7803 12.8133 79.375 12.44C78.9697 12.0667 78.767 11.4533 78.767 10.6V5.432H77.631V4.232H78.767V2.024H80.223V4.232H82.511V5.432H80.223ZM93.0751 9.96C92.3071 9.96 91.7098 9.72533 91.2831 9.256C90.8565 8.78667 90.6431 8.136 90.6431 7.304C90.6431 6.45067 90.8618 5.79467 91.2991 5.336C91.7471 4.86667 92.3605 4.632 93.1391 4.632C93.3951 4.632 93.6405 4.65867 93.8751 4.712C94.1205 4.75467 94.3605 4.82933 94.5951 4.936L94.3231 5.736C94.1205 5.65067 93.9178 5.58667 93.7151 5.544C93.5231 5.50133 93.3258 5.48 93.1231 5.48C92.6538 5.48 92.2965 5.63467 92.0511 5.944C91.8165 6.24267 91.6991 6.696 91.6991 7.304C91.6991 7.88 91.8165 8.328 92.0511 8.648C92.2858 8.95733 92.6271 9.112 93.0751 9.112C93.2885 9.112 93.5125 9.08533 93.7471 9.032C93.9925 8.968 94.2485 8.88267 94.5151 8.776V9.64C94.2591 9.74667 94.0138 9.82667 93.7791 9.88C93.5445 9.93333 93.3098 9.96 93.0751 9.96ZM92.6431 13.88C91.7365 13.88 90.8831 13.7093 90.0831 13.368C89.2831 13.0267 88.5791 12.5573 87.9711 11.96C87.3738 11.352 86.9045 10.648 86.5631 9.848C86.2218 9.048 86.0511 8.19467 86.0511 7.288C86.0511 6.37067 86.2218 5.51733 86.5631 4.728C86.9045 3.928 87.3738 3.22933 87.9711 2.632C88.5791 2.024 89.2831 1.54933 90.0831 1.208C90.8831 0.866666 91.7365 0.695999 92.6431 0.695999C93.5605 0.695999 94.4138 0.866666 95.2031 1.208C96.0031 1.54933 96.7018 2.024 97.2991 2.632C97.9071 3.22933 98.3818 3.928 98.7231 4.728C99.0645 5.51733 99.2351 6.37067 99.2351 7.288C99.2351 8.19467 99.0645 9.048 98.7231 9.848C98.3818 10.648 97.9071 11.352 97.2991 11.96C96.7018 12.5573 96.0031 13.0267 95.2031 13.368C94.4138 13.7093 93.5605 13.88 92.6431 13.88ZM92.6431 12.984C93.4325 12.984 94.1685 12.84 94.8511 12.552C95.5445 12.2533 96.1525 11.8427 96.6751 11.32C97.1978 10.7973 97.6031 10.1947 97.8911 9.512C98.1898 8.81867 98.3391 8.07733 98.3391 7.288C98.3391 6.49867 98.1898 5.76267 97.8911 5.08C97.6031 4.38667 97.1978 3.77867 96.6751 3.256C96.1525 2.73333 95.5445 2.328 94.8511 2.04C94.1685 1.74133 93.4325 1.592 92.6431 1.592C91.8538 1.592 91.1125 1.74133 90.4191 2.04C89.7365 2.328 89.1338 2.73333 88.6111 3.256C88.0885 3.77867 87.6778 4.38667 87.3791 5.08C87.0911 5.76267 86.9471 6.49867 86.9471 7.288C86.9471 8.07733 87.0911 8.81867 87.3791 9.512C87.6778 10.1947 88.0885 10.7973 88.6111 11.32C89.1338 11.8427 89.7365 12.2533 90.4191 12.552C91.1125 12.84 91.8538 12.984 92.6431 12.984ZM112.691 1.848L108.483 13H106.803L102.595 1.848H104.147L107.651 11.464L111.155 1.848H112.691ZM122.768 8.28C122.768 8.55733 122.752 8.85067 122.72 9.16H115.712C115.765 10.024 116.058 10.7013 116.592 11.192C117.136 11.672 117.792 11.912 118.56 11.912C119.189 11.912 119.712 11.768 120.128 11.48C120.554 11.1813 120.853 10.7867 121.024 10.296H122.592C122.357 11.1387 121.888 11.8267 121.184 12.36C120.48 12.8827 119.605 13.144 118.56 13.144C117.728 13.144 116.981 12.9573 116.32 12.584C115.669 12.2107 115.157 11.6827 114.784 11C114.41 10.3067 114.224 9.50667 114.224 8.6C114.224 7.69333 114.405 6.89867 114.768 6.216C115.13 5.53333 115.637 5.01067 116.288 4.648C116.949 4.27467 117.706 4.088 118.56 4.088C119.392 4.088 120.128 4.26933 120.768 4.632C121.408 4.99467 121.898 5.496 122.24 6.136C122.592 6.76533 122.768 7.48 122.768 8.28ZM121.264 7.976C121.264 7.42133 121.141 6.94667 120.896 6.552C120.65 6.14667 120.314 5.84267 119.888 5.64C119.472 5.42667 119.008 5.32 118.496 5.32C117.76 5.32 117.13 5.55467 116.608 6.024C116.096 6.49333 115.802 7.144 115.728 7.976H121.264ZM128.786 4.088C129.543 4.088 130.204 4.25333 130.77 4.584C131.346 4.91467 131.772 5.33067 132.05 5.832V4.232H133.522V13.192C133.522 13.992 133.351 14.7013 133.01 15.32C132.668 15.9493 132.178 16.44 131.538 16.792C130.908 17.144 130.172 17.32 129.33 17.32C128.178 17.32 127.218 17.048 126.45 16.504C125.682 15.96 125.228 15.2187 125.09 14.28H126.53C126.69 14.8133 127.02 15.24 127.522 15.56C128.023 15.8907 128.626 16.056 129.33 16.056C130.13 16.056 130.78 15.8053 131.282 15.304C131.794 14.8027 132.05 14.0987 132.05 13.192V11.352C131.762 11.864 131.335 12.2907 130.77 12.632C130.204 12.9733 129.543 13.144 128.786 13.144C128.007 13.144 127.298 12.952 126.658 12.568C126.028 12.184 125.532 11.6453 125.17 10.952C124.807 10.2587 124.626 9.46933 124.626 8.584C124.626 7.688 124.807 6.904 125.17 6.232C125.532 5.54933 126.028 5.02133 126.658 4.648C127.298 4.27467 128.007 4.088 128.786 4.088ZM132.05 8.6C132.05 7.93867 131.916 7.36267 131.65 6.872C131.383 6.38133 131.02 6.008 130.562 5.752C130.114 5.48533 129.618 5.352 129.074 5.352C128.53 5.352 128.034 5.48 127.586 5.736C127.138 5.992 126.78 6.36533 126.514 6.856C126.247 7.34667 126.114 7.92267 126.114 8.584C126.114 9.256 126.247 9.84267 126.514 10.344C126.78 10.8347 127.138 11.2133 127.586 11.48C128.034 11.736 128.53 11.864 129.074 11.864C129.618 11.864 130.114 11.736 130.562 11.48C131.02 11.2133 131.383 10.8347 131.65 10.344C131.916 9.84267 132.05 9.26133 132.05 8.6ZM135.918 8.584C135.918 7.688 136.099 6.904 136.462 6.232C136.825 5.54933 137.321 5.02133 137.95 4.648C138.59 4.27467 139.299 4.088 140.078 4.088C140.846 4.088 141.513 4.25333 142.078 4.584C142.643 4.91467 143.065 5.33067 143.342 5.832V4.232H144.814V13H143.342V11.368C143.054 11.88 142.622 12.3067 142.046 12.648C141.481 12.9787 140.819 13.144 140.062 13.144C139.283 13.144 138.579 12.952 137.95 12.568C137.321 12.184 136.825 11.6453 136.462 10.952C136.099 10.2587 135.918 9.46933 135.918 8.584ZM143.342 8.6C143.342 7.93867 143.209 7.36267 142.942 6.872C142.675 6.38133 142.313 6.008 141.854 5.752C141.406 5.48533 140.91 5.352 140.366 5.352C139.822 5.352 139.326 5.48 138.878 5.736C138.43 5.992 138.073 6.36533 137.806 6.856C137.539 7.34667 137.406 7.92267 137.406 8.584C137.406 9.256 137.539 9.84267 137.806 10.344C138.073 10.8347 138.43 11.2133 138.878 11.48C139.326 11.736 139.822 11.864 140.366 11.864C140.91 11.864 141.406 11.736 141.854 11.48C142.313 11.2133 142.675 10.8347 142.942 10.344C143.209 9.84267 143.342 9.26133 143.342 8.6ZM150.859 13.144C150.187 13.144 149.584 13.032 149.051 12.808C148.517 12.5733 148.096 12.2533 147.787 11.848C147.477 11.432 147.307 10.9573 147.275 10.424H148.779C148.821 10.8613 149.024 11.2187 149.387 11.496C149.76 11.7733 150.245 11.912 150.843 11.912C151.397 11.912 151.835 11.7893 152.155 11.544C152.475 11.2987 152.635 10.9893 152.635 10.616C152.635 10.232 152.464 9.94933 152.123 9.768C151.781 9.576 151.253 9.38933 150.539 9.208C149.888 9.03733 149.355 8.86667 148.939 8.696C148.533 8.51467 148.181 8.25333 147.883 7.912C147.595 7.56 147.451 7.10133 147.451 6.536C147.451 6.088 147.584 5.67733 147.851 5.304C148.117 4.93067 148.496 4.63733 148.987 4.424C149.477 4.2 150.037 4.088 150.667 4.088C151.637 4.088 152.421 4.33333 153.019 4.824C153.616 5.31467 153.936 5.98667 153.979 6.84H152.523C152.491 6.38133 152.304 6.01333 151.963 5.736C151.632 5.45867 151.184 5.32 150.619 5.32C150.096 5.32 149.68 5.432 149.371 5.656C149.061 5.88 148.907 6.17333 148.907 6.536C148.907 6.824 148.997 7.064 149.179 7.256C149.371 7.43733 149.605 7.58667 149.883 7.704C150.171 7.81067 150.565 7.93333 151.067 8.072C151.696 8.24267 152.208 8.41333 152.603 8.584C152.997 8.744 153.333 8.98933 153.611 9.32C153.899 9.65067 154.048 10.0827 154.059 10.616C154.059 11.096 153.925 11.528 153.659 11.912C153.392 12.296 153.013 12.6 152.523 12.824C152.043 13.0373 151.488 13.144 150.859 13.144ZM162.795 1.848V13H161.339V1.848H162.795ZM170.029 4.072C171.096 4.072 171.96 4.39733 172.621 5.048C173.282 5.688 173.613 6.616 173.613 7.832V13H172.173V8.04C172.173 7.16533 171.954 6.49867 171.517 6.04C171.08 5.57067 170.482 5.336 169.725 5.336C168.957 5.336 168.344 5.576 167.885 6.056C167.437 6.536 167.213 7.23467 167.213 8.152V13H165.757V4.232H167.213V5.48C167.501 5.032 167.89 4.68533 168.381 4.44C168.882 4.19467 169.432 4.072 170.029 4.072ZM175.927 8.6C175.927 7.69333 176.109 6.904 176.471 6.232C176.834 5.54933 177.335 5.02133 177.975 4.648C178.626 4.27467 179.367 4.088 180.199 4.088C181.277 4.088 182.162 4.34933 182.855 4.872C183.559 5.39467 184.023 6.12 184.247 7.048H182.679C182.53 6.51467 182.237 6.09333 181.799 5.784C181.373 5.47467 180.839 5.32 180.199 5.32C179.367 5.32 178.695 5.608 178.183 6.184C177.671 6.74933 177.415 7.55467 177.415 8.6C177.415 9.656 177.671 10.472 178.183 11.048C178.695 11.624 179.367 11.912 180.199 11.912C180.839 11.912 181.373 11.7627 181.799 11.464C182.226 11.1653 182.519 10.7387 182.679 10.184H184.247C184.013 11.08 183.543 11.8 182.839 12.344C182.135 12.8773 181.255 13.144 180.199 13.144C179.367 13.144 178.626 12.9573 177.975 12.584C177.335 12.2107 176.834 11.6827 176.471 11C176.109 10.3173 175.927 9.51733 175.927 8.6ZM187.134 13.096C186.857 13.096 186.622 13 186.43 12.808C186.238 12.616 186.142 12.3813 186.142 12.104C186.142 11.8267 186.238 11.592 186.43 11.4C186.622 11.208 186.857 11.112 187.134 11.112C187.401 11.112 187.625 11.208 187.806 11.4C187.998 11.592 188.094 11.8267 188.094 12.104C188.094 12.3813 187.998 12.616 187.806 12.808C187.625 13 187.401 13.096 187.134 13.096Z" fill="#1E1E1E"/>
</svg>
